<svg width="230" height="130" viewBox="0 0 230 130" fill="none" xmlns="http://www.w3.org/2000/svg">
<path d="M0 8.68055C0 3.88642 3.88642 0 8.68055 0H221.319C226.114 0 230 3.88642 230 8.68055V65V121.319C230 126.114 226.114 130 221.319 130H8.68055C3.88642 130 0 126.114 0 121.319V65V8.68055Z" fill="#FAD0C5"/>
<path d="M34.1319 55.375V70H30.5694V55.375H34.1319ZM43.7969 58.25C45.158 58.25 46.2413 58.6944 47.0469 59.5833C47.8663 60.4583 48.2761 61.6667 48.2761 63.2083V70H44.7344V63.6875C44.7344 62.9097 44.533 62.3056 44.1302 61.875C43.7275 61.4444 43.1858 61.2292 42.5052 61.2292C41.8247 61.2292 41.283 61.4444 40.8802 61.875C40.4775 62.3056 40.2761 62.9097 40.2761 63.6875V70H36.7136V58.375H40.2761V59.9167C40.6372 59.4028 41.1233 59 41.7344 58.7083C42.3455 58.4028 43.033 58.25 43.7969 58.25ZM59.71 61.2083V64.1667H50.5433V61.2083H59.71ZM62.1283 64.1875C62.1283 62.9792 62.3713 61.9236 62.8574 61.0208C63.3574 60.1181 64.0449 59.4236 64.9199 58.9375C65.8088 58.4514 66.8227 58.2083 67.9616 58.2083C69.4199 58.2083 70.6352 58.5903 71.6074 59.3542C72.5935 60.1181 73.2394 61.1944 73.5449 62.5833H69.7533C69.4338 61.6944 68.8158 61.25 67.8991 61.25C67.2463 61.25 66.7255 61.5069 66.3366 62.0208C65.9477 62.5208 65.7533 63.2431 65.7533 64.1875C65.7533 65.1319 65.9477 65.8611 66.3366 66.375C66.7255 66.875 67.2463 67.125 67.8991 67.125C68.8158 67.125 69.4338 66.6806 69.7533 65.7917H73.5449C73.2394 67.1528 72.5935 68.2222 71.6074 69C70.6213 69.7778 69.406 70.1667 67.9616 70.1667C66.8227 70.1667 65.8088 69.9236 64.9199 69.4375C64.0449 68.9514 63.3574 68.2569 62.8574 67.3542C62.3713 66.4514 62.1283 65.3958 62.1283 64.1875ZM79.013 54.5833V70H75.4505V54.5833H79.013ZM80.8864 64.1667C80.8864 62.9722 81.1086 61.9236 81.5531 61.0208C82.0114 60.1181 82.6295 59.4236 83.4072 58.9375C84.185 58.4514 85.0531 58.2083 86.0114 58.2083C86.8308 58.2083 87.5461 58.375 88.1572 58.7083C88.7822 59.0417 89.2614 59.4792 89.5947 60.0208V58.375H93.1572V70H89.5947V68.3542C89.2475 68.8958 88.7614 69.3333 88.1364 69.6667C87.5253 70 86.81 70.1667 85.9906 70.1667C85.0461 70.1667 84.185 69.9236 83.4072 69.4375C82.6295 68.9375 82.0114 68.2361 81.5531 67.3333C81.1086 66.4167 80.8864 65.3611 80.8864 64.1667ZM89.5947 64.1875C89.5947 63.2986 89.3447 62.5972 88.8447 62.0833C88.3586 61.5694 87.7614 61.3125 87.0531 61.3125C86.3447 61.3125 85.7406 61.5694 85.2406 62.0833C84.7545 62.5833 84.5114 63.2778 84.5114 64.1667C84.5114 65.0556 84.7545 65.7639 85.2406 66.2917C85.7406 66.8056 86.3447 67.0625 87.0531 67.0625C87.7614 67.0625 88.3586 66.8056 88.8447 66.2917C89.3447 65.7778 89.5947 65.0764 89.5947 64.1875ZM100.464 70.1667C99.4498 70.1667 98.547 69.9931 97.7554 69.6458C96.9637 69.2986 96.3387 68.8264 95.8804 68.2292C95.422 67.6181 95.1651 66.9375 95.1095 66.1875H98.6304C98.672 66.5903 98.8595 66.9167 99.1929 67.1667C99.5262 67.4167 99.9359 67.5417 100.422 67.5417C100.866 67.5417 101.207 67.4583 101.443 67.2917C101.693 67.1111 101.818 66.8819 101.818 66.6042C101.818 66.2708 101.644 66.0278 101.297 65.875C100.95 65.7083 100.387 65.5278 99.6095 65.3333C98.7762 65.1389 98.0818 64.9375 97.5262 64.7292C96.9706 64.5069 96.4915 64.1667 96.0887 63.7083C95.6859 63.2361 95.4845 62.6042 95.4845 61.8125C95.4845 61.1458 95.6651 60.5417 96.0262 60C96.4012 59.4444 96.9429 59.0069 97.6512 58.6875C98.3734 58.3681 99.2276 58.2083 100.214 58.2083C101.672 58.2083 102.818 58.5694 103.651 59.2917C104.498 60.0139 104.985 60.9722 105.11 62.1667H101.818C101.762 61.7639 101.582 61.4444 101.276 61.2083C100.985 60.9722 100.596 60.8542 100.11 60.8542C99.6929 60.8542 99.3734 60.9375 99.1512 61.1042C98.929 61.2569 98.8179 61.4722 98.8179 61.75C98.8179 62.0833 98.9915 62.3333 99.3387 62.5C99.6998 62.6667 100.255 62.8333 101.005 63C101.866 63.2222 102.568 63.4444 103.11 63.6667C103.651 63.875 104.123 64.2222 104.526 64.7083C104.943 65.1806 105.158 65.8194 105.172 66.625C105.172 67.3056 104.978 67.9167 104.589 68.4583C104.214 68.9861 103.665 69.4028 102.943 69.7083C102.235 70.0139 101.408 70.1667 100.464 70.1667ZM112.081 70.1667C111.067 70.1667 110.164 69.9931 109.372 69.6458C108.581 69.2986 107.956 68.8264 107.497 68.2292C107.039 67.6181 106.782 66.9375 106.727 66.1875H110.247C110.289 66.5903 110.477 66.9167 110.81 67.1667C111.143 67.4167 111.553 67.5417 112.039 67.5417C112.484 67.5417 112.824 67.4583 113.06 67.2917C113.31 67.1111 113.435 66.8819 113.435 66.6042C113.435 66.2708 113.261 66.0278 112.914 65.875C112.567 65.7083 112.004 65.5278 111.227 65.3333C110.393 65.1389 109.699 64.9375 109.143 64.7292C108.588 64.5069 108.109 64.1667 107.706 63.7083C107.303 63.2361 107.102 62.6042 107.102 61.8125C107.102 61.1458 107.282 60.5417 107.643 60C108.018 59.4444 108.56 59.0069 109.268 58.6875C109.99 58.3681 110.845 58.2083 111.831 58.2083C113.289 58.2083 114.435 58.5694 115.268 59.2917C116.115 60.0139 116.602 60.9722 116.727 62.1667H113.435C113.379 61.7639 113.199 61.4444 112.893 61.2083C112.602 60.9722 112.213 60.8542 111.727 60.8542C111.31 60.8542 110.99 60.9375 110.768 61.1042C110.546 61.2569 110.435 61.4722 110.435 61.75C110.435 62.0833 110.609 62.3333 110.956 62.5C111.317 62.6667 111.872 62.8333 112.622 63C113.484 63.2222 114.185 63.4444 114.727 63.6667C115.268 63.875 115.74 64.2222 116.143 64.7083C116.56 65.1806 116.775 65.8194 116.789 66.625C116.789 67.3056 116.595 67.9167 116.206 68.4583C115.831 68.9861 115.282 69.4028 114.56 69.7083C113.852 70.0139 113.025 70.1667 112.081 70.1667ZM126.946 67.25H131.613V70H123.383V55.375H126.946V67.25ZM144.27 64C144.27 64.3333 144.249 64.6806 144.208 65.0417H136.145C136.201 65.7639 136.43 66.3194 136.833 66.7083C137.249 67.0833 137.756 67.2708 138.354 67.2708C139.242 67.2708 139.86 66.8958 140.208 66.1458H143.999C143.805 66.9097 143.451 67.5972 142.937 68.2083C142.437 68.8194 141.805 69.2986 141.041 69.6458C140.277 69.9931 139.423 70.1667 138.479 70.1667C137.34 70.1667 136.326 69.9236 135.437 69.4375C134.548 68.9514 133.854 68.2569 133.354 67.3542C132.854 66.4514 132.604 65.3958 132.604 64.1875C132.604 62.9792 132.847 61.9236 133.333 61.0208C133.833 60.1181 134.527 59.4236 135.416 58.9375C136.305 58.4514 137.326 58.2083 138.479 58.2083C139.604 58.2083 140.604 58.4444 141.479 58.9167C142.354 59.3889 143.034 60.0625 143.52 60.9375C144.02 61.8125 144.27 62.8333 144.27 64ZM140.624 63.0625C140.624 62.4514 140.416 61.9653 139.999 61.6042C139.583 61.2431 139.062 61.0625 138.437 61.0625C137.84 61.0625 137.333 61.2361 136.916 61.5833C136.513 61.9306 136.263 62.4236 136.166 63.0625H140.624ZM145.441 64.1875C145.441 62.9792 145.684 61.9236 146.17 61.0208C146.67 60.1181 147.358 59.4236 148.233 58.9375C149.122 58.4514 150.136 58.2083 151.275 58.2083C152.733 58.2083 153.948 58.5903 154.92 59.3542C155.907 60.1181 156.552 61.1944 156.858 62.5833H153.066C152.747 61.6944 152.129 61.25 151.212 61.25C150.559 61.25 150.038 61.5069 149.65 62.0208C149.261 62.5208 149.066 63.2431 149.066 64.1875C149.066 65.1319 149.261 65.8611 149.65 66.375C150.038 66.875 150.559 67.125 151.212 67.125C152.129 67.125 152.747 66.6806 153.066 65.7917H156.858C156.552 67.1528 155.907 68.2222 154.92 69C153.934 69.7778 152.719 70.1667 151.275 70.1667C150.136 70.1667 149.122 69.9236 148.233 69.4375C147.358 68.9514 146.67 68.2569 146.17 67.3542C145.684 66.4514 145.441 65.3958 145.441 64.1875ZM165.243 66.9792V70H163.43C162.138 70 161.132 69.6875 160.409 69.0625C159.687 68.4236 159.326 67.3889 159.326 65.9583V61.3333H157.909V58.375H159.326V55.5417H162.888V58.375H165.222V61.3333H162.888V66C162.888 66.3472 162.972 66.5972 163.138 66.75C163.305 66.9028 163.583 66.9792 163.972 66.9792H165.243ZM178.706 58.375V70H175.144V68.4167C174.783 68.9306 174.29 69.3472 173.665 69.6667C173.053 69.9722 172.373 70.125 171.623 70.125C170.734 70.125 169.949 69.9306 169.269 69.5417C168.588 69.1389 168.06 68.5625 167.685 67.8125C167.31 67.0625 167.123 66.1806 167.123 65.1667V58.375H170.665V64.6875C170.665 65.4653 170.866 66.0694 171.269 66.5C171.671 66.9306 172.213 67.1458 172.894 67.1458C173.588 67.1458 174.137 66.9306 174.54 66.5C174.942 66.0694 175.144 65.4653 175.144 64.6875V58.375H178.706ZM184.828 60.3125C185.244 59.6736 185.765 59.1736 186.39 58.8125C187.015 58.4375 187.71 58.25 188.473 58.25V62.0208H187.494C186.605 62.0208 185.939 62.2153 185.494 62.6042C185.05 62.9792 184.828 63.6458 184.828 64.6042V70H181.265V58.375H184.828V60.3125ZM201.135 64C201.135 64.3333 201.114 64.6806 201.072 65.0417H193.01C193.065 65.7639 193.294 66.3194 193.697 66.7083C194.114 67.0833 194.621 67.2708 195.218 67.2708C196.107 67.2708 196.725 66.8958 197.072 66.1458H200.864C200.669 66.9097 200.315 67.5972 199.801 68.2083C199.301 68.8194 198.669 69.2986 197.905 69.6458C197.142 69.9931 196.287 70.1667 195.343 70.1667C194.204 70.1667 193.19 69.9236 192.301 69.4375C191.412 68.9514 190.718 68.2569 190.218 67.3542C189.718 66.4514 189.468 65.3958 189.468 64.1875C189.468 62.9792 189.711 61.9236 190.197 61.0208C190.697 60.1181 191.392 59.4236 192.28 58.9375C193.169 58.4514 194.19 58.2083 195.343 58.2083C196.468 58.2083 197.468 58.4444 198.343 58.9167C199.218 59.3889 199.898 60.0625 200.385 60.9375C200.885 61.8125 201.135 62.8333 201.135 64ZM197.489 63.0625C197.489 62.4514 197.28 61.9653 196.864 61.6042C196.447 61.2431 195.926 61.0625 195.301 61.0625C194.704 61.0625 194.197 61.2361 193.78 61.5833C193.378 61.9306 193.128 62.4236 193.03 63.0625H197.489Z" fill="#EE765A"/>
</svg>
