<svg width="230" height="130" viewBox="0 0 230 130" fill="none" xmlns="http://www.w3.org/2000/svg">
<rect width="230" height="130" rx="10" fill="#EE765A"/>
<path d="M31.0847 57.375V72H27.5222V57.375H31.0847ZM40.7498 60.25C42.1109 60.25 43.1942 60.6944 43.9998 61.5833C44.8192 62.4583 45.2289 63.6667 45.2289 65.2083V72H41.6873V65.6875C41.6873 64.9097 41.4859 64.3056 41.0831 63.875C40.6803 63.4444 40.1387 63.2292 39.4581 63.2292C38.7776 63.2292 38.2359 63.4444 37.8331 63.875C37.4303 64.3056 37.229 64.9097 37.229 65.6875V72H33.6665V60.375H37.229V61.9167C37.5901 61.4028 38.0762 61 38.6873 60.7083C39.2984 60.4028 39.9859 60.25 40.7498 60.25ZM56.6629 63.2083V66.1667H47.4962V63.2083H56.6629ZM59.0812 66.1875C59.0812 64.9792 59.3242 63.9236 59.8103 63.0208C60.3103 62.1181 60.9978 61.4236 61.8728 60.9375C62.7617 60.4514 63.7756 60.2083 64.9145 60.2083C66.3728 60.2083 67.5881 60.5903 68.5603 61.3542C69.5464 62.1181 70.1923 63.1944 70.4978 64.5833H66.7062C66.3867 63.6944 65.7687 63.25 64.852 63.25C64.1992 63.25 63.6784 63.5069 63.2895 64.0208C62.9006 64.5208 62.7062 65.2431 62.7062 66.1875C62.7062 67.1319 62.9006 67.8611 63.2895 68.375C63.6784 68.875 64.1992 69.125 64.852 69.125C65.7687 69.125 66.3867 68.6806 66.7062 67.7917H70.4978C70.1923 69.1528 69.5464 70.2222 68.5603 71C67.5742 71.7778 66.3589 72.1667 64.9145 72.1667C63.7756 72.1667 62.7617 71.9236 61.8728 71.4375C60.9978 70.9514 60.3103 70.2569 59.8103 69.3542C59.3242 68.4514 59.0812 67.3958 59.0812 66.1875ZM75.9659 56.5833V72H72.4034V56.5833H75.9659ZM77.8393 66.1667C77.8393 64.9722 78.0615 63.9236 78.506 63.0208C78.9643 62.1181 79.5823 61.4236 80.3601 60.9375C81.1379 60.4514 82.006 60.2083 82.9643 60.2083C83.7837 60.2083 84.499 60.375 85.1101 60.7083C85.7351 61.0417 86.2143 61.4792 86.5476 62.0208V60.375H90.1101V72H86.5476V70.3542C86.2004 70.8958 85.7143 71.3333 85.0893 71.6667C84.4782 72 83.7629 72.1667 82.9435 72.1667C81.999 72.1667 81.1379 71.9236 80.3601 71.4375C79.5823 70.9375 78.9643 70.2361 78.506 69.3333C78.0615 68.4167 77.8393 67.3611 77.8393 66.1667ZM86.5476 66.1875C86.5476 65.2986 86.2976 64.5972 85.7976 64.0833C85.3115 63.5694 84.7143 63.3125 84.006 63.3125C83.2976 63.3125 82.6935 63.5694 82.1935 64.0833C81.7073 64.5833 81.4643 65.2778 81.4643 66.1667C81.4643 67.0556 81.7073 67.7639 82.1935 68.2917C82.6935 68.8056 83.2976 69.0625 84.006 69.0625C84.7143 69.0625 85.3115 68.8056 85.7976 68.2917C86.2976 67.7778 86.5476 67.0764 86.5476 66.1875ZM97.4166 72.1667C96.4027 72.1667 95.4999 71.9931 94.7083 71.6458C93.9166 71.2986 93.2916 70.8264 92.8333 70.2292C92.3749 69.6181 92.118 68.9375 92.0624 68.1875H95.5833C95.6249 68.5903 95.8124 68.9167 96.1458 69.1667C96.4791 69.4167 96.8888 69.5417 97.3749 69.5417C97.8194 69.5417 98.1596 69.4583 98.3958 69.2917C98.6458 69.1111 98.7708 68.8819 98.7708 68.6042C98.7708 68.2708 98.5971 68.0278 98.2499 67.875C97.9027 67.7083 97.3402 67.5278 96.5624 67.3333C95.7291 67.1389 95.0346 66.9375 94.4791 66.7292C93.9235 66.5069 93.4444 66.1667 93.0416 65.7083C92.6388 65.2361 92.4374 64.6042 92.4374 63.8125C92.4374 63.1458 92.618 62.5417 92.9791 62C93.3541 61.4444 93.8958 61.0069 94.6041 60.6875C95.3263 60.3681 96.1805 60.2083 97.1666 60.2083C98.6249 60.2083 99.7708 60.5694 100.604 61.2917C101.451 62.0139 101.937 62.9722 102.062 64.1667H98.7708C98.7152 63.7639 98.5346 63.4444 98.2291 63.2083C97.9374 62.9722 97.5485 62.8542 97.0624 62.8542C96.6458 62.8542 96.3263 62.9375 96.1041 63.1042C95.8819 63.2569 95.7708 63.4722 95.7708 63.75C95.7708 64.0833 95.9444 64.3333 96.2916 64.5C96.6527 64.6667 97.2083 64.8333 97.9583 65C98.8194 65.2222 99.5208 65.4444 100.062 65.6667C100.604 65.875 101.076 66.2222 101.479 66.7083C101.896 67.1806 102.111 67.8194 102.125 68.625C102.125 69.3056 101.93 69.9167 101.542 70.4583C101.167 70.9861 100.618 71.4028 99.8958 71.7083C99.1874 72.0139 98.361 72.1667 97.4166 72.1667ZM109.034 72.1667C108.02 72.1667 107.117 71.9931 106.325 71.6458C105.534 71.2986 104.909 70.8264 104.45 70.2292C103.992 69.6181 103.735 68.9375 103.679 68.1875H107.2C107.242 68.5903 107.429 68.9167 107.763 69.1667C108.096 69.4167 108.506 69.5417 108.992 69.5417C109.436 69.5417 109.777 69.4583 110.013 69.2917C110.263 69.1111 110.388 68.8819 110.388 68.6042C110.388 68.2708 110.214 68.0278 109.867 67.875C109.52 67.7083 108.957 67.5278 108.179 67.3333C107.346 67.1389 106.652 66.9375 106.096 66.7292C105.541 66.5069 105.061 66.1667 104.659 65.7083C104.256 65.2361 104.054 64.6042 104.054 63.8125C104.054 63.1458 104.235 62.5417 104.596 62C104.971 61.4444 105.513 61.0069 106.221 60.6875C106.943 60.3681 107.798 60.2083 108.784 60.2083C110.242 60.2083 111.388 60.5694 112.221 61.2917C113.068 62.0139 113.554 62.9722 113.679 64.1667H110.388C110.332 63.7639 110.152 63.4444 109.846 63.2083C109.554 62.9722 109.166 62.8542 108.679 62.8542C108.263 62.8542 107.943 62.9375 107.721 63.1042C107.499 63.2569 107.388 63.4722 107.388 63.75C107.388 64.0833 107.561 64.3333 107.909 64.5C108.27 64.6667 108.825 64.8333 109.575 65C110.436 65.2222 111.138 65.4444 111.679 65.6667C112.221 65.875 112.693 66.2222 113.096 66.7083C113.513 67.1806 113.728 67.8194 113.742 68.625C113.742 69.3056 113.548 69.9167 113.159 70.4583C112.784 70.9861 112.235 71.4028 111.513 71.7083C110.804 72.0139 109.978 72.1667 109.034 72.1667ZM131.482 62.0833C131.482 62.9306 131.288 63.7083 130.899 64.4167C130.51 65.1111 129.913 65.6736 129.107 66.1042C128.302 66.5347 127.302 66.75 126.107 66.75H123.899V72H120.336V57.375H126.107C127.274 57.375 128.26 57.5764 129.066 57.9792C129.871 58.3819 130.475 58.9375 130.878 59.6458C131.281 60.3542 131.482 61.1667 131.482 62.0833ZM125.836 63.9167C126.517 63.9167 127.024 63.7569 127.357 63.4375C127.691 63.1181 127.857 62.6667 127.857 62.0833C127.857 61.5 127.691 61.0486 127.357 60.7292C127.024 60.4097 126.517 60.25 125.836 60.25H123.899V63.9167H125.836ZM136.899 62.3125C137.316 61.6736 137.837 61.1736 138.462 60.8125C139.087 60.4375 139.781 60.25 140.545 60.25V64.0208H139.566C138.677 64.0208 138.01 64.2153 137.566 64.6042C137.122 64.9792 136.899 65.6458 136.899 66.6042V72H133.337V60.375H136.899V62.3125ZM141.54 66.1667C141.54 64.9722 141.762 63.9236 142.206 63.0208C142.665 62.1181 143.283 61.4236 144.06 60.9375C144.838 60.4514 145.706 60.2083 146.665 60.2083C147.484 60.2083 148.199 60.375 148.81 60.7083C149.435 61.0417 149.915 61.4792 150.248 62.0208V60.375H153.81V72H150.248V70.3542C149.901 70.8958 149.415 71.3333 148.79 71.6667C148.179 72 147.463 72.1667 146.644 72.1667C145.699 72.1667 144.838 71.9236 144.06 71.4375C143.283 70.9375 142.665 70.2361 142.206 69.3333C141.762 68.4167 141.54 67.3611 141.54 66.1667ZM150.248 66.1875C150.248 65.2986 149.998 64.5972 149.498 64.0833C149.012 63.5694 148.415 63.3125 147.706 63.3125C146.998 63.3125 146.394 63.5694 145.894 64.0833C145.408 64.5833 145.165 65.2778 145.165 66.1667C145.165 67.0556 145.408 67.7639 145.894 68.2917C146.394 68.8056 146.998 69.0625 147.706 69.0625C148.415 69.0625 149.012 68.8056 149.498 68.2917C149.998 67.7778 150.248 67.0764 150.248 66.1875ZM155.679 66.1875C155.679 64.9792 155.922 63.9236 156.409 63.0208C156.909 62.1181 157.596 61.4236 158.471 60.9375C159.36 60.4514 160.374 60.2083 161.513 60.2083C162.971 60.2083 164.186 60.5903 165.159 61.3542C166.145 62.1181 166.791 63.1944 167.096 64.5833H163.304C162.985 63.6944 162.367 63.25 161.45 63.25C160.797 63.25 160.277 63.5069 159.888 64.0208C159.499 64.5208 159.304 65.2431 159.304 66.1875C159.304 67.1319 159.499 67.8611 159.888 68.375C160.277 68.875 160.797 69.125 161.45 69.125C162.367 69.125 162.985 68.6806 163.304 67.7917H167.096C166.791 69.1528 166.145 70.2222 165.159 71C164.172 71.7778 162.957 72.1667 161.513 72.1667C160.374 72.1667 159.36 71.9236 158.471 71.4375C157.596 70.9514 156.909 70.2569 156.409 69.3542C155.922 68.4514 155.679 67.3958 155.679 66.1875ZM175.481 68.9792V72H173.668C172.377 72 171.37 71.6875 170.648 71.0625C169.925 70.4236 169.564 69.3889 169.564 67.9583V63.3333H168.148V60.375H169.564V57.5417H173.127V60.375H175.46V63.3333H173.127V68C173.127 68.3472 173.21 68.5972 173.377 68.75C173.543 68.9028 173.821 68.9792 174.21 68.9792H175.481ZM179.257 59.1667C178.632 59.1667 178.118 58.9861 177.715 58.625C177.326 58.25 177.132 57.7917 177.132 57.25C177.132 56.6944 177.326 56.2361 177.715 55.875C178.118 55.5 178.632 55.3125 179.257 55.3125C179.868 55.3125 180.368 55.5 180.757 55.875C181.16 56.2361 181.361 56.6944 181.361 57.25C181.361 57.7917 181.16 58.25 180.757 58.625C180.368 58.9861 179.868 59.1667 179.257 59.1667ZM181.028 60.375V72H177.465V60.375H181.028ZM182.901 66.1875C182.901 64.9792 183.144 63.9236 183.63 63.0208C184.13 62.1181 184.818 61.4236 185.693 60.9375C186.582 60.4514 187.596 60.2083 188.734 60.2083C190.193 60.2083 191.408 60.5903 192.38 61.3542C193.366 62.1181 194.012 63.1944 194.318 64.5833H190.526C190.207 63.6944 189.589 63.25 188.672 63.25C188.019 63.25 187.498 63.5069 187.109 64.0208C186.721 64.5208 186.526 65.2431 186.526 66.1875C186.526 67.1319 186.721 67.8611 187.109 68.375C187.498 68.875 188.019 69.125 188.672 69.125C189.589 69.125 190.207 68.6806 190.526 67.7917H194.318C194.012 69.1528 193.366 70.2222 192.38 71C191.394 71.7778 190.179 72.1667 188.734 72.1667C187.596 72.1667 186.582 71.9236 185.693 71.4375C184.818 70.9514 184.13 70.2569 183.63 69.3542C183.144 68.4514 182.901 67.3958 182.901 66.1875ZM207.182 66C207.182 66.3333 207.161 66.6806 207.119 67.0417H199.057C199.112 67.7639 199.341 68.3194 199.744 68.7083C200.161 69.0833 200.668 69.2708 201.265 69.2708C202.154 69.2708 202.772 68.8958 203.119 68.1458H206.911C206.716 68.9097 206.362 69.5972 205.848 70.2083C205.348 70.8194 204.716 71.2986 203.953 71.6458C203.189 71.9931 202.334 72.1667 201.39 72.1667C200.251 72.1667 199.237 71.9236 198.348 71.4375C197.459 70.9514 196.765 70.2569 196.265 69.3542C195.765 68.4514 195.515 67.3958 195.515 66.1875C195.515 64.9792 195.758 63.9236 196.244 63.0208C196.744 62.1181 197.439 61.4236 198.328 60.9375C199.216 60.4514 200.237 60.2083 201.39 60.2083C202.515 60.2083 203.515 60.4444 204.39 60.9167C205.265 61.3889 205.946 62.0625 206.432 62.9375C206.932 63.8125 207.182 64.8333 207.182 66ZM203.536 65.0625C203.536 64.4514 203.328 63.9653 202.911 63.6042C202.494 63.2431 201.973 63.0625 201.348 63.0625C200.751 63.0625 200.244 63.2361 199.828 63.5833C199.425 63.9306 199.175 64.4236 199.078 65.0625H203.536Z" fill="white"/>
</svg>
