<svg width="230" height="130" viewBox="0 0 230 130" fill="none" xmlns="http://www.w3.org/2000/svg">
<rect y="-0.000488281" width="230" height="130" rx="10" fill="#EE765A"/>
<path d="M64.4375 61.0828C64.4375 61.9301 64.2431 62.7078 63.8542 63.4162C63.4653 64.1106 62.8681 64.6731 62.0625 65.1037C61.2569 65.5342 60.2569 65.7495 59.0625 65.7495H56.8542V70.9995H53.2917V56.3745H59.0625C60.2292 56.3745 61.2153 56.5759 62.0208 56.9787C62.8264 57.3815 63.4306 57.937 63.8333 58.6453C64.2361 59.3537 64.4375 60.1662 64.4375 61.0828ZM58.7917 62.9162C59.4722 62.9162 59.9792 62.7565 60.3125 62.437C60.6458 62.1176 60.8125 61.6662 60.8125 61.0828C60.8125 60.4995 60.6458 60.0481 60.3125 59.7287C59.9792 59.4092 59.4722 59.2495 58.7917 59.2495H56.8542V62.9162H58.7917ZM71.5838 71.1662C70.4449 71.1662 69.4171 70.9231 68.5005 70.437C67.5977 69.9509 66.8824 69.2565 66.3546 68.3537C65.8408 67.4509 65.5838 66.3953 65.5838 65.187C65.5838 63.9926 65.8477 62.944 66.3755 62.0412C66.9033 61.1245 67.6255 60.4231 68.5421 59.937C69.4588 59.4509 70.4866 59.2078 71.6255 59.2078C72.7644 59.2078 73.7921 59.4509 74.7088 59.937C75.6255 60.4231 76.3477 61.1245 76.8755 62.0412C77.4033 62.944 77.6671 63.9926 77.6671 65.187C77.6671 66.3815 77.3963 67.437 76.8546 68.3537C76.3269 69.2565 75.5977 69.9509 74.6671 70.437C73.7505 70.9231 72.7227 71.1662 71.5838 71.1662ZM71.5838 68.0828C72.2644 68.0828 72.8408 67.8328 73.313 67.3328C73.7991 66.8328 74.0421 66.1176 74.0421 65.187C74.0421 64.2565 73.806 63.5412 73.3338 63.0412C72.8755 62.5412 72.306 62.2912 71.6255 62.2912C70.931 62.2912 70.3546 62.5412 69.8963 63.0412C69.438 63.5273 69.2088 64.2426 69.2088 65.187C69.2088 66.1176 69.431 66.8328 69.8755 67.3328C70.3338 67.8328 70.9033 68.0828 71.5838 68.0828ZM84.2863 71.1662C83.2724 71.1662 82.3696 70.9926 81.578 70.6453C80.7863 70.2981 80.1613 69.8259 79.703 69.2287C79.2446 68.6176 78.9877 67.937 78.9321 67.187H82.453C82.4946 67.5898 82.6821 67.9162 83.0155 68.1662C83.3488 68.4162 83.7585 68.5412 84.2446 68.5412C84.6891 68.5412 85.0293 68.4578 85.2655 68.2912C85.5155 68.1106 85.6405 67.8815 85.6405 67.6037C85.6405 67.2703 85.4668 67.0273 85.1196 66.8745C84.7724 66.7078 84.2099 66.5273 83.4321 66.3328C82.5988 66.1384 81.9043 65.937 81.3488 65.7287C80.7932 65.5065 80.3141 65.1662 79.9113 64.7078C79.5085 64.2356 79.3071 63.6037 79.3071 62.812C79.3071 62.1453 79.4877 61.5412 79.8488 60.9995C80.2238 60.444 80.7655 60.0065 81.4738 59.687C82.196 59.3676 83.0502 59.2078 84.0363 59.2078C85.4946 59.2078 86.6405 59.569 87.4738 60.2912C88.321 61.0134 88.8071 61.9717 88.9321 63.1662H85.6405C85.5849 62.7634 85.4043 62.444 85.0988 62.2078C84.8071 61.9717 84.4182 61.8537 83.9321 61.8537C83.5155 61.8537 83.196 61.937 82.9738 62.1037C82.7516 62.2565 82.6405 62.4717 82.6405 62.7495C82.6405 63.0828 82.8141 63.3328 83.1613 63.4995C83.5224 63.6662 84.078 63.8328 84.828 63.9995C85.6891 64.2217 86.3905 64.444 86.9321 64.6662C87.4738 64.8745 87.946 65.2217 88.3488 65.7078C88.7654 66.1801 88.9807 66.819 88.9946 67.6245C88.9946 68.3051 88.8002 68.9162 88.4113 69.4578C88.0363 69.9856 87.4877 70.4023 86.7655 70.7078C86.0571 71.0134 85.2307 71.1662 84.2863 71.1662ZM97.6533 67.9787V70.9995H95.8408C94.5491 70.9995 93.5422 70.687 92.82 70.062C92.0978 69.4231 91.7366 68.3884 91.7366 66.9578V62.3328H90.32V59.3745H91.7366V56.5412H95.2991V59.3745H97.6325V62.3328H95.2991V66.9995C95.2991 67.3467 95.3825 67.5967 95.5491 67.7495C95.7158 67.9023 95.9936 67.9787 96.3825 67.9787H97.6533ZM108.596 62.2078V65.1662H99.4293V62.2078H108.596ZM111.118 63.6662C111.118 62.2217 111.431 60.937 112.056 59.812C112.681 58.6731 113.549 57.7912 114.66 57.1662C115.785 56.5273 117.056 56.2078 118.473 56.2078C120.209 56.2078 121.695 56.6662 122.931 57.5828C124.167 58.4995 124.993 59.7495 125.41 61.3328H121.493C121.202 60.7217 120.785 60.2565 120.243 59.937C119.716 59.6176 119.112 59.4578 118.431 59.4578C117.334 59.4578 116.445 59.8398 115.764 60.6037C115.084 61.3676 114.743 62.3884 114.743 63.6662C114.743 64.944 115.084 65.9648 115.764 66.7287C116.445 67.4926 117.334 67.8745 118.431 67.8745C119.112 67.8745 119.716 67.7148 120.243 67.3953C120.785 67.0759 121.202 66.6106 121.493 65.9995H125.41C124.993 67.5828 124.167 68.8328 122.931 69.7495C121.695 70.6523 120.209 71.1037 118.473 71.1037C117.056 71.1037 115.785 70.7912 114.66 70.1662C113.549 69.5273 112.681 68.6453 112.056 67.5203C111.431 66.3953 111.118 65.1106 111.118 63.6662ZM131.154 55.5829V70.9995H127.592V55.5829H131.154ZM133.028 65.1662C133.028 63.9717 133.25 62.9231 133.694 62.0203C134.153 61.1176 134.771 60.4231 135.548 59.937C136.326 59.4509 137.194 59.2078 138.153 59.2078C138.972 59.2078 139.687 59.3745 140.298 59.7078C140.923 60.0412 141.403 60.4787 141.736 61.0203V59.3745H145.298V70.9995H141.736V69.3537C141.389 69.8953 140.903 70.3328 140.278 70.6662C139.667 70.9995 138.951 71.1662 138.132 71.1662C137.187 71.1662 136.326 70.9231 135.548 70.437C134.771 69.937 134.153 69.2356 133.694 68.3328C133.25 67.4162 133.028 66.3606 133.028 65.1662ZM141.736 65.187C141.736 64.2981 141.486 63.5967 140.986 63.0828C140.5 62.569 139.903 62.312 139.194 62.312C138.486 62.312 137.882 62.569 137.382 63.0828C136.896 63.5828 136.653 64.2773 136.653 65.1662C136.653 66.0551 136.896 66.7634 137.382 67.2912C137.882 67.8051 138.486 68.062 139.194 68.062C139.903 68.062 140.5 67.8051 140.986 67.2912C141.486 66.7773 141.736 66.0759 141.736 65.187ZM152.605 71.1662C151.591 71.1662 150.688 70.9926 149.897 70.6453C149.105 70.2981 148.48 69.8259 148.022 69.2287C147.563 68.6176 147.306 67.937 147.251 67.187H150.772C150.813 67.5898 151.001 67.9162 151.334 68.1662C151.667 68.4162 152.077 68.5412 152.563 68.5412C153.008 68.5412 153.348 68.4578 153.584 68.2912C153.834 68.1106 153.959 67.8815 153.959 67.6037C153.959 67.2703 153.786 67.0273 153.438 66.8745C153.091 66.7078 152.529 66.5273 151.751 66.3328C150.917 66.1384 150.223 65.937 149.667 65.7287C149.112 65.5065 148.633 65.1662 148.23 64.7078C147.827 64.2356 147.626 63.6037 147.626 62.812C147.626 62.1453 147.806 61.5412 148.167 60.9995C148.542 60.444 149.084 60.0065 149.792 59.687C150.515 59.3676 151.369 59.2078 152.355 59.2078C153.813 59.2078 154.959 59.569 155.792 60.2912C156.64 61.0134 157.126 61.9717 157.251 63.1662H153.959C153.904 62.7634 153.723 62.444 153.417 62.2078C153.126 61.9717 152.737 61.8537 152.251 61.8537C151.834 61.8537 151.515 61.937 151.292 62.1037C151.07 62.2565 150.959 62.4717 150.959 62.7495C150.959 63.0828 151.133 63.3328 151.48 63.4995C151.841 63.6662 152.397 63.8328 153.147 63.9995C154.008 64.2217 154.709 64.444 155.251 64.6662C155.792 64.8745 156.265 65.2217 156.667 65.7078C157.084 66.1801 157.299 66.819 157.313 67.6245C157.313 68.3051 157.119 68.9162 156.73 69.4578C156.355 69.9856 155.806 70.4023 155.084 70.7078C154.376 71.0134 153.549 71.1662 152.605 71.1662ZM164.222 71.1662C163.208 71.1662 162.305 70.9926 161.514 70.6453C160.722 70.2981 160.097 69.8259 159.639 69.2287C159.18 68.6176 158.923 67.937 158.868 67.187H162.389C162.43 67.5898 162.618 67.9162 162.951 68.1662C163.284 68.4162 163.694 68.5412 164.18 68.5412C164.625 68.5412 164.965 68.4578 165.201 68.2912C165.451 68.1106 165.576 67.8815 165.576 67.6037C165.576 67.2703 165.403 67.0273 165.055 66.8745C164.708 66.7078 164.146 66.5273 163.368 66.3328C162.534 66.1384 161.84 65.937 161.284 65.7287C160.729 65.5065 160.25 65.1662 159.847 64.7078C159.444 64.2356 159.243 63.6037 159.243 62.812C159.243 62.1453 159.423 61.5412 159.784 60.9995C160.159 60.444 160.701 60.0065 161.409 59.687C162.132 59.3676 162.986 59.2078 163.972 59.2078C165.43 59.2078 166.576 59.569 167.409 60.2912C168.257 61.0134 168.743 61.9717 168.868 63.1662H165.576C165.521 62.7634 165.34 62.444 165.034 62.2078C164.743 61.9717 164.354 61.8537 163.868 61.8537C163.451 61.8537 163.132 61.937 162.909 62.1037C162.687 62.2565 162.576 62.4717 162.576 62.7495C162.576 63.0828 162.75 63.3328 163.097 63.4995C163.458 63.6662 164.014 63.8328 164.764 63.9995C165.625 64.2217 166.326 64.444 166.868 64.6662C167.409 64.8745 167.882 65.2217 168.284 65.7078C168.701 66.1801 168.916 66.819 168.93 67.6245C168.93 68.3051 168.736 68.9162 168.347 69.4578C167.972 69.9856 167.423 70.4023 166.701 70.7078C165.993 71.0134 165.166 71.1662 164.222 71.1662Z" fill="white"/>
</svg>
