<svg width="220" height="103" viewBox="0 0 220 103" fill="none" xmlns="http://www.w3.org/2000/svg">
<path d="M130.869 42.5654L116.667 37.9868H99.9593L86.4154 43.421C84.556 44.1669 83.2515 46.8483 83.2515 49.9244V58.0976C83.2515 60.5656 84.4983 62.5666 86.0361 62.5666H130.59C132.128 62.5666 131.325 60.938 131.325 58.47L133.375 49.9244C133.375 46.8486 132.728 43.3116 130.869 42.5654Z" fill="#5B5D6E"/>
<path d="M116.906 28.3042H99.7207V42.4562H116.906V28.3042Z" fill="#D29B6E"/>
<path d="M112.284 34.758L117.882 29.9954C118.937 29.0979 119.633 27.8359 119.836 26.4495L121.792 13.138C122.808 6.22077 117.561 0 110.71 0H105.917C99.0659 0 93.8184 6.22077 94.8348 13.138L96.7908 26.4495C96.9944 27.8359 97.6899 29.0979 98.7449 29.9954L104.343 34.758C105.098 35.4005 106.05 35.7524 107.033 35.7524H109.594C110.577 35.7526 111.529 35.4007 112.284 34.758Z" fill="#F0C087"/>
<path d="M110.76 0H105.953C99.0798 0 93.8156 6.22077 94.8352 13.138L96.7974 26.4495C97.0018 27.8359 97.6993 29.0979 98.7576 29.9954L104.374 34.758C105.131 35.4005 106.086 35.7524 107.072 35.7524H107.654L105.031 30.4137C104.445 29.2224 104.141 27.9085 104.141 26.5764V13.9023C105.209 13.7987 106.281 13.6695 107.293 13.5048C107.858 14.709 109.064 15.5426 110.458 15.5426C110.756 15.5426 111.055 15.5034 111.345 15.4266C113.382 14.8863 118.204 13.3288 121.918 10.1419C121.293 4.52379 116.619 0 110.76 0Z" fill="#E6AF78"/>
<path d="M120.402 7.13915C120.402 7.13915 120.436 7.05019 120.486 6.91869C118.817 2.89073 114.97 0 110.387 0H105.687C99.5237 0 94.6984 5.22812 94.7085 11.4227H95.6724C95.6724 11.4227 105.29 11.4227 109.411 9.99478V11.9459C109.411 12.4145 109.83 12.7569 110.266 12.6388C112.235 12.1054 117.166 10.5027 120.402 7.13915Z" fill="#C7CFE2"/>
<path d="M110.581 0H105.794C99.5166 0 94.602 5.18692 94.6123 11.3326H95.594C95.594 11.3326 99.8893 11.3299 104.011 10.9185C104.199 5.66464 107.908 1.32373 112.829 0.256111C112.101 0.105749 111.357 0 110.581 0Z" fill="#AFB9D2"/>
<path d="M112.385 18.1129C111.143 17.4061 109.695 16.9995 108.187 16.9995C106.68 16.9995 105.232 17.4063 103.99 18.1129V21.7653C104.928 20.579 106.484 19.8326 108.187 19.8326C109.891 19.8326 111.446 20.579 112.385 21.7653V18.1129Z" fill="#AFB9D2"/>
<path d="M102.591 23.3739C104.523 23.3739 106.089 21.7883 106.089 19.8325C106.089 17.8766 104.523 16.291 102.591 16.291C100.659 16.291 99.0923 17.8766 99.0923 19.8325C99.0923 21.7883 100.659 23.3739 102.591 23.3739Z" fill="#E4EAF8"/>
<path d="M113.785 23.3739C115.717 23.3739 117.283 21.7883 117.283 19.8325C117.283 17.8766 115.717 16.291 113.785 16.291C111.853 16.291 110.287 17.8766 110.287 19.8325C110.287 21.7883 111.853 23.3739 113.785 23.3739Z" fill="#E4EAF8"/>
<path d="M118.5 36.3852C118.063 35.7176 117.172 35.5509 116.532 36.0173L107.956 42.2662L99.3793 36.0172C98.7391 35.5508 97.848 35.7174 97.4116 36.385L95.4246 39.4256L101.41 46.7526C101.934 47.3943 102.885 47.4384 103.464 46.8475L105.375 44.8986C105.813 44.4512 106.563 44.7681 106.563 45.4008V53.6286H109.348V45.4009C109.348 44.7681 110.098 44.4515 110.536 44.8988L112.447 46.8477C113.025 47.4382 113.976 47.3941 114.501 46.7528L120.486 39.4256L118.5 36.3852Z" fill="#7F8499"/>
<path d="M86.1798 41.6928C84.3111 42.1657 83 43.8656 83 45.8156V50.9971C83 52.5617 84.2531 53.8302 85.7986 53.8302H98.3923L95.527 39.3271L86.1798 41.6928Z" fill="#EBC9A0"/>
<path d="M130.195 41.6918C132.064 42.1648 133.375 43.8646 133.375 45.8147V50.9961C133.375 52.5607 132.402 62.404 130.856 62.404H118.034L120.848 39.3262L130.195 41.6918Z" fill="#EBC9A0"/>
<path d="M54.7715 71.872V75.94H48.0755V97H43.0355V75.94H36.3395V71.872H54.7715ZM76.9888 86.596C76.9888 87.316 76.9408 87.964 76.8448 88.54H62.2648C62.3848 89.98 62.8888 91.108 63.7768 91.924C64.6648 92.74 65.7568 93.148 67.0528 93.148C68.9248 93.148 70.2568 92.344 71.0488 90.736H76.4848C75.9088 92.656 74.8048 94.24 73.1728 95.488C71.5408 96.712 69.5368 97.324 67.1608 97.324C65.2408 97.324 63.5128 96.904 61.9768 96.064C60.4648 95.2 59.2768 93.988 58.4128 92.428C57.5728 90.868 57.1528 89.068 57.1528 87.028C57.1528 84.964 57.5728 83.152 58.4128 81.592C59.2528 80.032 60.4288 78.832 61.9408 77.992C63.4528 77.152 65.1928 76.732 67.1608 76.732C69.0568 76.732 70.7488 77.14 72.2368 77.956C73.7488 78.772 74.9128 79.936 75.7288 81.448C76.5688 82.936 76.9888 84.652 76.9888 86.596ZM71.7688 85.156C71.7448 83.86 71.2768 82.828 70.3648 82.06C69.4528 81.268 68.3368 80.872 67.0168 80.872C65.7688 80.872 64.7128 81.256 63.8488 82.024C63.0088 82.768 62.4928 83.812 62.3008 85.156H71.7688ZM79.3716 86.956C79.3716 84.94 79.7676 83.152 80.5596 81.592C81.3756 80.032 82.4676 78.832 83.8356 77.992C85.2276 77.152 86.7756 76.732 88.4796 76.732C89.9676 76.732 91.2636 77.032 92.3676 77.632C93.4956 78.232 94.3956 78.988 95.0676 79.9V77.056H100.144V97H95.0676V94.084C94.4196 95.02 93.5196 95.8 92.3676 96.424C91.2396 97.024 89.9316 97.324 88.4436 97.324C86.7636 97.324 85.2276 96.892 83.8356 96.028C82.4676 95.164 81.3756 93.952 80.5596 92.392C79.7676 90.808 79.3716 88.996 79.3716 86.956ZM95.0676 87.028C95.0676 85.804 94.8276 84.76 94.3476 83.896C93.8676 83.008 93.2196 82.336 92.4036 81.88C91.5876 81.4 90.7116 81.16 89.7756 81.16C88.8396 81.16 87.9756 81.388 87.1836 81.844C86.3916 82.3 85.7436 82.972 85.2396 83.86C84.7596 84.724 84.5196 85.756 84.5196 86.956C84.5196 88.156 84.7596 89.212 85.2396 90.124C85.7436 91.012 86.3916 91.696 87.1836 92.176C87.9996 92.656 88.8636 92.896 89.7756 92.896C90.7116 92.896 91.5876 92.668 92.4036 92.212C93.2196 91.732 93.8676 91.06 94.3476 90.196C94.8276 89.308 95.0676 88.252 95.0676 87.028ZM103.77 87.028C103.77 84.964 104.19 83.164 105.03 81.628C105.87 80.068 107.034 78.868 108.522 78.028C110.01 77.164 111.714 76.732 113.634 76.732C116.106 76.732 118.146 77.356 119.754 78.604C121.386 79.828 122.478 81.556 123.03 83.788H117.594C117.306 82.924 116.814 82.252 116.118 81.772C115.446 81.268 114.606 81.016 113.598 81.016C112.158 81.016 111.018 81.544 110.178 82.6C109.338 83.632 108.918 85.108 108.918 87.028C108.918 88.924 109.338 90.4 110.178 91.456C111.018 92.488 112.158 93.004 113.598 93.004C115.638 93.004 116.97 92.092 117.594 90.268H123.03C122.478 92.428 121.386 94.144 119.754 95.416C118.122 96.688 116.082 97.324 113.634 97.324C111.714 97.324 110.01 96.904 108.522 96.064C107.034 95.2 105.87 94 105.03 92.464C104.19 90.904 103.77 89.092 103.77 87.028ZM137.954 76.768C139.466 76.768 140.81 77.104 141.986 77.776C143.162 78.424 144.074 79.396 144.722 80.692C145.394 81.964 145.73 83.5 145.73 85.3V97H140.69V85.984C140.69 84.4 140.294 83.188 139.502 82.348C138.71 81.484 137.63 81.052 136.262 81.052C134.87 81.052 133.766 81.484 132.95 82.348C132.158 83.188 131.762 84.4 131.762 85.984V97H126.722V70.36H131.762V79.54C132.41 78.676 133.274 78.004 134.354 77.524C135.434 77.02 136.634 76.768 137.954 76.768ZM169.063 86.596C169.063 87.316 169.015 87.964 168.919 88.54H154.339C154.459 89.98 154.963 91.108 155.851 91.924C156.739 92.74 157.831 93.148 159.127 93.148C160.999 93.148 162.331 92.344 163.123 90.736H168.559C167.983 92.656 166.879 94.24 165.247 95.488C163.615 96.712 161.611 97.324 159.235 97.324C157.315 97.324 155.587 96.904 154.051 96.064C152.539 95.2 151.351 93.988 150.487 92.428C149.647 90.868 149.227 89.068 149.227 87.028C149.227 84.964 149.647 83.152 150.487 81.592C151.327 80.032 152.503 78.832 154.015 77.992C155.527 77.152 157.267 76.732 159.235 76.732C161.131 76.732 162.823 77.14 164.311 77.956C165.823 78.772 166.987 79.936 167.803 81.448C168.643 82.936 169.063 84.652 169.063 86.596ZM163.843 85.156C163.819 83.86 163.351 82.828 162.439 82.06C161.527 81.268 160.411 80.872 159.091 80.872C157.843 80.872 156.787 81.256 155.923 82.024C155.083 82.768 154.567 83.812 154.375 85.156H163.843ZM177.782 80.152C178.43 79.096 179.27 78.268 180.302 77.668C181.358 77.068 182.558 76.768 183.902 76.768V82.06H182.57C180.986 82.06 179.786 82.432 178.97 83.176C178.178 83.92 177.782 85.216 177.782 87.064V97H172.742V77.056H177.782V80.152Z" fill="#BEB5E2"/>
</svg>
