<svg width="200" height="200" viewBox="0 0 200 200" fill="none" xmlns="http://www.w3.org/2000/svg">
<g filter="url(#filter0_d)">
<rect x="10" y="6" width="180" height="180" rx="7.50936" fill="white"/>
<path d="M95.8516 45.2891C99.1016 45.2891 101.672 46.0391 103.562 47.5391C105.453 49.0234 106.398 51.0156 106.398 53.5156C106.398 57.0312 104.289 59.8281 100.07 61.9062C102.758 63.25 104.664 64.6641 105.789 66.1484C106.93 67.6328 107.5 69.2891 107.5 71.1172C107.5 73.9453 106.461 76.2109 104.383 77.9141C102.305 79.6172 99.4922 80.4688 95.9453 80.4688C92.2266 80.4688 89.3438 79.6719 87.2969 78.0781C85.25 76.4844 84.2266 74.2266 84.2266 71.3047C84.2266 69.3984 84.7578 67.6875 85.8203 66.1719C86.8984 64.6406 88.6562 63.2812 91.0938 62.0938C89 60.8438 87.5078 59.5234 86.6172 58.1328C85.7266 56.7422 85.2812 55.1797 85.2812 53.4453C85.2812 50.9609 86.2578 48.9844 88.2109 47.5156C90.1641 46.0312 92.7109 45.2891 95.8516 45.2891ZM89.5 71.1172C89.5 72.7422 90.0703 74.0078 91.2109 74.9141C92.3516 75.8047 93.8984 76.25 95.8516 76.25C97.8672 76.25 99.4297 75.7891 100.539 74.8672C101.664 73.9297 102.227 72.6641 102.227 71.0703C102.227 69.8047 101.711 68.6484 100.68 67.6016C99.6484 66.5547 98.0859 65.5859 95.9922 64.6953L95.3125 64.3906C93.25 65.2969 91.7656 66.2969 90.8594 67.3906C89.9531 68.4688 89.5 69.7109 89.5 71.1172ZM95.8047 49.5312C94.2422 49.5312 92.9844 49.9219 92.0312 50.7031C91.0781 51.4688 90.6016 52.5156 90.6016 53.8438C90.6016 54.6562 90.7734 55.3828 91.1172 56.0234C91.4609 56.6641 91.9609 57.25 92.6172 57.7812C93.2734 58.2969 94.3828 58.9219 95.9453 59.6562C97.8203 58.8281 99.1406 57.9609 99.9062 57.0547C100.688 56.1328 101.078 55.0625 101.078 53.8438C101.078 52.5156 100.594 51.4688 99.625 50.7031C98.6719 49.9219 97.3984 49.5312 95.8047 49.5312Z" fill="#7F8499"/>
<path d="M51.1494 132.302C49.7373 132.302 48.6211 132.773 47.8008 133.717C46.9863 134.654 46.5791 135.94 46.5791 137.575C46.5791 139.257 46.9717 140.558 47.7568 141.478C48.5479 142.392 49.6729 142.849 51.1318 142.849C52.0283 142.849 53.0508 142.688 54.1992 142.365V143.675C53.3086 144.009 52.21 144.176 50.9033 144.176C49.0107 144.176 47.5488 143.602 46.5176 142.453C45.4922 141.305 44.9795 139.673 44.9795 137.558C44.9795 136.233 45.2256 135.073 45.7178 134.077C46.2158 133.081 46.9307 132.313 47.8623 131.774C48.7998 131.235 49.9014 130.966 51.167 130.966C52.5146 130.966 53.6924 131.212 54.7002 131.704L54.0674 132.987C53.0947 132.53 52.1221 132.302 51.1494 132.302ZM65.0977 139.175C65.0977 140.745 64.7021 141.973 63.9111 142.857C63.1201 143.736 62.0273 144.176 60.6328 144.176C59.7715 144.176 59.0068 143.974 58.3389 143.569C57.6709 143.165 57.1553 142.585 56.792 141.829C56.4287 141.073 56.2471 140.188 56.2471 139.175C56.2471 137.604 56.6396 136.383 57.4248 135.51C58.21 134.631 59.2998 134.191 60.6943 134.191C62.042 134.191 63.1113 134.64 63.9023 135.536C64.6992 136.433 65.0977 137.646 65.0977 139.175ZM57.7588 139.175C57.7588 140.405 58.0049 141.343 58.4971 141.987C58.9893 142.632 59.7129 142.954 60.668 142.954C61.623 142.954 62.3467 142.635 62.8389 141.996C63.3369 141.352 63.5859 140.411 63.5859 139.175C63.5859 137.95 63.3369 137.021 62.8389 136.389C62.3467 135.75 61.6172 135.431 60.6504 135.431C59.6953 135.431 58.9746 135.744 58.4883 136.371C58.002 136.998 57.7588 137.933 57.7588 139.175ZM79.9424 144V137.733C79.9424 136.966 79.7783 136.392 79.4502 136.011C79.1221 135.624 78.6123 135.431 77.9209 135.431C77.0127 135.431 76.3418 135.691 75.9082 136.213C75.4746 136.734 75.2578 137.537 75.2578 138.621V144H73.7988V137.733C73.7988 136.966 73.6348 136.392 73.3066 136.011C72.9785 135.624 72.4658 135.431 71.7686 135.431C70.8545 135.431 70.1836 135.706 69.7559 136.257C69.334 136.802 69.123 137.698 69.123 138.946V144H67.6641V134.367H68.8506L69.0879 135.686H69.1582C69.4336 135.217 69.8203 134.851 70.3184 134.587C70.8223 134.323 71.3848 134.191 72.0059 134.191C73.5117 134.191 74.4961 134.736 74.959 135.826H75.0293C75.3164 135.322 75.7324 134.924 76.2773 134.631C76.8223 134.338 77.4434 134.191 78.1406 134.191C79.2305 134.191 80.0449 134.473 80.584 135.035C81.1289 135.592 81.4014 136.485 81.4014 137.716V144H79.9424ZM88.8984 144.176C88.2715 144.176 87.6973 144.062 87.1758 143.833C86.6602 143.599 86.2266 143.241 85.875 142.761H85.7695C85.8398 143.323 85.875 143.856 85.875 144.36V148.324H84.416V134.367H85.6025L85.8047 135.686H85.875C86.25 135.158 86.6865 134.777 87.1846 134.543C87.6826 134.309 88.2539 134.191 88.8984 134.191C90.1758 134.191 91.1602 134.628 91.8516 135.501C92.5488 136.374 92.8975 137.599 92.8975 139.175C92.8975 140.757 92.543 141.987 91.834 142.866C91.1309 143.739 90.1523 144.176 88.8984 144.176ZM88.6875 135.431C87.7031 135.431 86.9912 135.703 86.5518 136.248C86.1123 136.793 85.8867 137.66 85.875 138.85V139.175C85.875 140.528 86.1006 141.498 86.5518 142.084C87.0029 142.664 87.7266 142.954 88.7227 142.954C89.5547 142.954 90.2051 142.617 90.6738 141.943C91.1484 141.27 91.3857 140.341 91.3857 139.157C91.3857 137.956 91.1484 137.036 90.6738 136.397C90.2051 135.753 89.543 135.431 88.6875 135.431ZM99.5244 144.176C98.1006 144.176 96.9756 143.742 96.1494 142.875C95.3291 142.008 94.9189 140.804 94.9189 139.263C94.9189 137.71 95.2998 136.477 96.0615 135.562C96.8291 134.648 97.8574 134.191 99.1465 134.191C100.354 134.191 101.309 134.59 102.012 135.387C102.715 136.178 103.066 137.224 103.066 138.524V139.447H96.4307C96.46 140.578 96.7441 141.437 97.2832 142.022C97.8281 142.608 98.5928 142.901 99.5771 142.901C100.614 142.901 101.64 142.685 102.653 142.251V143.552C102.138 143.774 101.648 143.933 101.186 144.026C100.729 144.126 100.175 144.176 99.5244 144.176ZM99.1289 135.413C98.3555 135.413 97.7373 135.665 97.2744 136.169C96.8174 136.673 96.5479 137.37 96.4658 138.261H101.502C101.502 137.341 101.297 136.638 100.887 136.151C100.477 135.659 99.8906 135.413 99.1289 135.413ZM108.674 142.972C108.932 142.972 109.181 142.954 109.421 142.919C109.661 142.878 109.852 142.837 109.992 142.796V143.912C109.834 143.988 109.6 144.05 109.289 144.097C108.984 144.149 108.709 144.176 108.463 144.176C106.6 144.176 105.668 143.194 105.668 141.231V135.501H104.288V134.798L105.668 134.191L106.283 132.135H107.127V134.367H109.922V135.501H107.127V141.17C107.127 141.75 107.265 142.195 107.54 142.506C107.815 142.816 108.193 142.972 108.674 142.972ZM113.385 144H111.926V134.367H113.385V144ZM111.803 131.757C111.803 131.423 111.885 131.18 112.049 131.027C112.213 130.869 112.418 130.79 112.664 130.79C112.898 130.79 113.101 130.869 113.271 131.027C113.44 131.186 113.525 131.429 113.525 131.757C113.525 132.085 113.44 132.331 113.271 132.495C113.101 132.653 112.898 132.732 112.664 132.732C112.418 132.732 112.213 132.653 112.049 132.495C111.885 132.331 111.803 132.085 111.803 131.757ZM119.59 142.972C119.848 142.972 120.097 142.954 120.337 142.919C120.577 142.878 120.768 142.837 120.908 142.796V143.912C120.75 143.988 120.516 144.05 120.205 144.097C119.9 144.149 119.625 144.176 119.379 144.176C117.516 144.176 116.584 143.194 116.584 141.231V135.501H115.204V134.798L116.584 134.191L117.199 132.135H118.043V134.367H120.838V135.501H118.043V141.17C118.043 141.75 118.181 142.195 118.456 142.506C118.731 142.816 119.109 142.972 119.59 142.972ZM131.156 139.175C131.156 140.745 130.761 141.973 129.97 142.857C129.179 143.736 128.086 144.176 126.691 144.176C125.83 144.176 125.065 143.974 124.397 143.569C123.729 143.165 123.214 142.585 122.851 141.829C122.487 141.073 122.306 140.188 122.306 139.175C122.306 137.604 122.698 136.383 123.483 135.51C124.269 134.631 125.358 134.191 126.753 134.191C128.101 134.191 129.17 134.64 129.961 135.536C130.758 136.433 131.156 137.646 131.156 139.175ZM123.817 139.175C123.817 140.405 124.063 141.343 124.556 141.987C125.048 142.632 125.771 142.954 126.727 142.954C127.682 142.954 128.405 142.635 128.897 141.996C129.396 141.352 129.645 140.411 129.645 139.175C129.645 137.95 129.396 137.021 128.897 136.389C128.405 135.75 127.676 135.431 126.709 135.431C125.754 135.431 125.033 135.744 124.547 136.371C124.061 136.998 123.817 137.933 123.817 139.175ZM138.117 134.191C138.545 134.191 138.929 134.227 139.269 134.297L139.066 135.65C138.668 135.562 138.316 135.519 138.012 135.519C137.232 135.519 136.564 135.835 136.008 136.468C135.457 137.101 135.182 137.889 135.182 138.832V144H133.723V134.367H134.927L135.094 136.151H135.164C135.521 135.524 135.952 135.041 136.456 134.701C136.96 134.361 137.514 134.191 138.117 134.191ZM147.284 141.372C147.284 142.269 146.95 142.96 146.282 143.446C145.614 143.933 144.677 144.176 143.47 144.176C142.192 144.176 141.196 143.974 140.481 143.569V142.216C140.944 142.45 141.439 142.635 141.967 142.77C142.5 142.904 143.013 142.972 143.505 142.972C144.267 142.972 144.853 142.852 145.263 142.611C145.673 142.365 145.878 141.993 145.878 141.495C145.878 141.12 145.714 140.801 145.386 140.537C145.063 140.268 144.431 139.951 143.487 139.588C142.591 139.254 141.952 138.964 141.571 138.718C141.196 138.466 140.915 138.182 140.728 137.865C140.546 137.549 140.455 137.171 140.455 136.731C140.455 135.946 140.774 135.328 141.413 134.877C142.052 134.42 142.928 134.191 144.041 134.191C145.078 134.191 146.092 134.402 147.082 134.824L146.563 136.011C145.597 135.612 144.721 135.413 143.936 135.413C143.244 135.413 142.723 135.521 142.371 135.738C142.02 135.955 141.844 136.254 141.844 136.635C141.844 136.893 141.908 137.112 142.037 137.294C142.172 137.476 142.386 137.648 142.679 137.812C142.972 137.977 143.534 138.214 144.366 138.524C145.509 138.94 146.279 139.359 146.678 139.781C147.082 140.203 147.284 140.733 147.284 141.372Z" fill="#626262"/>
</g>
<defs>
<filter id="filter0_d" x="0" y="0" width="200" height="200" filterUnits="userSpaceOnUse" color-interpolation-filters="sRGB">
<feFlood flood-opacity="0" result="BackgroundImageFix"/>
<feColorMatrix in="SourceAlpha" type="matrix" values="0 0 0 0 0 0 0 0 0 0 0 0 0 0 0 0 0 0 127 0"/>
<feOffset dy="4"/>
<feGaussianBlur stdDeviation="5"/>
<feColorMatrix type="matrix" values="0 0 0 0 0 0 0 0 0 0 0 0 0 0 0 0 0 0 0.06 0"/>
<feBlend mode="normal" in2="BackgroundImageFix" result="effect1_dropShadow"/>
<feBlend mode="normal" in="SourceGraphic" in2="effect1_dropShadow" result="shape"/>
</filter>
</defs>
</svg>
