<svg width="200" height="200" viewBox="0 0 200 200" fill="none" xmlns="http://www.w3.org/2000/svg">
<g filter="url(#filter0_d)">
<rect x="10" y="6" width="180" height="180" rx="7.50936" fill="white"/>
<path d="M91.7344 80H86.2266V57.875C86.2266 55.2344 86.2891 53.1406 86.4141 51.5938C86.0547 51.9688 85.6094 52.3828 85.0781 52.8359C84.5625 53.2891 82.8125 54.7266 79.8281 57.1484L77.0625 53.6562L87.1406 45.7344H91.7344V80ZM126.211 62.8672C126.211 68.8203 125.25 73.2422 123.328 76.1328C121.422 79.0234 118.5 80.4688 114.562 80.4688C110.75 80.4688 107.859 78.9766 105.891 75.9922C103.922 73.0078 102.938 68.6328 102.938 62.8672C102.938 56.8203 103.891 52.3672 105.797 49.5078C107.719 46.6328 110.641 45.1953 114.562 45.1953C118.391 45.1953 121.289 46.6953 123.258 49.6953C125.227 52.6953 126.211 57.0859 126.211 62.8672ZM108.516 62.8672C108.516 67.5391 108.992 70.875 109.945 72.875C110.914 74.875 112.453 75.875 114.562 75.875C116.672 75.875 118.211 74.8594 119.18 72.8281C120.164 70.7969 120.656 67.4766 120.656 62.8672C120.656 58.2734 120.164 54.9531 119.18 52.9062C118.211 50.8438 116.672 49.8125 114.562 49.8125C112.453 49.8125 110.914 50.8203 109.945 52.8359C108.992 54.8516 108.516 58.1953 108.516 62.8672Z" fill="#7F8499"/>
<path d="M60.458 136V123.15H61.9521V134.646H67.6211V136H60.458ZM71.0488 136H69.5898V126.367H71.0488V136ZM69.4668 123.757C69.4668 123.423 69.5488 123.18 69.7129 123.027C69.877 122.869 70.082 122.79 70.3281 122.79C70.5625 122.79 70.7646 122.869 70.9346 123.027C71.1045 123.186 71.1895 123.429 71.1895 123.757C71.1895 124.085 71.1045 124.331 70.9346 124.495C70.7646 124.653 70.5625 124.732 70.3281 124.732C70.082 124.732 69.877 124.653 69.7129 124.495C69.5488 124.331 69.4668 124.085 69.4668 123.757ZM77.2539 134.972C77.5117 134.972 77.7607 134.954 78.001 134.919C78.2412 134.878 78.4316 134.837 78.5723 134.796V135.912C78.4141 135.988 78.1797 136.05 77.8691 136.097C77.5645 136.149 77.2891 136.176 77.043 136.176C75.1797 136.176 74.248 135.194 74.248 133.231V127.501H72.8682V126.798L74.248 126.191L74.8633 124.135H75.707V126.367H78.502V127.501H75.707V133.17C75.707 133.75 75.8447 134.195 76.1201 134.506C76.3955 134.816 76.7734 134.972 77.2539 134.972ZM84.5752 136.176C83.1514 136.176 82.0264 135.742 81.2002 134.875C80.3799 134.008 79.9697 132.804 79.9697 131.263C79.9697 129.71 80.3506 128.477 81.1123 127.562C81.8799 126.648 82.9082 126.191 84.1973 126.191C85.4043 126.191 86.3594 126.59 87.0625 127.387C87.7656 128.178 88.1172 129.224 88.1172 130.524V131.447H81.4814C81.5107 132.578 81.7949 133.437 82.334 134.022C82.8789 134.608 83.6436 134.901 84.6279 134.901C85.665 134.901 86.6904 134.685 87.7041 134.251V135.552C87.1885 135.774 86.6992 135.933 86.2363 136.026C85.7793 136.126 85.2256 136.176 84.5752 136.176ZM84.1797 127.413C83.4062 127.413 82.7881 127.665 82.3252 128.169C81.8682 128.673 81.5986 129.37 81.5166 130.261H86.5527C86.5527 129.341 86.3477 128.638 85.9375 128.151C85.5273 127.659 84.9414 127.413 84.1797 127.413ZM95.0078 126.191C95.4355 126.191 95.8193 126.227 96.1592 126.297L95.957 127.65C95.5586 127.562 95.207 127.519 94.9023 127.519C94.123 127.519 93.4551 127.835 92.8984 128.468C92.3477 129.101 92.0723 129.889 92.0723 130.832V136H90.6133V126.367H91.8174L91.9844 128.151H92.0547C92.4121 127.524 92.8428 127.041 93.3467 126.701C93.8506 126.361 94.4043 126.191 95.0078 126.191ZM103.885 136L103.595 134.629H103.524C103.044 135.232 102.563 135.643 102.083 135.859C101.608 136.07 101.014 136.176 100.299 136.176C99.3438 136.176 98.5938 135.93 98.0488 135.438C97.5098 134.945 97.2402 134.245 97.2402 133.337C97.2402 131.392 98.7959 130.372 101.907 130.278L103.542 130.226V129.628C103.542 128.872 103.378 128.315 103.05 127.958C102.728 127.595 102.209 127.413 101.494 127.413C100.691 127.413 99.7832 127.659 98.7695 128.151L98.3213 127.035C98.7959 126.777 99.3145 126.575 99.877 126.429C100.445 126.282 101.014 126.209 101.582 126.209C102.73 126.209 103.58 126.464 104.131 126.974C104.688 127.483 104.966 128.301 104.966 129.426V136H103.885ZM100.589 134.972C101.497 134.972 102.209 134.723 102.725 134.225C103.246 133.727 103.507 133.029 103.507 132.133V131.263L102.048 131.324C100.888 131.365 100.05 131.547 99.5342 131.869C99.0244 132.186 98.7695 132.681 98.7695 133.354C98.7695 133.882 98.9277 134.283 99.2441 134.559C99.5664 134.834 100.015 134.972 100.589 134.972ZM111.092 134.972C111.35 134.972 111.599 134.954 111.839 134.919C112.079 134.878 112.27 134.837 112.41 134.796V135.912C112.252 135.988 112.018 136.05 111.707 136.097C111.402 136.149 111.127 136.176 110.881 136.176C109.018 136.176 108.086 135.194 108.086 133.231V127.501H106.706V126.798L108.086 126.191L108.701 124.135H109.545V126.367H112.34V127.501H109.545V133.17C109.545 133.75 109.683 134.195 109.958 134.506C110.233 134.816 110.611 134.972 111.092 134.972ZM115.715 126.367V132.616C115.715 133.401 115.894 133.987 116.251 134.374C116.608 134.761 117.168 134.954 117.93 134.954C118.938 134.954 119.673 134.679 120.136 134.128C120.604 133.577 120.839 132.678 120.839 131.43V126.367H122.298V136H121.094L120.883 134.708H120.804C120.505 135.183 120.089 135.546 119.556 135.798C119.028 136.05 118.425 136.176 117.745 136.176C116.573 136.176 115.694 135.897 115.108 135.341C114.528 134.784 114.238 133.894 114.238 132.669V126.367H115.715ZM129.795 126.191C130.223 126.191 130.606 126.227 130.946 126.297L130.744 127.65C130.346 127.562 129.994 127.519 129.689 127.519C128.91 127.519 128.242 127.835 127.686 128.468C127.135 129.101 126.859 129.889 126.859 130.832V136H125.4V126.367H126.604L126.771 128.151H126.842C127.199 127.524 127.63 127.041 128.134 126.701C128.638 126.361 129.191 126.191 129.795 126.191ZM136.817 136.176C135.394 136.176 134.269 135.742 133.442 134.875C132.622 134.008 132.212 132.804 132.212 131.263C132.212 129.71 132.593 128.477 133.354 127.562C134.122 126.648 135.15 126.191 136.439 126.191C137.646 126.191 138.602 126.59 139.305 127.387C140.008 128.178 140.359 129.224 140.359 130.524V131.447H133.724C133.753 132.578 134.037 133.437 134.576 134.022C135.121 134.608 135.886 134.901 136.87 134.901C137.907 134.901 138.933 134.685 139.946 134.251V135.552C139.431 135.774 138.941 135.933 138.479 136.026C138.021 136.126 137.468 136.176 136.817 136.176ZM136.422 127.413C135.648 127.413 135.03 127.665 134.567 128.169C134.11 128.673 133.841 129.37 133.759 130.261H138.795C138.795 129.341 138.59 128.638 138.18 128.151C137.77 127.659 137.184 127.413 136.422 127.413ZM69.502 155.656V161H68.0078V148.15H71.5322C73.1084 148.15 74.2715 148.452 75.0215 149.056C75.7773 149.659 76.1553 150.567 76.1553 151.78C76.1553 153.479 75.2939 154.628 73.5713 155.226L77.0605 161H75.2939L72.1826 155.656H69.502ZM69.502 154.373H71.5498C72.6045 154.373 73.3779 154.165 73.8701 153.749C74.3623 153.327 74.6084 152.697 74.6084 151.859C74.6084 151.01 74.3564 150.397 73.8525 150.022C73.3545 149.647 72.5518 149.46 71.4443 149.46H69.502V154.373ZM82.9844 161.176C81.5605 161.176 80.4355 160.742 79.6094 159.875C78.7891 159.008 78.3789 157.804 78.3789 156.263C78.3789 154.71 78.7598 153.477 79.5215 152.562C80.2891 151.648 81.3174 151.191 82.6064 151.191C83.8135 151.191 84.7686 151.59 85.4717 152.387C86.1748 153.178 86.5264 154.224 86.5264 155.524V156.447H79.8906C79.9199 157.578 80.2041 158.437 80.7432 159.022C81.2881 159.608 82.0527 159.901 83.0371 159.901C84.0742 159.901 85.0996 159.685 86.1133 159.251V160.552C85.5977 160.774 85.1084 160.933 84.6455 161.026C84.1885 161.126 83.6348 161.176 82.9844 161.176ZM82.5889 152.413C81.8154 152.413 81.1973 152.665 80.7344 153.169C80.2773 153.673 80.0078 154.37 79.9258 155.261H84.9619C84.9619 154.341 84.7568 153.638 84.3467 153.151C83.9365 152.659 83.3506 152.413 82.5889 152.413ZM91.1318 161L87.4756 151.367H89.04L91.1143 157.08C91.583 158.416 91.8584 159.283 91.9404 159.682H92.0107C92.0752 159.371 92.2773 158.729 92.6172 157.757C92.9629 156.778 93.7334 154.648 94.9287 151.367H96.4932L92.8369 161H91.1318ZM99.499 161H98.04V151.367H99.499V161ZM97.917 148.757C97.917 148.423 97.999 148.18 98.1631 148.027C98.3271 147.869 98.5322 147.79 98.7783 147.79C99.0127 147.79 99.2148 147.869 99.3848 148.027C99.5547 148.186 99.6396 148.429 99.6396 148.757C99.6396 149.085 99.5547 149.331 99.3848 149.495C99.2148 149.653 99.0127 149.732 98.7783 149.732C98.5322 149.732 98.3271 149.653 98.1631 149.495C97.999 149.331 97.917 149.085 97.917 148.757ZM106.662 161.176C105.238 161.176 104.113 160.742 103.287 159.875C102.467 159.008 102.057 157.804 102.057 156.263C102.057 154.71 102.438 153.477 103.199 152.562C103.967 151.648 104.995 151.191 106.284 151.191C107.491 151.191 108.446 151.59 109.149 152.387C109.853 153.178 110.204 154.224 110.204 155.524V156.447H103.568C103.598 157.578 103.882 158.437 104.421 159.022C104.966 159.608 105.73 159.901 106.715 159.901C107.752 159.901 108.777 159.685 109.791 159.251V160.552C109.275 160.774 108.786 160.933 108.323 161.026C107.866 161.126 107.312 161.176 106.662 161.176ZM106.267 152.413C105.493 152.413 104.875 152.665 104.412 153.169C103.955 153.673 103.686 154.37 103.604 155.261H108.64C108.64 154.341 108.435 153.638 108.024 153.151C107.614 152.659 107.028 152.413 106.267 152.413ZM120.566 161L118.8 155.349C118.688 155.003 118.48 154.218 118.176 152.993H118.105C117.871 154.019 117.666 154.81 117.49 155.366L115.671 161H113.983L111.355 151.367H112.885C113.506 153.787 113.978 155.63 114.3 156.896C114.628 158.161 114.815 159.014 114.862 159.453H114.933C114.997 159.119 115.1 158.688 115.24 158.161C115.387 157.628 115.513 157.206 115.618 156.896L117.385 151.367H118.967L120.689 156.896C121.018 157.903 121.24 158.75 121.357 159.436H121.428C121.451 159.225 121.513 158.899 121.612 158.46C121.718 158.021 122.33 155.656 123.449 151.367H124.961L122.298 161H120.566ZM132.924 158.372C132.924 159.269 132.59 159.96 131.922 160.446C131.254 160.933 130.316 161.176 129.109 161.176C127.832 161.176 126.836 160.974 126.121 160.569V159.216C126.584 159.45 127.079 159.635 127.606 159.77C128.14 159.904 128.652 159.972 129.145 159.972C129.906 159.972 130.492 159.852 130.902 159.611C131.312 159.365 131.518 158.993 131.518 158.495C131.518 158.12 131.354 157.801 131.025 157.537C130.703 157.268 130.07 156.951 129.127 156.588C128.23 156.254 127.592 155.964 127.211 155.718C126.836 155.466 126.555 155.182 126.367 154.865C126.186 154.549 126.095 154.171 126.095 153.731C126.095 152.946 126.414 152.328 127.053 151.877C127.691 151.42 128.567 151.191 129.681 151.191C130.718 151.191 131.731 151.402 132.722 151.824L132.203 153.011C131.236 152.612 130.36 152.413 129.575 152.413C128.884 152.413 128.362 152.521 128.011 152.738C127.659 152.955 127.483 153.254 127.483 153.635C127.483 153.893 127.548 154.112 127.677 154.294C127.812 154.476 128.025 154.648 128.318 154.812C128.611 154.977 129.174 155.214 130.006 155.524C131.148 155.94 131.919 156.359 132.317 156.781C132.722 157.203 132.924 157.733 132.924 158.372Z" fill="#626262"/>
</g>
<defs>
<filter id="filter0_d" x="0" y="0" width="200" height="200" filterUnits="userSpaceOnUse" color-interpolation-filters="sRGB">
<feFlood flood-opacity="0" result="BackgroundImageFix"/>
<feColorMatrix in="SourceAlpha" type="matrix" values="0 0 0 0 0 0 0 0 0 0 0 0 0 0 0 0 0 0 127 0"/>
<feOffset dy="4"/>
<feGaussianBlur stdDeviation="5"/>
<feColorMatrix type="matrix" values="0 0 0 0 0 0 0 0 0 0 0 0 0 0 0 0 0 0 0.06 0"/>
<feBlend mode="normal" in2="BackgroundImageFix" result="effect1_dropShadow"/>
<feBlend mode="normal" in="SourceGraphic" in2="effect1_dropShadow" result="shape"/>
</filter>
</defs>
</svg>
