<svg width="210" height="210" viewBox="0 0 210 210" fill="none" xmlns="http://www.w3.org/2000/svg">
<g filter="url(#filter0_d)">
<rect x="15" y="11" width="180" height="180" rx="7.50936" fill="white"/>
<path d="M96.7344 85H91.2266V62.875C91.2266 60.2344 91.2891 58.1406 91.4141 56.5938C91.0547 56.9688 90.6094 57.3828 90.0781 57.8359C89.5625 58.2891 87.8125 59.7266 84.8281 62.1484L82.0625 58.6562L92.1406 50.7344H96.7344V85ZM131.211 67.8672C131.211 73.8203 130.25 78.2422 128.328 81.1328C126.422 84.0234 123.5 85.4688 119.562 85.4688C115.75 85.4688 112.859 83.9766 110.891 80.9922C108.922 78.0078 107.938 73.6328 107.938 67.8672C107.938 61.8203 108.891 57.3672 110.797 54.5078C112.719 51.6328 115.641 50.1953 119.562 50.1953C123.391 50.1953 126.289 51.6953 128.258 54.6953C130.227 57.6953 131.211 62.0859 131.211 67.8672ZM113.516 67.8672C113.516 72.5391 113.992 75.875 114.945 77.875C115.914 79.875 117.453 80.875 119.562 80.875C121.672 80.875 123.211 79.8594 124.18 77.8281C125.164 75.7969 125.656 72.4766 125.656 67.8672C125.656 63.2734 125.164 59.9531 124.18 57.9062C123.211 55.8438 121.672 54.8125 119.562 54.8125C117.453 54.8125 115.914 55.8203 114.945 57.8359C113.992 59.8516 113.516 63.1953 113.516 67.8672Z" fill="#7F8499"/>
<path d="M65.458 141V128.15H66.9521V139.646H72.6211V141H65.458ZM76.0488 141H74.5898V131.367H76.0488V141ZM74.4668 128.757C74.4668 128.423 74.5488 128.18 74.7129 128.027C74.877 127.869 75.082 127.79 75.3281 127.79C75.5625 127.79 75.7646 127.869 75.9346 128.027C76.1045 128.186 76.1895 128.429 76.1895 128.757C76.1895 129.085 76.1045 129.331 75.9346 129.495C75.7646 129.653 75.5625 129.732 75.3281 129.732C75.082 129.732 74.877 129.653 74.7129 129.495C74.5488 129.331 74.4668 129.085 74.4668 128.757ZM82.2539 139.972C82.5117 139.972 82.7607 139.954 83.001 139.919C83.2412 139.878 83.4316 139.837 83.5723 139.796V140.912C83.4141 140.988 83.1797 141.05 82.8691 141.097C82.5645 141.149 82.2891 141.176 82.043 141.176C80.1797 141.176 79.248 140.194 79.248 138.231V132.501H77.8682V131.798L79.248 131.191L79.8633 129.135H80.707V131.367H83.502V132.501H80.707V138.17C80.707 138.75 80.8447 139.195 81.1201 139.506C81.3955 139.816 81.7734 139.972 82.2539 139.972ZM89.5752 141.176C88.1514 141.176 87.0264 140.742 86.2002 139.875C85.3799 139.008 84.9697 137.804 84.9697 136.263C84.9697 134.71 85.3506 133.477 86.1123 132.562C86.8799 131.648 87.9082 131.191 89.1973 131.191C90.4043 131.191 91.3594 131.59 92.0625 132.387C92.7656 133.178 93.1172 134.224 93.1172 135.524V136.447H86.4814C86.5107 137.578 86.7949 138.437 87.334 139.022C87.8789 139.608 88.6436 139.901 89.6279 139.901C90.665 139.901 91.6904 139.685 92.7041 139.251V140.552C92.1885 140.774 91.6992 140.933 91.2363 141.026C90.7793 141.126 90.2256 141.176 89.5752 141.176ZM89.1797 132.413C88.4062 132.413 87.7881 132.665 87.3252 133.169C86.8682 133.673 86.5986 134.37 86.5166 135.261H91.5527C91.5527 134.341 91.3477 133.638 90.9375 133.151C90.5273 132.659 89.9414 132.413 89.1797 132.413ZM100.008 131.191C100.436 131.191 100.819 131.227 101.159 131.297L100.957 132.65C100.559 132.562 100.207 132.519 99.9023 132.519C99.123 132.519 98.4551 132.835 97.8984 133.468C97.3477 134.101 97.0723 134.889 97.0723 135.832V141H95.6133V131.367H96.8174L96.9844 133.151H97.0547C97.4121 132.524 97.8428 132.041 98.3467 131.701C98.8506 131.361 99.4043 131.191 100.008 131.191ZM108.885 141L108.595 139.629H108.524C108.044 140.232 107.563 140.643 107.083 140.859C106.608 141.07 106.014 141.176 105.299 141.176C104.344 141.176 103.594 140.93 103.049 140.438C102.51 139.945 102.24 139.245 102.24 138.337C102.24 136.392 103.796 135.372 106.907 135.278L108.542 135.226V134.628C108.542 133.872 108.378 133.315 108.05 132.958C107.728 132.595 107.209 132.413 106.494 132.413C105.691 132.413 104.783 132.659 103.77 133.151L103.321 132.035C103.796 131.777 104.314 131.575 104.877 131.429C105.445 131.282 106.014 131.209 106.582 131.209C107.73 131.209 108.58 131.464 109.131 131.974C109.688 132.483 109.966 133.301 109.966 134.426V141H108.885ZM105.589 139.972C106.497 139.972 107.209 139.723 107.725 139.225C108.246 138.727 108.507 138.029 108.507 137.133V136.263L107.048 136.324C105.888 136.365 105.05 136.547 104.534 136.869C104.024 137.186 103.77 137.681 103.77 138.354C103.77 138.882 103.928 139.283 104.244 139.559C104.566 139.834 105.015 139.972 105.589 139.972ZM116.092 139.972C116.35 139.972 116.599 139.954 116.839 139.919C117.079 139.878 117.27 139.837 117.41 139.796V140.912C117.252 140.988 117.018 141.05 116.707 141.097C116.402 141.149 116.127 141.176 115.881 141.176C114.018 141.176 113.086 140.194 113.086 138.231V132.501H111.706V131.798L113.086 131.191L113.701 129.135H114.545V131.367H117.34V132.501H114.545V138.17C114.545 138.75 114.683 139.195 114.958 139.506C115.233 139.816 115.611 139.972 116.092 139.972ZM120.715 131.367V137.616C120.715 138.401 120.894 138.987 121.251 139.374C121.608 139.761 122.168 139.954 122.93 139.954C123.938 139.954 124.673 139.679 125.136 139.128C125.604 138.577 125.839 137.678 125.839 136.43V131.367H127.298V141H126.094L125.883 139.708H125.804C125.505 140.183 125.089 140.546 124.556 140.798C124.028 141.05 123.425 141.176 122.745 141.176C121.573 141.176 120.694 140.897 120.108 140.341C119.528 139.784 119.238 138.894 119.238 137.669V131.367H120.715ZM134.795 131.191C135.223 131.191 135.606 131.227 135.946 131.297L135.744 132.65C135.346 132.562 134.994 132.519 134.689 132.519C133.91 132.519 133.242 132.835 132.686 133.468C132.135 134.101 131.859 134.889 131.859 135.832V141H130.4V131.367H131.604L131.771 133.151H131.842C132.199 132.524 132.63 132.041 133.134 131.701C133.638 131.361 134.191 131.191 134.795 131.191ZM141.817 141.176C140.394 141.176 139.269 140.742 138.442 139.875C137.622 139.008 137.212 137.804 137.212 136.263C137.212 134.71 137.593 133.477 138.354 132.562C139.122 131.648 140.15 131.191 141.439 131.191C142.646 131.191 143.602 131.59 144.305 132.387C145.008 133.178 145.359 134.224 145.359 135.524V136.447H138.724C138.753 137.578 139.037 138.437 139.576 139.022C140.121 139.608 140.886 139.901 141.87 139.901C142.907 139.901 143.933 139.685 144.946 139.251V140.552C144.431 140.774 143.941 140.933 143.479 141.026C143.021 141.126 142.468 141.176 141.817 141.176ZM141.422 132.413C140.648 132.413 140.03 132.665 139.567 133.169C139.11 133.673 138.841 134.37 138.759 135.261H143.795C143.795 134.341 143.59 133.638 143.18 133.151C142.77 132.659 142.184 132.413 141.422 132.413ZM74.502 160.656V166H73.0078V153.15H76.5322C78.1084 153.15 79.2715 153.452 80.0215 154.056C80.7773 154.659 81.1553 155.567 81.1553 156.78C81.1553 158.479 80.2939 159.628 78.5713 160.226L82.0605 166H80.2939L77.1826 160.656H74.502ZM74.502 159.373H76.5498C77.6045 159.373 78.3779 159.165 78.8701 158.749C79.3623 158.327 79.6084 157.697 79.6084 156.859C79.6084 156.01 79.3564 155.397 78.8525 155.022C78.3545 154.647 77.5518 154.46 76.4443 154.46H74.502V159.373ZM87.9844 166.176C86.5605 166.176 85.4355 165.742 84.6094 164.875C83.7891 164.008 83.3789 162.804 83.3789 161.263C83.3789 159.71 83.7598 158.477 84.5215 157.562C85.2891 156.648 86.3174 156.191 87.6064 156.191C88.8135 156.191 89.7686 156.59 90.4717 157.387C91.1748 158.178 91.5264 159.224 91.5264 160.524V161.447H84.8906C84.9199 162.578 85.2041 163.437 85.7432 164.022C86.2881 164.608 87.0527 164.901 88.0371 164.901C89.0742 164.901 90.0996 164.685 91.1133 164.251V165.552C90.5977 165.774 90.1084 165.933 89.6455 166.026C89.1885 166.126 88.6348 166.176 87.9844 166.176ZM87.5889 157.413C86.8154 157.413 86.1973 157.665 85.7344 158.169C85.2773 158.673 85.0078 159.37 84.9258 160.261H89.9619C89.9619 159.341 89.7568 158.638 89.3467 158.151C88.9365 157.659 88.3506 157.413 87.5889 157.413ZM96.1318 166L92.4756 156.367H94.04L96.1143 162.08C96.583 163.416 96.8584 164.283 96.9404 164.682H97.0107C97.0752 164.371 97.2773 163.729 97.6172 162.757C97.9629 161.778 98.7334 159.648 99.9287 156.367H101.493L97.8369 166H96.1318ZM104.499 166H103.04V156.367H104.499V166ZM102.917 153.757C102.917 153.423 102.999 153.18 103.163 153.027C103.327 152.869 103.532 152.79 103.778 152.79C104.013 152.79 104.215 152.869 104.385 153.027C104.555 153.186 104.64 153.429 104.64 153.757C104.64 154.085 104.555 154.331 104.385 154.495C104.215 154.653 104.013 154.732 103.778 154.732C103.532 154.732 103.327 154.653 103.163 154.495C102.999 154.331 102.917 154.085 102.917 153.757ZM111.662 166.176C110.238 166.176 109.113 165.742 108.287 164.875C107.467 164.008 107.057 162.804 107.057 161.263C107.057 159.71 107.438 158.477 108.199 157.562C108.967 156.648 109.995 156.191 111.284 156.191C112.491 156.191 113.446 156.59 114.149 157.387C114.853 158.178 115.204 159.224 115.204 160.524V161.447H108.568C108.598 162.578 108.882 163.437 109.421 164.022C109.966 164.608 110.73 164.901 111.715 164.901C112.752 164.901 113.777 164.685 114.791 164.251V165.552C114.275 165.774 113.786 165.933 113.323 166.026C112.866 166.126 112.312 166.176 111.662 166.176ZM111.267 157.413C110.493 157.413 109.875 157.665 109.412 158.169C108.955 158.673 108.686 159.37 108.604 160.261H113.64C113.64 159.341 113.435 158.638 113.024 158.151C112.614 157.659 112.028 157.413 111.267 157.413ZM125.566 166L123.8 160.349C123.688 160.003 123.48 159.218 123.176 157.993H123.105C122.871 159.019 122.666 159.81 122.49 160.366L120.671 166H118.983L116.355 156.367H117.885C118.506 158.787 118.978 160.63 119.3 161.896C119.628 163.161 119.815 164.014 119.862 164.453H119.933C119.997 164.119 120.1 163.688 120.24 163.161C120.387 162.628 120.513 162.206 120.618 161.896L122.385 156.367H123.967L125.689 161.896C126.018 162.903 126.24 163.75 126.357 164.436H126.428C126.451 164.225 126.513 163.899 126.612 163.46C126.718 163.021 127.33 160.656 128.449 156.367H129.961L127.298 166H125.566ZM137.924 163.372C137.924 164.269 137.59 164.96 136.922 165.446C136.254 165.933 135.316 166.176 134.109 166.176C132.832 166.176 131.836 165.974 131.121 165.569V164.216C131.584 164.45 132.079 164.635 132.606 164.77C133.14 164.904 133.652 164.972 134.145 164.972C134.906 164.972 135.492 164.852 135.902 164.611C136.312 164.365 136.518 163.993 136.518 163.495C136.518 163.12 136.354 162.801 136.025 162.537C135.703 162.268 135.07 161.951 134.127 161.588C133.23 161.254 132.592 160.964 132.211 160.718C131.836 160.466 131.555 160.182 131.367 159.865C131.186 159.549 131.095 159.171 131.095 158.731C131.095 157.946 131.414 157.328 132.053 156.877C132.691 156.42 133.567 156.191 134.681 156.191C135.718 156.191 136.731 156.402 137.722 156.824L137.203 158.011C136.236 157.612 135.36 157.413 134.575 157.413C133.884 157.413 133.362 157.521 133.011 157.738C132.659 157.955 132.483 158.254 132.483 158.635C132.483 158.893 132.548 159.112 132.677 159.294C132.812 159.476 133.025 159.648 133.318 159.812C133.611 159.977 134.174 160.214 135.006 160.524C136.148 160.94 136.919 161.359 137.317 161.781C137.722 162.203 137.924 162.733 137.924 163.372Z" fill="#626262"/>
</g>
<defs>
<filter id="filter0_d" x="0" y="0" width="210" height="210" filterUnits="userSpaceOnUse" color-interpolation-filters="sRGB">
<feFlood flood-opacity="0" result="BackgroundImageFix"/>
<feColorMatrix in="SourceAlpha" type="matrix" values="0 0 0 0 0 0 0 0 0 0 0 0 0 0 0 0 0 0 127 0"/>
<feOffset dy="4"/>
<feGaussianBlur stdDeviation="7.5"/>
<feColorMatrix type="matrix" values="0 0 0 0 0 0 0 0 0 0 0 0 0 0 0 0 0 0 0.15 0"/>
<feBlend mode="normal" in2="BackgroundImageFix" result="effect1_dropShadow"/>
<feBlend mode="normal" in="SourceGraphic" in2="effect1_dropShadow" result="shape"/>
</filter>
</defs>
</svg>
