<svg width="200" height="200" viewBox="0 0 200 200" fill="none" xmlns="http://www.w3.org/2000/svg">
<g filter="url(#filter0_d)">
<rect x="10" y="6" width="180" height="180" rx="7.50936" fill="white"/>
<path d="M111.5 80H88.2734V75.8281L97.1094 66.9453C99.7188 64.2734 101.445 62.3828 102.289 61.2734C103.148 60.1484 103.773 59.0938 104.164 58.1094C104.555 57.125 104.75 56.0703 104.75 54.9453C104.75 53.3984 104.281 52.1797 103.344 51.2891C102.422 50.3984 101.141 49.9531 99.5 49.9531C98.1875 49.9531 96.9141 50.1953 95.6797 50.6797C94.4609 51.1641 93.0469 52.0391 91.4375 53.3047L88.4609 49.6719C90.3672 48.0625 92.2188 46.9219 94.0156 46.25C95.8125 45.5781 97.7266 45.2422 99.7578 45.2422C102.945 45.2422 105.5 46.0781 107.422 47.75C109.344 49.4062 110.305 51.6406 110.305 54.4531C110.305 56 110.023 57.4688 109.461 58.8594C108.914 60.25 108.062 61.6875 106.906 63.1719C105.766 64.6406 103.859 66.6328 101.188 69.1484L95.2344 74.9141V75.1484H111.5V80Z" fill="#7F8499"/>
<path d="M78.1299 136H76.6357V124.478H72.5664V123.15H82.1992V124.478H78.1299V136ZM87.9912 136.176C86.5674 136.176 85.4424 135.742 84.6162 134.875C83.7959 134.008 83.3857 132.804 83.3857 131.263C83.3857 129.71 83.7666 128.477 84.5283 127.562C85.2959 126.648 86.3242 126.191 87.6133 126.191C88.8203 126.191 89.7754 126.59 90.4785 127.387C91.1816 128.178 91.5332 129.224 91.5332 130.524V131.447H84.8975C84.9268 132.578 85.2109 133.437 85.75 134.022C86.2949 134.608 87.0596 134.901 88.0439 134.901C89.0811 134.901 90.1064 134.685 91.1201 134.251V135.552C90.6045 135.774 90.1152 135.933 89.6523 136.026C89.1953 136.126 88.6416 136.176 87.9912 136.176ZM87.5957 127.413C86.8223 127.413 86.2041 127.665 85.7412 128.169C85.2842 128.673 85.0146 129.37 84.9326 130.261H89.9688C89.9688 129.341 89.7637 128.638 89.3535 128.151C88.9434 127.659 88.3574 127.413 87.5957 127.413ZM99.9531 136L99.6631 134.629H99.5928C99.1123 135.232 98.6318 135.643 98.1514 135.859C97.6768 136.07 97.082 136.176 96.3672 136.176C95.4121 136.176 94.6621 135.93 94.1172 135.438C93.5781 134.945 93.3086 134.245 93.3086 133.337C93.3086 131.392 94.8643 130.372 97.9756 130.278L99.6104 130.226V129.628C99.6104 128.872 99.4463 128.315 99.1182 127.958C98.7959 127.595 98.2773 127.413 97.5625 127.413C96.7598 127.413 95.8516 127.659 94.8379 128.151L94.3896 127.035C94.8643 126.777 95.3828 126.575 95.9453 126.429C96.5137 126.282 97.082 126.209 97.6504 126.209C98.7988 126.209 99.6484 126.464 100.199 126.974C100.756 127.483 101.034 128.301 101.034 129.426V136H99.9531ZM96.6572 134.972C97.5654 134.972 98.2773 134.723 98.793 134.225C99.3145 133.727 99.5752 133.029 99.5752 132.133V131.263L98.1162 131.324C96.9561 131.365 96.1182 131.547 95.6025 131.869C95.0928 132.186 94.8379 132.681 94.8379 133.354C94.8379 133.882 94.9961 134.283 95.3125 134.559C95.6348 134.834 96.083 134.972 96.6572 134.972ZM107.898 136.176C106.504 136.176 105.423 135.748 104.655 134.893C103.894 134.031 103.513 132.815 103.513 131.245C103.513 129.634 103.899 128.389 104.673 127.51C105.452 126.631 106.56 126.191 107.995 126.191C108.458 126.191 108.921 126.241 109.384 126.341C109.847 126.44 110.21 126.558 110.474 126.692L110.025 127.932C109.703 127.803 109.352 127.697 108.971 127.615C108.59 127.527 108.253 127.483 107.96 127.483C106.003 127.483 105.024 128.731 105.024 131.228C105.024 132.411 105.262 133.319 105.736 133.952C106.217 134.585 106.926 134.901 107.863 134.901C108.666 134.901 109.489 134.729 110.333 134.383V135.675C109.688 136.009 108.877 136.176 107.898 136.176ZM119.219 136V129.769C119.219 128.983 119.04 128.397 118.683 128.011C118.325 127.624 117.766 127.431 117.004 127.431C115.99 127.431 115.249 127.706 114.78 128.257C114.317 128.808 114.086 129.71 114.086 130.964V136H112.627V122.324H114.086V126.464C114.086 126.962 114.062 127.375 114.016 127.703H114.104C114.391 127.24 114.798 126.877 115.325 126.613C115.858 126.344 116.465 126.209 117.145 126.209C118.322 126.209 119.204 126.49 119.79 127.053C120.382 127.609 120.678 128.497 120.678 129.716V136H119.219ZM127.753 136.176C126.329 136.176 125.204 135.742 124.378 134.875C123.558 134.008 123.147 132.804 123.147 131.263C123.147 129.71 123.528 128.477 124.29 127.562C125.058 126.648 126.086 126.191 127.375 126.191C128.582 126.191 129.537 126.59 130.24 127.387C130.943 128.178 131.295 129.224 131.295 130.524V131.447H124.659C124.688 132.578 124.973 133.437 125.512 134.022C126.057 134.608 126.821 134.901 127.806 134.901C128.843 134.901 129.868 134.685 130.882 134.251V135.552C130.366 135.774 129.877 135.933 129.414 136.026C128.957 136.126 128.403 136.176 127.753 136.176ZM127.357 127.413C126.584 127.413 125.966 127.665 125.503 128.169C125.046 128.673 124.776 129.37 124.694 130.261H129.73C129.73 129.341 129.525 128.638 129.115 128.151C128.705 127.659 128.119 127.413 127.357 127.413ZM138.186 126.191C138.613 126.191 138.997 126.227 139.337 126.297L139.135 127.65C138.736 127.562 138.385 127.519 138.08 127.519C137.301 127.519 136.633 127.835 136.076 128.468C135.525 129.101 135.25 129.889 135.25 130.832V136H133.791V126.367H134.995L135.162 128.151H135.232C135.59 127.524 136.021 127.041 136.524 126.701C137.028 126.361 137.582 126.191 138.186 126.191ZM64.6738 161V148.15H66.168V161H64.6738ZM76.0732 161V154.769C76.0732 153.983 75.8945 153.397 75.5371 153.011C75.1797 152.624 74.6201 152.431 73.8584 152.431C72.8506 152.431 72.1123 152.703 71.6436 153.248C71.1748 153.793 70.9404 154.692 70.9404 155.946V161H69.4814V151.367H70.668L70.9053 152.686H70.9756C71.2744 152.211 71.6934 151.845 72.2324 151.587C72.7715 151.323 73.3721 151.191 74.0342 151.191C75.1943 151.191 76.0674 151.473 76.6533 152.035C77.2393 152.592 77.5322 153.485 77.5322 154.716V161H76.0732ZM83.6494 159.972C83.9072 159.972 84.1562 159.954 84.3965 159.919C84.6367 159.878 84.8271 159.837 84.9678 159.796V160.912C84.8096 160.988 84.5752 161.05 84.2646 161.097C83.96 161.149 83.6846 161.176 83.4385 161.176C81.5752 161.176 80.6436 160.194 80.6436 158.231V152.501H79.2637V151.798L80.6436 151.191L81.2588 149.135H82.1025V151.367H84.8975V152.501H82.1025V158.17C82.1025 158.75 82.2402 159.195 82.5156 159.506C82.791 159.816 83.1689 159.972 83.6494 159.972ZM90.9707 161.176C89.5469 161.176 88.4219 160.742 87.5957 159.875C86.7754 159.008 86.3652 157.804 86.3652 156.263C86.3652 154.71 86.7461 153.477 87.5078 152.562C88.2754 151.648 89.3037 151.191 90.5928 151.191C91.7998 151.191 92.7549 151.59 93.458 152.387C94.1611 153.178 94.5127 154.224 94.5127 155.524V156.447H87.877C87.9062 157.578 88.1904 158.437 88.7295 159.022C89.2744 159.608 90.0391 159.901 91.0234 159.901C92.0605 159.901 93.0859 159.685 94.0996 159.251V160.552C93.584 160.774 93.0947 160.933 92.6318 161.026C92.1748 161.126 91.6211 161.176 90.9707 161.176ZM90.5752 152.413C89.8018 152.413 89.1836 152.665 88.7207 153.169C88.2637 153.673 87.9941 154.37 87.9121 155.261H92.9482C92.9482 154.341 92.7432 153.638 92.333 153.151C91.9229 152.659 91.3369 152.413 90.5752 152.413ZM101.403 151.191C101.831 151.191 102.215 151.227 102.555 151.297L102.353 152.65C101.954 152.562 101.603 152.519 101.298 152.519C100.519 152.519 99.8506 152.835 99.2939 153.468C98.7432 154.101 98.4678 154.889 98.4678 155.832V161H97.0088V151.367H98.2129L98.3799 153.151H98.4502C98.8076 152.524 99.2383 152.041 99.7422 151.701C100.246 151.361 100.8 151.191 101.403 151.191ZM106.466 161L102.81 151.367H104.374L106.448 157.08C106.917 158.416 107.192 159.283 107.274 159.682H107.345C107.409 159.371 107.611 158.729 107.951 157.757C108.297 156.778 109.067 154.648 110.263 151.367H111.827L108.171 161H106.466ZM114.833 161H113.374V151.367H114.833V161ZM113.251 148.757C113.251 148.423 113.333 148.18 113.497 148.027C113.661 147.869 113.866 147.79 114.112 147.79C114.347 147.79 114.549 147.869 114.719 148.027C114.889 148.186 114.974 148.429 114.974 148.757C114.974 149.085 114.889 149.331 114.719 149.495C114.549 149.653 114.347 149.732 114.112 149.732C113.866 149.732 113.661 149.653 113.497 149.495C113.333 149.331 113.251 149.085 113.251 148.757ZM121.996 161.176C120.572 161.176 119.447 160.742 118.621 159.875C117.801 159.008 117.391 157.804 117.391 156.263C117.391 154.71 117.771 153.477 118.533 152.562C119.301 151.648 120.329 151.191 121.618 151.191C122.825 151.191 123.78 151.59 124.483 152.387C125.187 153.178 125.538 154.224 125.538 155.524V156.447H118.902C118.932 157.578 119.216 158.437 119.755 159.022C120.3 159.608 121.064 159.901 122.049 159.901C123.086 159.901 124.111 159.685 125.125 159.251V160.552C124.609 160.774 124.12 160.933 123.657 161.026C123.2 161.126 122.646 161.176 121.996 161.176ZM121.601 152.413C120.827 152.413 120.209 152.665 119.746 153.169C119.289 153.673 119.02 154.37 118.938 155.261H123.974C123.974 154.341 123.769 153.638 123.358 153.151C122.948 152.659 122.362 152.413 121.601 152.413ZM135.9 161L134.134 155.349C134.022 155.003 133.814 154.218 133.51 152.993H133.439C133.205 154.019 133 154.81 132.824 155.366L131.005 161H129.317L126.689 151.367H128.219C128.84 153.787 129.312 155.63 129.634 156.896C129.962 158.161 130.149 159.014 130.196 159.453H130.267C130.331 159.119 130.434 158.688 130.574 158.161C130.721 157.628 130.847 157.206 130.952 156.896L132.719 151.367H134.301L136.023 156.896C136.352 157.903 136.574 158.75 136.691 159.436H136.762C136.785 159.225 136.847 158.899 136.946 158.46C137.052 158.021 137.664 155.656 138.783 151.367H140.295L137.632 161H135.9ZM148.258 158.372C148.258 159.269 147.924 159.96 147.256 160.446C146.588 160.933 145.65 161.176 144.443 161.176C143.166 161.176 142.17 160.974 141.455 160.569V159.216C141.918 159.45 142.413 159.635 142.94 159.77C143.474 159.904 143.986 159.972 144.479 159.972C145.24 159.972 145.826 159.852 146.236 159.611C146.646 159.365 146.852 158.993 146.852 158.495C146.852 158.12 146.688 157.801 146.359 157.537C146.037 157.268 145.404 156.951 144.461 156.588C143.564 156.254 142.926 155.964 142.545 155.718C142.17 155.466 141.889 155.182 141.701 154.865C141.52 154.549 141.429 154.171 141.429 153.731C141.429 152.946 141.748 152.328 142.387 151.877C143.025 151.42 143.901 151.191 145.015 151.191C146.052 151.191 147.065 151.402 148.056 151.824L147.537 153.011C146.57 152.612 145.694 152.413 144.909 152.413C144.218 152.413 143.696 152.521 143.345 152.738C142.993 152.955 142.817 153.254 142.817 153.635C142.817 153.893 142.882 154.112 143.011 154.294C143.146 154.476 143.359 154.648 143.652 154.812C143.945 154.977 144.508 155.214 145.34 155.524C146.482 155.94 147.253 156.359 147.651 156.781C148.056 157.203 148.258 157.733 148.258 158.372Z" fill="#626262"/>
</g>
<defs>
<filter id="filter0_d" x="0" y="0" width="200" height="200" filterUnits="userSpaceOnUse" color-interpolation-filters="sRGB">
<feFlood flood-opacity="0" result="BackgroundImageFix"/>
<feColorMatrix in="SourceAlpha" type="matrix" values="0 0 0 0 0 0 0 0 0 0 0 0 0 0 0 0 0 0 127 0"/>
<feOffset dy="4"/>
<feGaussianBlur stdDeviation="5"/>
<feColorMatrix type="matrix" values="0 0 0 0 0 0 0 0 0 0 0 0 0 0 0 0 0 0 0.06 0"/>
<feBlend mode="normal" in2="BackgroundImageFix" result="effect1_dropShadow"/>
<feBlend mode="normal" in="SourceGraphic" in2="effect1_dropShadow" result="shape"/>
</filter>
</defs>
</svg>
