<svg width="210" height="210" viewBox="0 0 210 210" fill="none" xmlns="http://www.w3.org/2000/svg">
<g filter="url(#filter0_d)">
<rect x="15" y="11" width="180" height="180" rx="7.50936" fill="white"/>
<path d="M80.6348 95L79.209 91.0352H73.75L72.3535 95H69.8926L75.2344 80.6641H77.7734L83.1152 95H80.6348ZM78.5938 89.0234L77.2559 85.1367C77.1582 84.8763 77.0215 84.4661 76.8457 83.9062C76.6764 83.3464 76.5592 82.9362 76.4941 82.6758C76.3184 83.4766 76.0612 84.3522 75.7227 85.3027L74.4336 89.0234H78.5938ZM90.1758 85.9375H87.5391V95H85.2344V85.9375H83.457V84.8633L85.2344 84.1602V83.457C85.2344 82.181 85.5339 81.237 86.1328 80.625C86.7318 80.0065 87.6465 79.6973 88.877 79.6973C89.6842 79.6973 90.4785 79.8307 91.2598 80.0977L90.6543 81.8359C90.0879 81.6536 89.5475 81.5625 89.0332 81.5625C88.5124 81.5625 88.1315 81.7253 87.8906 82.0508C87.6562 82.3698 87.5391 82.8516 87.5391 83.4961V84.1992H90.1758V85.9375ZM97.4414 85.9375H94.8047V95H92.5V85.9375H90.7227V84.8633L92.5 84.1602V83.457C92.5 82.181 92.7995 81.237 93.3984 80.625C93.9974 80.0065 94.9121 79.6973 96.1426 79.6973C96.9499 79.6973 97.7441 79.8307 98.5254 80.0977L97.9199 81.8359C97.3535 81.6536 96.8132 81.5625 96.2988 81.5625C95.778 81.5625 95.3971 81.7253 95.1562 82.0508C94.9219 82.3698 94.8047 82.8516 94.8047 83.4961V84.1992H97.4414V85.9375ZM101.582 95H99.2871V84.1992H101.582V95ZM99.1504 81.3379C99.1504 80.9277 99.2611 80.612 99.4824 80.3906C99.7103 80.1693 100.033 80.0586 100.449 80.0586C100.853 80.0586 101.165 80.1693 101.387 80.3906C101.615 80.612 101.729 80.9277 101.729 81.3379C101.729 81.7285 101.615 82.0378 101.387 82.2656C101.165 82.487 100.853 82.5977 100.449 82.5977C100.033 82.5977 99.7103 82.487 99.4824 82.2656C99.2611 82.0378 99.1504 81.7285 99.1504 81.3379ZM114.375 95H112.07V88.3594C112.07 87.526 111.901 86.9043 111.562 86.4941C111.23 86.084 110.7 85.8789 109.971 85.8789C109.001 85.8789 108.291 86.1654 107.842 86.7383C107.393 87.3112 107.168 88.2715 107.168 89.6191V95H104.873V84.1992H106.67L106.992 85.6152H107.109C107.435 85.1009 107.897 84.7038 108.496 84.4238C109.095 84.1439 109.759 84.0039 110.488 84.0039C113.079 84.0039 114.375 85.3223 114.375 87.959V95ZM119.863 95H117.568V84.1992H119.863V95ZM117.432 81.3379C117.432 80.9277 117.542 80.612 117.764 80.3906C117.992 80.1693 118.314 80.0586 118.73 80.0586C119.134 80.0586 119.447 80.1693 119.668 80.3906C119.896 80.612 120.01 80.9277 120.01 81.3379C120.01 81.7285 119.896 82.0378 119.668 82.2656C119.447 82.487 119.134 82.5977 118.73 82.5977C118.314 82.5977 117.992 82.487 117.764 82.2656C117.542 82.0378 117.432 81.7285 117.432 81.3379ZM127.178 93.3398C127.738 93.3398 128.298 93.252 128.857 93.0762V94.8047C128.604 94.9154 128.275 95.0065 127.871 95.0781C127.474 95.1562 127.061 95.1953 126.631 95.1953C124.456 95.1953 123.369 94.0495 123.369 91.7578V85.9375H121.895V84.9219L123.477 84.082L124.258 81.7969H125.674V84.1992H128.75V85.9375H125.674V91.7188C125.674 92.2721 125.811 92.6823 126.084 92.9492C126.364 93.2096 126.729 93.3398 127.178 93.3398ZM129.385 84.1992H131.885L134.082 90.3223C134.414 91.1947 134.635 92.015 134.746 92.7832H134.824C134.883 92.4251 134.99 91.9922 135.146 91.4844C135.303 90.9701 136.13 88.5417 137.627 84.1992H140.107L135.488 96.4355C134.648 98.6816 133.249 99.8047 131.289 99.8047C130.781 99.8047 130.286 99.7493 129.805 99.6387V97.8223C130.15 97.9004 130.544 97.9395 130.986 97.9395C132.093 97.9395 132.871 97.2982 133.32 96.0156L133.721 95L129.385 84.1992ZM77.3145 114.725C77.3145 117.081 76.6602 118.885 75.3516 120.135C74.043 121.378 72.1582 122 69.6973 122H65.7031V107.723H70.1172C72.3893 107.723 74.1569 108.335 75.4199 109.559C76.6829 110.783 77.3145 112.505 77.3145 114.725ZM74.8535 114.803C74.8535 111.385 73.2552 109.676 70.0586 109.676H68.0371V120.037H69.6973C73.1348 120.037 74.8535 118.292 74.8535 114.803ZM82.4414 122H80.1465V111.199H82.4414V122ZM80.0098 108.338C80.0098 107.928 80.1204 107.612 80.3418 107.391C80.5697 107.169 80.8919 107.059 81.3086 107.059C81.7122 107.059 82.0247 107.169 82.2461 107.391C82.474 107.612 82.5879 107.928 82.5879 108.338C82.5879 108.729 82.474 109.038 82.2461 109.266C82.0247 109.487 81.7122 109.598 81.3086 109.598C80.8919 109.598 80.5697 109.487 80.3418 109.266C80.1204 109.038 80.0098 108.729 80.0098 108.338ZM92.4902 122L92.0312 120.496H91.9531C91.4323 121.154 90.9082 121.603 90.3809 121.844C89.8535 122.078 89.1764 122.195 88.3496 122.195C87.2884 122.195 86.4583 121.909 85.8594 121.336C85.2669 120.763 84.9707 119.952 84.9707 118.904C84.9707 117.791 85.3841 116.951 86.2109 116.385C87.0378 115.818 88.2975 115.509 89.9902 115.457L91.8555 115.398V114.822C91.8555 114.132 91.6927 113.618 91.3672 113.279C91.0482 112.934 90.5501 112.762 89.873 112.762C89.3197 112.762 88.7891 112.843 88.2812 113.006C87.7734 113.169 87.2852 113.361 86.8164 113.582L86.0742 111.941C86.6602 111.635 87.3014 111.404 87.998 111.248C88.6947 111.085 89.3522 111.004 89.9707 111.004C91.3444 111.004 92.3796 111.303 93.0762 111.902C93.7793 112.501 94.1309 113.442 94.1309 114.725V122H92.4902ZM89.0723 120.438C89.9056 120.438 90.5729 120.206 91.0742 119.744C91.582 119.275 91.8359 118.621 91.8359 117.781V116.844L90.4492 116.902C89.3685 116.941 88.5807 117.124 88.0859 117.449C87.5977 117.768 87.3535 118.26 87.3535 118.924C87.3535 119.406 87.4967 119.78 87.7832 120.047C88.0697 120.307 88.4993 120.438 89.0723 120.438ZM106.455 111.199V112.459L104.609 112.801C104.779 113.029 104.919 113.309 105.029 113.641C105.14 113.973 105.195 114.324 105.195 114.695C105.195 115.809 104.811 116.684 104.043 117.322C103.275 117.96 102.217 118.279 100.869 118.279C100.524 118.279 100.212 118.253 99.9316 118.201C99.4368 118.507 99.1895 118.865 99.1895 119.275C99.1895 119.523 99.3034 119.708 99.5312 119.832C99.7656 119.956 100.192 120.018 100.811 120.018H102.695C103.887 120.018 104.792 120.271 105.41 120.779C106.029 121.287 106.338 122.02 106.338 122.977C106.338 124.201 105.833 125.145 104.824 125.809C103.815 126.473 102.357 126.805 100.449 126.805C98.9779 126.805 97.8548 126.544 97.0801 126.023C96.3053 125.503 95.918 124.76 95.918 123.797C95.918 123.133 96.1263 122.573 96.543 122.117C96.9661 121.668 97.5553 121.355 98.3105 121.18C98.0046 121.049 97.7507 120.841 97.5488 120.555C97.3535 120.262 97.2559 119.956 97.2559 119.637C97.2559 119.233 97.3698 118.891 97.5977 118.611C97.8255 118.331 98.1641 118.055 98.6133 117.781C98.0534 117.54 97.5977 117.15 97.2461 116.609C96.901 116.062 96.7285 115.424 96.7285 114.695C96.7285 113.523 97.0964 112.615 97.832 111.971C98.5742 111.326 99.6289 111.004 100.996 111.004C101.302 111.004 101.621 111.027 101.953 111.072C102.292 111.111 102.546 111.154 102.715 111.199H106.455ZM97.9688 123.68C97.9688 124.174 98.1901 124.555 98.6328 124.822C99.082 125.089 99.7103 125.223 100.518 125.223C101.768 125.223 102.699 125.044 103.311 124.686C103.923 124.327 104.229 123.852 104.229 123.26C104.229 122.791 104.059 122.456 103.721 122.254C103.389 122.059 102.767 121.961 101.855 121.961H100.117C99.4596 121.961 98.9355 122.114 98.5449 122.42C98.1608 122.732 97.9688 123.152 97.9688 123.68ZM98.9551 114.695C98.9551 115.372 99.1276 115.893 99.4727 116.258C99.8242 116.622 100.326 116.805 100.977 116.805C102.305 116.805 102.969 116.095 102.969 114.676C102.969 113.973 102.803 113.432 102.471 113.055C102.145 112.671 101.647 112.479 100.977 112.479C100.312 112.479 99.8079 112.667 99.4629 113.045C99.1243 113.423 98.9551 113.973 98.9551 114.695ZM113.945 111.004C114.408 111.004 114.788 111.036 115.088 111.102L114.863 113.24C114.538 113.162 114.199 113.123 113.848 113.123C112.93 113.123 112.184 113.423 111.611 114.021C111.045 114.62 110.762 115.398 110.762 116.355V122H108.467V111.199H110.264L110.566 113.104H110.684C111.042 112.459 111.507 111.948 112.08 111.57C112.66 111.193 113.281 111.004 113.945 111.004ZM123.857 122L123.398 120.496H123.32C122.799 121.154 122.275 121.603 121.748 121.844C121.221 122.078 120.544 122.195 119.717 122.195C118.656 122.195 117.826 121.909 117.227 121.336C116.634 120.763 116.338 119.952 116.338 118.904C116.338 117.791 116.751 116.951 117.578 116.385C118.405 115.818 119.665 115.509 121.357 115.457L123.223 115.398V114.822C123.223 114.132 123.06 113.618 122.734 113.279C122.415 112.934 121.917 112.762 121.24 112.762C120.687 112.762 120.156 112.843 119.648 113.006C119.141 113.169 118.652 113.361 118.184 113.582L117.441 111.941C118.027 111.635 118.669 111.404 119.365 111.248C120.062 111.085 120.719 111.004 121.338 111.004C122.712 111.004 123.747 111.303 124.443 111.902C125.146 112.501 125.498 113.442 125.498 114.725V122H123.857ZM120.439 120.438C121.273 120.438 121.94 120.206 122.441 119.744C122.949 119.275 123.203 118.621 123.203 117.781V116.844L121.816 116.902C120.736 116.941 119.948 117.124 119.453 117.449C118.965 117.768 118.721 118.26 118.721 118.924C118.721 119.406 118.864 119.78 119.15 120.047C119.437 120.307 119.867 120.438 120.439 120.438ZM137.803 122H135.498V115.34C135.498 114.513 135.342 113.898 135.029 113.494C134.717 113.084 134.229 112.879 133.564 112.879C132.679 112.879 132.028 113.169 131.611 113.748C131.201 114.321 130.996 115.278 130.996 116.619V122H128.701V111.199H130.498L130.82 112.615H130.938C131.237 112.101 131.67 111.704 132.236 111.424C132.809 111.144 133.438 111.004 134.121 111.004C135.781 111.004 136.882 111.57 137.422 112.703H137.578C137.897 112.169 138.346 111.753 138.926 111.453C139.505 111.154 140.169 111.004 140.918 111.004C142.207 111.004 143.145 111.329 143.73 111.98C144.323 112.632 144.619 113.624 144.619 114.959V122H142.324V115.34C142.324 114.513 142.165 113.898 141.846 113.494C141.533 113.084 141.045 112.879 140.381 112.879C139.489 112.879 138.835 113.159 138.418 113.719C138.008 114.272 137.803 115.125 137.803 116.277V122Z" fill="#7F8499"/>
</g>
<defs>
<filter id="filter0_d" x="0" y="0" width="210" height="210" filterUnits="userSpaceOnUse" color-interpolation-filters="sRGB">
<feFlood flood-opacity="0" result="BackgroundImageFix"/>
<feColorMatrix in="SourceAlpha" type="matrix" values="0 0 0 0 0 0 0 0 0 0 0 0 0 0 0 0 0 0 127 0"/>
<feOffset dy="4"/>
<feGaussianBlur stdDeviation="7.5"/>
<feColorMatrix type="matrix" values="0 0 0 0 0 0 0 0 0 0 0 0 0 0 0 0 0 0 0.15 0"/>
<feBlend mode="normal" in2="BackgroundImageFix" result="effect1_dropShadow"/>
<feBlend mode="normal" in="SourceGraphic" in2="effect1_dropShadow" result="shape"/>
</filter>
</defs>
</svg>
