<svg width="200" height="200" viewBox="0 0 200 200" fill="none" xmlns="http://www.w3.org/2000/svg">
<g filter="url(#filter0_d)">
<rect x="10" y="6" width="180" height="180" rx="7.50936" fill="white"/>
<path d="M70.7617 88L69.0508 83.2422H62.5L60.8242 88H57.8711L64.2812 70.7969H67.3281L73.7383 88H70.7617ZM68.3125 80.8281L66.707 76.1641C66.5898 75.8516 66.4258 75.3594 66.2148 74.6875C66.0117 74.0156 65.8711 73.5234 65.793 73.2109C65.582 74.1719 65.2734 75.2227 64.8672 76.3633L63.3203 80.8281H68.3125ZM82.2109 77.125H79.0469V88H76.2812V77.125H74.1484V75.8359L76.2812 74.9922V74.1484C76.2812 72.6172 76.6406 71.4844 77.3594 70.75C78.0781 70.0078 79.1758 69.6367 80.6523 69.6367C81.6211 69.6367 82.5742 69.7969 83.5117 70.1172L82.7852 72.2031C82.1055 71.9844 81.457 71.875 80.8398 71.875C80.2148 71.875 79.7578 72.0703 79.4688 72.4609C79.1875 72.8438 79.0469 73.4219 79.0469 74.1953V75.0391H82.2109V77.125ZM90.9297 77.125H87.7656V88H85V77.125H82.8672V75.8359L85 74.9922V74.1484C85 72.6172 85.3594 71.4844 86.0781 70.75C86.7969 70.0078 87.8945 69.6367 89.3711 69.6367C90.3398 69.6367 91.293 69.7969 92.2305 70.1172L91.5039 72.2031C90.8242 71.9844 90.1758 71.875 89.5586 71.875C88.9336 71.875 88.4766 72.0703 88.1875 72.4609C87.9062 72.8438 87.7656 73.4219 87.7656 74.1953V75.0391H90.9297V77.125ZM95.8984 88H93.1445V75.0391H95.8984V88ZM92.9805 71.6055C92.9805 71.1133 93.1133 70.7344 93.3789 70.4688C93.6523 70.2031 94.0391 70.0703 94.5391 70.0703C95.0234 70.0703 95.3984 70.2031 95.6641 70.4688C95.9375 70.7344 96.0742 71.1133 96.0742 71.6055C96.0742 72.0742 95.9375 72.4453 95.6641 72.7188C95.3984 72.9844 95.0234 73.1172 94.5391 73.1172C94.0391 73.1172 93.6523 72.9844 93.3789 72.7188C93.1133 72.4453 92.9805 72.0742 92.9805 71.6055ZM111.25 88H108.484V80.0312C108.484 79.0312 108.281 78.2852 107.875 77.793C107.477 77.3008 106.84 77.0547 105.965 77.0547C104.801 77.0547 103.949 77.3984 103.41 78.0859C102.871 78.7734 102.602 79.9258 102.602 81.543V88H99.8477V75.0391H102.004L102.391 76.7383H102.531C102.922 76.1211 103.477 75.6445 104.195 75.3086C104.914 74.9727 105.711 74.8047 106.586 74.8047C109.695 74.8047 111.25 76.3867 111.25 79.5508V88ZM117.836 88H115.082V75.0391H117.836V88ZM114.918 71.6055C114.918 71.1133 115.051 70.7344 115.316 70.4688C115.59 70.2031 115.977 70.0703 116.477 70.0703C116.961 70.0703 117.336 70.2031 117.602 70.4688C117.875 70.7344 118.012 71.1133 118.012 71.6055C118.012 72.0742 117.875 72.4453 117.602 72.7188C117.336 72.9844 116.961 73.1172 116.477 73.1172C115.977 73.1172 115.59 72.9844 115.316 72.7188C115.051 72.4453 114.918 72.0742 114.918 71.6055ZM126.613 86.0078C127.285 86.0078 127.957 85.9023 128.629 85.6914V87.7656C128.324 87.8984 127.93 88.0078 127.445 88.0938C126.969 88.1875 126.473 88.2344 125.957 88.2344C123.348 88.2344 122.043 86.8594 122.043 84.1094V77.125H120.273V75.9062L122.172 74.8984L123.109 72.1562H124.809V75.0391H128.5V77.125H124.809V84.0625C124.809 84.7266 124.973 85.2188 125.301 85.5391C125.637 85.8516 126.074 86.0078 126.613 86.0078ZM129.262 75.0391H132.262L134.898 82.3867C135.297 83.4336 135.562 84.418 135.695 85.3398H135.789C135.859 84.9102 135.988 84.3906 136.176 83.7812C136.363 83.1641 137.355 80.25 139.152 75.0391H142.129L136.586 89.7227C135.578 92.418 133.898 93.7656 131.547 93.7656C130.938 93.7656 130.344 93.6992 129.766 93.5664V91.3867C130.18 91.4805 130.652 91.5273 131.184 91.5273C132.512 91.5273 133.445 90.7578 133.984 89.2188L134.465 88L129.262 75.0391ZM66.7773 112.27C66.7773 115.098 65.9922 117.262 64.4219 118.762C62.8516 120.254 60.5898 121 57.6367 121H52.8438V103.867H58.1406C60.8672 103.867 62.9883 104.602 64.5039 106.07C66.0195 107.539 66.7773 109.605 66.7773 112.27ZM63.8242 112.363C63.8242 108.262 61.9062 106.211 58.0703 106.211H55.6445V118.645H57.6367C61.7617 118.645 63.8242 116.551 63.8242 112.363ZM72.9297 121H70.1758V108.039H72.9297V121ZM70.0117 104.605C70.0117 104.113 70.1445 103.734 70.4102 103.469C70.6836 103.203 71.0703 103.07 71.5703 103.07C72.0547 103.07 72.4297 103.203 72.6953 103.469C72.9688 103.734 73.1055 104.113 73.1055 104.605C73.1055 105.074 72.9688 105.445 72.6953 105.719C72.4297 105.984 72.0547 106.117 71.5703 106.117C71.0703 106.117 70.6836 105.984 70.4102 105.719C70.1445 105.445 70.0117 105.074 70.0117 104.605ZM84.9883 121L84.4375 119.195H84.3438C83.7188 119.984 83.0898 120.523 82.457 120.812C81.8242 121.094 81.0117 121.234 80.0195 121.234C78.7461 121.234 77.75 120.891 77.0312 120.203C76.3203 119.516 75.9648 118.543 75.9648 117.285C75.9648 115.949 76.4609 114.941 77.4531 114.262C78.4453 113.582 79.957 113.211 81.9883 113.148L84.2266 113.078V112.387C84.2266 111.559 84.0312 110.941 83.6406 110.535C83.2578 110.121 82.6602 109.914 81.8477 109.914C81.1836 109.914 80.5469 110.012 79.9375 110.207C79.3281 110.402 78.7422 110.633 78.1797 110.898L77.2891 108.93C77.9922 108.562 78.7617 108.285 79.5977 108.098C80.4336 107.902 81.2227 107.805 81.9648 107.805C83.6133 107.805 84.8555 108.164 85.6914 108.883C86.5352 109.602 86.957 110.73 86.957 112.27V121H84.9883ZM80.8867 119.125C81.8867 119.125 82.6875 118.848 83.2891 118.293C83.8984 117.73 84.2031 116.945 84.2031 115.938V114.812L82.5391 114.883C81.2422 114.93 80.2969 115.148 79.7031 115.539C79.1172 115.922 78.8242 116.512 78.8242 117.309C78.8242 117.887 78.9961 118.336 79.3398 118.656C79.6836 118.969 80.1992 119.125 80.8867 119.125ZM101.746 108.039V109.551L99.5312 109.961C99.7344 110.234 99.9023 110.57 100.035 110.969C100.168 111.367 100.234 111.789 100.234 112.234C100.234 113.57 99.7734 114.621 98.8516 115.387C97.9297 116.152 96.6602 116.535 95.043 116.535C94.6289 116.535 94.2539 116.504 93.918 116.441C93.3242 116.809 93.0273 117.238 93.0273 117.73C93.0273 118.027 93.1641 118.25 93.4375 118.398C93.7188 118.547 94.2305 118.621 94.9727 118.621H97.2344C98.6641 118.621 99.75 118.926 100.492 119.535C101.234 120.145 101.605 121.023 101.605 122.172C101.605 123.641 101 124.773 99.7891 125.57C98.5781 126.367 96.8281 126.766 94.5391 126.766C92.7734 126.766 91.4258 126.453 90.4961 125.828C89.5664 125.203 89.1016 124.312 89.1016 123.156C89.1016 122.359 89.3516 121.688 89.8516 121.141C90.3594 120.602 91.0664 120.227 91.9727 120.016C91.6055 119.859 91.3008 119.609 91.0586 119.266C90.8242 118.914 90.707 118.547 90.707 118.164C90.707 117.68 90.8438 117.27 91.1172 116.934C91.3906 116.598 91.7969 116.266 92.3359 115.938C91.6641 115.648 91.1172 115.18 90.6953 114.531C90.2812 113.875 90.0742 113.109 90.0742 112.234C90.0742 110.828 90.5156 109.738 91.3984 108.965C92.2891 108.191 93.5547 107.805 95.1953 107.805C95.5625 107.805 95.9453 107.832 96.3438 107.887C96.75 107.934 97.0547 107.984 97.2578 108.039H101.746ZM91.5625 123.016C91.5625 123.609 91.8281 124.066 92.3594 124.387C92.8984 124.707 93.6523 124.867 94.6211 124.867C96.1211 124.867 97.2383 124.652 97.9727 124.223C98.707 123.793 99.0742 123.223 99.0742 122.512C99.0742 121.949 98.8711 121.547 98.4648 121.305C98.0664 121.07 97.3203 120.953 96.2266 120.953H94.1406C93.3516 120.953 92.7227 121.137 92.2539 121.504C91.793 121.879 91.5625 122.383 91.5625 123.016ZM92.7461 112.234C92.7461 113.047 92.9531 113.672 93.3672 114.109C93.7891 114.547 94.3906 114.766 95.1719 114.766C96.7656 114.766 97.5625 113.914 97.5625 112.211C97.5625 111.367 97.3633 110.719 96.9648 110.266C96.5742 109.805 95.9766 109.574 95.1719 109.574C94.375 109.574 93.7695 109.801 93.3555 110.254C92.9492 110.707 92.7461 111.367 92.7461 112.234ZM110.734 107.805C111.289 107.805 111.746 107.844 112.105 107.922L111.836 110.488C111.445 110.395 111.039 110.348 110.617 110.348C109.516 110.348 108.621 110.707 107.934 111.426C107.254 112.145 106.914 113.078 106.914 114.227V121H104.16V108.039H106.316L106.68 110.324H106.82C107.25 109.551 107.809 108.938 108.496 108.484C109.191 108.031 109.938 107.805 110.734 107.805ZM122.629 121L122.078 119.195H121.984C121.359 119.984 120.73 120.523 120.098 120.812C119.465 121.094 118.652 121.234 117.66 121.234C116.387 121.234 115.391 120.891 114.672 120.203C113.961 119.516 113.605 118.543 113.605 117.285C113.605 115.949 114.102 114.941 115.094 114.262C116.086 113.582 117.598 113.211 119.629 113.148L121.867 113.078V112.387C121.867 111.559 121.672 110.941 121.281 110.535C120.898 110.121 120.301 109.914 119.488 109.914C118.824 109.914 118.188 110.012 117.578 110.207C116.969 110.402 116.383 110.633 115.82 110.898L114.93 108.93C115.633 108.562 116.402 108.285 117.238 108.098C118.074 107.902 118.863 107.805 119.605 107.805C121.254 107.805 122.496 108.164 123.332 108.883C124.176 109.602 124.598 110.73 124.598 112.27V121H122.629ZM118.527 119.125C119.527 119.125 120.328 118.848 120.93 118.293C121.539 117.73 121.844 116.945 121.844 115.938V114.812L120.18 114.883C118.883 114.93 117.938 115.148 117.344 115.539C116.758 115.922 116.465 116.512 116.465 117.309C116.465 117.887 116.637 118.336 116.98 118.656C117.324 118.969 117.84 119.125 118.527 119.125ZM139.363 121H136.598V113.008C136.598 112.016 136.41 111.277 136.035 110.793C135.66 110.301 135.074 110.055 134.277 110.055C133.215 110.055 132.434 110.402 131.934 111.098C131.441 111.785 131.195 112.934 131.195 114.543V121H128.441V108.039H130.598L130.984 109.738H131.125C131.484 109.121 132.004 108.645 132.684 108.309C133.371 107.973 134.125 107.805 134.945 107.805C136.938 107.805 138.258 108.484 138.906 109.844H139.094C139.477 109.203 140.016 108.703 140.711 108.344C141.406 107.984 142.203 107.805 143.102 107.805C144.648 107.805 145.773 108.195 146.477 108.977C147.188 109.758 147.543 110.949 147.543 112.551V121H144.789V113.008C144.789 112.016 144.598 111.277 144.215 110.793C143.84 110.301 143.254 110.055 142.457 110.055C141.387 110.055 140.602 110.391 140.102 111.062C139.609 111.727 139.363 112.75 139.363 114.133V121Z" fill="#7F8499"/>
</g>
<defs>
<filter id="filter0_d" x="0" y="0" width="200" height="200" filterUnits="userSpaceOnUse" color-interpolation-filters="sRGB">
<feFlood flood-opacity="0" result="BackgroundImageFix"/>
<feColorMatrix in="SourceAlpha" type="matrix" values="0 0 0 0 0 0 0 0 0 0 0 0 0 0 0 0 0 0 127 0"/>
<feOffset dy="4"/>
<feGaussianBlur stdDeviation="5"/>
<feColorMatrix type="matrix" values="0 0 0 0 0 0 0 0 0 0 0 0 0 0 0 0 0 0 0.06 0"/>
<feBlend mode="normal" in2="BackgroundImageFix" result="effect1_dropShadow"/>
<feBlend mode="normal" in="SourceGraphic" in2="effect1_dropShadow" result="shape"/>
</filter>
</defs>
</svg>
