<svg width="200" height="200" viewBox="0 0 200 200" fill="none" xmlns="http://www.w3.org/2000/svg">
<g filter="url(#filter0_d)">
<rect x="10" y="6" width="180" height="180" rx="7.50936" fill="white"/>
<path d="M75.6348 90L74.209 86.0352H68.75L67.3535 90H64.8926L70.2344 75.6641H72.7734L78.1152 90H75.6348ZM73.5938 84.0234L72.2559 80.1367C72.1582 79.8763 72.0215 79.4661 71.8457 78.9062C71.6764 78.3464 71.5592 77.9362 71.4941 77.6758C71.3184 78.4766 71.0612 79.3522 70.7227 80.3027L69.4336 84.0234H73.5938ZM85.1758 80.9375H82.5391V90H80.2344V80.9375H78.457V79.8633L80.2344 79.1602V78.457C80.2344 77.181 80.5339 76.237 81.1328 75.625C81.7318 75.0065 82.6465 74.6973 83.877 74.6973C84.6842 74.6973 85.4785 74.8307 86.2598 75.0977L85.6543 76.8359C85.0879 76.6536 84.5475 76.5625 84.0332 76.5625C83.5124 76.5625 83.1315 76.7253 82.8906 77.0508C82.6562 77.3698 82.5391 77.8516 82.5391 78.4961V79.1992H85.1758V80.9375ZM92.4414 80.9375H89.8047V90H87.5V80.9375H85.7227V79.8633L87.5 79.1602V78.457C87.5 77.181 87.7995 76.237 88.3984 75.625C88.9974 75.0065 89.9121 74.6973 91.1426 74.6973C91.9499 74.6973 92.7441 74.8307 93.5254 75.0977L92.9199 76.8359C92.3535 76.6536 91.8132 76.5625 91.2988 76.5625C90.778 76.5625 90.3971 76.7253 90.1562 77.0508C89.9219 77.3698 89.8047 77.8516 89.8047 78.4961V79.1992H92.4414V80.9375ZM96.582 90H94.2871V79.1992H96.582V90ZM94.1504 76.3379C94.1504 75.9277 94.2611 75.612 94.4824 75.3906C94.7103 75.1693 95.0326 75.0586 95.4492 75.0586C95.8529 75.0586 96.1654 75.1693 96.3867 75.3906C96.6146 75.612 96.7285 75.9277 96.7285 76.3379C96.7285 76.7285 96.6146 77.0378 96.3867 77.2656C96.1654 77.487 95.8529 77.5977 95.4492 77.5977C95.0326 77.5977 94.7103 77.487 94.4824 77.2656C94.2611 77.0378 94.1504 76.7285 94.1504 76.3379ZM109.375 90H107.07V83.3594C107.07 82.526 106.901 81.9043 106.562 81.4941C106.23 81.084 105.7 80.8789 104.971 80.8789C104.001 80.8789 103.291 81.1654 102.842 81.7383C102.393 82.3112 102.168 83.2715 102.168 84.6191V90H99.873V79.1992H101.67L101.992 80.6152H102.109C102.435 80.1009 102.897 79.7038 103.496 79.4238C104.095 79.1439 104.759 79.0039 105.488 79.0039C108.079 79.0039 109.375 80.3223 109.375 82.959V90ZM114.863 90H112.568V79.1992H114.863V90ZM112.432 76.3379C112.432 75.9277 112.542 75.612 112.764 75.3906C112.992 75.1693 113.314 75.0586 113.73 75.0586C114.134 75.0586 114.447 75.1693 114.668 75.3906C114.896 75.612 115.01 75.9277 115.01 76.3379C115.01 76.7285 114.896 77.0378 114.668 77.2656C114.447 77.487 114.134 77.5977 113.73 77.5977C113.314 77.5977 112.992 77.487 112.764 77.2656C112.542 77.0378 112.432 76.7285 112.432 76.3379ZM122.178 88.3398C122.738 88.3398 123.298 88.252 123.857 88.0762V89.8047C123.604 89.9154 123.275 90.0065 122.871 90.0781C122.474 90.1562 122.061 90.1953 121.631 90.1953C119.456 90.1953 118.369 89.0495 118.369 86.7578V80.9375H116.895V79.9219L118.477 79.082L119.258 76.7969H120.674V79.1992H123.75V80.9375H120.674V86.7188C120.674 87.2721 120.811 87.6823 121.084 87.9492C121.364 88.2096 121.729 88.3398 122.178 88.3398ZM124.385 79.1992H126.885L129.082 85.3223C129.414 86.1947 129.635 87.015 129.746 87.7832H129.824C129.883 87.4251 129.99 86.9922 130.146 86.4844C130.303 85.9701 131.13 83.5417 132.627 79.1992H135.107L130.488 91.4355C129.648 93.6816 128.249 94.8047 126.289 94.8047C125.781 94.8047 125.286 94.7493 124.805 94.6387V92.8223C125.15 92.9004 125.544 92.9395 125.986 92.9395C127.093 92.9395 127.871 92.2982 128.32 91.0156L128.721 90L124.385 79.1992ZM72.3145 109.725C72.3145 112.081 71.6602 113.885 70.3516 115.135C69.043 116.378 67.1582 117 64.6973 117H60.7031V102.723H65.1172C67.3893 102.723 69.1569 103.335 70.4199 104.559C71.6829 105.783 72.3145 107.505 72.3145 109.725ZM69.8535 109.803C69.8535 106.385 68.2552 104.676 65.0586 104.676H63.0371V115.037H64.6973C68.1348 115.037 69.8535 113.292 69.8535 109.803ZM77.4414 117H75.1465V106.199H77.4414V117ZM75.0098 103.338C75.0098 102.928 75.1204 102.612 75.3418 102.391C75.5697 102.169 75.8919 102.059 76.3086 102.059C76.7122 102.059 77.0247 102.169 77.2461 102.391C77.474 102.612 77.5879 102.928 77.5879 103.338C77.5879 103.729 77.474 104.038 77.2461 104.266C77.0247 104.487 76.7122 104.598 76.3086 104.598C75.8919 104.598 75.5697 104.487 75.3418 104.266C75.1204 104.038 75.0098 103.729 75.0098 103.338ZM87.4902 117L87.0312 115.496H86.9531C86.4323 116.154 85.9082 116.603 85.3809 116.844C84.8535 117.078 84.1764 117.195 83.3496 117.195C82.2884 117.195 81.4583 116.909 80.8594 116.336C80.2669 115.763 79.9707 114.952 79.9707 113.904C79.9707 112.791 80.3841 111.951 81.2109 111.385C82.0378 110.818 83.2975 110.509 84.9902 110.457L86.8555 110.398V109.822C86.8555 109.132 86.6927 108.618 86.3672 108.279C86.0482 107.934 85.5501 107.762 84.873 107.762C84.3197 107.762 83.7891 107.843 83.2812 108.006C82.7734 108.169 82.2852 108.361 81.8164 108.582L81.0742 106.941C81.6602 106.635 82.3014 106.404 82.998 106.248C83.6947 106.085 84.3522 106.004 84.9707 106.004C86.3444 106.004 87.3796 106.303 88.0762 106.902C88.7793 107.501 89.1309 108.442 89.1309 109.725V117H87.4902ZM84.0723 115.438C84.9056 115.438 85.5729 115.206 86.0742 114.744C86.582 114.275 86.8359 113.621 86.8359 112.781V111.844L85.4492 111.902C84.3685 111.941 83.5807 112.124 83.0859 112.449C82.5977 112.768 82.3535 113.26 82.3535 113.924C82.3535 114.406 82.4967 114.78 82.7832 115.047C83.0697 115.307 83.4993 115.438 84.0723 115.438ZM101.455 106.199V107.459L99.6094 107.801C99.7786 108.029 99.9186 108.309 100.029 108.641C100.14 108.973 100.195 109.324 100.195 109.695C100.195 110.809 99.8112 111.684 99.043 112.322C98.2747 112.96 97.2168 113.279 95.8691 113.279C95.5241 113.279 95.2116 113.253 94.9316 113.201C94.4368 113.507 94.1895 113.865 94.1895 114.275C94.1895 114.523 94.3034 114.708 94.5312 114.832C94.7656 114.956 95.1921 115.018 95.8105 115.018H97.6953C98.8867 115.018 99.7917 115.271 100.41 115.779C101.029 116.287 101.338 117.02 101.338 117.977C101.338 119.201 100.833 120.145 99.8242 120.809C98.8151 121.473 97.3568 121.805 95.4492 121.805C93.9779 121.805 92.8548 121.544 92.0801 121.023C91.3053 120.503 90.918 119.76 90.918 118.797C90.918 118.133 91.1263 117.573 91.543 117.117C91.9661 116.668 92.5553 116.355 93.3105 116.18C93.0046 116.049 92.7507 115.841 92.5488 115.555C92.3535 115.262 92.2559 114.956 92.2559 114.637C92.2559 114.233 92.3698 113.891 92.5977 113.611C92.8255 113.331 93.1641 113.055 93.6133 112.781C93.0534 112.54 92.5977 112.15 92.2461 111.609C91.901 111.062 91.7285 110.424 91.7285 109.695C91.7285 108.523 92.0964 107.615 92.832 106.971C93.5742 106.326 94.6289 106.004 95.9961 106.004C96.3021 106.004 96.6211 106.027 96.9531 106.072C97.2917 106.111 97.5456 106.154 97.7148 106.199H101.455ZM92.9688 118.68C92.9688 119.174 93.1901 119.555 93.6328 119.822C94.082 120.089 94.7103 120.223 95.5176 120.223C96.7676 120.223 97.6986 120.044 98.3105 119.686C98.9225 119.327 99.2285 118.852 99.2285 118.26C99.2285 117.791 99.0592 117.456 98.7207 117.254C98.3887 117.059 97.7669 116.961 96.8555 116.961H95.1172C94.4596 116.961 93.9355 117.114 93.5449 117.42C93.1608 117.732 92.9688 118.152 92.9688 118.68ZM93.9551 109.695C93.9551 110.372 94.1276 110.893 94.4727 111.258C94.8242 111.622 95.3255 111.805 95.9766 111.805C97.3047 111.805 97.9688 111.095 97.9688 109.676C97.9688 108.973 97.8027 108.432 97.4707 108.055C97.1452 107.671 96.6471 107.479 95.9766 107.479C95.3125 107.479 94.8079 107.667 94.4629 108.045C94.1243 108.423 93.9551 108.973 93.9551 109.695ZM108.945 106.004C109.408 106.004 109.788 106.036 110.088 106.102L109.863 108.24C109.538 108.162 109.199 108.123 108.848 108.123C107.93 108.123 107.184 108.423 106.611 109.021C106.045 109.62 105.762 110.398 105.762 111.355V117H103.467V106.199H105.264L105.566 108.104H105.684C106.042 107.459 106.507 106.948 107.08 106.57C107.66 106.193 108.281 106.004 108.945 106.004ZM118.857 117L118.398 115.496H118.32C117.799 116.154 117.275 116.603 116.748 116.844C116.221 117.078 115.544 117.195 114.717 117.195C113.656 117.195 112.826 116.909 112.227 116.336C111.634 115.763 111.338 114.952 111.338 113.904C111.338 112.791 111.751 111.951 112.578 111.385C113.405 110.818 114.665 110.509 116.357 110.457L118.223 110.398V109.822C118.223 109.132 118.06 108.618 117.734 108.279C117.415 107.934 116.917 107.762 116.24 107.762C115.687 107.762 115.156 107.843 114.648 108.006C114.141 108.169 113.652 108.361 113.184 108.582L112.441 106.941C113.027 106.635 113.669 106.404 114.365 106.248C115.062 106.085 115.719 106.004 116.338 106.004C117.712 106.004 118.747 106.303 119.443 106.902C120.146 107.501 120.498 108.442 120.498 109.725V117H118.857ZM115.439 115.438C116.273 115.438 116.94 115.206 117.441 114.744C117.949 114.275 118.203 113.621 118.203 112.781V111.844L116.816 111.902C115.736 111.941 114.948 112.124 114.453 112.449C113.965 112.768 113.721 113.26 113.721 113.924C113.721 114.406 113.864 114.78 114.15 115.047C114.437 115.307 114.867 115.438 115.439 115.438ZM132.803 117H130.498V110.34C130.498 109.513 130.342 108.898 130.029 108.494C129.717 108.084 129.229 107.879 128.564 107.879C127.679 107.879 127.028 108.169 126.611 108.748C126.201 109.321 125.996 110.278 125.996 111.619V117H123.701V106.199H125.498L125.82 107.615H125.938C126.237 107.101 126.67 106.704 127.236 106.424C127.809 106.144 128.438 106.004 129.121 106.004C130.781 106.004 131.882 106.57 132.422 107.703H132.578C132.897 107.169 133.346 106.753 133.926 106.453C134.505 106.154 135.169 106.004 135.918 106.004C137.207 106.004 138.145 106.329 138.73 106.98C139.323 107.632 139.619 108.624 139.619 109.959V117H137.324V110.34C137.324 109.513 137.165 108.898 136.846 108.494C136.533 108.084 136.045 107.879 135.381 107.879C134.489 107.879 133.835 108.159 133.418 108.719C133.008 109.272 132.803 110.125 132.803 111.277V117Z" fill="#7F8499"/>
</g>
<defs>
<filter id="filter0_d" x="0" y="0" width="200" height="200" filterUnits="userSpaceOnUse" color-interpolation-filters="sRGB">
<feFlood flood-opacity="0" result="BackgroundImageFix"/>
<feColorMatrix in="SourceAlpha" type="matrix" values="0 0 0 0 0 0 0 0 0 0 0 0 0 0 0 0 0 0 127 0"/>
<feOffset dy="4"/>
<feGaussianBlur stdDeviation="5"/>
<feColorMatrix type="matrix" values="0 0 0 0 0 0 0 0 0 0 0 0 0 0 0 0 0 0 0.06 0"/>
<feBlend mode="normal" in2="BackgroundImageFix" result="effect1_dropShadow"/>
<feBlend mode="normal" in="SourceGraphic" in2="effect1_dropShadow" result="shape"/>
</filter>
</defs>
</svg>
