<svg width="200" height="200" viewBox="0 0 200 200" fill="none" xmlns="http://www.w3.org/2000/svg">
<g filter="url(#filter0_d)">
<rect x="10" y="6" width="180" height="180" rx="7.50936" fill="white"/>
<path d="M49.8848 77.5195C48.5436 77.5195 47.4889 77.9948 46.7207 78.9453C45.9525 79.8958 45.5684 81.2077 45.5684 82.8809C45.5684 84.6322 45.9362 85.957 46.6719 86.8555C47.4141 87.7539 48.485 88.2031 49.8848 88.2031C50.4902 88.2031 51.0762 88.1445 51.6426 88.0273C52.209 87.9036 52.7982 87.7474 53.4102 87.5586V89.5605C52.2904 89.9837 51.0208 90.1953 49.6016 90.1953C47.5117 90.1953 45.9069 89.5638 44.7871 88.3008C43.6673 87.0312 43.1074 85.2181 43.1074 82.8613C43.1074 81.377 43.3776 80.0781 43.918 78.9648C44.4648 77.8516 45.2526 76.9987 46.2812 76.4062C47.3099 75.8138 48.5176 75.5176 49.9043 75.5176C51.3626 75.5176 52.7103 75.8236 53.9473 76.4355L53.1074 78.3789C52.6257 78.151 52.1146 77.9525 51.5742 77.7832C51.0404 77.6074 50.4772 77.5195 49.8848 77.5195ZM65.8223 84.5801C65.8223 86.3444 65.3698 87.7214 64.4648 88.7109C63.5599 89.7005 62.3001 90.1953 60.6855 90.1953C59.6764 90.1953 58.7845 89.9674 58.0098 89.5117C57.235 89.056 56.6393 88.4017 56.2227 87.5488C55.806 86.696 55.5977 85.7064 55.5977 84.5801C55.5977 82.8288 56.0469 81.4616 56.9453 80.4785C57.8438 79.4954 59.11 79.0039 60.7441 79.0039C62.3066 79.0039 63.5436 79.5085 64.4551 80.5176C65.3665 81.5202 65.8223 82.8743 65.8223 84.5801ZM57.9609 84.5801C57.9609 87.0736 58.8822 88.3203 60.7246 88.3203C62.5475 88.3203 63.459 87.0736 63.459 84.5801C63.459 82.1126 62.541 80.8789 60.7051 80.8789C59.7415 80.8789 59.0417 81.1979 58.6055 81.8359C58.1758 82.474 57.9609 83.3887 57.9609 84.5801ZM77.5703 90H75.2656V83.3398C75.2656 82.513 75.1094 81.8978 74.7969 81.4941C74.4844 81.084 73.9961 80.8789 73.332 80.8789C72.4466 80.8789 71.7956 81.1686 71.3789 81.748C70.9688 82.321 70.7637 83.278 70.7637 84.6191V90H68.4688V79.1992H70.2656L70.5879 80.6152H70.7051C71.0046 80.1009 71.4375 79.7038 72.0039 79.4238C72.5768 79.1439 73.2051 79.0039 73.8887 79.0039C75.5488 79.0039 76.6491 79.5703 77.1895 80.7031H77.3457C77.6647 80.1693 78.1139 79.7526 78.6934 79.4531C79.2728 79.1536 79.9368 79.0039 80.6855 79.0039C81.9746 79.0039 82.9121 79.3294 83.498 79.9805C84.0905 80.6315 84.3867 81.6243 84.3867 82.959V90H82.0918V83.3398C82.0918 82.513 81.9323 81.8978 81.6133 81.4941C81.3008 81.084 80.8125 80.8789 80.1484 80.8789C79.2565 80.8789 78.6022 81.1589 78.1855 81.7188C77.7754 82.2721 77.5703 83.125 77.5703 84.2773V90ZM93.0684 90.1953C91.7012 90.1953 90.64 89.7038 89.8848 88.7207H89.748C89.8392 89.6322 89.8848 90.1855 89.8848 90.3809V94.8047H87.5898V79.1992H89.4453C89.4974 79.401 89.6048 79.8828 89.7676 80.6445H89.8848C90.6009 79.5508 91.6751 79.0039 93.1074 79.0039C94.4551 79.0039 95.5033 79.4922 96.252 80.4688C97.0072 81.4453 97.3848 82.8158 97.3848 84.5801C97.3848 86.3444 97.0007 87.7214 96.2324 88.7109C95.4707 89.7005 94.416 90.1953 93.0684 90.1953ZM92.5117 80.8789C91.6003 80.8789 90.9329 81.1458 90.5098 81.6797C90.0931 82.2135 89.8848 83.0664 89.8848 84.2383V84.5801C89.8848 85.8952 90.0931 86.849 90.5098 87.4414C90.9264 88.0273 91.6068 88.3203 92.5508 88.3203C93.3451 88.3203 93.957 87.9948 94.3867 87.3438C94.8164 86.6927 95.0312 85.765 95.0312 84.5605C95.0312 83.3496 94.8164 82.4349 94.3867 81.8164C93.9635 81.1914 93.3385 80.8789 92.5117 80.8789ZM104.768 90.1953C103.088 90.1953 101.773 89.707 100.822 88.7305C99.8783 87.7474 99.4062 86.3965 99.4062 84.6777C99.4062 82.9134 99.8457 81.5267 100.725 80.5176C101.604 79.5085 102.811 79.0039 104.348 79.0039C105.773 79.0039 106.9 79.4368 107.727 80.3027C108.553 81.1686 108.967 82.36 108.967 83.877V85.1172H101.77C101.802 86.1654 102.085 86.9727 102.619 87.5391C103.153 88.099 103.905 88.3789 104.875 88.3789C105.513 88.3789 106.105 88.3203 106.652 88.2031C107.206 88.0794 107.798 87.8776 108.43 87.5977V89.4629C107.87 89.7298 107.303 89.9186 106.73 90.0293C106.158 90.14 105.503 90.1953 104.768 90.1953ZM104.348 80.7422C103.618 80.7422 103.033 80.9733 102.59 81.4355C102.154 81.8978 101.893 82.5716 101.809 83.457H106.711C106.698 82.5651 106.483 81.8913 106.066 81.4355C105.65 80.9733 105.077 80.7422 104.348 80.7422ZM115.598 88.3398C116.158 88.3398 116.717 88.252 117.277 88.0762V89.8047C117.023 89.9154 116.695 90.0065 116.291 90.0781C115.894 90.1562 115.48 90.1953 115.051 90.1953C112.876 90.1953 111.789 89.0495 111.789 86.7578V80.9375H110.314V79.9219L111.896 79.082L112.678 76.7969H114.094V79.1992H117.17V80.9375H114.094V86.7188C114.094 87.2721 114.23 87.6823 114.504 87.9492C114.784 88.2096 115.148 88.3398 115.598 88.3398ZM121.74 90H119.445V79.1992H121.74V90ZM119.309 76.3379C119.309 75.9277 119.419 75.612 119.641 75.3906C119.868 75.1693 120.191 75.0586 120.607 75.0586C121.011 75.0586 121.324 75.1693 121.545 75.3906C121.773 75.612 121.887 75.9277 121.887 76.3379C121.887 76.7285 121.773 77.0378 121.545 77.2656C121.324 77.487 121.011 77.5977 120.607 77.5977C120.191 77.5977 119.868 77.487 119.641 77.2656C119.419 77.0378 119.309 76.7285 119.309 76.3379ZM129.055 88.3398C129.615 88.3398 130.174 88.252 130.734 88.0762V89.8047C130.48 89.9154 130.152 90.0065 129.748 90.0781C129.351 90.1562 128.938 90.1953 128.508 90.1953C126.333 90.1953 125.246 89.0495 125.246 86.7578V80.9375H123.771V79.9219L125.354 79.082L126.135 76.7969H127.551V79.1992H130.627V80.9375H127.551V86.7188C127.551 87.2721 127.688 87.6823 127.961 87.9492C128.241 88.2096 128.605 88.3398 129.055 88.3398ZM135.197 90H132.902V79.1992H135.197V90ZM132.766 76.3379C132.766 75.9277 132.876 75.612 133.098 75.3906C133.326 75.1693 133.648 75.0586 134.064 75.0586C134.468 75.0586 134.781 75.1693 135.002 75.3906C135.23 75.612 135.344 75.9277 135.344 76.3379C135.344 76.7285 135.23 77.0378 135.002 77.2656C134.781 77.487 134.468 77.5977 134.064 77.5977C133.648 77.5977 133.326 77.487 133.098 77.2656C132.876 77.0378 132.766 76.7285 132.766 76.3379ZM140.949 90L136.848 79.1992H139.27L141.467 85.4785C141.844 86.5332 142.072 87.3861 142.15 88.0371H142.229C142.287 87.5684 142.515 86.7155 142.912 85.4785L145.109 79.1992H147.551L143.43 90H140.949ZM153.908 90.1953C152.229 90.1953 150.913 89.707 149.963 88.7305C149.019 87.7474 148.547 86.3965 148.547 84.6777C148.547 82.9134 148.986 81.5267 149.865 80.5176C150.744 79.5085 151.952 79.0039 153.488 79.0039C154.914 79.0039 156.04 79.4368 156.867 80.3027C157.694 81.1686 158.107 82.36 158.107 83.877V85.1172H150.91C150.943 86.1654 151.226 86.9727 151.76 87.5391C152.294 88.099 153.046 88.3789 154.016 88.3789C154.654 88.3789 155.246 88.3203 155.793 88.2031C156.346 88.0794 156.939 87.8776 157.57 87.5977V89.4629C157.01 89.7298 156.444 89.9186 155.871 90.0293C155.298 90.14 154.644 90.1953 153.908 90.1953ZM153.488 80.7422C152.759 80.7422 152.173 80.9733 151.73 81.4355C151.294 81.8978 151.034 82.5716 150.949 83.457H155.852C155.839 82.5651 155.624 81.8913 155.207 81.4355C154.79 80.9733 154.217 80.7422 153.488 80.7422ZM71.7891 117L70.3633 113.035H64.9043L63.5078 117H61.0469L66.3887 102.664H68.9277L74.2695 117H71.7891ZM69.748 111.023L68.4102 107.137C68.3125 106.876 68.1758 106.466 68 105.906C67.8307 105.346 67.7135 104.936 67.6484 104.676C67.4727 105.477 67.2155 106.352 66.877 107.303L65.5879 111.023H69.748ZM85.4121 117H83.1074V110.359C83.1074 109.526 82.9382 108.904 82.5996 108.494C82.2676 108.084 81.737 107.879 81.0078 107.879C80.0378 107.879 79.3281 108.165 78.8789 108.738C78.4297 109.311 78.2051 110.271 78.2051 111.619V117H75.9102V106.199H77.707L78.0293 107.615H78.1465C78.472 107.101 78.9342 106.704 79.5332 106.424C80.1322 106.144 80.7962 106.004 81.5254 106.004C84.1165 106.004 85.4121 107.322 85.4121 109.959V117ZM95.3633 117L94.9043 115.496H94.8262C94.3053 116.154 93.7812 116.603 93.2539 116.844C92.7266 117.078 92.0495 117.195 91.2227 117.195C90.1615 117.195 89.3314 116.909 88.7324 116.336C88.14 115.763 87.8438 114.952 87.8438 113.904C87.8438 112.791 88.2572 111.951 89.084 111.385C89.9108 110.818 91.1706 110.509 92.8633 110.457L94.7285 110.398V109.822C94.7285 109.132 94.5658 108.618 94.2402 108.279C93.9212 107.934 93.4232 107.762 92.7461 107.762C92.1927 107.762 91.6621 107.843 91.1543 108.006C90.6465 108.169 90.1582 108.361 89.6895 108.582L88.9473 106.941C89.5332 106.635 90.1745 106.404 90.8711 106.248C91.5677 106.085 92.2253 106.004 92.8438 106.004C94.2174 106.004 95.2526 106.303 95.9492 106.902C96.6523 107.501 97.0039 108.442 97.0039 109.725V117H95.3633ZM91.9453 115.438C92.7786 115.438 93.446 115.206 93.9473 114.744C94.4551 114.275 94.709 113.621 94.709 112.781V111.844L93.3223 111.902C92.2415 111.941 91.4538 112.124 90.959 112.449C90.4707 112.768 90.2266 113.26 90.2266 113.924C90.2266 114.406 90.3698 114.78 90.6562 115.047C90.9427 115.307 91.3724 115.438 91.9453 115.438ZM102.502 117H100.207V101.805H102.502V117ZM104.152 106.199H106.652L108.85 112.322C109.182 113.195 109.403 114.015 109.514 114.783H109.592C109.65 114.425 109.758 113.992 109.914 113.484C110.07 112.97 110.897 110.542 112.395 106.199H114.875L110.256 118.436C109.416 120.682 108.016 121.805 106.057 121.805C105.549 121.805 105.054 121.749 104.572 121.639V119.822C104.917 119.9 105.311 119.939 105.754 119.939C106.861 119.939 107.639 119.298 108.088 118.016L108.488 117L104.152 106.199ZM123.771 113.924C123.771 114.979 123.387 115.789 122.619 116.355C121.851 116.915 120.751 117.195 119.318 117.195C117.88 117.195 116.724 116.977 115.852 116.541V114.559C117.121 115.145 118.303 115.438 119.396 115.438C120.809 115.438 121.516 115.011 121.516 114.158C121.516 113.885 121.438 113.657 121.281 113.475C121.125 113.292 120.868 113.104 120.51 112.908C120.152 112.713 119.654 112.492 119.016 112.244C117.772 111.762 116.929 111.281 116.486 110.799C116.05 110.317 115.832 109.692 115.832 108.924C115.832 107.999 116.203 107.283 116.945 106.775C117.694 106.261 118.71 106.004 119.992 106.004C121.262 106.004 122.463 106.261 123.596 106.775L122.854 108.504C121.688 108.022 120.708 107.781 119.914 107.781C118.703 107.781 118.098 108.126 118.098 108.816C118.098 109.155 118.254 109.441 118.566 109.676C118.885 109.91 119.576 110.232 120.637 110.643C121.529 110.988 122.176 111.303 122.58 111.59C122.984 111.876 123.283 112.208 123.479 112.586C123.674 112.957 123.771 113.403 123.771 113.924ZM128.557 117H126.262V106.199H128.557V117ZM126.125 103.338C126.125 102.928 126.236 102.612 126.457 102.391C126.685 102.169 127.007 102.059 127.424 102.059C127.827 102.059 128.14 102.169 128.361 102.391C128.589 102.612 128.703 102.928 128.703 103.338C128.703 103.729 128.589 104.038 128.361 104.266C128.14 104.487 127.827 104.598 127.424 104.598C127.007 104.598 126.685 104.487 126.457 104.266C126.236 104.038 126.125 103.729 126.125 103.338ZM139.104 113.924C139.104 114.979 138.719 115.789 137.951 116.355C137.183 116.915 136.083 117.195 134.65 117.195C133.212 117.195 132.056 116.977 131.184 116.541V114.559C132.453 115.145 133.635 115.438 134.729 115.438C136.141 115.438 136.848 115.011 136.848 114.158C136.848 113.885 136.77 113.657 136.613 113.475C136.457 113.292 136.2 113.104 135.842 112.908C135.484 112.713 134.986 112.492 134.348 112.244C133.104 111.762 132.261 111.281 131.818 110.799C131.382 110.317 131.164 109.692 131.164 108.924C131.164 107.999 131.535 107.283 132.277 106.775C133.026 106.261 134.042 106.004 135.324 106.004C136.594 106.004 137.795 106.261 138.928 106.775L138.186 108.504C137.02 108.022 136.04 107.781 135.246 107.781C134.035 107.781 133.43 108.126 133.43 108.816C133.43 109.155 133.586 109.441 133.898 109.676C134.217 109.91 134.908 110.232 135.969 110.643C136.861 110.988 137.508 111.303 137.912 111.59C138.316 111.876 138.615 112.208 138.811 112.586C139.006 112.957 139.104 113.403 139.104 113.924Z" fill="#7F8499"/>
</g>
<defs>
<filter id="filter0_d" x="0" y="0" width="200" height="200" filterUnits="userSpaceOnUse" color-interpolation-filters="sRGB">
<feFlood flood-opacity="0" result="BackgroundImageFix"/>
<feColorMatrix in="SourceAlpha" type="matrix" values="0 0 0 0 0 0 0 0 0 0 0 0 0 0 0 0 0 0 127 0"/>
<feOffset dy="4"/>
<feGaussianBlur stdDeviation="5"/>
<feColorMatrix type="matrix" values="0 0 0 0 0 0 0 0 0 0 0 0 0 0 0 0 0 0 0.06 0"/>
<feBlend mode="normal" in2="BackgroundImageFix" result="effect1_dropShadow"/>
<feBlend mode="normal" in="SourceGraphic" in2="effect1_dropShadow" result="shape"/>
</filter>
</defs>
</svg>
