<svg width="210" height="210" viewBox="0 0 210 210" fill="none" xmlns="http://www.w3.org/2000/svg">
<g filter="url(#filter0_d)">
<rect x="15" y="11" width="180" height="180" rx="7.50936" fill="white"/>
<path d="M54.8848 82.5195C53.5436 82.5195 52.4889 82.9948 51.7207 83.9453C50.9525 84.8958 50.5684 86.2077 50.5684 87.8809C50.5684 89.6322 50.9362 90.957 51.6719 91.8555C52.4141 92.7539 53.485 93.2031 54.8848 93.2031C55.4902 93.2031 56.0762 93.1445 56.6426 93.0273C57.209 92.9036 57.7982 92.7474 58.4102 92.5586V94.5605C57.2904 94.9837 56.0208 95.1953 54.6016 95.1953C52.5117 95.1953 50.9069 94.5638 49.7871 93.3008C48.6673 92.0312 48.1074 90.2181 48.1074 87.8613C48.1074 86.377 48.3776 85.0781 48.918 83.9648C49.4648 82.8516 50.2526 81.9987 51.2812 81.4062C52.3099 80.8138 53.5176 80.5176 54.9043 80.5176C56.3626 80.5176 57.7103 80.8236 58.9473 81.4355L58.1074 83.3789C57.6257 83.151 57.1146 82.9525 56.5742 82.7832C56.0404 82.6074 55.4772 82.5195 54.8848 82.5195ZM70.8223 89.5801C70.8223 91.3444 70.3698 92.7214 69.4648 93.7109C68.5599 94.7005 67.3001 95.1953 65.6855 95.1953C64.6764 95.1953 63.7845 94.9674 63.0098 94.5117C62.235 94.056 61.6393 93.4017 61.2227 92.5488C60.806 91.696 60.5977 90.7064 60.5977 89.5801C60.5977 87.8288 61.0469 86.4616 61.9453 85.4785C62.8438 84.4954 64.11 84.0039 65.7441 84.0039C67.3066 84.0039 68.5436 84.5085 69.4551 85.5176C70.3665 86.5202 70.8223 87.8743 70.8223 89.5801ZM62.9609 89.5801C62.9609 92.0736 63.8822 93.3203 65.7246 93.3203C67.5475 93.3203 68.459 92.0736 68.459 89.5801C68.459 87.1126 67.541 85.8789 65.7051 85.8789C64.7415 85.8789 64.0417 86.1979 63.6055 86.8359C63.1758 87.474 62.9609 88.3887 62.9609 89.5801ZM82.5703 95H80.2656V88.3398C80.2656 87.513 80.1094 86.8978 79.7969 86.4941C79.4844 86.084 78.9961 85.8789 78.332 85.8789C77.4466 85.8789 76.7956 86.1686 76.3789 86.748C75.9688 87.321 75.7637 88.278 75.7637 89.6191V95H73.4688V84.1992H75.2656L75.5879 85.6152H75.7051C76.0046 85.1009 76.4375 84.7038 77.0039 84.4238C77.5768 84.1439 78.2051 84.0039 78.8887 84.0039C80.5488 84.0039 81.6491 84.5703 82.1895 85.7031H82.3457C82.6647 85.1693 83.1139 84.7526 83.6934 84.4531C84.2728 84.1536 84.9368 84.0039 85.6855 84.0039C86.9746 84.0039 87.9121 84.3294 88.498 84.9805C89.0905 85.6315 89.3867 86.6243 89.3867 87.959V95H87.0918V88.3398C87.0918 87.513 86.9323 86.8978 86.6133 86.4941C86.3008 86.084 85.8125 85.8789 85.1484 85.8789C84.2565 85.8789 83.6022 86.1589 83.1855 86.7188C82.7754 87.2721 82.5703 88.125 82.5703 89.2773V95ZM98.0684 95.1953C96.7012 95.1953 95.64 94.7038 94.8848 93.7207H94.748C94.8392 94.6322 94.8848 95.1855 94.8848 95.3809V99.8047H92.5898V84.1992H94.4453C94.4974 84.401 94.6048 84.8828 94.7676 85.6445H94.8848C95.6009 84.5508 96.6751 84.0039 98.1074 84.0039C99.4551 84.0039 100.503 84.4922 101.252 85.4688C102.007 86.4453 102.385 87.8158 102.385 89.5801C102.385 91.3444 102.001 92.7214 101.232 93.7109C100.471 94.7005 99.416 95.1953 98.0684 95.1953ZM97.5117 85.8789C96.6003 85.8789 95.9329 86.1458 95.5098 86.6797C95.0931 87.2135 94.8848 88.0664 94.8848 89.2383V89.5801C94.8848 90.8952 95.0931 91.849 95.5098 92.4414C95.9264 93.0273 96.6068 93.3203 97.5508 93.3203C98.3451 93.3203 98.957 92.9948 99.3867 92.3438C99.8164 91.6927 100.031 90.765 100.031 89.5605C100.031 88.3496 99.8164 87.4349 99.3867 86.8164C98.9635 86.1914 98.3385 85.8789 97.5117 85.8789ZM109.768 95.1953C108.088 95.1953 106.773 94.707 105.822 93.7305C104.878 92.7474 104.406 91.3965 104.406 89.6777C104.406 87.9134 104.846 86.5267 105.725 85.5176C106.604 84.5085 107.811 84.0039 109.348 84.0039C110.773 84.0039 111.9 84.4368 112.727 85.3027C113.553 86.1686 113.967 87.36 113.967 88.877V90.1172H106.77C106.802 91.1654 107.085 91.9727 107.619 92.5391C108.153 93.099 108.905 93.3789 109.875 93.3789C110.513 93.3789 111.105 93.3203 111.652 93.2031C112.206 93.0794 112.798 92.8776 113.43 92.5977V94.4629C112.87 94.7298 112.303 94.9186 111.73 95.0293C111.158 95.14 110.503 95.1953 109.768 95.1953ZM109.348 85.7422C108.618 85.7422 108.033 85.9733 107.59 86.4355C107.154 86.8978 106.893 87.5716 106.809 88.457H111.711C111.698 87.5651 111.483 86.8913 111.066 86.4355C110.65 85.9733 110.077 85.7422 109.348 85.7422ZM120.598 93.3398C121.158 93.3398 121.717 93.252 122.277 93.0762V94.8047C122.023 94.9154 121.695 95.0065 121.291 95.0781C120.894 95.1562 120.48 95.1953 120.051 95.1953C117.876 95.1953 116.789 94.0495 116.789 91.7578V85.9375H115.314V84.9219L116.896 84.082L117.678 81.7969H119.094V84.1992H122.17V85.9375H119.094V91.7188C119.094 92.2721 119.23 92.6823 119.504 92.9492C119.784 93.2096 120.148 93.3398 120.598 93.3398ZM126.74 95H124.445V84.1992H126.74V95ZM124.309 81.3379C124.309 80.9277 124.419 80.612 124.641 80.3906C124.868 80.1693 125.191 80.0586 125.607 80.0586C126.011 80.0586 126.324 80.1693 126.545 80.3906C126.773 80.612 126.887 80.9277 126.887 81.3379C126.887 81.7285 126.773 82.0378 126.545 82.2656C126.324 82.487 126.011 82.5977 125.607 82.5977C125.191 82.5977 124.868 82.487 124.641 82.2656C124.419 82.0378 124.309 81.7285 124.309 81.3379ZM134.055 93.3398C134.615 93.3398 135.174 93.252 135.734 93.0762V94.8047C135.48 94.9154 135.152 95.0065 134.748 95.0781C134.351 95.1562 133.938 95.1953 133.508 95.1953C131.333 95.1953 130.246 94.0495 130.246 91.7578V85.9375H128.771V84.9219L130.354 84.082L131.135 81.7969H132.551V84.1992H135.627V85.9375H132.551V91.7188C132.551 92.2721 132.688 92.6823 132.961 92.9492C133.241 93.2096 133.605 93.3398 134.055 93.3398ZM140.197 95H137.902V84.1992H140.197V95ZM137.766 81.3379C137.766 80.9277 137.876 80.612 138.098 80.3906C138.326 80.1693 138.648 80.0586 139.064 80.0586C139.468 80.0586 139.781 80.1693 140.002 80.3906C140.23 80.612 140.344 80.9277 140.344 81.3379C140.344 81.7285 140.23 82.0378 140.002 82.2656C139.781 82.487 139.468 82.5977 139.064 82.5977C138.648 82.5977 138.326 82.487 138.098 82.2656C137.876 82.0378 137.766 81.7285 137.766 81.3379ZM145.949 95L141.848 84.1992H144.27L146.467 90.4785C146.844 91.5332 147.072 92.3861 147.15 93.0371H147.229C147.287 92.5684 147.515 91.7155 147.912 90.4785L150.109 84.1992H152.551L148.43 95H145.949ZM158.908 95.1953C157.229 95.1953 155.913 94.707 154.963 93.7305C154.019 92.7474 153.547 91.3965 153.547 89.6777C153.547 87.9134 153.986 86.5267 154.865 85.5176C155.744 84.5085 156.952 84.0039 158.488 84.0039C159.914 84.0039 161.04 84.4368 161.867 85.3027C162.694 86.1686 163.107 87.36 163.107 88.877V90.1172H155.91C155.943 91.1654 156.226 91.9727 156.76 92.5391C157.294 93.099 158.046 93.3789 159.016 93.3789C159.654 93.3789 160.246 93.3203 160.793 93.2031C161.346 93.0794 161.939 92.8776 162.57 92.5977V94.4629C162.01 94.7298 161.444 94.9186 160.871 95.0293C160.298 95.14 159.644 95.1953 158.908 95.1953ZM158.488 85.7422C157.759 85.7422 157.173 85.9733 156.73 86.4355C156.294 86.8978 156.034 87.5716 155.949 88.457H160.852C160.839 87.5651 160.624 86.8913 160.207 86.4355C159.79 85.9733 159.217 85.7422 158.488 85.7422ZM76.7891 122L75.3633 118.035H69.9043L68.5078 122H66.0469L71.3887 107.664H73.9277L79.2695 122H76.7891ZM74.748 116.023L73.4102 112.137C73.3125 111.876 73.1758 111.466 73 110.906C72.8307 110.346 72.7135 109.936 72.6484 109.676C72.4727 110.477 72.2155 111.352 71.877 112.303L70.5879 116.023H74.748ZM90.4121 122H88.1074V115.359C88.1074 114.526 87.9382 113.904 87.5996 113.494C87.2676 113.084 86.737 112.879 86.0078 112.879C85.0378 112.879 84.3281 113.165 83.8789 113.738C83.4297 114.311 83.2051 115.271 83.2051 116.619V122H80.9102V111.199H82.707L83.0293 112.615H83.1465C83.472 112.101 83.9342 111.704 84.5332 111.424C85.1322 111.144 85.7962 111.004 86.5254 111.004C89.1165 111.004 90.4121 112.322 90.4121 114.959V122ZM100.363 122L99.9043 120.496H99.8262C99.3053 121.154 98.7812 121.603 98.2539 121.844C97.7266 122.078 97.0495 122.195 96.2227 122.195C95.1615 122.195 94.3314 121.909 93.7324 121.336C93.14 120.763 92.8438 119.952 92.8438 118.904C92.8438 117.791 93.2572 116.951 94.084 116.385C94.9108 115.818 96.1706 115.509 97.8633 115.457L99.7285 115.398V114.822C99.7285 114.132 99.5658 113.618 99.2402 113.279C98.9212 112.934 98.4232 112.762 97.7461 112.762C97.1927 112.762 96.6621 112.843 96.1543 113.006C95.6465 113.169 95.1582 113.361 94.6895 113.582L93.9473 111.941C94.5332 111.635 95.1745 111.404 95.8711 111.248C96.5677 111.085 97.2253 111.004 97.8438 111.004C99.2174 111.004 100.253 111.303 100.949 111.902C101.652 112.501 102.004 113.442 102.004 114.725V122H100.363ZM96.9453 120.438C97.7786 120.438 98.446 120.206 98.9473 119.744C99.4551 119.275 99.709 118.621 99.709 117.781V116.844L98.3223 116.902C97.2415 116.941 96.4538 117.124 95.959 117.449C95.4707 117.768 95.2266 118.26 95.2266 118.924C95.2266 119.406 95.3698 119.78 95.6562 120.047C95.9427 120.307 96.3724 120.438 96.9453 120.438ZM107.502 122H105.207V106.805H107.502V122ZM109.152 111.199H111.652L113.85 117.322C114.182 118.195 114.403 119.015 114.514 119.783H114.592C114.65 119.425 114.758 118.992 114.914 118.484C115.07 117.97 115.897 115.542 117.395 111.199H119.875L115.256 123.436C114.416 125.682 113.016 126.805 111.057 126.805C110.549 126.805 110.054 126.749 109.572 126.639V124.822C109.917 124.9 110.311 124.939 110.754 124.939C111.861 124.939 112.639 124.298 113.088 123.016L113.488 122L109.152 111.199ZM128.771 118.924C128.771 119.979 128.387 120.789 127.619 121.355C126.851 121.915 125.751 122.195 124.318 122.195C122.88 122.195 121.724 121.977 120.852 121.541V119.559C122.121 120.145 123.303 120.438 124.396 120.438C125.809 120.438 126.516 120.011 126.516 119.158C126.516 118.885 126.438 118.657 126.281 118.475C126.125 118.292 125.868 118.104 125.51 117.908C125.152 117.713 124.654 117.492 124.016 117.244C122.772 116.762 121.929 116.281 121.486 115.799C121.05 115.317 120.832 114.692 120.832 113.924C120.832 112.999 121.203 112.283 121.945 111.775C122.694 111.261 123.71 111.004 124.992 111.004C126.262 111.004 127.463 111.261 128.596 111.775L127.854 113.504C126.688 113.022 125.708 112.781 124.914 112.781C123.703 112.781 123.098 113.126 123.098 113.816C123.098 114.155 123.254 114.441 123.566 114.676C123.885 114.91 124.576 115.232 125.637 115.643C126.529 115.988 127.176 116.303 127.58 116.59C127.984 116.876 128.283 117.208 128.479 117.586C128.674 117.957 128.771 118.403 128.771 118.924ZM133.557 122H131.262V111.199H133.557V122ZM131.125 108.338C131.125 107.928 131.236 107.612 131.457 107.391C131.685 107.169 132.007 107.059 132.424 107.059C132.827 107.059 133.14 107.169 133.361 107.391C133.589 107.612 133.703 107.928 133.703 108.338C133.703 108.729 133.589 109.038 133.361 109.266C133.14 109.487 132.827 109.598 132.424 109.598C132.007 109.598 131.685 109.487 131.457 109.266C131.236 109.038 131.125 108.729 131.125 108.338ZM144.104 118.924C144.104 119.979 143.719 120.789 142.951 121.355C142.183 121.915 141.083 122.195 139.65 122.195C138.212 122.195 137.056 121.977 136.184 121.541V119.559C137.453 120.145 138.635 120.438 139.729 120.438C141.141 120.438 141.848 120.011 141.848 119.158C141.848 118.885 141.77 118.657 141.613 118.475C141.457 118.292 141.2 118.104 140.842 117.908C140.484 117.713 139.986 117.492 139.348 117.244C138.104 116.762 137.261 116.281 136.818 115.799C136.382 115.317 136.164 114.692 136.164 113.924C136.164 112.999 136.535 112.283 137.277 111.775C138.026 111.261 139.042 111.004 140.324 111.004C141.594 111.004 142.795 111.261 143.928 111.775L143.186 113.504C142.02 113.022 141.04 112.781 140.246 112.781C139.035 112.781 138.43 113.126 138.43 113.816C138.43 114.155 138.586 114.441 138.898 114.676C139.217 114.91 139.908 115.232 140.969 115.643C141.861 115.988 142.508 116.303 142.912 116.59C143.316 116.876 143.615 117.208 143.811 117.586C144.006 117.957 144.104 118.403 144.104 118.924Z" fill="#7F8499"/>
</g>
<defs>
<filter id="filter0_d" x="0" y="0" width="210" height="210" filterUnits="userSpaceOnUse" color-interpolation-filters="sRGB">
<feFlood flood-opacity="0" result="BackgroundImageFix"/>
<feColorMatrix in="SourceAlpha" type="matrix" values="0 0 0 0 0 0 0 0 0 0 0 0 0 0 0 0 0 0 127 0"/>
<feOffset dy="4"/>
<feGaussianBlur stdDeviation="7.5"/>
<feColorMatrix type="matrix" values="0 0 0 0 0 0 0 0 0 0 0 0 0 0 0 0 0 0 0.15 0"/>
<feBlend mode="normal" in2="BackgroundImageFix" result="effect1_dropShadow"/>
<feBlend mode="normal" in="SourceGraphic" in2="effect1_dropShadow" result="shape"/>
</filter>
</defs>
</svg>
