<svg width="200" height="200" viewBox="0 0 200 200" fill="none" xmlns="http://www.w3.org/2000/svg">
<g filter="url(#filter0_d)">
<rect x="10" y="6" width="180" height="180" rx="7.50936" fill="white"/>
<path d="M52.3359 86.123C52.3359 87.3926 51.877 88.3887 50.959 89.1113C50.041 89.834 48.7747 90.1953 47.1602 90.1953C45.5456 90.1953 44.224 89.9447 43.1953 89.4434V87.2363C43.8464 87.5423 44.5365 87.7832 45.2656 87.959C46.0013 88.1348 46.6849 88.2227 47.3164 88.2227C48.2409 88.2227 48.9212 88.0469 49.3574 87.6953C49.8001 87.3438 50.0215 86.8717 50.0215 86.2793C50.0215 85.7454 49.8197 85.293 49.416 84.9219C49.0124 84.5508 48.179 84.1113 46.916 83.6035C45.6139 83.0762 44.696 82.474 44.1621 81.7969C43.6283 81.1198 43.3613 80.306 43.3613 79.3555C43.3613 78.1641 43.7845 77.2266 44.6309 76.543C45.4772 75.8594 46.6133 75.5176 48.0391 75.5176C49.4062 75.5176 50.7669 75.8171 52.1211 76.416L51.3789 78.3203C50.1094 77.7865 48.9766 77.5195 47.9805 77.5195C47.2253 77.5195 46.6523 77.6855 46.2617 78.0176C45.8711 78.3431 45.6758 78.776 45.6758 79.3164C45.6758 79.6875 45.7539 80.0065 45.9102 80.2734C46.0664 80.5339 46.3236 80.7812 46.6816 81.0156C47.0397 81.25 47.6842 81.5592 48.6152 81.9434C49.6634 82.3796 50.4316 82.7865 50.9199 83.1641C51.4082 83.5417 51.7663 83.9681 51.9941 84.4434C52.222 84.9186 52.3359 85.4785 52.3359 86.123ZM58.8789 88.3398C59.4388 88.3398 59.9987 88.252 60.5586 88.0762V89.8047C60.3047 89.9154 59.9759 90.0065 59.5723 90.0781C59.1751 90.1562 58.7617 90.1953 58.332 90.1953C56.1576 90.1953 55.0703 89.0495 55.0703 86.7578V80.9375H53.5957V79.9219L55.1777 79.082L55.959 76.7969H57.375V79.1992H60.4512V80.9375H57.375V86.7188C57.375 87.2721 57.5117 87.6823 57.7852 87.9492C58.0651 88.2096 58.4297 88.3398 58.8789 88.3398ZM69.4844 90L69.0254 88.4961H68.9473C68.4264 89.1536 67.9023 89.6029 67.375 89.8438C66.8477 90.0781 66.1706 90.1953 65.3438 90.1953C64.2826 90.1953 63.4525 89.9089 62.8535 89.3359C62.2611 88.763 61.9648 87.9525 61.9648 86.9043C61.9648 85.791 62.3783 84.9512 63.2051 84.3848C64.0319 83.8184 65.2917 83.5091 66.9844 83.457L68.8496 83.3984V82.8223C68.8496 82.1322 68.6868 81.6178 68.3613 81.2793C68.0423 80.9342 67.5443 80.7617 66.8672 80.7617C66.3138 80.7617 65.7832 80.8431 65.2754 81.0059C64.7676 81.1686 64.2793 81.3607 63.8105 81.582L63.0684 79.9414C63.6543 79.6354 64.2956 79.4043 64.9922 79.248C65.6888 79.0853 66.3464 79.0039 66.9648 79.0039C68.3385 79.0039 69.3737 79.3034 70.0703 79.9023C70.7734 80.5013 71.125 81.4421 71.125 82.7246V90H69.4844ZM66.0664 88.4375C66.8997 88.4375 67.5671 88.2064 68.0684 87.7441C68.5762 87.2754 68.8301 86.6211 68.8301 85.7812V84.8438L67.4434 84.9023C66.3626 84.9414 65.5749 85.1237 65.0801 85.4492C64.5918 85.7682 64.3477 86.2598 64.3477 86.9238C64.3477 87.4056 64.4909 87.7799 64.7773 88.0469C65.0638 88.3073 65.4935 88.4375 66.0664 88.4375ZM76.5449 84.2969L77.8438 82.6758L81.1055 79.1992H83.752L79.4062 83.8379L84.0254 90H81.3301L77.8633 85.2637L76.6035 86.2988V90H74.3281V74.8047H76.6035V82.2168L76.4863 84.2969H76.5449ZM90.4902 90.1953C88.8105 90.1953 87.4954 89.707 86.5449 88.7305C85.6009 87.7474 85.1289 86.3965 85.1289 84.6777C85.1289 82.9134 85.5684 81.5267 86.4473 80.5176C87.3262 79.5085 88.5339 79.0039 90.0703 79.0039C91.4961 79.0039 92.6224 79.4368 93.4492 80.3027C94.276 81.1686 94.6895 82.36 94.6895 83.877V85.1172H87.4922C87.5247 86.1654 87.8079 86.9727 88.3418 87.5391C88.8757 88.099 89.6276 88.3789 90.5977 88.3789C91.2357 88.3789 91.8281 88.3203 92.375 88.2031C92.9284 88.0794 93.5208 87.8776 94.1523 87.5977V89.4629C93.5924 89.7298 93.026 89.9186 92.4531 90.0293C91.8802 90.14 91.2259 90.1953 90.4902 90.1953ZM90.0703 80.7422C89.3411 80.7422 88.7552 80.9733 88.3125 81.4355C87.8763 81.8978 87.6159 82.5716 87.5312 83.457H92.4336C92.4206 82.5651 92.2057 81.8913 91.7891 81.4355C91.3724 80.9733 90.7995 80.7422 90.0703 80.7422ZM106.799 90H104.494V83.3594C104.494 82.526 104.325 81.9043 103.986 81.4941C103.654 81.084 103.124 80.8789 102.395 80.8789C101.431 80.8789 100.721 81.1686 100.266 81.748C99.8164 82.321 99.5918 83.2845 99.5918 84.6387V90H97.2969V74.8047H99.5918V78.6621C99.5918 79.2806 99.5527 79.9414 99.4746 80.6445H99.6211C99.9336 80.1237 100.367 79.7201 100.92 79.4336C101.48 79.1471 102.131 79.0039 102.873 79.0039C105.49 79.0039 106.799 80.3223 106.799 82.959V90ZM119.572 84.5801C119.572 86.3444 119.12 87.7214 118.215 88.7109C117.31 89.7005 116.05 90.1953 114.436 90.1953C113.426 90.1953 112.535 89.9674 111.76 89.5117C110.985 89.056 110.389 88.4017 109.973 87.5488C109.556 86.696 109.348 85.7064 109.348 84.5801C109.348 82.8288 109.797 81.4616 110.695 80.4785C111.594 79.4954 112.86 79.0039 114.494 79.0039C116.057 79.0039 117.294 79.5085 118.205 80.5176C119.117 81.5202 119.572 82.8743 119.572 84.5801ZM111.711 84.5801C111.711 87.0736 112.632 88.3203 114.475 88.3203C116.298 88.3203 117.209 87.0736 117.209 84.5801C117.209 82.1126 116.291 80.8789 114.455 80.8789C113.492 80.8789 112.792 81.1979 112.355 81.8359C111.926 82.474 111.711 83.3887 111.711 84.5801ZM124.514 90H122.219V74.8047H124.514V90ZM131.447 90.1953C130.1 90.1953 129.048 89.707 128.293 88.7305C127.538 87.7539 127.16 86.3835 127.16 84.6191C127.16 82.8483 127.541 81.4714 128.303 80.4883C129.071 79.4987 130.132 79.0039 131.486 79.0039C132.906 79.0039 133.986 79.528 134.729 80.5762H134.846C134.735 79.8014 134.68 79.1895 134.68 78.7402V74.8047H136.984V90H135.188L134.787 88.584H134.68C133.944 89.6582 132.867 90.1953 131.447 90.1953ZM132.062 88.3398C133.007 88.3398 133.693 88.0762 134.123 87.5488C134.553 87.015 134.774 86.1523 134.787 84.9609V84.6387C134.787 83.278 134.566 82.3112 134.123 81.7383C133.68 81.1654 132.987 80.8789 132.043 80.8789C131.236 80.8789 130.614 81.2077 130.178 81.8652C129.742 82.5163 129.523 83.4473 129.523 84.6582C129.523 85.8561 129.735 86.7708 130.158 87.4023C130.581 88.0273 131.216 88.3398 132.062 88.3398ZM144.982 90.1953C143.303 90.1953 141.988 89.707 141.037 88.7305C140.093 87.7474 139.621 86.3965 139.621 84.6777C139.621 82.9134 140.061 81.5267 140.939 80.5176C141.818 79.5085 143.026 79.0039 144.562 79.0039C145.988 79.0039 147.115 79.4368 147.941 80.3027C148.768 81.1686 149.182 82.36 149.182 83.877V85.1172H141.984C142.017 86.1654 142.3 86.9727 142.834 87.5391C143.368 88.099 144.12 88.3789 145.09 88.3789C145.728 88.3789 146.32 88.3203 146.867 88.2031C147.421 88.0794 148.013 87.8776 148.645 87.5977V89.4629C148.085 89.7298 147.518 89.9186 146.945 90.0293C146.372 90.14 145.718 90.1953 144.982 90.1953ZM144.562 80.7422C143.833 80.7422 143.247 80.9733 142.805 81.4355C142.368 81.8978 142.108 82.5716 142.023 83.457H146.926C146.913 82.5651 146.698 81.8913 146.281 81.4355C145.865 80.9733 145.292 80.7422 144.562 80.7422ZM157.268 79.0039C157.73 79.0039 158.111 79.0365 158.41 79.1016L158.186 81.2402C157.86 81.1621 157.521 81.123 157.17 81.123C156.252 81.123 155.507 81.4225 154.934 82.0215C154.367 82.6204 154.084 83.3984 154.084 84.3555V90H151.789V79.1992H153.586L153.889 81.1035H154.006C154.364 80.459 154.829 79.9479 155.402 79.5703C155.982 79.1927 156.604 79.0039 157.268 79.0039ZM87.2969 117L83.1562 105.076H83.0781C83.1888 106.847 83.2441 108.507 83.2441 110.057V117H81.125V102.723H84.416L88.3809 114.08H88.4395L92.5215 102.723H95.8223V117H93.5762V109.939C93.5762 109.23 93.5924 108.305 93.625 107.166C93.6641 106.027 93.6966 105.337 93.7227 105.096H93.6445L89.3574 117H87.2969ZM106.096 117L105.637 115.496H105.559C105.038 116.154 104.514 116.603 103.986 116.844C103.459 117.078 102.782 117.195 101.955 117.195C100.894 117.195 100.064 116.909 99.4648 116.336C98.8724 115.763 98.5762 114.952 98.5762 113.904C98.5762 112.791 98.9896 111.951 99.8164 111.385C100.643 110.818 101.903 110.509 103.596 110.457L105.461 110.398V109.822C105.461 109.132 105.298 108.618 104.973 108.279C104.654 107.934 104.156 107.762 103.479 107.762C102.925 107.762 102.395 107.843 101.887 108.006C101.379 108.169 100.891 108.361 100.422 108.582L99.6797 106.941C100.266 106.635 100.907 106.404 101.604 106.248C102.3 106.085 102.958 106.004 103.576 106.004C104.95 106.004 105.985 106.303 106.682 106.902C107.385 107.501 107.736 108.442 107.736 109.725V117H106.096ZM102.678 115.438C103.511 115.438 104.178 115.206 104.68 114.744C105.188 114.275 105.441 113.621 105.441 112.781V111.844L104.055 111.902C102.974 111.941 102.186 112.124 101.691 112.449C101.203 112.768 100.959 113.26 100.959 113.924C100.959 114.406 101.102 114.78 101.389 115.047C101.675 115.307 102.105 115.438 102.678 115.438ZM116.418 117.195C115.051 117.195 113.99 116.704 113.234 115.721H113.098C113.189 116.632 113.234 117.186 113.234 117.381V121.805H110.939V106.199H112.795C112.847 106.401 112.954 106.883 113.117 107.645H113.234C113.951 106.551 115.025 106.004 116.457 106.004C117.805 106.004 118.853 106.492 119.602 107.469C120.357 108.445 120.734 109.816 120.734 111.58C120.734 113.344 120.35 114.721 119.582 115.711C118.82 116.701 117.766 117.195 116.418 117.195ZM115.861 107.879C114.95 107.879 114.283 108.146 113.859 108.68C113.443 109.214 113.234 110.066 113.234 111.238V111.58C113.234 112.895 113.443 113.849 113.859 114.441C114.276 115.027 114.956 115.32 115.9 115.32C116.695 115.32 117.307 114.995 117.736 114.344C118.166 113.693 118.381 112.765 118.381 111.561C118.381 110.35 118.166 109.435 117.736 108.816C117.313 108.191 116.688 107.879 115.861 107.879Z" fill="#7F8499"/>
</g>
<defs>
<filter id="filter0_d" x="0" y="0" width="200" height="200" filterUnits="userSpaceOnUse" color-interpolation-filters="sRGB">
<feFlood flood-opacity="0" result="BackgroundImageFix"/>
<feColorMatrix in="SourceAlpha" type="matrix" values="0 0 0 0 0 0 0 0 0 0 0 0 0 0 0 0 0 0 127 0"/>
<feOffset dy="4"/>
<feGaussianBlur stdDeviation="5"/>
<feColorMatrix type="matrix" values="0 0 0 0 0 0 0 0 0 0 0 0 0 0 0 0 0 0 0.06 0"/>
<feBlend mode="normal" in2="BackgroundImageFix" result="effect1_dropShadow"/>
<feBlend mode="normal" in="SourceGraphic" in2="effect1_dropShadow" result="shape"/>
</filter>
</defs>
</svg>
