<svg width="210" height="210" viewBox="0 0 210 210" fill="none" xmlns="http://www.w3.org/2000/svg">
<g filter="url(#filter0_d)">
<rect x="15" y="11" width="180" height="180" rx="7.50936" fill="white"/>
<path d="M57.3359 91.123C57.3359 92.3926 56.877 93.3887 55.959 94.1113C55.041 94.834 53.7747 95.1953 52.1602 95.1953C50.5456 95.1953 49.224 94.9447 48.1953 94.4434V92.2363C48.8464 92.5423 49.5365 92.7832 50.2656 92.959C51.0013 93.1348 51.6849 93.2227 52.3164 93.2227C53.2409 93.2227 53.9212 93.0469 54.3574 92.6953C54.8001 92.3438 55.0215 91.8717 55.0215 91.2793C55.0215 90.7454 54.8197 90.293 54.416 89.9219C54.0124 89.5508 53.179 89.1113 51.916 88.6035C50.6139 88.0762 49.696 87.474 49.1621 86.7969C48.6283 86.1198 48.3613 85.306 48.3613 84.3555C48.3613 83.1641 48.7845 82.2266 49.6309 81.543C50.4772 80.8594 51.6133 80.5176 53.0391 80.5176C54.4062 80.5176 55.7669 80.8171 57.1211 81.416L56.3789 83.3203C55.1094 82.7865 53.9766 82.5195 52.9805 82.5195C52.2253 82.5195 51.6523 82.6855 51.2617 83.0176C50.8711 83.3431 50.6758 83.776 50.6758 84.3164C50.6758 84.6875 50.7539 85.0065 50.9102 85.2734C51.0664 85.5339 51.3236 85.7812 51.6816 86.0156C52.0397 86.25 52.6842 86.5592 53.6152 86.9434C54.6634 87.3796 55.4316 87.7865 55.9199 88.1641C56.4082 88.5417 56.7663 88.9681 56.9941 89.4434C57.222 89.9186 57.3359 90.4785 57.3359 91.123ZM63.8789 93.3398C64.4388 93.3398 64.9987 93.252 65.5586 93.0762V94.8047C65.3047 94.9154 64.9759 95.0065 64.5723 95.0781C64.1751 95.1562 63.7617 95.1953 63.332 95.1953C61.1576 95.1953 60.0703 94.0495 60.0703 91.7578V85.9375H58.5957V84.9219L60.1777 84.082L60.959 81.7969H62.375V84.1992H65.4512V85.9375H62.375V91.7188C62.375 92.2721 62.5117 92.6823 62.7852 92.9492C63.0651 93.2096 63.4297 93.3398 63.8789 93.3398ZM74.4844 95L74.0254 93.4961H73.9473C73.4264 94.1536 72.9023 94.6029 72.375 94.8438C71.8477 95.0781 71.1706 95.1953 70.3438 95.1953C69.2826 95.1953 68.4525 94.9089 67.8535 94.3359C67.2611 93.763 66.9648 92.9525 66.9648 91.9043C66.9648 90.791 67.3783 89.9512 68.2051 89.3848C69.0319 88.8184 70.2917 88.5091 71.9844 88.457L73.8496 88.3984V87.8223C73.8496 87.1322 73.6868 86.6178 73.3613 86.2793C73.0423 85.9342 72.5443 85.7617 71.8672 85.7617C71.3138 85.7617 70.7832 85.8431 70.2754 86.0059C69.7676 86.1686 69.2793 86.3607 68.8105 86.582L68.0684 84.9414C68.6543 84.6354 69.2956 84.4043 69.9922 84.248C70.6888 84.0853 71.3464 84.0039 71.9648 84.0039C73.3385 84.0039 74.3737 84.3034 75.0703 84.9023C75.7734 85.5013 76.125 86.4421 76.125 87.7246V95H74.4844ZM71.0664 93.4375C71.8997 93.4375 72.5671 93.2064 73.0684 92.7441C73.5762 92.2754 73.8301 91.6211 73.8301 90.7812V89.8438L72.4434 89.9023C71.3626 89.9414 70.5749 90.1237 70.0801 90.4492C69.5918 90.7682 69.3477 91.2598 69.3477 91.9238C69.3477 92.4056 69.4909 92.7799 69.7773 93.0469C70.0638 93.3073 70.4935 93.4375 71.0664 93.4375ZM81.5449 89.2969L82.8438 87.6758L86.1055 84.1992H88.752L84.4062 88.8379L89.0254 95H86.3301L82.8633 90.2637L81.6035 91.2988V95H79.3281V79.8047H81.6035V87.2168L81.4863 89.2969H81.5449ZM95.4902 95.1953C93.8105 95.1953 92.4954 94.707 91.5449 93.7305C90.6009 92.7474 90.1289 91.3965 90.1289 89.6777C90.1289 87.9134 90.5684 86.5267 91.4473 85.5176C92.3262 84.5085 93.5339 84.0039 95.0703 84.0039C96.4961 84.0039 97.6224 84.4368 98.4492 85.3027C99.276 86.1686 99.6895 87.36 99.6895 88.877V90.1172H92.4922C92.5247 91.1654 92.8079 91.9727 93.3418 92.5391C93.8757 93.099 94.6276 93.3789 95.5977 93.3789C96.2357 93.3789 96.8281 93.3203 97.375 93.2031C97.9284 93.0794 98.5208 92.8776 99.1523 92.5977V94.4629C98.5924 94.7298 98.026 94.9186 97.4531 95.0293C96.8802 95.14 96.2259 95.1953 95.4902 95.1953ZM95.0703 85.7422C94.3411 85.7422 93.7552 85.9733 93.3125 86.4355C92.8763 86.8978 92.6159 87.5716 92.5312 88.457H97.4336C97.4206 87.5651 97.2057 86.8913 96.7891 86.4355C96.3724 85.9733 95.7995 85.7422 95.0703 85.7422ZM111.799 95H109.494V88.3594C109.494 87.526 109.325 86.9043 108.986 86.4941C108.654 86.084 108.124 85.8789 107.395 85.8789C106.431 85.8789 105.721 86.1686 105.266 86.748C104.816 87.321 104.592 88.2845 104.592 89.6387V95H102.297V79.8047H104.592V83.6621C104.592 84.2806 104.553 84.9414 104.475 85.6445H104.621C104.934 85.1237 105.367 84.7201 105.92 84.4336C106.48 84.1471 107.131 84.0039 107.873 84.0039C110.49 84.0039 111.799 85.3223 111.799 87.959V95ZM124.572 89.5801C124.572 91.3444 124.12 92.7214 123.215 93.7109C122.31 94.7005 121.05 95.1953 119.436 95.1953C118.426 95.1953 117.535 94.9674 116.76 94.5117C115.985 94.056 115.389 93.4017 114.973 92.5488C114.556 91.696 114.348 90.7064 114.348 89.5801C114.348 87.8288 114.797 86.4616 115.695 85.4785C116.594 84.4954 117.86 84.0039 119.494 84.0039C121.057 84.0039 122.294 84.5085 123.205 85.5176C124.117 86.5202 124.572 87.8743 124.572 89.5801ZM116.711 89.5801C116.711 92.0736 117.632 93.3203 119.475 93.3203C121.298 93.3203 122.209 92.0736 122.209 89.5801C122.209 87.1126 121.291 85.8789 119.455 85.8789C118.492 85.8789 117.792 86.1979 117.355 86.8359C116.926 87.474 116.711 88.3887 116.711 89.5801ZM129.514 95H127.219V79.8047H129.514V95ZM136.447 95.1953C135.1 95.1953 134.048 94.707 133.293 93.7305C132.538 92.7539 132.16 91.3835 132.16 89.6191C132.16 87.8483 132.541 86.4714 133.303 85.4883C134.071 84.4987 135.132 84.0039 136.486 84.0039C137.906 84.0039 138.986 84.528 139.729 85.5762H139.846C139.735 84.8014 139.68 84.1895 139.68 83.7402V79.8047H141.984V95H140.188L139.787 93.584H139.68C138.944 94.6582 137.867 95.1953 136.447 95.1953ZM137.062 93.3398C138.007 93.3398 138.693 93.0762 139.123 92.5488C139.553 92.015 139.774 91.1523 139.787 89.9609V89.6387C139.787 88.278 139.566 87.3112 139.123 86.7383C138.68 86.1654 137.987 85.8789 137.043 85.8789C136.236 85.8789 135.614 86.2077 135.178 86.8652C134.742 87.5163 134.523 88.4473 134.523 89.6582C134.523 90.8561 134.735 91.7708 135.158 92.4023C135.581 93.0273 136.216 93.3398 137.062 93.3398ZM149.982 95.1953C148.303 95.1953 146.988 94.707 146.037 93.7305C145.093 92.7474 144.621 91.3965 144.621 89.6777C144.621 87.9134 145.061 86.5267 145.939 85.5176C146.818 84.5085 148.026 84.0039 149.562 84.0039C150.988 84.0039 152.115 84.4368 152.941 85.3027C153.768 86.1686 154.182 87.36 154.182 88.877V90.1172H146.984C147.017 91.1654 147.3 91.9727 147.834 92.5391C148.368 93.099 149.12 93.3789 150.09 93.3789C150.728 93.3789 151.32 93.3203 151.867 93.2031C152.421 93.0794 153.013 92.8776 153.645 92.5977V94.4629C153.085 94.7298 152.518 94.9186 151.945 95.0293C151.372 95.14 150.718 95.1953 149.982 95.1953ZM149.562 85.7422C148.833 85.7422 148.247 85.9733 147.805 86.4355C147.368 86.8978 147.108 87.5716 147.023 88.457H151.926C151.913 87.5651 151.698 86.8913 151.281 86.4355C150.865 85.9733 150.292 85.7422 149.562 85.7422ZM162.268 84.0039C162.73 84.0039 163.111 84.0365 163.41 84.1016L163.186 86.2402C162.86 86.1621 162.521 86.123 162.17 86.123C161.252 86.123 160.507 86.4225 159.934 87.0215C159.367 87.6204 159.084 88.3984 159.084 89.3555V95H156.789V84.1992H158.586L158.889 86.1035H159.006C159.364 85.459 159.829 84.9479 160.402 84.5703C160.982 84.1927 161.604 84.0039 162.268 84.0039ZM92.2969 122L88.1562 110.076H88.0781C88.1888 111.847 88.2441 113.507 88.2441 115.057V122H86.125V107.723H89.416L93.3809 119.08H93.4395L97.5215 107.723H100.822V122H98.5762V114.939C98.5762 114.23 98.5924 113.305 98.625 112.166C98.6641 111.027 98.6966 110.337 98.7227 110.096H98.6445L94.3574 122H92.2969ZM111.096 122L110.637 120.496H110.559C110.038 121.154 109.514 121.603 108.986 121.844C108.459 122.078 107.782 122.195 106.955 122.195C105.894 122.195 105.064 121.909 104.465 121.336C103.872 120.763 103.576 119.952 103.576 118.904C103.576 117.791 103.99 116.951 104.816 116.385C105.643 115.818 106.903 115.509 108.596 115.457L110.461 115.398V114.822C110.461 114.132 110.298 113.618 109.973 113.279C109.654 112.934 109.156 112.762 108.479 112.762C107.925 112.762 107.395 112.843 106.887 113.006C106.379 113.169 105.891 113.361 105.422 113.582L104.68 111.941C105.266 111.635 105.907 111.404 106.604 111.248C107.3 111.085 107.958 111.004 108.576 111.004C109.95 111.004 110.985 111.303 111.682 111.902C112.385 112.501 112.736 113.442 112.736 114.725V122H111.096ZM107.678 120.438C108.511 120.438 109.178 120.206 109.68 119.744C110.188 119.275 110.441 118.621 110.441 117.781V116.844L109.055 116.902C107.974 116.941 107.186 117.124 106.691 117.449C106.203 117.768 105.959 118.26 105.959 118.924C105.959 119.406 106.102 119.78 106.389 120.047C106.675 120.307 107.105 120.438 107.678 120.438ZM121.418 122.195C120.051 122.195 118.99 121.704 118.234 120.721H118.098C118.189 121.632 118.234 122.186 118.234 122.381V126.805H115.939V111.199H117.795C117.847 111.401 117.954 111.883 118.117 112.645H118.234C118.951 111.551 120.025 111.004 121.457 111.004C122.805 111.004 123.853 111.492 124.602 112.469C125.357 113.445 125.734 114.816 125.734 116.58C125.734 118.344 125.35 119.721 124.582 120.711C123.82 121.701 122.766 122.195 121.418 122.195ZM120.861 112.879C119.95 112.879 119.283 113.146 118.859 113.68C118.443 114.214 118.234 115.066 118.234 116.238V116.58C118.234 117.895 118.443 118.849 118.859 119.441C119.276 120.027 119.956 120.32 120.9 120.32C121.695 120.32 122.307 119.995 122.736 119.344C123.166 118.693 123.381 117.765 123.381 116.561C123.381 115.35 123.166 114.435 122.736 113.816C122.313 113.191 121.688 112.879 120.861 112.879Z" fill="#7F8499"/>
</g>
<defs>
<filter id="filter0_d" x="0" y="0" width="210" height="210" filterUnits="userSpaceOnUse" color-interpolation-filters="sRGB">
<feFlood flood-opacity="0" result="BackgroundImageFix"/>
<feColorMatrix in="SourceAlpha" type="matrix" values="0 0 0 0 0 0 0 0 0 0 0 0 0 0 0 0 0 0 127 0"/>
<feOffset dy="4"/>
<feGaussianBlur stdDeviation="7.5"/>
<feColorMatrix type="matrix" values="0 0 0 0 0 0 0 0 0 0 0 0 0 0 0 0 0 0 0.15 0"/>
<feBlend mode="normal" in2="BackgroundImageFix" result="effect1_dropShadow"/>
<feBlend mode="normal" in="SourceGraphic" in2="effect1_dropShadow" result="shape"/>
</filter>
</defs>
</svg>
