<svg width="200" height="200" viewBox="0 0 200 200" fill="none" xmlns="http://www.w3.org/2000/svg">
<g filter="url(#filter0_d)">
<rect x="10" y="6" width="180" height="180" rx="7.50936" fill="white"/>
<path d="M111.5 80H88.2734V75.8281L97.1094 66.9453C99.7188 64.2734 101.445 62.3828 102.289 61.2734C103.148 60.1484 103.773 59.0938 104.164 58.1094C104.555 57.125 104.75 56.0703 104.75 54.9453C104.75 53.3984 104.281 52.1797 103.344 51.2891C102.422 50.3984 101.141 49.9531 99.5 49.9531C98.1875 49.9531 96.9141 50.1953 95.6797 50.6797C94.4609 51.1641 93.0469 52.0391 91.4375 53.3047L88.4609 49.6719C90.3672 48.0625 92.2188 46.9219 94.0156 46.25C95.8125 45.5781 97.7266 45.2422 99.7578 45.2422C102.945 45.2422 105.5 46.0781 107.422 47.75C109.344 49.4062 110.305 51.6406 110.305 54.4531C110.305 56 110.023 57.4688 109.461 58.8594C108.914 60.25 108.062 61.6875 106.906 63.1719C105.766 64.6406 103.859 66.6328 101.188 69.1484L95.2344 74.9141V75.1484H111.5V80Z" fill="#7F8499"/>
<path d="M68.7783 124.302C67.3662 124.302 66.25 124.773 65.4297 125.717C64.6152 126.654 64.208 127.94 64.208 129.575C64.208 131.257 64.6006 132.558 65.3857 133.478C66.1768 134.392 67.3018 134.849 68.7607 134.849C69.6572 134.849 70.6797 134.688 71.8281 134.365V135.675C70.9375 136.009 69.8389 136.176 68.5322 136.176C66.6396 136.176 65.1777 135.602 64.1465 134.453C63.1211 133.305 62.6084 131.673 62.6084 129.558C62.6084 128.233 62.8545 127.073 63.3467 126.077C63.8447 125.081 64.5596 124.313 65.4912 123.774C66.4287 123.235 67.5303 122.966 68.7959 122.966C70.1436 122.966 71.3213 123.212 72.3291 123.704L71.6963 124.987C70.7236 124.53 69.751 124.302 68.7783 124.302ZM75.8711 136H74.4121V122.324H75.8711V136ZM84.8887 136L84.5986 134.629H84.5283C84.0479 135.232 83.5674 135.643 83.0869 135.859C82.6123 136.07 82.0176 136.176 81.3027 136.176C80.3477 136.176 79.5977 135.93 79.0527 135.438C78.5137 134.945 78.2441 134.245 78.2441 133.337C78.2441 131.392 79.7998 130.372 82.9111 130.278L84.5459 130.226V129.628C84.5459 128.872 84.3818 128.315 84.0537 127.958C83.7314 127.595 83.2129 127.413 82.498 127.413C81.6953 127.413 80.7871 127.659 79.7734 128.151L79.3252 127.035C79.7998 126.777 80.3184 126.575 80.8809 126.429C81.4492 126.282 82.0176 126.209 82.5859 126.209C83.7344 126.209 84.584 126.464 85.1348 126.974C85.6914 127.483 85.9697 128.301 85.9697 129.426V136H84.8887ZM81.5928 134.972C82.501 134.972 83.2129 134.723 83.7285 134.225C84.25 133.727 84.5107 133.029 84.5107 132.133V131.263L83.0518 131.324C81.8916 131.365 81.0537 131.547 80.5381 131.869C80.0283 132.186 79.7734 132.681 79.7734 133.354C79.7734 133.882 79.9316 134.283 80.248 134.559C80.5703 134.834 81.0186 134.972 81.5928 134.972ZM95.1982 133.372C95.1982 134.269 94.8643 134.96 94.1963 135.446C93.5283 135.933 92.5908 136.176 91.3838 136.176C90.1064 136.176 89.1104 135.974 88.3955 135.569V134.216C88.8584 134.45 89.3535 134.635 89.8809 134.77C90.4141 134.904 90.9268 134.972 91.4189 134.972C92.1807 134.972 92.7666 134.852 93.1768 134.611C93.5869 134.365 93.792 133.993 93.792 133.495C93.792 133.12 93.6279 132.801 93.2998 132.537C92.9775 132.268 92.3447 131.951 91.4014 131.588C90.5049 131.254 89.8662 130.964 89.4854 130.718C89.1104 130.466 88.8291 130.182 88.6416 129.865C88.46 129.549 88.3691 129.171 88.3691 128.731C88.3691 127.946 88.6885 127.328 89.3271 126.877C89.9658 126.42 90.8418 126.191 91.9551 126.191C92.9922 126.191 94.0059 126.402 94.9961 126.824L94.4775 128.011C93.5107 127.612 92.6348 127.413 91.8496 127.413C91.1582 127.413 90.6367 127.521 90.2852 127.738C89.9336 127.955 89.7578 128.254 89.7578 128.635C89.7578 128.893 89.8223 129.112 89.9512 129.294C90.0859 129.476 90.2998 129.648 90.5928 129.812C90.8857 129.977 91.4482 130.214 92.2803 130.524C93.4229 130.94 94.1934 131.359 94.5918 131.781C94.9961 132.203 95.1982 132.733 95.1982 133.372ZM103.794 133.372C103.794 134.269 103.46 134.96 102.792 135.446C102.124 135.933 101.187 136.176 99.9795 136.176C98.7021 136.176 97.7061 135.974 96.9912 135.569V134.216C97.4541 134.45 97.9492 134.635 98.4766 134.77C99.0098 134.904 99.5225 134.972 100.015 134.972C100.776 134.972 101.362 134.852 101.772 134.611C102.183 134.365 102.388 133.993 102.388 133.495C102.388 133.12 102.224 132.801 101.896 132.537C101.573 132.268 100.94 131.951 99.9971 131.588C99.1006 131.254 98.4619 130.964 98.0811 130.718C97.7061 130.466 97.4248 130.182 97.2373 129.865C97.0557 129.549 96.9648 129.171 96.9648 128.731C96.9648 127.946 97.2842 127.328 97.9229 126.877C98.5615 126.42 99.4375 126.191 100.551 126.191C101.588 126.191 102.602 126.402 103.592 126.824L103.073 128.011C102.106 127.612 101.23 127.413 100.445 127.413C99.7539 127.413 99.2324 127.521 98.8809 127.738C98.5293 127.955 98.3535 128.254 98.3535 128.635C98.3535 128.893 98.418 129.112 98.5469 129.294C98.6816 129.476 98.8955 129.648 99.1885 129.812C99.4814 129.977 100.044 130.214 100.876 130.524C102.019 130.94 102.789 131.359 103.188 131.781C103.592 132.203 103.794 132.733 103.794 133.372ZM110.57 126.191C110.998 126.191 111.382 126.227 111.722 126.297L111.52 127.65C111.121 127.562 110.77 127.519 110.465 127.519C109.686 127.519 109.018 127.835 108.461 128.468C107.91 129.101 107.635 129.889 107.635 130.832V136H106.176V126.367H107.38L107.547 128.151H107.617C107.975 127.524 108.405 127.041 108.909 126.701C109.413 126.361 109.967 126.191 110.57 126.191ZM121.838 131.175C121.838 132.745 121.442 133.973 120.651 134.857C119.86 135.736 118.768 136.176 117.373 136.176C116.512 136.176 115.747 135.974 115.079 135.569C114.411 135.165 113.896 134.585 113.532 133.829C113.169 133.073 112.987 132.188 112.987 131.175C112.987 129.604 113.38 128.383 114.165 127.51C114.95 126.631 116.04 126.191 117.435 126.191C118.782 126.191 119.852 126.64 120.643 127.536C121.439 128.433 121.838 129.646 121.838 131.175ZM114.499 131.175C114.499 132.405 114.745 133.343 115.237 133.987C115.729 134.632 116.453 134.954 117.408 134.954C118.363 134.954 119.087 134.635 119.579 133.996C120.077 133.352 120.326 132.411 120.326 131.175C120.326 129.95 120.077 129.021 119.579 128.389C119.087 127.75 118.357 127.431 117.391 127.431C116.436 127.431 115.715 127.744 115.229 128.371C114.742 128.998 114.499 129.933 114.499 131.175ZM132.719 131.175C132.719 132.745 132.323 133.973 131.532 134.857C130.741 135.736 129.648 136.176 128.254 136.176C127.393 136.176 126.628 135.974 125.96 135.569C125.292 135.165 124.776 134.585 124.413 133.829C124.05 133.073 123.868 132.188 123.868 131.175C123.868 129.604 124.261 128.383 125.046 127.51C125.831 126.631 126.921 126.191 128.315 126.191C129.663 126.191 130.732 126.64 131.523 127.536C132.32 128.433 132.719 129.646 132.719 131.175ZM125.38 131.175C125.38 132.405 125.626 133.343 126.118 133.987C126.61 134.632 127.334 134.954 128.289 134.954C129.244 134.954 129.968 134.635 130.46 133.996C130.958 133.352 131.207 132.411 131.207 131.175C131.207 129.95 130.958 129.021 130.46 128.389C129.968 127.75 129.238 127.431 128.271 127.431C127.316 127.431 126.596 127.744 126.109 128.371C125.623 128.998 125.38 129.933 125.38 131.175ZM147.563 136V129.733C147.563 128.966 147.399 128.392 147.071 128.011C146.743 127.624 146.233 127.431 145.542 127.431C144.634 127.431 143.963 127.691 143.529 128.213C143.096 128.734 142.879 129.537 142.879 130.621V136H141.42V129.733C141.42 128.966 141.256 128.392 140.928 128.011C140.6 127.624 140.087 127.431 139.39 127.431C138.476 127.431 137.805 127.706 137.377 128.257C136.955 128.802 136.744 129.698 136.744 130.946V136H135.285V126.367H136.472L136.709 127.686H136.779C137.055 127.217 137.441 126.851 137.939 126.587C138.443 126.323 139.006 126.191 139.627 126.191C141.133 126.191 142.117 126.736 142.58 127.826H142.65C142.938 127.322 143.354 126.924 143.898 126.631C144.443 126.338 145.064 126.191 145.762 126.191C146.852 126.191 147.666 126.473 148.205 127.035C148.75 127.592 149.022 128.485 149.022 129.716V136H147.563ZM93.4141 148.15H95.0225L90.3906 161H88.9141L84.3086 148.15H85.8906L88.8438 156.465C89.1836 157.42 89.4531 158.349 89.6523 159.251C89.8633 158.302 90.1387 157.355 90.4785 156.412L93.4141 148.15ZM98.0371 161H96.5781V151.367H98.0371V161ZM96.4551 148.757C96.4551 148.423 96.5371 148.18 96.7012 148.027C96.8652 147.869 97.0703 147.79 97.3164 147.79C97.5508 147.79 97.7529 147.869 97.9229 148.027C98.0928 148.186 98.1777 148.429 98.1777 148.757C98.1777 149.085 98.0928 149.331 97.9229 149.495C97.7529 149.653 97.5508 149.732 97.3164 149.732C97.0703 149.732 96.8652 149.653 96.7012 149.495C96.5371 149.331 96.4551 149.085 96.4551 148.757ZM107.345 158.372C107.345 159.269 107.011 159.96 106.343 160.446C105.675 160.933 104.737 161.176 103.53 161.176C102.253 161.176 101.257 160.974 100.542 160.569V159.216C101.005 159.45 101.5 159.635 102.027 159.77C102.561 159.904 103.073 159.972 103.565 159.972C104.327 159.972 104.913 159.852 105.323 159.611C105.733 159.365 105.938 158.993 105.938 158.495C105.938 158.12 105.774 157.801 105.446 157.537C105.124 157.268 104.491 156.951 103.548 156.588C102.651 156.254 102.013 155.964 101.632 155.718C101.257 155.466 100.976 155.182 100.788 154.865C100.606 154.549 100.516 154.171 100.516 153.731C100.516 152.946 100.835 152.328 101.474 151.877C102.112 151.42 102.988 151.191 104.102 151.191C105.139 151.191 106.152 151.402 107.143 151.824L106.624 153.011C105.657 152.612 104.781 152.413 103.996 152.413C103.305 152.413 102.783 152.521 102.432 152.738C102.08 152.955 101.904 153.254 101.904 153.635C101.904 153.893 101.969 154.112 102.098 154.294C102.232 154.476 102.446 154.648 102.739 154.812C103.032 154.977 103.595 155.214 104.427 155.524C105.569 155.94 106.34 156.359 106.738 156.781C107.143 157.203 107.345 157.733 107.345 158.372ZM111.186 161H109.727V151.367H111.186V161ZM109.604 148.757C109.604 148.423 109.686 148.18 109.85 148.027C110.014 147.869 110.219 147.79 110.465 147.79C110.699 147.79 110.901 147.869 111.071 148.027C111.241 148.186 111.326 148.429 111.326 148.757C111.326 149.085 111.241 149.331 111.071 149.495C110.901 149.653 110.699 149.732 110.465 149.732C110.219 149.732 110.014 149.653 109.85 149.495C109.686 149.331 109.604 149.085 109.604 148.757ZM117.391 159.972C117.648 159.972 117.897 159.954 118.138 159.919C118.378 159.878 118.568 159.837 118.709 159.796V160.912C118.551 160.988 118.316 161.05 118.006 161.097C117.701 161.149 117.426 161.176 117.18 161.176C115.316 161.176 114.385 160.194 114.385 158.231V152.501H113.005V151.798L114.385 151.191L115 149.135H115.844V151.367H118.639V152.501H115.844V158.17C115.844 158.75 115.981 159.195 116.257 159.506C116.532 159.816 116.91 159.972 117.391 159.972ZM126.856 158.372C126.856 159.269 126.522 159.96 125.854 160.446C125.187 160.933 124.249 161.176 123.042 161.176C121.765 161.176 120.769 160.974 120.054 160.569V159.216C120.517 159.45 121.012 159.635 121.539 159.77C122.072 159.904 122.585 159.972 123.077 159.972C123.839 159.972 124.425 159.852 124.835 159.611C125.245 159.365 125.45 158.993 125.45 158.495C125.45 158.12 125.286 157.801 124.958 157.537C124.636 157.268 124.003 156.951 123.06 156.588C122.163 156.254 121.524 155.964 121.144 155.718C120.769 155.466 120.487 155.182 120.3 154.865C120.118 154.549 120.027 154.171 120.027 153.731C120.027 152.946 120.347 152.328 120.985 151.877C121.624 151.42 122.5 151.191 123.613 151.191C124.65 151.191 125.664 151.402 126.654 151.824L126.136 153.011C125.169 152.612 124.293 152.413 123.508 152.413C122.816 152.413 122.295 152.521 121.943 152.738C121.592 152.955 121.416 153.254 121.416 153.635C121.416 153.893 121.48 154.112 121.609 154.294C121.744 154.476 121.958 154.648 122.251 154.812C122.544 154.977 123.106 155.214 123.938 155.524C125.081 155.94 125.852 156.359 126.25 156.781C126.654 157.203 126.856 157.733 126.856 158.372Z" fill="#626262"/>
</g>
<defs>
<filter id="filter0_d" x="0" y="0" width="200" height="200" filterUnits="userSpaceOnUse" color-interpolation-filters="sRGB">
<feFlood flood-opacity="0" result="BackgroundImageFix"/>
<feColorMatrix in="SourceAlpha" type="matrix" values="0 0 0 0 0 0 0 0 0 0 0 0 0 0 0 0 0 0 127 0"/>
<feOffset dy="4"/>
<feGaussianBlur stdDeviation="5"/>
<feColorMatrix type="matrix" values="0 0 0 0 0 0 0 0 0 0 0 0 0 0 0 0 0 0 0.06 0"/>
<feBlend mode="normal" in2="BackgroundImageFix" result="effect1_dropShadow"/>
<feBlend mode="normal" in="SourceGraphic" in2="effect1_dropShadow" result="shape"/>
</filter>
</defs>
</svg>
