<svg width="210" height="210" viewBox="0 0 210 210" fill="none" xmlns="http://www.w3.org/2000/svg">
<g filter="url(#filter0_d)">
<rect x="15" y="11" width="180" height="180" rx="7.50936" fill="white"/>
<path d="M116.5 85H93.2734V80.8281L102.109 71.9453C104.719 69.2734 106.445 67.3828 107.289 66.2734C108.148 65.1484 108.773 64.0938 109.164 63.1094C109.555 62.125 109.75 61.0703 109.75 59.9453C109.75 58.3984 109.281 57.1797 108.344 56.2891C107.422 55.3984 106.141 54.9531 104.5 54.9531C103.188 54.9531 101.914 55.1953 100.68 55.6797C99.4609 56.1641 98.0469 57.0391 96.4375 58.3047L93.4609 54.6719C95.3672 53.0625 97.2188 51.9219 99.0156 51.25C100.812 50.5781 102.727 50.2422 104.758 50.2422C107.945 50.2422 110.5 51.0781 112.422 52.75C114.344 54.4062 115.305 56.6406 115.305 59.4531C115.305 61 115.023 62.4688 114.461 63.8594C113.914 65.25 113.062 66.6875 111.906 68.1719C110.766 69.6406 108.859 71.6328 106.188 74.1484L100.234 79.9141V80.1484H116.5V85Z" fill="#7F8499"/>
<path d="M73.7783 129.302C72.3662 129.302 71.25 129.773 70.4297 130.717C69.6152 131.654 69.208 132.94 69.208 134.575C69.208 136.257 69.6006 137.558 70.3857 138.478C71.1768 139.392 72.3018 139.849 73.7607 139.849C74.6572 139.849 75.6797 139.688 76.8281 139.365V140.675C75.9375 141.009 74.8389 141.176 73.5322 141.176C71.6396 141.176 70.1777 140.602 69.1465 139.453C68.1211 138.305 67.6084 136.673 67.6084 134.558C67.6084 133.233 67.8545 132.073 68.3467 131.077C68.8447 130.081 69.5596 129.313 70.4912 128.774C71.4287 128.235 72.5303 127.966 73.7959 127.966C75.1436 127.966 76.3213 128.212 77.3291 128.704L76.6963 129.987C75.7236 129.53 74.751 129.302 73.7783 129.302ZM80.8711 141H79.4121V127.324H80.8711V141ZM89.8887 141L89.5986 139.629H89.5283C89.0479 140.232 88.5674 140.643 88.0869 140.859C87.6123 141.07 87.0176 141.176 86.3027 141.176C85.3477 141.176 84.5977 140.93 84.0527 140.438C83.5137 139.945 83.2441 139.245 83.2441 138.337C83.2441 136.392 84.7998 135.372 87.9111 135.278L89.5459 135.226V134.628C89.5459 133.872 89.3818 133.315 89.0537 132.958C88.7314 132.595 88.2129 132.413 87.498 132.413C86.6953 132.413 85.7871 132.659 84.7734 133.151L84.3252 132.035C84.7998 131.777 85.3184 131.575 85.8809 131.429C86.4492 131.282 87.0176 131.209 87.5859 131.209C88.7344 131.209 89.584 131.464 90.1348 131.974C90.6914 132.483 90.9697 133.301 90.9697 134.426V141H89.8887ZM86.5928 139.972C87.501 139.972 88.2129 139.723 88.7285 139.225C89.25 138.727 89.5107 138.029 89.5107 137.133V136.263L88.0518 136.324C86.8916 136.365 86.0537 136.547 85.5381 136.869C85.0283 137.186 84.7734 137.681 84.7734 138.354C84.7734 138.882 84.9316 139.283 85.248 139.559C85.5703 139.834 86.0186 139.972 86.5928 139.972ZM100.198 138.372C100.198 139.269 99.8643 139.96 99.1963 140.446C98.5283 140.933 97.5908 141.176 96.3838 141.176C95.1064 141.176 94.1104 140.974 93.3955 140.569V139.216C93.8584 139.45 94.3535 139.635 94.8809 139.77C95.4141 139.904 95.9268 139.972 96.4189 139.972C97.1807 139.972 97.7666 139.852 98.1768 139.611C98.5869 139.365 98.792 138.993 98.792 138.495C98.792 138.12 98.6279 137.801 98.2998 137.537C97.9775 137.268 97.3447 136.951 96.4014 136.588C95.5049 136.254 94.8662 135.964 94.4854 135.718C94.1104 135.466 93.8291 135.182 93.6416 134.865C93.46 134.549 93.3691 134.171 93.3691 133.731C93.3691 132.946 93.6885 132.328 94.3271 131.877C94.9658 131.42 95.8418 131.191 96.9551 131.191C97.9922 131.191 99.0059 131.402 99.9961 131.824L99.4775 133.011C98.5107 132.612 97.6348 132.413 96.8496 132.413C96.1582 132.413 95.6367 132.521 95.2852 132.738C94.9336 132.955 94.7578 133.254 94.7578 133.635C94.7578 133.893 94.8223 134.112 94.9512 134.294C95.0859 134.476 95.2998 134.648 95.5928 134.812C95.8857 134.977 96.4482 135.214 97.2803 135.524C98.4229 135.94 99.1934 136.359 99.5918 136.781C99.9961 137.203 100.198 137.733 100.198 138.372ZM108.794 138.372C108.794 139.269 108.46 139.96 107.792 140.446C107.124 140.933 106.187 141.176 104.979 141.176C103.702 141.176 102.706 140.974 101.991 140.569V139.216C102.454 139.45 102.949 139.635 103.477 139.77C104.01 139.904 104.522 139.972 105.015 139.972C105.776 139.972 106.362 139.852 106.772 139.611C107.183 139.365 107.388 138.993 107.388 138.495C107.388 138.12 107.224 137.801 106.896 137.537C106.573 137.268 105.94 136.951 104.997 136.588C104.101 136.254 103.462 135.964 103.081 135.718C102.706 135.466 102.425 135.182 102.237 134.865C102.056 134.549 101.965 134.171 101.965 133.731C101.965 132.946 102.284 132.328 102.923 131.877C103.562 131.42 104.438 131.191 105.551 131.191C106.588 131.191 107.602 131.402 108.592 131.824L108.073 133.011C107.106 132.612 106.23 132.413 105.445 132.413C104.754 132.413 104.232 132.521 103.881 132.738C103.529 132.955 103.354 133.254 103.354 133.635C103.354 133.893 103.418 134.112 103.547 134.294C103.682 134.476 103.896 134.648 104.188 134.812C104.481 134.977 105.044 135.214 105.876 135.524C107.019 135.94 107.789 136.359 108.188 136.781C108.592 137.203 108.794 137.733 108.794 138.372ZM115.57 131.191C115.998 131.191 116.382 131.227 116.722 131.297L116.52 132.65C116.121 132.562 115.77 132.519 115.465 132.519C114.686 132.519 114.018 132.835 113.461 133.468C112.91 134.101 112.635 134.889 112.635 135.832V141H111.176V131.367H112.38L112.547 133.151H112.617C112.975 132.524 113.405 132.041 113.909 131.701C114.413 131.361 114.967 131.191 115.57 131.191ZM126.838 136.175C126.838 137.745 126.442 138.973 125.651 139.857C124.86 140.736 123.768 141.176 122.373 141.176C121.512 141.176 120.747 140.974 120.079 140.569C119.411 140.165 118.896 139.585 118.532 138.829C118.169 138.073 117.987 137.188 117.987 136.175C117.987 134.604 118.38 133.383 119.165 132.51C119.95 131.631 121.04 131.191 122.435 131.191C123.782 131.191 124.852 131.64 125.643 132.536C126.439 133.433 126.838 134.646 126.838 136.175ZM119.499 136.175C119.499 137.405 119.745 138.343 120.237 138.987C120.729 139.632 121.453 139.954 122.408 139.954C123.363 139.954 124.087 139.635 124.579 138.996C125.077 138.352 125.326 137.411 125.326 136.175C125.326 134.95 125.077 134.021 124.579 133.389C124.087 132.75 123.357 132.431 122.391 132.431C121.436 132.431 120.715 132.744 120.229 133.371C119.742 133.998 119.499 134.933 119.499 136.175ZM137.719 136.175C137.719 137.745 137.323 138.973 136.532 139.857C135.741 140.736 134.648 141.176 133.254 141.176C132.393 141.176 131.628 140.974 130.96 140.569C130.292 140.165 129.776 139.585 129.413 138.829C129.05 138.073 128.868 137.188 128.868 136.175C128.868 134.604 129.261 133.383 130.046 132.51C130.831 131.631 131.921 131.191 133.315 131.191C134.663 131.191 135.732 131.64 136.523 132.536C137.32 133.433 137.719 134.646 137.719 136.175ZM130.38 136.175C130.38 137.405 130.626 138.343 131.118 138.987C131.61 139.632 132.334 139.954 133.289 139.954C134.244 139.954 134.968 139.635 135.46 138.996C135.958 138.352 136.207 137.411 136.207 136.175C136.207 134.95 135.958 134.021 135.46 133.389C134.968 132.75 134.238 132.431 133.271 132.431C132.316 132.431 131.596 132.744 131.109 133.371C130.623 133.998 130.38 134.933 130.38 136.175ZM152.563 141V134.733C152.563 133.966 152.399 133.392 152.071 133.011C151.743 132.624 151.233 132.431 150.542 132.431C149.634 132.431 148.963 132.691 148.529 133.213C148.096 133.734 147.879 134.537 147.879 135.621V141H146.42V134.733C146.42 133.966 146.256 133.392 145.928 133.011C145.6 132.624 145.087 132.431 144.39 132.431C143.476 132.431 142.805 132.706 142.377 133.257C141.955 133.802 141.744 134.698 141.744 135.946V141H140.285V131.367H141.472L141.709 132.686H141.779C142.055 132.217 142.441 131.851 142.939 131.587C143.443 131.323 144.006 131.191 144.627 131.191C146.133 131.191 147.117 131.736 147.58 132.826H147.65C147.938 132.322 148.354 131.924 148.898 131.631C149.443 131.338 150.064 131.191 150.762 131.191C151.852 131.191 152.666 131.473 153.205 132.035C153.75 132.592 154.022 133.485 154.022 134.716V141H152.563ZM98.4141 153.15H100.022L95.3906 166H93.9141L89.3086 153.15H90.8906L93.8438 161.465C94.1836 162.42 94.4531 163.349 94.6523 164.251C94.8633 163.302 95.1387 162.355 95.4785 161.412L98.4141 153.15ZM103.037 166H101.578V156.367H103.037V166ZM101.455 153.757C101.455 153.423 101.537 153.18 101.701 153.027C101.865 152.869 102.07 152.79 102.316 152.79C102.551 152.79 102.753 152.869 102.923 153.027C103.093 153.186 103.178 153.429 103.178 153.757C103.178 154.085 103.093 154.331 102.923 154.495C102.753 154.653 102.551 154.732 102.316 154.732C102.07 154.732 101.865 154.653 101.701 154.495C101.537 154.331 101.455 154.085 101.455 153.757ZM112.345 163.372C112.345 164.269 112.011 164.96 111.343 165.446C110.675 165.933 109.737 166.176 108.53 166.176C107.253 166.176 106.257 165.974 105.542 165.569V164.216C106.005 164.45 106.5 164.635 107.027 164.77C107.561 164.904 108.073 164.972 108.565 164.972C109.327 164.972 109.913 164.852 110.323 164.611C110.733 164.365 110.938 163.993 110.938 163.495C110.938 163.12 110.774 162.801 110.446 162.537C110.124 162.268 109.491 161.951 108.548 161.588C107.651 161.254 107.013 160.964 106.632 160.718C106.257 160.466 105.976 160.182 105.788 159.865C105.606 159.549 105.516 159.171 105.516 158.731C105.516 157.946 105.835 157.328 106.474 156.877C107.112 156.42 107.988 156.191 109.102 156.191C110.139 156.191 111.152 156.402 112.143 156.824L111.624 158.011C110.657 157.612 109.781 157.413 108.996 157.413C108.305 157.413 107.783 157.521 107.432 157.738C107.08 157.955 106.904 158.254 106.904 158.635C106.904 158.893 106.969 159.112 107.098 159.294C107.232 159.476 107.446 159.648 107.739 159.812C108.032 159.977 108.595 160.214 109.427 160.524C110.569 160.94 111.34 161.359 111.738 161.781C112.143 162.203 112.345 162.733 112.345 163.372ZM116.186 166H114.727V156.367H116.186V166ZM114.604 153.757C114.604 153.423 114.686 153.18 114.85 153.027C115.014 152.869 115.219 152.79 115.465 152.79C115.699 152.79 115.901 152.869 116.071 153.027C116.241 153.186 116.326 153.429 116.326 153.757C116.326 154.085 116.241 154.331 116.071 154.495C115.901 154.653 115.699 154.732 115.465 154.732C115.219 154.732 115.014 154.653 114.85 154.495C114.686 154.331 114.604 154.085 114.604 153.757ZM122.391 164.972C122.648 164.972 122.897 164.954 123.138 164.919C123.378 164.878 123.568 164.837 123.709 164.796V165.912C123.551 165.988 123.316 166.05 123.006 166.097C122.701 166.149 122.426 166.176 122.18 166.176C120.316 166.176 119.385 165.194 119.385 163.231V157.501H118.005V156.798L119.385 156.191L120 154.135H120.844V156.367H123.639V157.501H120.844V163.17C120.844 163.75 120.981 164.195 121.257 164.506C121.532 164.816 121.91 164.972 122.391 164.972ZM131.856 163.372C131.856 164.269 131.522 164.96 130.854 165.446C130.187 165.933 129.249 166.176 128.042 166.176C126.765 166.176 125.769 165.974 125.054 165.569V164.216C125.517 164.45 126.012 164.635 126.539 164.77C127.072 164.904 127.585 164.972 128.077 164.972C128.839 164.972 129.425 164.852 129.835 164.611C130.245 164.365 130.45 163.993 130.45 163.495C130.45 163.12 130.286 162.801 129.958 162.537C129.636 162.268 129.003 161.951 128.06 161.588C127.163 161.254 126.524 160.964 126.144 160.718C125.769 160.466 125.487 160.182 125.3 159.865C125.118 159.549 125.027 159.171 125.027 158.731C125.027 157.946 125.347 157.328 125.985 156.877C126.624 156.42 127.5 156.191 128.613 156.191C129.65 156.191 130.664 156.402 131.654 156.824L131.136 158.011C130.169 157.612 129.293 157.413 128.508 157.413C127.816 157.413 127.295 157.521 126.943 157.738C126.592 157.955 126.416 158.254 126.416 158.635C126.416 158.893 126.48 159.112 126.609 159.294C126.744 159.476 126.958 159.648 127.251 159.812C127.544 159.977 128.106 160.214 128.938 160.524C130.081 160.94 130.852 161.359 131.25 161.781C131.654 162.203 131.856 162.733 131.856 163.372Z" fill="#626262"/>
</g>
<defs>
<filter id="filter0_d" x="0" y="0" width="210" height="210" filterUnits="userSpaceOnUse" color-interpolation-filters="sRGB">
<feFlood flood-opacity="0" result="BackgroundImageFix"/>
<feColorMatrix in="SourceAlpha" type="matrix" values="0 0 0 0 0 0 0 0 0 0 0 0 0 0 0 0 0 0 127 0"/>
<feOffset dy="4"/>
<feGaussianBlur stdDeviation="7.5"/>
<feColorMatrix type="matrix" values="0 0 0 0 0 0 0 0 0 0 0 0 0 0 0 0 0 0 0.15 0"/>
<feBlend mode="normal" in2="BackgroundImageFix" result="effect1_dropShadow"/>
<feBlend mode="normal" in="SourceGraphic" in2="effect1_dropShadow" result="shape"/>
</filter>
</defs>
</svg>
