<svg width="200" height="200" viewBox="0 0 200 200" fill="none" xmlns="http://www.w3.org/2000/svg">
<g filter="url(#filter0_d)">
<rect x="10" y="6" width="180" height="180" rx="7.50936" fill="white"/>
<path d="M71.4727 94.0391C71.4727 95.5299 70.9844 96.6725 70.0078 97.4668C69.0312 98.2611 67.6413 98.6582 65.8379 98.6582H64.3535V104H62.0195V89.7227H66.1309C67.9147 89.7227 69.2493 90.0872 70.1348 90.8164C71.0267 91.5456 71.4727 92.6198 71.4727 94.0391ZM64.3535 96.6953H65.5938C66.7917 96.6953 67.6706 96.487 68.2305 96.0703C68.7904 95.6536 69.0703 95.0026 69.0703 94.1172C69.0703 93.2969 68.8197 92.6849 68.3184 92.2812C67.8171 91.8776 67.0358 91.6758 65.9746 91.6758H64.3535V96.6953ZM78.7969 104.195C77.1172 104.195 75.8021 103.707 74.8516 102.73C73.9076 101.747 73.4355 100.396 73.4355 98.6777C73.4355 96.9134 73.875 95.5267 74.7539 94.5176C75.6328 93.5085 76.8405 93.0039 78.377 93.0039C79.8027 93.0039 80.929 93.4368 81.7559 94.3027C82.5827 95.1686 82.9961 96.36 82.9961 97.877V99.1172H75.7988C75.8314 100.165 76.1146 100.973 76.6484 101.539C77.1823 102.099 77.9342 102.379 78.9043 102.379C79.5423 102.379 80.1348 102.32 80.6816 102.203C81.235 102.079 81.8275 101.878 82.459 101.598V103.463C81.8991 103.73 81.3327 103.919 80.7598 104.029C80.1868 104.14 79.5326 104.195 78.7969 104.195ZM78.377 94.7422C77.6478 94.7422 77.0618 94.9733 76.6191 95.4355C76.1829 95.8978 75.9225 96.5716 75.8379 97.457H80.7402C80.7272 96.5651 80.5124 95.8913 80.0957 95.4355C79.679 94.9733 79.1061 94.7422 78.377 94.7422ZM91.082 93.0039C91.5443 93.0039 91.9251 93.0365 92.2246 93.1016L92 95.2402C91.6745 95.1621 91.3359 95.123 90.9844 95.123C90.0664 95.123 89.321 95.4225 88.748 96.0215C88.1816 96.6204 87.8984 97.3984 87.8984 98.3555V104H85.6035V93.1992H87.4004L87.7031 95.1035H87.8203C88.1784 94.459 88.6439 93.9479 89.2168 93.5703C89.7962 93.1927 90.418 93.0039 91.082 93.0039ZM101.492 100.924C101.492 101.979 101.108 102.789 100.34 103.355C99.5716 103.915 98.4714 104.195 97.0391 104.195C95.6003 104.195 94.4447 103.977 93.5723 103.541V101.559C94.8418 102.145 96.0234 102.438 97.1172 102.438C98.5299 102.438 99.2363 102.011 99.2363 101.158C99.2363 100.885 99.1582 100.657 99.002 100.475C98.8457 100.292 98.5885 100.104 98.2305 99.9082C97.8724 99.7129 97.3743 99.4915 96.7363 99.2441C95.4928 98.7624 94.6497 98.2806 94.207 97.7988C93.7708 97.3171 93.5527 96.6921 93.5527 95.9238C93.5527 94.9993 93.9238 94.2832 94.666 93.7754C95.4147 93.2611 96.4303 93.0039 97.7129 93.0039C98.9824 93.0039 100.184 93.2611 101.316 93.7754L100.574 95.5039C99.4089 95.0221 98.429 94.7812 97.6348 94.7812C96.4238 94.7812 95.8184 95.1263 95.8184 95.8164C95.8184 96.1549 95.9746 96.4414 96.2871 96.6758C96.6061 96.9102 97.2962 97.2324 98.3574 97.6426C99.2493 97.9876 99.8971 98.3034 100.301 98.5898C100.704 98.8763 101.004 99.2083 101.199 99.5859C101.395 99.957 101.492 100.403 101.492 100.924ZM113.562 98.5801C113.562 100.344 113.11 101.721 112.205 102.711C111.3 103.701 110.04 104.195 108.426 104.195C107.417 104.195 106.525 103.967 105.75 103.512C104.975 103.056 104.38 102.402 103.963 101.549C103.546 100.696 103.338 99.7064 103.338 98.5801C103.338 96.8288 103.787 95.4616 104.686 94.4785C105.584 93.4954 106.85 93.0039 108.484 93.0039C110.047 93.0039 111.284 93.5085 112.195 94.5176C113.107 95.5202 113.562 96.8743 113.562 98.5801ZM105.701 98.5801C105.701 101.074 106.622 102.32 108.465 102.32C110.288 102.32 111.199 101.074 111.199 98.5801C111.199 96.1126 110.281 94.8789 108.445 94.8789C107.482 94.8789 106.782 95.1979 106.346 95.8359C105.916 96.474 105.701 97.3887 105.701 98.5801ZM125.711 104H123.406V97.3594C123.406 96.526 123.237 95.9043 122.898 95.4941C122.566 95.084 122.036 94.8789 121.307 94.8789C120.337 94.8789 119.627 95.1654 119.178 95.7383C118.729 96.3112 118.504 97.2715 118.504 98.6191V104H116.209V93.1992H118.006L118.328 94.6152H118.445C118.771 94.1009 119.233 93.7038 119.832 93.4238C120.431 93.1439 121.095 93.0039 121.824 93.0039C124.415 93.0039 125.711 94.3223 125.711 96.959V104ZM135.662 104L135.203 102.496H135.125C134.604 103.154 134.08 103.603 133.553 103.844C133.025 104.078 132.348 104.195 131.521 104.195C130.46 104.195 129.63 103.909 129.031 103.336C128.439 102.763 128.143 101.952 128.143 100.904C128.143 99.791 128.556 98.9512 129.383 98.3848C130.21 97.8184 131.469 97.5091 133.162 97.457L135.027 97.3984V96.8223C135.027 96.1322 134.865 95.6178 134.539 95.2793C134.22 94.9342 133.722 94.7617 133.045 94.7617C132.492 94.7617 131.961 94.8431 131.453 95.0059C130.945 95.1686 130.457 95.3607 129.988 95.582L129.246 93.9414C129.832 93.6354 130.473 93.4043 131.17 93.248C131.867 93.0853 132.524 93.0039 133.143 93.0039C134.516 93.0039 135.551 93.3034 136.248 93.9023C136.951 94.5013 137.303 95.4421 137.303 96.7246V104H135.662ZM132.244 102.438C133.077 102.438 133.745 102.206 134.246 101.744C134.754 101.275 135.008 100.621 135.008 99.7812V98.8438L133.621 98.9023C132.54 98.9414 131.753 99.1237 131.258 99.4492C130.77 99.7682 130.525 100.26 130.525 100.924C130.525 101.406 130.669 101.78 130.955 102.047C131.242 102.307 131.671 102.438 132.244 102.438Z" fill="#7F8499"/>
</g>
<defs>
<filter id="filter0_d" x="0" y="0" width="200" height="200" filterUnits="userSpaceOnUse" color-interpolation-filters="sRGB">
<feFlood flood-opacity="0" result="BackgroundImageFix"/>
<feColorMatrix in="SourceAlpha" type="matrix" values="0 0 0 0 0 0 0 0 0 0 0 0 0 0 0 0 0 0 127 0"/>
<feOffset dy="4"/>
<feGaussianBlur stdDeviation="5"/>
<feColorMatrix type="matrix" values="0 0 0 0 0 0 0 0 0 0 0 0 0 0 0 0 0 0 0.06 0"/>
<feBlend mode="normal" in2="BackgroundImageFix" result="effect1_dropShadow"/>
<feBlend mode="normal" in="SourceGraphic" in2="effect1_dropShadow" result="shape"/>
</filter>
</defs>
</svg>
