<svg width="200" height="200" viewBox="0 0 200 200" fill="none" xmlns="http://www.w3.org/2000/svg">
<g filter="url(#filter0_d)">
<rect x="10" y="6" width="180" height="180" rx="7.50936" fill="white"/>
<path d="M71.7617 89L70.0508 84.2422H63.5L61.8242 89H58.8711L65.2812 71.7969H68.3281L74.7383 89H71.7617ZM69.3125 81.8281L67.707 77.1641C67.5898 76.8516 67.4258 76.3594 67.2148 75.6875C67.0117 75.0156 66.8711 74.5234 66.793 74.2109C66.582 75.1719 66.2734 76.2227 65.8672 77.3633L64.3203 81.8281H69.3125ZM83.2109 78.125H80.0469V89H77.2812V78.125H75.1484V76.8359L77.2812 75.9922V75.1484C77.2812 73.6172 77.6406 72.4844 78.3594 71.75C79.0781 71.0078 80.1758 70.6367 81.6523 70.6367C82.6211 70.6367 83.5742 70.7969 84.5117 71.1172L83.7852 73.2031C83.1055 72.9844 82.457 72.875 81.8398 72.875C81.2148 72.875 80.7578 73.0703 80.4688 73.4609C80.1875 73.8438 80.0469 74.4219 80.0469 75.1953V76.0391H83.2109V78.125ZM91.9297 78.125H88.7656V89H86V78.125H83.8672V76.8359L86 75.9922V75.1484C86 73.6172 86.3594 72.4844 87.0781 71.75C87.7969 71.0078 88.8945 70.6367 90.3711 70.6367C91.3398 70.6367 92.293 70.7969 93.2305 71.1172L92.5039 73.2031C91.8242 72.9844 91.1758 72.875 90.5586 72.875C89.9336 72.875 89.4766 73.0703 89.1875 73.4609C88.9062 73.8438 88.7656 74.4219 88.7656 75.1953V76.0391H91.9297V78.125ZM96.8984 89H94.1445V76.0391H96.8984V89ZM93.9805 72.6055C93.9805 72.1133 94.1133 71.7344 94.3789 71.4688C94.6523 71.2031 95.0391 71.0703 95.5391 71.0703C96.0234 71.0703 96.3984 71.2031 96.6641 71.4688C96.9375 71.7344 97.0742 72.1133 97.0742 72.6055C97.0742 73.0742 96.9375 73.4453 96.6641 73.7188C96.3984 73.9844 96.0234 74.1172 95.5391 74.1172C95.0391 74.1172 94.6523 73.9844 94.3789 73.7188C94.1133 73.4453 93.9805 73.0742 93.9805 72.6055ZM112.25 89H109.484V81.0312C109.484 80.0312 109.281 79.2852 108.875 78.793C108.477 78.3008 107.84 78.0547 106.965 78.0547C105.801 78.0547 104.949 78.3984 104.41 79.0859C103.871 79.7734 103.602 80.9258 103.602 82.543V89H100.848V76.0391H103.004L103.391 77.7383H103.531C103.922 77.1211 104.477 76.6445 105.195 76.3086C105.914 75.9727 106.711 75.8047 107.586 75.8047C110.695 75.8047 112.25 77.3867 112.25 80.5508V89ZM118.836 89H116.082V76.0391H118.836V89ZM115.918 72.6055C115.918 72.1133 116.051 71.7344 116.316 71.4688C116.59 71.2031 116.977 71.0703 117.477 71.0703C117.961 71.0703 118.336 71.2031 118.602 71.4688C118.875 71.7344 119.012 72.1133 119.012 72.6055C119.012 73.0742 118.875 73.4453 118.602 73.7188C118.336 73.9844 117.961 74.1172 117.477 74.1172C116.977 74.1172 116.59 73.9844 116.316 73.7188C116.051 73.4453 115.918 73.0742 115.918 72.6055ZM127.613 87.0078C128.285 87.0078 128.957 86.9023 129.629 86.6914V88.7656C129.324 88.8984 128.93 89.0078 128.445 89.0938C127.969 89.1875 127.473 89.2344 126.957 89.2344C124.348 89.2344 123.043 87.8594 123.043 85.1094V78.125H121.273V76.9062L123.172 75.8984L124.109 73.1562H125.809V76.0391H129.5V78.125H125.809V85.0625C125.809 85.7266 125.973 86.2188 126.301 86.5391C126.637 86.8516 127.074 87.0078 127.613 87.0078ZM130.262 76.0391H133.262L135.898 83.3867C136.297 84.4336 136.562 85.418 136.695 86.3398H136.789C136.859 85.9102 136.988 85.3906 137.176 84.7812C137.363 84.1641 138.355 81.25 140.152 76.0391H143.129L137.586 90.7227C136.578 93.418 134.898 94.7656 132.547 94.7656C131.938 94.7656 131.344 94.6992 130.766 94.5664V92.3867C131.18 92.4805 131.652 92.5273 132.184 92.5273C133.512 92.5273 134.445 91.7578 134.984 90.2188L135.465 89L130.262 76.0391ZM67.7773 113.27C67.7773 116.098 66.9922 118.262 65.4219 119.762C63.8516 121.254 61.5898 122 58.6367 122H53.8438V104.867H59.1406C61.8672 104.867 63.9883 105.602 65.5039 107.07C67.0195 108.539 67.7773 110.605 67.7773 113.27ZM64.8242 113.363C64.8242 109.262 62.9062 107.211 59.0703 107.211H56.6445V119.645H58.6367C62.7617 119.645 64.8242 117.551 64.8242 113.363ZM73.9297 122H71.1758V109.039H73.9297V122ZM71.0117 105.605C71.0117 105.113 71.1445 104.734 71.4102 104.469C71.6836 104.203 72.0703 104.07 72.5703 104.07C73.0547 104.07 73.4297 104.203 73.6953 104.469C73.9688 104.734 74.1055 105.113 74.1055 105.605C74.1055 106.074 73.9688 106.445 73.6953 106.719C73.4297 106.984 73.0547 107.117 72.5703 107.117C72.0703 107.117 71.6836 106.984 71.4102 106.719C71.1445 106.445 71.0117 106.074 71.0117 105.605ZM85.9883 122L85.4375 120.195H85.3438C84.7188 120.984 84.0898 121.523 83.457 121.812C82.8242 122.094 82.0117 122.234 81.0195 122.234C79.7461 122.234 78.75 121.891 78.0312 121.203C77.3203 120.516 76.9648 119.543 76.9648 118.285C76.9648 116.949 77.4609 115.941 78.4531 115.262C79.4453 114.582 80.957 114.211 82.9883 114.148L85.2266 114.078V113.387C85.2266 112.559 85.0312 111.941 84.6406 111.535C84.2578 111.121 83.6602 110.914 82.8477 110.914C82.1836 110.914 81.5469 111.012 80.9375 111.207C80.3281 111.402 79.7422 111.633 79.1797 111.898L78.2891 109.93C78.9922 109.562 79.7617 109.285 80.5977 109.098C81.4336 108.902 82.2227 108.805 82.9648 108.805C84.6133 108.805 85.8555 109.164 86.6914 109.883C87.5352 110.602 87.957 111.73 87.957 113.27V122H85.9883ZM81.8867 120.125C82.8867 120.125 83.6875 119.848 84.2891 119.293C84.8984 118.73 85.2031 117.945 85.2031 116.938V115.812L83.5391 115.883C82.2422 115.93 81.2969 116.148 80.7031 116.539C80.1172 116.922 79.8242 117.512 79.8242 118.309C79.8242 118.887 79.9961 119.336 80.3398 119.656C80.6836 119.969 81.1992 120.125 81.8867 120.125ZM102.746 109.039V110.551L100.531 110.961C100.734 111.234 100.902 111.57 101.035 111.969C101.168 112.367 101.234 112.789 101.234 113.234C101.234 114.57 100.773 115.621 99.8516 116.387C98.9297 117.152 97.6602 117.535 96.043 117.535C95.6289 117.535 95.2539 117.504 94.918 117.441C94.3242 117.809 94.0273 118.238 94.0273 118.73C94.0273 119.027 94.1641 119.25 94.4375 119.398C94.7188 119.547 95.2305 119.621 95.9727 119.621H98.2344C99.6641 119.621 100.75 119.926 101.492 120.535C102.234 121.145 102.605 122.023 102.605 123.172C102.605 124.641 102 125.773 100.789 126.57C99.5781 127.367 97.8281 127.766 95.5391 127.766C93.7734 127.766 92.4258 127.453 91.4961 126.828C90.5664 126.203 90.1016 125.312 90.1016 124.156C90.1016 123.359 90.3516 122.688 90.8516 122.141C91.3594 121.602 92.0664 121.227 92.9727 121.016C92.6055 120.859 92.3008 120.609 92.0586 120.266C91.8242 119.914 91.707 119.547 91.707 119.164C91.707 118.68 91.8438 118.27 92.1172 117.934C92.3906 117.598 92.7969 117.266 93.3359 116.938C92.6641 116.648 92.1172 116.18 91.6953 115.531C91.2812 114.875 91.0742 114.109 91.0742 113.234C91.0742 111.828 91.5156 110.738 92.3984 109.965C93.2891 109.191 94.5547 108.805 96.1953 108.805C96.5625 108.805 96.9453 108.832 97.3438 108.887C97.75 108.934 98.0547 108.984 98.2578 109.039H102.746ZM92.5625 124.016C92.5625 124.609 92.8281 125.066 93.3594 125.387C93.8984 125.707 94.6523 125.867 95.6211 125.867C97.1211 125.867 98.2383 125.652 98.9727 125.223C99.707 124.793 100.074 124.223 100.074 123.512C100.074 122.949 99.8711 122.547 99.4648 122.305C99.0664 122.07 98.3203 121.953 97.2266 121.953H95.1406C94.3516 121.953 93.7227 122.137 93.2539 122.504C92.793 122.879 92.5625 123.383 92.5625 124.016ZM93.7461 113.234C93.7461 114.047 93.9531 114.672 94.3672 115.109C94.7891 115.547 95.3906 115.766 96.1719 115.766C97.7656 115.766 98.5625 114.914 98.5625 113.211C98.5625 112.367 98.3633 111.719 97.9648 111.266C97.5742 110.805 96.9766 110.574 96.1719 110.574C95.375 110.574 94.7695 110.801 94.3555 111.254C93.9492 111.707 93.7461 112.367 93.7461 113.234ZM111.734 108.805C112.289 108.805 112.746 108.844 113.105 108.922L112.836 111.488C112.445 111.395 112.039 111.348 111.617 111.348C110.516 111.348 109.621 111.707 108.934 112.426C108.254 113.145 107.914 114.078 107.914 115.227V122H105.16V109.039H107.316L107.68 111.324H107.82C108.25 110.551 108.809 109.938 109.496 109.484C110.191 109.031 110.938 108.805 111.734 108.805ZM123.629 122L123.078 120.195H122.984C122.359 120.984 121.73 121.523 121.098 121.812C120.465 122.094 119.652 122.234 118.66 122.234C117.387 122.234 116.391 121.891 115.672 121.203C114.961 120.516 114.605 119.543 114.605 118.285C114.605 116.949 115.102 115.941 116.094 115.262C117.086 114.582 118.598 114.211 120.629 114.148L122.867 114.078V113.387C122.867 112.559 122.672 111.941 122.281 111.535C121.898 111.121 121.301 110.914 120.488 110.914C119.824 110.914 119.188 111.012 118.578 111.207C117.969 111.402 117.383 111.633 116.82 111.898L115.93 109.93C116.633 109.562 117.402 109.285 118.238 109.098C119.074 108.902 119.863 108.805 120.605 108.805C122.254 108.805 123.496 109.164 124.332 109.883C125.176 110.602 125.598 111.73 125.598 113.27V122H123.629ZM119.527 120.125C120.527 120.125 121.328 119.848 121.93 119.293C122.539 118.73 122.844 117.945 122.844 116.938V115.812L121.18 115.883C119.883 115.93 118.938 116.148 118.344 116.539C117.758 116.922 117.465 117.512 117.465 118.309C117.465 118.887 117.637 119.336 117.98 119.656C118.324 119.969 118.84 120.125 119.527 120.125ZM140.363 122H137.598V114.008C137.598 113.016 137.41 112.277 137.035 111.793C136.66 111.301 136.074 111.055 135.277 111.055C134.215 111.055 133.434 111.402 132.934 112.098C132.441 112.785 132.195 113.934 132.195 115.543V122H129.441V109.039H131.598L131.984 110.738H132.125C132.484 110.121 133.004 109.645 133.684 109.309C134.371 108.973 135.125 108.805 135.945 108.805C137.938 108.805 139.258 109.484 139.906 110.844H140.094C140.477 110.203 141.016 109.703 141.711 109.344C142.406 108.984 143.203 108.805 144.102 108.805C145.648 108.805 146.773 109.195 147.477 109.977C148.188 110.758 148.543 111.949 148.543 113.551V122H145.789V114.008C145.789 113.016 145.598 112.277 145.215 111.793C144.84 111.301 144.254 111.055 143.457 111.055C142.387 111.055 141.602 111.391 141.102 112.062C140.609 112.727 140.363 113.75 140.363 115.133V122Z" fill="#7F8499"/>
</g>
<defs>
<filter id="filter0_d" x="0" y="0" width="200" height="200" filterUnits="userSpaceOnUse" color-interpolation-filters="sRGB">
<feFlood flood-opacity="0" result="BackgroundImageFix"/>
<feColorMatrix in="SourceAlpha" type="matrix" values="0 0 0 0 0 0 0 0 0 0 0 0 0 0 0 0 0 0 127 0"/>
<feOffset dy="4"/>
<feGaussianBlur stdDeviation="5"/>
<feColorMatrix type="matrix" values="0 0 0 0 0 0 0 0 0 0 0 0 0 0 0 0 0 0 0.06 0"/>
<feBlend mode="normal" in2="BackgroundImageFix" result="effect1_dropShadow"/>
<feBlend mode="normal" in="SourceGraphic" in2="effect1_dropShadow" result="shape"/>
</filter>
</defs>
</svg>
