<svg width="200" height="200" viewBox="0 0 200 200" fill="none" xmlns="http://www.w3.org/2000/svg">
<g filter="url(#filter0_d)">
<rect x="10" y="6" width="180" height="180" rx="7.50936" fill="white"/>
<path d="M76.6348 91L75.209 87.0352H69.75L68.3535 91H65.8926L71.2344 76.6641H73.7734L79.1152 91H76.6348ZM74.5938 85.0234L73.2559 81.1367C73.1582 80.8763 73.0215 80.4661 72.8457 79.9062C72.6764 79.3464 72.5592 78.9362 72.4941 78.6758C72.3184 79.4766 72.0612 80.3522 71.7227 81.3027L70.4336 85.0234H74.5938ZM86.1758 81.9375H83.5391V91H81.2344V81.9375H79.457V80.8633L81.2344 80.1602V79.457C81.2344 78.181 81.5339 77.237 82.1328 76.625C82.7318 76.0065 83.6465 75.6973 84.877 75.6973C85.6842 75.6973 86.4785 75.8307 87.2598 76.0977L86.6543 77.8359C86.0879 77.6536 85.5475 77.5625 85.0332 77.5625C84.5124 77.5625 84.1315 77.7253 83.8906 78.0508C83.6562 78.3698 83.5391 78.8516 83.5391 79.4961V80.1992H86.1758V81.9375ZM93.4414 81.9375H90.8047V91H88.5V81.9375H86.7227V80.8633L88.5 80.1602V79.457C88.5 78.181 88.7995 77.237 89.3984 76.625C89.9974 76.0065 90.9121 75.6973 92.1426 75.6973C92.9499 75.6973 93.7441 75.8307 94.5254 76.0977L93.9199 77.8359C93.3535 77.6536 92.8132 77.5625 92.2988 77.5625C91.778 77.5625 91.3971 77.7253 91.1562 78.0508C90.9219 78.3698 90.8047 78.8516 90.8047 79.4961V80.1992H93.4414V81.9375ZM97.582 91H95.2871V80.1992H97.582V91ZM95.1504 77.3379C95.1504 76.9277 95.2611 76.612 95.4824 76.3906C95.7103 76.1693 96.0326 76.0586 96.4492 76.0586C96.8529 76.0586 97.1654 76.1693 97.3867 76.3906C97.6146 76.612 97.7285 76.9277 97.7285 77.3379C97.7285 77.7285 97.6146 78.0378 97.3867 78.2656C97.1654 78.487 96.8529 78.5977 96.4492 78.5977C96.0326 78.5977 95.7103 78.487 95.4824 78.2656C95.2611 78.0378 95.1504 77.7285 95.1504 77.3379ZM110.375 91H108.07V84.3594C108.07 83.526 107.901 82.9043 107.562 82.4941C107.23 82.084 106.7 81.8789 105.971 81.8789C105.001 81.8789 104.291 82.1654 103.842 82.7383C103.393 83.3112 103.168 84.2715 103.168 85.6191V91H100.873V80.1992H102.67L102.992 81.6152H103.109C103.435 81.1009 103.897 80.7038 104.496 80.4238C105.095 80.1439 105.759 80.0039 106.488 80.0039C109.079 80.0039 110.375 81.3223 110.375 83.959V91ZM115.863 91H113.568V80.1992H115.863V91ZM113.432 77.3379C113.432 76.9277 113.542 76.612 113.764 76.3906C113.992 76.1693 114.314 76.0586 114.73 76.0586C115.134 76.0586 115.447 76.1693 115.668 76.3906C115.896 76.612 116.01 76.9277 116.01 77.3379C116.01 77.7285 115.896 78.0378 115.668 78.2656C115.447 78.487 115.134 78.5977 114.73 78.5977C114.314 78.5977 113.992 78.487 113.764 78.2656C113.542 78.0378 113.432 77.7285 113.432 77.3379ZM123.178 89.3398C123.738 89.3398 124.298 89.252 124.857 89.0762V90.8047C124.604 90.9154 124.275 91.0065 123.871 91.0781C123.474 91.1562 123.061 91.1953 122.631 91.1953C120.456 91.1953 119.369 90.0495 119.369 87.7578V81.9375H117.895V80.9219L119.477 80.082L120.258 77.7969H121.674V80.1992H124.75V81.9375H121.674V87.7188C121.674 88.2721 121.811 88.6823 122.084 88.9492C122.364 89.2096 122.729 89.3398 123.178 89.3398ZM125.385 80.1992H127.885L130.082 86.3223C130.414 87.1947 130.635 88.015 130.746 88.7832H130.824C130.883 88.4251 130.99 87.9922 131.146 87.4844C131.303 86.9701 132.13 84.5417 133.627 80.1992H136.107L131.488 92.4355C130.648 94.6816 129.249 95.8047 127.289 95.8047C126.781 95.8047 126.286 95.7493 125.805 95.6387V93.8223C126.15 93.9004 126.544 93.9395 126.986 93.9395C128.093 93.9395 128.871 93.2982 129.32 92.0156L129.721 91L125.385 80.1992ZM73.3145 110.725C73.3145 113.081 72.6602 114.885 71.3516 116.135C70.043 117.378 68.1582 118 65.6973 118H61.7031V103.723H66.1172C68.3893 103.723 70.1569 104.335 71.4199 105.559C72.6829 106.783 73.3145 108.505 73.3145 110.725ZM70.8535 110.803C70.8535 107.385 69.2552 105.676 66.0586 105.676H64.0371V116.037H65.6973C69.1348 116.037 70.8535 114.292 70.8535 110.803ZM78.4414 118H76.1465V107.199H78.4414V118ZM76.0098 104.338C76.0098 103.928 76.1204 103.612 76.3418 103.391C76.5697 103.169 76.8919 103.059 77.3086 103.059C77.7122 103.059 78.0247 103.169 78.2461 103.391C78.474 103.612 78.5879 103.928 78.5879 104.338C78.5879 104.729 78.474 105.038 78.2461 105.266C78.0247 105.487 77.7122 105.598 77.3086 105.598C76.8919 105.598 76.5697 105.487 76.3418 105.266C76.1204 105.038 76.0098 104.729 76.0098 104.338ZM88.4902 118L88.0312 116.496H87.9531C87.4323 117.154 86.9082 117.603 86.3809 117.844C85.8535 118.078 85.1764 118.195 84.3496 118.195C83.2884 118.195 82.4583 117.909 81.8594 117.336C81.2669 116.763 80.9707 115.952 80.9707 114.904C80.9707 113.791 81.3841 112.951 82.2109 112.385C83.0378 111.818 84.2975 111.509 85.9902 111.457L87.8555 111.398V110.822C87.8555 110.132 87.6927 109.618 87.3672 109.279C87.0482 108.934 86.5501 108.762 85.873 108.762C85.3197 108.762 84.7891 108.843 84.2812 109.006C83.7734 109.169 83.2852 109.361 82.8164 109.582L82.0742 107.941C82.6602 107.635 83.3014 107.404 83.998 107.248C84.6947 107.085 85.3522 107.004 85.9707 107.004C87.3444 107.004 88.3796 107.303 89.0762 107.902C89.7793 108.501 90.1309 109.442 90.1309 110.725V118H88.4902ZM85.0723 116.438C85.9056 116.438 86.5729 116.206 87.0742 115.744C87.582 115.275 87.8359 114.621 87.8359 113.781V112.844L86.4492 112.902C85.3685 112.941 84.5807 113.124 84.0859 113.449C83.5977 113.768 83.3535 114.26 83.3535 114.924C83.3535 115.406 83.4967 115.78 83.7832 116.047C84.0697 116.307 84.4993 116.438 85.0723 116.438ZM102.455 107.199V108.459L100.609 108.801C100.779 109.029 100.919 109.309 101.029 109.641C101.14 109.973 101.195 110.324 101.195 110.695C101.195 111.809 100.811 112.684 100.043 113.322C99.2747 113.96 98.2168 114.279 96.8691 114.279C96.5241 114.279 96.2116 114.253 95.9316 114.201C95.4368 114.507 95.1895 114.865 95.1895 115.275C95.1895 115.523 95.3034 115.708 95.5312 115.832C95.7656 115.956 96.1921 116.018 96.8105 116.018H98.6953C99.8867 116.018 100.792 116.271 101.41 116.779C102.029 117.287 102.338 118.02 102.338 118.977C102.338 120.201 101.833 121.145 100.824 121.809C99.8151 122.473 98.3568 122.805 96.4492 122.805C94.9779 122.805 93.8548 122.544 93.0801 122.023C92.3053 121.503 91.918 120.76 91.918 119.797C91.918 119.133 92.1263 118.573 92.543 118.117C92.9661 117.668 93.5553 117.355 94.3105 117.18C94.0046 117.049 93.7507 116.841 93.5488 116.555C93.3535 116.262 93.2559 115.956 93.2559 115.637C93.2559 115.233 93.3698 114.891 93.5977 114.611C93.8255 114.331 94.1641 114.055 94.6133 113.781C94.0534 113.54 93.5977 113.15 93.2461 112.609C92.901 112.062 92.7285 111.424 92.7285 110.695C92.7285 109.523 93.0964 108.615 93.832 107.971C94.5742 107.326 95.6289 107.004 96.9961 107.004C97.3021 107.004 97.6211 107.027 97.9531 107.072C98.2917 107.111 98.5456 107.154 98.7148 107.199H102.455ZM93.9688 119.68C93.9688 120.174 94.1901 120.555 94.6328 120.822C95.082 121.089 95.7103 121.223 96.5176 121.223C97.7676 121.223 98.6986 121.044 99.3105 120.686C99.9225 120.327 100.229 119.852 100.229 119.26C100.229 118.791 100.059 118.456 99.7207 118.254C99.3887 118.059 98.7669 117.961 97.8555 117.961H96.1172C95.4596 117.961 94.9355 118.114 94.5449 118.42C94.1608 118.732 93.9688 119.152 93.9688 119.68ZM94.9551 110.695C94.9551 111.372 95.1276 111.893 95.4727 112.258C95.8242 112.622 96.3255 112.805 96.9766 112.805C98.3047 112.805 98.9688 112.095 98.9688 110.676C98.9688 109.973 98.8027 109.432 98.4707 109.055C98.1452 108.671 97.6471 108.479 96.9766 108.479C96.3125 108.479 95.8079 108.667 95.4629 109.045C95.1243 109.423 94.9551 109.973 94.9551 110.695ZM109.945 107.004C110.408 107.004 110.788 107.036 111.088 107.102L110.863 109.24C110.538 109.162 110.199 109.123 109.848 109.123C108.93 109.123 108.184 109.423 107.611 110.021C107.045 110.62 106.762 111.398 106.762 112.355V118H104.467V107.199H106.264L106.566 109.104H106.684C107.042 108.459 107.507 107.948 108.08 107.57C108.66 107.193 109.281 107.004 109.945 107.004ZM119.857 118L119.398 116.496H119.32C118.799 117.154 118.275 117.603 117.748 117.844C117.221 118.078 116.544 118.195 115.717 118.195C114.656 118.195 113.826 117.909 113.227 117.336C112.634 116.763 112.338 115.952 112.338 114.904C112.338 113.791 112.751 112.951 113.578 112.385C114.405 111.818 115.665 111.509 117.357 111.457L119.223 111.398V110.822C119.223 110.132 119.06 109.618 118.734 109.279C118.415 108.934 117.917 108.762 117.24 108.762C116.687 108.762 116.156 108.843 115.648 109.006C115.141 109.169 114.652 109.361 114.184 109.582L113.441 107.941C114.027 107.635 114.669 107.404 115.365 107.248C116.062 107.085 116.719 107.004 117.338 107.004C118.712 107.004 119.747 107.303 120.443 107.902C121.146 108.501 121.498 109.442 121.498 110.725V118H119.857ZM116.439 116.438C117.273 116.438 117.94 116.206 118.441 115.744C118.949 115.275 119.203 114.621 119.203 113.781V112.844L117.816 112.902C116.736 112.941 115.948 113.124 115.453 113.449C114.965 113.768 114.721 114.26 114.721 114.924C114.721 115.406 114.864 115.78 115.15 116.047C115.437 116.307 115.867 116.438 116.439 116.438ZM133.803 118H131.498V111.34C131.498 110.513 131.342 109.898 131.029 109.494C130.717 109.084 130.229 108.879 129.564 108.879C128.679 108.879 128.028 109.169 127.611 109.748C127.201 110.321 126.996 111.278 126.996 112.619V118H124.701V107.199H126.498L126.82 108.615H126.938C127.237 108.101 127.67 107.704 128.236 107.424C128.809 107.144 129.438 107.004 130.121 107.004C131.781 107.004 132.882 107.57 133.422 108.703H133.578C133.897 108.169 134.346 107.753 134.926 107.453C135.505 107.154 136.169 107.004 136.918 107.004C138.207 107.004 139.145 107.329 139.73 107.98C140.323 108.632 140.619 109.624 140.619 110.959V118H138.324V111.34C138.324 110.513 138.165 109.898 137.846 109.494C137.533 109.084 137.045 108.879 136.381 108.879C135.489 108.879 134.835 109.159 134.418 109.719C134.008 110.272 133.803 111.125 133.803 112.277V118Z" fill="#7F8499"/>
</g>
<defs>
<filter id="filter0_d" x="0" y="0" width="200" height="200" filterUnits="userSpaceOnUse" color-interpolation-filters="sRGB">
<feFlood flood-opacity="0" result="BackgroundImageFix"/>
<feColorMatrix in="SourceAlpha" type="matrix" values="0 0 0 0 0 0 0 0 0 0 0 0 0 0 0 0 0 0 127 0"/>
<feOffset dy="4"/>
<feGaussianBlur stdDeviation="5"/>
<feColorMatrix type="matrix" values="0 0 0 0 0 0 0 0 0 0 0 0 0 0 0 0 0 0 0.06 0"/>
<feBlend mode="normal" in2="BackgroundImageFix" result="effect1_dropShadow"/>
<feBlend mode="normal" in="SourceGraphic" in2="effect1_dropShadow" result="shape"/>
</filter>
</defs>
</svg>
