<svg width="200" height="200" viewBox="0 0 200 200" fill="none" xmlns="http://www.w3.org/2000/svg">
<g filter="url(#filter0_d)">
<rect x="10" y="6" width="180" height="180" rx="7.50936" fill="white"/>
<path d="M64.1602 87V72.7227H66.4941V84.998H72.5391V87H64.1602ZM79.4727 87.1953C77.793 87.1953 76.4779 86.707 75.5273 85.7305C74.5833 84.7474 74.1113 83.3965 74.1113 81.6777C74.1113 79.9134 74.5508 78.5267 75.4297 77.5176C76.3086 76.5085 77.5163 76.0039 79.0527 76.0039C80.4785 76.0039 81.6048 76.4368 82.4316 77.3027C83.2585 78.1686 83.6719 79.36 83.6719 80.877V82.1172H76.4746C76.5072 83.1654 76.7904 83.9727 77.3242 84.5391C77.8581 85.099 78.61 85.3789 79.5801 85.3789C80.2181 85.3789 80.8105 85.3203 81.3574 85.2031C81.9108 85.0794 82.5033 84.8776 83.1348 84.5977V86.4629C82.5749 86.7298 82.0085 86.9186 81.4355 87.0293C80.8626 87.14 80.2083 87.1953 79.4727 87.1953ZM79.0527 77.7422C78.3236 77.7422 77.7376 77.9733 77.2949 78.4355C76.8587 78.8978 76.5983 79.5716 76.5137 80.457H81.416C81.403 79.5651 81.1882 78.8913 80.7715 78.4355C80.3548 77.9733 79.7819 77.7422 79.0527 77.7422ZM93.0371 87L92.5781 85.4961H92.5C91.9792 86.1536 91.4551 86.6029 90.9277 86.8438C90.4004 87.0781 89.7233 87.1953 88.8965 87.1953C87.8353 87.1953 87.0052 86.9089 86.4062 86.3359C85.8138 85.763 85.5176 84.9525 85.5176 83.9043C85.5176 82.791 85.931 81.9512 86.7578 81.3848C87.5846 80.8184 88.8444 80.5091 90.5371 80.457L92.4023 80.3984V79.8223C92.4023 79.1322 92.2396 78.6178 91.9141 78.2793C91.5951 77.9342 91.097 77.7617 90.4199 77.7617C89.8665 77.7617 89.3359 77.8431 88.8281 78.0059C88.3203 78.1686 87.832 78.3607 87.3633 78.582L86.6211 76.9414C87.207 76.6354 87.8483 76.4043 88.5449 76.248C89.2415 76.0853 89.8991 76.0039 90.5176 76.0039C91.8913 76.0039 92.9264 76.3034 93.623 76.9023C94.3262 77.5013 94.6777 78.4421 94.6777 79.7246V87H93.0371ZM89.6191 85.4375C90.4525 85.4375 91.1198 85.2064 91.6211 84.7441C92.1289 84.2754 92.3828 83.6211 92.3828 82.7812V81.8438L90.9961 81.9023C89.9154 81.9414 89.1276 82.1237 88.6328 82.4492C88.1445 82.7682 87.9004 83.2598 87.9004 83.9238C87.9004 84.4056 88.0436 84.7799 88.3301 85.0469C88.6165 85.3073 89.0462 85.4375 89.6191 85.4375ZM103.359 76.0039C103.822 76.0039 104.202 76.0365 104.502 76.1016L104.277 78.2402C103.952 78.1621 103.613 78.123 103.262 78.123C102.344 78.123 101.598 78.4225 101.025 79.0215C100.459 79.6204 100.176 80.3984 100.176 81.3555V87H97.8809V76.1992H99.6777L99.9805 78.1035H100.098C100.456 77.459 100.921 76.9479 101.494 76.5703C102.074 76.1927 102.695 76.0039 103.359 76.0039ZM116.016 87H113.711V80.3594C113.711 79.526 113.542 78.9043 113.203 78.4941C112.871 78.084 112.34 77.8789 111.611 77.8789C110.641 77.8789 109.932 78.1654 109.482 78.7383C109.033 79.3112 108.809 80.2715 108.809 81.6191V87H106.514V76.1992H108.311L108.633 77.6152H108.75C109.076 77.1009 109.538 76.7038 110.137 76.4238C110.736 76.1439 111.4 76.0039 112.129 76.0039C114.72 76.0039 116.016 77.3223 116.016 79.959V87ZM123.926 87.1953C122.246 87.1953 120.931 86.707 119.98 85.7305C119.036 84.7474 118.564 83.3965 118.564 81.6777C118.564 79.9134 119.004 78.5267 119.883 77.5176C120.762 76.5085 121.969 76.0039 123.506 76.0039C124.932 76.0039 126.058 76.4368 126.885 77.3027C127.712 78.1686 128.125 79.36 128.125 80.877V82.1172H120.928C120.96 83.1654 121.243 83.9727 121.777 84.5391C122.311 85.099 123.063 85.3789 124.033 85.3789C124.671 85.3789 125.264 85.3203 125.811 85.2031C126.364 85.0794 126.956 84.8776 127.588 84.5977V86.4629C127.028 86.7298 126.462 86.9186 125.889 87.0293C125.316 87.14 124.661 87.1953 123.926 87.1953ZM123.506 77.7422C122.777 77.7422 122.191 77.9733 121.748 78.4355C121.312 78.8978 121.051 79.5716 120.967 80.457H125.869C125.856 79.5651 125.641 78.8913 125.225 78.4355C124.808 77.9733 124.235 77.7422 123.506 77.7422ZM136.211 76.0039C136.673 76.0039 137.054 76.0365 137.354 76.1016L137.129 78.2402C136.803 78.1621 136.465 78.123 136.113 78.123C135.195 78.123 134.45 78.4225 133.877 79.0215C133.311 79.6204 133.027 80.3984 133.027 81.3555V87H130.732V76.1992H132.529L132.832 78.1035H132.949C133.307 77.459 133.773 76.9479 134.346 76.5703C134.925 76.1927 135.547 76.0039 136.211 76.0039ZM38.9844 117.984C38.3464 117.984 37.8125 117.903 37.3828 117.74V115.777C37.9297 115.914 38.4049 115.982 38.8086 115.982C40.0846 115.982 40.7227 115.175 40.7227 113.561V99.7227H43.0664V113.482C43.0664 114.941 42.7181 116.054 42.0215 116.822C41.3314 117.597 40.319 117.984 38.9844 117.984ZM56.1035 108.58C56.1035 110.344 55.651 111.721 54.7461 112.711C53.8411 113.701 52.5814 114.195 50.9668 114.195C49.9577 114.195 49.0658 113.967 48.291 113.512C47.5163 113.056 46.9206 112.402 46.5039 111.549C46.0872 110.696 45.8789 109.706 45.8789 108.58C45.8789 106.829 46.3281 105.462 47.2266 104.479C48.125 103.495 49.3913 103.004 51.0254 103.004C52.5879 103.004 53.8249 103.508 54.7363 104.518C55.6478 105.52 56.1035 106.874 56.1035 108.58ZM48.2422 108.58C48.2422 111.074 49.1634 112.32 51.0059 112.32C52.8288 112.32 53.7402 111.074 53.7402 108.58C53.7402 106.113 52.8223 104.879 50.9863 104.879C50.0228 104.879 49.3229 105.198 48.8867 105.836C48.457 106.474 48.2422 107.389 48.2422 108.58ZM66.3672 114L66.0449 112.584H65.9277C65.6087 113.085 65.153 113.479 64.5605 113.766C63.9746 114.052 63.304 114.195 62.5488 114.195C61.2402 114.195 60.2637 113.87 59.6191 113.219C58.9746 112.568 58.6523 111.581 58.6523 110.26V103.199H60.9668V109.859C60.9668 110.686 61.1361 111.308 61.4746 111.725C61.8132 112.135 62.3438 112.34 63.0664 112.34C64.0299 112.34 64.7363 112.053 65.1855 111.48C65.6413 110.901 65.8691 109.934 65.8691 108.58V103.199H68.1738V114H66.3672ZM76.9238 103.004C77.3861 103.004 77.7669 103.036 78.0664 103.102L77.8418 105.24C77.5163 105.162 77.1777 105.123 76.8262 105.123C75.9082 105.123 75.1628 105.423 74.5898 106.021C74.0234 106.62 73.7402 107.398 73.7402 108.355V114H71.4453V103.199H73.2422L73.5449 105.104H73.6621C74.0202 104.459 74.4857 103.948 75.0586 103.57C75.638 103.193 76.2598 103.004 76.9238 103.004ZM89.5801 114H87.2754V107.359C87.2754 106.526 87.1061 105.904 86.7676 105.494C86.4355 105.084 85.9049 104.879 85.1758 104.879C84.2057 104.879 83.4961 105.165 83.0469 105.738C82.5977 106.311 82.373 107.271 82.373 108.619V114H80.0781V103.199H81.875L82.1973 104.615H82.3145C82.64 104.101 83.1022 103.704 83.7012 103.424C84.3001 103.144 84.9642 103.004 85.6934 103.004C88.2845 103.004 89.5801 104.322 89.5801 106.959V114ZM97.4902 114.195C95.8105 114.195 94.4954 113.707 93.5449 112.73C92.6009 111.747 92.1289 110.396 92.1289 108.678C92.1289 106.913 92.5684 105.527 93.4473 104.518C94.3262 103.508 95.5339 103.004 97.0703 103.004C98.4961 103.004 99.6224 103.437 100.449 104.303C101.276 105.169 101.689 106.36 101.689 107.877V109.117H94.4922C94.5247 110.165 94.8079 110.973 95.3418 111.539C95.8757 112.099 96.6276 112.379 97.5977 112.379C98.2357 112.379 98.8281 112.32 99.375 112.203C99.9284 112.079 100.521 111.878 101.152 111.598V113.463C100.592 113.73 100.026 113.919 99.4531 114.029C98.8802 114.14 98.2259 114.195 97.4902 114.195ZM97.0703 104.742C96.3411 104.742 95.7552 104.973 95.3125 105.436C94.8763 105.898 94.6159 106.572 94.5312 107.457H99.4336C99.4206 106.565 99.2057 105.891 98.7891 105.436C98.3724 104.973 97.7995 104.742 97.0703 104.742ZM102.656 103.199H105.156L107.354 109.322C107.686 110.195 107.907 111.015 108.018 111.783H108.096C108.154 111.425 108.262 110.992 108.418 110.484C108.574 109.97 109.401 107.542 110.898 103.199H113.379L108.76 115.436C107.92 117.682 106.52 118.805 104.561 118.805C104.053 118.805 103.558 118.749 103.076 118.639V116.822C103.421 116.9 103.815 116.939 104.258 116.939C105.365 116.939 106.143 116.298 106.592 115.016L106.992 114L102.656 103.199ZM126.631 114L122.49 102.076H122.412C122.523 103.847 122.578 105.507 122.578 107.057V114H120.459V99.7227H123.75L127.715 111.08H127.773L131.855 99.7227H135.156V114H132.91V106.939C132.91 106.23 132.926 105.305 132.959 104.166C132.998 103.027 133.031 102.337 133.057 102.096H132.979L128.691 114H126.631ZM145.43 114L144.971 112.496H144.893C144.372 113.154 143.848 113.603 143.32 113.844C142.793 114.078 142.116 114.195 141.289 114.195C140.228 114.195 139.398 113.909 138.799 113.336C138.206 112.763 137.91 111.952 137.91 110.904C137.91 109.791 138.324 108.951 139.15 108.385C139.977 107.818 141.237 107.509 142.93 107.457L144.795 107.398V106.822C144.795 106.132 144.632 105.618 144.307 105.279C143.988 104.934 143.49 104.762 142.812 104.762C142.259 104.762 141.729 104.843 141.221 105.006C140.713 105.169 140.225 105.361 139.756 105.582L139.014 103.941C139.6 103.635 140.241 103.404 140.938 103.248C141.634 103.085 142.292 103.004 142.91 103.004C144.284 103.004 145.319 103.303 146.016 103.902C146.719 104.501 147.07 105.442 147.07 106.725V114H145.43ZM142.012 112.438C142.845 112.438 143.512 112.206 144.014 111.744C144.521 111.275 144.775 110.621 144.775 109.781V108.844L143.389 108.902C142.308 108.941 141.52 109.124 141.025 109.449C140.537 109.768 140.293 110.26 140.293 110.924C140.293 111.406 140.436 111.78 140.723 112.047C141.009 112.307 141.439 112.438 142.012 112.438ZM155.752 114.195C154.385 114.195 153.324 113.704 152.568 112.721H152.432C152.523 113.632 152.568 114.186 152.568 114.381V118.805H150.273V103.199H152.129C152.181 103.401 152.288 103.883 152.451 104.645H152.568C153.285 103.551 154.359 103.004 155.791 103.004C157.139 103.004 158.187 103.492 158.936 104.469C159.691 105.445 160.068 106.816 160.068 108.58C160.068 110.344 159.684 111.721 158.916 112.711C158.154 113.701 157.1 114.195 155.752 114.195ZM155.195 104.879C154.284 104.879 153.617 105.146 153.193 105.68C152.777 106.214 152.568 107.066 152.568 108.238V108.58C152.568 109.895 152.777 110.849 153.193 111.441C153.61 112.027 154.29 112.32 155.234 112.32C156.029 112.32 156.641 111.995 157.07 111.344C157.5 110.693 157.715 109.765 157.715 108.561C157.715 107.35 157.5 106.435 157.07 105.816C156.647 105.191 156.022 104.879 155.195 104.879Z" fill="#7F8499"/>
</g>
<defs>
<filter id="filter0_d" x="0" y="0" width="200" height="200" filterUnits="userSpaceOnUse" color-interpolation-filters="sRGB">
<feFlood flood-opacity="0" result="BackgroundImageFix"/>
<feColorMatrix in="SourceAlpha" type="matrix" values="0 0 0 0 0 0 0 0 0 0 0 0 0 0 0 0 0 0 127 0"/>
<feOffset dy="4"/>
<feGaussianBlur stdDeviation="5"/>
<feColorMatrix type="matrix" values="0 0 0 0 0 0 0 0 0 0 0 0 0 0 0 0 0 0 0.06 0"/>
<feBlend mode="normal" in2="BackgroundImageFix" result="effect1_dropShadow"/>
<feBlend mode="normal" in="SourceGraphic" in2="effect1_dropShadow" result="shape"/>
</filter>
</defs>
</svg>
