<svg width="210" height="210" viewBox="0 0 210 210" fill="none" xmlns="http://www.w3.org/2000/svg">
<g filter="url(#filter0_d)">
<rect x="15" y="11" width="180" height="180" rx="7.50936" fill="white"/>
<path d="M69.1602 92V77.7227H71.4941V89.998H77.5391V92H69.1602ZM84.4727 92.1953C82.793 92.1953 81.4779 91.707 80.5273 90.7305C79.5833 89.7474 79.1113 88.3965 79.1113 86.6777C79.1113 84.9134 79.5508 83.5267 80.4297 82.5176C81.3086 81.5085 82.5163 81.0039 84.0527 81.0039C85.4785 81.0039 86.6048 81.4368 87.4316 82.3027C88.2585 83.1686 88.6719 84.36 88.6719 85.877V87.1172H81.4746C81.5072 88.1654 81.7904 88.9727 82.3242 89.5391C82.8581 90.099 83.61 90.3789 84.5801 90.3789C85.2181 90.3789 85.8105 90.3203 86.3574 90.2031C86.9108 90.0794 87.5033 89.8776 88.1348 89.5977V91.4629C87.5749 91.7298 87.0085 91.9186 86.4355 92.0293C85.8626 92.14 85.2083 92.1953 84.4727 92.1953ZM84.0527 82.7422C83.3236 82.7422 82.7376 82.9733 82.2949 83.4355C81.8587 83.8978 81.5983 84.5716 81.5137 85.457H86.416C86.403 84.5651 86.1882 83.8913 85.7715 83.4355C85.3548 82.9733 84.7819 82.7422 84.0527 82.7422ZM98.0371 92L97.5781 90.4961H97.5C96.9792 91.1536 96.4551 91.6029 95.9277 91.8438C95.4004 92.0781 94.7233 92.1953 93.8965 92.1953C92.8353 92.1953 92.0052 91.9089 91.4062 91.3359C90.8138 90.763 90.5176 89.9525 90.5176 88.9043C90.5176 87.791 90.931 86.9512 91.7578 86.3848C92.5846 85.8184 93.8444 85.5091 95.5371 85.457L97.4023 85.3984V84.8223C97.4023 84.1322 97.2396 83.6178 96.9141 83.2793C96.5951 82.9342 96.097 82.7617 95.4199 82.7617C94.8665 82.7617 94.3359 82.8431 93.8281 83.0059C93.3203 83.1686 92.832 83.3607 92.3633 83.582L91.6211 81.9414C92.207 81.6354 92.8483 81.4043 93.5449 81.248C94.2415 81.0853 94.8991 81.0039 95.5176 81.0039C96.8913 81.0039 97.9264 81.3034 98.623 81.9023C99.3262 82.5013 99.6777 83.4421 99.6777 84.7246V92H98.0371ZM94.6191 90.4375C95.4525 90.4375 96.1198 90.2064 96.6211 89.7441C97.1289 89.2754 97.3828 88.6211 97.3828 87.7812V86.8438L95.9961 86.9023C94.9154 86.9414 94.1276 87.1237 93.6328 87.4492C93.1445 87.7682 92.9004 88.2598 92.9004 88.9238C92.9004 89.4056 93.0436 89.7799 93.3301 90.0469C93.6165 90.3073 94.0462 90.4375 94.6191 90.4375ZM108.359 81.0039C108.822 81.0039 109.202 81.0365 109.502 81.1016L109.277 83.2402C108.952 83.1621 108.613 83.123 108.262 83.123C107.344 83.123 106.598 83.4225 106.025 84.0215C105.459 84.6204 105.176 85.3984 105.176 86.3555V92H102.881V81.1992H104.678L104.98 83.1035H105.098C105.456 82.459 105.921 81.9479 106.494 81.5703C107.074 81.1927 107.695 81.0039 108.359 81.0039ZM121.016 92H118.711V85.3594C118.711 84.526 118.542 83.9043 118.203 83.4941C117.871 83.084 117.34 82.8789 116.611 82.8789C115.641 82.8789 114.932 83.1654 114.482 83.7383C114.033 84.3112 113.809 85.2715 113.809 86.6191V92H111.514V81.1992H113.311L113.633 82.6152H113.75C114.076 82.1009 114.538 81.7038 115.137 81.4238C115.736 81.1439 116.4 81.0039 117.129 81.0039C119.72 81.0039 121.016 82.3223 121.016 84.959V92ZM128.926 92.1953C127.246 92.1953 125.931 91.707 124.98 90.7305C124.036 89.7474 123.564 88.3965 123.564 86.6777C123.564 84.9134 124.004 83.5267 124.883 82.5176C125.762 81.5085 126.969 81.0039 128.506 81.0039C129.932 81.0039 131.058 81.4368 131.885 82.3027C132.712 83.1686 133.125 84.36 133.125 85.877V87.1172H125.928C125.96 88.1654 126.243 88.9727 126.777 89.5391C127.311 90.099 128.063 90.3789 129.033 90.3789C129.671 90.3789 130.264 90.3203 130.811 90.2031C131.364 90.0794 131.956 89.8776 132.588 89.5977V91.4629C132.028 91.7298 131.462 91.9186 130.889 92.0293C130.316 92.14 129.661 92.1953 128.926 92.1953ZM128.506 82.7422C127.777 82.7422 127.191 82.9733 126.748 83.4355C126.312 83.8978 126.051 84.5716 125.967 85.457H130.869C130.856 84.5651 130.641 83.8913 130.225 83.4355C129.808 82.9733 129.235 82.7422 128.506 82.7422ZM141.211 81.0039C141.673 81.0039 142.054 81.0365 142.354 81.1016L142.129 83.2402C141.803 83.1621 141.465 83.123 141.113 83.123C140.195 83.123 139.45 83.4225 138.877 84.0215C138.311 84.6204 138.027 85.3984 138.027 86.3555V92H135.732V81.1992H137.529L137.832 83.1035H137.949C138.307 82.459 138.773 81.9479 139.346 81.5703C139.925 81.1927 140.547 81.0039 141.211 81.0039ZM43.9844 122.984C43.3464 122.984 42.8125 122.903 42.3828 122.74V120.777C42.9297 120.914 43.4049 120.982 43.8086 120.982C45.0846 120.982 45.7227 120.175 45.7227 118.561V104.723H48.0664V118.482C48.0664 119.941 47.7181 121.054 47.0215 121.822C46.3314 122.597 45.319 122.984 43.9844 122.984ZM61.1035 113.58C61.1035 115.344 60.651 116.721 59.7461 117.711C58.8411 118.701 57.5814 119.195 55.9668 119.195C54.9577 119.195 54.0658 118.967 53.291 118.512C52.5163 118.056 51.9206 117.402 51.5039 116.549C51.0872 115.696 50.8789 114.706 50.8789 113.58C50.8789 111.829 51.3281 110.462 52.2266 109.479C53.125 108.495 54.3913 108.004 56.0254 108.004C57.5879 108.004 58.8249 108.508 59.7363 109.518C60.6478 110.52 61.1035 111.874 61.1035 113.58ZM53.2422 113.58C53.2422 116.074 54.1634 117.32 56.0059 117.32C57.8288 117.32 58.7402 116.074 58.7402 113.58C58.7402 111.113 57.8223 109.879 55.9863 109.879C55.0228 109.879 54.3229 110.198 53.8867 110.836C53.457 111.474 53.2422 112.389 53.2422 113.58ZM71.3672 119L71.0449 117.584H70.9277C70.6087 118.085 70.153 118.479 69.5605 118.766C68.9746 119.052 68.304 119.195 67.5488 119.195C66.2402 119.195 65.2637 118.87 64.6191 118.219C63.9746 117.568 63.6523 116.581 63.6523 115.26V108.199H65.9668V114.859C65.9668 115.686 66.1361 116.308 66.4746 116.725C66.8132 117.135 67.3438 117.34 68.0664 117.34C69.0299 117.34 69.7363 117.053 70.1855 116.48C70.6413 115.901 70.8691 114.934 70.8691 113.58V108.199H73.1738V119H71.3672ZM81.9238 108.004C82.3861 108.004 82.7669 108.036 83.0664 108.102L82.8418 110.24C82.5163 110.162 82.1777 110.123 81.8262 110.123C80.9082 110.123 80.1628 110.423 79.5898 111.021C79.0234 111.62 78.7402 112.398 78.7402 113.355V119H76.4453V108.199H78.2422L78.5449 110.104H78.6621C79.0202 109.459 79.4857 108.948 80.0586 108.57C80.638 108.193 81.2598 108.004 81.9238 108.004ZM94.5801 119H92.2754V112.359C92.2754 111.526 92.1061 110.904 91.7676 110.494C91.4355 110.084 90.9049 109.879 90.1758 109.879C89.2057 109.879 88.4961 110.165 88.0469 110.738C87.5977 111.311 87.373 112.271 87.373 113.619V119H85.0781V108.199H86.875L87.1973 109.615H87.3145C87.64 109.101 88.1022 108.704 88.7012 108.424C89.3001 108.144 89.9642 108.004 90.6934 108.004C93.2845 108.004 94.5801 109.322 94.5801 111.959V119ZM102.49 119.195C100.811 119.195 99.4954 118.707 98.5449 117.73C97.6009 116.747 97.1289 115.396 97.1289 113.678C97.1289 111.913 97.5684 110.527 98.4473 109.518C99.3262 108.508 100.534 108.004 102.07 108.004C103.496 108.004 104.622 108.437 105.449 109.303C106.276 110.169 106.689 111.36 106.689 112.877V114.117H99.4922C99.5247 115.165 99.8079 115.973 100.342 116.539C100.876 117.099 101.628 117.379 102.598 117.379C103.236 117.379 103.828 117.32 104.375 117.203C104.928 117.079 105.521 116.878 106.152 116.598V118.463C105.592 118.73 105.026 118.919 104.453 119.029C103.88 119.14 103.226 119.195 102.49 119.195ZM102.07 109.742C101.341 109.742 100.755 109.973 100.312 110.436C99.8763 110.898 99.6159 111.572 99.5312 112.457H104.434C104.421 111.565 104.206 110.891 103.789 110.436C103.372 109.973 102.799 109.742 102.07 109.742ZM107.656 108.199H110.156L112.354 114.322C112.686 115.195 112.907 116.015 113.018 116.783H113.096C113.154 116.425 113.262 115.992 113.418 115.484C113.574 114.97 114.401 112.542 115.898 108.199H118.379L113.76 120.436C112.92 122.682 111.52 123.805 109.561 123.805C109.053 123.805 108.558 123.749 108.076 123.639V121.822C108.421 121.9 108.815 121.939 109.258 121.939C110.365 121.939 111.143 121.298 111.592 120.016L111.992 119L107.656 108.199ZM131.631 119L127.49 107.076H127.412C127.523 108.847 127.578 110.507 127.578 112.057V119H125.459V104.723H128.75L132.715 116.08H132.773L136.855 104.723H140.156V119H137.91V111.939C137.91 111.23 137.926 110.305 137.959 109.166C137.998 108.027 138.031 107.337 138.057 107.096H137.979L133.691 119H131.631ZM150.43 119L149.971 117.496H149.893C149.372 118.154 148.848 118.603 148.32 118.844C147.793 119.078 147.116 119.195 146.289 119.195C145.228 119.195 144.398 118.909 143.799 118.336C143.206 117.763 142.91 116.952 142.91 115.904C142.91 114.791 143.324 113.951 144.15 113.385C144.977 112.818 146.237 112.509 147.93 112.457L149.795 112.398V111.822C149.795 111.132 149.632 110.618 149.307 110.279C148.988 109.934 148.49 109.762 147.812 109.762C147.259 109.762 146.729 109.843 146.221 110.006C145.713 110.169 145.225 110.361 144.756 110.582L144.014 108.941C144.6 108.635 145.241 108.404 145.938 108.248C146.634 108.085 147.292 108.004 147.91 108.004C149.284 108.004 150.319 108.303 151.016 108.902C151.719 109.501 152.07 110.442 152.07 111.725V119H150.43ZM147.012 117.438C147.845 117.438 148.512 117.206 149.014 116.744C149.521 116.275 149.775 115.621 149.775 114.781V113.844L148.389 113.902C147.308 113.941 146.52 114.124 146.025 114.449C145.537 114.768 145.293 115.26 145.293 115.924C145.293 116.406 145.436 116.78 145.723 117.047C146.009 117.307 146.439 117.438 147.012 117.438ZM160.752 119.195C159.385 119.195 158.324 118.704 157.568 117.721H157.432C157.523 118.632 157.568 119.186 157.568 119.381V123.805H155.273V108.199H157.129C157.181 108.401 157.288 108.883 157.451 109.645H157.568C158.285 108.551 159.359 108.004 160.791 108.004C162.139 108.004 163.187 108.492 163.936 109.469C164.691 110.445 165.068 111.816 165.068 113.58C165.068 115.344 164.684 116.721 163.916 117.711C163.154 118.701 162.1 119.195 160.752 119.195ZM160.195 109.879C159.284 109.879 158.617 110.146 158.193 110.68C157.777 111.214 157.568 112.066 157.568 113.238V113.58C157.568 114.895 157.777 115.849 158.193 116.441C158.61 117.027 159.29 117.32 160.234 117.32C161.029 117.32 161.641 116.995 162.07 116.344C162.5 115.693 162.715 114.765 162.715 113.561C162.715 112.35 162.5 111.435 162.07 110.816C161.647 110.191 161.022 109.879 160.195 109.879Z" fill="#7F8499"/>
</g>
<defs>
<filter id="filter0_d" x="0" y="0" width="210" height="210" filterUnits="userSpaceOnUse" color-interpolation-filters="sRGB">
<feFlood flood-opacity="0" result="BackgroundImageFix"/>
<feColorMatrix in="SourceAlpha" type="matrix" values="0 0 0 0 0 0 0 0 0 0 0 0 0 0 0 0 0 0 127 0"/>
<feOffset dy="4"/>
<feGaussianBlur stdDeviation="7.5"/>
<feColorMatrix type="matrix" values="0 0 0 0 0 0 0 0 0 0 0 0 0 0 0 0 0 0 0.15 0"/>
<feBlend mode="normal" in2="BackgroundImageFix" result="effect1_dropShadow"/>
<feBlend mode="normal" in="SourceGraphic" in2="effect1_dropShadow" result="shape"/>
</filter>
</defs>
</svg>
