<svg width="200" height="200" viewBox="0 0 200 200" fill="none" xmlns="http://www.w3.org/2000/svg">
<g filter="url(#filter0_d)">
<rect x="10" y="6" width="180" height="180" rx="7.50936" fill="white"/>
<path d="M56.9922 74V56.8672H59.793V71.5977H67.0469V74H56.9922ZM75.3672 74.2344C73.3516 74.2344 71.7734 73.6484 70.6328 72.4766C69.5 71.2969 68.9336 69.6758 68.9336 67.6133C68.9336 65.4961 69.4609 63.832 70.5156 62.6211C71.5703 61.4102 73.0195 60.8047 74.8633 60.8047C76.5742 60.8047 77.9258 61.3242 78.918 62.3633C79.9102 63.4023 80.4062 64.832 80.4062 66.6523V68.1406H71.7695C71.8086 69.3984 72.1484 70.3672 72.7891 71.0469C73.4297 71.7188 74.332 72.0547 75.4961 72.0547C76.2617 72.0547 76.9727 71.9844 77.6289 71.8438C78.293 71.6953 79.0039 71.4531 79.7617 71.1172V73.3555C79.0898 73.6758 78.4102 73.9023 77.7227 74.0352C77.0352 74.168 76.25 74.2344 75.3672 74.2344ZM74.8633 62.8906C73.9883 62.8906 73.2852 63.168 72.7539 63.7227C72.2305 64.2773 71.918 65.0859 71.8164 66.1484H77.6992C77.6836 65.0781 77.4258 64.2695 76.9258 63.7227C76.4258 63.168 75.7383 62.8906 74.8633 62.8906ZM91.6445 74L91.0938 72.1953H91C90.375 72.9844 89.7461 73.5234 89.1133 73.8125C88.4805 74.0938 87.668 74.2344 86.6758 74.2344C85.4023 74.2344 84.4062 73.8906 83.6875 73.2031C82.9766 72.5156 82.6211 71.543 82.6211 70.2852C82.6211 68.9492 83.1172 67.9414 84.1094 67.2617C85.1016 66.582 86.6133 66.2109 88.6445 66.1484L90.8828 66.0781V65.3867C90.8828 64.5586 90.6875 63.9414 90.2969 63.5352C89.9141 63.1211 89.3164 62.9141 88.5039 62.9141C87.8398 62.9141 87.2031 63.0117 86.5938 63.207C85.9844 63.4023 85.3984 63.6328 84.8359 63.8984L83.9453 61.9297C84.6484 61.5625 85.418 61.2852 86.2539 61.0977C87.0898 60.9023 87.8789 60.8047 88.6211 60.8047C90.2695 60.8047 91.5117 61.1641 92.3477 61.8828C93.1914 62.6016 93.6133 63.7305 93.6133 65.2695V74H91.6445ZM87.543 72.125C88.543 72.125 89.3438 71.8477 89.9453 71.293C90.5547 70.7305 90.8594 69.9453 90.8594 68.9375V67.8125L89.1953 67.8828C87.8984 67.9297 86.9531 68.1484 86.3594 68.5391C85.7734 68.9219 85.4805 69.5117 85.4805 70.3086C85.4805 70.8867 85.6523 71.3359 85.9961 71.6562C86.3398 71.9688 86.8555 72.125 87.543 72.125ZM104.031 60.8047C104.586 60.8047 105.043 60.8438 105.402 60.9219L105.133 63.4883C104.742 63.3945 104.336 63.3477 103.914 63.3477C102.812 63.3477 101.918 63.707 101.23 64.4258C100.551 65.1445 100.211 66.0781 100.211 67.2266V74H97.457V61.0391H99.6133L99.9766 63.3242H100.117C100.547 62.5508 101.105 61.9375 101.793 61.4844C102.488 61.0312 103.234 60.8047 104.031 60.8047ZM119.219 74H116.453V66.0312C116.453 65.0312 116.25 64.2852 115.844 63.793C115.445 63.3008 114.809 63.0547 113.934 63.0547C112.77 63.0547 111.918 63.3984 111.379 64.0859C110.84 64.7734 110.57 65.9258 110.57 67.543V74H107.816V61.0391H109.973L110.359 62.7383H110.5C110.891 62.1211 111.445 61.6445 112.164 61.3086C112.883 60.9727 113.68 60.8047 114.555 60.8047C117.664 60.8047 119.219 62.3867 119.219 65.5508V74ZM128.711 74.2344C126.695 74.2344 125.117 73.6484 123.977 72.4766C122.844 71.2969 122.277 69.6758 122.277 67.6133C122.277 65.4961 122.805 63.832 123.859 62.6211C124.914 61.4102 126.363 60.8047 128.207 60.8047C129.918 60.8047 131.27 61.3242 132.262 62.3633C133.254 63.4023 133.75 64.832 133.75 66.6523V68.1406H125.113C125.152 69.3984 125.492 70.3672 126.133 71.0469C126.773 71.7188 127.676 72.0547 128.84 72.0547C129.605 72.0547 130.316 71.9844 130.973 71.8438C131.637 71.6953 132.348 71.4531 133.105 71.1172V73.3555C132.434 73.6758 131.754 73.9023 131.066 74.0352C130.379 74.168 129.594 74.2344 128.711 74.2344ZM128.207 62.8906C127.332 62.8906 126.629 63.168 126.098 63.7227C125.574 64.2773 125.262 65.0859 125.16 66.1484H131.043C131.027 65.0781 130.77 64.2695 130.27 63.7227C129.77 63.168 129.082 62.8906 128.207 62.8906ZM143.453 60.8047C144.008 60.8047 144.465 60.8438 144.824 60.9219L144.555 63.4883C144.164 63.3945 143.758 63.3477 143.336 63.3477C142.234 63.3477 141.34 63.707 140.652 64.4258C139.973 65.1445 139.633 66.0781 139.633 67.2266V74H136.879V61.0391H139.035L139.398 63.3242H139.539C139.969 62.5508 140.527 61.9375 141.215 61.4844C141.91 61.0312 142.656 60.8047 143.453 60.8047ZM55.4102 111.781C54.6445 111.781 54.0039 111.684 53.4883 111.488V109.133C54.1445 109.297 54.7148 109.379 55.1992 109.379C56.7305 109.379 57.4961 108.41 57.4961 106.473V89.8672H60.3086V106.379C60.3086 108.129 59.8906 109.465 59.0547 110.387C58.2266 111.316 57.0117 111.781 55.4102 111.781ZM75.9531 100.496C75.9531 102.613 75.4102 104.266 74.3242 105.453C73.2383 106.641 71.7266 107.234 69.7891 107.234C68.5781 107.234 67.5078 106.961 66.5781 106.414C65.6484 105.867 64.9336 105.082 64.4336 104.059C63.9336 103.035 63.6836 101.848 63.6836 100.496C63.6836 98.3945 64.2227 96.7539 65.3008 95.5742C66.3789 94.3945 67.8984 93.8047 69.8594 93.8047C71.7344 93.8047 73.2188 94.4102 74.3125 95.6211C75.4062 96.8242 75.9531 98.4492 75.9531 100.496ZM66.5195 100.496C66.5195 103.488 67.625 104.984 69.8359 104.984C72.0234 104.984 73.1172 103.488 73.1172 100.496C73.1172 97.5352 72.0156 96.0547 69.8125 96.0547C68.6562 96.0547 67.8164 96.4375 67.293 97.2031C66.7773 97.9688 66.5195 99.0664 66.5195 100.496ZM88.2695 107L87.8828 105.301H87.7422C87.3594 105.902 86.8125 106.375 86.1016 106.719C85.3984 107.062 84.5938 107.234 83.6875 107.234C82.1172 107.234 80.9453 106.844 80.1719 106.062C79.3984 105.281 79.0117 104.098 79.0117 102.512V94.0391H81.7891V102.031C81.7891 103.023 81.9922 103.77 82.3984 104.27C82.8047 104.762 83.4414 105.008 84.3086 105.008C85.4648 105.008 86.3125 104.664 86.8516 103.977C87.3984 103.281 87.6719 102.121 87.6719 100.496V94.0391H90.4375V107H88.2695ZM100.938 93.8047C101.492 93.8047 101.949 93.8438 102.309 93.9219L102.039 96.4883C101.648 96.3945 101.242 96.3477 100.82 96.3477C99.7188 96.3477 98.8242 96.707 98.1367 97.4258C97.457 98.1445 97.1172 99.0781 97.1172 100.227V107H94.3633V94.0391H96.5195L96.8828 96.3242H97.0234C97.4531 95.5508 98.0117 94.9375 98.6992 94.4844C99.3945 94.0312 100.141 93.8047 100.938 93.8047ZM116.125 107H113.359V99.0312C113.359 98.0312 113.156 97.2852 112.75 96.793C112.352 96.3008 111.715 96.0547 110.84 96.0547C109.676 96.0547 108.824 96.3984 108.285 97.0859C107.746 97.7734 107.477 98.9258 107.477 100.543V107H104.723V94.0391H106.879L107.266 95.7383H107.406C107.797 95.1211 108.352 94.6445 109.07 94.3086C109.789 93.9727 110.586 93.8047 111.461 93.8047C114.57 93.8047 116.125 95.3867 116.125 98.5508V107ZM125.617 107.234C123.602 107.234 122.023 106.648 120.883 105.477C119.75 104.297 119.184 102.676 119.184 100.613C119.184 98.4961 119.711 96.832 120.766 95.6211C121.82 94.4102 123.27 93.8047 125.113 93.8047C126.824 93.8047 128.176 94.3242 129.168 95.3633C130.16 96.4023 130.656 97.832 130.656 99.6523V101.141H122.02C122.059 102.398 122.398 103.367 123.039 104.047C123.68 104.719 124.582 105.055 125.746 105.055C126.512 105.055 127.223 104.984 127.879 104.844C128.543 104.695 129.254 104.453 130.012 104.117V106.355C129.34 106.676 128.66 106.902 127.973 107.035C127.285 107.168 126.5 107.234 125.617 107.234ZM125.113 95.8906C124.238 95.8906 123.535 96.168 123.004 96.7227C122.48 97.2773 122.168 98.0859 122.066 99.1484H127.949C127.934 98.0781 127.676 97.2695 127.176 96.7227C126.676 96.168 125.988 95.8906 125.113 95.8906ZM131.816 94.0391H134.816L137.453 101.387C137.852 102.434 138.117 103.418 138.25 104.34H138.344C138.414 103.91 138.543 103.391 138.73 102.781C138.918 102.164 139.91 99.25 141.707 94.0391H144.684L139.141 108.723C138.133 111.418 136.453 112.766 134.102 112.766C133.492 112.766 132.898 112.699 132.32 112.566V110.387C132.734 110.48 133.207 110.527 133.738 110.527C135.066 110.527 136 109.758 136.539 108.219L137.02 107L131.816 94.0391ZM84.1562 140L79.1875 125.691H79.0938C79.2266 127.816 79.293 129.809 79.293 131.668V140H76.75V122.867H80.6992L85.457 136.496H85.5273L90.4258 122.867H94.3867V140H91.6914V131.527C91.6914 130.676 91.7109 129.566 91.75 128.199C91.7969 126.832 91.8359 126.004 91.8672 125.715H91.7734L86.6289 140H84.1562ZM106.715 140L106.164 138.195H106.07C105.445 138.984 104.816 139.523 104.184 139.812C103.551 140.094 102.738 140.234 101.746 140.234C100.473 140.234 99.4766 139.891 98.7578 139.203C98.0469 138.516 97.6914 137.543 97.6914 136.285C97.6914 134.949 98.1875 133.941 99.1797 133.262C100.172 132.582 101.684 132.211 103.715 132.148L105.953 132.078V131.387C105.953 130.559 105.758 129.941 105.367 129.535C104.984 129.121 104.387 128.914 103.574 128.914C102.91 128.914 102.273 129.012 101.664 129.207C101.055 129.402 100.469 129.633 99.9062 129.898L99.0156 127.93C99.7188 127.562 100.488 127.285 101.324 127.098C102.16 126.902 102.949 126.805 103.691 126.805C105.34 126.805 106.582 127.164 107.418 127.883C108.262 128.602 108.684 129.73 108.684 131.27V140H106.715ZM102.613 138.125C103.613 138.125 104.414 137.848 105.016 137.293C105.625 136.73 105.93 135.945 105.93 134.938V133.812L104.266 133.883C102.969 133.93 102.023 134.148 101.43 134.539C100.844 134.922 100.551 135.512 100.551 136.309C100.551 136.887 100.723 137.336 101.066 137.656C101.41 137.969 101.926 138.125 102.613 138.125ZM119.102 140.234C117.461 140.234 116.188 139.645 115.281 138.465H115.117C115.227 139.559 115.281 140.223 115.281 140.457V145.766H112.527V127.039H114.754C114.816 127.281 114.945 127.859 115.141 128.773H115.281C116.141 127.461 117.43 126.805 119.148 126.805C120.766 126.805 122.023 127.391 122.922 128.562C123.828 129.734 124.281 131.379 124.281 133.496C124.281 135.613 123.82 137.266 122.898 138.453C121.984 139.641 120.719 140.234 119.102 140.234ZM118.434 129.055C117.34 129.055 116.539 129.375 116.031 130.016C115.531 130.656 115.281 131.68 115.281 133.086V133.496C115.281 135.074 115.531 136.219 116.031 136.93C116.531 137.633 117.348 137.984 118.48 137.984C119.434 137.984 120.168 137.594 120.684 136.812C121.199 136.031 121.457 134.918 121.457 133.473C121.457 132.02 121.199 130.922 120.684 130.18C120.176 129.43 119.426 129.055 118.434 129.055Z" fill="#7F8499"/>
</g>
<defs>
<filter id="filter0_d" x="0" y="0" width="200" height="200" filterUnits="userSpaceOnUse" color-interpolation-filters="sRGB">
<feFlood flood-opacity="0" result="BackgroundImageFix"/>
<feColorMatrix in="SourceAlpha" type="matrix" values="0 0 0 0 0 0 0 0 0 0 0 0 0 0 0 0 0 0 127 0"/>
<feOffset dy="4"/>
<feGaussianBlur stdDeviation="5"/>
<feColorMatrix type="matrix" values="0 0 0 0 0 0 0 0 0 0 0 0 0 0 0 0 0 0 0.06 0"/>
<feBlend mode="normal" in2="BackgroundImageFix" result="effect1_dropShadow"/>
<feBlend mode="normal" in="SourceGraphic" in2="effect1_dropShadow" result="shape"/>
</filter>
</defs>
</svg>
