<svg width="200" height="200" viewBox="0 0 200 200" fill="none" xmlns="http://www.w3.org/2000/svg">
<g filter="url(#filter0_d)">
<rect x="10" y="6" width="180" height="180" rx="7.50936" fill="white"/>
<path d="M50.79 87.5107C50.79 88.6533 50.377 89.5498 49.5508 90.2002C48.7246 90.8506 47.585 91.1758 46.1318 91.1758C44.6787 91.1758 43.4893 90.9502 42.5635 90.499V88.5127C43.1494 88.7881 43.7705 89.0049 44.4268 89.1631C45.0889 89.3213 45.7041 89.4004 46.2725 89.4004C47.1045 89.4004 47.7168 89.2422 48.1094 88.9258C48.5078 88.6094 48.707 88.1846 48.707 87.6514C48.707 87.1709 48.5254 86.7637 48.1621 86.4297C47.7988 86.0957 47.0488 85.7002 45.9121 85.2432C44.7402 84.7686 43.9141 84.2266 43.4336 83.6172C42.9531 83.0078 42.7129 82.2754 42.7129 81.4199C42.7129 80.3477 43.0938 79.5039 43.8555 78.8887C44.6172 78.2734 45.6396 77.9658 46.9229 77.9658C48.1533 77.9658 49.3779 78.2354 50.5967 78.7744L49.9287 80.4883C48.7861 80.0078 47.7666 79.7676 46.8701 79.7676C46.1904 79.7676 45.6748 79.917 45.3232 80.2158C44.9717 80.5088 44.7959 80.8984 44.7959 81.3848C44.7959 81.7188 44.8662 82.0059 45.0068 82.2461C45.1475 82.4805 45.3789 82.7031 45.7012 82.9141C46.0234 83.125 46.6035 83.4033 47.4414 83.749C48.3848 84.1416 49.0762 84.5078 49.5156 84.8477C49.9551 85.1875 50.2773 85.5713 50.4824 85.999C50.6875 86.4268 50.79 86.9307 50.79 87.5107ZM56.6787 89.5059C57.1826 89.5059 57.6865 89.4268 58.1904 89.2686V90.8242C57.9619 90.9238 57.666 91.0059 57.3027 91.0703C56.9453 91.1406 56.5732 91.1758 56.1865 91.1758C54.2295 91.1758 53.251 90.1445 53.251 88.082V82.8438H51.9238V81.9297L53.3477 81.1738L54.0508 79.1172H55.3252V81.2793H58.0938V82.8438H55.3252V88.0469C55.3252 88.5449 55.4482 88.9141 55.6943 89.1543C55.9463 89.3887 56.2744 89.5059 56.6787 89.5059ZM66.9971 91L66.707 89.7256H66.6016C66.3145 90.1768 65.9043 90.5312 65.3711 90.7891C64.8438 91.0469 64.2402 91.1758 63.5605 91.1758C62.3828 91.1758 61.5039 90.8828 60.9238 90.2969C60.3438 89.7109 60.0537 88.8232 60.0537 87.6338V81.2793H62.1367V87.2734C62.1367 88.0176 62.2891 88.5771 62.5938 88.9521C62.8984 89.3213 63.376 89.5059 64.0264 89.5059C64.8936 89.5059 65.5293 89.248 65.9336 88.7324C66.3438 88.2109 66.5488 87.3408 66.5488 86.1221V81.2793H68.623V91H66.9971ZM74.8457 91.1758C73.6328 91.1758 72.6865 90.7363 72.0068 89.8574C71.3271 88.9785 70.9873 87.7451 70.9873 86.1572C70.9873 84.5635 71.3301 83.3242 72.0156 82.4395C72.707 81.5488 73.6621 81.1035 74.8809 81.1035C76.1582 81.1035 77.1309 81.5752 77.7988 82.5186H77.9043C77.8047 81.8213 77.7549 81.2705 77.7549 80.8662V77.3242H79.8291V91H78.2119L77.8516 89.7256H77.7549C77.0928 90.6924 76.123 91.1758 74.8457 91.1758ZM75.3994 89.5059C76.249 89.5059 76.8672 89.2686 77.2539 88.7939C77.6406 88.3135 77.8398 87.5371 77.8516 86.4648V86.1748C77.8516 84.9502 77.6523 84.0801 77.2539 83.5645C76.8555 83.0488 76.2314 82.791 75.3818 82.791C74.6553 82.791 74.0957 83.0869 73.7031 83.6787C73.3105 84.2646 73.1143 85.1025 73.1143 86.1924C73.1143 87.2705 73.3047 88.0938 73.6855 88.6621C74.0664 89.2246 74.6377 89.5059 75.3994 89.5059ZM87.0273 91.1758C85.5156 91.1758 84.332 90.7363 83.4766 89.8574C82.627 88.9727 82.2021 87.7568 82.2021 86.21C82.2021 84.6221 82.5977 83.374 83.3887 82.4658C84.1797 81.5576 85.2666 81.1035 86.6494 81.1035C87.9326 81.1035 88.9463 81.4932 89.6904 82.2725C90.4346 83.0518 90.8066 84.124 90.8066 85.4893V86.6055H84.3291C84.3584 87.5488 84.6133 88.2754 85.0938 88.7852C85.5742 89.2891 86.251 89.541 87.124 89.541C87.6982 89.541 88.2314 89.4883 88.7236 89.3828C89.2217 89.2715 89.7549 89.0898 90.3232 88.8379V90.5166C89.8193 90.7568 89.3096 90.9268 88.7939 91.0264C88.2783 91.126 87.6895 91.1758 87.0273 91.1758ZM86.6494 82.668C85.9932 82.668 85.4658 82.876 85.0674 83.292C84.6748 83.708 84.4404 84.3145 84.3643 85.1113H88.7764C88.7646 84.3086 88.5713 83.7021 88.1963 83.292C87.8213 82.876 87.3057 82.668 86.6494 82.668ZM101.705 91H99.6309V85.0234C99.6309 84.2734 99.4785 83.7139 99.1738 83.3447C98.875 82.9756 98.3975 82.791 97.7412 82.791C96.8682 82.791 96.2295 83.0488 95.8252 83.5645C95.4209 84.0801 95.2188 84.9443 95.2188 86.1572V91H93.1533V81.2793H94.7705L95.0605 82.5537H95.166C95.459 82.0908 95.875 81.7334 96.4141 81.4814C96.9531 81.2295 97.5508 81.1035 98.207 81.1035C100.539 81.1035 101.705 82.29 101.705 84.6631V91ZM108.2 89.5059C108.704 89.5059 109.208 89.4268 109.712 89.2686V90.8242C109.483 90.9238 109.188 91.0059 108.824 91.0703C108.467 91.1406 108.095 91.1758 107.708 91.1758C105.751 91.1758 104.772 90.1445 104.772 88.082V82.8438H103.445V81.9297L104.869 81.1738L105.572 79.1172H106.847V81.2793H109.615V82.8438H106.847V88.0469C106.847 88.5449 106.97 88.9141 107.216 89.1543C107.468 89.3887 107.796 89.5059 108.2 89.5059ZM118.193 88.2314C118.193 89.1807 117.848 89.9102 117.156 90.4199C116.465 90.9238 115.475 91.1758 114.186 91.1758C112.891 91.1758 111.851 90.9795 111.065 90.5869V88.8027C112.208 89.3301 113.271 89.5938 114.256 89.5938C115.527 89.5938 116.163 89.21 116.163 88.4424C116.163 88.1963 116.093 87.9912 115.952 87.8271C115.812 87.6631 115.58 87.4932 115.258 87.3174C114.936 87.1416 114.487 86.9424 113.913 86.7197C112.794 86.2861 112.035 85.8525 111.637 85.4189C111.244 84.9854 111.048 84.4229 111.048 83.7314C111.048 82.8994 111.382 82.2549 112.05 81.7979C112.724 81.335 113.638 81.1035 114.792 81.1035C115.935 81.1035 117.016 81.335 118.035 81.7979L117.367 83.3535C116.318 82.9199 115.437 82.7031 114.722 82.7031C113.632 82.7031 113.087 83.0137 113.087 83.6348C113.087 83.9395 113.228 84.1973 113.509 84.4082C113.796 84.6191 114.417 84.9092 115.372 85.2783C116.175 85.5889 116.758 85.873 117.121 86.1309C117.484 86.3887 117.754 86.6875 117.93 87.0273C118.105 87.3613 118.193 87.7627 118.193 88.2314ZM127.176 91H125.11V77.3242H127.176V91ZM136.22 91L135.807 89.6465H135.736C135.268 90.2383 134.796 90.6426 134.321 90.8594C133.847 91.0703 133.237 91.1758 132.493 91.1758C131.538 91.1758 130.791 90.918 130.252 90.4023C129.719 89.8867 129.452 89.1572 129.452 88.2139C129.452 87.2119 129.824 86.4561 130.568 85.9463C131.312 85.4365 132.446 85.1582 133.97 85.1113L135.648 85.0586V84.54C135.648 83.9189 135.502 83.4561 135.209 83.1514C134.922 82.8408 134.474 82.6855 133.864 82.6855C133.366 82.6855 132.889 82.7588 132.432 82.9053C131.975 83.0518 131.535 83.2246 131.113 83.4238L130.445 81.9473C130.973 81.6719 131.55 81.4639 132.177 81.3232C132.804 81.1768 133.396 81.1035 133.952 81.1035C135.188 81.1035 136.12 81.373 136.747 81.9121C137.38 82.4512 137.696 83.2979 137.696 84.4521V91H136.22ZM133.144 89.5938C133.894 89.5938 134.494 89.3857 134.945 88.9697C135.402 88.5479 135.631 87.959 135.631 87.2031V86.3594L134.383 86.4121C133.41 86.4473 132.701 86.6113 132.256 86.9043C131.816 87.1914 131.597 87.6338 131.597 88.2314C131.597 88.665 131.726 89.002 131.983 89.2422C132.241 89.4766 132.628 89.5938 133.144 89.5938ZM144.499 91.1758C143.028 91.1758 141.909 90.748 141.142 89.8926C140.38 89.0312 139.999 87.7979 139.999 86.1924C139.999 84.5576 140.397 83.3008 141.194 82.4219C141.997 81.543 143.154 81.1035 144.666 81.1035C145.691 81.1035 146.614 81.2939 147.435 81.6748L146.811 83.3359C145.938 82.9961 145.217 82.8262 144.648 82.8262C142.967 82.8262 142.126 83.9424 142.126 86.1748C142.126 87.2646 142.334 88.085 142.75 88.6357C143.172 89.1807 143.787 89.4531 144.596 89.4531C145.516 89.4531 146.386 89.2246 147.206 88.7676V90.5693C146.837 90.7861 146.441 90.9414 146.02 91.0352C145.604 91.1289 145.097 91.1758 144.499 91.1758ZM151.486 85.8672L152.655 84.4082L155.591 81.2793H157.973L154.062 85.4541L158.219 91H155.793L152.673 86.7373L151.539 87.6689V91H149.491V77.3242H151.539V83.9951L151.434 85.8672H151.486ZM62.1982 116H60.124V110.006C60.124 109.262 59.9834 108.708 59.7021 108.345C59.4209 107.976 58.9814 107.791 58.3838 107.791C57.5869 107.791 57.001 108.052 56.626 108.573C56.2568 109.089 56.0723 109.95 56.0723 111.157V116H54.0068V106.279H55.624L55.9141 107.554H56.0195C56.2891 107.091 56.6787 106.733 57.1885 106.481C57.7041 106.229 58.2695 106.104 58.8848 106.104C60.3789 106.104 61.3691 106.613 61.8555 107.633H61.9961C62.2832 107.152 62.6875 106.777 63.209 106.508C63.7305 106.238 64.3281 106.104 65.002 106.104C66.1621 106.104 67.0059 106.396 67.5332 106.982C68.0664 107.568 68.333 108.462 68.333 109.663V116H66.2676V110.006C66.2676 109.262 66.124 108.708 65.8369 108.345C65.5557 107.976 65.1162 107.791 64.5186 107.791C63.7158 107.791 63.127 108.043 62.752 108.547C62.3828 109.045 62.1982 109.812 62.1982 110.85V116ZM79.8379 111.122C79.8379 112.71 79.4307 113.949 78.6162 114.84C77.8018 115.73 76.668 116.176 75.2148 116.176C74.3066 116.176 73.5039 115.971 72.8066 115.561C72.1094 115.15 71.5732 114.562 71.1982 113.794C70.8232 113.026 70.6357 112.136 70.6357 111.122C70.6357 109.546 71.04 108.315 71.8486 107.431C72.6572 106.546 73.7969 106.104 75.2676 106.104C76.6738 106.104 77.7871 106.558 78.6074 107.466C79.4277 108.368 79.8379 109.587 79.8379 111.122ZM72.7627 111.122C72.7627 113.366 73.5918 114.488 75.25 114.488C76.8906 114.488 77.7109 113.366 77.7109 111.122C77.7109 108.901 76.8848 107.791 75.2324 107.791C74.3652 107.791 73.7354 108.078 73.3428 108.652C72.9561 109.227 72.7627 110.05 72.7627 111.122ZM85.8408 114.506C86.3447 114.506 86.8486 114.427 87.3525 114.269V115.824C87.124 115.924 86.8281 116.006 86.4648 116.07C86.1074 116.141 85.7354 116.176 85.3486 116.176C83.3916 116.176 82.4131 115.145 82.4131 113.082V107.844H81.0859V106.93L82.5098 106.174L83.2129 104.117H84.4873V106.279H87.2559V107.844H84.4873V113.047C84.4873 113.545 84.6104 113.914 84.8564 114.154C85.1084 114.389 85.4365 114.506 85.8408 114.506ZM91.3691 116H89.3037V106.279H91.3691V116ZM89.1807 103.704C89.1807 103.335 89.2803 103.051 89.4795 102.852C89.6846 102.652 89.9746 102.553 90.3496 102.553C90.7129 102.553 90.9941 102.652 91.1934 102.852C91.3984 103.051 91.501 103.335 91.501 103.704C91.501 104.056 91.3984 104.334 91.1934 104.539C90.9941 104.738 90.7129 104.838 90.3496 104.838C89.9746 104.838 89.6846 104.738 89.4795 104.539C89.2803 104.334 89.1807 104.056 89.1807 103.704ZM96.5459 116L92.8545 106.279H95.0342L97.0117 111.931C97.3516 112.88 97.5566 113.647 97.627 114.233H97.6973C97.75 113.812 97.9551 113.044 98.3125 111.931L100.29 106.279H102.487L98.7783 116H96.5459ZM110.046 116L109.633 114.646H109.562C109.094 115.238 108.622 115.643 108.147 115.859C107.673 116.07 107.063 116.176 106.319 116.176C105.364 116.176 104.617 115.918 104.078 115.402C103.545 114.887 103.278 114.157 103.278 113.214C103.278 112.212 103.65 111.456 104.395 110.946C105.139 110.437 106.272 110.158 107.796 110.111L109.475 110.059V109.54C109.475 108.919 109.328 108.456 109.035 108.151C108.748 107.841 108.3 107.686 107.69 107.686C107.192 107.686 106.715 107.759 106.258 107.905C105.801 108.052 105.361 108.225 104.939 108.424L104.271 106.947C104.799 106.672 105.376 106.464 106.003 106.323C106.63 106.177 107.222 106.104 107.778 106.104C109.015 106.104 109.946 106.373 110.573 106.912C111.206 107.451 111.522 108.298 111.522 109.452V116H110.046ZM106.97 114.594C107.72 114.594 108.32 114.386 108.771 113.97C109.229 113.548 109.457 112.959 109.457 112.203V111.359L108.209 111.412C107.236 111.447 106.527 111.611 106.082 111.904C105.643 112.191 105.423 112.634 105.423 113.231C105.423 113.665 105.552 114.002 105.81 114.242C106.067 114.477 106.454 114.594 106.97 114.594ZM118.026 114.506C118.53 114.506 119.034 114.427 119.538 114.269V115.824C119.31 115.924 119.014 116.006 118.65 116.07C118.293 116.141 117.921 116.176 117.534 116.176C115.577 116.176 114.599 115.145 114.599 113.082V107.844H113.271V106.93L114.695 106.174L115.398 104.117H116.673V106.279H119.441V107.844H116.673V113.047C116.673 113.545 116.796 113.914 117.042 114.154C117.294 114.389 117.622 114.506 118.026 114.506ZM123.555 116H121.489V106.279H123.555V116ZM121.366 103.704C121.366 103.335 121.466 103.051 121.665 102.852C121.87 102.652 122.16 102.553 122.535 102.553C122.898 102.553 123.18 102.652 123.379 102.852C123.584 103.051 123.687 103.335 123.687 103.704C123.687 104.056 123.584 104.334 123.379 104.539C123.18 104.738 122.898 104.838 122.535 104.838C122.16 104.838 121.87 104.738 121.665 104.539C121.466 104.334 121.366 104.056 121.366 103.704ZM135.139 111.122C135.139 112.71 134.731 113.949 133.917 114.84C133.103 115.73 131.969 116.176 130.516 116.176C129.607 116.176 128.805 115.971 128.107 115.561C127.41 115.15 126.874 114.562 126.499 113.794C126.124 113.026 125.937 112.136 125.937 111.122C125.937 109.546 126.341 108.315 127.149 107.431C127.958 106.546 129.098 106.104 130.568 106.104C131.975 106.104 133.088 106.558 133.908 107.466C134.729 108.368 135.139 109.587 135.139 111.122ZM128.063 111.122C128.063 113.366 128.893 114.488 130.551 114.488C132.191 114.488 133.012 113.366 133.012 111.122C133.012 108.901 132.186 107.791 130.533 107.791C129.666 107.791 129.036 108.078 128.644 108.652C128.257 109.227 128.063 110.05 128.063 111.122ZM146.072 116H143.998V110.023C143.998 109.273 143.846 108.714 143.541 108.345C143.242 107.976 142.765 107.791 142.108 107.791C141.235 107.791 140.597 108.049 140.192 108.564C139.788 109.08 139.586 109.944 139.586 111.157V116H137.521V106.279H139.138L139.428 107.554H139.533C139.826 107.091 140.242 106.733 140.781 106.481C141.32 106.229 141.918 106.104 142.574 106.104C144.906 106.104 146.072 107.29 146.072 109.663V116Z" fill="#7F8499"/>
</g>
<defs>
<filter id="filter0_d" x="0" y="0" width="200" height="200" filterUnits="userSpaceOnUse" color-interpolation-filters="sRGB">
<feFlood flood-opacity="0" result="BackgroundImageFix"/>
<feColorMatrix in="SourceAlpha" type="matrix" values="0 0 0 0 0 0 0 0 0 0 0 0 0 0 0 0 0 0 127 0"/>
<feOffset dy="4"/>
<feGaussianBlur stdDeviation="5"/>
<feColorMatrix type="matrix" values="0 0 0 0 0 0 0 0 0 0 0 0 0 0 0 0 0 0 0.06 0"/>
<feBlend mode="normal" in2="BackgroundImageFix" result="effect1_dropShadow"/>
<feBlend mode="normal" in="SourceGraphic" in2="effect1_dropShadow" result="shape"/>
</filter>
</defs>
</svg>
