<svg width="200" height="200" viewBox="0 0 200 200" fill="none" xmlns="http://www.w3.org/2000/svg">
<g filter="url(#filter0_d)">
<rect x="10" y="6" width="180" height="180" rx="7.50936" fill="white"/>
<path d="M55.2852 59H52.4844V44.2695H47.4453V41.8672H60.3242V44.2695H55.2852V59ZM74.0703 59H71.3047V51.0312C71.3047 50.0312 71.1016 49.2852 70.6953 48.793C70.2969 48.3008 69.6602 48.0547 68.7852 48.0547C67.6289 48.0547 66.7773 48.4023 66.2305 49.0977C65.6914 49.7852 65.4219 50.9414 65.4219 52.5664V59H62.668V40.7656H65.4219V45.3945C65.4219 46.1367 65.375 46.9297 65.2812 47.7734H65.457C65.832 47.1484 66.3516 46.6641 67.0156 46.3203C67.6875 45.9766 68.4688 45.8047 69.3594 45.8047C72.5 45.8047 74.0703 47.3867 74.0703 50.5508V59ZM83.5625 59.2344C81.5469 59.2344 79.9688 58.6484 78.8281 57.4766C77.6953 56.2969 77.1289 54.6758 77.1289 52.6133C77.1289 50.4961 77.6562 48.832 78.7109 47.6211C79.7656 46.4102 81.2148 45.8047 83.0586 45.8047C84.7695 45.8047 86.1211 46.3242 87.1133 47.3633C88.1055 48.4023 88.6016 49.832 88.6016 51.6523V53.1406H79.9648C80.0039 54.3984 80.3438 55.3672 80.9844 56.0469C81.625 56.7188 82.5273 57.0547 83.6914 57.0547C84.457 57.0547 85.168 56.9844 85.8242 56.8438C86.4883 56.6953 87.1992 56.4531 87.957 56.1172V58.3555C87.2852 58.6758 86.6055 58.9023 85.918 59.0352C85.2305 59.168 84.4453 59.2344 83.5625 59.2344ZM83.0586 47.8906C82.1836 47.8906 81.4805 48.168 80.9492 48.7227C80.4258 49.2773 80.1133 50.0859 80.0117 51.1484H85.8945C85.8789 50.0781 85.6211 49.2695 85.1211 48.7227C84.6211 48.168 83.9336 47.8906 83.0586 47.8906ZM103.191 59.2344C101.23 59.2344 99.7383 58.6641 98.7148 57.5234C97.6992 56.375 97.1914 54.7305 97.1914 52.5898C97.1914 50.4102 97.7227 48.7344 98.7852 47.5625C99.8555 46.3906 101.398 45.8047 103.414 45.8047C104.781 45.8047 106.012 46.0586 107.105 46.5664L106.273 48.7812C105.109 48.3281 104.148 48.1016 103.391 48.1016C101.148 48.1016 100.027 49.5898 100.027 52.5664C100.027 54.0195 100.305 55.1133 100.859 55.8477C101.422 56.5742 102.242 56.9375 103.32 56.9375C104.547 56.9375 105.707 56.6328 106.801 56.0234V58.4258C106.309 58.7148 105.781 58.9219 105.219 59.0469C104.664 59.1719 103.988 59.2344 103.191 59.2344ZM112.602 59H109.848V40.7656H112.602V59ZM124.66 59L124.109 57.1953H124.016C123.391 57.9844 122.762 58.5234 122.129 58.8125C121.496 59.0938 120.684 59.2344 119.691 59.2344C118.418 59.2344 117.422 58.8906 116.703 58.2031C115.992 57.5156 115.637 56.543 115.637 55.2852C115.637 53.9492 116.133 52.9414 117.125 52.2617C118.117 51.582 119.629 51.2109 121.66 51.1484L123.898 51.0781V50.3867C123.898 49.5586 123.703 48.9414 123.312 48.5352C122.93 48.1211 122.332 47.9141 121.52 47.9141C120.855 47.9141 120.219 48.0117 119.609 48.207C119 48.4023 118.414 48.6328 117.852 48.8984L116.961 46.9297C117.664 46.5625 118.434 46.2852 119.27 46.0977C120.105 45.9023 120.895 45.8047 121.637 45.8047C123.285 45.8047 124.527 46.1641 125.363 46.8828C126.207 47.6016 126.629 48.7305 126.629 50.2695V59H124.66ZM120.559 57.125C121.559 57.125 122.359 56.8477 122.961 56.293C123.57 55.7305 123.875 54.9453 123.875 53.9375V52.8125L122.211 52.8828C120.914 52.9297 119.969 53.1484 119.375 53.5391C118.789 53.9219 118.496 54.5117 118.496 55.3086C118.496 55.8867 118.668 56.3359 119.012 56.6562C119.355 56.9688 119.871 57.125 120.559 57.125ZM139.18 55.3086C139.18 56.5742 138.719 57.5469 137.797 58.2266C136.875 58.8984 135.555 59.2344 133.836 59.2344C132.109 59.2344 130.723 58.9727 129.676 58.4492V56.0703C131.199 56.7734 132.617 57.125 133.93 57.125C135.625 57.125 136.473 56.6133 136.473 55.5898C136.473 55.2617 136.379 54.9883 136.191 54.7695C136.004 54.5508 135.695 54.3242 135.266 54.0898C134.836 53.8555 134.238 53.5898 133.473 53.293C131.98 52.7148 130.969 52.1367 130.438 51.5586C129.914 50.9805 129.652 50.2305 129.652 49.3086C129.652 48.1992 130.098 47.3398 130.988 46.7305C131.887 46.1133 133.105 45.8047 134.645 45.8047C136.168 45.8047 137.609 46.1133 138.969 46.7305L138.078 48.8047C136.68 48.2266 135.504 47.9375 134.551 47.9375C133.098 47.9375 132.371 48.3516 132.371 49.1797C132.371 49.5859 132.559 49.9297 132.934 50.2109C133.316 50.4922 134.145 50.8789 135.418 51.3711C136.488 51.7852 137.266 52.1641 137.75 52.5078C138.234 52.8516 138.594 53.25 138.828 53.7031C139.062 54.1484 139.18 54.6836 139.18 55.3086ZM150.875 55.3086C150.875 56.5742 150.414 57.5469 149.492 58.2266C148.57 58.8984 147.25 59.2344 145.531 59.2344C143.805 59.2344 142.418 58.9727 141.371 58.4492V56.0703C142.895 56.7734 144.312 57.125 145.625 57.125C147.32 57.125 148.168 56.6133 148.168 55.5898C148.168 55.2617 148.074 54.9883 147.887 54.7695C147.699 54.5508 147.391 54.3242 146.961 54.0898C146.531 53.8555 145.934 53.5898 145.168 53.293C143.676 52.7148 142.664 52.1367 142.133 51.5586C141.609 50.9805 141.348 50.2305 141.348 49.3086C141.348 48.1992 141.793 47.3398 142.684 46.7305C143.582 46.1133 144.801 45.8047 146.34 45.8047C147.863 45.8047 149.305 46.1133 150.664 46.7305L149.773 48.8047C148.375 48.2266 147.199 47.9375 146.246 47.9375C144.793 47.9375 144.066 48.3516 144.066 49.1797C144.066 49.5859 144.254 49.9297 144.629 50.2109C145.012 50.4922 145.84 50.8789 147.113 51.3711C148.184 51.7852 148.961 52.1641 149.445 52.5078C149.93 52.8516 150.289 53.25 150.523 53.7031C150.758 54.1484 150.875 54.6836 150.875 55.3086ZM80.3633 92H77.6094V79.0391H80.3633V92ZM77.4453 75.6055C77.4453 75.1133 77.5781 74.7344 77.8438 74.4688C78.1172 74.2031 78.5039 74.0703 79.0039 74.0703C79.4883 74.0703 79.8633 74.2031 80.1289 74.4688C80.4023 74.7344 80.5391 75.1133 80.5391 75.6055C80.5391 76.0742 80.4023 76.4453 80.1289 76.7188C79.8633 76.9844 79.4883 77.1172 79.0039 77.1172C78.5039 77.1172 78.1172 76.9844 77.8438 76.7188C77.5781 76.4453 77.4453 76.0742 77.4453 75.6055ZM93.0195 88.3086C93.0195 89.5742 92.5586 90.5469 91.6367 91.2266C90.7148 91.8984 89.3945 92.2344 87.6758 92.2344C85.9492 92.2344 84.5625 91.9727 83.5156 91.4492V89.0703C85.0391 89.7734 86.457 90.125 87.7695 90.125C89.4648 90.125 90.3125 89.6133 90.3125 88.5898C90.3125 88.2617 90.2188 87.9883 90.0312 87.7695C89.8438 87.5508 89.5352 87.3242 89.1055 87.0898C88.6758 86.8555 88.0781 86.5898 87.3125 86.293C85.8203 85.7148 84.8086 85.1367 84.2773 84.5586C83.7539 83.9805 83.4922 83.2305 83.4922 82.3086C83.4922 81.1992 83.9375 80.3398 84.8281 79.7305C85.7266 79.1133 86.9453 78.8047 88.4844 78.8047C90.0078 78.8047 91.4492 79.1133 92.8086 79.7305L91.918 81.8047C90.5195 81.2266 89.3438 80.9375 88.3906 80.9375C86.9375 80.9375 86.2109 81.3516 86.2109 82.1797C86.2109 82.5859 86.3984 82.9297 86.7734 83.2109C87.1562 83.4922 87.9844 83.8789 89.2578 84.3711C90.3281 84.7852 91.1055 85.1641 91.5898 85.5078C92.0742 85.8516 92.4336 86.25 92.668 86.7031C92.9023 87.1484 93.0195 87.6836 93.0195 88.3086ZM107.41 92H104.645V84.0312C104.645 83.0312 104.441 82.2852 104.035 81.793C103.637 81.3008 103 81.0547 102.125 81.0547C100.961 81.0547 100.109 81.3984 99.5703 82.0859C99.0312 82.7734 98.7617 83.9258 98.7617 85.543V92H96.0078V79.0391H98.1641L98.5508 80.7383H98.6914C99.082 80.1211 99.6367 79.6445 100.355 79.3086C101.074 78.9727 101.871 78.8047 102.746 78.8047C105.855 78.8047 107.41 80.3867 107.41 83.5508V92ZM113.445 74.8672L113.621 75.125C113.207 76.7578 112.52 78.6289 111.559 80.7383H109.566C110.105 78.4805 110.496 76.5234 110.738 74.8672H113.445ZM120.711 90.0078C121.383 90.0078 122.055 89.9023 122.727 89.6914V91.7656C122.422 91.8984 122.027 92.0078 121.543 92.0938C121.066 92.1875 120.57 92.2344 120.055 92.2344C117.445 92.2344 116.141 90.8594 116.141 88.1094V81.125H114.371V79.9062L116.27 78.8984L117.207 76.1562H118.906V79.0391H122.598V81.125H118.906V88.0625C118.906 88.7266 119.07 89.2188 119.398 89.5391C119.734 89.8516 120.172 90.0078 120.711 90.0078ZM57.0898 121.309C57.0898 122.574 56.6289 123.547 55.707 124.227C54.7852 124.898 53.4648 125.234 51.7461 125.234C50.0195 125.234 48.6328 124.973 47.5859 124.449V122.07C49.1094 122.773 50.5273 123.125 51.8398 123.125C53.5352 123.125 54.3828 122.613 54.3828 121.59C54.3828 121.262 54.2891 120.988 54.1016 120.77C53.9141 120.551 53.6055 120.324 53.1758 120.09C52.7461 119.855 52.1484 119.59 51.3828 119.293C49.8906 118.715 48.8789 118.137 48.3477 117.559C47.8242 116.98 47.5625 116.23 47.5625 115.309C47.5625 114.199 48.0078 113.34 48.8984 112.73C49.7969 112.113 51.0156 111.805 52.5547 111.805C54.0781 111.805 55.5195 112.113 56.8789 112.73L55.9883 114.805C54.5898 114.227 53.4141 113.938 52.4609 113.938C51.0078 113.938 50.2812 114.352 50.2812 115.18C50.2812 115.586 50.4688 115.93 50.8438 116.211C51.2266 116.492 52.0547 116.879 53.3281 117.371C54.3984 117.785 55.1758 118.164 55.6602 118.508C56.1445 118.852 56.5039 119.25 56.7383 119.703C56.9727 120.148 57.0898 120.684 57.0898 121.309ZM64.9062 123.008C65.5781 123.008 66.25 122.902 66.9219 122.691V124.766C66.6172 124.898 66.2227 125.008 65.7383 125.094C65.2617 125.188 64.7656 125.234 64.25 125.234C61.6406 125.234 60.3359 123.859 60.3359 121.109V114.125H58.5664V112.906L60.4648 111.898L61.4023 109.156H63.1016V112.039H66.793V114.125H63.1016V121.062C63.1016 121.727 63.2656 122.219 63.5938 122.539C63.9297 122.852 64.3672 123.008 64.9062 123.008ZM78.6641 125L78.2773 123.301H78.1367C77.7539 123.902 77.207 124.375 76.4961 124.719C75.793 125.062 74.9883 125.234 74.082 125.234C72.5117 125.234 71.3398 124.844 70.5664 124.062C69.793 123.281 69.4062 122.098 69.4062 120.512V112.039H72.1836V120.031C72.1836 121.023 72.3867 121.77 72.793 122.27C73.1992 122.762 73.8359 123.008 74.7031 123.008C75.8594 123.008 76.707 122.664 77.2461 121.977C77.793 121.281 78.0664 120.121 78.0664 118.496V112.039H80.832V125H78.6641ZM89.1289 125.234C87.5117 125.234 86.25 124.648 85.3438 123.477C84.4375 122.305 83.9844 120.66 83.9844 118.543C83.9844 116.418 84.4414 114.766 85.3555 113.586C86.2773 112.398 87.5508 111.805 89.1758 111.805C90.8789 111.805 92.1758 112.434 93.0664 113.691H93.207C93.0742 112.762 93.0078 112.027 93.0078 111.488V106.766H95.7734V125H93.6172L93.1367 123.301H93.0078C92.125 124.59 90.832 125.234 89.1289 125.234ZM89.8672 123.008C91 123.008 91.8242 122.691 92.3398 122.059C92.8555 121.418 93.1211 120.383 93.1367 118.953V118.566C93.1367 116.934 92.8711 115.773 92.3398 115.086C91.8086 114.398 90.9766 114.055 89.8438 114.055C88.875 114.055 88.1289 114.449 87.6055 115.238C87.082 116.02 86.8203 117.137 86.8203 118.59C86.8203 120.027 87.0742 121.125 87.582 121.883C88.0898 122.633 88.8516 123.008 89.8672 123.008ZM105.371 125.234C103.355 125.234 101.777 124.648 100.637 123.477C99.5039 122.297 98.9375 120.676 98.9375 118.613C98.9375 116.496 99.4648 114.832 100.52 113.621C101.574 112.41 103.023 111.805 104.867 111.805C106.578 111.805 107.93 112.324 108.922 113.363C109.914 114.402 110.41 115.832 110.41 117.652V119.141H101.773C101.812 120.398 102.152 121.367 102.793 122.047C103.434 122.719 104.336 123.055 105.5 123.055C106.266 123.055 106.977 122.984 107.633 122.844C108.297 122.695 109.008 122.453 109.766 122.117V124.355C109.094 124.676 108.414 124.902 107.727 125.035C107.039 125.168 106.254 125.234 105.371 125.234ZM104.867 113.891C103.992 113.891 103.289 114.168 102.758 114.723C102.234 115.277 101.922 116.086 101.82 117.148H107.703C107.688 116.078 107.43 115.27 106.93 114.723C106.43 114.168 105.742 113.891 104.867 113.891ZM124.941 125H122.176V117.031C122.176 116.031 121.973 115.285 121.566 114.793C121.168 114.301 120.531 114.055 119.656 114.055C118.492 114.055 117.641 114.398 117.102 115.086C116.562 115.773 116.293 116.926 116.293 118.543V125H113.539V112.039H115.695L116.082 113.738H116.223C116.613 113.121 117.168 112.645 117.887 112.309C118.605 111.973 119.402 111.805 120.277 111.805C123.387 111.805 124.941 113.387 124.941 116.551V125ZM133.602 123.008C134.273 123.008 134.945 122.902 135.617 122.691V124.766C135.312 124.898 134.918 125.008 134.434 125.094C133.957 125.188 133.461 125.234 132.945 125.234C130.336 125.234 129.031 123.859 129.031 121.109V114.125H127.262V112.906L129.16 111.898L130.098 109.156H131.797V112.039H135.488V114.125H131.797V121.062C131.797 121.727 131.961 122.219 132.289 122.539C132.625 122.852 133.062 123.008 133.602 123.008ZM140.422 107.867L140.598 108.125C140.184 109.758 139.496 111.629 138.535 113.738H136.543C137.082 111.48 137.473 109.523 137.715 107.867H140.422ZM151.566 121.309C151.566 122.574 151.105 123.547 150.184 124.227C149.262 124.898 147.941 125.234 146.223 125.234C144.496 125.234 143.109 124.973 142.062 124.449V122.07C143.586 122.773 145.004 123.125 146.316 123.125C148.012 123.125 148.859 122.613 148.859 121.59C148.859 121.262 148.766 120.988 148.578 120.77C148.391 120.551 148.082 120.324 147.652 120.09C147.223 119.855 146.625 119.59 145.859 119.293C144.367 118.715 143.355 118.137 142.824 117.559C142.301 116.98 142.039 116.23 142.039 115.309C142.039 114.199 142.484 113.34 143.375 112.73C144.273 112.113 145.492 111.805 147.031 111.805C148.555 111.805 149.996 112.113 151.355 112.73L150.465 114.805C149.066 114.227 147.891 113.938 146.938 113.938C145.484 113.938 144.758 114.352 144.758 115.18C144.758 115.586 144.945 115.93 145.32 116.211C145.703 116.492 146.531 116.879 147.805 117.371C148.875 117.785 149.652 118.164 150.137 118.508C150.621 118.852 150.98 119.25 151.215 119.703C151.449 120.148 151.566 120.684 151.566 121.309ZM40.6133 156.008C41.2852 156.008 41.957 155.902 42.6289 155.691V157.766C42.3242 157.898 41.9297 158.008 41.4453 158.094C40.9688 158.188 40.4727 158.234 39.957 158.234C37.3477 158.234 36.043 156.859 36.043 154.109V147.125H34.2734V145.906L36.1719 144.898L37.1094 142.156H38.8086V145.039H42.5V147.125H38.8086V154.062C38.8086 154.727 38.9727 155.219 39.3008 155.539C39.6367 155.852 40.0742 156.008 40.6133 156.008ZM56.7266 151.496C56.7266 153.613 56.1836 155.266 55.0977 156.453C54.0117 157.641 52.5 158.234 50.5625 158.234C49.3516 158.234 48.2812 157.961 47.3516 157.414C46.4219 156.867 45.707 156.082 45.207 155.059C44.707 154.035 44.457 152.848 44.457 151.496C44.457 149.395 44.9961 147.754 46.0742 146.574C47.1523 145.395 48.6719 144.805 50.6328 144.805C52.5078 144.805 53.9922 145.41 55.0859 146.621C56.1797 147.824 56.7266 149.449 56.7266 151.496ZM47.293 151.496C47.293 154.488 48.3984 155.984 50.6094 155.984C52.7969 155.984 53.8906 154.488 53.8906 151.496C53.8906 148.535 52.7891 147.055 50.5859 147.055C49.4297 147.055 48.5898 147.438 48.0664 148.203C47.5508 148.969 47.293 150.066 47.293 151.496ZM66.4766 158.234C64.8359 158.234 63.5625 157.645 62.6562 156.465H62.4922C62.6016 157.559 62.6562 158.223 62.6562 158.457V163.766H59.9023V145.039H62.1289C62.1914 145.281 62.3203 145.859 62.5156 146.773H62.6562C63.5156 145.461 64.8047 144.805 66.5234 144.805C68.1406 144.805 69.3984 145.391 70.2969 146.562C71.2031 147.734 71.6562 149.379 71.6562 151.496C71.6562 153.613 71.1953 155.266 70.2734 156.453C69.3594 157.641 68.0938 158.234 66.4766 158.234ZM65.8086 147.055C64.7148 147.055 63.9141 147.375 63.4062 148.016C62.9062 148.656 62.6562 149.68 62.6562 151.086V151.496C62.6562 153.074 62.9062 154.219 63.4062 154.93C63.9062 155.633 64.7227 155.984 65.8555 155.984C66.8086 155.984 67.543 155.594 68.0586 154.812C68.5742 154.031 68.832 152.918 68.832 151.473C68.832 150.02 68.5742 148.922 68.0586 148.18C67.5508 147.43 66.8008 147.055 65.8086 147.055ZM87.6641 158.234C86.0234 158.234 84.75 157.645 83.8438 156.465H83.6797C83.7891 157.559 83.8438 158.223 83.8438 158.457V163.766H81.0898V145.039H83.3164C83.3789 145.281 83.5078 145.859 83.7031 146.773H83.8438C84.7031 145.461 85.9922 144.805 87.7109 144.805C89.3281 144.805 90.5859 145.391 91.4844 146.562C92.3906 147.734 92.8438 149.379 92.8438 151.496C92.8438 153.613 92.3828 155.266 91.4609 156.453C90.5469 157.641 89.2812 158.234 87.6641 158.234ZM86.9961 147.055C85.9023 147.055 85.1016 147.375 84.5938 148.016C84.0938 148.656 83.8438 149.68 83.8438 151.086V151.496C83.8438 153.074 84.0938 154.219 84.5938 154.93C85.0938 155.633 85.9102 155.984 87.043 155.984C87.9961 155.984 88.7305 155.594 89.2461 154.812C89.7617 154.031 90.0195 152.918 90.0195 151.473C90.0195 150.02 89.7617 148.922 89.2461 148.18C88.7383 147.43 87.9883 147.055 86.9961 147.055ZM102.617 144.805C103.172 144.805 103.629 144.844 103.988 144.922L103.719 147.488C103.328 147.395 102.922 147.348 102.5 147.348C101.398 147.348 100.504 147.707 99.8164 148.426C99.1367 149.145 98.7969 150.078 98.7969 151.227V158H96.043V145.039H98.1992L98.5625 147.324H98.7031C99.1328 146.551 99.6914 145.938 100.379 145.484C101.074 145.031 101.82 144.805 102.617 144.805ZM109.156 158H106.402V145.039H109.156V158ZM106.238 141.605C106.238 141.113 106.371 140.734 106.637 140.469C106.91 140.203 107.297 140.07 107.797 140.07C108.281 140.07 108.656 140.203 108.922 140.469C109.195 140.734 109.332 141.113 109.332 141.605C109.332 142.074 109.195 142.445 108.922 142.719C108.656 142.984 108.281 143.117 107.797 143.117C107.297 143.117 106.91 142.984 106.637 142.719C106.371 142.445 106.238 142.074 106.238 141.605ZM124.602 151.496C124.602 153.613 124.059 155.266 122.973 156.453C121.887 157.641 120.375 158.234 118.438 158.234C117.227 158.234 116.156 157.961 115.227 157.414C114.297 156.867 113.582 156.082 113.082 155.059C112.582 154.035 112.332 152.848 112.332 151.496C112.332 149.395 112.871 147.754 113.949 146.574C115.027 145.395 116.547 144.805 118.508 144.805C120.383 144.805 121.867 145.41 122.961 146.621C124.055 147.824 124.602 149.449 124.602 151.496ZM115.168 151.496C115.168 154.488 116.273 155.984 118.484 155.984C120.672 155.984 121.766 154.488 121.766 151.496C121.766 148.535 120.664 147.055 118.461 147.055C117.305 147.055 116.465 147.438 115.941 148.203C115.426 148.969 115.168 150.066 115.168 151.496ZM134.352 144.805C134.906 144.805 135.363 144.844 135.723 144.922L135.453 147.488C135.062 147.395 134.656 147.348 134.234 147.348C133.133 147.348 132.238 147.707 131.551 148.426C130.871 149.145 130.531 150.078 130.531 151.227V158H127.777V145.039H129.934L130.297 147.324H130.438C130.867 146.551 131.426 145.938 132.113 145.484C132.809 145.031 133.555 144.805 134.352 144.805ZM140.891 158H138.137V145.039H140.891V158ZM137.973 141.605C137.973 141.113 138.105 140.734 138.371 140.469C138.645 140.203 139.031 140.07 139.531 140.07C140.016 140.07 140.391 140.203 140.656 140.469C140.93 140.734 141.066 141.113 141.066 141.605C141.066 142.074 140.93 142.445 140.656 142.719C140.391 142.984 140.016 143.117 139.531 143.117C139.031 143.117 138.645 142.984 138.371 142.719C138.105 142.445 137.973 142.074 137.973 141.605ZM149.668 156.008C150.34 156.008 151.012 155.902 151.684 155.691V157.766C151.379 157.898 150.984 158.008 150.5 158.094C150.023 158.188 149.527 158.234 149.012 158.234C146.402 158.234 145.098 156.859 145.098 154.109V147.125H143.328V145.906L145.227 144.898L146.164 142.156H147.863V145.039H151.555V147.125H147.863V154.062C147.863 154.727 148.027 155.219 148.355 155.539C148.691 155.852 149.129 156.008 149.668 156.008ZM152.316 145.039H155.316L157.953 152.387C158.352 153.434 158.617 154.418 158.75 155.34H158.844C158.914 154.91 159.043 154.391 159.23 153.781C159.418 153.164 160.41 150.25 162.207 145.039H165.184L159.641 159.723C158.633 162.418 156.953 163.766 154.602 163.766C153.992 163.766 153.398 163.699 152.82 163.566V161.387C153.234 161.48 153.707 161.527 154.238 161.527C155.566 161.527 156.5 160.758 157.039 159.219L157.52 158L152.316 145.039Z" fill="#7F8499"/>
</g>
<defs>
<filter id="filter0_d" x="0" y="0" width="200" height="200" filterUnits="userSpaceOnUse" color-interpolation-filters="sRGB">
<feFlood flood-opacity="0" result="BackgroundImageFix"/>
<feColorMatrix in="SourceAlpha" type="matrix" values="0 0 0 0 0 0 0 0 0 0 0 0 0 0 0 0 0 0 127 0"/>
<feOffset dy="4"/>
<feGaussianBlur stdDeviation="5"/>
<feColorMatrix type="matrix" values="0 0 0 0 0 0 0 0 0 0 0 0 0 0 0 0 0 0 0.06 0"/>
<feBlend mode="normal" in2="BackgroundImageFix" result="effect1_dropShadow"/>
<feBlend mode="normal" in="SourceGraphic" in2="effect1_dropShadow" result="shape"/>
</filter>
</defs>
</svg>
