<svg width="200" height="200" viewBox="0 0 200 200" fill="none" xmlns="http://www.w3.org/2000/svg">
<g filter="url(#filter0_d)">
<rect x="10" y="6" width="180" height="180" rx="7.50936" fill="white"/>
<path d="M46.1064 76H44.0059V64.9521H40.2266V63.1504H49.8857V64.9521H46.1064V76ZM60.1953 76H58.1211V70.0234C58.1211 69.2734 57.9688 68.7139 57.6641 68.3447C57.3652 67.9756 56.8877 67.791 56.2314 67.791C55.3643 67.791 54.7256 68.0518 54.3154 68.5732C53.9111 69.0889 53.709 69.9561 53.709 71.1748V76H51.6436V62.3242H53.709V65.7959C53.709 66.3525 53.6738 66.9473 53.6035 67.5801H53.7354C54.0166 67.1113 54.4062 66.748 54.9043 66.4902C55.4082 66.2324 55.9941 66.1035 56.6621 66.1035C59.0176 66.1035 60.1953 67.29 60.1953 69.6631V76ZM67.3145 76.1758C65.8027 76.1758 64.6191 75.7363 63.7637 74.8574C62.9141 73.9727 62.4893 72.7568 62.4893 71.21C62.4893 69.6221 62.8848 68.374 63.6758 67.4658C64.4668 66.5576 65.5537 66.1035 66.9365 66.1035C68.2197 66.1035 69.2334 66.4932 69.9775 67.2725C70.7217 68.0518 71.0938 69.124 71.0938 70.4893V71.6055H64.6162C64.6455 72.5488 64.9004 73.2754 65.3809 73.7852C65.8613 74.2891 66.5381 74.541 67.4111 74.541C67.9854 74.541 68.5186 74.4883 69.0107 74.3828C69.5088 74.2715 70.042 74.0898 70.6104 73.8379V75.5166C70.1064 75.7568 69.5967 75.9268 69.0811 76.0264C68.5654 76.126 67.9766 76.1758 67.3145 76.1758ZM66.9365 67.668C66.2803 67.668 65.7529 67.876 65.3545 68.292C64.9619 68.708 64.7275 69.3145 64.6514 70.1113H69.0635C69.0518 69.3086 68.8584 68.7021 68.4834 68.292C68.1084 67.876 67.5928 67.668 66.9365 67.668ZM82.0361 76.1758C80.5654 76.1758 79.4463 75.748 78.6787 74.8926C77.917 74.0312 77.5361 72.7979 77.5361 71.1924C77.5361 69.5576 77.9346 68.3008 78.7314 67.4219C79.5342 66.543 80.6914 66.1035 82.2031 66.1035C83.2285 66.1035 84.1514 66.2939 84.9717 66.6748L84.3477 68.3359C83.4746 67.9961 82.7539 67.8262 82.1855 67.8262C80.5039 67.8262 79.6631 68.9424 79.6631 71.1748C79.6631 72.2646 79.8711 73.085 80.2871 73.6357C80.709 74.1807 81.3242 74.4531 82.1328 74.4531C83.0527 74.4531 83.9229 74.2246 84.7432 73.7676V75.5693C84.374 75.7861 83.9785 75.9414 83.5566 76.0352C83.1406 76.1289 82.6338 76.1758 82.0361 76.1758ZM89.0938 76H87.0283V62.3242H89.0938V76ZM98.1377 76L97.7246 74.6465H97.6543C97.1855 75.2383 96.7139 75.6426 96.2393 75.8594C95.7646 76.0703 95.1553 76.1758 94.4111 76.1758C93.4561 76.1758 92.709 75.918 92.1699 75.4023C91.6367 74.8867 91.3701 74.1572 91.3701 73.2139C91.3701 72.2119 91.7422 71.4561 92.4863 70.9463C93.2305 70.4365 94.3643 70.1582 95.8877 70.1113L97.5664 70.0586V69.54C97.5664 68.9189 97.4199 68.4561 97.127 68.1514C96.8398 67.8408 96.3916 67.6855 95.7822 67.6855C95.2842 67.6855 94.8066 67.7588 94.3496 67.9053C93.8926 68.0518 93.4531 68.2246 93.0312 68.4238L92.3633 66.9473C92.8906 66.6719 93.4678 66.4639 94.0947 66.3232C94.7217 66.1768 95.3135 66.1035 95.8701 66.1035C97.1064 66.1035 98.0381 66.373 98.665 66.9121C99.2979 67.4512 99.6143 68.2979 99.6143 69.4521V76H98.1377ZM95.0615 74.5938C95.8115 74.5938 96.4121 74.3857 96.8633 73.9697C97.3203 73.5479 97.5488 72.959 97.5488 72.2031V71.3594L96.3008 71.4121C95.3281 71.4473 94.6191 71.6113 94.1738 71.9043C93.7344 72.1914 93.5146 72.6338 93.5146 73.2314C93.5146 73.665 93.6436 74.002 93.9014 74.2422C94.1592 74.4766 94.5459 74.5938 95.0615 74.5938ZM109.027 73.2314C109.027 74.1807 108.682 74.9102 107.99 75.4199C107.299 75.9238 106.309 76.1758 105.02 76.1758C103.725 76.1758 102.685 75.9795 101.899 75.5869V73.8027C103.042 74.3301 104.105 74.5938 105.09 74.5938C106.361 74.5938 106.997 74.21 106.997 73.4424C106.997 73.1963 106.927 72.9912 106.786 72.8271C106.646 72.6631 106.414 72.4932 106.092 72.3174C105.77 72.1416 105.321 71.9424 104.747 71.7197C103.628 71.2861 102.869 70.8525 102.471 70.4189C102.078 69.9854 101.882 69.4229 101.882 68.7314C101.882 67.8994 102.216 67.2549 102.884 66.7979C103.558 66.335 104.472 66.1035 105.626 66.1035C106.769 66.1035 107.85 66.335 108.869 66.7979L108.201 68.3535C107.152 67.9199 106.271 67.7031 105.556 67.7031C104.466 67.7031 103.921 68.0137 103.921 68.6348C103.921 68.9395 104.062 69.1973 104.343 69.4082C104.63 69.6191 105.251 69.9092 106.206 70.2783C107.009 70.5889 107.592 70.873 107.955 71.1309C108.318 71.3887 108.588 71.6875 108.764 72.0273C108.939 72.3613 109.027 72.7627 109.027 73.2314ZM117.799 73.2314C117.799 74.1807 117.453 74.9102 116.762 75.4199C116.07 75.9238 115.08 76.1758 113.791 76.1758C112.496 76.1758 111.456 75.9795 110.671 75.5869V73.8027C111.813 74.3301 112.877 74.5938 113.861 74.5938C115.133 74.5938 115.769 74.21 115.769 73.4424C115.769 73.1963 115.698 72.9912 115.558 72.8271C115.417 72.6631 115.186 72.4932 114.863 72.3174C114.541 72.1416 114.093 71.9424 113.519 71.7197C112.399 71.2861 111.641 70.8525 111.242 70.4189C110.85 69.9854 110.653 69.4229 110.653 68.7314C110.653 67.8994 110.987 67.2549 111.655 66.7979C112.329 66.335 113.243 66.1035 114.397 66.1035C115.54 66.1035 116.621 66.335 117.641 66.7979L116.973 68.3535C115.924 67.9199 115.042 67.7031 114.327 67.7031C113.237 67.7031 112.692 68.0137 112.692 68.6348C112.692 68.9395 112.833 69.1973 113.114 69.4082C113.401 69.6191 114.022 69.9092 114.978 70.2783C115.78 70.5889 116.363 70.873 116.727 71.1309C117.09 71.3887 117.359 71.6875 117.535 72.0273C117.711 72.3613 117.799 72.7627 117.799 73.2314ZM126.781 76H124.716V66.2793H126.781V76ZM124.593 63.7041C124.593 63.335 124.692 63.0508 124.892 62.8516C125.097 62.6523 125.387 62.5527 125.762 62.5527C126.125 62.5527 126.406 62.6523 126.605 62.8516C126.811 63.0508 126.913 63.335 126.913 63.7041C126.913 64.0557 126.811 64.334 126.605 64.5391C126.406 64.7383 126.125 64.8379 125.762 64.8379C125.387 64.8379 125.097 64.7383 124.892 64.5391C124.692 64.334 124.593 64.0557 124.593 63.7041ZM136.273 73.2314C136.273 74.1807 135.928 74.9102 135.236 75.4199C134.545 75.9238 133.555 76.1758 132.266 76.1758C130.971 76.1758 129.931 75.9795 129.146 75.5869V73.8027C130.288 74.3301 131.352 74.5938 132.336 74.5938C133.607 74.5938 134.243 74.21 134.243 73.4424C134.243 73.1963 134.173 72.9912 134.032 72.8271C133.892 72.6631 133.66 72.4932 133.338 72.3174C133.016 72.1416 132.567 71.9424 131.993 71.7197C130.874 71.2861 130.115 70.8525 129.717 70.4189C129.324 69.9854 129.128 69.4229 129.128 68.7314C129.128 67.8994 129.462 67.2549 130.13 66.7979C130.804 66.335 131.718 66.1035 132.872 66.1035C134.015 66.1035 135.096 66.335 136.115 66.7979L135.447 68.3535C134.398 67.9199 133.517 67.7031 132.802 67.7031C131.712 67.7031 131.167 68.0137 131.167 68.6348C131.167 68.9395 131.308 69.1973 131.589 69.4082C131.876 69.6191 132.497 69.9092 133.452 70.2783C134.255 70.5889 134.838 70.873 135.201 71.1309C135.564 71.3887 135.834 71.6875 136.01 72.0273C136.186 72.3613 136.273 72.7627 136.273 73.2314ZM147.066 76H144.992V70.0234C144.992 69.2734 144.84 68.7139 144.535 68.3447C144.236 67.9756 143.759 67.791 143.103 67.791C142.229 67.791 141.591 68.0488 141.187 68.5645C140.782 69.0801 140.58 69.9443 140.58 71.1572V76H138.515V66.2793H140.132L140.422 67.5537H140.527C140.82 67.0908 141.236 66.7334 141.775 66.4814C142.314 66.2295 142.912 66.1035 143.568 66.1035C145.9 66.1035 147.066 67.29 147.066 69.6631V76ZM151.593 63.1504L151.725 63.3438C151.414 64.5684 150.898 65.9717 150.178 67.5537H148.684C149.088 65.8604 149.381 64.3926 149.562 63.1504H151.593ZM157.042 74.5059C157.546 74.5059 158.05 74.4268 158.554 74.2686V75.8242C158.325 75.9238 158.029 76.0059 157.666 76.0703C157.309 76.1406 156.937 76.1758 156.55 76.1758C154.593 76.1758 153.614 75.1445 153.614 73.082V67.8438H152.287V66.9297L153.711 66.1738L154.414 64.1172H155.688V66.2793H158.457V67.8438H155.688V73.0469C155.688 73.5449 155.812 73.9141 156.058 74.1543C156.31 74.3887 156.638 74.5059 157.042 74.5059ZM50.7031 98.2314C50.7031 99.1807 50.3574 99.9102 49.666 100.42C48.9746 100.924 47.9844 101.176 46.6953 101.176C45.4004 101.176 44.3604 100.979 43.5752 100.587V98.8027C44.7178 99.3301 45.7812 99.5938 46.7656 99.5938C48.0371 99.5938 48.6729 99.21 48.6729 98.4424C48.6729 98.1963 48.6025 97.9912 48.4619 97.8271C48.3213 97.6631 48.0898 97.4932 47.7676 97.3174C47.4453 97.1416 46.9971 96.9424 46.4229 96.7197C45.3037 96.2861 44.5449 95.8525 44.1465 95.4189C43.7539 94.9854 43.5576 94.4229 43.5576 93.7314C43.5576 92.8994 43.8916 92.2549 44.5596 91.7979C45.2334 91.335 46.1475 91.1035 47.3018 91.1035C48.4443 91.1035 49.5254 91.335 50.5449 91.7979L49.877 93.3535C48.8281 92.9199 47.9463 92.7031 47.2314 92.7031C46.1416 92.7031 45.5967 93.0137 45.5967 93.6348C45.5967 93.9395 45.7373 94.1973 46.0186 94.4082C46.3057 94.6191 46.9268 94.9092 47.8818 95.2783C48.6846 95.5889 49.2676 95.873 49.6309 96.1309C49.9941 96.3887 50.2637 96.6875 50.4395 97.0273C50.6152 97.3613 50.7031 97.7627 50.7031 98.2314ZM56.5654 99.5059C57.0693 99.5059 57.5732 99.4268 58.0771 99.2686V100.824C57.8486 100.924 57.5527 101.006 57.1895 101.07C56.832 101.141 56.46 101.176 56.0732 101.176C54.1162 101.176 53.1377 100.145 53.1377 98.082V92.8438H51.8105V91.9297L53.2344 91.1738L53.9375 89.1172H55.2119V91.2793H57.9805V92.8438H55.2119V98.0469C55.2119 98.5449 55.335 98.9141 55.5811 99.1543C55.833 99.3887 56.1611 99.5059 56.5654 99.5059ZM66.8838 101L66.5938 99.7256H66.4883C66.2012 100.177 65.791 100.531 65.2578 100.789C64.7305 101.047 64.127 101.176 63.4473 101.176C62.2695 101.176 61.3906 100.883 60.8105 100.297C60.2305 99.7109 59.9404 98.8232 59.9404 97.6338V91.2793H62.0234V97.2734C62.0234 98.0176 62.1758 98.5771 62.4805 98.9521C62.7852 99.3213 63.2627 99.5059 63.9131 99.5059C64.7803 99.5059 65.416 99.248 65.8203 98.7324C66.2305 98.2109 66.4355 97.3408 66.4355 96.1221V91.2793H68.5098V101H66.8838ZM74.7324 101.176C73.5195 101.176 72.5732 100.736 71.8936 99.8574C71.2139 98.9785 70.874 97.7451 70.874 96.1572C70.874 94.5635 71.2168 93.3242 71.9023 92.4395C72.5938 91.5488 73.5488 91.1035 74.7676 91.1035C76.0449 91.1035 77.0176 91.5752 77.6855 92.5186H77.791C77.6914 91.8213 77.6416 91.2705 77.6416 90.8662V87.3242H79.7158V101H78.0986L77.7383 99.7256H77.6416C76.9795 100.692 76.0098 101.176 74.7324 101.176ZM75.2861 99.5059C76.1357 99.5059 76.7539 99.2686 77.1406 98.7939C77.5273 98.3135 77.7266 97.5371 77.7383 96.4648V96.1748C77.7383 94.9502 77.5391 94.0801 77.1406 93.5645C76.7422 93.0488 76.1182 92.791 75.2686 92.791C74.542 92.791 73.9824 93.0869 73.5898 93.6787C73.1973 94.2646 73.001 95.1025 73.001 96.1924C73.001 97.2705 73.1914 98.0938 73.5723 98.6621C73.9531 99.2246 74.5244 99.5059 75.2861 99.5059ZM86.9141 101.176C85.4023 101.176 84.2188 100.736 83.3633 99.8574C82.5137 98.9727 82.0889 97.7568 82.0889 96.21C82.0889 94.6221 82.4844 93.374 83.2754 92.4658C84.0664 91.5576 85.1533 91.1035 86.5361 91.1035C87.8193 91.1035 88.833 91.4932 89.5771 92.2725C90.3213 93.0518 90.6934 94.124 90.6934 95.4893V96.6055H84.2158C84.2451 97.5488 84.5 98.2754 84.9805 98.7852C85.4609 99.2891 86.1377 99.541 87.0107 99.541C87.585 99.541 88.1182 99.4883 88.6104 99.3828C89.1084 99.2715 89.6416 99.0898 90.21 98.8379V100.517C89.7061 100.757 89.1963 100.927 88.6807 101.026C88.165 101.126 87.5762 101.176 86.9141 101.176ZM86.5361 92.668C85.8799 92.668 85.3525 92.876 84.9541 93.292C84.5615 93.708 84.3271 94.3145 84.251 95.1113H88.6631C88.6514 94.3086 88.458 93.7021 88.083 93.292C87.708 92.876 87.1924 92.668 86.5361 92.668ZM101.592 101H99.5176V95.0234C99.5176 94.2734 99.3652 93.7139 99.0605 93.3447C98.7617 92.9756 98.2842 92.791 97.6279 92.791C96.7549 92.791 96.1162 93.0488 95.7119 93.5645C95.3076 94.0801 95.1055 94.9443 95.1055 96.1572V101H93.04V91.2793H94.6572L94.9473 92.5537H95.0527C95.3457 92.0908 95.7617 91.7334 96.3008 91.4814C96.8398 91.2295 97.4375 91.1035 98.0938 91.1035C100.426 91.1035 101.592 92.29 101.592 94.6631V101ZM108.087 99.5059C108.591 99.5059 109.095 99.4268 109.599 99.2686V100.824C109.37 100.924 109.074 101.006 108.711 101.07C108.354 101.141 107.981 101.176 107.595 101.176C105.638 101.176 104.659 100.145 104.659 98.082V92.8438H103.332V91.9297L104.756 91.1738L105.459 89.1172H106.733V91.2793H109.502V92.8438H106.733V98.0469C106.733 98.5449 106.856 98.9141 107.103 99.1543C107.354 99.3887 107.683 99.5059 108.087 99.5059ZM113.202 88.1504L113.334 88.3438C113.023 89.5684 112.508 90.9717 111.787 92.5537H110.293C110.697 90.8604 110.99 89.3926 111.172 88.1504H113.202ZM121.561 98.2314C121.561 99.1807 121.215 99.9102 120.523 100.42C119.832 100.924 118.842 101.176 117.553 101.176C116.258 101.176 115.218 100.979 114.433 100.587V98.8027C115.575 99.3301 116.639 99.5938 117.623 99.5938C118.895 99.5938 119.53 99.21 119.53 98.4424C119.53 98.1963 119.46 97.9912 119.319 97.8271C119.179 97.6631 118.947 97.4932 118.625 97.3174C118.303 97.1416 117.854 96.9424 117.28 96.7197C116.161 96.2861 115.402 95.8525 115.004 95.4189C114.611 94.9854 114.415 94.4229 114.415 93.7314C114.415 92.8994 114.749 92.2549 115.417 91.7979C116.091 91.335 117.005 91.1035 118.159 91.1035C119.302 91.1035 120.383 91.335 121.402 91.7979L120.734 93.3535C119.686 92.9199 118.804 92.7031 118.089 92.7031C116.999 92.7031 116.454 93.0137 116.454 93.6348C116.454 93.9395 116.595 94.1973 116.876 94.4082C117.163 94.6191 117.784 94.9092 118.739 95.2783C119.542 95.5889 120.125 95.873 120.488 96.1309C120.852 96.3887 121.121 96.6875 121.297 97.0273C121.473 97.3613 121.561 97.7627 121.561 98.2314ZM132.099 99.5059C132.603 99.5059 133.106 99.4268 133.61 99.2686V100.824C133.382 100.924 133.086 101.006 132.723 101.07C132.365 101.141 131.993 101.176 131.606 101.176C129.649 101.176 128.671 100.145 128.671 98.082V92.8438H127.344V91.9297L128.768 91.1738L129.471 89.1172H130.745V91.2793H133.514V92.8438H130.745V98.0469C130.745 98.5449 130.868 98.9141 131.114 99.1543C131.366 99.3887 131.694 99.5059 132.099 99.5059ZM144.184 96.1221C144.184 97.71 143.776 98.9492 142.962 99.8398C142.147 100.73 141.014 101.176 139.561 101.176C138.652 101.176 137.85 100.971 137.152 100.561C136.455 100.15 135.919 99.5615 135.544 98.7939C135.169 98.0264 134.981 97.1357 134.981 96.1221C134.981 94.5459 135.386 93.3154 136.194 92.4307C137.003 91.5459 138.143 91.1035 139.613 91.1035C141.02 91.1035 142.133 91.5576 142.953 92.4658C143.773 93.3682 144.184 94.5869 144.184 96.1221ZM137.108 96.1221C137.108 98.3662 137.938 99.4883 139.596 99.4883C141.236 99.4883 142.057 98.3662 142.057 96.1221C142.057 93.9014 141.23 92.791 139.578 92.791C138.711 92.791 138.081 93.0781 137.688 93.6523C137.302 94.2266 137.108 95.0498 137.108 96.1221ZM151.496 101.176C150.266 101.176 149.311 100.733 148.631 99.8486H148.508C148.59 100.669 148.631 101.167 148.631 101.343V105.324H146.565V91.2793H148.235C148.282 91.4609 148.379 91.8945 148.525 92.5801H148.631C149.275 91.5957 150.242 91.1035 151.531 91.1035C152.744 91.1035 153.688 91.543 154.361 92.4219C155.041 93.3008 155.381 94.5342 155.381 96.1221C155.381 97.71 155.035 98.9492 154.344 99.8398C153.658 100.73 152.709 101.176 151.496 101.176ZM150.995 92.791C150.175 92.791 149.574 93.0312 149.193 93.5117C148.818 93.9922 148.631 94.7598 148.631 95.8145V96.1221C148.631 97.3057 148.818 98.1641 149.193 98.6973C149.568 99.2246 150.181 99.4883 151.03 99.4883C151.745 99.4883 152.296 99.1953 152.683 98.6094C153.069 98.0234 153.263 97.1885 153.263 96.1045C153.263 95.0146 153.069 94.1914 152.683 93.6348C152.302 93.0723 151.739 92.791 150.995 92.791ZM73.6338 126.176C72.4033 126.176 71.4482 125.733 70.7686 124.849H70.6455C70.7275 125.669 70.7686 126.167 70.7686 126.343V130.324H68.7031V116.279H70.373C70.4199 116.461 70.5166 116.895 70.6631 117.58H70.7686C71.4131 116.596 72.3799 116.104 73.6689 116.104C74.8818 116.104 75.8252 116.543 76.499 117.422C77.1787 118.301 77.5186 119.534 77.5186 121.122C77.5186 122.71 77.1729 123.949 76.4814 124.84C75.7959 125.73 74.8467 126.176 73.6338 126.176ZM73.1328 117.791C72.3125 117.791 71.7119 118.031 71.3311 118.512C70.9561 118.992 70.7686 119.76 70.7686 120.814V121.122C70.7686 122.306 70.9561 123.164 71.3311 123.697C71.7061 124.225 72.3184 124.488 73.168 124.488C73.8828 124.488 74.4336 124.195 74.8203 123.609C75.207 123.023 75.4004 122.188 75.4004 121.104C75.4004 120.015 75.207 119.191 74.8203 118.635C74.4395 118.072 73.877 117.791 73.1328 117.791ZM84.8486 116.104C85.2646 116.104 85.6074 116.133 85.877 116.191L85.6748 118.116C85.3818 118.046 85.0771 118.011 84.7607 118.011C83.9346 118.011 83.2637 118.28 82.748 118.819C82.2383 119.358 81.9834 120.059 81.9834 120.92V126H79.918V116.279H81.5352L81.8076 117.993H81.9131C82.2354 117.413 82.6543 116.953 83.1699 116.613C83.6914 116.273 84.251 116.104 84.8486 116.104ZM89.7529 126H87.6875V116.279H89.7529V126ZM87.5645 113.704C87.5645 113.335 87.6641 113.051 87.8633 112.852C88.0684 112.652 88.3584 112.553 88.7334 112.553C89.0967 112.553 89.3779 112.652 89.5771 112.852C89.7822 113.051 89.8848 113.335 89.8848 113.704C89.8848 114.056 89.7822 114.334 89.5771 114.539C89.3779 114.738 89.0967 114.838 88.7334 114.838C88.3584 114.838 88.0684 114.738 87.8633 114.539C87.6641 114.334 87.5645 114.056 87.5645 113.704ZM101.337 121.122C101.337 122.71 100.93 123.949 100.115 124.84C99.3008 125.73 98.167 126.176 96.7139 126.176C95.8057 126.176 95.0029 125.971 94.3057 125.561C93.6084 125.15 93.0723 124.562 92.6973 123.794C92.3223 123.026 92.1348 122.136 92.1348 121.122C92.1348 119.546 92.5391 118.315 93.3477 117.431C94.1562 116.546 95.2959 116.104 96.7666 116.104C98.1729 116.104 99.2861 116.558 100.106 117.466C100.927 118.368 101.337 119.587 101.337 121.122ZM94.2617 121.122C94.2617 123.366 95.0908 124.488 96.749 124.488C98.3896 124.488 99.21 123.366 99.21 121.122C99.21 118.901 98.3838 117.791 96.7314 117.791C95.8643 117.791 95.2344 118.078 94.8418 118.652C94.4551 119.227 94.2617 120.05 94.2617 121.122ZM108.649 116.104C109.065 116.104 109.408 116.133 109.678 116.191L109.476 118.116C109.183 118.046 108.878 118.011 108.562 118.011C107.735 118.011 107.064 118.28 106.549 118.819C106.039 119.358 105.784 120.059 105.784 120.92V126H103.719V116.279H105.336L105.608 117.993H105.714C106.036 117.413 106.455 116.953 106.971 116.613C107.492 116.273 108.052 116.104 108.649 116.104ZM113.554 126H111.488V116.279H113.554V126ZM111.365 113.704C111.365 113.335 111.465 113.051 111.664 112.852C111.869 112.652 112.159 112.553 112.534 112.553C112.897 112.553 113.179 112.652 113.378 112.852C113.583 113.051 113.686 113.335 113.686 113.704C113.686 114.056 113.583 114.334 113.378 114.539C113.179 114.738 112.897 114.838 112.534 114.838C112.159 114.838 111.869 114.738 111.664 114.539C111.465 114.334 111.365 114.056 111.365 113.704ZM120.137 124.506C120.641 124.506 121.145 124.427 121.648 124.269V125.824C121.42 125.924 121.124 126.006 120.761 126.07C120.403 126.141 120.031 126.176 119.645 126.176C117.688 126.176 116.709 125.145 116.709 123.082V117.844H115.382V116.93L116.806 116.174L117.509 114.117H118.783V116.279H121.552V117.844H118.783V123.047C118.783 123.545 118.906 123.914 119.152 124.154C119.404 124.389 119.732 124.506 120.137 124.506ZM122.123 116.279H124.373L126.351 121.79C126.649 122.575 126.849 123.313 126.948 124.005H127.019C127.071 123.683 127.168 123.293 127.309 122.836C127.449 122.373 128.193 120.188 129.541 116.279H131.773L127.616 127.292C126.86 129.313 125.601 130.324 123.837 130.324C123.38 130.324 122.935 130.274 122.501 130.175V128.54C122.812 128.61 123.166 128.646 123.564 128.646C124.561 128.646 125.261 128.068 125.665 126.914L126.025 126L122.123 116.279Z" fill="#7F8499"/>
</g>
<defs>
<filter id="filter0_d" x="0" y="0" width="200" height="200" filterUnits="userSpaceOnUse" color-interpolation-filters="sRGB">
<feFlood flood-opacity="0" result="BackgroundImageFix"/>
<feColorMatrix in="SourceAlpha" type="matrix" values="0 0 0 0 0 0 0 0 0 0 0 0 0 0 0 0 0 0 127 0"/>
<feOffset dy="4"/>
<feGaussianBlur stdDeviation="5"/>
<feColorMatrix type="matrix" values="0 0 0 0 0 0 0 0 0 0 0 0 0 0 0 0 0 0 0.06 0"/>
<feBlend mode="normal" in2="BackgroundImageFix" result="effect1_dropShadow"/>
<feBlend mode="normal" in="SourceGraphic" in2="effect1_dropShadow" result="shape"/>
</filter>
</defs>
</svg>
