<svg width="200" height="200" viewBox="0 0 200 200" fill="none" xmlns="http://www.w3.org/2000/svg">
<g filter="url(#filter0_d)">
<rect x="10" y="6" width="180" height="180" rx="7.50936" fill="white"/>
<path d="M68.6035 72.5107C68.6035 73.6533 68.1904 74.5498 67.3643 75.2002C66.5381 75.8506 65.3984 76.1758 63.9453 76.1758C62.4922 76.1758 61.3027 75.9502 60.377 75.499V73.5127C60.9629 73.7881 61.584 74.0049 62.2402 74.1631C62.9023 74.3213 63.5176 74.4004 64.0859 74.4004C64.918 74.4004 65.5303 74.2422 65.9229 73.9258C66.3213 73.6094 66.5205 73.1846 66.5205 72.6514C66.5205 72.1709 66.3389 71.7637 65.9756 71.4297C65.6123 71.0957 64.8623 70.7002 63.7256 70.2432C62.5537 69.7686 61.7275 69.2266 61.2471 68.6172C60.7666 68.0078 60.5264 67.2754 60.5264 66.4199C60.5264 65.3477 60.9072 64.5039 61.6689 63.8887C62.4307 63.2734 63.4531 62.9658 64.7363 62.9658C65.9668 62.9658 67.1914 63.2354 68.4102 63.7744L67.7422 65.4883C66.5996 65.0078 65.5801 64.7676 64.6836 64.7676C64.0039 64.7676 63.4883 64.917 63.1367 65.2158C62.7852 65.5088 62.6094 65.8984 62.6094 66.3848C62.6094 66.7188 62.6797 67.0059 62.8203 67.2461C62.9609 67.4805 63.1924 67.7031 63.5146 67.9141C63.8369 68.125 64.417 68.4033 65.2549 68.749C66.1982 69.1416 66.8896 69.5078 67.3291 69.8477C67.7686 70.1875 68.0908 70.5713 68.2959 70.999C68.501 71.4268 68.6035 71.9307 68.6035 72.5107ZM74.4922 74.5059C74.9961 74.5059 75.5 74.4268 76.0039 74.2686V75.8242C75.7754 75.9238 75.4795 76.0059 75.1162 76.0703C74.7588 76.1406 74.3867 76.1758 74 76.1758C72.043 76.1758 71.0645 75.1445 71.0645 73.082V67.8438H69.7373V66.9297L71.1611 66.1738L71.8643 64.1172H73.1387V66.2793H75.9072V67.8438H73.1387V73.0469C73.1387 73.5449 73.2617 73.9141 73.5078 74.1543C73.7598 74.3887 74.0879 74.5059 74.4922 74.5059ZM84.8105 76L84.5205 74.7256H84.415C84.1279 75.1768 83.7178 75.5312 83.1846 75.7891C82.6572 76.0469 82.0537 76.1758 81.374 76.1758C80.1963 76.1758 79.3174 75.8828 78.7373 75.2969C78.1572 74.7109 77.8672 73.8232 77.8672 72.6338V66.2793H79.9502V72.2734C79.9502 73.0176 80.1025 73.5771 80.4072 73.9521C80.7119 74.3213 81.1895 74.5059 81.8398 74.5059C82.707 74.5059 83.3428 74.248 83.7471 73.7324C84.1572 73.2109 84.3623 72.3408 84.3623 71.1221V66.2793H86.4365V76H84.8105ZM92.6592 76.1758C91.4463 76.1758 90.5 75.7363 89.8203 74.8574C89.1406 73.9785 88.8008 72.7451 88.8008 71.1572C88.8008 69.5635 89.1436 68.3242 89.8291 67.4395C90.5205 66.5488 91.4756 66.1035 92.6943 66.1035C93.9717 66.1035 94.9443 66.5752 95.6123 67.5186H95.7178C95.6182 66.8213 95.5684 66.2705 95.5684 65.8662V62.3242H97.6426V76H96.0254L95.665 74.7256H95.5684C94.9062 75.6924 93.9365 76.1758 92.6592 76.1758ZM93.2129 74.5059C94.0625 74.5059 94.6807 74.2686 95.0674 73.7939C95.4541 73.3135 95.6533 72.5371 95.665 71.4648V71.1748C95.665 69.9502 95.4658 69.0801 95.0674 68.5645C94.6689 68.0488 94.0449 67.791 93.1953 67.791C92.4688 67.791 91.9092 68.0869 91.5166 68.6787C91.124 69.2646 90.9277 70.1025 90.9277 71.1924C90.9277 72.2705 91.1182 73.0938 91.499 73.6621C91.8799 74.2246 92.4512 74.5059 93.2129 74.5059ZM104.841 76.1758C103.329 76.1758 102.146 75.7363 101.29 74.8574C100.44 73.9727 100.016 72.7568 100.016 71.21C100.016 69.6221 100.411 68.374 101.202 67.4658C101.993 66.5576 103.08 66.1035 104.463 66.1035C105.746 66.1035 106.76 66.4932 107.504 67.2725C108.248 68.0518 108.62 69.124 108.62 70.4893V71.6055H102.143C102.172 72.5488 102.427 73.2754 102.907 73.7852C103.388 74.2891 104.064 74.541 104.938 74.541C105.512 74.541 106.045 74.4883 106.537 74.3828C107.035 74.2715 107.568 74.0898 108.137 73.8379V75.5166C107.633 75.7568 107.123 75.9268 106.607 76.0264C106.092 76.126 105.503 76.1758 104.841 76.1758ZM104.463 67.668C103.807 67.668 103.279 67.876 102.881 68.292C102.488 68.708 102.254 69.3145 102.178 70.1113H106.59C106.578 69.3086 106.385 68.7021 106.01 68.292C105.635 67.876 105.119 67.668 104.463 67.668ZM119.519 76H117.444V70.0234C117.444 69.2734 117.292 68.7139 116.987 68.3447C116.688 67.9756 116.211 67.791 115.555 67.791C114.682 67.791 114.043 68.0488 113.639 68.5645C113.234 69.0801 113.032 69.9443 113.032 71.1572V76H110.967V66.2793H112.584L112.874 67.5537H112.979C113.272 67.0908 113.688 66.7334 114.228 66.4814C114.767 66.2295 115.364 66.1035 116.021 66.1035C118.353 66.1035 119.519 67.29 119.519 69.6631V76ZM126.014 74.5059C126.518 74.5059 127.021 74.4268 127.525 74.2686V75.8242C127.297 75.9238 127.001 76.0059 126.638 76.0703C126.28 76.1406 125.908 76.1758 125.521 76.1758C123.564 76.1758 122.586 75.1445 122.586 73.082V67.8438H121.259V66.9297L122.683 66.1738L123.386 64.1172H124.66V66.2793H127.429V67.8438H124.66V73.0469C124.66 73.5449 124.783 73.9141 125.029 74.1543C125.281 74.3887 125.609 74.5059 126.014 74.5059ZM131.129 63.1504L131.261 63.3438C130.95 64.5684 130.435 65.9717 129.714 67.5537H128.22C128.624 65.8604 128.917 64.3926 129.099 63.1504H131.129ZM139.487 73.2314C139.487 74.1807 139.142 74.9102 138.45 75.4199C137.759 75.9238 136.769 76.1758 135.479 76.1758C134.185 76.1758 133.145 75.9795 132.359 75.5869V73.8027C133.502 74.3301 134.565 74.5938 135.55 74.5938C136.821 74.5938 137.457 74.21 137.457 73.4424C137.457 73.1963 137.387 72.9912 137.246 72.8271C137.105 72.6631 136.874 72.4932 136.552 72.3174C136.229 72.1416 135.781 71.9424 135.207 71.7197C134.088 71.2861 133.329 70.8525 132.931 70.4189C132.538 69.9854 132.342 69.4229 132.342 68.7314C132.342 67.8994 132.676 67.2549 133.344 66.7979C134.018 66.335 134.932 66.1035 136.086 66.1035C137.229 66.1035 138.31 66.335 139.329 66.7979L138.661 68.3535C137.612 67.9199 136.73 67.7031 136.016 67.7031C134.926 67.7031 134.381 68.0137 134.381 68.6348C134.381 68.9395 134.521 69.1973 134.803 69.4082C135.09 69.6191 135.711 69.9092 136.666 70.2783C137.469 70.5889 138.052 70.873 138.415 71.1309C138.778 71.3887 139.048 71.6875 139.224 72.0273C139.399 72.3613 139.487 72.7627 139.487 73.2314ZM63.251 101.176C61.7803 101.176 60.6611 100.748 59.8936 99.8926C59.1318 99.0312 58.751 97.7979 58.751 96.1924C58.751 94.5576 59.1494 93.3008 59.9463 92.4219C60.749 91.543 61.9062 91.1035 63.418 91.1035C64.4434 91.1035 65.3662 91.2939 66.1865 91.6748L65.5625 93.3359C64.6895 92.9961 63.9688 92.8262 63.4004 92.8262C61.7188 92.8262 60.8779 93.9424 60.8779 96.1748C60.8779 97.2646 61.0859 98.085 61.502 98.6357C61.9238 99.1807 62.5391 99.4531 63.3477 99.4531C64.2676 99.4531 65.1377 99.2246 65.958 98.7676V100.569C65.5889 100.786 65.1934 100.941 64.7715 101.035C64.3555 101.129 63.8486 101.176 63.251 101.176ZM74.3252 101L73.9121 99.6465H73.8418C73.373 100.238 72.9014 100.643 72.4268 100.859C71.9521 101.07 71.3428 101.176 70.5986 101.176C69.6436 101.176 68.8965 100.918 68.3574 100.402C67.8242 99.8867 67.5576 99.1572 67.5576 98.2139C67.5576 97.2119 67.9297 96.4561 68.6738 95.9463C69.418 95.4365 70.5518 95.1582 72.0752 95.1113L73.7539 95.0586V94.54C73.7539 93.9189 73.6074 93.4561 73.3145 93.1514C73.0273 92.8408 72.5791 92.6855 71.9697 92.6855C71.4717 92.6855 70.9941 92.7588 70.5371 92.9053C70.0801 93.0518 69.6406 93.2246 69.2188 93.4238L68.5508 91.9473C69.0781 91.6719 69.6553 91.4639 70.2822 91.3232C70.9092 91.1768 71.501 91.1035 72.0576 91.1035C73.2939 91.1035 74.2256 91.373 74.8525 91.9121C75.4854 92.4512 75.8018 93.2979 75.8018 94.4521V101H74.3252ZM71.249 99.5938C71.999 99.5938 72.5996 99.3857 73.0508 98.9697C73.5078 98.5479 73.7363 97.959 73.7363 97.2031V96.3594L72.4883 96.4121C71.5156 96.4473 70.8066 96.6113 70.3613 96.9043C69.9219 97.1914 69.7021 97.6338 69.7021 98.2314C69.7021 98.665 69.8311 99.002 70.0889 99.2422C70.3467 99.4766 70.7334 99.5938 71.249 99.5938ZM83.6152 101.176C82.3848 101.176 81.4297 100.733 80.75 99.8486H80.627C80.709 100.669 80.75 101.167 80.75 101.343V105.324H78.6846V91.2793H80.3545C80.4014 91.4609 80.498 91.8945 80.6445 92.5801H80.75C81.3945 91.5957 82.3613 91.1035 83.6504 91.1035C84.8633 91.1035 85.8066 91.543 86.4805 92.4219C87.1602 93.3008 87.5 94.5342 87.5 96.1221C87.5 97.71 87.1543 98.9492 86.4629 99.8398C85.7773 100.73 84.8281 101.176 83.6152 101.176ZM83.1143 92.791C82.2939 92.791 81.6934 93.0312 81.3125 93.5117C80.9375 93.9922 80.75 94.7598 80.75 95.8145V96.1221C80.75 97.3057 80.9375 98.1641 81.3125 98.6973C81.6875 99.2246 82.2998 99.4883 83.1494 99.4883C83.8643 99.4883 84.415 99.1953 84.8018 98.6094C85.1885 98.0234 85.3818 97.1885 85.3818 96.1045C85.3818 95.0146 85.1885 94.1914 84.8018 93.6348C84.4209 93.0723 83.8584 92.791 83.1143 92.791ZM95.9814 101L95.5684 99.6465H95.498C95.0293 100.238 94.5576 100.643 94.083 100.859C93.6084 101.07 92.999 101.176 92.2549 101.176C91.2998 101.176 90.5527 100.918 90.0137 100.402C89.4805 99.8867 89.2139 99.1572 89.2139 98.2139C89.2139 97.2119 89.5859 96.4561 90.3301 95.9463C91.0742 95.4365 92.208 95.1582 93.7314 95.1113L95.4102 95.0586V94.54C95.4102 93.9189 95.2637 93.4561 94.9707 93.1514C94.6836 92.8408 94.2354 92.6855 93.626 92.6855C93.1279 92.6855 92.6504 92.7588 92.1934 92.9053C91.7363 93.0518 91.2969 93.2246 90.875 93.4238L90.207 91.9473C90.7344 91.6719 91.3115 91.4639 91.9385 91.3232C92.5654 91.1768 93.1572 91.1035 93.7139 91.1035C94.9502 91.1035 95.8818 91.373 96.5088 91.9121C97.1416 92.4512 97.458 93.2979 97.458 94.4521V101H95.9814ZM92.9053 99.5938C93.6553 99.5938 94.2559 99.3857 94.707 98.9697C95.1641 98.5479 95.3926 97.959 95.3926 97.2031V96.3594L94.1445 96.4121C93.1719 96.4473 92.4629 96.6113 92.0176 96.9043C91.5781 97.1914 91.3584 97.6338 91.3584 98.2314C91.3584 98.665 91.4873 99.002 91.7451 99.2422C92.0029 99.4766 92.3896 99.5938 92.9053 99.5938ZM105.307 91.1035C106.52 91.1035 107.463 91.543 108.137 92.4219C108.816 93.3008 109.156 94.5342 109.156 96.1221C109.156 97.7158 108.813 98.958 108.128 99.8486C107.442 100.733 106.49 101.176 105.271 101.176C104.041 101.176 103.086 100.733 102.406 99.8486H102.266L101.888 101H100.341V87.3242H102.406V90.5762C102.406 90.8164 102.395 91.1738 102.371 91.6484C102.348 92.123 102.33 92.4248 102.318 92.5537H102.406C103.062 91.5869 104.029 91.1035 105.307 91.1035ZM104.771 92.791C103.938 92.791 103.338 93.0371 102.969 93.5293C102.605 94.0156 102.418 94.833 102.406 95.9814V96.1221C102.406 97.3057 102.594 98.1641 102.969 98.6973C103.344 99.2246 103.956 99.4883 104.806 99.4883C105.538 99.4883 106.092 99.1982 106.467 98.6182C106.848 98.0381 107.038 97.2002 107.038 96.1045C107.038 93.8955 106.282 92.791 104.771 92.791ZM113.621 101H111.556V91.2793H113.621V101ZM111.433 88.7041C111.433 88.335 111.532 88.0508 111.731 87.8516C111.937 87.6523 112.227 87.5527 112.602 87.5527C112.965 87.5527 113.246 87.6523 113.445 87.8516C113.65 88.0508 113.753 88.335 113.753 88.7041C113.753 89.0557 113.65 89.334 113.445 89.5391C113.246 89.7383 112.965 89.8379 112.602 89.8379C112.227 89.8379 111.937 89.7383 111.731 89.5391C111.532 89.334 111.433 89.0557 111.433 88.7041ZM118.648 101H116.583V87.3242H118.648V101ZM123.676 101H121.61V91.2793H123.676V101ZM121.487 88.7041C121.487 88.335 121.587 88.0508 121.786 87.8516C121.991 87.6523 122.281 87.5527 122.656 87.5527C123.02 87.5527 123.301 87.6523 123.5 87.8516C123.705 88.0508 123.808 88.335 123.808 88.7041C123.808 89.0557 123.705 89.334 123.5 89.5391C123.301 89.7383 123.02 89.8379 122.656 89.8379C122.281 89.8379 121.991 89.7383 121.786 89.5391C121.587 89.334 121.487 89.0557 121.487 88.7041ZM130.259 99.5059C130.763 99.5059 131.267 99.4268 131.771 99.2686V100.824C131.542 100.924 131.246 101.006 130.883 101.07C130.525 101.141 130.153 101.176 129.767 101.176C127.81 101.176 126.831 100.145 126.831 98.082V92.8438H125.504V91.9297L126.928 91.1738L127.631 89.1172H128.905V91.2793H131.674V92.8438H128.905V98.0469C128.905 98.5449 129.028 98.9141 129.274 99.1543C129.526 99.3887 129.854 99.5059 130.259 99.5059ZM132.245 91.2793H134.495L136.473 96.79C136.771 97.5752 136.971 98.3135 137.07 99.0049H137.141C137.193 98.6826 137.29 98.293 137.431 97.8359C137.571 97.373 138.315 95.1875 139.663 91.2793H141.896L137.738 102.292C136.982 104.313 135.723 105.324 133.959 105.324C133.502 105.324 133.057 105.274 132.623 105.175V103.54C132.934 103.61 133.288 103.646 133.687 103.646C134.683 103.646 135.383 103.068 135.787 101.914L136.147 101L132.245 91.2793ZM77.5596 126L73.8682 116.279H76.0479L78.0254 121.931C78.3652 122.88 78.5703 123.647 78.6406 124.233H78.7109C78.7637 123.812 78.9688 123.044 79.3262 121.931L81.3037 116.279H83.501L79.792 126H77.5596ZM91.0596 126L90.6465 124.646H90.5762C90.1074 125.238 89.6357 125.643 89.1611 125.859C88.6865 126.07 88.0771 126.176 87.333 126.176C86.3779 126.176 85.6309 125.918 85.0918 125.402C84.5586 124.887 84.292 124.157 84.292 123.214C84.292 122.212 84.6641 121.456 85.4082 120.946C86.1523 120.437 87.2861 120.158 88.8096 120.111L90.4883 120.059V119.54C90.4883 118.919 90.3418 118.456 90.0488 118.151C89.7617 117.841 89.3135 117.686 88.7041 117.686C88.2061 117.686 87.7285 117.759 87.2715 117.905C86.8145 118.052 86.375 118.225 85.9531 118.424L85.2852 116.947C85.8125 116.672 86.3896 116.464 87.0166 116.323C87.6436 116.177 88.2354 116.104 88.792 116.104C90.0283 116.104 90.96 116.373 91.5869 116.912C92.2197 117.451 92.5361 118.298 92.5361 119.452V126H91.0596ZM87.9834 124.594C88.7334 124.594 89.334 124.386 89.7852 123.97C90.2422 123.548 90.4707 122.959 90.4707 122.203V121.359L89.2227 121.412C88.25 121.447 87.541 121.611 87.0957 121.904C86.6562 122.191 86.4365 122.634 86.4365 123.231C86.4365 123.665 86.5654 124.002 86.8232 124.242C87.0811 124.477 87.4678 124.594 87.9834 124.594ZM100.35 116.104C100.766 116.104 101.108 116.133 101.378 116.191L101.176 118.116C100.883 118.046 100.578 118.011 100.262 118.011C99.4355 118.011 98.7646 118.28 98.249 118.819C97.7393 119.358 97.4844 120.059 97.4844 120.92V126H95.4189V116.279H97.0361L97.3086 117.993H97.4141C97.7363 117.413 98.1553 116.953 98.6709 116.613C99.1924 116.273 99.752 116.104 100.35 116.104ZM105.254 126H103.188V116.279H105.254V126ZM103.065 113.704C103.065 113.335 103.165 113.051 103.364 112.852C103.569 112.652 103.859 112.553 104.234 112.553C104.598 112.553 104.879 112.652 105.078 112.852C105.283 113.051 105.386 113.335 105.386 113.704C105.386 114.056 105.283 114.334 105.078 114.539C104.879 114.738 104.598 114.838 104.234 114.838C103.859 114.838 103.569 114.738 103.364 114.539C103.165 114.334 103.065 114.056 103.065 113.704ZM112.461 126.176C110.949 126.176 109.766 125.736 108.91 124.857C108.061 123.973 107.636 122.757 107.636 121.21C107.636 119.622 108.031 118.374 108.822 117.466C109.613 116.558 110.7 116.104 112.083 116.104C113.366 116.104 114.38 116.493 115.124 117.272C115.868 118.052 116.24 119.124 116.24 120.489V121.605H109.763C109.792 122.549 110.047 123.275 110.527 123.785C111.008 124.289 111.685 124.541 112.558 124.541C113.132 124.541 113.665 124.488 114.157 124.383C114.655 124.271 115.188 124.09 115.757 123.838V125.517C115.253 125.757 114.743 125.927 114.228 126.026C113.712 126.126 113.123 126.176 112.461 126.176ZM112.083 117.668C111.427 117.668 110.899 117.876 110.501 118.292C110.108 118.708 109.874 119.314 109.798 120.111H114.21C114.198 119.309 114.005 118.702 113.63 118.292C113.255 117.876 112.739 117.668 112.083 117.668ZM125.117 123.231C125.117 124.181 124.771 124.91 124.08 125.42C123.389 125.924 122.398 126.176 121.109 126.176C119.814 126.176 118.774 125.979 117.989 125.587V123.803C119.132 124.33 120.195 124.594 121.18 124.594C122.451 124.594 123.087 124.21 123.087 123.442C123.087 123.196 123.017 122.991 122.876 122.827C122.735 122.663 122.504 122.493 122.182 122.317C121.859 122.142 121.411 121.942 120.837 121.72C119.718 121.286 118.959 120.853 118.561 120.419C118.168 119.985 117.972 119.423 117.972 118.731C117.972 117.899 118.306 117.255 118.974 116.798C119.647 116.335 120.562 116.104 121.716 116.104C122.858 116.104 123.939 116.335 124.959 116.798L124.291 118.354C123.242 117.92 122.36 117.703 121.646 117.703C120.556 117.703 120.011 118.014 120.011 118.635C120.011 118.939 120.151 119.197 120.433 119.408C120.72 119.619 121.341 119.909 122.296 120.278C123.099 120.589 123.682 120.873 124.045 121.131C124.408 121.389 124.678 121.688 124.854 122.027C125.029 122.361 125.117 122.763 125.117 123.231Z" fill="#7F8499"/>
</g>
<defs>
<filter id="filter0_d" x="0" y="0" width="200" height="200" filterUnits="userSpaceOnUse" color-interpolation-filters="sRGB">
<feFlood flood-opacity="0" result="BackgroundImageFix"/>
<feColorMatrix in="SourceAlpha" type="matrix" values="0 0 0 0 0 0 0 0 0 0 0 0 0 0 0 0 0 0 127 0"/>
<feOffset dy="4"/>
<feGaussianBlur stdDeviation="5"/>
<feColorMatrix type="matrix" values="0 0 0 0 0 0 0 0 0 0 0 0 0 0 0 0 0 0 0.06 0"/>
<feBlend mode="normal" in2="BackgroundImageFix" result="effect1_dropShadow"/>
<feBlend mode="normal" in="SourceGraphic" in2="effect1_dropShadow" result="shape"/>
</filter>
</defs>
</svg>
