<svg width="200" height="200" viewBox="0 0 200 200" fill="none" xmlns="http://www.w3.org/2000/svg">
<g filter="url(#filter0_d)">
<rect x="10" y="6" width="180" height="180" rx="7.50936" fill="white"/>
<path d="M58.1797 71.3477C58.1797 72.8711 57.6289 74.0664 56.5273 74.9336C55.4258 75.8008 53.9062 76.2344 51.9688 76.2344C50.0312 76.2344 48.4453 75.9336 47.2109 75.332V72.6836C47.9922 73.0508 48.8203 73.3398 49.6953 73.5508C50.5781 73.7617 51.3984 73.8672 52.1562 73.8672C53.2656 73.8672 54.082 73.6562 54.6055 73.2344C55.1367 72.8125 55.4023 72.2461 55.4023 71.5352C55.4023 70.8945 55.1602 70.3516 54.6758 69.9062C54.1914 69.4609 53.1914 68.9336 51.6758 68.3242C50.1133 67.6914 49.0117 66.9688 48.3711 66.1562C47.7305 65.3438 47.4102 64.3672 47.4102 63.2266C47.4102 61.7969 47.918 60.6719 48.9336 59.8516C49.9492 59.0312 51.3125 58.6211 53.0234 58.6211C54.6641 58.6211 56.2969 58.9805 57.9219 59.6992L57.0312 61.9844C55.5078 61.3438 54.1484 61.0234 52.9531 61.0234C52.0469 61.0234 51.3594 61.2227 50.8906 61.6211C50.4219 62.0117 50.1875 62.5312 50.1875 63.1797C50.1875 63.625 50.2812 64.0078 50.4688 64.3281C50.6562 64.6406 50.9648 64.9375 51.3945 65.2188C51.8242 65.5 52.5977 65.8711 53.7148 66.332C54.9727 66.8555 55.8945 67.3438 56.4805 67.7969C57.0664 68.25 57.4961 68.7617 57.7695 69.332C58.043 69.9023 58.1797 70.5742 58.1797 71.3477ZM66.0312 74.0078C66.7031 74.0078 67.375 73.9023 68.0469 73.6914V75.7656C67.7422 75.8984 67.3477 76.0078 66.8633 76.0938C66.3867 76.1875 65.8906 76.2344 65.375 76.2344C62.7656 76.2344 61.4609 74.8594 61.4609 72.1094V65.125H59.6914V63.9062L61.5898 62.8984L62.5273 60.1562H64.2266V63.0391H67.918V65.125H64.2266V72.0625C64.2266 72.7266 64.3906 73.2188 64.7188 73.5391C65.0547 73.8516 65.4922 74.0078 66.0312 74.0078ZM79.7891 76L79.4023 74.3008H79.2617C78.8789 74.9023 78.332 75.375 77.6211 75.7188C76.918 76.0625 76.1133 76.2344 75.207 76.2344C73.6367 76.2344 72.4648 75.8438 71.6914 75.0625C70.918 74.2812 70.5312 73.0977 70.5312 71.5117V63.0391H73.3086V71.0312C73.3086 72.0234 73.5117 72.7695 73.918 73.2695C74.3242 73.7617 74.9609 74.0078 75.8281 74.0078C76.9844 74.0078 77.832 73.6641 78.3711 72.9766C78.918 72.2812 79.1914 71.1211 79.1914 69.4961V63.0391H81.957V76H79.7891ZM90.2539 76.2344C88.6367 76.2344 87.375 75.6484 86.4688 74.4766C85.5625 73.3047 85.1094 71.6602 85.1094 69.543C85.1094 67.418 85.5664 65.7656 86.4805 64.5859C87.4023 63.3984 88.6758 62.8047 90.3008 62.8047C92.0039 62.8047 93.3008 63.4336 94.1914 64.6914H94.332C94.1992 63.7617 94.1328 63.0273 94.1328 62.4883V57.7656H96.8984V76H94.7422L94.2617 74.3008H94.1328C93.25 75.5898 91.957 76.2344 90.2539 76.2344ZM90.9922 74.0078C92.125 74.0078 92.9492 73.6914 93.4648 73.0586C93.9805 72.418 94.2461 71.3828 94.2617 69.9531V69.5664C94.2617 67.9336 93.9961 66.7734 93.4648 66.0859C92.9336 65.3984 92.1016 65.0547 90.9688 65.0547C90 65.0547 89.2539 65.4492 88.7305 66.2383C88.207 67.0195 87.9453 68.1367 87.9453 69.5898C87.9453 71.0273 88.1992 72.125 88.707 72.8828C89.2148 73.6328 89.9766 74.0078 90.9922 74.0078ZM106.496 76.2344C104.48 76.2344 102.902 75.6484 101.762 74.4766C100.629 73.2969 100.062 71.6758 100.062 69.6133C100.062 67.4961 100.59 65.832 101.645 64.6211C102.699 63.4102 104.148 62.8047 105.992 62.8047C107.703 62.8047 109.055 63.3242 110.047 64.3633C111.039 65.4023 111.535 66.832 111.535 68.6523V70.1406H102.898C102.938 71.3984 103.277 72.3672 103.918 73.0469C104.559 73.7188 105.461 74.0547 106.625 74.0547C107.391 74.0547 108.102 73.9844 108.758 73.8438C109.422 73.6953 110.133 73.4531 110.891 73.1172V75.3555C110.219 75.6758 109.539 75.9023 108.852 76.0352C108.164 76.168 107.379 76.2344 106.496 76.2344ZM105.992 64.8906C105.117 64.8906 104.414 65.168 103.883 65.7227C103.359 66.2773 103.047 67.0859 102.945 68.1484H108.828C108.812 67.0781 108.555 66.2695 108.055 65.7227C107.555 65.168 106.867 64.8906 105.992 64.8906ZM126.066 76H123.301V68.0312C123.301 67.0312 123.098 66.2852 122.691 65.793C122.293 65.3008 121.656 65.0547 120.781 65.0547C119.617 65.0547 118.766 65.3984 118.227 66.0859C117.688 66.7734 117.418 67.9258 117.418 69.543V76H114.664V63.0391H116.82L117.207 64.7383H117.348C117.738 64.1211 118.293 63.6445 119.012 63.3086C119.73 62.9727 120.527 62.8047 121.402 62.8047C124.512 62.8047 126.066 64.3867 126.066 67.5508V76ZM134.727 74.0078C135.398 74.0078 136.07 73.9023 136.742 73.6914V75.7656C136.438 75.8984 136.043 76.0078 135.559 76.0938C135.082 76.1875 134.586 76.2344 134.07 76.2344C131.461 76.2344 130.156 74.8594 130.156 72.1094V65.125H128.387V63.9062L130.285 62.8984L131.223 60.1562H132.922V63.0391H136.613V65.125H132.922V72.0625C132.922 72.7266 133.086 73.2188 133.414 73.5391C133.75 73.8516 134.188 74.0078 134.727 74.0078ZM141.547 58.8672L141.723 59.125C141.309 60.7578 140.621 62.6289 139.66 64.7383H137.668C138.207 62.4805 138.598 60.5234 138.84 58.8672H141.547ZM152.691 72.3086C152.691 73.5742 152.23 74.5469 151.309 75.2266C150.387 75.8984 149.066 76.2344 147.348 76.2344C145.621 76.2344 144.234 75.9727 143.188 75.4492V73.0703C144.711 73.7734 146.129 74.125 147.441 74.125C149.137 74.125 149.984 73.6133 149.984 72.5898C149.984 72.2617 149.891 71.9883 149.703 71.7695C149.516 71.5508 149.207 71.3242 148.777 71.0898C148.348 70.8555 147.75 70.5898 146.984 70.293C145.492 69.7148 144.48 69.1367 143.949 68.5586C143.426 67.9805 143.164 67.2305 143.164 66.3086C143.164 65.1992 143.609 64.3398 144.5 63.7305C145.398 63.1133 146.617 62.8047 148.156 62.8047C149.68 62.8047 151.121 63.1133 152.48 63.7305L151.59 65.8047C150.191 65.2266 149.016 64.9375 148.062 64.9375C146.609 64.9375 145.883 65.3516 145.883 66.1797C145.883 66.5859 146.07 66.9297 146.445 67.2109C146.828 67.4922 147.656 67.8789 148.93 68.3711C150 68.7852 150.777 69.1641 151.262 69.5078C151.746 69.8516 152.105 70.25 152.34 70.7031C152.574 71.1484 152.691 71.6836 152.691 72.3086ZM51.043 109.234C49.082 109.234 47.5898 108.664 46.5664 107.523C45.5508 106.375 45.043 104.73 45.043 102.59C45.043 100.41 45.5742 98.7344 46.6367 97.5625C47.707 96.3906 49.25 95.8047 51.2656 95.8047C52.6328 95.8047 53.8633 96.0586 54.957 96.5664L54.125 98.7812C52.9609 98.3281 52 98.1016 51.2422 98.1016C49 98.1016 47.8789 99.5898 47.8789 102.566C47.8789 104.02 48.1562 105.113 48.7109 105.848C49.2734 106.574 50.0938 106.938 51.1719 106.938C52.3984 106.938 53.5586 106.633 54.6523 106.023V108.426C54.1602 108.715 53.6328 108.922 53.0703 109.047C52.5156 109.172 51.8398 109.234 51.043 109.234ZM65.8086 109L65.2578 107.195H65.1641C64.5391 107.984 63.9102 108.523 63.2773 108.812C62.6445 109.094 61.832 109.234 60.8398 109.234C59.5664 109.234 58.5703 108.891 57.8516 108.203C57.1406 107.516 56.7852 106.543 56.7852 105.285C56.7852 103.949 57.2812 102.941 58.2734 102.262C59.2656 101.582 60.7773 101.211 62.8086 101.148L65.0469 101.078V100.387C65.0469 99.5586 64.8516 98.9414 64.4609 98.5352C64.0781 98.1211 63.4805 97.9141 62.668 97.9141C62.0039 97.9141 61.3672 98.0117 60.7578 98.207C60.1484 98.4023 59.5625 98.6328 59 98.8984L58.1094 96.9297C58.8125 96.5625 59.582 96.2852 60.418 96.0977C61.2539 95.9023 62.043 95.8047 62.7852 95.8047C64.4336 95.8047 65.6758 96.1641 66.5117 96.8828C67.3555 97.6016 67.7773 98.7305 67.7773 100.27V109H65.8086ZM61.707 107.125C62.707 107.125 63.5078 106.848 64.1094 106.293C64.7188 105.73 65.0234 104.945 65.0234 103.938V102.812L63.3594 102.883C62.0625 102.93 61.1172 103.148 60.5234 103.539C59.9375 103.922 59.6445 104.512 59.6445 105.309C59.6445 105.887 59.8164 106.336 60.1602 106.656C60.5039 106.969 61.0195 107.125 61.707 107.125ZM78.1953 109.234C76.5547 109.234 75.2812 108.645 74.375 107.465H74.2109C74.3203 108.559 74.375 109.223 74.375 109.457V114.766H71.6211V96.0391H73.8477C73.9102 96.2812 74.0391 96.8594 74.2344 97.7734H74.375C75.2344 96.4609 76.5234 95.8047 78.2422 95.8047C79.8594 95.8047 81.1172 96.3906 82.0156 97.5625C82.9219 98.7344 83.375 100.379 83.375 102.496C83.375 104.613 82.9141 106.266 81.9922 107.453C81.0781 108.641 79.8125 109.234 78.1953 109.234ZM77.5273 98.0547C76.4336 98.0547 75.6328 98.375 75.125 99.0156C74.625 99.6562 74.375 100.68 74.375 102.086V102.496C74.375 104.074 74.625 105.219 75.125 105.93C75.625 106.633 76.4414 106.984 77.5742 106.984C78.5273 106.984 79.2617 106.594 79.7773 105.812C80.293 105.031 80.5508 103.918 80.5508 102.473C80.5508 101.02 80.293 99.9219 79.7773 99.1797C79.2695 98.4297 78.5195 98.0547 77.5273 98.0547ZM94.6836 109L94.1328 107.195H94.0391C93.4141 107.984 92.7852 108.523 92.1523 108.812C91.5195 109.094 90.707 109.234 89.7148 109.234C88.4414 109.234 87.4453 108.891 86.7266 108.203C86.0156 107.516 85.6602 106.543 85.6602 105.285C85.6602 103.949 86.1562 102.941 87.1484 102.262C88.1406 101.582 89.6523 101.211 91.6836 101.148L93.9219 101.078V100.387C93.9219 99.5586 93.7266 98.9414 93.3359 98.5352C92.9531 98.1211 92.3555 97.9141 91.543 97.9141C90.8789 97.9141 90.2422 98.0117 89.6328 98.207C89.0234 98.4023 88.4375 98.6328 87.875 98.8984L86.9844 96.9297C87.6875 96.5625 88.457 96.2852 89.293 96.0977C90.1289 95.9023 90.918 95.8047 91.6602 95.8047C93.3086 95.8047 94.5508 96.1641 95.3867 96.8828C96.2305 97.6016 96.6523 98.7305 96.6523 100.27V109H94.6836ZM90.582 107.125C91.582 107.125 92.3828 106.848 92.9844 106.293C93.5938 105.73 93.8984 104.945 93.8984 103.938V102.812L92.2344 102.883C90.9375 102.93 89.9922 103.148 89.3984 103.539C88.8125 103.922 88.5195 104.512 88.5195 105.309C88.5195 105.887 88.6914 106.336 89.0352 106.656C89.3789 106.969 89.8945 107.125 90.582 107.125ZM107.117 95.8047C108.734 95.8047 109.992 96.3906 110.891 97.5625C111.797 98.7344 112.25 100.379 112.25 102.496C112.25 104.621 111.793 106.277 110.879 107.465C109.965 108.645 108.695 109.234 107.07 109.234C105.43 109.234 104.156 108.645 103.25 107.465H103.062L102.559 109H100.496V90.7656H103.25V95.1016C103.25 95.4219 103.234 95.8984 103.203 96.5312C103.172 97.1641 103.148 97.5664 103.133 97.7383H103.25C104.125 96.4492 105.414 95.8047 107.117 95.8047ZM106.402 98.0547C105.293 98.0547 104.492 98.3828 104 99.0391C103.516 99.6875 103.266 100.777 103.25 102.309V102.496C103.25 104.074 103.5 105.219 104 105.93C104.5 106.633 105.316 106.984 106.449 106.984C107.426 106.984 108.164 106.598 108.664 105.824C109.172 105.051 109.426 103.934 109.426 102.473C109.426 99.5273 108.418 98.0547 106.402 98.0547ZM118.203 109H115.449V96.0391H118.203V109ZM115.285 92.6055C115.285 92.1133 115.418 91.7344 115.684 91.4688C115.957 91.2031 116.344 91.0703 116.844 91.0703C117.328 91.0703 117.703 91.2031 117.969 91.4688C118.242 91.7344 118.379 92.1133 118.379 92.6055C118.379 93.0742 118.242 93.4453 117.969 93.7188C117.703 93.9844 117.328 94.1172 116.844 94.1172C116.344 94.1172 115.957 93.9844 115.684 93.7188C115.418 93.4453 115.285 93.0742 115.285 92.6055ZM124.906 109H122.152V90.7656H124.906V109ZM131.609 109H128.855V96.0391H131.609V109ZM128.691 92.6055C128.691 92.1133 128.824 91.7344 129.09 91.4688C129.363 91.2031 129.75 91.0703 130.25 91.0703C130.734 91.0703 131.109 91.2031 131.375 91.4688C131.648 91.7344 131.785 92.1133 131.785 92.6055C131.785 93.0742 131.648 93.4453 131.375 93.7188C131.109 93.9844 130.734 94.1172 130.25 94.1172C129.75 94.1172 129.363 93.9844 129.09 93.7188C128.824 93.4453 128.691 93.0742 128.691 92.6055ZM140.387 107.008C141.059 107.008 141.73 106.902 142.402 106.691V108.766C142.098 108.898 141.703 109.008 141.219 109.094C140.742 109.188 140.246 109.234 139.73 109.234C137.121 109.234 135.816 107.859 135.816 105.109V98.125H134.047V96.9062L135.945 95.8984L136.883 93.1562H138.582V96.0391H142.273V98.125H138.582V105.062C138.582 105.727 138.746 106.219 139.074 106.539C139.41 106.852 139.848 107.008 140.387 107.008ZM143.035 96.0391H146.035L148.672 103.387C149.07 104.434 149.336 105.418 149.469 106.34H149.562C149.633 105.91 149.762 105.391 149.949 104.781C150.137 104.164 151.129 101.25 152.926 96.0391H155.902L150.359 110.723C149.352 113.418 147.672 114.766 145.32 114.766C144.711 114.766 144.117 114.699 143.539 114.566V112.387C143.953 112.48 144.426 112.527 144.957 112.527C146.285 112.527 147.219 111.758 147.758 110.219L148.238 109L143.035 96.0391ZM70.1211 142L65.1992 129.039H68.1055L70.7422 136.574C71.1953 137.84 71.4688 138.863 71.5625 139.645H71.6562C71.7266 139.082 72 138.059 72.4766 136.574L75.1133 129.039H78.043L73.0977 142H70.1211ZM88.1211 142L87.5703 140.195H87.4766C86.8516 140.984 86.2227 141.523 85.5898 141.812C84.957 142.094 84.1445 142.234 83.1523 142.234C81.8789 142.234 80.8828 141.891 80.1641 141.203C79.4531 140.516 79.0977 139.543 79.0977 138.285C79.0977 136.949 79.5938 135.941 80.5859 135.262C81.5781 134.582 83.0898 134.211 85.1211 134.148L87.3594 134.078V133.387C87.3594 132.559 87.1641 131.941 86.7734 131.535C86.3906 131.121 85.793 130.914 84.9805 130.914C84.3164 130.914 83.6797 131.012 83.0703 131.207C82.4609 131.402 81.875 131.633 81.3125 131.898L80.4219 129.93C81.125 129.562 81.8945 129.285 82.7305 129.098C83.5664 128.902 84.3555 128.805 85.0977 128.805C86.7461 128.805 87.9883 129.164 88.8242 129.883C89.668 130.602 90.0898 131.73 90.0898 133.27V142H88.1211ZM84.0195 140.125C85.0195 140.125 85.8203 139.848 86.4219 139.293C87.0312 138.73 87.3359 137.945 87.3359 136.938V135.812L85.6719 135.883C84.375 135.93 83.4297 136.148 82.8359 136.539C82.25 136.922 81.957 137.512 81.957 138.309C81.957 138.887 82.1289 139.336 82.4727 139.656C82.8164 139.969 83.332 140.125 84.0195 140.125ZM100.508 128.805C101.062 128.805 101.52 128.844 101.879 128.922L101.609 131.488C101.219 131.395 100.812 131.348 100.391 131.348C99.2891 131.348 98.3945 131.707 97.707 132.426C97.0273 133.145 96.6875 134.078 96.6875 135.227V142H93.9336V129.039H96.0898L96.4531 131.324H96.5938C97.0234 130.551 97.582 129.938 98.2695 129.484C98.9648 129.031 99.7109 128.805 100.508 128.805ZM107.047 142H104.293V129.039H107.047V142ZM104.129 125.605C104.129 125.113 104.262 124.734 104.527 124.469C104.801 124.203 105.188 124.07 105.688 124.07C106.172 124.07 106.547 124.203 106.812 124.469C107.086 124.734 107.223 125.113 107.223 125.605C107.223 126.074 107.086 126.445 106.812 126.719C106.547 126.984 106.172 127.117 105.688 127.117C105.188 127.117 104.801 126.984 104.527 126.719C104.262 126.445 104.129 126.074 104.129 125.605ZM116.656 142.234C114.641 142.234 113.062 141.648 111.922 140.477C110.789 139.297 110.223 137.676 110.223 135.613C110.223 133.496 110.75 131.832 111.805 130.621C112.859 129.41 114.309 128.805 116.152 128.805C117.863 128.805 119.215 129.324 120.207 130.363C121.199 131.402 121.695 132.832 121.695 134.652V136.141H113.059C113.098 137.398 113.438 138.367 114.078 139.047C114.719 139.719 115.621 140.055 116.785 140.055C117.551 140.055 118.262 139.984 118.918 139.844C119.582 139.695 120.293 139.453 121.051 139.117V141.355C120.379 141.676 119.699 141.902 119.012 142.035C118.324 142.168 117.539 142.234 116.656 142.234ZM116.152 130.891C115.277 130.891 114.574 131.168 114.043 131.723C113.52 132.277 113.207 133.086 113.105 134.148H118.988C118.973 133.078 118.715 132.27 118.215 131.723C117.715 131.168 117.027 130.891 116.152 130.891ZM133.531 138.309C133.531 139.574 133.07 140.547 132.148 141.227C131.227 141.898 129.906 142.234 128.188 142.234C126.461 142.234 125.074 141.973 124.027 141.449V139.07C125.551 139.773 126.969 140.125 128.281 140.125C129.977 140.125 130.824 139.613 130.824 138.59C130.824 138.262 130.73 137.988 130.543 137.77C130.355 137.551 130.047 137.324 129.617 137.09C129.188 136.855 128.59 136.59 127.824 136.293C126.332 135.715 125.32 135.137 124.789 134.559C124.266 133.98 124.004 133.23 124.004 132.309C124.004 131.199 124.449 130.34 125.34 129.73C126.238 129.113 127.457 128.805 128.996 128.805C130.52 128.805 131.961 129.113 133.32 129.73L132.43 131.805C131.031 131.227 129.855 130.938 128.902 130.938C127.449 130.938 126.723 131.352 126.723 132.18C126.723 132.586 126.91 132.93 127.285 133.211C127.668 133.492 128.496 133.879 129.77 134.371C130.84 134.785 131.617 135.164 132.102 135.508C132.586 135.852 132.945 136.25 133.18 136.703C133.414 137.148 133.531 137.684 133.531 138.309Z" fill="#7F8499"/>
</g>
<defs>
<filter id="filter0_d" x="0" y="0" width="200" height="200" filterUnits="userSpaceOnUse" color-interpolation-filters="sRGB">
<feFlood flood-opacity="0" result="BackgroundImageFix"/>
<feColorMatrix in="SourceAlpha" type="matrix" values="0 0 0 0 0 0 0 0 0 0 0 0 0 0 0 0 0 0 127 0"/>
<feOffset dy="4"/>
<feGaussianBlur stdDeviation="5"/>
<feColorMatrix type="matrix" values="0 0 0 0 0 0 0 0 0 0 0 0 0 0 0 0 0 0 0.06 0"/>
<feBlend mode="normal" in2="BackgroundImageFix" result="effect1_dropShadow"/>
<feBlend mode="normal" in="SourceGraphic" in2="effect1_dropShadow" result="shape"/>
</filter>
</defs>
</svg>
