<svg width="200" height="200" viewBox="0 0 200 200" fill="none" xmlns="http://www.w3.org/2000/svg">
<g filter="url(#filter0_d)">
<rect x="10" y="6" width="180" height="180" rx="7.50936" fill="white"/>
<path d="M56.0078 59H53.207V44.2695H48.168V41.8672H61.0469V44.2695H56.0078V59ZM69.0508 59.2344C67.0352 59.2344 65.457 58.6484 64.3164 57.4766C63.1836 56.2969 62.6172 54.6758 62.6172 52.6133C62.6172 50.4961 63.1445 48.832 64.1992 47.6211C65.2539 46.4102 66.7031 45.8047 68.5469 45.8047C70.2578 45.8047 71.6094 46.3242 72.6016 47.3633C73.5938 48.4023 74.0898 49.832 74.0898 51.6523V53.1406H65.4531C65.4922 54.3984 65.832 55.3672 66.4727 56.0469C67.1133 56.7188 68.0156 57.0547 69.1797 57.0547C69.9453 57.0547 70.6562 56.9844 71.3125 56.8438C71.9766 56.6953 72.6875 56.4531 73.4453 56.1172V58.3555C72.7734 58.6758 72.0938 58.9023 71.4062 59.0352C70.7188 59.168 69.9336 59.2344 69.0508 59.2344ZM68.5469 47.8906C67.6719 47.8906 66.9688 48.168 66.4375 48.7227C65.9141 49.2773 65.6016 50.0859 65.5 51.1484H71.3828C71.3672 50.0781 71.1094 49.2695 70.6094 48.7227C70.1094 48.168 69.4219 47.8906 68.5469 47.8906ZM85.3281 59L84.7773 57.1953H84.6836C84.0586 57.9844 83.4297 58.5234 82.7969 58.8125C82.1641 59.0938 81.3516 59.2344 80.3594 59.2344C79.0859 59.2344 78.0898 58.8906 77.3711 58.2031C76.6602 57.5156 76.3047 56.543 76.3047 55.2852C76.3047 53.9492 76.8008 52.9414 77.793 52.2617C78.7852 51.582 80.2969 51.2109 82.3281 51.1484L84.5664 51.0781V50.3867C84.5664 49.5586 84.3711 48.9414 83.9805 48.5352C83.5977 48.1211 83 47.9141 82.1875 47.9141C81.5234 47.9141 80.8867 48.0117 80.2773 48.207C79.668 48.4023 79.082 48.6328 78.5195 48.8984L77.6289 46.9297C78.332 46.5625 79.1016 46.2852 79.9375 46.0977C80.7734 45.9023 81.5625 45.8047 82.3047 45.8047C83.9531 45.8047 85.1953 46.1641 86.0312 46.8828C86.875 47.6016 87.2969 48.7305 87.2969 50.2695V59H85.3281ZM81.2266 57.125C82.2266 57.125 83.0273 56.8477 83.6289 56.293C84.2383 55.7305 84.543 54.9453 84.543 53.9375V52.8125L82.8789 52.8828C81.582 52.9297 80.6367 53.1484 80.043 53.5391C79.457 53.9219 79.1641 54.5117 79.1641 55.3086C79.1641 55.8867 79.3359 56.3359 79.6797 56.6562C80.0234 56.9688 80.5391 57.125 81.2266 57.125ZM96.3672 59.2344C94.4062 59.2344 92.9141 58.6641 91.8906 57.5234C90.875 56.375 90.3672 54.7305 90.3672 52.5898C90.3672 50.4102 90.8984 48.7344 91.9609 47.5625C93.0312 46.3906 94.5742 45.8047 96.5898 45.8047C97.957 45.8047 99.1875 46.0586 100.281 46.5664L99.4492 48.7812C98.2852 48.3281 97.3242 48.1016 96.5664 48.1016C94.3242 48.1016 93.2031 49.5898 93.2031 52.5664C93.2031 54.0195 93.4805 55.1133 94.0352 55.8477C94.5977 56.5742 95.418 56.9375 96.4961 56.9375C97.7227 56.9375 98.8828 56.6328 99.9766 56.0234V58.4258C99.4844 58.7148 98.957 58.9219 98.3945 59.0469C97.8398 59.1719 97.1641 59.2344 96.3672 59.2344ZM114.426 59H111.66V51.0312C111.66 50.0312 111.457 49.2852 111.051 48.793C110.652 48.3008 110.016 48.0547 109.141 48.0547C107.984 48.0547 107.133 48.4023 106.586 49.0977C106.047 49.7852 105.777 50.9414 105.777 52.5664V59H103.023V40.7656H105.777V45.3945C105.777 46.1367 105.73 46.9297 105.637 47.7734H105.812C106.188 47.1484 106.707 46.6641 107.371 46.3203C108.043 45.9766 108.824 45.8047 109.715 45.8047C112.855 45.8047 114.426 47.3867 114.426 50.5508V59ZM123.918 59.2344C121.902 59.2344 120.324 58.6484 119.184 57.4766C118.051 56.2969 117.484 54.6758 117.484 52.6133C117.484 50.4961 118.012 48.832 119.066 47.6211C120.121 46.4102 121.57 45.8047 123.414 45.8047C125.125 45.8047 126.477 46.3242 127.469 47.3633C128.461 48.4023 128.957 49.832 128.957 51.6523V53.1406H120.32C120.359 54.3984 120.699 55.3672 121.34 56.0469C121.98 56.7188 122.883 57.0547 124.047 57.0547C124.812 57.0547 125.523 56.9844 126.18 56.8438C126.844 56.6953 127.555 56.4531 128.312 56.1172V58.3555C127.641 58.6758 126.961 58.9023 126.273 59.0352C125.586 59.168 124.801 59.2344 123.918 59.2344ZM123.414 47.8906C122.539 47.8906 121.836 48.168 121.305 48.7227C120.781 49.2773 120.469 50.0859 120.367 51.1484H126.25C126.234 50.0781 125.977 49.2695 125.477 48.7227C124.977 48.168 124.289 47.8906 123.414 47.8906ZM138.66 45.8047C139.215 45.8047 139.672 45.8438 140.031 45.9219L139.762 48.4883C139.371 48.3945 138.965 48.3477 138.543 48.3477C137.441 48.3477 136.547 48.707 135.859 49.4258C135.18 50.1445 134.84 51.0781 134.84 52.2266V59H132.086V46.0391H134.242L134.605 48.3242H134.746C135.176 47.5508 135.734 46.9375 136.422 46.4844C137.117 46.0312 137.863 45.8047 138.66 45.8047ZM151.152 55.3086C151.152 56.5742 150.691 57.5469 149.77 58.2266C148.848 58.8984 147.527 59.2344 145.809 59.2344C144.082 59.2344 142.695 58.9727 141.648 58.4492V56.0703C143.172 56.7734 144.59 57.125 145.902 57.125C147.598 57.125 148.445 56.6133 148.445 55.5898C148.445 55.2617 148.352 54.9883 148.164 54.7695C147.977 54.5508 147.668 54.3242 147.238 54.0898C146.809 53.8555 146.211 53.5898 145.445 53.293C143.953 52.7148 142.941 52.1367 142.41 51.5586C141.887 50.9805 141.625 50.2305 141.625 49.3086C141.625 48.1992 142.07 47.3398 142.961 46.7305C143.859 46.1133 145.078 45.8047 146.617 45.8047C148.141 45.8047 149.582 46.1133 150.941 46.7305L150.051 48.8047C148.652 48.2266 147.477 47.9375 146.523 47.9375C145.07 47.9375 144.344 48.3516 144.344 49.1797C144.344 49.5859 144.531 49.9297 144.906 50.2109C145.289 50.4922 146.117 50.8789 147.391 51.3711C148.461 51.7852 149.238 52.1641 149.723 52.5078C150.207 52.8516 150.566 53.25 150.801 53.7031C151.035 54.1484 151.152 54.6836 151.152 55.3086ZM84.4492 92H81.6836V84.0312C81.6836 83.0312 81.4805 82.2852 81.0742 81.793C80.6758 81.3008 80.0391 81.0547 79.1641 81.0547C78 81.0547 77.1484 81.3984 76.6094 82.0859C76.0703 82.7734 75.8008 83.9258 75.8008 85.543V92H73.0469V79.0391H75.2031L75.5898 80.7383H75.7305C76.1211 80.1211 76.6758 79.6445 77.3945 79.3086C78.1133 78.9727 78.9102 78.8047 79.7852 78.8047C82.8945 78.8047 84.4492 80.3867 84.4492 83.5508V92ZM93.9414 92.2344C91.9258 92.2344 90.3477 91.6484 89.207 90.4766C88.0742 89.2969 87.5078 87.6758 87.5078 85.6133C87.5078 83.4961 88.0352 81.832 89.0898 80.6211C90.1445 79.4102 91.5938 78.8047 93.4375 78.8047C95.1484 78.8047 96.5 79.3242 97.4922 80.3633C98.4844 81.4023 98.9805 82.832 98.9805 84.6523V86.1406H90.3438C90.3828 87.3984 90.7227 88.3672 91.3633 89.0469C92.0039 89.7188 92.9062 90.0547 94.0703 90.0547C94.8359 90.0547 95.5469 89.9844 96.2031 89.8438C96.8672 89.6953 97.5781 89.4531 98.3359 89.1172V91.3555C97.6641 91.6758 96.9844 91.9023 96.2969 92.0352C95.6094 92.168 94.8242 92.2344 93.9414 92.2344ZM93.4375 80.8906C92.5625 80.8906 91.8594 81.168 91.3281 81.7227C90.8047 82.2773 90.4922 83.0859 90.3906 84.1484H96.2734C96.2578 83.0781 96 82.2695 95.5 81.7227C95 81.168 94.3125 80.8906 93.4375 80.8906ZM107.77 92.2344C105.754 92.2344 104.176 91.6484 103.035 90.4766C101.902 89.2969 101.336 87.6758 101.336 85.6133C101.336 83.4961 101.863 81.832 102.918 80.6211C103.973 79.4102 105.422 78.8047 107.266 78.8047C108.977 78.8047 110.328 79.3242 111.32 80.3633C112.312 81.4023 112.809 82.832 112.809 84.6523V86.1406H104.172C104.211 87.3984 104.551 88.3672 105.191 89.0469C105.832 89.7188 106.734 90.0547 107.898 90.0547C108.664 90.0547 109.375 89.9844 110.031 89.8438C110.695 89.6953 111.406 89.4531 112.164 89.1172V91.3555C111.492 91.6758 110.812 91.9023 110.125 92.0352C109.438 92.168 108.652 92.2344 107.77 92.2344ZM107.266 80.8906C106.391 80.8906 105.688 81.168 105.156 81.7227C104.633 82.2773 104.32 83.0859 104.219 84.1484H110.102C110.086 83.0781 109.828 82.2695 109.328 81.7227C108.828 81.168 108.141 80.8906 107.266 80.8906ZM120.309 92.2344C118.691 92.2344 117.43 91.6484 116.523 90.4766C115.617 89.3047 115.164 87.6602 115.164 85.543C115.164 83.418 115.621 81.7656 116.535 80.5859C117.457 79.3984 118.73 78.8047 120.355 78.8047C122.059 78.8047 123.355 79.4336 124.246 80.6914H124.387C124.254 79.7617 124.188 79.0273 124.188 78.4883V73.7656H126.953V92H124.797L124.316 90.3008H124.188C123.305 91.5898 122.012 92.2344 120.309 92.2344ZM121.047 90.0078C122.18 90.0078 123.004 89.6914 123.52 89.0586C124.035 88.418 124.301 87.3828 124.316 85.9531V85.5664C124.316 83.9336 124.051 82.7734 123.52 82.0859C122.988 81.3984 122.156 81.0547 121.023 81.0547C120.055 81.0547 119.309 81.4492 118.785 82.2383C118.262 83.0195 118 84.1367 118 85.5898C118 87.0273 118.254 88.125 118.762 88.8828C119.27 89.6328 120.031 90.0078 121.047 90.0078ZM51.7656 111.805C52.3203 111.805 52.7773 111.844 53.1367 111.922L52.8672 114.488C52.4766 114.395 52.0703 114.348 51.6484 114.348C50.5469 114.348 49.6523 114.707 48.9648 115.426C48.2852 116.145 47.9453 117.078 47.9453 118.227V125H45.1914V112.039H47.3477L47.7109 114.324H47.8516C48.2812 113.551 48.8398 112.938 49.5273 112.484C50.2227 112.031 50.9688 111.805 51.7656 111.805ZM61.2109 125.234C59.1953 125.234 57.6172 124.648 56.4766 123.477C55.3438 122.297 54.7773 120.676 54.7773 118.613C54.7773 116.496 55.3047 114.832 56.3594 113.621C57.4141 112.41 58.8633 111.805 60.707 111.805C62.418 111.805 63.7695 112.324 64.7617 113.363C65.7539 114.402 66.25 115.832 66.25 117.652V119.141H57.6133C57.6523 120.398 57.9922 121.367 58.6328 122.047C59.2734 122.719 60.1758 123.055 61.3398 123.055C62.1055 123.055 62.8164 122.984 63.4727 122.844C64.1367 122.695 64.8477 122.453 65.6055 122.117V124.355C64.9336 124.676 64.2539 124.902 63.5664 125.035C62.8789 125.168 62.0938 125.234 61.2109 125.234ZM60.707 113.891C59.832 113.891 59.1289 114.168 58.5977 114.723C58.0742 115.277 57.7617 116.086 57.6602 117.148H63.543C63.5273 116.078 63.2695 115.27 62.7695 114.723C62.2695 114.168 61.582 113.891 60.707 113.891ZM78.0859 121.309C78.0859 122.574 77.625 123.547 76.7031 124.227C75.7812 124.898 74.4609 125.234 72.7422 125.234C71.0156 125.234 69.6289 124.973 68.582 124.449V122.07C70.1055 122.773 71.5234 123.125 72.8359 123.125C74.5312 123.125 75.3789 122.613 75.3789 121.59C75.3789 121.262 75.2852 120.988 75.0977 120.77C74.9102 120.551 74.6016 120.324 74.1719 120.09C73.7422 119.855 73.1445 119.59 72.3789 119.293C70.8867 118.715 69.875 118.137 69.3438 117.559C68.8203 116.98 68.5586 116.23 68.5586 115.309C68.5586 114.199 69.0039 113.34 69.8945 112.73C70.793 112.113 72.0117 111.805 73.5508 111.805C75.0742 111.805 76.5156 112.113 77.875 112.73L76.9844 114.805C75.5859 114.227 74.4102 113.938 73.457 113.938C72.0039 113.938 71.2773 114.352 71.2773 115.18C71.2773 115.586 71.4648 115.93 71.8398 116.211C72.2227 116.492 73.0508 116.879 74.3242 117.371C75.3945 117.785 76.1719 118.164 76.6562 118.508C77.1406 118.852 77.5 119.25 77.7344 119.703C77.9688 120.148 78.0859 120.684 78.0859 121.309ZM92.5703 118.496C92.5703 120.613 92.0273 122.266 90.9414 123.453C89.8555 124.641 88.3438 125.234 86.4062 125.234C85.1953 125.234 84.125 124.961 83.1953 124.414C82.2656 123.867 81.5508 123.082 81.0508 122.059C80.5508 121.035 80.3008 119.848 80.3008 118.496C80.3008 116.395 80.8398 114.754 81.918 113.574C82.9961 112.395 84.5156 111.805 86.4766 111.805C88.3516 111.805 89.8359 112.41 90.9297 113.621C92.0234 114.824 92.5703 116.449 92.5703 118.496ZM83.1367 118.496C83.1367 121.488 84.2422 122.984 86.4531 122.984C88.6406 122.984 89.7344 121.488 89.7344 118.496C89.7344 115.535 88.6328 114.055 86.4297 114.055C85.2734 114.055 84.4336 114.438 83.9102 115.203C83.3945 115.969 83.1367 117.066 83.1367 118.496ZM104.887 125L104.5 123.301H104.359C103.977 123.902 103.43 124.375 102.719 124.719C102.016 125.062 101.211 125.234 100.305 125.234C98.7344 125.234 97.5625 124.844 96.7891 124.062C96.0156 123.281 95.6289 122.098 95.6289 120.512V112.039H98.4062V120.031C98.4062 121.023 98.6094 121.77 99.0156 122.27C99.4219 122.762 100.059 123.008 100.926 123.008C102.082 123.008 102.93 122.664 103.469 121.977C104.016 121.281 104.289 120.121 104.289 118.496V112.039H107.055V125H104.887ZM117.555 111.805C118.109 111.805 118.566 111.844 118.926 111.922L118.656 114.488C118.266 114.395 117.859 114.348 117.438 114.348C116.336 114.348 115.441 114.707 114.754 115.426C114.074 116.145 113.734 117.078 113.734 118.227V125H110.98V112.039H113.137L113.5 114.324H113.641C114.07 113.551 114.629 112.938 115.316 112.484C116.012 112.031 116.758 111.805 117.555 111.805ZM126.566 125.234C124.605 125.234 123.113 124.664 122.09 123.523C121.074 122.375 120.566 120.73 120.566 118.59C120.566 116.41 121.098 114.734 122.16 113.562C123.23 112.391 124.773 111.805 126.789 111.805C128.156 111.805 129.387 112.059 130.48 112.566L129.648 114.781C128.484 114.328 127.523 114.102 126.766 114.102C124.523 114.102 123.402 115.59 123.402 118.566C123.402 120.02 123.68 121.113 124.234 121.848C124.797 122.574 125.617 122.938 126.695 122.938C127.922 122.938 129.082 122.633 130.176 122.023V124.426C129.684 124.715 129.156 124.922 128.594 125.047C128.039 125.172 127.363 125.234 126.566 125.234ZM138.883 125.234C136.867 125.234 135.289 124.648 134.148 123.477C133.016 122.297 132.449 120.676 132.449 118.613C132.449 116.496 132.977 114.832 134.031 113.621C135.086 112.41 136.535 111.805 138.379 111.805C140.09 111.805 141.441 112.324 142.434 113.363C143.426 114.402 143.922 115.832 143.922 117.652V119.141H135.285C135.324 120.398 135.664 121.367 136.305 122.047C136.945 122.719 137.848 123.055 139.012 123.055C139.777 123.055 140.488 122.984 141.145 122.844C141.809 122.695 142.52 122.453 143.277 122.117V124.355C142.605 124.676 141.926 124.902 141.238 125.035C140.551 125.168 139.766 125.234 138.883 125.234ZM138.379 113.891C137.504 113.891 136.801 114.168 136.27 114.723C135.746 115.277 135.434 116.086 135.332 117.148H141.215C141.199 116.078 140.941 115.27 140.441 114.723C139.941 114.168 139.254 113.891 138.379 113.891ZM155.758 121.309C155.758 122.574 155.297 123.547 154.375 124.227C153.453 124.898 152.133 125.234 150.414 125.234C148.688 125.234 147.301 124.973 146.254 124.449V122.07C147.777 122.773 149.195 123.125 150.508 123.125C152.203 123.125 153.051 122.613 153.051 121.59C153.051 121.262 152.957 120.988 152.77 120.77C152.582 120.551 152.273 120.324 151.844 120.09C151.414 119.855 150.816 119.59 150.051 119.293C148.559 118.715 147.547 118.137 147.016 117.559C146.492 116.98 146.23 116.23 146.23 115.309C146.23 114.199 146.676 113.34 147.566 112.73C148.465 112.113 149.684 111.805 151.223 111.805C152.746 111.805 154.188 112.113 155.547 112.73L154.656 114.805C153.258 114.227 152.082 113.938 151.129 113.938C149.676 113.938 148.949 114.352 148.949 115.18C148.949 115.586 149.137 115.93 149.512 116.211C149.895 116.492 150.723 116.879 151.996 117.371C153.066 117.785 153.844 118.164 154.328 118.508C154.812 118.852 155.172 119.25 155.406 119.703C155.641 120.148 155.758 120.684 155.758 121.309ZM61.5977 156.008C62.2695 156.008 62.9414 155.902 63.6133 155.691V157.766C63.3086 157.898 62.9141 158.008 62.4297 158.094C61.9531 158.188 61.457 158.234 60.9414 158.234C58.332 158.234 57.0273 156.859 57.0273 154.109V147.125H55.2578V145.906L57.1562 144.898L58.0938 142.156H59.793V145.039H63.4844V147.125H59.793V154.062C59.793 154.727 59.957 155.219 60.2852 155.539C60.6211 155.852 61.0586 156.008 61.5977 156.008ZM77.7109 151.496C77.7109 153.613 77.168 155.266 76.082 156.453C74.9961 157.641 73.4844 158.234 71.5469 158.234C70.3359 158.234 69.2656 157.961 68.3359 157.414C67.4062 156.867 66.6914 156.082 66.1914 155.059C65.6914 154.035 65.4414 152.848 65.4414 151.496C65.4414 149.395 65.9805 147.754 67.0586 146.574C68.1367 145.395 69.6562 144.805 71.6172 144.805C73.4922 144.805 74.9766 145.41 76.0703 146.621C77.1641 147.824 77.7109 149.449 77.7109 151.496ZM68.2773 151.496C68.2773 154.488 69.3828 155.984 71.5938 155.984C73.7812 155.984 74.875 154.488 74.875 151.496C74.875 148.535 73.7734 147.055 71.5703 147.055C70.4141 147.055 69.5742 147.438 69.0508 148.203C68.5352 148.969 68.2773 150.066 68.2773 151.496ZM89.875 158H87.1211V139.766H89.875V158ZM99.4844 158.234C97.4688 158.234 95.8906 157.648 94.75 156.477C93.6172 155.297 93.0508 153.676 93.0508 151.613C93.0508 149.496 93.5781 147.832 94.6328 146.621C95.6875 145.41 97.1367 144.805 98.9805 144.805C100.691 144.805 102.043 145.324 103.035 146.363C104.027 147.402 104.523 148.832 104.523 150.652V152.141H95.8867C95.9258 153.398 96.2656 154.367 96.9062 155.047C97.5469 155.719 98.4492 156.055 99.6133 156.055C100.379 156.055 101.09 155.984 101.746 155.844C102.41 155.695 103.121 155.453 103.879 155.117V157.355C103.207 157.676 102.527 157.902 101.84 158.035C101.152 158.168 100.367 158.234 99.4844 158.234ZM98.9805 146.891C98.1055 146.891 97.4023 147.168 96.8711 147.723C96.3477 148.277 96.0352 149.086 95.9336 150.148H101.816C101.801 149.078 101.543 148.27 101.043 147.723C100.543 147.168 99.8555 146.891 98.9805 146.891ZM115.762 158L115.211 156.195H115.117C114.492 156.984 113.863 157.523 113.23 157.812C112.598 158.094 111.785 158.234 110.793 158.234C109.52 158.234 108.523 157.891 107.805 157.203C107.094 156.516 106.738 155.543 106.738 154.285C106.738 152.949 107.234 151.941 108.227 151.262C109.219 150.582 110.73 150.211 112.762 150.148L115 150.078V149.387C115 148.559 114.805 147.941 114.414 147.535C114.031 147.121 113.434 146.914 112.621 146.914C111.957 146.914 111.32 147.012 110.711 147.207C110.102 147.402 109.516 147.633 108.953 147.898L108.062 145.93C108.766 145.562 109.535 145.285 110.371 145.098C111.207 144.902 111.996 144.805 112.738 144.805C114.387 144.805 115.629 145.164 116.465 145.883C117.309 146.602 117.73 147.73 117.73 149.27V158H115.762ZM111.66 156.125C112.66 156.125 113.461 155.848 114.062 155.293C114.672 154.73 114.977 153.945 114.977 152.938V151.812L113.312 151.883C112.016 151.93 111.07 152.148 110.477 152.539C109.891 152.922 109.598 153.512 109.598 154.309C109.598 154.887 109.77 155.336 110.113 155.656C110.457 155.969 110.973 156.125 111.66 156.125ZM128.148 144.805C128.703 144.805 129.16 144.844 129.52 144.922L129.25 147.488C128.859 147.395 128.453 147.348 128.031 147.348C126.93 147.348 126.035 147.707 125.348 148.426C124.668 149.145 124.328 150.078 124.328 151.227V158H121.574V145.039H123.73L124.094 147.324H124.234C124.664 146.551 125.223 145.938 125.91 145.484C126.605 145.031 127.352 144.805 128.148 144.805ZM143.336 158H140.57V150.031C140.57 149.031 140.367 148.285 139.961 147.793C139.562 147.301 138.926 147.055 138.051 147.055C136.887 147.055 136.035 147.398 135.496 148.086C134.957 148.773 134.688 149.926 134.688 151.543V158H131.934V145.039H134.09L134.477 146.738H134.617C135.008 146.121 135.562 145.645 136.281 145.309C137 144.973 137.797 144.805 138.672 144.805C141.781 144.805 143.336 146.387 143.336 149.551V158Z" fill="#7F8499"/>
</g>
<defs>
<filter id="filter0_d" x="0" y="0" width="200" height="200" filterUnits="userSpaceOnUse" color-interpolation-filters="sRGB">
<feFlood flood-opacity="0" result="BackgroundImageFix"/>
<feColorMatrix in="SourceAlpha" type="matrix" values="0 0 0 0 0 0 0 0 0 0 0 0 0 0 0 0 0 0 127 0"/>
<feOffset dy="4"/>
<feGaussianBlur stdDeviation="5"/>
<feColorMatrix type="matrix" values="0 0 0 0 0 0 0 0 0 0 0 0 0 0 0 0 0 0 0.06 0"/>
<feBlend mode="normal" in2="BackgroundImageFix" result="effect1_dropShadow"/>
<feBlend mode="normal" in="SourceGraphic" in2="effect1_dropShadow" result="shape"/>
</filter>
</defs>
</svg>
