<svg width="200" height="200" viewBox="0 0 200 200" fill="none" xmlns="http://www.w3.org/2000/svg">
<g filter="url(#filter0_d)">
<rect x="10" y="6" width="180" height="180" rx="7.50936" fill="white"/>
<path d="M67.0059 66H64.9053V54.9521H61.126V53.1504H70.7852V54.9521H67.0059V66ZM76.7881 66.1758C75.2764 66.1758 74.0928 65.7363 73.2373 64.8574C72.3877 63.9727 71.9629 62.7568 71.9629 61.21C71.9629 59.6221 72.3584 58.374 73.1494 57.4658C73.9404 56.5576 75.0273 56.1035 76.4102 56.1035C77.6934 56.1035 78.707 56.4932 79.4512 57.2725C80.1953 58.0518 80.5674 59.124 80.5674 60.4893V61.6055H74.0898C74.1191 62.5488 74.374 63.2754 74.8545 63.7852C75.335 64.2891 76.0117 64.541 76.8848 64.541C77.459 64.541 77.9922 64.4883 78.4844 64.3828C78.9824 64.2715 79.5156 64.0898 80.084 63.8379V65.5166C79.5801 65.7568 79.0703 65.9268 78.5547 66.0264C78.0391 66.126 77.4502 66.1758 76.7881 66.1758ZM76.4102 57.668C75.7539 57.668 75.2266 57.876 74.8281 58.292C74.4355 58.708 74.2012 59.3145 74.125 60.1113H78.5371C78.5254 59.3086 78.332 58.7021 77.957 58.292C77.582 57.876 77.0664 57.668 76.4102 57.668ZM88.9961 66L88.583 64.6465H88.5127C88.0439 65.2383 87.5723 65.6426 87.0977 65.8594C86.623 66.0703 86.0137 66.1758 85.2695 66.1758C84.3145 66.1758 83.5674 65.918 83.0283 65.4023C82.4951 64.8867 82.2285 64.1572 82.2285 63.2139C82.2285 62.2119 82.6006 61.4561 83.3447 60.9463C84.0889 60.4365 85.2227 60.1582 86.7461 60.1113L88.4248 60.0586V59.54C88.4248 58.9189 88.2783 58.4561 87.9854 58.1514C87.6982 57.8408 87.25 57.6855 86.6406 57.6855C86.1426 57.6855 85.665 57.7588 85.208 57.9053C84.751 58.0518 84.3115 58.2246 83.8896 58.4238L83.2217 56.9473C83.749 56.6719 84.3262 56.4639 84.9531 56.3232C85.5801 56.1768 86.1719 56.1035 86.7285 56.1035C87.9648 56.1035 88.8965 56.373 89.5234 56.9121C90.1562 57.4512 90.4727 58.2979 90.4727 59.4521V66H88.9961ZM85.9199 64.5938C86.6699 64.5938 87.2705 64.3857 87.7217 63.9697C88.1787 63.5479 88.4072 62.959 88.4072 62.2031V61.3594L87.1592 61.4121C86.1865 61.4473 85.4775 61.6113 85.0322 61.9043C84.5928 62.1914 84.373 62.6338 84.373 63.2314C84.373 63.665 84.502 64.002 84.7598 64.2422C85.0176 64.4766 85.4043 64.5938 85.9199 64.5938ZM97.2754 66.1758C95.8047 66.1758 94.6855 65.748 93.918 64.8926C93.1562 64.0312 92.7754 62.7979 92.7754 61.1924C92.7754 59.5576 93.1738 58.3008 93.9707 57.4219C94.7734 56.543 95.9307 56.1035 97.4424 56.1035C98.4678 56.1035 99.3906 56.2939 100.211 56.6748L99.5869 58.3359C98.7139 57.9961 97.9932 57.8262 97.4248 57.8262C95.7432 57.8262 94.9023 58.9424 94.9023 61.1748C94.9023 62.2646 95.1104 63.085 95.5264 63.6357C95.9482 64.1807 96.5635 64.4531 97.3721 64.4531C98.292 64.4531 99.1621 64.2246 99.9824 63.7676V65.5693C99.6133 65.7861 99.2178 65.9414 98.7959 66.0352C98.3799 66.1289 97.873 66.1758 97.2754 66.1758ZM110.819 66H108.745V60.0234C108.745 59.2734 108.593 58.7139 108.288 58.3447C107.989 57.9756 107.512 57.791 106.855 57.791C105.988 57.791 105.35 58.0518 104.939 58.5732C104.535 59.0889 104.333 59.9561 104.333 61.1748V66H102.268V52.3242H104.333V55.7959C104.333 56.3525 104.298 56.9473 104.228 57.5801H104.359C104.641 57.1113 105.03 56.748 105.528 56.4902C106.032 56.2324 106.618 56.1035 107.286 56.1035C109.642 56.1035 110.819 57.29 110.819 59.6631V66ZM117.938 66.1758C116.427 66.1758 115.243 65.7363 114.388 64.8574C113.538 63.9727 113.113 62.7568 113.113 61.21C113.113 59.6221 113.509 58.374 114.3 57.4658C115.091 56.5576 116.178 56.1035 117.561 56.1035C118.844 56.1035 119.857 56.4932 120.602 57.2725C121.346 58.0518 121.718 59.124 121.718 60.4893V61.6055H115.24C115.27 62.5488 115.524 63.2754 116.005 63.7852C116.485 64.2891 117.162 64.541 118.035 64.541C118.609 64.541 119.143 64.4883 119.635 64.3828C120.133 64.2715 120.666 64.0898 121.234 63.8379V65.5166C120.73 65.7568 120.221 65.9268 119.705 66.0264C119.189 66.126 118.601 66.1758 117.938 66.1758ZM117.561 57.668C116.904 57.668 116.377 57.876 115.979 58.292C115.586 58.708 115.352 59.3145 115.275 60.1113H119.688C119.676 59.3086 119.482 58.7021 119.107 58.292C118.732 57.876 118.217 57.668 117.561 57.668ZM128.995 56.1035C129.411 56.1035 129.754 56.1328 130.023 56.1914L129.821 58.1162C129.528 58.0459 129.224 58.0107 128.907 58.0107C128.081 58.0107 127.41 58.2803 126.895 58.8193C126.385 59.3584 126.13 60.0586 126.13 60.9199V66H124.064V56.2793H125.682L125.954 57.9932H126.06C126.382 57.4131 126.801 56.9531 127.316 56.6133C127.838 56.2734 128.397 56.1035 128.995 56.1035ZM138.364 63.2314C138.364 64.1807 138.019 64.9102 137.327 65.4199C136.636 65.9238 135.646 66.1758 134.356 66.1758C133.062 66.1758 132.021 65.9795 131.236 65.5869V63.8027C132.379 64.3301 133.442 64.5938 134.427 64.5938C135.698 64.5938 136.334 64.21 136.334 63.4424C136.334 63.1963 136.264 62.9912 136.123 62.8271C135.982 62.6631 135.751 62.4932 135.429 62.3174C135.106 62.1416 134.658 61.9424 134.084 61.7197C132.965 61.2861 132.206 60.8525 131.808 60.4189C131.415 59.9854 131.219 59.4229 131.219 58.7314C131.219 57.8994 131.553 57.2549 132.221 56.7979C132.895 56.335 133.809 56.1035 134.963 56.1035C136.105 56.1035 137.187 56.335 138.206 56.7979L137.538 58.3535C136.489 57.9199 135.607 57.7031 134.893 57.7031C133.803 57.7031 133.258 58.0137 133.258 58.6348C133.258 58.9395 133.398 59.1973 133.68 59.4082C133.967 59.6191 134.588 59.9092 135.543 60.2783C136.346 60.5889 136.929 60.873 137.292 61.1309C137.655 61.3887 137.925 61.6875 138.101 62.0273C138.276 62.3613 138.364 62.7627 138.364 63.2314ZM88.3369 91H86.2627V85.0234C86.2627 84.2734 86.1104 83.7139 85.8057 83.3447C85.5068 82.9756 85.0293 82.791 84.373 82.791C83.5 82.791 82.8613 83.0488 82.457 83.5645C82.0527 84.0801 81.8506 84.9443 81.8506 86.1572V91H79.7852V81.2793H81.4023L81.6924 82.5537H81.7979C82.0908 82.0908 82.5068 81.7334 83.0459 81.4814C83.585 81.2295 84.1826 81.1035 84.8389 81.1035C87.1709 81.1035 88.3369 82.29 88.3369 84.6631V91ZM95.4561 91.1758C93.9443 91.1758 92.7607 90.7363 91.9053 89.8574C91.0557 88.9727 90.6309 87.7568 90.6309 86.21C90.6309 84.6221 91.0264 83.374 91.8174 82.4658C92.6084 81.5576 93.6953 81.1035 95.0781 81.1035C96.3613 81.1035 97.375 81.4932 98.1191 82.2725C98.8633 83.0518 99.2354 84.124 99.2354 85.4893V86.6055H92.7578C92.7871 87.5488 93.042 88.2754 93.5225 88.7852C94.0029 89.2891 94.6797 89.541 95.5527 89.541C96.127 89.541 96.6602 89.4883 97.1523 89.3828C97.6504 89.2715 98.1836 89.0898 98.752 88.8379V90.5166C98.248 90.7568 97.7383 90.9268 97.2227 91.0264C96.707 91.126 96.1182 91.1758 95.4561 91.1758ZM95.0781 82.668C94.4219 82.668 93.8945 82.876 93.4961 83.292C93.1035 83.708 92.8691 84.3145 92.793 85.1113H97.2051C97.1934 84.3086 97 83.7021 96.625 83.292C96.25 82.876 95.7344 82.668 95.0781 82.668ZM105.827 91.1758C104.315 91.1758 103.132 90.7363 102.276 89.8574C101.427 88.9727 101.002 87.7568 101.002 86.21C101.002 84.6221 101.397 83.374 102.188 82.4658C102.979 81.5576 104.066 81.1035 105.449 81.1035C106.732 81.1035 107.746 81.4932 108.49 82.2725C109.234 83.0518 109.606 84.124 109.606 85.4893V86.6055H103.129C103.158 87.5488 103.413 88.2754 103.894 88.7852C104.374 89.2891 105.051 89.541 105.924 89.541C106.498 89.541 107.031 89.4883 107.523 89.3828C108.021 89.2715 108.555 89.0898 109.123 88.8379V90.5166C108.619 90.7568 108.109 90.9268 107.594 91.0264C107.078 91.126 106.489 91.1758 105.827 91.1758ZM105.449 82.668C104.793 82.668 104.266 82.876 103.867 83.292C103.475 83.708 103.24 84.3145 103.164 85.1113H107.576C107.564 84.3086 107.371 83.7021 106.996 83.292C106.621 82.876 106.105 82.668 105.449 82.668ZM115.231 91.1758C114.019 91.1758 113.072 90.7363 112.393 89.8574C111.713 88.9785 111.373 87.7451 111.373 86.1572C111.373 84.5635 111.716 83.3242 112.401 82.4395C113.093 81.5488 114.048 81.1035 115.267 81.1035C116.544 81.1035 117.517 81.5752 118.185 82.5186H118.29C118.19 81.8213 118.141 81.2705 118.141 80.8662V77.3242H120.215V91H118.598L118.237 89.7256H118.141C117.479 90.6924 116.509 91.1758 115.231 91.1758ZM115.785 89.5059C116.635 89.5059 117.253 89.2686 117.64 88.7939C118.026 88.3135 118.226 87.5371 118.237 86.4648V86.1748C118.237 84.9502 118.038 84.0801 117.64 83.5645C117.241 83.0488 116.617 82.791 115.768 82.791C115.041 82.791 114.481 83.0869 114.089 83.6787C113.696 84.2646 113.5 85.1025 113.5 86.1924C113.5 87.2705 113.69 88.0938 114.071 88.6621C114.452 89.2246 115.023 89.5059 115.785 89.5059ZM52.4424 106.104C52.8584 106.104 53.2012 106.133 53.4707 106.191L53.2686 108.116C52.9756 108.046 52.6709 108.011 52.3545 108.011C51.5283 108.011 50.8574 108.28 50.3418 108.819C49.832 109.358 49.5771 110.059 49.5771 110.92V116H47.5117V106.279H49.1289L49.4014 107.993H49.5068C49.8291 107.413 50.248 106.953 50.7637 106.613C51.2852 106.273 51.8447 106.104 52.4424 106.104ZM59.5264 116.176C58.0146 116.176 56.8311 115.736 55.9756 114.857C55.126 113.973 54.7012 112.757 54.7012 111.21C54.7012 109.622 55.0967 108.374 55.8877 107.466C56.6787 106.558 57.7656 106.104 59.1484 106.104C60.4316 106.104 61.4453 106.493 62.1895 107.272C62.9336 108.052 63.3057 109.124 63.3057 110.489V111.605H56.8281C56.8574 112.549 57.1123 113.275 57.5928 113.785C58.0732 114.289 58.75 114.541 59.623 114.541C60.1973 114.541 60.7305 114.488 61.2227 114.383C61.7207 114.271 62.2539 114.09 62.8223 113.838V115.517C62.3184 115.757 61.8086 115.927 61.293 116.026C60.7773 116.126 60.1885 116.176 59.5264 116.176ZM59.1484 107.668C58.4922 107.668 57.9648 107.876 57.5664 108.292C57.1738 108.708 56.9395 109.314 56.8633 110.111H61.2754C61.2637 109.309 61.0703 108.702 60.6953 108.292C60.3203 107.876 59.8047 107.668 59.1484 107.668ZM72.1826 113.231C72.1826 114.181 71.8369 114.91 71.1455 115.42C70.4541 115.924 69.4639 116.176 68.1748 116.176C66.8799 116.176 65.8398 115.979 65.0547 115.587V113.803C66.1973 114.33 67.2607 114.594 68.2451 114.594C69.5166 114.594 70.1523 114.21 70.1523 113.442C70.1523 113.196 70.082 112.991 69.9414 112.827C69.8008 112.663 69.5693 112.493 69.2471 112.317C68.9248 112.142 68.4766 111.942 67.9023 111.72C66.7832 111.286 66.0244 110.853 65.626 110.419C65.2334 109.985 65.0371 109.423 65.0371 108.731C65.0371 107.899 65.3711 107.255 66.0391 106.798C66.7129 106.335 67.627 106.104 68.7812 106.104C69.9238 106.104 71.0049 106.335 72.0244 106.798L71.3564 108.354C70.3076 107.92 69.4258 107.703 68.7109 107.703C67.6211 107.703 67.0762 108.014 67.0762 108.635C67.0762 108.939 67.2168 109.197 67.498 109.408C67.7852 109.619 68.4062 109.909 69.3613 110.278C70.1641 110.589 70.7471 110.873 71.1104 111.131C71.4736 111.389 71.7432 111.688 71.9189 112.027C72.0947 112.361 72.1826 112.763 72.1826 113.231ZM83.0459 111.122C83.0459 112.71 82.6387 113.949 81.8242 114.84C81.0098 115.73 79.876 116.176 78.4229 116.176C77.5146 116.176 76.7119 115.971 76.0146 115.561C75.3174 115.15 74.7812 114.562 74.4062 113.794C74.0312 113.026 73.8438 112.136 73.8438 111.122C73.8438 109.546 74.248 108.315 75.0566 107.431C75.8652 106.546 77.0049 106.104 78.4756 106.104C79.8818 106.104 80.9951 106.558 81.8154 107.466C82.6357 108.368 83.0459 109.587 83.0459 111.122ZM75.9707 111.122C75.9707 113.366 76.7998 114.488 78.458 114.488C80.0986 114.488 80.9189 113.366 80.9189 111.122C80.9189 108.901 80.0928 107.791 78.4404 107.791C77.5732 107.791 76.9434 108.078 76.5508 108.652C76.1641 109.227 75.9707 110.05 75.9707 111.122ZM92.2832 116L91.9932 114.726H91.8877C91.6006 115.177 91.1904 115.531 90.6572 115.789C90.1299 116.047 89.5264 116.176 88.8467 116.176C87.6689 116.176 86.79 115.883 86.21 115.297C85.6299 114.711 85.3398 113.823 85.3398 112.634V106.279H87.4229V112.273C87.4229 113.018 87.5752 113.577 87.8799 113.952C88.1846 114.321 88.6621 114.506 89.3125 114.506C90.1797 114.506 90.8154 114.248 91.2197 113.732C91.6299 113.211 91.835 112.341 91.835 111.122V106.279H93.9092V116H92.2832ZM101.784 106.104C102.2 106.104 102.543 106.133 102.812 106.191L102.61 108.116C102.317 108.046 102.013 108.011 101.696 108.011C100.87 108.011 100.199 108.28 99.6836 108.819C99.1738 109.358 98.9189 110.059 98.9189 110.92V116H96.8535V106.279H98.4707L98.7432 107.993H98.8486C99.1709 107.413 99.5898 106.953 100.105 106.613C100.627 106.273 101.187 106.104 101.784 106.104ZM108.543 116.176C107.072 116.176 105.953 115.748 105.186 114.893C104.424 114.031 104.043 112.798 104.043 111.192C104.043 109.558 104.441 108.301 105.238 107.422C106.041 106.543 107.198 106.104 108.71 106.104C109.735 106.104 110.658 106.294 111.479 106.675L110.854 108.336C109.981 107.996 109.261 107.826 108.692 107.826C107.011 107.826 106.17 108.942 106.17 111.175C106.17 112.265 106.378 113.085 106.794 113.636C107.216 114.181 107.831 114.453 108.64 114.453C109.56 114.453 110.43 114.225 111.25 113.768V115.569C110.881 115.786 110.485 115.941 110.063 116.035C109.647 116.129 109.141 116.176 108.543 116.176ZM117.78 116.176C116.269 116.176 115.085 115.736 114.229 114.857C113.38 113.973 112.955 112.757 112.955 111.21C112.955 109.622 113.351 108.374 114.142 107.466C114.933 106.558 116.02 106.104 117.402 106.104C118.686 106.104 119.699 106.493 120.443 107.272C121.188 108.052 121.56 109.124 121.56 110.489V111.605H115.082C115.111 112.549 115.366 113.275 115.847 113.785C116.327 114.289 117.004 114.541 117.877 114.541C118.451 114.541 118.984 114.488 119.477 114.383C119.975 114.271 120.508 114.09 121.076 113.838V115.517C120.572 115.757 120.062 115.927 119.547 116.026C119.031 116.126 118.442 116.176 117.78 116.176ZM117.402 107.668C116.746 107.668 116.219 107.876 115.82 108.292C115.428 108.708 115.193 109.314 115.117 110.111H119.529C119.518 109.309 119.324 108.702 118.949 108.292C118.574 107.876 118.059 107.668 117.402 107.668ZM130.437 113.231C130.437 114.181 130.091 114.91 129.399 115.42C128.708 115.924 127.718 116.176 126.429 116.176C125.134 116.176 124.094 115.979 123.309 115.587V113.803C124.451 114.33 125.515 114.594 126.499 114.594C127.771 114.594 128.406 114.21 128.406 113.442C128.406 113.196 128.336 112.991 128.195 112.827C128.055 112.663 127.823 112.493 127.501 112.317C127.179 112.142 126.73 111.942 126.156 111.72C125.037 111.286 124.278 110.853 123.88 110.419C123.487 109.985 123.291 109.423 123.291 108.731C123.291 107.899 123.625 107.255 124.293 106.798C124.967 106.335 125.881 106.104 127.035 106.104C128.178 106.104 129.259 106.335 130.278 106.798L129.61 108.354C128.562 107.92 127.68 107.703 126.965 107.703C125.875 107.703 125.33 108.014 125.33 108.635C125.33 108.939 125.471 109.197 125.752 109.408C126.039 109.619 126.66 109.909 127.615 110.278C128.418 110.589 129.001 110.873 129.364 111.131C129.728 111.389 129.997 111.688 130.173 112.027C130.349 112.361 130.437 112.763 130.437 113.231ZM140.975 114.506C141.479 114.506 141.982 114.427 142.486 114.269V115.824C142.258 115.924 141.962 116.006 141.599 116.07C141.241 116.141 140.869 116.176 140.482 116.176C138.525 116.176 137.547 115.145 137.547 113.082V107.844H136.22V106.93L137.644 106.174L138.347 104.117H139.621V106.279H142.39V107.844H139.621V113.047C139.621 113.545 139.744 113.914 139.99 114.154C140.242 114.389 140.57 114.506 140.975 114.506ZM153.06 111.122C153.06 112.71 152.652 113.949 151.838 114.84C151.023 115.73 149.89 116.176 148.437 116.176C147.528 116.176 146.726 115.971 146.028 115.561C145.331 115.15 144.795 114.562 144.42 113.794C144.045 113.026 143.857 112.136 143.857 111.122C143.857 109.546 144.262 108.315 145.07 107.431C145.879 106.546 147.019 106.104 148.489 106.104C149.896 106.104 151.009 106.558 151.829 107.466C152.649 108.368 153.06 109.587 153.06 111.122ZM145.984 111.122C145.984 113.366 146.813 114.488 148.472 114.488C150.112 114.488 150.933 113.366 150.933 111.122C150.933 108.901 150.106 107.791 148.454 107.791C147.587 107.791 146.957 108.078 146.564 108.652C146.178 109.227 145.984 110.05 145.984 111.122ZM81.0244 141H78.959V127.324H81.0244V141ZM88.2314 141.176C86.7197 141.176 85.5361 140.736 84.6807 139.857C83.8311 138.973 83.4062 137.757 83.4062 136.21C83.4062 134.622 83.8018 133.374 84.5928 132.466C85.3838 131.558 86.4707 131.104 87.8535 131.104C89.1367 131.104 90.1504 131.493 90.8945 132.272C91.6387 133.052 92.0107 134.124 92.0107 135.489V136.605H85.5332C85.5625 137.549 85.8174 138.275 86.2979 138.785C86.7783 139.289 87.4551 139.541 88.3281 139.541C88.9023 139.541 89.4355 139.488 89.9277 139.383C90.4258 139.271 90.959 139.09 91.5273 138.838V140.517C91.0234 140.757 90.5137 140.927 89.998 141.026C89.4824 141.126 88.8936 141.176 88.2314 141.176ZM87.8535 132.668C87.1973 132.668 86.6699 132.876 86.2715 133.292C85.8789 133.708 85.6445 134.314 85.5684 135.111H89.9805C89.9688 134.309 89.7754 133.702 89.4004 133.292C89.0254 132.876 88.5098 132.668 87.8535 132.668ZM100.439 141L100.026 139.646H99.9561C99.4873 140.238 99.0156 140.643 98.541 140.859C98.0664 141.07 97.457 141.176 96.7129 141.176C95.7578 141.176 95.0107 140.918 94.4717 140.402C93.9385 139.887 93.6719 139.157 93.6719 138.214C93.6719 137.212 94.0439 136.456 94.7881 135.946C95.5322 135.437 96.666 135.158 98.1895 135.111L99.8682 135.059V134.54C99.8682 133.919 99.7217 133.456 99.4287 133.151C99.1416 132.841 98.6934 132.686 98.084 132.686C97.5859 132.686 97.1084 132.759 96.6514 132.905C96.1943 133.052 95.7549 133.225 95.333 133.424L94.665 131.947C95.1924 131.672 95.7695 131.464 96.3965 131.323C97.0234 131.177 97.6152 131.104 98.1719 131.104C99.4082 131.104 100.34 131.373 100.967 131.912C101.6 132.451 101.916 133.298 101.916 134.452V141H100.439ZM97.3633 139.594C98.1133 139.594 98.7139 139.386 99.165 138.97C99.6221 138.548 99.8506 137.959 99.8506 137.203V136.359L98.6025 136.412C97.6299 136.447 96.9209 136.611 96.4756 136.904C96.0361 137.191 95.8164 137.634 95.8164 138.231C95.8164 138.665 95.9453 139.002 96.2031 139.242C96.4609 139.477 96.8477 139.594 97.3633 139.594ZM109.729 131.104C110.146 131.104 110.488 131.133 110.758 131.191L110.556 133.116C110.263 133.046 109.958 133.011 109.642 133.011C108.815 133.011 108.145 133.28 107.629 133.819C107.119 134.358 106.864 135.059 106.864 135.92V141H104.799V131.279H106.416L106.688 132.993H106.794C107.116 132.413 107.535 131.953 108.051 131.613C108.572 131.273 109.132 131.104 109.729 131.104ZM121.12 141H119.046V135.023C119.046 134.273 118.894 133.714 118.589 133.345C118.29 132.976 117.812 132.791 117.156 132.791C116.283 132.791 115.645 133.049 115.24 133.564C114.836 134.08 114.634 134.944 114.634 136.157V141H112.568V131.279H114.186L114.476 132.554H114.581C114.874 132.091 115.29 131.733 115.829 131.481C116.368 131.229 116.966 131.104 117.622 131.104C119.954 131.104 121.12 132.29 121.12 134.663V141Z" fill="#7F8499"/>
</g>
<defs>
<filter id="filter0_d" x="0" y="0" width="200" height="200" filterUnits="userSpaceOnUse" color-interpolation-filters="sRGB">
<feFlood flood-opacity="0" result="BackgroundImageFix"/>
<feColorMatrix in="SourceAlpha" type="matrix" values="0 0 0 0 0 0 0 0 0 0 0 0 0 0 0 0 0 0 127 0"/>
<feOffset dy="4"/>
<feGaussianBlur stdDeviation="5"/>
<feColorMatrix type="matrix" values="0 0 0 0 0 0 0 0 0 0 0 0 0 0 0 0 0 0 0.06 0"/>
<feBlend mode="normal" in2="BackgroundImageFix" result="effect1_dropShadow"/>
<feBlend mode="normal" in="SourceGraphic" in2="effect1_dropShadow" result="shape"/>
</filter>
</defs>
</svg>
