<svg width="210" height="210" viewBox="0 0 210 210" fill="none" xmlns="http://www.w3.org/2000/svg">
<g filter="url(#filter0_d)">
<rect x="15" y="11" width="180" height="180" rx="7.50936" fill="white"/>
<path d="M72.0059 71H69.9053V59.9521H66.126V58.1504H75.7852V59.9521H72.0059V71ZM81.7881 71.1758C80.2764 71.1758 79.0928 70.7363 78.2373 69.8574C77.3877 68.9727 76.9629 67.7568 76.9629 66.21C76.9629 64.6221 77.3584 63.374 78.1494 62.4658C78.9404 61.5576 80.0273 61.1035 81.4102 61.1035C82.6934 61.1035 83.707 61.4932 84.4512 62.2725C85.1953 63.0518 85.5674 64.124 85.5674 65.4893V66.6055H79.0898C79.1191 67.5488 79.374 68.2754 79.8545 68.7852C80.335 69.2891 81.0117 69.541 81.8848 69.541C82.459 69.541 82.9922 69.4883 83.4844 69.3828C83.9824 69.2715 84.5156 69.0898 85.084 68.8379V70.5166C84.5801 70.7568 84.0703 70.9268 83.5547 71.0264C83.0391 71.126 82.4502 71.1758 81.7881 71.1758ZM81.4102 62.668C80.7539 62.668 80.2266 62.876 79.8281 63.292C79.4355 63.708 79.2012 64.3145 79.125 65.1113H83.5371C83.5254 64.3086 83.332 63.7021 82.957 63.292C82.582 62.876 82.0664 62.668 81.4102 62.668ZM93.9961 71L93.583 69.6465H93.5127C93.0439 70.2383 92.5723 70.6426 92.0977 70.8594C91.623 71.0703 91.0137 71.1758 90.2695 71.1758C89.3145 71.1758 88.5674 70.918 88.0283 70.4023C87.4951 69.8867 87.2285 69.1572 87.2285 68.2139C87.2285 67.2119 87.6006 66.4561 88.3447 65.9463C89.0889 65.4365 90.2227 65.1582 91.7461 65.1113L93.4248 65.0586V64.54C93.4248 63.9189 93.2783 63.4561 92.9854 63.1514C92.6982 62.8408 92.25 62.6855 91.6406 62.6855C91.1426 62.6855 90.665 62.7588 90.208 62.9053C89.751 63.0518 89.3115 63.2246 88.8896 63.4238L88.2217 61.9473C88.749 61.6719 89.3262 61.4639 89.9531 61.3232C90.5801 61.1768 91.1719 61.1035 91.7285 61.1035C92.9648 61.1035 93.8965 61.373 94.5234 61.9121C95.1562 62.4512 95.4727 63.2979 95.4727 64.4521V71H93.9961ZM90.9199 69.5938C91.6699 69.5938 92.2705 69.3857 92.7217 68.9697C93.1787 68.5479 93.4072 67.959 93.4072 67.2031V66.3594L92.1592 66.4121C91.1865 66.4473 90.4775 66.6113 90.0322 66.9043C89.5928 67.1914 89.373 67.6338 89.373 68.2314C89.373 68.665 89.502 69.002 89.7598 69.2422C90.0176 69.4766 90.4043 69.5938 90.9199 69.5938ZM102.275 71.1758C100.805 71.1758 99.6855 70.748 98.918 69.8926C98.1562 69.0312 97.7754 67.7979 97.7754 66.1924C97.7754 64.5576 98.1738 63.3008 98.9707 62.4219C99.7734 61.543 100.931 61.1035 102.442 61.1035C103.468 61.1035 104.391 61.2939 105.211 61.6748L104.587 63.3359C103.714 62.9961 102.993 62.8262 102.425 62.8262C100.743 62.8262 99.9023 63.9424 99.9023 66.1748C99.9023 67.2646 100.11 68.085 100.526 68.6357C100.948 69.1807 101.563 69.4531 102.372 69.4531C103.292 69.4531 104.162 69.2246 104.982 68.7676V70.5693C104.613 70.7861 104.218 70.9414 103.796 71.0352C103.38 71.1289 102.873 71.1758 102.275 71.1758ZM115.819 71H113.745V65.0234C113.745 64.2734 113.593 63.7139 113.288 63.3447C112.989 62.9756 112.512 62.791 111.855 62.791C110.988 62.791 110.35 63.0518 109.939 63.5732C109.535 64.0889 109.333 64.9561 109.333 66.1748V71H107.268V57.3242H109.333V60.7959C109.333 61.3525 109.298 61.9473 109.228 62.5801H109.359C109.641 62.1113 110.03 61.748 110.528 61.4902C111.032 61.2324 111.618 61.1035 112.286 61.1035C114.642 61.1035 115.819 62.29 115.819 64.6631V71ZM122.938 71.1758C121.427 71.1758 120.243 70.7363 119.388 69.8574C118.538 68.9727 118.113 67.7568 118.113 66.21C118.113 64.6221 118.509 63.374 119.3 62.4658C120.091 61.5576 121.178 61.1035 122.561 61.1035C123.844 61.1035 124.857 61.4932 125.602 62.2725C126.346 63.0518 126.718 64.124 126.718 65.4893V66.6055H120.24C120.27 67.5488 120.524 68.2754 121.005 68.7852C121.485 69.2891 122.162 69.541 123.035 69.541C123.609 69.541 124.143 69.4883 124.635 69.3828C125.133 69.2715 125.666 69.0898 126.234 68.8379V70.5166C125.73 70.7568 125.221 70.9268 124.705 71.0264C124.189 71.126 123.601 71.1758 122.938 71.1758ZM122.561 62.668C121.904 62.668 121.377 62.876 120.979 63.292C120.586 63.708 120.352 64.3145 120.275 65.1113H124.688C124.676 64.3086 124.482 63.7021 124.107 63.292C123.732 62.876 123.217 62.668 122.561 62.668ZM133.995 61.1035C134.411 61.1035 134.754 61.1328 135.023 61.1914L134.821 63.1162C134.528 63.0459 134.224 63.0107 133.907 63.0107C133.081 63.0107 132.41 63.2803 131.895 63.8193C131.385 64.3584 131.13 65.0586 131.13 65.9199V71H129.064V61.2793H130.682L130.954 62.9932H131.06C131.382 62.4131 131.801 61.9531 132.316 61.6133C132.838 61.2734 133.397 61.1035 133.995 61.1035ZM143.364 68.2314C143.364 69.1807 143.019 69.9102 142.327 70.4199C141.636 70.9238 140.646 71.1758 139.356 71.1758C138.062 71.1758 137.021 70.9795 136.236 70.5869V68.8027C137.379 69.3301 138.442 69.5938 139.427 69.5938C140.698 69.5938 141.334 69.21 141.334 68.4424C141.334 68.1963 141.264 67.9912 141.123 67.8271C140.982 67.6631 140.751 67.4932 140.429 67.3174C140.106 67.1416 139.658 66.9424 139.084 66.7197C137.965 66.2861 137.206 65.8525 136.808 65.4189C136.415 64.9854 136.219 64.4229 136.219 63.7314C136.219 62.8994 136.553 62.2549 137.221 61.7979C137.895 61.335 138.809 61.1035 139.963 61.1035C141.105 61.1035 142.187 61.335 143.206 61.7979L142.538 63.3535C141.489 62.9199 140.607 62.7031 139.893 62.7031C138.803 62.7031 138.258 63.0137 138.258 63.6348C138.258 63.9395 138.398 64.1973 138.68 64.4082C138.967 64.6191 139.588 64.9092 140.543 65.2783C141.346 65.5889 141.929 65.873 142.292 66.1309C142.655 66.3887 142.925 66.6875 143.101 67.0273C143.276 67.3613 143.364 67.7627 143.364 68.2314ZM93.3369 96H91.2627V90.0234C91.2627 89.2734 91.1104 88.7139 90.8057 88.3447C90.5068 87.9756 90.0293 87.791 89.373 87.791C88.5 87.791 87.8613 88.0488 87.457 88.5645C87.0527 89.0801 86.8506 89.9443 86.8506 91.1572V96H84.7852V86.2793H86.4023L86.6924 87.5537H86.7979C87.0908 87.0908 87.5068 86.7334 88.0459 86.4814C88.585 86.2295 89.1826 86.1035 89.8389 86.1035C92.1709 86.1035 93.3369 87.29 93.3369 89.6631V96ZM100.456 96.1758C98.9443 96.1758 97.7607 95.7363 96.9053 94.8574C96.0557 93.9727 95.6309 92.7568 95.6309 91.21C95.6309 89.6221 96.0264 88.374 96.8174 87.4658C97.6084 86.5576 98.6953 86.1035 100.078 86.1035C101.361 86.1035 102.375 86.4932 103.119 87.2725C103.863 88.0518 104.235 89.124 104.235 90.4893V91.6055H97.7578C97.7871 92.5488 98.042 93.2754 98.5225 93.7852C99.0029 94.2891 99.6797 94.541 100.553 94.541C101.127 94.541 101.66 94.4883 102.152 94.3828C102.65 94.2715 103.184 94.0898 103.752 93.8379V95.5166C103.248 95.7568 102.738 95.9268 102.223 96.0264C101.707 96.126 101.118 96.1758 100.456 96.1758ZM100.078 87.668C99.4219 87.668 98.8945 87.876 98.4961 88.292C98.1035 88.708 97.8691 89.3145 97.793 90.1113H102.205C102.193 89.3086 102 88.7021 101.625 88.292C101.25 87.876 100.734 87.668 100.078 87.668ZM110.827 96.1758C109.315 96.1758 108.132 95.7363 107.276 94.8574C106.427 93.9727 106.002 92.7568 106.002 91.21C106.002 89.6221 106.397 88.374 107.188 87.4658C107.979 86.5576 109.066 86.1035 110.449 86.1035C111.732 86.1035 112.746 86.4932 113.49 87.2725C114.234 88.0518 114.606 89.124 114.606 90.4893V91.6055H108.129C108.158 92.5488 108.413 93.2754 108.894 93.7852C109.374 94.2891 110.051 94.541 110.924 94.541C111.498 94.541 112.031 94.4883 112.523 94.3828C113.021 94.2715 113.555 94.0898 114.123 93.8379V95.5166C113.619 95.7568 113.109 95.9268 112.594 96.0264C112.078 96.126 111.489 96.1758 110.827 96.1758ZM110.449 87.668C109.793 87.668 109.266 87.876 108.867 88.292C108.475 88.708 108.24 89.3145 108.164 90.1113H112.576C112.564 89.3086 112.371 88.7021 111.996 88.292C111.621 87.876 111.105 87.668 110.449 87.668ZM120.231 96.1758C119.019 96.1758 118.072 95.7363 117.393 94.8574C116.713 93.9785 116.373 92.7451 116.373 91.1572C116.373 89.5635 116.716 88.3242 117.401 87.4395C118.093 86.5488 119.048 86.1035 120.267 86.1035C121.544 86.1035 122.517 86.5752 123.185 87.5186H123.29C123.19 86.8213 123.141 86.2705 123.141 85.8662V82.3242H125.215V96H123.598L123.237 94.7256H123.141C122.479 95.6924 121.509 96.1758 120.231 96.1758ZM120.785 94.5059C121.635 94.5059 122.253 94.2686 122.64 93.7939C123.026 93.3135 123.226 92.5371 123.237 91.4648V91.1748C123.237 89.9502 123.038 89.0801 122.64 88.5645C122.241 88.0488 121.617 87.791 120.768 87.791C120.041 87.791 119.481 88.0869 119.089 88.6787C118.696 89.2646 118.5 90.1025 118.5 91.1924C118.5 92.2705 118.69 93.0938 119.071 93.6621C119.452 94.2246 120.023 94.5059 120.785 94.5059ZM57.4424 111.104C57.8584 111.104 58.2012 111.133 58.4707 111.191L58.2686 113.116C57.9756 113.046 57.6709 113.011 57.3545 113.011C56.5283 113.011 55.8574 113.28 55.3418 113.819C54.832 114.358 54.5771 115.059 54.5771 115.92V121H52.5117V111.279H54.1289L54.4014 112.993H54.5068C54.8291 112.413 55.248 111.953 55.7637 111.613C56.2852 111.273 56.8447 111.104 57.4424 111.104ZM64.5264 121.176C63.0146 121.176 61.8311 120.736 60.9756 119.857C60.126 118.973 59.7012 117.757 59.7012 116.21C59.7012 114.622 60.0967 113.374 60.8877 112.466C61.6787 111.558 62.7656 111.104 64.1484 111.104C65.4316 111.104 66.4453 111.493 67.1895 112.272C67.9336 113.052 68.3057 114.124 68.3057 115.489V116.605H61.8281C61.8574 117.549 62.1123 118.275 62.5928 118.785C63.0732 119.289 63.75 119.541 64.623 119.541C65.1973 119.541 65.7305 119.488 66.2227 119.383C66.7207 119.271 67.2539 119.09 67.8223 118.838V120.517C67.3184 120.757 66.8086 120.927 66.293 121.026C65.7773 121.126 65.1885 121.176 64.5264 121.176ZM64.1484 112.668C63.4922 112.668 62.9648 112.876 62.5664 113.292C62.1738 113.708 61.9395 114.314 61.8633 115.111H66.2754C66.2637 114.309 66.0703 113.702 65.6953 113.292C65.3203 112.876 64.8047 112.668 64.1484 112.668ZM77.1826 118.231C77.1826 119.181 76.8369 119.91 76.1455 120.42C75.4541 120.924 74.4639 121.176 73.1748 121.176C71.8799 121.176 70.8398 120.979 70.0547 120.587V118.803C71.1973 119.33 72.2607 119.594 73.2451 119.594C74.5166 119.594 75.1523 119.21 75.1523 118.442C75.1523 118.196 75.082 117.991 74.9414 117.827C74.8008 117.663 74.5693 117.493 74.2471 117.317C73.9248 117.142 73.4766 116.942 72.9023 116.72C71.7832 116.286 71.0244 115.853 70.626 115.419C70.2334 114.985 70.0371 114.423 70.0371 113.731C70.0371 112.899 70.3711 112.255 71.0391 111.798C71.7129 111.335 72.627 111.104 73.7812 111.104C74.9238 111.104 76.0049 111.335 77.0244 111.798L76.3564 113.354C75.3076 112.92 74.4258 112.703 73.7109 112.703C72.6211 112.703 72.0762 113.014 72.0762 113.635C72.0762 113.939 72.2168 114.197 72.498 114.408C72.7852 114.619 73.4062 114.909 74.3613 115.278C75.1641 115.589 75.7471 115.873 76.1104 116.131C76.4736 116.389 76.7432 116.688 76.9189 117.027C77.0947 117.361 77.1826 117.763 77.1826 118.231ZM88.0459 116.122C88.0459 117.71 87.6387 118.949 86.8242 119.84C86.0098 120.73 84.876 121.176 83.4229 121.176C82.5146 121.176 81.7119 120.971 81.0146 120.561C80.3174 120.15 79.7812 119.562 79.4062 118.794C79.0312 118.026 78.8438 117.136 78.8438 116.122C78.8438 114.546 79.248 113.315 80.0566 112.431C80.8652 111.546 82.0049 111.104 83.4756 111.104C84.8818 111.104 85.9951 111.558 86.8154 112.466C87.6357 113.368 88.0459 114.587 88.0459 116.122ZM80.9707 116.122C80.9707 118.366 81.7998 119.488 83.458 119.488C85.0986 119.488 85.9189 118.366 85.9189 116.122C85.9189 113.901 85.0928 112.791 83.4404 112.791C82.5732 112.791 81.9434 113.078 81.5508 113.652C81.1641 114.227 80.9707 115.05 80.9707 116.122ZM97.2832 121L96.9932 119.726H96.8877C96.6006 120.177 96.1904 120.531 95.6572 120.789C95.1299 121.047 94.5264 121.176 93.8467 121.176C92.6689 121.176 91.79 120.883 91.21 120.297C90.6299 119.711 90.3398 118.823 90.3398 117.634V111.279H92.4229V117.273C92.4229 118.018 92.5752 118.577 92.8799 118.952C93.1846 119.321 93.6621 119.506 94.3125 119.506C95.1797 119.506 95.8154 119.248 96.2197 118.732C96.6299 118.211 96.835 117.341 96.835 116.122V111.279H98.9092V121H97.2832ZM106.784 111.104C107.2 111.104 107.543 111.133 107.812 111.191L107.61 113.116C107.317 113.046 107.013 113.011 106.696 113.011C105.87 113.011 105.199 113.28 104.684 113.819C104.174 114.358 103.919 115.059 103.919 115.92V121H101.854V111.279H103.471L103.743 112.993H103.849C104.171 112.413 104.59 111.953 105.105 111.613C105.627 111.273 106.187 111.104 106.784 111.104ZM113.543 121.176C112.072 121.176 110.953 120.748 110.186 119.893C109.424 119.031 109.043 117.798 109.043 116.192C109.043 114.558 109.441 113.301 110.238 112.422C111.041 111.543 112.198 111.104 113.71 111.104C114.735 111.104 115.658 111.294 116.479 111.675L115.854 113.336C114.981 112.996 114.261 112.826 113.692 112.826C112.011 112.826 111.17 113.942 111.17 116.175C111.17 117.265 111.378 118.085 111.794 118.636C112.216 119.181 112.831 119.453 113.64 119.453C114.56 119.453 115.43 119.225 116.25 118.768V120.569C115.881 120.786 115.485 120.941 115.063 121.035C114.647 121.129 114.141 121.176 113.543 121.176ZM122.78 121.176C121.269 121.176 120.085 120.736 119.229 119.857C118.38 118.973 117.955 117.757 117.955 116.21C117.955 114.622 118.351 113.374 119.142 112.466C119.933 111.558 121.02 111.104 122.402 111.104C123.686 111.104 124.699 111.493 125.443 112.272C126.188 113.052 126.56 114.124 126.56 115.489V116.605H120.082C120.111 117.549 120.366 118.275 120.847 118.785C121.327 119.289 122.004 119.541 122.877 119.541C123.451 119.541 123.984 119.488 124.477 119.383C124.975 119.271 125.508 119.09 126.076 118.838V120.517C125.572 120.757 125.062 120.927 124.547 121.026C124.031 121.126 123.442 121.176 122.78 121.176ZM122.402 112.668C121.746 112.668 121.219 112.876 120.82 113.292C120.428 113.708 120.193 114.314 120.117 115.111H124.529C124.518 114.309 124.324 113.702 123.949 113.292C123.574 112.876 123.059 112.668 122.402 112.668ZM135.437 118.231C135.437 119.181 135.091 119.91 134.399 120.42C133.708 120.924 132.718 121.176 131.429 121.176C130.134 121.176 129.094 120.979 128.309 120.587V118.803C129.451 119.33 130.515 119.594 131.499 119.594C132.771 119.594 133.406 119.21 133.406 118.442C133.406 118.196 133.336 117.991 133.195 117.827C133.055 117.663 132.823 117.493 132.501 117.317C132.179 117.142 131.73 116.942 131.156 116.72C130.037 116.286 129.278 115.853 128.88 115.419C128.487 114.985 128.291 114.423 128.291 113.731C128.291 112.899 128.625 112.255 129.293 111.798C129.967 111.335 130.881 111.104 132.035 111.104C133.178 111.104 134.259 111.335 135.278 111.798L134.61 113.354C133.562 112.92 132.68 112.703 131.965 112.703C130.875 112.703 130.33 113.014 130.33 113.635C130.33 113.939 130.471 114.197 130.752 114.408C131.039 114.619 131.66 114.909 132.615 115.278C133.418 115.589 134.001 115.873 134.364 116.131C134.728 116.389 134.997 116.688 135.173 117.027C135.349 117.361 135.437 117.763 135.437 118.231ZM145.975 119.506C146.479 119.506 146.982 119.427 147.486 119.269V120.824C147.258 120.924 146.962 121.006 146.599 121.07C146.241 121.141 145.869 121.176 145.482 121.176C143.525 121.176 142.547 120.145 142.547 118.082V112.844H141.22V111.93L142.644 111.174L143.347 109.117H144.621V111.279H147.39V112.844H144.621V118.047C144.621 118.545 144.744 118.914 144.99 119.154C145.242 119.389 145.57 119.506 145.975 119.506ZM158.06 116.122C158.06 117.71 157.652 118.949 156.838 119.84C156.023 120.73 154.89 121.176 153.437 121.176C152.528 121.176 151.726 120.971 151.028 120.561C150.331 120.15 149.795 119.562 149.42 118.794C149.045 118.026 148.857 117.136 148.857 116.122C148.857 114.546 149.262 113.315 150.07 112.431C150.879 111.546 152.019 111.104 153.489 111.104C154.896 111.104 156.009 111.558 156.829 112.466C157.649 113.368 158.06 114.587 158.06 116.122ZM150.984 116.122C150.984 118.366 151.813 119.488 153.472 119.488C155.112 119.488 155.933 118.366 155.933 116.122C155.933 113.901 155.106 112.791 153.454 112.791C152.587 112.791 151.957 113.078 151.564 113.652C151.178 114.227 150.984 115.05 150.984 116.122ZM86.0244 146H83.959V132.324H86.0244V146ZM93.2314 146.176C91.7197 146.176 90.5361 145.736 89.6807 144.857C88.8311 143.973 88.4062 142.757 88.4062 141.21C88.4062 139.622 88.8018 138.374 89.5928 137.466C90.3838 136.558 91.4707 136.104 92.8535 136.104C94.1367 136.104 95.1504 136.493 95.8945 137.272C96.6387 138.052 97.0107 139.124 97.0107 140.489V141.605H90.5332C90.5625 142.549 90.8174 143.275 91.2979 143.785C91.7783 144.289 92.4551 144.541 93.3281 144.541C93.9023 144.541 94.4355 144.488 94.9277 144.383C95.4258 144.271 95.959 144.09 96.5273 143.838V145.517C96.0234 145.757 95.5137 145.927 94.998 146.026C94.4824 146.126 93.8936 146.176 93.2314 146.176ZM92.8535 137.668C92.1973 137.668 91.6699 137.876 91.2715 138.292C90.8789 138.708 90.6445 139.314 90.5684 140.111H94.9805C94.9688 139.309 94.7754 138.702 94.4004 138.292C94.0254 137.876 93.5098 137.668 92.8535 137.668ZM105.439 146L105.026 144.646H104.956C104.487 145.238 104.016 145.643 103.541 145.859C103.066 146.07 102.457 146.176 101.713 146.176C100.758 146.176 100.011 145.918 99.4717 145.402C98.9385 144.887 98.6719 144.157 98.6719 143.214C98.6719 142.212 99.0439 141.456 99.7881 140.946C100.532 140.437 101.666 140.158 103.189 140.111L104.868 140.059V139.54C104.868 138.919 104.722 138.456 104.429 138.151C104.142 137.841 103.693 137.686 103.084 137.686C102.586 137.686 102.108 137.759 101.651 137.905C101.194 138.052 100.755 138.225 100.333 138.424L99.665 136.947C100.192 136.672 100.77 136.464 101.396 136.323C102.023 136.177 102.615 136.104 103.172 136.104C104.408 136.104 105.34 136.373 105.967 136.912C106.6 137.451 106.916 138.298 106.916 139.452V146H105.439ZM102.363 144.594C103.113 144.594 103.714 144.386 104.165 143.97C104.622 143.548 104.851 142.959 104.851 142.203V141.359L103.603 141.412C102.63 141.447 101.921 141.611 101.476 141.904C101.036 142.191 100.816 142.634 100.816 143.231C100.816 143.665 100.945 144.002 101.203 144.242C101.461 144.477 101.848 144.594 102.363 144.594ZM114.729 136.104C115.146 136.104 115.488 136.133 115.758 136.191L115.556 138.116C115.263 138.046 114.958 138.011 114.642 138.011C113.815 138.011 113.145 138.28 112.629 138.819C112.119 139.358 111.864 140.059 111.864 140.92V146H109.799V136.279H111.416L111.688 137.993H111.794C112.116 137.413 112.535 136.953 113.051 136.613C113.572 136.273 114.132 136.104 114.729 136.104ZM126.12 146H124.046V140.023C124.046 139.273 123.894 138.714 123.589 138.345C123.29 137.976 122.812 137.791 122.156 137.791C121.283 137.791 120.645 138.049 120.24 138.564C119.836 139.08 119.634 139.944 119.634 141.157V146H117.568V136.279H119.186L119.476 137.554H119.581C119.874 137.091 120.29 136.733 120.829 136.481C121.368 136.229 121.966 136.104 122.622 136.104C124.954 136.104 126.12 137.29 126.12 139.663V146Z" fill="#7F8499"/>
</g>
<defs>
<filter id="filter0_d" x="0" y="0" width="210" height="210" filterUnits="userSpaceOnUse" color-interpolation-filters="sRGB">
<feFlood flood-opacity="0" result="BackgroundImageFix"/>
<feColorMatrix in="SourceAlpha" type="matrix" values="0 0 0 0 0 0 0 0 0 0 0 0 0 0 0 0 0 0 127 0"/>
<feOffset dy="4"/>
<feGaussianBlur stdDeviation="7.5"/>
<feColorMatrix type="matrix" values="0 0 0 0 0 0 0 0 0 0 0 0 0 0 0 0 0 0 0.15 0"/>
<feBlend mode="normal" in2="BackgroundImageFix" result="effect1_dropShadow"/>
<feBlend mode="normal" in="SourceGraphic" in2="effect1_dropShadow" result="shape"/>
</filter>
</defs>
</svg>
