<svg width="1088" height="272" viewBox="0 0 1088 272" fill="none" xmlns="http://www.w3.org/2000/svg">
<path d="M95 93L244.5 171L393.5 93L544.5 171L693.5 93L843 171L994 93" stroke="#EE765A" stroke-opacity="0.22" stroke-width="3" stroke-dasharray="7 7"/>
<circle cx="243.919" cy="171.919" r="11.9191" fill="#D95840"/>
<path d="M217.438 234.201C217.438 235.458 216.982 236.438 216.07 237.141C215.159 237.844 213.922 238.195 212.359 238.195C210.667 238.195 209.365 237.977 208.453 237.541V235.939C209.039 236.187 209.677 236.382 210.367 236.525C211.057 236.669 211.741 236.74 212.418 236.74C213.525 236.74 214.358 236.532 214.918 236.115C215.478 235.692 215.758 235.106 215.758 234.357C215.758 233.863 215.657 233.459 215.455 233.146C215.26 232.827 214.928 232.535 214.459 232.268C213.997 232.001 213.29 231.698 212.34 231.359C211.012 230.884 210.061 230.321 209.488 229.67C208.922 229.019 208.639 228.169 208.639 227.121C208.639 226.021 209.052 225.145 209.879 224.494C210.706 223.843 211.799 223.518 213.16 223.518C214.579 223.518 215.885 223.778 217.076 224.299L216.559 225.744C215.38 225.249 214.234 225.002 213.121 225.002C212.242 225.002 211.555 225.191 211.061 225.568C210.566 225.946 210.318 226.47 210.318 227.141C210.318 227.635 210.41 228.042 210.592 228.361C210.774 228.674 211.08 228.964 211.51 229.23C211.946 229.491 212.61 229.781 213.502 230.1C214.999 230.633 216.028 231.206 216.588 231.818C217.154 232.43 217.438 233.225 217.438 234.201ZM224.391 238.195C222.841 238.195 221.64 237.72 220.787 236.77C219.941 235.812 219.518 234.462 219.518 232.717C219.518 230.926 219.947 229.543 220.807 228.566C221.673 227.59 222.903 227.102 224.498 227.102C225.012 227.102 225.527 227.157 226.041 227.268C226.555 227.378 226.959 227.508 227.252 227.658L226.754 229.035C226.396 228.892 226.005 228.775 225.582 228.684C225.159 228.586 224.785 228.537 224.459 228.537C222.285 228.537 221.197 229.924 221.197 232.697C221.197 234.012 221.461 235.021 221.988 235.725C222.522 236.428 223.31 236.779 224.352 236.779C225.243 236.779 226.158 236.587 227.096 236.203V237.639C226.38 238.01 225.478 238.195 224.391 238.195ZM238.883 232.639C238.883 234.383 238.443 235.747 237.564 236.73C236.686 237.707 235.471 238.195 233.922 238.195C232.965 238.195 232.115 237.971 231.373 237.521C230.631 237.072 230.058 236.428 229.654 235.588C229.251 234.748 229.049 233.765 229.049 232.639C229.049 230.894 229.485 229.536 230.357 228.566C231.23 227.59 232.441 227.102 233.99 227.102C235.488 227.102 236.676 227.6 237.555 228.596C238.44 229.592 238.883 230.939 238.883 232.639ZM230.729 232.639C230.729 234.006 231.002 235.048 231.549 235.764C232.096 236.48 232.9 236.838 233.961 236.838C235.022 236.838 235.826 236.483 236.373 235.773C236.926 235.057 237.203 234.012 237.203 232.639C237.203 231.278 236.926 230.246 236.373 229.543C235.826 228.833 235.016 228.479 233.941 228.479C232.88 228.479 232.079 228.827 231.539 229.523C230.999 230.22 230.729 231.258 230.729 232.639ZM246.715 238.195C246.018 238.195 245.38 238.068 244.801 237.814C244.228 237.554 243.746 237.157 243.355 236.623H243.238C243.316 237.248 243.355 237.84 243.355 238.4V242.805H241.734V227.297H243.053L243.277 228.762H243.355C243.772 228.176 244.257 227.753 244.811 227.492C245.364 227.232 245.999 227.102 246.715 227.102C248.134 227.102 249.228 227.587 249.996 228.557C250.771 229.527 251.158 230.887 251.158 232.639C251.158 234.396 250.764 235.764 249.977 236.74C249.195 237.71 248.108 238.195 246.715 238.195ZM246.48 228.479C245.387 228.479 244.596 228.781 244.107 229.387C243.619 229.992 243.368 230.956 243.355 232.277V232.639C243.355 234.143 243.606 235.22 244.107 235.871C244.609 236.516 245.413 236.838 246.52 236.838C247.444 236.838 248.167 236.464 248.688 235.715C249.215 234.966 249.479 233.934 249.479 232.619C249.479 231.285 249.215 230.262 248.688 229.553C248.167 228.837 247.431 228.479 246.48 228.479ZM255.621 238H254V227.297H255.621V238ZM253.863 224.396C253.863 224.025 253.954 223.755 254.137 223.586C254.319 223.41 254.547 223.322 254.82 223.322C255.081 223.322 255.305 223.41 255.494 223.586C255.683 223.762 255.777 224.032 255.777 224.396C255.777 224.761 255.683 225.035 255.494 225.217C255.305 225.393 255.081 225.48 254.82 225.48C254.547 225.48 254.319 225.393 254.137 225.217C253.954 225.035 253.863 224.761 253.863 224.396ZM266.383 238V231.076C266.383 230.204 266.184 229.553 265.787 229.123C265.39 228.693 264.768 228.479 263.922 228.479C262.802 228.479 261.982 228.781 261.461 229.387C260.94 229.992 260.68 230.992 260.68 232.385V238H259.059V227.297H260.377L260.641 228.762H260.719C261.051 228.234 261.516 227.827 262.115 227.541C262.714 227.248 263.382 227.102 264.117 227.102C265.406 227.102 266.376 227.414 267.027 228.039C267.678 228.658 268.004 229.65 268.004 231.018V238H266.383ZM280.104 227.297V228.322L278.121 228.557C278.303 228.785 278.466 229.084 278.609 229.455C278.753 229.82 278.824 230.233 278.824 230.695C278.824 231.743 278.466 232.58 277.75 233.205C277.034 233.83 276.051 234.143 274.801 234.143C274.482 234.143 274.182 234.117 273.902 234.064C273.212 234.429 272.867 234.888 272.867 235.441C272.867 235.734 272.988 235.952 273.229 236.096C273.469 236.232 273.883 236.301 274.469 236.301H276.363C277.522 236.301 278.411 236.545 279.029 237.033C279.654 237.521 279.967 238.231 279.967 239.162C279.967 240.347 279.492 241.249 278.541 241.867C277.59 242.492 276.204 242.805 274.381 242.805C272.981 242.805 271.9 242.544 271.139 242.023C270.383 241.503 270.006 240.767 270.006 239.816C270.006 239.165 270.214 238.602 270.631 238.127C271.048 237.652 271.633 237.329 272.389 237.16C272.115 237.036 271.884 236.844 271.695 236.584C271.513 236.324 271.422 236.021 271.422 235.676C271.422 235.285 271.526 234.943 271.734 234.65C271.943 234.357 272.271 234.074 272.721 233.801C272.167 233.573 271.715 233.186 271.363 232.639C271.018 232.092 270.846 231.467 270.846 230.764C270.846 229.592 271.197 228.69 271.9 228.059C272.604 227.421 273.6 227.102 274.889 227.102C275.449 227.102 275.953 227.167 276.402 227.297H280.104ZM271.568 239.797C271.568 240.376 271.812 240.816 272.301 241.115C272.789 241.415 273.489 241.564 274.4 241.564C275.761 241.564 276.767 241.359 277.418 240.949C278.076 240.546 278.404 239.995 278.404 239.299C278.404 238.719 278.225 238.316 277.867 238.088C277.509 237.867 276.835 237.756 275.846 237.756H273.902C273.167 237.756 272.594 237.932 272.184 238.283C271.773 238.635 271.568 239.139 271.568 239.797ZM272.447 230.725C272.447 231.473 272.659 232.04 273.082 232.424C273.505 232.808 274.094 233 274.85 233C276.432 233 277.223 232.232 277.223 230.695C277.223 229.087 276.422 228.283 274.82 228.283C274.059 228.283 273.473 228.488 273.062 228.898C272.652 229.309 272.447 229.917 272.447 230.725Z" fill="#D95840"/>
<g filter="url(#filter0_d)">
<circle cx="94.175" cy="92.175" r="27.175" fill="#FFF5F3"/>
<circle cx="94.175" cy="92.175" r="24.675" stroke="#EE765A" stroke-opacity="0.4" stroke-width="5"/>
<circle cx="93.9191" cy="91.9191" r="11.9191" fill="#D95840"/>
<path d="M50.4551 18.8418C50.4551 21.2051 49.8691 23.0215 48.6973 24.291C47.5254 25.5605 45.8457 26.1953 43.6582 26.1953C41.4707 26.1953 39.791 25.5605 38.6191 24.291C37.4473 23.0215 36.8613 21.1986 36.8613 18.8223C36.8613 16.446 37.4473 14.6328 38.6191 13.3828C39.7975 12.1263 41.4837 11.498 43.6777 11.498C45.8717 11.498 47.5482 12.1296 48.707 13.3926C49.8724 14.6556 50.4551 16.472 50.4551 18.8418ZM40.0352 18.8418C40.0352 20.4368 40.3379 21.638 40.9434 22.4453C41.5488 23.2526 42.4538 23.6562 43.6582 23.6562C46.0736 23.6562 47.2812 22.0514 47.2812 18.8418C47.2812 15.6257 46.0801 14.0176 43.6777 14.0176C42.4733 14.0176 41.5651 14.4245 40.9531 15.2383C40.3411 16.0456 40.0352 17.2467 40.0352 18.8418ZM59.1758 26.1953C57.8932 26.1953 56.8874 25.7298 56.1582 24.7988H56.002C56.1061 25.7103 56.1582 26.2376 56.1582 26.3809V30.8047H53.1797V15.082H55.6016L56.0215 16.498H56.1582C56.8548 15.4173 57.8867 14.877 59.2539 14.877C60.543 14.877 61.5521 15.375 62.2812 16.3711C63.0104 17.3672 63.375 18.7507 63.375 20.5215C63.375 21.6868 63.2025 22.6992 62.8574 23.5586C62.5189 24.418 62.0339 25.0723 61.4023 25.5215C60.7708 25.9707 60.0286 26.1953 59.1758 26.1953ZM58.2969 17.2598C57.5612 17.2598 57.0241 17.4876 56.6855 17.9434C56.347 18.3926 56.1712 19.138 56.1582 20.1797V20.502C56.1582 21.6738 56.3307 22.5137 56.6758 23.0215C57.0273 23.5293 57.5807 23.7832 58.3359 23.7832C59.6706 23.7832 60.3379 22.6829 60.3379 20.4824C60.3379 19.4082 60.1719 18.6042 59.8398 18.0703C59.5143 17.5299 59 17.2598 58.2969 17.2598ZM70.3574 16.9961C69.7259 16.9961 69.2311 17.1979 68.873 17.6016C68.515 17.9987 68.3099 18.5651 68.2578 19.3008H72.4375C72.4245 18.5651 72.2324 17.9987 71.8613 17.6016C71.4902 17.1979 70.9889 16.9961 70.3574 16.9961ZM70.7773 26.1953C69.0195 26.1953 67.6458 25.7103 66.6562 24.7402C65.6667 23.7702 65.1719 22.3965 65.1719 20.6191C65.1719 18.7897 65.6276 17.377 66.5391 16.3809C67.457 15.3783 68.7233 14.877 70.3379 14.877C71.8809 14.877 73.082 15.3164 73.9414 16.1953C74.8008 17.0742 75.2305 18.2884 75.2305 19.8379V21.2832H68.1895C68.222 22.1296 68.4727 22.7904 68.9414 23.2656C69.4102 23.7409 70.0677 23.9785 70.9141 23.9785C71.5716 23.9785 72.1934 23.9102 72.7793 23.7734C73.3652 23.6367 73.9772 23.4186 74.6152 23.1191V25.4238C74.0944 25.6842 73.5378 25.8763 72.9453 26C72.3529 26.1302 71.6302 26.1953 70.7773 26.1953ZM87.7305 26H84.752V19.623C84.752 18.8353 84.612 18.2461 84.332 17.8555C84.0521 17.4583 83.6061 17.2598 82.9941 17.2598C82.1608 17.2598 81.5586 17.5397 81.1875 18.0996C80.8164 18.653 80.6309 19.5742 80.6309 20.8633V26H77.6523V15.082H79.9277L80.3281 16.4785H80.4941C80.8262 15.9512 81.2819 15.554 81.8613 15.2871C82.4473 15.0137 83.1113 14.877 83.8535 14.877C85.123 14.877 86.0866 15.222 86.7441 15.9121C87.4017 16.5957 87.7305 17.5853 87.7305 18.8809V26ZM104.654 22.0352C104.654 23.3242 104.189 24.3398 103.258 25.082C102.333 25.8242 101.044 26.1953 99.3906 26.1953C97.8672 26.1953 96.5195 25.9089 95.3477 25.3359V22.5234C96.3112 22.9531 97.125 23.2559 97.7891 23.4316C98.4596 23.6074 99.0716 23.6953 99.625 23.6953C100.289 23.6953 100.797 23.5684 101.148 23.3145C101.507 23.0605 101.686 22.6829 101.686 22.1816C101.686 21.9017 101.607 21.6543 101.451 21.4395C101.295 21.2181 101.064 21.0065 100.758 20.8047C100.458 20.6029 99.8431 20.2806 98.9121 19.8379C98.0397 19.4277 97.3854 19.0339 96.9492 18.6562C96.513 18.2786 96.1647 17.8392 95.9043 17.3379C95.6439 16.8366 95.5137 16.2507 95.5137 15.5801C95.5137 14.3171 95.9401 13.3242 96.793 12.6016C97.6523 11.8789 98.8372 11.5176 100.348 11.5176C101.09 11.5176 101.796 11.6055 102.467 11.7812C103.144 11.957 103.85 12.2044 104.586 12.5234L103.609 14.877C102.848 14.5645 102.216 14.3464 101.715 14.2227C101.22 14.099 100.732 14.0371 100.25 14.0371C99.6771 14.0371 99.2376 14.1706 98.9316 14.4375C98.6257 14.7044 98.4727 15.0527 98.4727 15.4824C98.4727 15.7493 98.5345 15.9837 98.6582 16.1855C98.7819 16.3809 98.9772 16.5729 99.2441 16.7617C99.5176 16.944 100.159 17.276 101.168 17.7578C102.503 18.3958 103.417 19.0371 103.912 19.6816C104.407 20.3197 104.654 21.1042 104.654 22.0352ZM113.004 26.1953C111.721 26.1953 110.715 25.7298 109.986 24.7988H109.83C109.934 25.7103 109.986 26.2376 109.986 26.3809V30.8047H107.008V15.082H109.43L109.85 16.498H109.986C110.683 15.4173 111.715 14.877 113.082 14.877C114.371 14.877 115.38 15.375 116.109 16.3711C116.839 17.3672 117.203 18.7507 117.203 20.5215C117.203 21.6868 117.031 22.6992 116.686 23.5586C116.347 24.418 115.862 25.0723 115.23 25.5215C114.599 25.9707 113.857 26.1953 113.004 26.1953ZM112.125 17.2598C111.389 17.2598 110.852 17.4876 110.514 17.9434C110.175 18.3926 109.999 19.138 109.986 20.1797V20.502C109.986 21.6738 110.159 22.5137 110.504 23.0215C110.855 23.5293 111.409 23.7832 112.164 23.7832C113.499 23.7832 114.166 22.6829 114.166 20.4824C114.166 19.4082 114 18.6042 113.668 18.0703C113.342 17.5299 112.828 17.2598 112.125 17.2598ZM126.598 26L126.021 24.5156H125.943C125.442 25.1471 124.924 25.5866 124.391 25.834C123.863 26.0749 123.173 26.1953 122.32 26.1953C121.272 26.1953 120.445 25.8958 119.84 25.2969C119.241 24.6979 118.941 23.8451 118.941 22.7383C118.941 21.5794 119.345 20.7266 120.152 20.1797C120.966 19.6263 122.19 19.3203 123.824 19.2617L125.719 19.2031V18.7246C125.719 17.6178 125.152 17.0645 124.02 17.0645C123.147 17.0645 122.122 17.3281 120.943 17.8555L119.957 15.8438C121.214 15.1862 122.607 14.8574 124.137 14.8574C125.602 14.8574 126.725 15.1764 127.506 15.8145C128.287 16.4525 128.678 17.4225 128.678 18.7246V26H126.598ZM125.719 20.9414L124.566 20.9805C123.701 21.0065 123.056 21.1628 122.633 21.4492C122.21 21.7357 121.998 22.1719 121.998 22.7578C121.998 23.5977 122.48 24.0176 123.443 24.0176C124.133 24.0176 124.684 23.819 125.094 23.4219C125.51 23.0247 125.719 22.4974 125.719 21.8398V20.9414ZM136.188 26.1953C132.789 26.1953 131.09 24.3301 131.09 20.5996C131.09 18.7441 131.552 17.3281 132.477 16.3516C133.401 15.3685 134.726 14.877 136.451 14.877C137.714 14.877 138.847 15.1243 139.85 15.6191L138.971 17.9238C138.502 17.735 138.066 17.582 137.662 17.4648C137.258 17.3411 136.855 17.2793 136.451 17.2793C134.902 17.2793 134.127 18.3796 134.127 20.5801C134.127 22.7155 134.902 23.7832 136.451 23.7832C137.024 23.7832 137.555 23.7083 138.043 23.5586C138.531 23.4023 139.02 23.1615 139.508 22.8359V25.3848C139.026 25.6908 138.538 25.9023 138.043 26.0195C137.555 26.1367 136.936 26.1953 136.188 26.1953ZM146.568 16.9961C145.937 16.9961 145.442 17.1979 145.084 17.6016C144.726 17.9987 144.521 18.5651 144.469 19.3008H148.648C148.635 18.5651 148.443 17.9987 148.072 17.6016C147.701 17.1979 147.2 16.9961 146.568 16.9961ZM146.988 26.1953C145.23 26.1953 143.857 25.7103 142.867 24.7402C141.878 23.7702 141.383 22.3965 141.383 20.6191C141.383 18.7897 141.839 17.377 142.75 16.3809C143.668 15.3783 144.934 14.877 146.549 14.877C148.092 14.877 149.293 15.3164 150.152 16.1953C151.012 17.0742 151.441 18.2884 151.441 19.8379V21.2832H144.4C144.433 22.1296 144.684 22.7904 145.152 23.2656C145.621 23.7409 146.279 23.9785 147.125 23.9785C147.783 23.9785 148.404 23.9102 148.99 23.7734C149.576 23.6367 150.188 23.4186 150.826 23.1191V25.4238C150.305 25.6842 149.749 25.8763 149.156 26C148.564 26.1302 147.841 26.1953 146.988 26.1953Z" fill="#D95840"/>
</g>
<circle cx="393.919" cy="92.9191" r="11.9191" fill="#D95840"/>
<path d="M354.879 20.0625V26H353.219V11.7227H357.135C358.886 11.7227 360.178 12.0579 361.012 12.7285C361.852 13.3991 362.271 14.4082 362.271 15.7559C362.271 17.6439 361.314 18.9199 359.4 19.584L363.277 26H361.314L357.857 20.0625H354.879ZM354.879 18.6367H357.154C358.326 18.6367 359.186 18.4056 359.732 17.9434C360.279 17.4746 360.553 16.7747 360.553 15.8438C360.553 14.8997 360.273 14.2194 359.713 13.8027C359.16 13.3861 358.268 13.1777 357.037 13.1777H354.879V18.6367ZM369.859 26.1953C368.277 26.1953 367.027 25.7135 366.109 24.75C365.198 23.7865 364.742 22.4486 364.742 20.7363C364.742 19.0111 365.165 17.6406 366.012 16.625C366.865 15.6094 368.007 15.1016 369.439 15.1016C370.781 15.1016 371.842 15.5443 372.623 16.4297C373.404 17.3086 373.795 18.4707 373.795 19.916V20.9414H366.422C366.454 22.1979 366.77 23.1517 367.369 23.8027C367.975 24.4538 368.824 24.7793 369.918 24.7793C371.07 24.7793 372.21 24.5384 373.336 24.0566V25.502C372.763 25.7493 372.219 25.9251 371.705 26.0293C371.197 26.14 370.582 26.1953 369.859 26.1953ZM369.42 16.459C368.561 16.459 367.874 16.7389 367.359 17.2988C366.852 17.8587 366.552 18.6335 366.461 19.623H372.057C372.057 18.6009 371.829 17.8197 371.373 17.2793C370.917 16.7324 370.266 16.459 369.42 16.459ZM383.473 23.0801C383.473 24.0762 383.102 24.8444 382.359 25.3848C381.617 25.9251 380.576 26.1953 379.234 26.1953C377.815 26.1953 376.708 25.9707 375.914 25.5215V24.0176C376.428 24.278 376.979 24.4831 377.564 24.6328C378.157 24.7826 378.727 24.8574 379.273 24.8574C380.12 24.8574 380.771 24.724 381.227 24.457C381.682 24.1836 381.91 23.7702 381.91 23.2168C381.91 22.8001 381.728 22.4453 381.363 22.1523C381.005 21.8529 380.302 21.5013 379.254 21.0977C378.258 20.7266 377.548 20.4043 377.125 20.1309C376.708 19.8509 376.396 19.5352 376.188 19.1836C375.986 18.832 375.885 18.4121 375.885 17.9238C375.885 17.0514 376.24 16.3646 376.949 15.8633C377.659 15.3555 378.632 15.1016 379.869 15.1016C381.021 15.1016 382.148 15.3359 383.248 15.8047L382.672 17.123C381.598 16.6803 380.624 16.459 379.752 16.459C378.984 16.459 378.404 16.5794 378.014 16.8203C377.623 17.0612 377.428 17.3932 377.428 17.8164C377.428 18.1029 377.499 18.347 377.643 18.5488C377.792 18.7507 378.03 18.9427 378.355 19.125C378.681 19.3073 379.306 19.571 380.23 19.916C381.5 20.3783 382.356 20.8438 382.799 21.3125C383.248 21.7812 383.473 22.3704 383.473 23.0801ZM390.641 26.1953C389.059 26.1953 387.809 25.7135 386.891 24.75C385.979 23.7865 385.523 22.4486 385.523 20.7363C385.523 19.0111 385.947 17.6406 386.793 16.625C387.646 15.6094 388.788 15.1016 390.221 15.1016C391.562 15.1016 392.623 15.5443 393.404 16.4297C394.186 17.3086 394.576 18.4707 394.576 19.916V20.9414H387.203C387.236 22.1979 387.551 23.1517 388.15 23.8027C388.756 24.4538 389.605 24.7793 390.699 24.7793C391.852 24.7793 392.991 24.5384 394.117 24.0566V25.502C393.544 25.7493 393.001 25.9251 392.486 26.0293C391.979 26.14 391.363 26.1953 390.641 26.1953ZM390.201 16.459C389.342 16.459 388.655 16.7389 388.141 17.2988C387.633 17.8587 387.333 18.6335 387.242 19.623H392.838C392.838 18.6009 392.61 17.8197 392.154 17.2793C391.699 16.7324 391.048 16.459 390.201 16.459ZM403.932 26L403.609 24.4766H403.531C402.997 25.1471 402.464 25.6029 401.93 25.8438C401.402 26.0781 400.742 26.1953 399.947 26.1953C398.886 26.1953 398.053 25.9219 397.447 25.375C396.848 24.8281 396.549 24.0501 396.549 23.041C396.549 20.8796 398.277 19.7467 401.734 19.6426L403.551 19.584V18.9199C403.551 18.0801 403.368 17.4616 403.004 17.0645C402.646 16.6608 402.07 16.459 401.275 16.459C400.383 16.459 399.374 16.7324 398.248 17.2793L397.75 16.0391C398.277 15.7526 398.854 15.528 399.479 15.3652C400.11 15.2025 400.742 15.1211 401.373 15.1211C402.649 15.1211 403.593 15.4043 404.205 15.9707C404.824 16.5371 405.133 17.4453 405.133 18.6953V26H403.932ZM400.27 24.8574C401.279 24.8574 402.07 24.5807 402.643 24.0273C403.222 23.474 403.512 22.6992 403.512 21.7031V20.7363L401.891 20.8047C400.602 20.8503 399.671 21.0521 399.098 21.4102C398.531 21.7617 398.248 22.3118 398.248 23.0605C398.248 23.6465 398.424 24.0924 398.775 24.3984C399.133 24.7044 399.632 24.8574 400.27 24.8574ZM413.365 15.1016C413.84 15.1016 414.267 15.1406 414.645 15.2188L414.42 16.7227C413.977 16.625 413.587 16.5762 413.248 16.5762C412.382 16.5762 411.64 16.9277 411.021 17.6309C410.41 18.334 410.104 19.2096 410.104 20.2578V26H408.482V15.2969H409.82L410.006 17.2793H410.084C410.481 16.5827 410.96 16.0456 411.52 15.668C412.079 15.2904 412.695 15.1016 413.365 15.1016ZM420.924 26.1953C419.374 26.1953 418.173 25.7201 417.32 24.7695C416.474 23.8125 416.051 22.4616 416.051 20.7168C416.051 18.9264 416.48 17.543 417.34 16.5664C418.206 15.5898 419.436 15.1016 421.031 15.1016C421.546 15.1016 422.06 15.1569 422.574 15.2676C423.089 15.3783 423.492 15.5085 423.785 15.6582L423.287 17.0352C422.929 16.8919 422.538 16.7747 422.115 16.6836C421.692 16.5859 421.318 16.5371 420.992 16.5371C418.818 16.5371 417.73 17.9238 417.73 20.6973C417.73 22.0124 417.994 23.0215 418.521 23.7246C419.055 24.4277 419.843 24.7793 420.885 24.7793C421.777 24.7793 422.691 24.5872 423.629 24.2031V25.6387C422.913 26.0098 422.011 26.1953 420.924 26.1953ZM433.502 26V19.0762C433.502 18.2038 433.303 17.5527 432.906 17.123C432.509 16.6934 431.887 16.4785 431.041 16.4785C429.915 16.4785 429.091 16.7845 428.57 17.3965C428.056 18.0085 427.799 19.0111 427.799 20.4043V26H426.178V10.8047H427.799V15.4043C427.799 15.9577 427.773 16.4167 427.721 16.7812H427.818C428.137 16.2669 428.59 15.8633 429.176 15.5703C429.768 15.2708 430.442 15.1211 431.197 15.1211C432.506 15.1211 433.486 15.4336 434.137 16.0586C434.794 16.6771 435.123 17.6634 435.123 19.0176V26H433.502Z" fill="#D95840"/>
<circle cx="693.919" cy="91.9191" r="11.9191" fill="#D95840"/>
<path d="M656.977 22.2012C656.977 23.4577 656.521 24.4375 655.609 25.1406C654.698 25.8438 653.461 26.1953 651.898 26.1953C650.206 26.1953 648.904 25.9772 647.992 25.541V23.9395C648.578 24.1868 649.216 24.3822 649.906 24.5254C650.596 24.6686 651.28 24.7402 651.957 24.7402C653.064 24.7402 653.897 24.5319 654.457 24.1152C655.017 23.6921 655.297 23.1061 655.297 22.3574C655.297 21.8626 655.196 21.459 654.994 21.1465C654.799 20.8275 654.467 20.5345 653.998 20.2676C653.536 20.0007 652.829 19.6979 651.879 19.3594C650.551 18.8841 649.6 18.321 649.027 17.6699C648.461 17.0189 648.178 16.1693 648.178 15.1211C648.178 14.0208 648.591 13.1452 649.418 12.4941C650.245 11.8431 651.339 11.5176 652.699 11.5176C654.118 11.5176 655.424 11.778 656.615 12.2988L656.098 13.7441C654.919 13.2493 653.773 13.002 652.66 13.002C651.781 13.002 651.094 13.1908 650.6 13.5684C650.105 13.946 649.857 14.4701 649.857 15.1406C649.857 15.6354 649.949 16.0423 650.131 16.3613C650.313 16.6738 650.619 16.9635 651.049 17.2305C651.485 17.4909 652.149 17.7806 653.041 18.0996C654.538 18.6335 655.567 19.2064 656.127 19.8184C656.693 20.4303 656.977 21.2246 656.977 22.2012ZM657.953 15.2969H659.691L662.035 21.4004C662.549 22.7936 662.868 23.7995 662.992 24.418H663.07C663.155 24.0859 663.331 23.5195 663.598 22.7188C663.871 21.9115 664.757 19.4375 666.254 15.2969H667.992L663.393 27.4844C662.937 28.6888 662.403 29.5417 661.791 30.043C661.186 30.5508 660.44 30.8047 659.555 30.8047C659.06 30.8047 658.572 30.7493 658.09 30.6387V29.3398C658.448 29.418 658.848 29.457 659.291 29.457C660.404 29.457 661.199 28.832 661.674 27.582L662.27 26.0586L657.953 15.2969ZM677.055 26V19.0762C677.055 18.2038 676.856 17.5527 676.459 17.123C676.062 16.6934 675.44 16.4785 674.594 16.4785C673.474 16.4785 672.654 16.7812 672.133 17.3867C671.612 17.9922 671.352 18.9915 671.352 20.3848V26H669.73V15.2969H671.049L671.312 16.7617H671.391C671.723 16.2344 672.188 15.8275 672.787 15.541C673.386 15.248 674.053 15.1016 674.789 15.1016C676.078 15.1016 677.048 15.4141 677.699 16.0391C678.35 16.6576 678.676 17.6504 678.676 19.0176V26H677.055ZM685.473 24.8574C685.759 24.8574 686.036 24.8379 686.303 24.7988C686.57 24.7533 686.781 24.7077 686.938 24.6621V25.9023C686.762 25.987 686.501 26.0553 686.156 26.1074C685.818 26.166 685.512 26.1953 685.238 26.1953C683.168 26.1953 682.133 25.1048 682.133 22.9238V16.5566H680.6V15.7754L682.133 15.1016L682.816 12.8164H683.754V15.2969H686.859V16.5566H683.754V22.8555C683.754 23.5 683.907 23.9948 684.213 24.3398C684.519 24.6849 684.939 24.8574 685.473 24.8574ZM696.41 26V19.0762C696.41 18.2038 696.212 17.5527 695.814 17.123C695.417 16.6934 694.796 16.4785 693.949 16.4785C692.823 16.4785 691.999 16.7845 691.479 17.3965C690.964 18.0085 690.707 19.0111 690.707 20.4043V26H689.086V10.8047H690.707V15.4043C690.707 15.9577 690.681 16.4167 690.629 16.7812H690.727C691.046 16.2669 691.498 15.8633 692.084 15.5703C692.676 15.2708 693.35 15.1211 694.105 15.1211C695.414 15.1211 696.394 15.4336 697.045 16.0586C697.702 16.6771 698.031 17.6634 698.031 19.0176V26H696.41ZM705.893 26.1953C704.311 26.1953 703.061 25.7135 702.143 24.75C701.231 23.7865 700.775 22.4486 700.775 20.7363C700.775 19.0111 701.199 17.6406 702.045 16.625C702.898 15.6094 704.04 15.1016 705.473 15.1016C706.814 15.1016 707.875 15.5443 708.656 16.4297C709.438 17.3086 709.828 18.4707 709.828 19.916V20.9414H702.455C702.488 22.1979 702.803 23.1517 703.402 23.8027C704.008 24.4538 704.857 24.7793 705.951 24.7793C707.104 24.7793 708.243 24.5384 709.369 24.0566V25.502C708.796 25.7493 708.253 25.9251 707.738 26.0293C707.23 26.14 706.615 26.1953 705.893 26.1953ZM705.453 16.459C704.594 16.459 703.907 16.7389 703.393 17.2988C702.885 17.8587 702.585 18.6335 702.494 19.623H708.09C708.09 18.6009 707.862 17.8197 707.406 17.2793C706.951 16.7324 706.299 16.459 705.453 16.459ZM719.506 23.0801C719.506 24.0762 719.135 24.8444 718.393 25.3848C717.65 25.9251 716.609 26.1953 715.268 26.1953C713.848 26.1953 712.742 25.9707 711.947 25.5215V24.0176C712.462 24.278 713.012 24.4831 713.598 24.6328C714.19 24.7826 714.76 24.8574 715.307 24.8574C716.153 24.8574 716.804 24.724 717.26 24.457C717.715 24.1836 717.943 23.7702 717.943 23.2168C717.943 22.8001 717.761 22.4453 717.396 22.1523C717.038 21.8529 716.335 21.5013 715.287 21.0977C714.291 20.7266 713.581 20.4043 713.158 20.1309C712.742 19.8509 712.429 19.5352 712.221 19.1836C712.019 18.832 711.918 18.4121 711.918 17.9238C711.918 17.0514 712.273 16.3646 712.982 15.8633C713.692 15.3555 714.665 15.1016 715.902 15.1016C717.055 15.1016 718.181 15.3359 719.281 15.8047L718.705 17.123C717.631 16.6803 716.658 16.459 715.785 16.459C715.017 16.459 714.438 16.5794 714.047 16.8203C713.656 17.0612 713.461 17.3932 713.461 17.8164C713.461 18.1029 713.533 18.347 713.676 18.5488C713.826 18.7507 714.063 18.9427 714.389 19.125C714.714 19.3073 715.339 19.571 716.264 19.916C717.533 20.3783 718.389 20.8438 718.832 21.3125C719.281 21.7812 719.506 22.3704 719.506 23.0801ZM723.773 26H722.152V15.2969H723.773V26ZM722.016 12.3965C722.016 12.0254 722.107 11.7552 722.289 11.5859C722.471 11.4102 722.699 11.3223 722.973 11.3223C723.233 11.3223 723.458 11.4102 723.646 11.5859C723.835 11.7617 723.93 12.0319 723.93 12.3965C723.93 12.7611 723.835 13.0345 723.646 13.2168C723.458 13.3926 723.233 13.4805 722.973 13.4805C722.699 13.4805 722.471 13.3926 722.289 13.2168C722.107 13.0345 722.016 12.7611 722.016 12.3965ZM734.115 23.0801C734.115 24.0762 733.744 24.8444 733.002 25.3848C732.26 25.9251 731.218 26.1953 729.877 26.1953C728.458 26.1953 727.351 25.9707 726.557 25.5215V24.0176C727.071 24.278 727.621 24.4831 728.207 24.6328C728.799 24.7826 729.369 24.8574 729.916 24.8574C730.762 24.8574 731.413 24.724 731.869 24.457C732.325 24.1836 732.553 23.7702 732.553 23.2168C732.553 22.8001 732.37 22.4453 732.006 22.1523C731.648 21.8529 730.945 21.5013 729.896 21.0977C728.9 20.7266 728.191 20.4043 727.768 20.1309C727.351 19.8509 727.038 19.5352 726.83 19.1836C726.628 18.832 726.527 18.4121 726.527 17.9238C726.527 17.0514 726.882 16.3646 727.592 15.8633C728.301 15.3555 729.275 15.1016 730.512 15.1016C731.664 15.1016 732.79 15.3359 733.891 15.8047L733.314 17.123C732.24 16.6803 731.267 16.459 730.395 16.459C729.626 16.459 729.047 16.5794 728.656 16.8203C728.266 17.0612 728.07 17.3932 728.07 17.8164C728.07 18.1029 728.142 18.347 728.285 18.5488C728.435 18.7507 728.673 18.9427 728.998 19.125C729.324 19.3073 729.949 19.571 730.873 19.916C732.143 20.3783 732.999 20.8438 733.441 21.3125C733.891 21.7812 734.115 22.3704 734.115 23.0801Z" fill="#D95840"/>
<circle cx="543.919" cy="168.919" r="11.9191" fill="#D95840"/>
<path d="M484.527 225.002C482.958 225.002 481.718 225.526 480.807 226.574C479.902 227.616 479.449 229.045 479.449 230.861C479.449 232.73 479.885 234.175 480.758 235.197C481.637 236.213 482.887 236.721 484.508 236.721C485.504 236.721 486.64 236.542 487.916 236.184V237.639C486.926 238.01 485.706 238.195 484.254 238.195C482.151 238.195 480.527 237.557 479.381 236.281C478.242 235.005 477.672 233.192 477.672 230.842C477.672 229.37 477.945 228.081 478.492 226.975C479.046 225.868 479.84 225.015 480.875 224.416C481.917 223.817 483.141 223.518 484.547 223.518C486.044 223.518 487.353 223.791 488.473 224.338L487.77 225.764C486.689 225.256 485.608 225.002 484.527 225.002ZM492.311 227.297V234.24C492.311 235.113 492.509 235.764 492.906 236.193C493.303 236.623 493.925 236.838 494.771 236.838C495.891 236.838 496.708 236.532 497.223 235.92C497.743 235.308 498.004 234.309 498.004 232.922V227.297H499.625V238H498.287L498.053 236.564H497.965C497.633 237.092 497.171 237.495 496.578 237.775C495.992 238.055 495.322 238.195 494.566 238.195C493.264 238.195 492.288 237.886 491.637 237.268C490.992 236.649 490.67 235.66 490.67 234.299V227.297H492.311ZM507.955 227.102C508.43 227.102 508.857 227.141 509.234 227.219L509.01 228.723C508.567 228.625 508.176 228.576 507.838 228.576C506.972 228.576 506.23 228.928 505.611 229.631C504.999 230.334 504.693 231.21 504.693 232.258V238H503.072V227.297H504.41L504.596 229.279H504.674C505.071 228.583 505.549 228.046 506.109 227.668C506.669 227.29 507.285 227.102 507.955 227.102ZM516.119 227.102C516.594 227.102 517.021 227.141 517.398 227.219L517.174 228.723C516.731 228.625 516.34 228.576 516.002 228.576C515.136 228.576 514.394 228.928 513.775 229.631C513.163 230.334 512.857 231.21 512.857 232.258V238H511.236V227.297H512.574L512.76 229.279H512.838C513.235 228.583 513.714 228.046 514.273 227.668C514.833 227.29 515.449 227.102 516.119 227.102ZM523.922 238.195C522.34 238.195 521.09 237.714 520.172 236.75C519.26 235.786 518.805 234.449 518.805 232.736C518.805 231.011 519.228 229.641 520.074 228.625C520.927 227.609 522.07 227.102 523.502 227.102C524.843 227.102 525.904 227.544 526.686 228.43C527.467 229.309 527.857 230.471 527.857 231.916V232.941H520.484C520.517 234.198 520.833 235.152 521.432 235.803C522.037 236.454 522.887 236.779 523.98 236.779C525.133 236.779 526.272 236.538 527.398 236.057V237.502C526.826 237.749 526.282 237.925 525.768 238.029C525.26 238.14 524.645 238.195 523.922 238.195ZM523.482 228.459C522.623 228.459 521.936 228.739 521.422 229.299C520.914 229.859 520.615 230.633 520.523 231.623H526.119C526.119 230.601 525.891 229.82 525.436 229.279C524.98 228.732 524.329 228.459 523.482 228.459ZM537.955 238V231.076C537.955 230.204 537.757 229.553 537.359 229.123C536.962 228.693 536.34 228.479 535.494 228.479C534.374 228.479 533.554 228.781 533.033 229.387C532.512 229.992 532.252 230.992 532.252 232.385V238H530.631V227.297H531.949L532.213 228.762H532.291C532.623 228.234 533.089 227.827 533.688 227.541C534.286 227.248 534.954 227.102 535.689 227.102C536.979 227.102 537.949 227.414 538.6 228.039C539.251 228.658 539.576 229.65 539.576 231.018V238H537.955ZM546.373 236.857C546.66 236.857 546.936 236.838 547.203 236.799C547.47 236.753 547.682 236.708 547.838 236.662V237.902C547.662 237.987 547.402 238.055 547.057 238.107C546.718 238.166 546.412 238.195 546.139 238.195C544.068 238.195 543.033 237.105 543.033 234.924V228.557H541.5V227.775L543.033 227.102L543.717 224.816H544.654V227.297H547.76V228.557H544.654V234.855C544.654 235.5 544.807 235.995 545.113 236.34C545.419 236.685 545.839 236.857 546.373 236.857ZM563.482 234.201C563.482 235.458 563.027 236.438 562.115 237.141C561.204 237.844 559.967 238.195 558.404 238.195C556.712 238.195 555.41 237.977 554.498 237.541V235.939C555.084 236.187 555.722 236.382 556.412 236.525C557.102 236.669 557.786 236.74 558.463 236.74C559.57 236.74 560.403 236.532 560.963 236.115C561.523 235.692 561.803 235.106 561.803 234.357C561.803 233.863 561.702 233.459 561.5 233.146C561.305 232.827 560.973 232.535 560.504 232.268C560.042 232.001 559.335 231.698 558.385 231.359C557.057 230.884 556.106 230.321 555.533 229.67C554.967 229.019 554.684 228.169 554.684 227.121C554.684 226.021 555.097 225.145 555.924 224.494C556.751 223.843 557.844 223.518 559.205 223.518C560.624 223.518 561.93 223.778 563.121 224.299L562.604 225.744C561.425 225.249 560.279 225.002 559.166 225.002C558.287 225.002 557.6 225.191 557.105 225.568C556.611 225.946 556.363 226.47 556.363 227.141C556.363 227.635 556.454 228.042 556.637 228.361C556.819 228.674 557.125 228.964 557.555 229.23C557.991 229.491 558.655 229.781 559.547 230.1C561.044 230.633 562.073 231.206 562.633 231.818C563.199 232.43 563.482 233.225 563.482 234.201ZM569.615 236.857C569.902 236.857 570.178 236.838 570.445 236.799C570.712 236.753 570.924 236.708 571.08 236.662V237.902C570.904 237.987 570.644 238.055 570.299 238.107C569.96 238.166 569.654 238.195 569.381 238.195C567.311 238.195 566.275 237.105 566.275 234.924V228.557H564.742V227.775L566.275 227.102L566.959 224.816H567.896V227.297H571.002V228.557H567.896V234.855C567.896 235.5 568.049 235.995 568.355 236.34C568.661 236.685 569.081 236.857 569.615 236.857ZM579.811 238L579.488 236.477H579.41C578.876 237.147 578.342 237.603 577.809 237.844C577.281 238.078 576.62 238.195 575.826 238.195C574.765 238.195 573.932 237.922 573.326 237.375C572.727 236.828 572.428 236.05 572.428 235.041C572.428 232.88 574.156 231.747 577.613 231.643L579.43 231.584V230.92C579.43 230.08 579.247 229.462 578.883 229.064C578.525 228.661 577.949 228.459 577.154 228.459C576.262 228.459 575.253 228.732 574.127 229.279L573.629 228.039C574.156 227.753 574.732 227.528 575.357 227.365C575.989 227.202 576.62 227.121 577.252 227.121C578.528 227.121 579.472 227.404 580.084 227.971C580.702 228.537 581.012 229.445 581.012 230.695V238H579.811ZM576.148 236.857C577.158 236.857 577.949 236.581 578.521 236.027C579.101 235.474 579.391 234.699 579.391 233.703V232.736L577.77 232.805C576.48 232.85 575.549 233.052 574.977 233.41C574.41 233.762 574.127 234.312 574.127 235.061C574.127 235.646 574.303 236.092 574.654 236.398C575.012 236.704 575.51 236.857 576.148 236.857ZM587.818 236.857C588.105 236.857 588.382 236.838 588.648 236.799C588.915 236.753 589.127 236.708 589.283 236.662V237.902C589.107 237.987 588.847 238.055 588.502 238.107C588.163 238.166 587.857 238.195 587.584 238.195C585.514 238.195 584.479 237.105 584.479 234.924V228.557H582.945V227.775L584.479 227.102L585.162 224.816H586.1V227.297H589.205V228.557H586.1V234.855C586.1 235.5 586.253 235.995 586.559 236.34C586.865 236.685 587.285 236.857 587.818 236.857ZM592.955 227.297V234.24C592.955 235.113 593.154 235.764 593.551 236.193C593.948 236.623 594.57 236.838 595.416 236.838C596.536 236.838 597.353 236.532 597.867 235.92C598.388 235.308 598.648 234.309 598.648 232.922V227.297H600.27V238H598.932L598.697 236.564H598.609C598.277 237.092 597.815 237.495 597.223 237.775C596.637 238.055 595.966 238.195 595.211 238.195C593.909 238.195 592.932 237.886 592.281 237.268C591.637 236.649 591.314 235.66 591.314 234.299V227.297H592.955ZM610.621 235.08C610.621 236.076 610.25 236.844 609.508 237.385C608.766 237.925 607.724 238.195 606.383 238.195C604.964 238.195 603.857 237.971 603.062 237.521V236.018C603.577 236.278 604.127 236.483 604.713 236.633C605.305 236.783 605.875 236.857 606.422 236.857C607.268 236.857 607.919 236.724 608.375 236.457C608.831 236.184 609.059 235.77 609.059 235.217C609.059 234.8 608.876 234.445 608.512 234.152C608.154 233.853 607.451 233.501 606.402 233.098C605.406 232.727 604.697 232.404 604.273 232.131C603.857 231.851 603.544 231.535 603.336 231.184C603.134 230.832 603.033 230.412 603.033 229.924C603.033 229.051 603.388 228.365 604.098 227.863C604.807 227.355 605.781 227.102 607.018 227.102C608.17 227.102 609.296 227.336 610.396 227.805L609.82 229.123C608.746 228.68 607.773 228.459 606.9 228.459C606.132 228.459 605.553 228.579 605.162 228.82C604.771 229.061 604.576 229.393 604.576 229.816C604.576 230.103 604.648 230.347 604.791 230.549C604.941 230.751 605.178 230.943 605.504 231.125C605.829 231.307 606.454 231.571 607.379 231.916C608.648 232.378 609.505 232.844 609.947 233.312C610.396 233.781 610.621 234.37 610.621 235.08Z" fill="#D95840"/>
<circle cx="843.919" cy="168.919" r="11.9191" fill="#D95840"/>
<path d="M826.773 227.725C826.773 230.081 826.132 231.885 824.85 233.135C823.574 234.378 821.734 235 819.332 235H815.377V220.723H819.752C821.972 220.723 823.697 221.338 824.928 222.568C826.158 223.799 826.773 225.518 826.773 227.725ZM825.016 227.783C825.016 225.921 824.547 224.518 823.609 223.574C822.678 222.63 821.292 222.158 819.449 222.158H817.037V233.564H819.059C821.038 233.564 822.525 233.079 823.521 232.109C824.518 231.133 825.016 229.691 825.016 227.783ZM834.244 235.195C832.662 235.195 831.412 234.714 830.494 233.75C829.583 232.786 829.127 231.449 829.127 229.736C829.127 228.011 829.55 226.641 830.396 225.625C831.249 224.609 832.392 224.102 833.824 224.102C835.165 224.102 836.227 224.544 837.008 225.43C837.789 226.309 838.18 227.471 838.18 228.916V229.941H830.807C830.839 231.198 831.155 232.152 831.754 232.803C832.359 233.454 833.209 233.779 834.303 233.779C835.455 233.779 836.594 233.538 837.721 233.057V234.502C837.148 234.749 836.604 234.925 836.09 235.029C835.582 235.14 834.967 235.195 834.244 235.195ZM833.805 225.459C832.945 225.459 832.258 225.739 831.744 226.299C831.236 226.859 830.937 227.633 830.846 228.623H836.441C836.441 227.601 836.214 226.82 835.758 226.279C835.302 225.732 834.651 225.459 833.805 225.459ZM845.777 225.557H843.053V235H841.432V225.557H839.518V224.824L841.432 224.238V223.643C841.432 221.012 842.581 219.697 844.879 219.697C845.445 219.697 846.109 219.811 846.871 220.039L846.451 221.338C845.826 221.136 845.292 221.035 844.85 221.035C844.238 221.035 843.785 221.24 843.492 221.65C843.199 222.054 843.053 222.705 843.053 223.604V224.297H845.777V225.557ZM849.352 235H847.73V224.297H849.352V235ZM847.594 221.396C847.594 221.025 847.685 220.755 847.867 220.586C848.049 220.41 848.277 220.322 848.551 220.322C848.811 220.322 849.036 220.41 849.225 220.586C849.413 220.762 849.508 221.032 849.508 221.396C849.508 221.761 849.413 222.035 849.225 222.217C849.036 222.393 848.811 222.48 848.551 222.48C848.277 222.48 848.049 222.393 847.867 222.217C847.685 222.035 847.594 221.761 847.594 221.396ZM860.113 235V228.076C860.113 227.204 859.915 226.553 859.518 226.123C859.12 225.693 858.499 225.479 857.652 225.479C856.533 225.479 855.712 225.781 855.191 226.387C854.671 226.992 854.41 227.992 854.41 229.385V235H852.789V224.297H854.107L854.371 225.762H854.449C854.781 225.234 855.247 224.827 855.846 224.541C856.445 224.248 857.112 224.102 857.848 224.102C859.137 224.102 860.107 224.414 860.758 225.039C861.409 225.658 861.734 226.65 861.734 228.018V235H860.113ZM869.596 235.195C868.014 235.195 866.764 234.714 865.846 233.75C864.934 232.786 864.479 231.449 864.479 229.736C864.479 228.011 864.902 226.641 865.748 225.625C866.601 224.609 867.743 224.102 869.176 224.102C870.517 224.102 871.578 224.544 872.359 225.43C873.141 226.309 873.531 227.471 873.531 228.916V229.941H866.158C866.191 231.198 866.507 232.152 867.105 232.803C867.711 233.454 868.561 233.779 869.654 233.779C870.807 233.779 871.946 233.538 873.072 233.057V234.502C872.499 234.749 871.956 234.925 871.441 235.029C870.934 235.14 870.318 235.195 869.596 235.195ZM869.156 225.459C868.297 225.459 867.61 225.739 867.096 226.299C866.588 226.859 866.288 227.633 866.197 228.623H871.793C871.793 227.601 871.565 226.82 871.109 226.279C870.654 225.732 870.003 225.459 869.156 225.459ZM793.365 257.842C793.365 260.127 792.786 261.924 791.627 263.232C790.475 264.541 788.87 265.195 786.812 265.195C784.71 265.195 783.085 264.554 781.939 263.271C780.8 261.982 780.23 260.166 780.23 257.822C780.23 255.498 780.803 253.698 781.949 252.422C783.095 251.139 784.723 250.498 786.832 250.498C788.883 250.498 790.484 251.149 791.637 252.451C792.789 253.753 793.365 255.55 793.365 257.842ZM781.988 257.842C781.988 259.775 782.398 261.243 783.219 262.246C784.046 263.242 785.243 263.74 786.812 263.74C788.395 263.74 789.589 263.242 790.396 262.246C791.204 261.25 791.607 259.782 791.607 257.842C791.607 255.921 791.204 254.466 790.396 253.477C789.596 252.48 788.408 251.982 786.832 251.982C785.25 251.982 784.046 252.484 783.219 253.486C782.398 254.482 781.988 255.934 781.988 257.842ZM801.295 265.195C800.598 265.195 799.96 265.068 799.381 264.814C798.808 264.554 798.326 264.157 797.936 263.623H797.818C797.896 264.248 797.936 264.84 797.936 265.4V269.805H796.314V254.297H797.633L797.857 255.762H797.936C798.352 255.176 798.837 254.753 799.391 254.492C799.944 254.232 800.579 254.102 801.295 254.102C802.714 254.102 803.808 254.587 804.576 255.557C805.351 256.527 805.738 257.887 805.738 259.639C805.738 261.396 805.344 262.764 804.557 263.74C803.775 264.71 802.688 265.195 801.295 265.195ZM801.061 255.479C799.967 255.479 799.176 255.781 798.688 256.387C798.199 256.992 797.949 257.956 797.936 259.277V259.639C797.936 261.143 798.186 262.22 798.688 262.871C799.189 263.516 799.993 263.838 801.1 263.838C802.024 263.838 802.747 263.464 803.268 262.715C803.795 261.966 804.059 260.934 804.059 259.619C804.059 258.285 803.795 257.262 803.268 256.553C802.747 255.837 802.011 255.479 801.061 255.479ZM813.561 265.195C812.864 265.195 812.226 265.068 811.646 264.814C811.074 264.554 810.592 264.157 810.201 263.623H810.084C810.162 264.248 810.201 264.84 810.201 265.4V269.805H808.58V254.297H809.898L810.123 255.762H810.201C810.618 255.176 811.103 254.753 811.656 254.492C812.21 254.232 812.844 254.102 813.561 254.102C814.98 254.102 816.074 254.587 816.842 255.557C817.617 256.527 818.004 257.887 818.004 259.639C818.004 261.396 817.61 262.764 816.822 263.74C816.041 264.71 814.954 265.195 813.561 265.195ZM813.326 255.479C812.232 255.479 811.441 255.781 810.953 256.387C810.465 256.992 810.214 257.956 810.201 259.277V259.639C810.201 261.143 810.452 262.22 810.953 262.871C811.454 263.516 812.258 263.838 813.365 263.838C814.29 263.838 815.012 263.464 815.533 262.715C816.061 261.966 816.324 260.934 816.324 259.619C816.324 258.285 816.061 257.262 815.533 256.553C815.012 255.837 814.277 255.479 813.326 255.479ZM830.084 259.639C830.084 261.383 829.645 262.747 828.766 263.73C827.887 264.707 826.673 265.195 825.123 265.195C824.166 265.195 823.316 264.971 822.574 264.521C821.832 264.072 821.259 263.428 820.855 262.588C820.452 261.748 820.25 260.765 820.25 259.639C820.25 257.894 820.686 256.536 821.559 255.566C822.431 254.59 823.642 254.102 825.191 254.102C826.689 254.102 827.877 254.6 828.756 255.596C829.641 256.592 830.084 257.939 830.084 259.639ZM821.93 259.639C821.93 261.006 822.203 262.048 822.75 262.764C823.297 263.48 824.101 263.838 825.162 263.838C826.223 263.838 827.027 263.483 827.574 262.773C828.128 262.057 828.404 261.012 828.404 259.639C828.404 258.278 828.128 257.246 827.574 256.543C827.027 255.833 826.217 255.479 825.143 255.479C824.081 255.479 823.281 255.827 822.74 256.523C822.2 257.22 821.93 258.258 821.93 259.639ZM837.818 254.102C838.294 254.102 838.72 254.141 839.098 254.219L838.873 255.723C838.43 255.625 838.04 255.576 837.701 255.576C836.835 255.576 836.093 255.928 835.475 256.631C834.863 257.334 834.557 258.21 834.557 259.258V265H832.936V254.297H834.273L834.459 256.279H834.537C834.934 255.583 835.413 255.046 835.973 254.668C836.533 254.29 837.148 254.102 837.818 254.102ZM844.557 263.857C844.843 263.857 845.12 263.838 845.387 263.799C845.654 263.753 845.865 263.708 846.021 263.662V264.902C845.846 264.987 845.585 265.055 845.24 265.107C844.902 265.166 844.596 265.195 844.322 265.195C842.252 265.195 841.217 264.105 841.217 261.924V255.557H839.684V254.775L841.217 254.102L841.9 251.816H842.838V254.297H845.943V255.557H842.838V261.855C842.838 262.5 842.991 262.995 843.297 263.34C843.603 263.685 844.023 263.857 844.557 263.857ZM849.693 254.297V261.24C849.693 262.113 849.892 262.764 850.289 263.193C850.686 263.623 851.308 263.838 852.154 263.838C853.274 263.838 854.091 263.532 854.605 262.92C855.126 262.308 855.387 261.309 855.387 259.922V254.297H857.008V265H855.67L855.436 263.564H855.348C855.016 264.092 854.553 264.495 853.961 264.775C853.375 265.055 852.704 265.195 851.949 265.195C850.647 265.195 849.671 264.886 849.02 264.268C848.375 263.649 848.053 262.66 848.053 261.299V254.297H849.693ZM867.779 265V258.076C867.779 257.204 867.581 256.553 867.184 256.123C866.786 255.693 866.165 255.479 865.318 255.479C864.199 255.479 863.378 255.781 862.857 256.387C862.337 256.992 862.076 257.992 862.076 259.385V265H860.455V254.297H861.773L862.037 255.762H862.115C862.447 255.234 862.913 254.827 863.512 254.541C864.111 254.248 864.778 254.102 865.514 254.102C866.803 254.102 867.773 254.414 868.424 255.039C869.075 255.658 869.4 256.65 869.4 258.018V265H867.779ZM874.361 265H872.74V254.297H874.361V265ZM872.604 251.396C872.604 251.025 872.695 250.755 872.877 250.586C873.059 250.41 873.287 250.322 873.561 250.322C873.821 250.322 874.046 250.41 874.234 250.586C874.423 250.762 874.518 251.032 874.518 251.396C874.518 251.761 874.423 252.035 874.234 252.217C874.046 252.393 873.821 252.48 873.561 252.48C873.287 252.48 873.059 252.393 872.877 252.217C872.695 252.035 872.604 251.761 872.604 251.396ZM881.256 263.857C881.542 263.857 881.819 263.838 882.086 263.799C882.353 263.753 882.564 263.708 882.721 263.662V264.902C882.545 264.987 882.285 265.055 881.939 265.107C881.601 265.166 881.295 265.195 881.021 265.195C878.951 265.195 877.916 264.105 877.916 261.924V255.557H876.383V254.775L877.916 254.102L878.6 251.816H879.537V254.297H882.643V255.557H879.537V261.855C879.537 262.5 879.69 262.995 879.996 263.34C880.302 263.685 880.722 263.857 881.256 263.857ZM886.49 265H884.869V254.297H886.49V265ZM884.732 251.396C884.732 251.025 884.824 250.755 885.006 250.586C885.188 250.41 885.416 250.322 885.689 250.322C885.95 250.322 886.174 250.41 886.363 250.586C886.552 250.762 886.646 251.032 886.646 251.396C886.646 251.761 886.552 252.035 886.363 252.217C886.174 252.393 885.95 252.48 885.689 252.48C885.416 252.48 885.188 252.393 885.006 252.217C884.824 252.035 884.732 251.761 884.732 251.396ZM894.449 265.195C892.867 265.195 891.617 264.714 890.699 263.75C889.788 262.786 889.332 261.449 889.332 259.736C889.332 258.011 889.755 256.641 890.602 255.625C891.454 254.609 892.597 254.102 894.029 254.102C895.37 254.102 896.432 254.544 897.213 255.43C897.994 256.309 898.385 257.471 898.385 258.916V259.941H891.012C891.044 261.198 891.36 262.152 891.959 262.803C892.564 263.454 893.414 263.779 894.508 263.779C895.66 263.779 896.799 263.538 897.926 263.057V264.502C897.353 264.749 896.809 264.925 896.295 265.029C895.787 265.14 895.172 265.195 894.449 265.195ZM894.01 255.459C893.15 255.459 892.464 255.739 891.949 256.299C891.441 256.859 891.142 257.633 891.051 258.623H896.646C896.646 257.601 896.419 256.82 895.963 256.279C895.507 255.732 894.856 255.459 894.01 255.459ZM908.062 262.08C908.062 263.076 907.691 263.844 906.949 264.385C906.207 264.925 905.165 265.195 903.824 265.195C902.405 265.195 901.298 264.971 900.504 264.521V263.018C901.018 263.278 901.568 263.483 902.154 263.633C902.747 263.783 903.316 263.857 903.863 263.857C904.71 263.857 905.361 263.724 905.816 263.457C906.272 263.184 906.5 262.77 906.5 262.217C906.5 261.8 906.318 261.445 905.953 261.152C905.595 260.853 904.892 260.501 903.844 260.098C902.848 259.727 902.138 259.404 901.715 259.131C901.298 258.851 900.986 258.535 900.777 258.184C900.576 257.832 900.475 257.412 900.475 256.924C900.475 256.051 900.829 255.365 901.539 254.863C902.249 254.355 903.222 254.102 904.459 254.102C905.611 254.102 906.738 254.336 907.838 254.805L907.262 256.123C906.188 255.68 905.214 255.459 904.342 255.459C903.574 255.459 902.994 255.579 902.604 255.82C902.213 256.061 902.018 256.393 902.018 256.816C902.018 257.103 902.089 257.347 902.232 257.549C902.382 257.751 902.62 257.943 902.945 258.125C903.271 258.307 903.896 258.571 904.82 258.916C906.09 259.378 906.946 259.844 907.389 260.312C907.838 260.781 908.062 261.37 908.062 262.08Z" fill="#D95840"/>
<circle cx="993.919" cy="92.9191" r="11.9191" fill="#D95840"/>
<path d="M928.736 15.8828C928.736 17.3281 928.242 18.4414 927.252 19.2227C926.269 19.9974 924.859 20.3848 923.023 20.3848H921.344V26H919.684V11.7227H923.385C926.952 11.7227 928.736 13.1094 928.736 15.8828ZM921.344 18.959H922.838C924.309 18.959 925.374 18.7214 926.031 18.2461C926.689 17.7708 927.018 17.0091 927.018 15.9609C927.018 15.0169 926.708 14.3138 926.09 13.8516C925.471 13.3893 924.508 13.1582 923.199 13.1582H921.344V18.959ZM936.373 15.1016C936.848 15.1016 937.275 15.1406 937.652 15.2188L937.428 16.7227C936.985 16.625 936.594 16.5762 936.256 16.5762C935.39 16.5762 934.648 16.9277 934.029 17.6309C933.417 18.334 933.111 19.2096 933.111 20.2578V26H931.49V15.2969H932.828L933.014 17.2793H933.092C933.489 16.5827 933.967 16.0456 934.527 15.668C935.087 15.2904 935.702 15.1016 936.373 15.1016ZM944.176 26.1953C942.594 26.1953 941.344 25.7135 940.426 24.75C939.514 23.7865 939.059 22.4486 939.059 20.7363C939.059 19.0111 939.482 17.6406 940.328 16.625C941.181 15.6094 942.324 15.1016 943.756 15.1016C945.097 15.1016 946.158 15.5443 946.939 16.4297C947.721 17.3086 948.111 18.4707 948.111 19.916V20.9414H940.738C940.771 22.1979 941.087 23.1517 941.686 23.8027C942.291 24.4538 943.141 24.7793 944.234 24.7793C945.387 24.7793 946.526 24.5384 947.652 24.0566V25.502C947.079 25.7493 946.536 25.9251 946.021 26.0293C945.514 26.14 944.898 26.1953 944.176 26.1953ZM943.736 16.459C942.877 16.459 942.19 16.7389 941.676 17.2988C941.168 17.8587 940.868 18.6335 940.777 19.623H946.373C946.373 18.6009 946.145 17.8197 945.689 17.2793C945.234 16.7324 944.583 16.459 943.736 16.459ZM955.709 16.5566H952.984V26H951.363V16.5566H949.449V15.8242L951.363 15.2383V14.6426C951.363 12.0124 952.512 10.6973 954.811 10.6973C955.377 10.6973 956.041 10.8112 956.803 11.0391L956.383 12.3379C955.758 12.1361 955.224 12.0352 954.781 12.0352C954.169 12.0352 953.717 12.2402 953.424 12.6504C953.131 13.054 952.984 13.7051 952.984 14.6035V15.2969H955.709V16.5566ZM962.184 26.1953C960.602 26.1953 959.352 25.7135 958.434 24.75C957.522 23.7865 957.066 22.4486 957.066 20.7363C957.066 19.0111 957.49 17.6406 958.336 16.625C959.189 15.6094 960.331 15.1016 961.764 15.1016C963.105 15.1016 964.166 15.5443 964.947 16.4297C965.729 17.3086 966.119 18.4707 966.119 19.916V20.9414H958.746C958.779 22.1979 959.094 23.1517 959.693 23.8027C960.299 24.4538 961.148 24.7793 962.242 24.7793C963.395 24.7793 964.534 24.5384 965.66 24.0566V25.502C965.087 25.7493 964.544 25.9251 964.029 26.0293C963.521 26.14 962.906 26.1953 962.184 26.1953ZM961.744 16.459C960.885 16.459 960.198 16.7389 959.684 17.2988C959.176 17.8587 958.876 18.6335 958.785 19.623H964.381C964.381 18.6009 964.153 17.8197 963.697 17.2793C963.242 16.7324 962.59 16.459 961.744 16.459ZM973.775 15.1016C974.251 15.1016 974.677 15.1406 975.055 15.2188L974.83 16.7227C974.387 16.625 973.997 16.5762 973.658 16.5762C972.792 16.5762 972.05 16.9277 971.432 17.6309C970.82 18.334 970.514 19.2096 970.514 20.2578V26H968.893V15.2969H970.23L970.416 17.2793H970.494C970.891 16.5827 971.37 16.0456 971.93 15.668C972.49 15.2904 973.105 15.1016 973.775 15.1016ZM981.939 15.1016C982.415 15.1016 982.841 15.1406 983.219 15.2188L982.994 16.7227C982.551 16.625 982.161 16.5762 981.822 16.5762C980.956 16.5762 980.214 16.9277 979.596 17.6309C978.984 18.334 978.678 19.2096 978.678 20.2578V26H977.057V15.2969H978.395L978.58 17.2793H978.658C979.055 16.5827 979.534 16.0456 980.094 15.668C980.654 15.2904 981.269 15.1016 981.939 15.1016ZM989.742 26.1953C988.16 26.1953 986.91 25.7135 985.992 24.75C985.081 23.7865 984.625 22.4486 984.625 20.7363C984.625 19.0111 985.048 17.6406 985.895 16.625C986.747 15.6094 987.89 15.1016 989.322 15.1016C990.663 15.1016 991.725 15.5443 992.506 16.4297C993.287 17.3086 993.678 18.4707 993.678 19.916V20.9414H986.305C986.337 22.1979 986.653 23.1517 987.252 23.8027C987.857 24.4538 988.707 24.7793 989.801 24.7793C990.953 24.7793 992.092 24.5384 993.219 24.0566V25.502C992.646 25.7493 992.102 25.9251 991.588 26.0293C991.08 26.14 990.465 26.1953 989.742 26.1953ZM989.303 16.459C988.443 16.459 987.757 16.7389 987.242 17.2988C986.734 17.8587 986.435 18.6335 986.344 19.623H991.939C991.939 18.6009 991.712 17.8197 991.256 17.2793C990.8 16.7324 990.149 16.459 989.303 16.459ZM1003.74 24.5645H1003.65C1002.9 25.6517 1001.78 26.1953 1000.29 26.1953C998.889 26.1953 997.799 25.7168 997.018 24.7598C996.243 23.8027 995.855 22.4421 995.855 20.6777C995.855 18.9134 996.246 17.543 997.027 16.5664C997.809 15.5898 998.896 15.1016 1000.29 15.1016C1001.74 15.1016 1002.85 15.6289 1003.63 16.6836H1003.76L1003.69 15.9121L1003.65 15.1602V10.8047H1005.27V26H1003.95L1003.74 24.5645ZM1000.49 24.8379C1001.6 24.8379 1002.4 24.5384 1002.9 23.9395C1003.4 23.334 1003.65 22.3607 1003.65 21.0195V20.6777C1003.65 19.1608 1003.39 18.0801 1002.89 17.4355C1002.39 16.7845 1001.58 16.459 1000.47 16.459C999.524 16.459 998.795 16.8301 998.287 17.5723C997.786 18.3079 997.535 19.3496 997.535 20.6973C997.535 22.0645 997.786 23.0964 998.287 23.793C998.788 24.4896 999.524 24.8379 1000.49 24.8379ZM1022.21 22.2012C1022.21 23.4577 1021.76 24.4375 1020.85 25.1406C1019.93 25.8438 1018.7 26.1953 1017.13 26.1953C1015.44 26.1953 1014.14 25.9772 1013.23 25.541V23.9395C1013.81 24.1868 1014.45 24.3822 1015.14 24.5254C1015.83 24.6686 1016.52 24.7402 1017.19 24.7402C1018.3 24.7402 1019.13 24.5319 1019.69 24.1152C1020.25 23.6921 1020.53 23.1061 1020.53 22.3574C1020.53 21.8626 1020.43 21.459 1020.23 21.1465C1020.04 20.8275 1019.7 20.5345 1019.23 20.2676C1018.77 20.0007 1018.07 19.6979 1017.12 19.3594C1015.79 18.8841 1014.84 18.321 1014.26 17.6699C1013.7 17.0189 1013.41 16.1693 1013.41 15.1211C1013.41 14.0208 1013.83 13.1452 1014.65 12.4941C1015.48 11.8431 1016.57 11.5176 1017.94 11.5176C1019.35 11.5176 1020.66 11.778 1021.85 12.2988L1021.33 13.7441C1020.16 13.2493 1019.01 13.002 1017.9 13.002C1017.02 13.002 1016.33 13.1908 1015.84 13.5684C1015.34 13.946 1015.09 14.4701 1015.09 15.1406C1015.09 15.6354 1015.18 16.0423 1015.37 16.3613C1015.55 16.6738 1015.86 16.9635 1016.29 17.2305C1016.72 17.4909 1017.39 17.7806 1018.28 18.0996C1019.77 18.6335 1020.8 19.2064 1021.36 19.8184C1021.93 20.4303 1022.21 21.2246 1022.21 22.2012ZM1028.35 24.8574C1028.63 24.8574 1028.91 24.8379 1029.18 24.7988C1029.44 24.7533 1029.65 24.7077 1029.81 24.6621V25.9023C1029.63 25.987 1029.37 26.0553 1029.03 26.1074C1028.69 26.166 1028.38 26.1953 1028.11 26.1953C1026.04 26.1953 1025.01 25.1048 1025.01 22.9238V16.5566H1023.47V15.7754L1025.01 15.1016L1025.69 12.8164H1026.63V15.2969H1029.73V16.5566H1026.63V22.8555C1026.63 23.5 1026.78 23.9948 1027.09 24.3398C1027.39 24.6849 1027.81 24.8574 1028.35 24.8574ZM1038.54 26L1038.22 24.4766H1038.14C1037.61 25.1471 1037.07 25.6029 1036.54 25.8438C1036.01 26.0781 1035.35 26.1953 1034.56 26.1953C1033.5 26.1953 1032.66 25.9219 1032.06 25.375C1031.46 24.8281 1031.16 24.0501 1031.16 23.041C1031.16 20.8796 1032.89 19.7467 1036.34 19.6426L1038.16 19.584V18.9199C1038.16 18.0801 1037.98 17.4616 1037.61 17.0645C1037.26 16.6608 1036.68 16.459 1035.88 16.459C1034.99 16.459 1033.98 16.7324 1032.86 17.2793L1032.36 16.0391C1032.89 15.7526 1033.46 15.528 1034.09 15.3652C1034.72 15.2025 1035.35 15.1211 1035.98 15.1211C1037.26 15.1211 1038.2 15.4043 1038.81 15.9707C1039.43 16.5371 1039.74 17.4453 1039.74 18.6953V26H1038.54ZM1034.88 24.8574C1035.89 24.8574 1036.68 24.5807 1037.25 24.0273C1037.83 23.474 1038.12 22.6992 1038.12 21.7031V20.7363L1036.5 20.8047C1035.21 20.8503 1034.28 21.0521 1033.71 21.4102C1033.14 21.7617 1032.86 22.3118 1032.86 23.0605C1032.86 23.6465 1033.03 24.0924 1033.38 24.3984C1033.74 24.7044 1034.24 24.8574 1034.88 24.8574ZM1046.55 24.8574C1046.84 24.8574 1047.11 24.8379 1047.38 24.7988C1047.65 24.7533 1047.86 24.7077 1048.01 24.6621V25.9023C1047.84 25.987 1047.58 26.0553 1047.23 26.1074C1046.89 26.166 1046.59 26.1953 1046.31 26.1953C1044.24 26.1953 1043.21 25.1048 1043.21 22.9238V16.5566H1041.68V15.7754L1043.21 15.1016L1043.89 12.8164H1044.83V15.2969H1047.94V16.5566H1044.83V22.8555C1044.83 23.5 1044.98 23.9948 1045.29 24.3398C1045.6 24.6849 1046.01 24.8574 1046.55 24.8574ZM1051.69 15.2969V22.2402C1051.69 23.1126 1051.88 23.7637 1052.28 24.1934C1052.68 24.623 1053.3 24.8379 1054.15 24.8379C1055.27 24.8379 1056.08 24.5319 1056.6 23.9199C1057.12 23.3079 1057.38 22.3086 1057.38 20.9219V15.2969H1059V26H1057.66L1057.43 24.5645H1057.34C1057.01 25.0918 1056.55 25.4954 1055.95 25.7754C1055.37 26.0553 1054.7 26.1953 1053.94 26.1953C1052.64 26.1953 1051.66 25.8861 1051.01 25.2676C1050.37 24.6491 1050.04 23.6595 1050.04 22.2988V15.2969H1051.69ZM1069.35 23.0801C1069.35 24.0762 1068.98 24.8444 1068.24 25.3848C1067.5 25.9251 1066.45 26.1953 1065.11 26.1953C1063.69 26.1953 1062.59 25.9707 1061.79 25.5215V24.0176C1062.31 24.278 1062.86 24.4831 1063.44 24.6328C1064.04 24.7826 1064.61 24.8574 1065.15 24.8574C1066 24.8574 1066.65 24.724 1067.11 24.457C1067.56 24.1836 1067.79 23.7702 1067.79 23.2168C1067.79 22.8001 1067.61 22.4453 1067.24 22.1523C1066.88 21.8529 1066.18 21.5013 1065.13 21.0977C1064.14 20.7266 1063.43 20.4043 1063 20.1309C1062.59 19.8509 1062.27 19.5352 1062.07 19.1836C1061.86 18.832 1061.76 18.4121 1061.76 17.9238C1061.76 17.0514 1062.12 16.3646 1062.83 15.8633C1063.54 15.3555 1064.51 15.1016 1065.75 15.1016C1066.9 15.1016 1068.03 15.3359 1069.13 15.8047L1068.55 17.123C1067.48 16.6803 1066.5 16.459 1065.63 16.459C1064.86 16.459 1064.28 16.5794 1063.89 16.8203C1063.5 17.0612 1063.31 17.3932 1063.31 17.8164C1063.31 18.1029 1063.38 18.347 1063.52 18.5488C1063.67 18.7507 1063.91 18.9427 1064.23 19.125C1064.56 19.3073 1065.18 19.571 1066.11 19.916C1067.38 20.3783 1068.24 20.8438 1068.68 21.3125C1069.13 21.7812 1069.35 22.3704 1069.35 23.0801Z" fill="#D95840"/>
<defs>
<filter id="filter0_d" x="21.8613" y="0.498047" width="144.58" height="137.852" filterUnits="userSpaceOnUse" color-interpolation-filters="sRGB">
<feFlood flood-opacity="0" result="BackgroundImageFix"/>
<feColorMatrix in="SourceAlpha" type="matrix" values="0 0 0 0 0 0 0 0 0 0 0 0 0 0 0 0 0 0 127 0"/>
<feOffset dy="4"/>
<feGaussianBlur stdDeviation="7.5"/>
<feColorMatrix type="matrix" values="0 0 0 0 0.85098 0 0 0 0 0.345098 0 0 0 0 0.25098 0 0 0 0.22 0"/>
<feBlend mode="normal" in2="BackgroundImageFix" result="effect1_dropShadow"/>
<feBlend mode="normal" in="SourceGraphic" in2="effect1_dropShadow" result="shape"/>
</filter>
</defs>
</svg>
