<svg width="1088" height="273" viewBox="0 0 1088 273" fill="none" xmlns="http://www.w3.org/2000/svg">
<path d="M95 94L244.5 172L393.5 94L544.5 172L693.5 94L843 172L994 94" stroke="#EE765A" stroke-opacity="0.22" stroke-width="3" stroke-dasharray="7 7"/>
<circle cx="243.919" cy="172.919" r="11.9191" fill="#D95840"/>
<path d="M217.438 235.201C217.438 236.458 216.982 237.438 216.07 238.141C215.159 238.844 213.922 239.195 212.359 239.195C210.667 239.195 209.365 238.977 208.453 238.541V236.939C209.039 237.187 209.677 237.382 210.367 237.525C211.057 237.669 211.741 237.74 212.418 237.74C213.525 237.74 214.358 237.532 214.918 237.115C215.478 236.692 215.758 236.106 215.758 235.357C215.758 234.863 215.657 234.459 215.455 234.146C215.26 233.827 214.928 233.535 214.459 233.268C213.997 233.001 213.29 232.698 212.34 232.359C211.012 231.884 210.061 231.321 209.488 230.67C208.922 230.019 208.639 229.169 208.639 228.121C208.639 227.021 209.052 226.145 209.879 225.494C210.706 224.843 211.799 224.518 213.16 224.518C214.579 224.518 215.885 224.778 217.076 225.299L216.559 226.744C215.38 226.249 214.234 226.002 213.121 226.002C212.242 226.002 211.555 226.191 211.061 226.568C210.566 226.946 210.318 227.47 210.318 228.141C210.318 228.635 210.41 229.042 210.592 229.361C210.774 229.674 211.08 229.964 211.51 230.23C211.946 230.491 212.61 230.781 213.502 231.1C214.999 231.633 216.028 232.206 216.588 232.818C217.154 233.43 217.438 234.225 217.438 235.201ZM224.391 239.195C222.841 239.195 221.64 238.72 220.787 237.77C219.941 236.812 219.518 235.462 219.518 233.717C219.518 231.926 219.947 230.543 220.807 229.566C221.673 228.59 222.903 228.102 224.498 228.102C225.012 228.102 225.527 228.157 226.041 228.268C226.555 228.378 226.959 228.508 227.252 228.658L226.754 230.035C226.396 229.892 226.005 229.775 225.582 229.684C225.159 229.586 224.785 229.537 224.459 229.537C222.285 229.537 221.197 230.924 221.197 233.697C221.197 235.012 221.461 236.021 221.988 236.725C222.522 237.428 223.31 237.779 224.352 237.779C225.243 237.779 226.158 237.587 227.096 237.203V238.639C226.38 239.01 225.478 239.195 224.391 239.195ZM238.883 233.639C238.883 235.383 238.443 236.747 237.564 237.73C236.686 238.707 235.471 239.195 233.922 239.195C232.965 239.195 232.115 238.971 231.373 238.521C230.631 238.072 230.058 237.428 229.654 236.588C229.251 235.748 229.049 234.765 229.049 233.639C229.049 231.894 229.485 230.536 230.357 229.566C231.23 228.59 232.441 228.102 233.99 228.102C235.488 228.102 236.676 228.6 237.555 229.596C238.44 230.592 238.883 231.939 238.883 233.639ZM230.729 233.639C230.729 235.006 231.002 236.048 231.549 236.764C232.096 237.48 232.9 237.838 233.961 237.838C235.022 237.838 235.826 237.483 236.373 236.773C236.926 236.057 237.203 235.012 237.203 233.639C237.203 232.278 236.926 231.246 236.373 230.543C235.826 229.833 235.016 229.479 233.941 229.479C232.88 229.479 232.079 229.827 231.539 230.523C230.999 231.22 230.729 232.258 230.729 233.639ZM246.715 239.195C246.018 239.195 245.38 239.068 244.801 238.814C244.228 238.554 243.746 238.157 243.355 237.623H243.238C243.316 238.248 243.355 238.84 243.355 239.4V243.805H241.734V228.297H243.053L243.277 229.762H243.355C243.772 229.176 244.257 228.753 244.811 228.492C245.364 228.232 245.999 228.102 246.715 228.102C248.134 228.102 249.228 228.587 249.996 229.557C250.771 230.527 251.158 231.887 251.158 233.639C251.158 235.396 250.764 236.764 249.977 237.74C249.195 238.71 248.108 239.195 246.715 239.195ZM246.48 229.479C245.387 229.479 244.596 229.781 244.107 230.387C243.619 230.992 243.368 231.956 243.355 233.277V233.639C243.355 235.143 243.606 236.22 244.107 236.871C244.609 237.516 245.413 237.838 246.52 237.838C247.444 237.838 248.167 237.464 248.688 236.715C249.215 235.966 249.479 234.934 249.479 233.619C249.479 232.285 249.215 231.262 248.688 230.553C248.167 229.837 247.431 229.479 246.48 229.479ZM255.621 239H254V228.297H255.621V239ZM253.863 225.396C253.863 225.025 253.954 224.755 254.137 224.586C254.319 224.41 254.547 224.322 254.82 224.322C255.081 224.322 255.305 224.41 255.494 224.586C255.683 224.762 255.777 225.032 255.777 225.396C255.777 225.761 255.683 226.035 255.494 226.217C255.305 226.393 255.081 226.48 254.82 226.48C254.547 226.48 254.319 226.393 254.137 226.217C253.954 226.035 253.863 225.761 253.863 225.396ZM266.383 239V232.076C266.383 231.204 266.184 230.553 265.787 230.123C265.39 229.693 264.768 229.479 263.922 229.479C262.802 229.479 261.982 229.781 261.461 230.387C260.94 230.992 260.68 231.992 260.68 233.385V239H259.059V228.297H260.377L260.641 229.762H260.719C261.051 229.234 261.516 228.827 262.115 228.541C262.714 228.248 263.382 228.102 264.117 228.102C265.406 228.102 266.376 228.414 267.027 229.039C267.678 229.658 268.004 230.65 268.004 232.018V239H266.383ZM280.104 228.297V229.322L278.121 229.557C278.303 229.785 278.466 230.084 278.609 230.455C278.753 230.82 278.824 231.233 278.824 231.695C278.824 232.743 278.466 233.58 277.75 234.205C277.034 234.83 276.051 235.143 274.801 235.143C274.482 235.143 274.182 235.117 273.902 235.064C273.212 235.429 272.867 235.888 272.867 236.441C272.867 236.734 272.988 236.952 273.229 237.096C273.469 237.232 273.883 237.301 274.469 237.301H276.363C277.522 237.301 278.411 237.545 279.029 238.033C279.654 238.521 279.967 239.231 279.967 240.162C279.967 241.347 279.492 242.249 278.541 242.867C277.59 243.492 276.204 243.805 274.381 243.805C272.981 243.805 271.9 243.544 271.139 243.023C270.383 242.503 270.006 241.767 270.006 240.816C270.006 240.165 270.214 239.602 270.631 239.127C271.048 238.652 271.633 238.329 272.389 238.16C272.115 238.036 271.884 237.844 271.695 237.584C271.513 237.324 271.422 237.021 271.422 236.676C271.422 236.285 271.526 235.943 271.734 235.65C271.943 235.357 272.271 235.074 272.721 234.801C272.167 234.573 271.715 234.186 271.363 233.639C271.018 233.092 270.846 232.467 270.846 231.764C270.846 230.592 271.197 229.69 271.9 229.059C272.604 228.421 273.6 228.102 274.889 228.102C275.449 228.102 275.953 228.167 276.402 228.297H280.104ZM271.568 240.797C271.568 241.376 271.812 241.816 272.301 242.115C272.789 242.415 273.489 242.564 274.4 242.564C275.761 242.564 276.767 242.359 277.418 241.949C278.076 241.546 278.404 240.995 278.404 240.299C278.404 239.719 278.225 239.316 277.867 239.088C277.509 238.867 276.835 238.756 275.846 238.756H273.902C273.167 238.756 272.594 238.932 272.184 239.283C271.773 239.635 271.568 240.139 271.568 240.797ZM272.447 231.725C272.447 232.473 272.659 233.04 273.082 233.424C273.505 233.808 274.094 234 274.85 234C276.432 234 277.223 233.232 277.223 231.695C277.223 230.087 276.422 229.283 274.82 229.283C274.059 229.283 273.473 229.488 273.062 229.898C272.652 230.309 272.447 230.917 272.447 231.725Z" fill="#D95840"/>
<circle cx="93.9191" cy="92.9191" r="11.9191" fill="#D95840"/>
<path d="M52.5059 19.8418C52.5059 22.127 51.9264 23.9238 50.7676 25.2324C49.6152 26.541 48.0104 27.1953 45.9531 27.1953C43.8503 27.1953 42.2259 26.554 41.0801 25.2715C39.9408 23.9824 39.3711 22.166 39.3711 19.8223C39.3711 17.498 39.944 15.6979 41.0898 14.4219C42.2357 13.1393 43.8633 12.498 45.9727 12.498C48.0234 12.498 49.625 13.1491 50.7773 14.4512C51.9297 15.7533 52.5059 17.5501 52.5059 19.8418ZM41.1289 19.8418C41.1289 21.7754 41.5391 23.2435 42.3594 24.2461C43.1862 25.2422 44.3841 25.7402 45.9531 25.7402C47.5352 25.7402 48.7298 25.2422 49.5371 24.2461C50.3444 23.25 50.748 21.7819 50.748 19.8418C50.748 17.9212 50.3444 16.4661 49.5371 15.4766C48.7363 14.4805 47.5482 13.9824 45.9727 13.9824C44.3906 13.9824 43.1862 14.4837 42.3594 15.4863C41.5391 16.4824 41.1289 17.9342 41.1289 19.8418ZM60.4355 27.1953C59.7389 27.1953 59.1009 27.0684 58.5215 26.8145C57.9486 26.554 57.4668 26.1569 57.0762 25.623H56.959C57.0371 26.248 57.0762 26.8405 57.0762 27.4004V31.8047H55.4551V16.2969H56.7734L56.998 17.7617H57.0762C57.4928 17.1758 57.9779 16.7526 58.5312 16.4922C59.0846 16.2318 59.7194 16.1016 60.4355 16.1016C61.8548 16.1016 62.9486 16.5866 63.7168 17.5566C64.4915 18.5267 64.8789 19.8874 64.8789 21.6387C64.8789 23.3965 64.485 24.7637 63.6973 25.7402C62.916 26.7103 61.8288 27.1953 60.4355 27.1953ZM60.2012 17.4785C59.1074 17.4785 58.3164 17.7812 57.8281 18.3867C57.3398 18.9922 57.0892 19.9557 57.0762 21.2773V21.6387C57.0762 23.1426 57.3268 24.2201 57.8281 24.8711C58.3294 25.5156 59.1335 25.8379 60.2402 25.8379C61.1647 25.8379 61.8874 25.4635 62.4082 24.7148C62.9355 23.9661 63.1992 22.9342 63.1992 21.6191C63.1992 20.2845 62.9355 19.2624 62.4082 18.5527C61.8874 17.8366 61.1517 17.4785 60.2012 17.4785ZM72.2422 27.1953C70.6602 27.1953 69.4102 26.7135 68.4922 25.75C67.5807 24.7865 67.125 23.4486 67.125 21.7363C67.125 20.0111 67.5482 18.6406 68.3945 17.625C69.2474 16.6094 70.39 16.1016 71.8223 16.1016C73.1634 16.1016 74.2246 16.5443 75.0059 17.4297C75.7871 18.3086 76.1777 19.4707 76.1777 20.916V21.9414H68.8047C68.8372 23.1979 69.153 24.1517 69.752 24.8027C70.3574 25.4538 71.207 25.7793 72.3008 25.7793C73.4531 25.7793 74.5924 25.5384 75.7188 25.0566V26.502C75.1458 26.7493 74.6022 26.9251 74.0879 27.0293C73.5801 27.14 72.9648 27.1953 72.2422 27.1953ZM71.8027 17.459C70.9434 17.459 70.2565 17.7389 69.7422 18.2988C69.2344 18.8587 68.9349 19.6335 68.8438 20.623H74.4395C74.4395 19.6009 74.2116 18.8197 73.7559 18.2793C73.3001 17.7324 72.6491 17.459 71.8027 17.459ZM86.2754 27V20.0762C86.2754 19.2038 86.0768 18.5527 85.6797 18.123C85.2826 17.6934 84.6608 17.4785 83.8145 17.4785C82.6947 17.4785 81.8743 17.7812 81.3535 18.3867C80.8327 18.9922 80.5723 19.9915 80.5723 21.3848V27H78.9512V16.2969H80.2695L80.5332 17.7617H80.6113C80.9434 17.2344 81.4089 16.8275 82.0078 16.541C82.6068 16.248 83.2741 16.1016 84.0098 16.1016C85.2988 16.1016 86.2689 16.4141 86.9199 17.0391C87.571 17.6576 87.8965 18.6504 87.8965 20.0176V27H86.2754ZM104.732 23.2012C104.732 24.4577 104.277 25.4375 103.365 26.1406C102.454 26.8438 101.217 27.1953 99.6543 27.1953C97.9616 27.1953 96.6595 26.9772 95.748 26.541V24.9395C96.334 25.1868 96.972 25.3822 97.6621 25.5254C98.3522 25.6686 99.0358 25.7402 99.7129 25.7402C100.82 25.7402 101.653 25.5319 102.213 25.1152C102.773 24.6921 103.053 24.1061 103.053 23.3574C103.053 22.8626 102.952 22.459 102.75 22.1465C102.555 21.8275 102.223 21.5345 101.754 21.2676C101.292 21.0007 100.585 20.6979 99.6348 20.3594C98.3066 19.8841 97.3561 19.321 96.7832 18.6699C96.2168 18.0189 95.9336 17.1693 95.9336 16.1211C95.9336 15.0208 96.347 14.1452 97.1738 13.4941C98.0007 12.8431 99.0944 12.5176 100.455 12.5176C101.874 12.5176 103.18 12.778 104.371 13.2988L103.854 14.7441C102.675 14.2493 101.529 14.002 100.416 14.002C99.5371 14.002 98.8503 14.1908 98.3555 14.5684C97.8607 14.946 97.6133 15.4701 97.6133 16.1406C97.6133 16.6354 97.7044 17.0423 97.8867 17.3613C98.069 17.6738 98.375 17.9635 98.8047 18.2305C99.2409 18.4909 99.9049 18.7806 100.797 19.0996C102.294 19.6335 103.323 20.2064 103.883 20.8184C104.449 21.4303 104.732 22.2246 104.732 23.2012ZM112.389 27.1953C111.692 27.1953 111.054 27.0684 110.475 26.8145C109.902 26.554 109.42 26.1569 109.029 25.623H108.912C108.99 26.248 109.029 26.8405 109.029 27.4004V31.8047H107.408V16.2969H108.727L108.951 17.7617H109.029C109.446 17.1758 109.931 16.7526 110.484 16.4922C111.038 16.2318 111.673 16.1016 112.389 16.1016C113.808 16.1016 114.902 16.5866 115.67 17.5566C116.445 18.5267 116.832 19.8874 116.832 21.6387C116.832 23.3965 116.438 24.7637 115.65 25.7402C114.869 26.7103 113.782 27.1953 112.389 27.1953ZM112.154 17.4785C111.061 17.4785 110.27 17.7812 109.781 18.3867C109.293 18.9922 109.042 19.9557 109.029 21.2773V21.6387C109.029 23.1426 109.28 24.2201 109.781 24.8711C110.283 25.5156 111.087 25.8379 112.193 25.8379C113.118 25.8379 113.84 25.4635 114.361 24.7148C114.889 23.9661 115.152 22.9342 115.152 21.6191C115.152 20.2845 114.889 19.2624 114.361 18.5527C113.84 17.8366 113.105 17.4785 112.154 17.4785ZM126.256 27L125.934 25.4766H125.855C125.322 26.1471 124.788 26.6029 124.254 26.8438C123.727 27.0781 123.066 27.1953 122.271 27.1953C121.21 27.1953 120.377 26.9219 119.771 26.375C119.173 25.8281 118.873 25.0501 118.873 24.041C118.873 21.8796 120.602 20.7467 124.059 20.6426L125.875 20.584V19.9199C125.875 19.0801 125.693 18.4616 125.328 18.0645C124.97 17.6608 124.394 17.459 123.6 17.459C122.708 17.459 121.699 17.7324 120.572 18.2793L120.074 17.0391C120.602 16.7526 121.178 16.528 121.803 16.3652C122.434 16.2025 123.066 16.1211 123.697 16.1211C124.973 16.1211 125.917 16.4043 126.529 16.9707C127.148 17.5371 127.457 18.4453 127.457 19.6953V27H126.256ZM122.594 25.8574C123.603 25.8574 124.394 25.5807 124.967 25.0273C125.546 24.474 125.836 23.6992 125.836 22.7031V21.7363L124.215 21.8047C122.926 21.8503 121.995 22.0521 121.422 22.4102C120.855 22.7617 120.572 23.3118 120.572 24.0605C120.572 24.6465 120.748 25.0924 121.1 25.3984C121.458 25.7044 121.956 25.8574 122.594 25.8574ZM135.084 27.1953C133.535 27.1953 132.333 26.7201 131.48 25.7695C130.634 24.8125 130.211 23.4616 130.211 21.7168C130.211 19.9264 130.641 18.543 131.5 17.5664C132.366 16.5898 133.596 16.1016 135.191 16.1016C135.706 16.1016 136.22 16.1569 136.734 16.2676C137.249 16.3783 137.652 16.5085 137.945 16.6582L137.447 18.0352C137.089 17.8919 136.699 17.7747 136.275 17.6836C135.852 17.5859 135.478 17.5371 135.152 17.5371C132.978 17.5371 131.891 18.9238 131.891 21.6973C131.891 23.0124 132.154 24.0215 132.682 24.7246C133.215 25.4277 134.003 25.7793 135.045 25.7793C135.937 25.7793 136.852 25.5872 137.789 25.2031V26.6387C137.073 27.0098 136.171 27.1953 135.084 27.1953ZM144.859 27.1953C143.277 27.1953 142.027 26.7135 141.109 25.75C140.198 24.7865 139.742 23.4486 139.742 21.7363C139.742 20.0111 140.165 18.6406 141.012 17.625C141.865 16.6094 143.007 16.1016 144.439 16.1016C145.781 16.1016 146.842 16.5443 147.623 17.4297C148.404 18.3086 148.795 19.4707 148.795 20.916V21.9414H141.422C141.454 23.1979 141.77 24.1517 142.369 24.8027C142.975 25.4538 143.824 25.7793 144.918 25.7793C146.07 25.7793 147.21 25.5384 148.336 25.0566V26.502C147.763 26.7493 147.219 26.9251 146.705 27.0293C146.197 27.14 145.582 27.1953 144.859 27.1953ZM144.42 17.459C143.561 17.459 142.874 17.7389 142.359 18.2988C141.852 18.8587 141.552 19.6335 141.461 20.623H147.057C147.057 19.6009 146.829 18.8197 146.373 18.2793C145.917 17.7324 145.266 17.459 144.42 17.459Z" fill="#D95840"/>
<g filter="url(#filter0_d)">
<circle cx="394.175" cy="94.175" r="27.175" fill="#FFF5F3"/>
<circle cx="394.175" cy="94.175" r="24.675" stroke="#D95840" stroke-opacity="0.4" stroke-width="5"/>
</g>
<circle cx="393.919" cy="93.9191" r="11.9191" fill="#D95840"/>
<g filter="url(#filter1_d)">
<path d="M353.131 19.0605H354.107C355.064 19.0605 355.771 18.901 356.227 18.582C356.682 18.263 356.91 17.7617 356.91 17.0781C356.91 16.401 356.676 15.9193 356.207 15.6328C355.745 15.3464 355.025 15.2031 354.049 15.2031H353.131V19.0605ZM353.131 21.5215V27H350.104V12.7227H354.264C356.204 12.7227 357.639 13.0775 358.57 13.7871C359.501 14.4902 359.967 15.5612 359.967 17C359.967 17.8398 359.736 18.5885 359.273 19.2461C358.811 19.8971 358.157 20.4082 357.311 20.7793C359.459 23.9889 360.859 26.0625 361.51 27H358.15L354.742 21.5215H353.131ZM367.594 17.9961C366.962 17.9961 366.467 18.1979 366.109 18.6016C365.751 18.9987 365.546 19.5651 365.494 20.3008H369.674C369.661 19.5651 369.469 18.9987 369.098 18.6016C368.727 18.1979 368.225 17.9961 367.594 17.9961ZM368.014 27.1953C366.256 27.1953 364.882 26.7103 363.893 25.7402C362.903 24.7702 362.408 23.3965 362.408 21.6191C362.408 19.7897 362.864 18.377 363.775 17.3809C364.693 16.3783 365.96 15.877 367.574 15.877C369.117 15.877 370.318 16.3164 371.178 17.1953C372.037 18.0742 372.467 19.2884 372.467 20.8379V22.2832H365.426C365.458 23.1296 365.709 23.7904 366.178 24.2656C366.646 24.7409 367.304 24.9785 368.15 24.9785C368.808 24.9785 369.43 24.9102 370.016 24.7734C370.602 24.6367 371.214 24.4186 371.852 24.1191V26.4238C371.331 26.6842 370.774 26.8763 370.182 27C369.589 27.1302 368.867 27.1953 368.014 27.1953ZM382.506 23.7578C382.506 24.8776 382.115 25.7305 381.334 26.3164C380.559 26.9023 379.397 27.1953 377.848 27.1953C377.053 27.1953 376.376 27.14 375.816 27.0293C375.257 26.9251 374.732 26.7689 374.244 26.5605V24.0996C374.798 24.36 375.419 24.5781 376.109 24.7539C376.806 24.9297 377.418 25.0176 377.945 25.0176C379.026 25.0176 379.566 24.7051 379.566 24.0801C379.566 23.8457 379.495 23.6569 379.352 23.5137C379.208 23.3639 378.961 23.1979 378.609 23.0156C378.258 22.8268 377.789 22.6087 377.203 22.3613C376.363 22.0098 375.745 21.6842 375.348 21.3848C374.957 21.0853 374.671 20.7435 374.488 20.3594C374.312 19.9688 374.225 19.4902 374.225 18.9238C374.225 17.9538 374.599 17.2051 375.348 16.6777C376.103 16.1439 377.171 15.877 378.551 15.877C379.866 15.877 381.145 16.1634 382.389 16.7363L381.49 18.8848C380.943 18.6504 380.432 18.4583 379.957 18.3086C379.482 18.1589 378.997 18.084 378.502 18.084C377.623 18.084 377.184 18.3216 377.184 18.7969C377.184 19.0638 377.324 19.2949 377.604 19.4902C377.89 19.6855 378.512 19.9753 379.469 20.3594C380.322 20.7044 380.947 21.0267 381.344 21.3262C381.741 21.6257 382.034 21.9707 382.223 22.3613C382.411 22.752 382.506 23.2174 382.506 23.7578ZM389.352 17.9961C388.72 17.9961 388.225 18.1979 387.867 18.6016C387.509 18.9987 387.304 19.5651 387.252 20.3008H391.432C391.419 19.5651 391.227 18.9987 390.855 18.6016C390.484 18.1979 389.983 17.9961 389.352 17.9961ZM389.771 27.1953C388.014 27.1953 386.64 26.7103 385.65 25.7402C384.661 24.7702 384.166 23.3965 384.166 21.6191C384.166 19.7897 384.622 18.377 385.533 17.3809C386.451 16.3783 387.717 15.877 389.332 15.877C390.875 15.877 392.076 16.3164 392.936 17.1953C393.795 18.0742 394.225 19.2884 394.225 20.8379V22.2832H387.184C387.216 23.1296 387.467 23.7904 387.936 24.2656C388.404 24.7409 389.062 24.9785 389.908 24.9785C390.566 24.9785 391.188 24.9102 391.773 24.7734C392.359 24.6367 392.971 24.4186 393.609 24.1191V26.4238C393.089 26.6842 392.532 26.8763 391.939 27C391.347 27.1302 390.624 27.1953 389.771 27.1953ZM403.58 27L403.004 25.5156H402.926C402.424 26.1471 401.907 26.5866 401.373 26.834C400.846 27.0749 400.156 27.1953 399.303 27.1953C398.255 27.1953 397.428 26.8958 396.822 26.2969C396.223 25.6979 395.924 24.8451 395.924 23.7383C395.924 22.5794 396.327 21.7266 397.135 21.1797C397.949 20.6263 399.173 20.3203 400.807 20.2617L402.701 20.2031V19.7246C402.701 18.6178 402.135 18.0645 401.002 18.0645C400.13 18.0645 399.104 18.3281 397.926 18.8555L396.939 16.8438C398.196 16.1862 399.589 15.8574 401.119 15.8574C402.584 15.8574 403.707 16.1764 404.488 16.8145C405.27 17.4525 405.66 18.4225 405.66 19.7246V27H403.58ZM402.701 21.9414L401.549 21.9805C400.683 22.0065 400.038 22.1628 399.615 22.4492C399.192 22.7357 398.98 23.1719 398.98 23.7578C398.98 24.5977 399.462 25.0176 400.426 25.0176C401.116 25.0176 401.666 24.819 402.076 24.4219C402.493 24.0247 402.701 23.4974 402.701 22.8398V21.9414ZM414.83 15.877C415.234 15.877 415.569 15.9062 415.836 15.9648L415.611 18.7578C415.37 18.6927 415.077 18.6602 414.732 18.6602C413.782 18.6602 413.04 18.9043 412.506 19.3926C411.979 19.8809 411.715 20.5645 411.715 21.4434V27H408.736V16.082H410.992L411.432 17.918H411.578C411.917 17.306 412.372 16.8145 412.945 16.4434C413.525 16.0658 414.153 15.877 414.83 15.877ZM422.252 27.1953C418.854 27.1953 417.154 25.3301 417.154 21.5996C417.154 19.7441 417.617 18.3281 418.541 17.3516C419.465 16.3685 420.79 15.877 422.516 15.877C423.779 15.877 424.911 16.1243 425.914 16.6191L425.035 18.9238C424.566 18.735 424.13 18.582 423.727 18.4648C423.323 18.3411 422.919 18.2793 422.516 18.2793C420.966 18.2793 420.191 19.3796 420.191 21.5801C420.191 23.7155 420.966 24.7832 422.516 24.7832C423.089 24.7832 423.619 24.7083 424.107 24.5586C424.596 24.4023 425.084 24.1615 425.572 23.8359V26.3848C425.09 26.6908 424.602 26.9023 424.107 27.0195C423.619 27.1367 423.001 27.1953 422.252 27.1953ZM438.189 27H435.211V20.623C435.211 19.0475 434.625 18.2598 433.453 18.2598C432.62 18.2598 432.018 18.543 431.646 19.1094C431.275 19.6758 431.09 20.5938 431.09 21.8633V27H428.111V11.8047H431.09V14.9004C431.09 15.1413 431.067 15.7077 431.021 16.5996L430.953 17.4785H431.109C431.773 16.4108 432.828 15.877 434.273 15.877C435.556 15.877 436.529 16.222 437.193 16.9121C437.857 17.6022 438.189 18.5918 438.189 19.8809V27Z" fill="#D95840"/>
</g>
<circle cx="693.919" cy="92.9191" r="11.9191" fill="#D95840"/>
<path d="M656.977 23.2012C656.977 24.4577 656.521 25.4375 655.609 26.1406C654.698 26.8438 653.461 27.1953 651.898 27.1953C650.206 27.1953 648.904 26.9772 647.992 26.541V24.9395C648.578 25.1868 649.216 25.3822 649.906 25.5254C650.596 25.6686 651.28 25.7402 651.957 25.7402C653.064 25.7402 653.897 25.5319 654.457 25.1152C655.017 24.6921 655.297 24.1061 655.297 23.3574C655.297 22.8626 655.196 22.459 654.994 22.1465C654.799 21.8275 654.467 21.5345 653.998 21.2676C653.536 21.0007 652.829 20.6979 651.879 20.3594C650.551 19.8841 649.6 19.321 649.027 18.6699C648.461 18.0189 648.178 17.1693 648.178 16.1211C648.178 15.0208 648.591 14.1452 649.418 13.4941C650.245 12.8431 651.339 12.5176 652.699 12.5176C654.118 12.5176 655.424 12.778 656.615 13.2988L656.098 14.7441C654.919 14.2493 653.773 14.002 652.66 14.002C651.781 14.002 651.094 14.1908 650.6 14.5684C650.105 14.946 649.857 15.4701 649.857 16.1406C649.857 16.6354 649.949 17.0423 650.131 17.3613C650.313 17.6738 650.619 17.9635 651.049 18.2305C651.485 18.4909 652.149 18.7806 653.041 19.0996C654.538 19.6335 655.567 20.2064 656.127 20.8184C656.693 21.4303 656.977 22.2246 656.977 23.2012ZM657.953 16.2969H659.691L662.035 22.4004C662.549 23.7936 662.868 24.7995 662.992 25.418H663.07C663.155 25.0859 663.331 24.5195 663.598 23.7188C663.871 22.9115 664.757 20.4375 666.254 16.2969H667.992L663.393 28.4844C662.937 29.6888 662.403 30.5417 661.791 31.043C661.186 31.5508 660.44 31.8047 659.555 31.8047C659.06 31.8047 658.572 31.7493 658.09 31.6387V30.3398C658.448 30.418 658.848 30.457 659.291 30.457C660.404 30.457 661.199 29.832 661.674 28.582L662.27 27.0586L657.953 16.2969ZM677.055 27V20.0762C677.055 19.2038 676.856 18.5527 676.459 18.123C676.062 17.6934 675.44 17.4785 674.594 17.4785C673.474 17.4785 672.654 17.7812 672.133 18.3867C671.612 18.9922 671.352 19.9915 671.352 21.3848V27H669.73V16.2969H671.049L671.312 17.7617H671.391C671.723 17.2344 672.188 16.8275 672.787 16.541C673.386 16.248 674.053 16.1016 674.789 16.1016C676.078 16.1016 677.048 16.4141 677.699 17.0391C678.35 17.6576 678.676 18.6504 678.676 20.0176V27H677.055ZM685.473 25.8574C685.759 25.8574 686.036 25.8379 686.303 25.7988C686.57 25.7533 686.781 25.7077 686.938 25.6621V26.9023C686.762 26.987 686.501 27.0553 686.156 27.1074C685.818 27.166 685.512 27.1953 685.238 27.1953C683.168 27.1953 682.133 26.1048 682.133 23.9238V17.5566H680.6V16.7754L682.133 16.1016L682.816 13.8164H683.754V16.2969H686.859V17.5566H683.754V23.8555C683.754 24.5 683.907 24.9948 684.213 25.3398C684.519 25.6849 684.939 25.8574 685.473 25.8574ZM696.41 27V20.0762C696.41 19.2038 696.212 18.5527 695.814 18.123C695.417 17.6934 694.796 17.4785 693.949 17.4785C692.823 17.4785 691.999 17.7845 691.479 18.3965C690.964 19.0085 690.707 20.0111 690.707 21.4043V27H689.086V11.8047H690.707V16.4043C690.707 16.9577 690.681 17.4167 690.629 17.7812H690.727C691.046 17.2669 691.498 16.8633 692.084 16.5703C692.676 16.2708 693.35 16.1211 694.105 16.1211C695.414 16.1211 696.394 16.4336 697.045 17.0586C697.702 17.6771 698.031 18.6634 698.031 20.0176V27H696.41ZM705.893 27.1953C704.311 27.1953 703.061 26.7135 702.143 25.75C701.231 24.7865 700.775 23.4486 700.775 21.7363C700.775 20.0111 701.199 18.6406 702.045 17.625C702.898 16.6094 704.04 16.1016 705.473 16.1016C706.814 16.1016 707.875 16.5443 708.656 17.4297C709.438 18.3086 709.828 19.4707 709.828 20.916V21.9414H702.455C702.488 23.1979 702.803 24.1517 703.402 24.8027C704.008 25.4538 704.857 25.7793 705.951 25.7793C707.104 25.7793 708.243 25.5384 709.369 25.0566V26.502C708.796 26.7493 708.253 26.9251 707.738 27.0293C707.23 27.14 706.615 27.1953 705.893 27.1953ZM705.453 17.459C704.594 17.459 703.907 17.7389 703.393 18.2988C702.885 18.8587 702.585 19.6335 702.494 20.623H708.09C708.09 19.6009 707.862 18.8197 707.406 18.2793C706.951 17.7324 706.299 17.459 705.453 17.459ZM719.506 24.0801C719.506 25.0762 719.135 25.8444 718.393 26.3848C717.65 26.9251 716.609 27.1953 715.268 27.1953C713.848 27.1953 712.742 26.9707 711.947 26.5215V25.0176C712.462 25.278 713.012 25.4831 713.598 25.6328C714.19 25.7826 714.76 25.8574 715.307 25.8574C716.153 25.8574 716.804 25.724 717.26 25.457C717.715 25.1836 717.943 24.7702 717.943 24.2168C717.943 23.8001 717.761 23.4453 717.396 23.1523C717.038 22.8529 716.335 22.5013 715.287 22.0977C714.291 21.7266 713.581 21.4043 713.158 21.1309C712.742 20.8509 712.429 20.5352 712.221 20.1836C712.019 19.832 711.918 19.4121 711.918 18.9238C711.918 18.0514 712.273 17.3646 712.982 16.8633C713.692 16.3555 714.665 16.1016 715.902 16.1016C717.055 16.1016 718.181 16.3359 719.281 16.8047L718.705 18.123C717.631 17.6803 716.658 17.459 715.785 17.459C715.017 17.459 714.438 17.5794 714.047 17.8203C713.656 18.0612 713.461 18.3932 713.461 18.8164C713.461 19.1029 713.533 19.347 713.676 19.5488C713.826 19.7507 714.063 19.9427 714.389 20.125C714.714 20.3073 715.339 20.571 716.264 20.916C717.533 21.3783 718.389 21.8438 718.832 22.3125C719.281 22.7812 719.506 23.3704 719.506 24.0801ZM723.773 27H722.152V16.2969H723.773V27ZM722.016 13.3965C722.016 13.0254 722.107 12.7552 722.289 12.5859C722.471 12.4102 722.699 12.3223 722.973 12.3223C723.233 12.3223 723.458 12.4102 723.646 12.5859C723.835 12.7617 723.93 13.0319 723.93 13.3965C723.93 13.7611 723.835 14.0345 723.646 14.2168C723.458 14.3926 723.233 14.4805 722.973 14.4805C722.699 14.4805 722.471 14.3926 722.289 14.2168C722.107 14.0345 722.016 13.7611 722.016 13.3965ZM734.115 24.0801C734.115 25.0762 733.744 25.8444 733.002 26.3848C732.26 26.9251 731.218 27.1953 729.877 27.1953C728.458 27.1953 727.351 26.9707 726.557 26.5215V25.0176C727.071 25.278 727.621 25.4831 728.207 25.6328C728.799 25.7826 729.369 25.8574 729.916 25.8574C730.762 25.8574 731.413 25.724 731.869 25.457C732.325 25.1836 732.553 24.7702 732.553 24.2168C732.553 23.8001 732.37 23.4453 732.006 23.1523C731.648 22.8529 730.945 22.5013 729.896 22.0977C728.9 21.7266 728.191 21.4043 727.768 21.1309C727.351 20.8509 727.038 20.5352 726.83 20.1836C726.628 19.832 726.527 19.4121 726.527 18.9238C726.527 18.0514 726.882 17.3646 727.592 16.8633C728.301 16.3555 729.275 16.1016 730.512 16.1016C731.664 16.1016 732.79 16.3359 733.891 16.8047L733.314 18.123C732.24 17.6803 731.267 17.459 730.395 17.459C729.626 17.459 729.047 17.5794 728.656 17.8203C728.266 18.0612 728.07 18.3932 728.07 18.8164C728.07 19.1029 728.142 19.347 728.285 19.5488C728.435 19.7507 728.673 19.9427 728.998 20.125C729.324 20.3073 729.949 20.571 730.873 20.916C732.143 21.3783 732.999 21.8438 733.441 22.3125C733.891 22.7812 734.115 23.3704 734.115 24.0801Z" fill="#D95840"/>
<circle cx="543.919" cy="169.919" r="11.9191" fill="#D95840"/>
<path d="M484.527 226.002C482.958 226.002 481.718 226.526 480.807 227.574C479.902 228.616 479.449 230.045 479.449 231.861C479.449 233.73 479.885 235.175 480.758 236.197C481.637 237.213 482.887 237.721 484.508 237.721C485.504 237.721 486.64 237.542 487.916 237.184V238.639C486.926 239.01 485.706 239.195 484.254 239.195C482.151 239.195 480.527 238.557 479.381 237.281C478.242 236.005 477.672 234.192 477.672 231.842C477.672 230.37 477.945 229.081 478.492 227.975C479.046 226.868 479.84 226.015 480.875 225.416C481.917 224.817 483.141 224.518 484.547 224.518C486.044 224.518 487.353 224.791 488.473 225.338L487.77 226.764C486.689 226.256 485.608 226.002 484.527 226.002ZM492.311 228.297V235.24C492.311 236.113 492.509 236.764 492.906 237.193C493.303 237.623 493.925 237.838 494.771 237.838C495.891 237.838 496.708 237.532 497.223 236.92C497.743 236.308 498.004 235.309 498.004 233.922V228.297H499.625V239H498.287L498.053 237.564H497.965C497.633 238.092 497.171 238.495 496.578 238.775C495.992 239.055 495.322 239.195 494.566 239.195C493.264 239.195 492.288 238.886 491.637 238.268C490.992 237.649 490.67 236.66 490.67 235.299V228.297H492.311ZM507.955 228.102C508.43 228.102 508.857 228.141 509.234 228.219L509.01 229.723C508.567 229.625 508.176 229.576 507.838 229.576C506.972 229.576 506.23 229.928 505.611 230.631C504.999 231.334 504.693 232.21 504.693 233.258V239H503.072V228.297H504.41L504.596 230.279H504.674C505.071 229.583 505.549 229.046 506.109 228.668C506.669 228.29 507.285 228.102 507.955 228.102ZM516.119 228.102C516.594 228.102 517.021 228.141 517.398 228.219L517.174 229.723C516.731 229.625 516.34 229.576 516.002 229.576C515.136 229.576 514.394 229.928 513.775 230.631C513.163 231.334 512.857 232.21 512.857 233.258V239H511.236V228.297H512.574L512.76 230.279H512.838C513.235 229.583 513.714 229.046 514.273 228.668C514.833 228.29 515.449 228.102 516.119 228.102ZM523.922 239.195C522.34 239.195 521.09 238.714 520.172 237.75C519.26 236.786 518.805 235.449 518.805 233.736C518.805 232.011 519.228 230.641 520.074 229.625C520.927 228.609 522.07 228.102 523.502 228.102C524.843 228.102 525.904 228.544 526.686 229.43C527.467 230.309 527.857 231.471 527.857 232.916V233.941H520.484C520.517 235.198 520.833 236.152 521.432 236.803C522.037 237.454 522.887 237.779 523.98 237.779C525.133 237.779 526.272 237.538 527.398 237.057V238.502C526.826 238.749 526.282 238.925 525.768 239.029C525.26 239.14 524.645 239.195 523.922 239.195ZM523.482 229.459C522.623 229.459 521.936 229.739 521.422 230.299C520.914 230.859 520.615 231.633 520.523 232.623H526.119C526.119 231.601 525.891 230.82 525.436 230.279C524.98 229.732 524.329 229.459 523.482 229.459ZM537.955 239V232.076C537.955 231.204 537.757 230.553 537.359 230.123C536.962 229.693 536.34 229.479 535.494 229.479C534.374 229.479 533.554 229.781 533.033 230.387C532.512 230.992 532.252 231.992 532.252 233.385V239H530.631V228.297H531.949L532.213 229.762H532.291C532.623 229.234 533.089 228.827 533.688 228.541C534.286 228.248 534.954 228.102 535.689 228.102C536.979 228.102 537.949 228.414 538.6 229.039C539.251 229.658 539.576 230.65 539.576 232.018V239H537.955ZM546.373 237.857C546.66 237.857 546.936 237.838 547.203 237.799C547.47 237.753 547.682 237.708 547.838 237.662V238.902C547.662 238.987 547.402 239.055 547.057 239.107C546.718 239.166 546.412 239.195 546.139 239.195C544.068 239.195 543.033 238.105 543.033 235.924V229.557H541.5V228.775L543.033 228.102L543.717 225.816H544.654V228.297H547.76V229.557H544.654V235.855C544.654 236.5 544.807 236.995 545.113 237.34C545.419 237.685 545.839 237.857 546.373 237.857ZM563.482 235.201C563.482 236.458 563.027 237.438 562.115 238.141C561.204 238.844 559.967 239.195 558.404 239.195C556.712 239.195 555.41 238.977 554.498 238.541V236.939C555.084 237.187 555.722 237.382 556.412 237.525C557.102 237.669 557.786 237.74 558.463 237.74C559.57 237.74 560.403 237.532 560.963 237.115C561.523 236.692 561.803 236.106 561.803 235.357C561.803 234.863 561.702 234.459 561.5 234.146C561.305 233.827 560.973 233.535 560.504 233.268C560.042 233.001 559.335 232.698 558.385 232.359C557.057 231.884 556.106 231.321 555.533 230.67C554.967 230.019 554.684 229.169 554.684 228.121C554.684 227.021 555.097 226.145 555.924 225.494C556.751 224.843 557.844 224.518 559.205 224.518C560.624 224.518 561.93 224.778 563.121 225.299L562.604 226.744C561.425 226.249 560.279 226.002 559.166 226.002C558.287 226.002 557.6 226.191 557.105 226.568C556.611 226.946 556.363 227.47 556.363 228.141C556.363 228.635 556.454 229.042 556.637 229.361C556.819 229.674 557.125 229.964 557.555 230.23C557.991 230.491 558.655 230.781 559.547 231.1C561.044 231.633 562.073 232.206 562.633 232.818C563.199 233.43 563.482 234.225 563.482 235.201ZM569.615 237.857C569.902 237.857 570.178 237.838 570.445 237.799C570.712 237.753 570.924 237.708 571.08 237.662V238.902C570.904 238.987 570.644 239.055 570.299 239.107C569.96 239.166 569.654 239.195 569.381 239.195C567.311 239.195 566.275 238.105 566.275 235.924V229.557H564.742V228.775L566.275 228.102L566.959 225.816H567.896V228.297H571.002V229.557H567.896V235.855C567.896 236.5 568.049 236.995 568.355 237.34C568.661 237.685 569.081 237.857 569.615 237.857ZM579.811 239L579.488 237.477H579.41C578.876 238.147 578.342 238.603 577.809 238.844C577.281 239.078 576.62 239.195 575.826 239.195C574.765 239.195 573.932 238.922 573.326 238.375C572.727 237.828 572.428 237.05 572.428 236.041C572.428 233.88 574.156 232.747 577.613 232.643L579.43 232.584V231.92C579.43 231.08 579.247 230.462 578.883 230.064C578.525 229.661 577.949 229.459 577.154 229.459C576.262 229.459 575.253 229.732 574.127 230.279L573.629 229.039C574.156 228.753 574.732 228.528 575.357 228.365C575.989 228.202 576.62 228.121 577.252 228.121C578.528 228.121 579.472 228.404 580.084 228.971C580.702 229.537 581.012 230.445 581.012 231.695V239H579.811ZM576.148 237.857C577.158 237.857 577.949 237.581 578.521 237.027C579.101 236.474 579.391 235.699 579.391 234.703V233.736L577.77 233.805C576.48 233.85 575.549 234.052 574.977 234.41C574.41 234.762 574.127 235.312 574.127 236.061C574.127 236.646 574.303 237.092 574.654 237.398C575.012 237.704 575.51 237.857 576.148 237.857ZM587.818 237.857C588.105 237.857 588.382 237.838 588.648 237.799C588.915 237.753 589.127 237.708 589.283 237.662V238.902C589.107 238.987 588.847 239.055 588.502 239.107C588.163 239.166 587.857 239.195 587.584 239.195C585.514 239.195 584.479 238.105 584.479 235.924V229.557H582.945V228.775L584.479 228.102L585.162 225.816H586.1V228.297H589.205V229.557H586.1V235.855C586.1 236.5 586.253 236.995 586.559 237.34C586.865 237.685 587.285 237.857 587.818 237.857ZM592.955 228.297V235.24C592.955 236.113 593.154 236.764 593.551 237.193C593.948 237.623 594.57 237.838 595.416 237.838C596.536 237.838 597.353 237.532 597.867 236.92C598.388 236.308 598.648 235.309 598.648 233.922V228.297H600.27V239H598.932L598.697 237.564H598.609C598.277 238.092 597.815 238.495 597.223 238.775C596.637 239.055 595.966 239.195 595.211 239.195C593.909 239.195 592.932 238.886 592.281 238.268C591.637 237.649 591.314 236.66 591.314 235.299V228.297H592.955ZM610.621 236.08C610.621 237.076 610.25 237.844 609.508 238.385C608.766 238.925 607.724 239.195 606.383 239.195C604.964 239.195 603.857 238.971 603.062 238.521V237.018C603.577 237.278 604.127 237.483 604.713 237.633C605.305 237.783 605.875 237.857 606.422 237.857C607.268 237.857 607.919 237.724 608.375 237.457C608.831 237.184 609.059 236.77 609.059 236.217C609.059 235.8 608.876 235.445 608.512 235.152C608.154 234.853 607.451 234.501 606.402 234.098C605.406 233.727 604.697 233.404 604.273 233.131C603.857 232.851 603.544 232.535 603.336 232.184C603.134 231.832 603.033 231.412 603.033 230.924C603.033 230.051 603.388 229.365 604.098 228.863C604.807 228.355 605.781 228.102 607.018 228.102C608.17 228.102 609.296 228.336 610.396 228.805L609.82 230.123C608.746 229.68 607.773 229.459 606.9 229.459C606.132 229.459 605.553 229.579 605.162 229.82C604.771 230.061 604.576 230.393 604.576 230.816C604.576 231.103 604.648 231.347 604.791 231.549C604.941 231.751 605.178 231.943 605.504 232.125C605.829 232.307 606.454 232.571 607.379 232.916C608.648 233.378 609.505 233.844 609.947 234.312C610.396 234.781 610.621 235.37 610.621 236.08Z" fill="#D95840"/>
<circle cx="843.919" cy="169.919" r="11.9191" fill="#D95840"/>
<path d="M826.773 228.725C826.773 231.081 826.132 232.885 824.85 234.135C823.574 235.378 821.734 236 819.332 236H815.377V221.723H819.752C821.972 221.723 823.697 222.338 824.928 223.568C826.158 224.799 826.773 226.518 826.773 228.725ZM825.016 228.783C825.016 226.921 824.547 225.518 823.609 224.574C822.678 223.63 821.292 223.158 819.449 223.158H817.037V234.564H819.059C821.038 234.564 822.525 234.079 823.521 233.109C824.518 232.133 825.016 230.691 825.016 228.783ZM834.244 236.195C832.662 236.195 831.412 235.714 830.494 234.75C829.583 233.786 829.127 232.449 829.127 230.736C829.127 229.011 829.55 227.641 830.396 226.625C831.249 225.609 832.392 225.102 833.824 225.102C835.165 225.102 836.227 225.544 837.008 226.43C837.789 227.309 838.18 228.471 838.18 229.916V230.941H830.807C830.839 232.198 831.155 233.152 831.754 233.803C832.359 234.454 833.209 234.779 834.303 234.779C835.455 234.779 836.594 234.538 837.721 234.057V235.502C837.148 235.749 836.604 235.925 836.09 236.029C835.582 236.14 834.967 236.195 834.244 236.195ZM833.805 226.459C832.945 226.459 832.258 226.739 831.744 227.299C831.236 227.859 830.937 228.633 830.846 229.623H836.441C836.441 228.601 836.214 227.82 835.758 227.279C835.302 226.732 834.651 226.459 833.805 226.459ZM845.777 226.557H843.053V236H841.432V226.557H839.518V225.824L841.432 225.238V224.643C841.432 222.012 842.581 220.697 844.879 220.697C845.445 220.697 846.109 220.811 846.871 221.039L846.451 222.338C845.826 222.136 845.292 222.035 844.85 222.035C844.238 222.035 843.785 222.24 843.492 222.65C843.199 223.054 843.053 223.705 843.053 224.604V225.297H845.777V226.557ZM849.352 236H847.73V225.297H849.352V236ZM847.594 222.396C847.594 222.025 847.685 221.755 847.867 221.586C848.049 221.41 848.277 221.322 848.551 221.322C848.811 221.322 849.036 221.41 849.225 221.586C849.413 221.762 849.508 222.032 849.508 222.396C849.508 222.761 849.413 223.035 849.225 223.217C849.036 223.393 848.811 223.48 848.551 223.48C848.277 223.48 848.049 223.393 847.867 223.217C847.685 223.035 847.594 222.761 847.594 222.396ZM860.113 236V229.076C860.113 228.204 859.915 227.553 859.518 227.123C859.12 226.693 858.499 226.479 857.652 226.479C856.533 226.479 855.712 226.781 855.191 227.387C854.671 227.992 854.41 228.992 854.41 230.385V236H852.789V225.297H854.107L854.371 226.762H854.449C854.781 226.234 855.247 225.827 855.846 225.541C856.445 225.248 857.112 225.102 857.848 225.102C859.137 225.102 860.107 225.414 860.758 226.039C861.409 226.658 861.734 227.65 861.734 229.018V236H860.113ZM869.596 236.195C868.014 236.195 866.764 235.714 865.846 234.75C864.934 233.786 864.479 232.449 864.479 230.736C864.479 229.011 864.902 227.641 865.748 226.625C866.601 225.609 867.743 225.102 869.176 225.102C870.517 225.102 871.578 225.544 872.359 226.43C873.141 227.309 873.531 228.471 873.531 229.916V230.941H866.158C866.191 232.198 866.507 233.152 867.105 233.803C867.711 234.454 868.561 234.779 869.654 234.779C870.807 234.779 871.946 234.538 873.072 234.057V235.502C872.499 235.749 871.956 235.925 871.441 236.029C870.934 236.14 870.318 236.195 869.596 236.195ZM869.156 226.459C868.297 226.459 867.61 226.739 867.096 227.299C866.588 227.859 866.288 228.633 866.197 229.623H871.793C871.793 228.601 871.565 227.82 871.109 227.279C870.654 226.732 870.003 226.459 869.156 226.459ZM793.365 258.842C793.365 261.127 792.786 262.924 791.627 264.232C790.475 265.541 788.87 266.195 786.812 266.195C784.71 266.195 783.085 265.554 781.939 264.271C780.8 262.982 780.23 261.166 780.23 258.822C780.23 256.498 780.803 254.698 781.949 253.422C783.095 252.139 784.723 251.498 786.832 251.498C788.883 251.498 790.484 252.149 791.637 253.451C792.789 254.753 793.365 256.55 793.365 258.842ZM781.988 258.842C781.988 260.775 782.398 262.243 783.219 263.246C784.046 264.242 785.243 264.74 786.812 264.74C788.395 264.74 789.589 264.242 790.396 263.246C791.204 262.25 791.607 260.782 791.607 258.842C791.607 256.921 791.204 255.466 790.396 254.477C789.596 253.48 788.408 252.982 786.832 252.982C785.25 252.982 784.046 253.484 783.219 254.486C782.398 255.482 781.988 256.934 781.988 258.842ZM801.295 266.195C800.598 266.195 799.96 266.068 799.381 265.814C798.808 265.554 798.326 265.157 797.936 264.623H797.818C797.896 265.248 797.936 265.84 797.936 266.4V270.805H796.314V255.297H797.633L797.857 256.762H797.936C798.352 256.176 798.837 255.753 799.391 255.492C799.944 255.232 800.579 255.102 801.295 255.102C802.714 255.102 803.808 255.587 804.576 256.557C805.351 257.527 805.738 258.887 805.738 260.639C805.738 262.396 805.344 263.764 804.557 264.74C803.775 265.71 802.688 266.195 801.295 266.195ZM801.061 256.479C799.967 256.479 799.176 256.781 798.688 257.387C798.199 257.992 797.949 258.956 797.936 260.277V260.639C797.936 262.143 798.186 263.22 798.688 263.871C799.189 264.516 799.993 264.838 801.1 264.838C802.024 264.838 802.747 264.464 803.268 263.715C803.795 262.966 804.059 261.934 804.059 260.619C804.059 259.285 803.795 258.262 803.268 257.553C802.747 256.837 802.011 256.479 801.061 256.479ZM813.561 266.195C812.864 266.195 812.226 266.068 811.646 265.814C811.074 265.554 810.592 265.157 810.201 264.623H810.084C810.162 265.248 810.201 265.84 810.201 266.4V270.805H808.58V255.297H809.898L810.123 256.762H810.201C810.618 256.176 811.103 255.753 811.656 255.492C812.21 255.232 812.844 255.102 813.561 255.102C814.98 255.102 816.074 255.587 816.842 256.557C817.617 257.527 818.004 258.887 818.004 260.639C818.004 262.396 817.61 263.764 816.822 264.74C816.041 265.71 814.954 266.195 813.561 266.195ZM813.326 256.479C812.232 256.479 811.441 256.781 810.953 257.387C810.465 257.992 810.214 258.956 810.201 260.277V260.639C810.201 262.143 810.452 263.22 810.953 263.871C811.454 264.516 812.258 264.838 813.365 264.838C814.29 264.838 815.012 264.464 815.533 263.715C816.061 262.966 816.324 261.934 816.324 260.619C816.324 259.285 816.061 258.262 815.533 257.553C815.012 256.837 814.277 256.479 813.326 256.479ZM830.084 260.639C830.084 262.383 829.645 263.747 828.766 264.73C827.887 265.707 826.673 266.195 825.123 266.195C824.166 266.195 823.316 265.971 822.574 265.521C821.832 265.072 821.259 264.428 820.855 263.588C820.452 262.748 820.25 261.765 820.25 260.639C820.25 258.894 820.686 257.536 821.559 256.566C822.431 255.59 823.642 255.102 825.191 255.102C826.689 255.102 827.877 255.6 828.756 256.596C829.641 257.592 830.084 258.939 830.084 260.639ZM821.93 260.639C821.93 262.006 822.203 263.048 822.75 263.764C823.297 264.48 824.101 264.838 825.162 264.838C826.223 264.838 827.027 264.483 827.574 263.773C828.128 263.057 828.404 262.012 828.404 260.639C828.404 259.278 828.128 258.246 827.574 257.543C827.027 256.833 826.217 256.479 825.143 256.479C824.081 256.479 823.281 256.827 822.74 257.523C822.2 258.22 821.93 259.258 821.93 260.639ZM837.818 255.102C838.294 255.102 838.72 255.141 839.098 255.219L838.873 256.723C838.43 256.625 838.04 256.576 837.701 256.576C836.835 256.576 836.093 256.928 835.475 257.631C834.863 258.334 834.557 259.21 834.557 260.258V266H832.936V255.297H834.273L834.459 257.279H834.537C834.934 256.583 835.413 256.046 835.973 255.668C836.533 255.29 837.148 255.102 837.818 255.102ZM844.557 264.857C844.843 264.857 845.12 264.838 845.387 264.799C845.654 264.753 845.865 264.708 846.021 264.662V265.902C845.846 265.987 845.585 266.055 845.24 266.107C844.902 266.166 844.596 266.195 844.322 266.195C842.252 266.195 841.217 265.105 841.217 262.924V256.557H839.684V255.775L841.217 255.102L841.9 252.816H842.838V255.297H845.943V256.557H842.838V262.855C842.838 263.5 842.991 263.995 843.297 264.34C843.603 264.685 844.023 264.857 844.557 264.857ZM849.693 255.297V262.24C849.693 263.113 849.892 263.764 850.289 264.193C850.686 264.623 851.308 264.838 852.154 264.838C853.274 264.838 854.091 264.532 854.605 263.92C855.126 263.308 855.387 262.309 855.387 260.922V255.297H857.008V266H855.67L855.436 264.564H855.348C855.016 265.092 854.553 265.495 853.961 265.775C853.375 266.055 852.704 266.195 851.949 266.195C850.647 266.195 849.671 265.886 849.02 265.268C848.375 264.649 848.053 263.66 848.053 262.299V255.297H849.693ZM867.779 266V259.076C867.779 258.204 867.581 257.553 867.184 257.123C866.786 256.693 866.165 256.479 865.318 256.479C864.199 256.479 863.378 256.781 862.857 257.387C862.337 257.992 862.076 258.992 862.076 260.385V266H860.455V255.297H861.773L862.037 256.762H862.115C862.447 256.234 862.913 255.827 863.512 255.541C864.111 255.248 864.778 255.102 865.514 255.102C866.803 255.102 867.773 255.414 868.424 256.039C869.075 256.658 869.4 257.65 869.4 259.018V266H867.779ZM874.361 266H872.74V255.297H874.361V266ZM872.604 252.396C872.604 252.025 872.695 251.755 872.877 251.586C873.059 251.41 873.287 251.322 873.561 251.322C873.821 251.322 874.046 251.41 874.234 251.586C874.423 251.762 874.518 252.032 874.518 252.396C874.518 252.761 874.423 253.035 874.234 253.217C874.046 253.393 873.821 253.48 873.561 253.48C873.287 253.48 873.059 253.393 872.877 253.217C872.695 253.035 872.604 252.761 872.604 252.396ZM881.256 264.857C881.542 264.857 881.819 264.838 882.086 264.799C882.353 264.753 882.564 264.708 882.721 264.662V265.902C882.545 265.987 882.285 266.055 881.939 266.107C881.601 266.166 881.295 266.195 881.021 266.195C878.951 266.195 877.916 265.105 877.916 262.924V256.557H876.383V255.775L877.916 255.102L878.6 252.816H879.537V255.297H882.643V256.557H879.537V262.855C879.537 263.5 879.69 263.995 879.996 264.34C880.302 264.685 880.722 264.857 881.256 264.857ZM886.49 266H884.869V255.297H886.49V266ZM884.732 252.396C884.732 252.025 884.824 251.755 885.006 251.586C885.188 251.41 885.416 251.322 885.689 251.322C885.95 251.322 886.174 251.41 886.363 251.586C886.552 251.762 886.646 252.032 886.646 252.396C886.646 252.761 886.552 253.035 886.363 253.217C886.174 253.393 885.95 253.48 885.689 253.48C885.416 253.48 885.188 253.393 885.006 253.217C884.824 253.035 884.732 252.761 884.732 252.396ZM894.449 266.195C892.867 266.195 891.617 265.714 890.699 264.75C889.788 263.786 889.332 262.449 889.332 260.736C889.332 259.011 889.755 257.641 890.602 256.625C891.454 255.609 892.597 255.102 894.029 255.102C895.37 255.102 896.432 255.544 897.213 256.43C897.994 257.309 898.385 258.471 898.385 259.916V260.941H891.012C891.044 262.198 891.36 263.152 891.959 263.803C892.564 264.454 893.414 264.779 894.508 264.779C895.66 264.779 896.799 264.538 897.926 264.057V265.502C897.353 265.749 896.809 265.925 896.295 266.029C895.787 266.14 895.172 266.195 894.449 266.195ZM894.01 256.459C893.15 256.459 892.464 256.739 891.949 257.299C891.441 257.859 891.142 258.633 891.051 259.623H896.646C896.646 258.601 896.419 257.82 895.963 257.279C895.507 256.732 894.856 256.459 894.01 256.459ZM908.062 263.08C908.062 264.076 907.691 264.844 906.949 265.385C906.207 265.925 905.165 266.195 903.824 266.195C902.405 266.195 901.298 265.971 900.504 265.521V264.018C901.018 264.278 901.568 264.483 902.154 264.633C902.747 264.783 903.316 264.857 903.863 264.857C904.71 264.857 905.361 264.724 905.816 264.457C906.272 264.184 906.5 263.77 906.5 263.217C906.5 262.8 906.318 262.445 905.953 262.152C905.595 261.853 904.892 261.501 903.844 261.098C902.848 260.727 902.138 260.404 901.715 260.131C901.298 259.851 900.986 259.535 900.777 259.184C900.576 258.832 900.475 258.412 900.475 257.924C900.475 257.051 900.829 256.365 901.539 255.863C902.249 255.355 903.222 255.102 904.459 255.102C905.611 255.102 906.738 255.336 907.838 255.805L907.262 257.123C906.188 256.68 905.214 256.459 904.342 256.459C903.574 256.459 902.994 256.579 902.604 256.82C902.213 257.061 902.018 257.393 902.018 257.816C902.018 258.103 902.089 258.347 902.232 258.549C902.382 258.751 902.62 258.943 902.945 259.125C903.271 259.307 903.896 259.571 904.82 259.916C906.09 260.378 906.946 260.844 907.389 261.312C907.838 261.781 908.062 262.37 908.062 263.08Z" fill="#D95840"/>
<circle cx="993.919" cy="93.9191" r="11.9191" fill="#D95840"/>
<path d="M928.736 16.8828C928.736 18.3281 928.242 19.4414 927.252 20.2227C926.269 20.9974 924.859 21.3848 923.023 21.3848H921.344V27H919.684V12.7227H923.385C926.952 12.7227 928.736 14.1094 928.736 16.8828ZM921.344 19.959H922.838C924.309 19.959 925.374 19.7214 926.031 19.2461C926.689 18.7708 927.018 18.0091 927.018 16.9609C927.018 16.0169 926.708 15.3138 926.09 14.8516C925.471 14.3893 924.508 14.1582 923.199 14.1582H921.344V19.959ZM936.373 16.1016C936.848 16.1016 937.275 16.1406 937.652 16.2188L937.428 17.7227C936.985 17.625 936.594 17.5762 936.256 17.5762C935.39 17.5762 934.648 17.9277 934.029 18.6309C933.417 19.334 933.111 20.2096 933.111 21.2578V27H931.49V16.2969H932.828L933.014 18.2793H933.092C933.489 17.5827 933.967 17.0456 934.527 16.668C935.087 16.2904 935.702 16.1016 936.373 16.1016ZM944.176 27.1953C942.594 27.1953 941.344 26.7135 940.426 25.75C939.514 24.7865 939.059 23.4486 939.059 21.7363C939.059 20.0111 939.482 18.6406 940.328 17.625C941.181 16.6094 942.324 16.1016 943.756 16.1016C945.097 16.1016 946.158 16.5443 946.939 17.4297C947.721 18.3086 948.111 19.4707 948.111 20.916V21.9414H940.738C940.771 23.1979 941.087 24.1517 941.686 24.8027C942.291 25.4538 943.141 25.7793 944.234 25.7793C945.387 25.7793 946.526 25.5384 947.652 25.0566V26.502C947.079 26.7493 946.536 26.9251 946.021 27.0293C945.514 27.14 944.898 27.1953 944.176 27.1953ZM943.736 17.459C942.877 17.459 942.19 17.7389 941.676 18.2988C941.168 18.8587 940.868 19.6335 940.777 20.623H946.373C946.373 19.6009 946.145 18.8197 945.689 18.2793C945.234 17.7324 944.583 17.459 943.736 17.459ZM955.709 17.5566H952.984V27H951.363V17.5566H949.449V16.8242L951.363 16.2383V15.6426C951.363 13.0124 952.512 11.6973 954.811 11.6973C955.377 11.6973 956.041 11.8112 956.803 12.0391L956.383 13.3379C955.758 13.1361 955.224 13.0352 954.781 13.0352C954.169 13.0352 953.717 13.2402 953.424 13.6504C953.131 14.054 952.984 14.7051 952.984 15.6035V16.2969H955.709V17.5566ZM962.184 27.1953C960.602 27.1953 959.352 26.7135 958.434 25.75C957.522 24.7865 957.066 23.4486 957.066 21.7363C957.066 20.0111 957.49 18.6406 958.336 17.625C959.189 16.6094 960.331 16.1016 961.764 16.1016C963.105 16.1016 964.166 16.5443 964.947 17.4297C965.729 18.3086 966.119 19.4707 966.119 20.916V21.9414H958.746C958.779 23.1979 959.094 24.1517 959.693 24.8027C960.299 25.4538 961.148 25.7793 962.242 25.7793C963.395 25.7793 964.534 25.5384 965.66 25.0566V26.502C965.087 26.7493 964.544 26.9251 964.029 27.0293C963.521 27.14 962.906 27.1953 962.184 27.1953ZM961.744 17.459C960.885 17.459 960.198 17.7389 959.684 18.2988C959.176 18.8587 958.876 19.6335 958.785 20.623H964.381C964.381 19.6009 964.153 18.8197 963.697 18.2793C963.242 17.7324 962.59 17.459 961.744 17.459ZM973.775 16.1016C974.251 16.1016 974.677 16.1406 975.055 16.2188L974.83 17.7227C974.387 17.625 973.997 17.5762 973.658 17.5762C972.792 17.5762 972.05 17.9277 971.432 18.6309C970.82 19.334 970.514 20.2096 970.514 21.2578V27H968.893V16.2969H970.23L970.416 18.2793H970.494C970.891 17.5827 971.37 17.0456 971.93 16.668C972.49 16.2904 973.105 16.1016 973.775 16.1016ZM981.939 16.1016C982.415 16.1016 982.841 16.1406 983.219 16.2188L982.994 17.7227C982.551 17.625 982.161 17.5762 981.822 17.5762C980.956 17.5762 980.214 17.9277 979.596 18.6309C978.984 19.334 978.678 20.2096 978.678 21.2578V27H977.057V16.2969H978.395L978.58 18.2793H978.658C979.055 17.5827 979.534 17.0456 980.094 16.668C980.654 16.2904 981.269 16.1016 981.939 16.1016ZM989.742 27.1953C988.16 27.1953 986.91 26.7135 985.992 25.75C985.081 24.7865 984.625 23.4486 984.625 21.7363C984.625 20.0111 985.048 18.6406 985.895 17.625C986.747 16.6094 987.89 16.1016 989.322 16.1016C990.663 16.1016 991.725 16.5443 992.506 17.4297C993.287 18.3086 993.678 19.4707 993.678 20.916V21.9414H986.305C986.337 23.1979 986.653 24.1517 987.252 24.8027C987.857 25.4538 988.707 25.7793 989.801 25.7793C990.953 25.7793 992.092 25.5384 993.219 25.0566V26.502C992.646 26.7493 992.102 26.9251 991.588 27.0293C991.08 27.14 990.465 27.1953 989.742 27.1953ZM989.303 17.459C988.443 17.459 987.757 17.7389 987.242 18.2988C986.734 18.8587 986.435 19.6335 986.344 20.623H991.939C991.939 19.6009 991.712 18.8197 991.256 18.2793C990.8 17.7324 990.149 17.459 989.303 17.459ZM1003.74 25.5645H1003.65C1002.9 26.6517 1001.78 27.1953 1000.29 27.1953C998.889 27.1953 997.799 26.7168 997.018 25.7598C996.243 24.8027 995.855 23.4421 995.855 21.6777C995.855 19.9134 996.246 18.543 997.027 17.5664C997.809 16.5898 998.896 16.1016 1000.29 16.1016C1001.74 16.1016 1002.85 16.6289 1003.63 17.6836H1003.76L1003.69 16.9121L1003.65 16.1602V11.8047H1005.27V27H1003.95L1003.74 25.5645ZM1000.49 25.8379C1001.6 25.8379 1002.4 25.5384 1002.9 24.9395C1003.4 24.334 1003.65 23.3607 1003.65 22.0195V21.6777C1003.65 20.1608 1003.39 19.0801 1002.89 18.4355C1002.39 17.7845 1001.58 17.459 1000.47 17.459C999.524 17.459 998.795 17.8301 998.287 18.5723C997.786 19.3079 997.535 20.3496 997.535 21.6973C997.535 23.0645 997.786 24.0964 998.287 24.793C998.788 25.4896 999.524 25.8379 1000.49 25.8379ZM1022.21 23.2012C1022.21 24.4577 1021.76 25.4375 1020.85 26.1406C1019.93 26.8438 1018.7 27.1953 1017.13 27.1953C1015.44 27.1953 1014.14 26.9772 1013.23 26.541V24.9395C1013.81 25.1868 1014.45 25.3822 1015.14 25.5254C1015.83 25.6686 1016.52 25.7402 1017.19 25.7402C1018.3 25.7402 1019.13 25.5319 1019.69 25.1152C1020.25 24.6921 1020.53 24.1061 1020.53 23.3574C1020.53 22.8626 1020.43 22.459 1020.23 22.1465C1020.04 21.8275 1019.7 21.5345 1019.23 21.2676C1018.77 21.0007 1018.07 20.6979 1017.12 20.3594C1015.79 19.8841 1014.84 19.321 1014.26 18.6699C1013.7 18.0189 1013.41 17.1693 1013.41 16.1211C1013.41 15.0208 1013.83 14.1452 1014.65 13.4941C1015.48 12.8431 1016.57 12.5176 1017.94 12.5176C1019.35 12.5176 1020.66 12.778 1021.85 13.2988L1021.33 14.7441C1020.16 14.2493 1019.01 14.002 1017.9 14.002C1017.02 14.002 1016.33 14.1908 1015.84 14.5684C1015.34 14.946 1015.09 15.4701 1015.09 16.1406C1015.09 16.6354 1015.18 17.0423 1015.37 17.3613C1015.55 17.6738 1015.86 17.9635 1016.29 18.2305C1016.72 18.4909 1017.39 18.7806 1018.28 19.0996C1019.77 19.6335 1020.8 20.2064 1021.36 20.8184C1021.93 21.4303 1022.21 22.2246 1022.21 23.2012ZM1028.35 25.8574C1028.63 25.8574 1028.91 25.8379 1029.18 25.7988C1029.44 25.7533 1029.65 25.7077 1029.81 25.6621V26.9023C1029.63 26.987 1029.37 27.0553 1029.03 27.1074C1028.69 27.166 1028.38 27.1953 1028.11 27.1953C1026.04 27.1953 1025.01 26.1048 1025.01 23.9238V17.5566H1023.47V16.7754L1025.01 16.1016L1025.69 13.8164H1026.63V16.2969H1029.73V17.5566H1026.63V23.8555C1026.63 24.5 1026.78 24.9948 1027.09 25.3398C1027.39 25.6849 1027.81 25.8574 1028.35 25.8574ZM1038.54 27L1038.22 25.4766H1038.14C1037.61 26.1471 1037.07 26.6029 1036.54 26.8438C1036.01 27.0781 1035.35 27.1953 1034.56 27.1953C1033.5 27.1953 1032.66 26.9219 1032.06 26.375C1031.46 25.8281 1031.16 25.0501 1031.16 24.041C1031.16 21.8796 1032.89 20.7467 1036.34 20.6426L1038.16 20.584V19.9199C1038.16 19.0801 1037.98 18.4616 1037.61 18.0645C1037.26 17.6608 1036.68 17.459 1035.88 17.459C1034.99 17.459 1033.98 17.7324 1032.86 18.2793L1032.36 17.0391C1032.89 16.7526 1033.46 16.528 1034.09 16.3652C1034.72 16.2025 1035.35 16.1211 1035.98 16.1211C1037.26 16.1211 1038.2 16.4043 1038.81 16.9707C1039.43 17.5371 1039.74 18.4453 1039.74 19.6953V27H1038.54ZM1034.88 25.8574C1035.89 25.8574 1036.68 25.5807 1037.25 25.0273C1037.83 24.474 1038.12 23.6992 1038.12 22.7031V21.7363L1036.5 21.8047C1035.21 21.8503 1034.28 22.0521 1033.71 22.4102C1033.14 22.7617 1032.86 23.3118 1032.86 24.0605C1032.86 24.6465 1033.03 25.0924 1033.38 25.3984C1033.74 25.7044 1034.24 25.8574 1034.88 25.8574ZM1046.55 25.8574C1046.84 25.8574 1047.11 25.8379 1047.38 25.7988C1047.65 25.7533 1047.86 25.7077 1048.01 25.6621V26.9023C1047.84 26.987 1047.58 27.0553 1047.23 27.1074C1046.89 27.166 1046.59 27.1953 1046.31 27.1953C1044.24 27.1953 1043.21 26.1048 1043.21 23.9238V17.5566H1041.68V16.7754L1043.21 16.1016L1043.89 13.8164H1044.83V16.2969H1047.94V17.5566H1044.83V23.8555C1044.83 24.5 1044.98 24.9948 1045.29 25.3398C1045.6 25.6849 1046.01 25.8574 1046.55 25.8574ZM1051.69 16.2969V23.2402C1051.69 24.1126 1051.88 24.7637 1052.28 25.1934C1052.68 25.623 1053.3 25.8379 1054.15 25.8379C1055.27 25.8379 1056.08 25.5319 1056.6 24.9199C1057.12 24.3079 1057.38 23.3086 1057.38 21.9219V16.2969H1059V27H1057.66L1057.43 25.5645H1057.34C1057.01 26.0918 1056.55 26.4954 1055.95 26.7754C1055.37 27.0553 1054.7 27.1953 1053.94 27.1953C1052.64 27.1953 1051.66 26.8861 1051.01 26.2676C1050.37 25.6491 1050.04 24.6595 1050.04 23.2988V16.2969H1051.69ZM1069.35 24.0801C1069.35 25.0762 1068.98 25.8444 1068.24 26.3848C1067.5 26.9251 1066.45 27.1953 1065.11 27.1953C1063.69 27.1953 1062.59 26.9707 1061.79 26.5215V25.0176C1062.31 25.278 1062.86 25.4831 1063.44 25.6328C1064.04 25.7826 1064.61 25.8574 1065.15 25.8574C1066 25.8574 1066.65 25.724 1067.11 25.457C1067.56 25.1836 1067.79 24.7702 1067.79 24.2168C1067.79 23.8001 1067.61 23.4453 1067.24 23.1523C1066.88 22.8529 1066.18 22.5013 1065.13 22.0977C1064.14 21.7266 1063.43 21.4043 1063 21.1309C1062.59 20.8509 1062.27 20.5352 1062.07 20.1836C1061.86 19.832 1061.76 19.4121 1061.76 18.9238C1061.76 18.0514 1062.12 17.3646 1062.83 16.8633C1063.54 16.3555 1064.51 16.1016 1065.75 16.1016C1066.9 16.1016 1068.03 16.3359 1069.13 16.8047L1068.55 18.123C1067.48 17.6803 1066.5 17.459 1065.63 17.459C1064.86 17.459 1064.28 17.5794 1063.89 17.8203C1063.5 18.0612 1063.31 18.3932 1063.31 18.8164C1063.31 19.1029 1063.38 19.347 1063.52 19.5488C1063.67 19.7507 1063.91 19.9427 1064.23 20.125C1064.56 20.3073 1065.18 20.571 1066.11 20.916C1067.38 21.3783 1068.24 21.8438 1068.68 22.3125C1069.13 22.7812 1069.35 23.3704 1069.35 24.0801Z" fill="#D95840"/>
<defs>
<filter id="filter0_d" x="352" y="56" width="84.35" height="84.35" filterUnits="userSpaceOnUse" color-interpolation-filters="sRGB">
<feFlood flood-opacity="0" result="BackgroundImageFix"/>
<feColorMatrix in="SourceAlpha" type="matrix" values="0 0 0 0 0 0 0 0 0 0 0 0 0 0 0 0 0 0 127 0"/>
<feOffset dy="4"/>
<feGaussianBlur stdDeviation="7.5"/>
<feColorMatrix type="matrix" values="0 0 0 0 0.85098 0 0 0 0 0.345098 0 0 0 0 0.25098 0 0 0 0.22 0"/>
<feBlend mode="normal" in2="BackgroundImageFix" result="effect1_dropShadow"/>
<feBlend mode="normal" in="SourceGraphic" in2="effect1_dropShadow" result="shape"/>
</filter>
<filter id="filter1_d" x="335.104" y="0.804688" width="118.086" height="45.3906" filterUnits="userSpaceOnUse" color-interpolation-filters="sRGB">
<feFlood flood-opacity="0" result="BackgroundImageFix"/>
<feColorMatrix in="SourceAlpha" type="matrix" values="0 0 0 0 0 0 0 0 0 0 0 0 0 0 0 0 0 0 127 0"/>
<feOffset dy="4"/>
<feGaussianBlur stdDeviation="7.5"/>
<feColorMatrix type="matrix" values="0 0 0 0 0.85098 0 0 0 0 0.345098 0 0 0 0 0.25098 0 0 0 0.22 0"/>
<feBlend mode="normal" in2="BackgroundImageFix" result="effect1_dropShadow"/>
<feBlend mode="normal" in="SourceGraphic" in2="effect1_dropShadow" result="shape"/>
</filter>
</defs>
</svg>
