<svg width="200" height="200" viewBox="0 0 200 200" fill="none" xmlns="http://www.w3.org/2000/svg">
<g filter="url(#filter0_d)">
<rect x="10" y="6" width="180" height="180" rx="7.50936" fill="white"/>
<path d="M39.7617 73.0234C38.1523 73.0234 36.8867 73.5938 35.9648 74.7344C35.043 75.875 34.582 77.4492 34.582 79.457C34.582 81.5586 35.0234 83.1484 35.9062 84.2266C36.7969 85.3047 38.082 85.8438 39.7617 85.8438C40.4883 85.8438 41.1914 85.7734 41.8711 85.6328C42.5508 85.4844 43.2578 85.2969 43.9922 85.0703V87.4727C42.6484 87.9805 41.125 88.2344 39.4219 88.2344C36.9141 88.2344 34.9883 87.4766 33.6445 85.9609C32.3008 84.4375 31.6289 82.2617 31.6289 79.4336C31.6289 77.6523 31.9531 76.0938 32.6016 74.7578C33.2578 73.4219 34.2031 72.3984 35.4375 71.6875C36.6719 70.9766 38.1211 70.6211 39.7852 70.6211C41.5352 70.6211 43.1523 70.9883 44.6367 71.7227L43.6289 74.0547C43.0508 73.7812 42.4375 73.543 41.7891 73.3398C41.1484 73.1289 40.4727 73.0234 39.7617 73.0234ZM58.8867 81.4961C58.8867 83.6133 58.3438 85.2656 57.2578 86.4531C56.1719 87.6406 54.6602 88.2344 52.7227 88.2344C51.5117 88.2344 50.4414 87.9609 49.5117 87.4141C48.582 86.8672 47.8672 86.082 47.3672 85.0586C46.8672 84.0352 46.6172 82.8477 46.6172 81.4961C46.6172 79.3945 47.1562 77.7539 48.2344 76.5742C49.3125 75.3945 50.832 74.8047 52.793 74.8047C54.668 74.8047 56.1523 75.4102 57.2461 76.6211C58.3398 77.8242 58.8867 79.4492 58.8867 81.4961ZM49.4531 81.4961C49.4531 84.4883 50.5586 85.9844 52.7695 85.9844C54.957 85.9844 56.0508 84.4883 56.0508 81.4961C56.0508 78.5352 54.9492 77.0547 52.7461 77.0547C51.5898 77.0547 50.75 77.4375 50.2266 78.2031C49.7109 78.9688 49.4531 80.0664 49.4531 81.4961ZM72.9844 88H70.2188V80.0078C70.2188 79.0156 70.0312 78.2773 69.6562 77.793C69.2812 77.3008 68.6953 77.0547 67.8984 77.0547C66.8359 77.0547 66.0547 77.4023 65.5547 78.0977C65.0625 78.7852 64.8164 79.9336 64.8164 81.543V88H62.0625V75.0391H64.2188L64.6055 76.7383H64.7461C65.1055 76.1211 65.625 75.6445 66.3047 75.3086C66.9922 74.9727 67.7461 74.8047 68.5664 74.8047C70.5586 74.8047 71.8789 75.4844 72.5273 76.8438H72.7148C73.0977 76.2031 73.6367 75.7031 74.332 75.3438C75.0273 74.9844 75.8242 74.8047 76.7227 74.8047C78.2695 74.8047 79.3945 75.1953 80.0977 75.9766C80.8086 76.7578 81.1641 77.9492 81.1641 79.5508V88H78.4102V80.0078C78.4102 79.0156 78.2188 78.2773 77.8359 77.793C77.4609 77.3008 76.875 77.0547 76.0781 77.0547C75.0078 77.0547 74.2227 77.3906 73.7227 78.0625C73.2305 78.7266 72.9844 79.75 72.9844 81.1328V88ZM91.582 88.2344C89.9414 88.2344 88.668 87.6445 87.7617 86.4648H87.5977C87.707 87.5586 87.7617 88.2227 87.7617 88.457V93.7656H85.0078V75.0391H87.2344C87.2969 75.2812 87.4258 75.8594 87.6211 76.7734H87.7617C88.6211 75.4609 89.9102 74.8047 91.6289 74.8047C93.2461 74.8047 94.5039 75.3906 95.4023 76.5625C96.3086 77.7344 96.7617 79.3789 96.7617 81.4961C96.7617 83.6133 96.3008 85.2656 95.3789 86.4531C94.4648 87.6406 93.1992 88.2344 91.582 88.2344ZM90.9141 77.0547C89.8203 77.0547 89.0195 77.375 88.5117 78.0156C88.0117 78.6562 87.7617 79.6797 87.7617 81.0859V81.4961C87.7617 83.0742 88.0117 84.2188 88.5117 84.9297C89.0117 85.6328 89.8281 85.9844 90.9609 85.9844C91.9141 85.9844 92.6484 85.5938 93.1641 84.8125C93.6797 84.0312 93.9375 82.918 93.9375 81.4727C93.9375 80.0195 93.6797 78.9219 93.1641 78.1797C92.6562 77.4297 91.9062 77.0547 90.9141 77.0547ZM105.621 88.2344C103.605 88.2344 102.027 87.6484 100.887 86.4766C99.7539 85.2969 99.1875 83.6758 99.1875 81.6133C99.1875 79.4961 99.7148 77.832 100.77 76.6211C101.824 75.4102 103.273 74.8047 105.117 74.8047C106.828 74.8047 108.18 75.3242 109.172 76.3633C110.164 77.4023 110.66 78.832 110.66 80.6523V82.1406H102.023C102.062 83.3984 102.402 84.3672 103.043 85.0469C103.684 85.7188 104.586 86.0547 105.75 86.0547C106.516 86.0547 107.227 85.9844 107.883 85.8438C108.547 85.6953 109.258 85.4531 110.016 85.1172V87.3555C109.344 87.6758 108.664 87.9023 107.977 88.0352C107.289 88.168 106.504 88.2344 105.621 88.2344ZM105.117 76.8906C104.242 76.8906 103.539 77.168 103.008 77.7227C102.484 78.2773 102.172 79.0859 102.07 80.1484H107.953C107.938 79.0781 107.68 78.2695 107.18 77.7227C106.68 77.168 105.992 76.8906 105.117 76.8906ZM118.617 86.0078C119.289 86.0078 119.961 85.9023 120.633 85.6914V87.7656C120.328 87.8984 119.934 88.0078 119.449 88.0938C118.973 88.1875 118.477 88.2344 117.961 88.2344C115.352 88.2344 114.047 86.8594 114.047 84.1094V77.125H112.277V75.9062L114.176 74.8984L115.113 72.1562H116.812V75.0391H120.504V77.125H116.812V84.0625C116.812 84.7266 116.977 85.2188 117.305 85.5391C117.641 85.8516 118.078 86.0078 118.617 86.0078ZM125.988 88H123.234V75.0391H125.988V88ZM123.07 71.6055C123.07 71.1133 123.203 70.7344 123.469 70.4688C123.742 70.2031 124.129 70.0703 124.629 70.0703C125.113 70.0703 125.488 70.2031 125.754 70.4688C126.027 70.7344 126.164 71.1133 126.164 71.6055C126.164 72.0742 126.027 72.4453 125.754 72.7188C125.488 72.9844 125.113 73.1172 124.629 73.1172C124.129 73.1172 123.742 72.9844 123.469 72.7188C123.203 72.4453 123.07 72.0742 123.07 71.6055ZM134.766 86.0078C135.438 86.0078 136.109 85.9023 136.781 85.6914V87.7656C136.477 87.8984 136.082 88.0078 135.598 88.0938C135.121 88.1875 134.625 88.2344 134.109 88.2344C131.5 88.2344 130.195 86.8594 130.195 84.1094V77.125H128.426V75.9062L130.324 74.8984L131.262 72.1562H132.961V75.0391H136.652V77.125H132.961V84.0625C132.961 84.7266 133.125 85.2188 133.453 85.5391C133.789 85.8516 134.227 86.0078 134.766 86.0078ZM142.137 88H139.383V75.0391H142.137V88ZM139.219 71.6055C139.219 71.1133 139.352 70.7344 139.617 70.4688C139.891 70.2031 140.277 70.0703 140.777 70.0703C141.262 70.0703 141.637 70.2031 141.902 70.4688C142.176 70.7344 142.312 71.1133 142.312 71.6055C142.312 72.0742 142.176 72.4453 141.902 72.7188C141.637 72.9844 141.262 73.1172 140.777 73.1172C140.277 73.1172 139.891 72.9844 139.617 72.7188C139.352 72.4453 139.219 72.0742 139.219 71.6055ZM149.039 88L144.117 75.0391H147.023L149.66 82.5742C150.113 83.8398 150.387 84.8633 150.48 85.6445H150.574C150.645 85.082 150.918 84.0586 151.395 82.5742L154.031 75.0391H156.961L152.016 88H149.039ZM164.59 88.2344C162.574 88.2344 160.996 87.6484 159.855 86.4766C158.723 85.2969 158.156 83.6758 158.156 81.6133C158.156 79.4961 158.684 77.832 159.738 76.6211C160.793 75.4102 162.242 74.8047 164.086 74.8047C165.797 74.8047 167.148 75.3242 168.141 76.3633C169.133 77.4023 169.629 78.832 169.629 80.6523V82.1406H160.992C161.031 83.3984 161.371 84.3672 162.012 85.0469C162.652 85.7188 163.555 86.0547 164.719 86.0547C165.484 86.0547 166.195 85.9844 166.852 85.8438C167.516 85.6953 168.227 85.4531 168.984 85.1172V87.3555C168.312 87.6758 167.633 87.9023 166.945 88.0352C166.258 88.168 165.473 88.2344 164.59 88.2344ZM164.086 76.8906C163.211 76.8906 162.508 77.168 161.977 77.7227C161.453 78.2773 161.141 79.0859 161.039 80.1484H166.922C166.906 79.0781 166.648 78.2695 166.148 77.7227C165.648 77.168 164.961 76.8906 164.086 76.8906ZM66.0469 121L64.3359 116.242H57.7852L56.1094 121H53.1562L59.5664 103.797H62.6133L69.0234 121H66.0469ZM63.5977 113.828L61.9922 109.164C61.875 108.852 61.7109 108.359 61.5 107.688C61.2969 107.016 61.1562 106.523 61.0781 106.211C60.8672 107.172 60.5586 108.223 60.1523 109.363L58.6055 113.828H63.5977ZM82.3945 121H79.6289V113.031C79.6289 112.031 79.4258 111.285 79.0195 110.793C78.6211 110.301 77.9844 110.055 77.1094 110.055C75.9453 110.055 75.0938 110.398 74.5547 111.086C74.0156 111.773 73.7461 112.926 73.7461 114.543V121H70.9922V108.039H73.1484L73.5352 109.738H73.6758C74.0664 109.121 74.6211 108.645 75.3398 108.309C76.0586 107.973 76.8555 107.805 77.7305 107.805C80.8398 107.805 82.3945 109.387 82.3945 112.551V121ZM94.3359 121L93.7852 119.195H93.6914C93.0664 119.984 92.4375 120.523 91.8047 120.812C91.1719 121.094 90.3594 121.234 89.3672 121.234C88.0938 121.234 87.0977 120.891 86.3789 120.203C85.668 119.516 85.3125 118.543 85.3125 117.285C85.3125 115.949 85.8086 114.941 86.8008 114.262C87.793 113.582 89.3047 113.211 91.3359 113.148L93.5742 113.078V112.387C93.5742 111.559 93.3789 110.941 92.9883 110.535C92.6055 110.121 92.0078 109.914 91.1953 109.914C90.5312 109.914 89.8945 110.012 89.2852 110.207C88.6758 110.402 88.0898 110.633 87.5273 110.898L86.6367 108.93C87.3398 108.562 88.1094 108.285 88.9453 108.098C89.7812 107.902 90.5703 107.805 91.3125 107.805C92.9609 107.805 94.2031 108.164 95.0391 108.883C95.8828 109.602 96.3047 110.73 96.3047 112.27V121H94.3359ZM90.2344 119.125C91.2344 119.125 92.0352 118.848 92.6367 118.293C93.2461 117.73 93.5508 116.945 93.5508 115.938V114.812L91.8867 114.883C90.5898 114.93 89.6445 115.148 89.0508 115.539C88.4648 115.922 88.1719 116.512 88.1719 117.309C88.1719 117.887 88.3438 118.336 88.6875 118.656C89.0312 118.969 89.5469 119.125 90.2344 119.125ZM102.902 121H100.148V102.766H102.902V121ZM104.883 108.039H107.883L110.52 115.387C110.918 116.434 111.184 117.418 111.316 118.34H111.41C111.48 117.91 111.609 117.391 111.797 116.781C111.984 116.164 112.977 113.25 114.773 108.039H117.75L112.207 122.723C111.199 125.418 109.52 126.766 107.168 126.766C106.559 126.766 105.965 126.699 105.387 126.566V124.387C105.801 124.48 106.273 124.527 106.805 124.527C108.133 124.527 109.066 123.758 109.605 122.219L110.086 121L104.883 108.039ZM128.426 117.309C128.426 118.574 127.965 119.547 127.043 120.227C126.121 120.898 124.801 121.234 123.082 121.234C121.355 121.234 119.969 120.973 118.922 120.449V118.07C120.445 118.773 121.863 119.125 123.176 119.125C124.871 119.125 125.719 118.613 125.719 117.59C125.719 117.262 125.625 116.988 125.438 116.77C125.25 116.551 124.941 116.324 124.512 116.09C124.082 115.855 123.484 115.59 122.719 115.293C121.227 114.715 120.215 114.137 119.684 113.559C119.16 112.98 118.898 112.23 118.898 111.309C118.898 110.199 119.344 109.34 120.234 108.73C121.133 108.113 122.352 107.805 123.891 107.805C125.414 107.805 126.855 108.113 128.215 108.73L127.324 110.805C125.926 110.227 124.75 109.938 123.797 109.938C122.344 109.938 121.617 110.352 121.617 111.18C121.617 111.586 121.805 111.93 122.18 112.211C122.562 112.492 123.391 112.879 124.664 113.371C125.734 113.785 126.512 114.164 126.996 114.508C127.48 114.852 127.84 115.25 128.074 115.703C128.309 116.148 128.426 116.684 128.426 117.309ZM134.168 121H131.414V108.039H134.168V121ZM131.25 104.605C131.25 104.113 131.383 103.734 131.648 103.469C131.922 103.203 132.309 103.07 132.809 103.07C133.293 103.07 133.668 103.203 133.934 103.469C134.207 103.734 134.344 104.113 134.344 104.605C134.344 105.074 134.207 105.445 133.934 105.719C133.668 105.984 133.293 106.117 132.809 106.117C132.309 106.117 131.922 105.984 131.648 105.719C131.383 105.445 131.25 105.074 131.25 104.605ZM146.824 117.309C146.824 118.574 146.363 119.547 145.441 120.227C144.52 120.898 143.199 121.234 141.48 121.234C139.754 121.234 138.367 120.973 137.32 120.449V118.07C138.844 118.773 140.262 119.125 141.574 119.125C143.27 119.125 144.117 118.613 144.117 117.59C144.117 117.262 144.023 116.988 143.836 116.77C143.648 116.551 143.34 116.324 142.91 116.09C142.48 115.855 141.883 115.59 141.117 115.293C139.625 114.715 138.613 114.137 138.082 113.559C137.559 112.98 137.297 112.23 137.297 111.309C137.297 110.199 137.742 109.34 138.633 108.73C139.531 108.113 140.75 107.805 142.289 107.805C143.812 107.805 145.254 108.113 146.613 108.73L145.723 110.805C144.324 110.227 143.148 109.938 142.195 109.938C140.742 109.938 140.016 110.352 140.016 111.18C140.016 111.586 140.203 111.93 140.578 112.211C140.961 112.492 141.789 112.879 143.062 113.371C144.133 113.785 144.91 114.164 145.395 114.508C145.879 114.852 146.238 115.25 146.473 115.703C146.707 116.148 146.824 116.684 146.824 117.309Z" fill="#7F8499"/>
</g>
<defs>
<filter id="filter0_d" x="0" y="0" width="200" height="200" filterUnits="userSpaceOnUse" color-interpolation-filters="sRGB">
<feFlood flood-opacity="0" result="BackgroundImageFix"/>
<feColorMatrix in="SourceAlpha" type="matrix" values="0 0 0 0 0 0 0 0 0 0 0 0 0 0 0 0 0 0 127 0"/>
<feOffset dy="4"/>
<feGaussianBlur stdDeviation="5"/>
<feColorMatrix type="matrix" values="0 0 0 0 0 0 0 0 0 0 0 0 0 0 0 0 0 0 0.06 0"/>
<feBlend mode="normal" in2="BackgroundImageFix" result="effect1_dropShadow"/>
<feBlend mode="normal" in="SourceGraphic" in2="effect1_dropShadow" result="shape"/>
</filter>
</defs>
</svg>
