<svg width="200" height="200" viewBox="0 0 200 200" fill="none" xmlns="http://www.w3.org/2000/svg">
<g filter="url(#filter0_d)">
<rect x="10" y="6" width="180" height="180" rx="7.50936" fill="white"/>
<path d="M42.7031 83.3477C42.7031 84.8711 42.1523 86.0664 41.0508 86.9336C39.9492 87.8008 38.4297 88.2344 36.4922 88.2344C34.5547 88.2344 32.9688 87.9336 31.7344 87.332V84.6836C32.5156 85.0508 33.3438 85.3398 34.2188 85.5508C35.1016 85.7617 35.9219 85.8672 36.6797 85.8672C37.7891 85.8672 38.6055 85.6562 39.1289 85.2344C39.6602 84.8125 39.9258 84.2461 39.9258 83.5352C39.9258 82.8945 39.6836 82.3516 39.1992 81.9062C38.7148 81.4609 37.7148 80.9336 36.1992 80.3242C34.6367 79.6914 33.5352 78.9688 32.8945 78.1562C32.2539 77.3438 31.9336 76.3672 31.9336 75.2266C31.9336 73.7969 32.4414 72.6719 33.457 71.8516C34.4727 71.0312 35.8359 70.6211 37.5469 70.6211C39.1875 70.6211 40.8203 70.9805 42.4453 71.6992L41.5547 73.9844C40.0312 73.3438 38.6719 73.0234 37.4766 73.0234C36.5703 73.0234 35.8828 73.2227 35.4141 73.6211C34.9453 74.0117 34.7109 74.5312 34.7109 75.1797C34.7109 75.625 34.8047 76.0078 34.9922 76.3281C35.1797 76.6406 35.4883 76.9375 35.918 77.2188C36.3477 77.5 37.1211 77.8711 38.2383 78.332C39.4961 78.8555 40.418 79.3438 41.0039 79.7969C41.5898 80.25 42.0195 80.7617 42.293 81.332C42.5664 81.9023 42.7031 82.5742 42.7031 83.3477ZM50.5547 86.0078C51.2266 86.0078 51.8984 85.9023 52.5703 85.6914V87.7656C52.2656 87.8984 51.8711 88.0078 51.3867 88.0938C50.9102 88.1875 50.4141 88.2344 49.8984 88.2344C47.2891 88.2344 45.9844 86.8594 45.9844 84.1094V77.125H44.2148V75.9062L46.1133 74.8984L47.0508 72.1562H48.75V75.0391H52.4414V77.125H48.75V84.0625C48.75 84.7266 48.9141 85.2188 49.2422 85.5391C49.5781 85.8516 50.0156 86.0078 50.5547 86.0078ZM63.2812 88L62.7305 86.1953H62.6367C62.0117 86.9844 61.3828 87.5234 60.75 87.8125C60.1172 88.0938 59.3047 88.2344 58.3125 88.2344C57.0391 88.2344 56.043 87.8906 55.3242 87.2031C54.6133 86.5156 54.2578 85.543 54.2578 84.2852C54.2578 82.9492 54.7539 81.9414 55.7461 81.2617C56.7383 80.582 58.25 80.2109 60.2812 80.1484L62.5195 80.0781V79.3867C62.5195 78.5586 62.3242 77.9414 61.9336 77.5352C61.5508 77.1211 60.9531 76.9141 60.1406 76.9141C59.4766 76.9141 58.8398 77.0117 58.2305 77.207C57.6211 77.4023 57.0352 77.6328 56.4727 77.8984L55.582 75.9297C56.2852 75.5625 57.0547 75.2852 57.8906 75.0977C58.7266 74.9023 59.5156 74.8047 60.2578 74.8047C61.9062 74.8047 63.1484 75.1641 63.9844 75.8828C64.8281 76.6016 65.25 77.7305 65.25 79.2695V88H63.2812ZM59.1797 86.125C60.1797 86.125 60.9805 85.8477 61.582 85.293C62.1914 84.7305 62.4961 83.9453 62.4961 82.9375V81.8125L60.832 81.8828C59.5352 81.9297 58.5898 82.1484 57.9961 82.5391C57.4102 82.9219 57.1172 83.5117 57.1172 84.3086C57.1172 84.8867 57.2891 85.3359 57.6328 85.6562C57.9766 85.9688 58.4922 86.125 59.1797 86.125ZM71.7539 81.1562L73.3125 79.2109L77.2266 75.0391H80.4023L75.1875 80.6055L80.7305 88H77.4961L73.3359 82.3164L71.8242 83.5586V88H69.0938V69.7656H71.8242V78.6602L71.6836 81.1562H71.7539ZM88.4883 88.2344C86.4727 88.2344 84.8945 87.6484 83.7539 86.4766C82.6211 85.2969 82.0547 83.6758 82.0547 81.6133C82.0547 79.4961 82.582 77.832 83.6367 76.6211C84.6914 75.4102 86.1406 74.8047 87.9844 74.8047C89.6953 74.8047 91.0469 75.3242 92.0391 76.3633C93.0312 77.4023 93.5273 78.832 93.5273 80.6523V82.1406H84.8906C84.9297 83.3984 85.2695 84.3672 85.9102 85.0469C86.5508 85.7188 87.4531 86.0547 88.6172 86.0547C89.3828 86.0547 90.0938 85.9844 90.75 85.8438C91.4141 85.6953 92.125 85.4531 92.8828 85.1172V87.3555C92.2109 87.6758 91.5312 87.9023 90.8438 88.0352C90.1562 88.168 89.3711 88.2344 88.4883 88.2344ZM87.9844 76.8906C87.1094 76.8906 86.4062 77.168 85.875 77.7227C85.3516 78.2773 85.0391 79.0859 84.9375 80.1484H90.8203C90.8047 79.0781 90.5469 78.2695 90.0469 77.7227C89.5469 77.168 88.8594 76.8906 87.9844 76.8906ZM108.059 88H105.293V80.0312C105.293 79.0312 105.09 78.2852 104.684 77.793C104.285 77.3008 103.648 77.0547 102.773 77.0547C101.617 77.0547 100.766 77.4023 100.219 78.0977C99.6797 78.7852 99.4102 79.9414 99.4102 81.5664V88H96.6562V69.7656H99.4102V74.3945C99.4102 75.1367 99.3633 75.9297 99.2695 76.7734H99.4453C99.8203 76.1484 100.34 75.6641 101.004 75.3203C101.676 74.9766 102.457 74.8047 103.348 74.8047C106.488 74.8047 108.059 76.3867 108.059 79.5508V88ZM123.387 81.4961C123.387 83.6133 122.844 85.2656 121.758 86.4531C120.672 87.6406 119.16 88.2344 117.223 88.2344C116.012 88.2344 114.941 87.9609 114.012 87.4141C113.082 86.8672 112.367 86.082 111.867 85.0586C111.367 84.0352 111.117 82.8477 111.117 81.4961C111.117 79.3945 111.656 77.7539 112.734 76.5742C113.812 75.3945 115.332 74.8047 117.293 74.8047C119.168 74.8047 120.652 75.4102 121.746 76.6211C122.84 77.8242 123.387 79.4492 123.387 81.4961ZM113.953 81.4961C113.953 84.4883 115.059 85.9844 117.27 85.9844C119.457 85.9844 120.551 84.4883 120.551 81.4961C120.551 78.5352 119.449 77.0547 117.246 77.0547C116.09 77.0547 115.25 77.4375 114.727 78.2031C114.211 78.9688 113.953 80.0664 113.953 81.4961ZM129.316 88H126.562V69.7656H129.316V88ZM137.637 88.2344C136.02 88.2344 134.758 87.6484 133.852 86.4766C132.945 85.3047 132.492 83.6602 132.492 81.543C132.492 79.418 132.949 77.7656 133.863 76.5859C134.785 75.3984 136.059 74.8047 137.684 74.8047C139.387 74.8047 140.684 75.4336 141.574 76.6914H141.715C141.582 75.7617 141.516 75.0273 141.516 74.4883V69.7656H144.281V88H142.125L141.645 86.3008H141.516C140.633 87.5898 139.34 88.2344 137.637 88.2344ZM138.375 86.0078C139.508 86.0078 140.332 85.6914 140.848 85.0586C141.363 84.418 141.629 83.3828 141.645 81.9531V81.5664C141.645 79.9336 141.379 78.7734 140.848 78.0859C140.316 77.3984 139.484 77.0547 138.352 77.0547C137.383 77.0547 136.637 77.4492 136.113 78.2383C135.59 79.0195 135.328 80.1367 135.328 81.5898C135.328 83.0273 135.582 84.125 136.09 84.8828C136.598 85.6328 137.359 86.0078 138.375 86.0078ZM153.879 88.2344C151.863 88.2344 150.285 87.6484 149.145 86.4766C148.012 85.2969 147.445 83.6758 147.445 81.6133C147.445 79.4961 147.973 77.832 149.027 76.6211C150.082 75.4102 151.531 74.8047 153.375 74.8047C155.086 74.8047 156.438 75.3242 157.43 76.3633C158.422 77.4023 158.918 78.832 158.918 80.6523V82.1406H150.281C150.32 83.3984 150.66 84.3672 151.301 85.0469C151.941 85.7188 152.844 86.0547 154.008 86.0547C154.773 86.0547 155.484 85.9844 156.141 85.8438C156.805 85.6953 157.516 85.4531 158.273 85.1172V87.3555C157.602 87.6758 156.922 87.9023 156.234 88.0352C155.547 88.168 154.762 88.2344 153.879 88.2344ZM153.375 76.8906C152.5 76.8906 151.797 77.168 151.266 77.7227C150.742 78.2773 150.43 79.0859 150.328 80.1484H156.211C156.195 79.0781 155.938 78.2695 155.438 77.7227C154.938 77.168 154.25 76.8906 153.375 76.8906ZM168.621 74.8047C169.176 74.8047 169.633 74.8438 169.992 74.9219L169.723 77.4883C169.332 77.3945 168.926 77.3477 168.504 77.3477C167.402 77.3477 166.508 77.707 165.82 78.4258C165.141 79.1445 164.801 80.0781 164.801 81.2266V88H162.047V75.0391H164.203L164.566 77.3242H164.707C165.137 76.5508 165.695 75.9375 166.383 75.4844C167.078 75.0312 167.824 74.8047 168.621 74.8047ZM84.6562 121L79.6875 106.691H79.5938C79.7266 108.816 79.793 110.809 79.793 112.668V121H77.25V103.867H81.1992L85.957 117.496H86.0273L90.9258 103.867H94.8867V121H92.1914V112.527C92.1914 111.676 92.2109 110.566 92.25 109.199C92.2969 107.832 92.3359 107.004 92.3672 106.715H92.2734L87.1289 121H84.6562ZM107.215 121L106.664 119.195H106.57C105.945 119.984 105.316 120.523 104.684 120.812C104.051 121.094 103.238 121.234 102.246 121.234C100.973 121.234 99.9766 120.891 99.2578 120.203C98.5469 119.516 98.1914 118.543 98.1914 117.285C98.1914 115.949 98.6875 114.941 99.6797 114.262C100.672 113.582 102.184 113.211 104.215 113.148L106.453 113.078V112.387C106.453 111.559 106.258 110.941 105.867 110.535C105.484 110.121 104.887 109.914 104.074 109.914C103.41 109.914 102.773 110.012 102.164 110.207C101.555 110.402 100.969 110.633 100.406 110.898L99.5156 108.93C100.219 108.562 100.988 108.285 101.824 108.098C102.66 107.902 103.449 107.805 104.191 107.805C105.84 107.805 107.082 108.164 107.918 108.883C108.762 109.602 109.184 110.73 109.184 112.27V121H107.215ZM103.113 119.125C104.113 119.125 104.914 118.848 105.516 118.293C106.125 117.73 106.43 116.945 106.43 115.938V114.812L104.766 114.883C103.469 114.93 102.523 115.148 101.93 115.539C101.344 115.922 101.051 116.512 101.051 117.309C101.051 117.887 101.223 118.336 101.566 118.656C101.91 118.969 102.426 119.125 103.113 119.125ZM119.602 121.234C117.961 121.234 116.688 120.645 115.781 119.465H115.617C115.727 120.559 115.781 121.223 115.781 121.457V126.766H113.027V108.039H115.254C115.316 108.281 115.445 108.859 115.641 109.773H115.781C116.641 108.461 117.93 107.805 119.648 107.805C121.266 107.805 122.523 108.391 123.422 109.562C124.328 110.734 124.781 112.379 124.781 114.496C124.781 116.613 124.32 118.266 123.398 119.453C122.484 120.641 121.219 121.234 119.602 121.234ZM118.934 110.055C117.84 110.055 117.039 110.375 116.531 111.016C116.031 111.656 115.781 112.68 115.781 114.086V114.496C115.781 116.074 116.031 117.219 116.531 117.93C117.031 118.633 117.848 118.984 118.98 118.984C119.934 118.984 120.668 118.594 121.184 117.812C121.699 117.031 121.957 115.918 121.957 114.473C121.957 113.02 121.699 111.922 121.184 111.18C120.676 110.43 119.926 110.055 118.934 110.055Z" fill="#7F8499"/>
</g>
<defs>
<filter id="filter0_d" x="0" y="0" width="200" height="200" filterUnits="userSpaceOnUse" color-interpolation-filters="sRGB">
<feFlood flood-opacity="0" result="BackgroundImageFix"/>
<feColorMatrix in="SourceAlpha" type="matrix" values="0 0 0 0 0 0 0 0 0 0 0 0 0 0 0 0 0 0 127 0"/>
<feOffset dy="4"/>
<feGaussianBlur stdDeviation="5"/>
<feColorMatrix type="matrix" values="0 0 0 0 0 0 0 0 0 0 0 0 0 0 0 0 0 0 0.06 0"/>
<feBlend mode="normal" in2="BackgroundImageFix" result="effect1_dropShadow"/>
<feBlend mode="normal" in="SourceGraphic" in2="effect1_dropShadow" result="shape"/>
</filter>
</defs>
</svg>
