<svg width="200" height="200" viewBox="0 0 200 200" fill="none" xmlns="http://www.w3.org/2000/svg">
<g filter="url(#filter0_d)">
<rect x="10" y="6" width="180" height="180" rx="7.50936" fill="white"/>
<path d="M96.5 53.6094C96.5 55.7812 95.8672 57.5938 94.6016 59.0469C93.3359 60.4844 91.5547 61.4531 89.2578 61.9531V62.1406C92.0078 62.4844 94.0703 63.3438 95.4453 64.7188C96.8203 66.0781 97.5078 67.8906 97.5078 70.1562C97.5078 73.4531 96.3438 76 94.0156 77.7969C91.6875 79.5781 88.375 80.4688 84.0781 80.4688C80.2812 80.4688 77.0781 79.8516 74.4688 78.6172V73.7188C75.9219 74.4375 77.4609 74.9922 79.0859 75.3828C80.7109 75.7734 82.2734 75.9688 83.7734 75.9688C86.4297 75.9688 88.4141 75.4766 89.7266 74.4922C91.0391 73.5078 91.6953 71.9844 91.6953 69.9219C91.6953 68.0938 90.9688 66.75 89.5156 65.8906C88.0625 65.0312 85.7812 64.6016 82.6719 64.6016H79.6953V60.125H82.7188C88.1875 60.125 90.9219 58.2344 90.9219 54.4531C90.9219 52.9844 90.4453 51.8516 89.4922 51.0547C88.5391 50.2578 87.1328 49.8594 85.2734 49.8594C83.9766 49.8594 82.7266 50.0469 81.5234 50.4219C80.3203 50.7812 78.8984 51.4922 77.2578 52.5547L74.5625 48.7109C77.7031 46.3984 81.3516 45.2422 85.5078 45.2422C88.9609 45.2422 91.6562 45.9844 93.5938 47.4688C95.5312 48.9531 96.5 51 96.5 53.6094ZM125.211 62.8672C125.211 68.8203 124.25 73.2422 122.328 76.1328C120.422 79.0234 117.5 80.4688 113.562 80.4688C109.75 80.4688 106.859 78.9766 104.891 75.9922C102.922 73.0078 101.938 68.6328 101.938 62.8672C101.938 56.8203 102.891 52.3672 104.797 49.5078C106.719 46.6328 109.641 45.1953 113.562 45.1953C117.391 45.1953 120.289 46.6953 122.258 49.6953C124.227 52.6953 125.211 57.0859 125.211 62.8672ZM107.516 62.8672C107.516 67.5391 107.992 70.875 108.945 72.875C109.914 74.875 111.453 75.875 113.562 75.875C115.672 75.875 117.211 74.8594 118.18 72.8281C119.164 70.7969 119.656 67.4766 119.656 62.8672C119.656 58.2734 119.164 54.9531 118.18 52.9062C117.211 50.8438 115.672 49.8125 113.562 49.8125C111.453 49.8125 109.914 50.8203 108.945 52.8359C107.992 54.8516 107.516 58.1953 107.516 62.8672Z" fill="#7F8499"/>
<path d="M58.4873 132.973C58.4873 134.104 58.0771 134.986 57.2568 135.619C56.4365 136.252 55.3232 136.568 53.917 136.568C52.3936 136.568 51.2217 136.372 50.4014 135.979V134.538C50.9287 134.76 51.5029 134.936 52.124 135.065C52.7451 135.194 53.3604 135.259 53.9697 135.259C54.9658 135.259 55.7158 135.071 56.2197 134.696C56.7236 134.315 56.9756 133.788 56.9756 133.114C56.9756 132.669 56.8848 132.305 56.7031 132.024C56.5273 131.737 56.2285 131.473 55.8066 131.233C55.3906 130.993 54.7549 130.72 53.8994 130.416C52.7041 129.988 51.8486 129.481 51.333 128.895C50.8232 128.309 50.5684 127.545 50.5684 126.601C50.5684 125.611 50.9404 124.823 51.6846 124.237C52.4287 123.651 53.4131 123.358 54.6377 123.358C55.915 123.358 57.0898 123.593 58.1621 124.061L57.6963 125.362C56.6357 124.917 55.6045 124.694 54.6025 124.694C53.8115 124.694 53.1934 124.864 52.748 125.204C52.3027 125.544 52.0801 126.015 52.0801 126.619C52.0801 127.064 52.1621 127.43 52.3262 127.718C52.4902 127.999 52.7656 128.26 53.1523 128.5C53.5449 128.734 54.1426 128.995 54.9453 129.282C56.293 129.762 57.2188 130.278 57.7227 130.829C58.2324 131.38 58.4873 132.094 58.4873 132.973ZM64.0068 135.364C64.2646 135.364 64.5137 135.346 64.7539 135.311C64.9941 135.27 65.1846 135.229 65.3252 135.188V136.304C65.167 136.381 64.9326 136.442 64.6221 136.489C64.3174 136.542 64.042 136.568 63.7959 136.568C61.9326 136.568 61.001 135.587 61.001 133.624V127.893H59.6211V127.19L61.001 126.584L61.6162 124.527H62.46V126.76H65.2549V127.893H62.46V133.562C62.46 134.142 62.5977 134.588 62.873 134.898C63.1484 135.209 63.5264 135.364 64.0068 135.364ZM73.1826 136.392L72.8926 135.021H72.8223C72.3418 135.625 71.8613 136.035 71.3809 136.252C70.9062 136.463 70.3115 136.568 69.5967 136.568C68.6416 136.568 67.8916 136.322 67.3467 135.83C66.8076 135.338 66.5381 134.637 66.5381 133.729C66.5381 131.784 68.0938 130.764 71.2051 130.671L72.8398 130.618V130.02C72.8398 129.264 72.6758 128.708 72.3477 128.35C72.0254 127.987 71.5068 127.805 70.792 127.805C69.9893 127.805 69.0811 128.052 68.0674 128.544L67.6191 127.427C68.0938 127.17 68.6123 126.968 69.1748 126.821C69.7432 126.675 70.3115 126.601 70.8799 126.601C72.0283 126.601 72.8779 126.856 73.4287 127.366C73.9854 127.876 74.2637 128.693 74.2637 129.818V136.392H73.1826ZM69.8867 135.364C70.7949 135.364 71.5068 135.115 72.0225 134.617C72.5439 134.119 72.8047 133.422 72.8047 132.525V131.655L71.3457 131.717C70.1855 131.758 69.3477 131.939 68.832 132.261C68.3223 132.578 68.0674 133.073 68.0674 133.747C68.0674 134.274 68.2256 134.676 68.542 134.951C68.8643 135.226 69.3125 135.364 69.8867 135.364ZM78.7197 131.462C78.9717 131.104 79.3555 130.635 79.8711 130.055L82.9824 126.76H84.7139L80.8115 130.864L84.9863 136.392H83.2197L79.8184 131.84L78.7197 132.789V136.392H77.2783V122.717H78.7197V129.968C78.7197 130.29 78.6963 130.788 78.6494 131.462H78.7197ZM90.8047 136.568C89.3809 136.568 88.2559 136.135 87.4297 135.267C86.6094 134.4 86.1992 133.196 86.1992 131.655C86.1992 130.102 86.5801 128.869 87.3418 127.955C88.1094 127.041 89.1377 126.584 90.4268 126.584C91.6338 126.584 92.5889 126.982 93.292 127.779C93.9951 128.57 94.3467 129.616 94.3467 130.917V131.84H87.7109C87.7402 132.97 88.0244 133.829 88.5635 134.415C89.1084 135.001 89.873 135.294 90.8574 135.294C91.8945 135.294 92.9199 135.077 93.9336 134.643V135.944C93.418 136.167 92.9287 136.325 92.4658 136.419C92.0088 136.518 91.4551 136.568 90.8047 136.568ZM90.4092 127.805C89.6357 127.805 89.0176 128.057 88.5547 128.561C88.0977 129.065 87.8281 129.762 87.7461 130.653H92.7822C92.7822 129.733 92.5771 129.03 92.167 128.544C91.7568 128.052 91.1709 127.805 90.4092 127.805ZM103.435 136.392V130.161C103.435 129.376 103.256 128.79 102.898 128.403C102.541 128.016 101.981 127.823 101.22 127.823C100.206 127.823 99.4648 128.098 98.9961 128.649C98.5332 129.2 98.3018 130.102 98.3018 131.356V136.392H96.8428V122.717H98.3018V126.856C98.3018 127.354 98.2783 127.767 98.2314 128.095H98.3193C98.6064 127.633 99.0137 127.269 99.541 127.006C100.074 126.736 100.681 126.601 101.36 126.601C102.538 126.601 103.42 126.883 104.006 127.445C104.598 128.002 104.894 128.889 104.894 130.108V136.392H103.435ZM116.214 131.567C116.214 133.137 115.818 134.365 115.027 135.25C114.236 136.129 113.144 136.568 111.749 136.568C110.888 136.568 110.123 136.366 109.455 135.962C108.787 135.557 108.271 134.977 107.908 134.221C107.545 133.466 107.363 132.581 107.363 131.567C107.363 129.997 107.756 128.775 108.541 127.902C109.326 127.023 110.416 126.584 111.811 126.584C113.158 126.584 114.228 127.032 115.019 127.928C115.815 128.825 116.214 130.038 116.214 131.567ZM108.875 131.567C108.875 132.798 109.121 133.735 109.613 134.38C110.105 135.024 110.829 135.346 111.784 135.346C112.739 135.346 113.463 135.027 113.955 134.388C114.453 133.744 114.702 132.803 114.702 131.567C114.702 130.343 114.453 129.414 113.955 128.781C113.463 128.142 112.733 127.823 111.767 127.823C110.812 127.823 110.091 128.136 109.604 128.763C109.118 129.39 108.875 130.325 108.875 131.567ZM120.239 136.392H118.78V122.717H120.239V136.392ZM129.89 135.1H129.811C129.137 136.079 128.129 136.568 126.787 136.568C125.527 136.568 124.546 136.137 123.843 135.276C123.146 134.415 122.797 133.19 122.797 131.602C122.797 130.014 123.148 128.781 123.852 127.902C124.555 127.023 125.533 126.584 126.787 126.584C128.094 126.584 129.096 127.058 129.793 128.008H129.907L129.846 127.313L129.811 126.636V122.717H131.27V136.392H130.083L129.89 135.1ZM126.972 135.346C127.968 135.346 128.688 135.077 129.134 134.538C129.585 133.993 129.811 133.117 129.811 131.91V131.602C129.811 130.237 129.582 129.264 129.125 128.684C128.674 128.098 127.95 127.805 126.954 127.805C126.099 127.805 125.442 128.139 124.985 128.807C124.534 129.469 124.309 130.407 124.309 131.62C124.309 132.85 124.534 133.779 124.985 134.406C125.437 135.033 126.099 135.346 126.972 135.346ZM138.441 136.568C137.018 136.568 135.893 136.135 135.066 135.267C134.246 134.4 133.836 133.196 133.836 131.655C133.836 130.102 134.217 128.869 134.979 127.955C135.746 127.041 136.774 126.584 138.063 126.584C139.271 126.584 140.226 126.982 140.929 127.779C141.632 128.57 141.983 129.616 141.983 130.917V131.84H135.348C135.377 132.97 135.661 133.829 136.2 134.415C136.745 135.001 137.51 135.294 138.494 135.294C139.531 135.294 140.557 135.077 141.57 134.643V135.944C141.055 136.167 140.565 136.325 140.103 136.419C139.646 136.518 139.092 136.568 138.441 136.568ZM138.046 127.805C137.272 127.805 136.654 128.057 136.191 128.561C135.734 129.065 135.465 129.762 135.383 130.653H140.419C140.419 129.733 140.214 129.03 139.804 128.544C139.394 128.052 138.808 127.805 138.046 127.805ZM148.874 126.584C149.302 126.584 149.686 126.619 150.025 126.689L149.823 128.043C149.425 127.955 149.073 127.911 148.769 127.911C147.989 127.911 147.321 128.227 146.765 128.86C146.214 129.493 145.938 130.281 145.938 131.224V136.392H144.479V126.76H145.684L145.851 128.544H145.921C146.278 127.917 146.709 127.433 147.213 127.094C147.717 126.754 148.271 126.584 148.874 126.584ZM58.5488 161.392V148.543H60.043V161.392H58.5488ZM69.9482 161.392V155.161C69.9482 154.376 69.7695 153.79 69.4121 153.403C69.0547 153.016 68.4951 152.823 67.7334 152.823C66.7256 152.823 65.9873 153.095 65.5186 153.64C65.0498 154.185 64.8154 155.085 64.8154 156.339V161.392H63.3564V151.76H64.543L64.7803 153.078H64.8506C65.1494 152.603 65.5684 152.237 66.1074 151.979C66.6465 151.716 67.2471 151.584 67.9092 151.584C69.0693 151.584 69.9424 151.865 70.5283 152.427C71.1143 152.984 71.4072 153.878 71.4072 155.108V161.392H69.9482ZM77.5244 160.364C77.7822 160.364 78.0312 160.346 78.2715 160.311C78.5117 160.27 78.7021 160.229 78.8428 160.188V161.304C78.6846 161.381 78.4502 161.442 78.1396 161.489C77.835 161.542 77.5596 161.568 77.3135 161.568C75.4502 161.568 74.5186 160.587 74.5186 158.624V152.893H73.1387V152.19L74.5186 151.584L75.1338 149.527H75.9775V151.76H78.7725V152.893H75.9775V158.562C75.9775 159.142 76.1152 159.588 76.3906 159.898C76.666 160.209 77.0439 160.364 77.5244 160.364ZM84.8457 161.568C83.4219 161.568 82.2969 161.135 81.4707 160.267C80.6504 159.4 80.2402 158.196 80.2402 156.655C80.2402 155.102 80.6211 153.869 81.3828 152.955C82.1504 152.041 83.1787 151.584 84.4678 151.584C85.6748 151.584 86.6299 151.982 87.333 152.779C88.0361 153.57 88.3877 154.616 88.3877 155.917V156.84H81.752C81.7812 157.97 82.0654 158.829 82.6045 159.415C83.1494 160.001 83.9141 160.294 84.8984 160.294C85.9355 160.294 86.9609 160.077 87.9746 159.643V160.944C87.459 161.167 86.9697 161.325 86.5068 161.419C86.0498 161.518 85.4961 161.568 84.8457 161.568ZM84.4502 152.805C83.6768 152.805 83.0586 153.057 82.5957 153.561C82.1387 154.065 81.8691 154.762 81.7871 155.653H86.8232C86.8232 154.733 86.6182 154.03 86.208 153.544C85.7979 153.052 85.2119 152.805 84.4502 152.805ZM95.2783 151.584C95.7061 151.584 96.0898 151.619 96.4297 151.689L96.2275 153.043C95.8291 152.955 95.4775 152.911 95.1729 152.911C94.3936 152.911 93.7256 153.227 93.1689 153.86C92.6182 154.493 92.3428 155.281 92.3428 156.224V161.392H90.8838V151.76H92.0879L92.2549 153.544H92.3252C92.6826 152.917 93.1133 152.433 93.6172 152.094C94.1211 151.754 94.6748 151.584 95.2783 151.584ZM100.341 161.392L96.6846 151.76H98.249L100.323 157.472C100.792 158.808 101.067 159.676 101.149 160.074H101.22C101.284 159.763 101.486 159.122 101.826 158.149C102.172 157.171 102.942 155.041 104.138 151.76H105.702L102.046 161.392H100.341ZM108.708 161.392H107.249V151.76H108.708V161.392ZM107.126 149.149C107.126 148.815 107.208 148.572 107.372 148.42C107.536 148.261 107.741 148.182 107.987 148.182C108.222 148.182 108.424 148.261 108.594 148.42C108.764 148.578 108.849 148.821 108.849 149.149C108.849 149.477 108.764 149.723 108.594 149.887C108.424 150.046 108.222 150.125 107.987 150.125C107.741 150.125 107.536 150.046 107.372 149.887C107.208 149.723 107.126 149.477 107.126 149.149ZM115.871 161.568C114.447 161.568 113.322 161.135 112.496 160.267C111.676 159.4 111.266 158.196 111.266 156.655C111.266 155.102 111.646 153.869 112.408 152.955C113.176 152.041 114.204 151.584 115.493 151.584C116.7 151.584 117.655 151.982 118.358 152.779C119.062 153.57 119.413 154.616 119.413 155.917V156.84H112.777C112.807 157.97 113.091 158.829 113.63 159.415C114.175 160.001 114.939 160.294 115.924 160.294C116.961 160.294 117.986 160.077 119 159.643V160.944C118.484 161.167 117.995 161.325 117.532 161.419C117.075 161.518 116.521 161.568 115.871 161.568ZM115.476 152.805C114.702 152.805 114.084 153.057 113.621 153.561C113.164 154.065 112.895 154.762 112.812 155.653H117.849C117.849 154.733 117.644 154.03 117.233 153.544C116.823 153.052 116.237 152.805 115.476 152.805ZM129.775 161.392L128.009 155.741C127.897 155.395 127.689 154.61 127.385 153.385H127.314C127.08 154.411 126.875 155.202 126.699 155.759L124.88 161.392H123.192L120.564 151.76H122.094C122.715 154.179 123.187 156.022 123.509 157.288C123.837 158.553 124.024 159.406 124.071 159.845H124.142C124.206 159.511 124.309 159.081 124.449 158.553C124.596 158.02 124.722 157.598 124.827 157.288L126.594 151.76H128.176L129.898 157.288C130.227 158.296 130.449 159.142 130.566 159.828H130.637C130.66 159.617 130.722 159.292 130.821 158.852C130.927 158.413 131.539 156.049 132.658 151.76H134.17L131.507 161.392H129.775ZM142.133 158.764C142.133 159.661 141.799 160.352 141.131 160.839C140.463 161.325 139.525 161.568 138.318 161.568C137.041 161.568 136.045 161.366 135.33 160.962V159.608C135.793 159.843 136.288 160.027 136.815 160.162C137.349 160.297 137.861 160.364 138.354 160.364C139.115 160.364 139.701 160.244 140.111 160.004C140.521 159.758 140.727 159.385 140.727 158.887C140.727 158.512 140.562 158.193 140.234 157.929C139.912 157.66 139.279 157.344 138.336 156.98C137.439 156.646 136.801 156.356 136.42 156.11C136.045 155.858 135.764 155.574 135.576 155.258C135.395 154.941 135.304 154.563 135.304 154.124C135.304 153.339 135.623 152.72 136.262 152.269C136.9 151.812 137.776 151.584 138.89 151.584C139.927 151.584 140.94 151.795 141.931 152.217L141.412 153.403C140.445 153.005 139.569 152.805 138.784 152.805C138.093 152.805 137.571 152.914 137.22 153.131C136.868 153.347 136.692 153.646 136.692 154.027C136.692 154.285 136.757 154.505 136.886 154.686C137.021 154.868 137.234 155.041 137.527 155.205C137.82 155.369 138.383 155.606 139.215 155.917C140.357 156.333 141.128 156.752 141.526 157.174C141.931 157.595 142.133 158.126 142.133 158.764Z" fill="#626262"/>
</g>
<defs>
<filter id="filter0_d" x="0" y="0" width="200" height="200" filterUnits="userSpaceOnUse" color-interpolation-filters="sRGB">
<feFlood flood-opacity="0" result="BackgroundImageFix"/>
<feColorMatrix in="SourceAlpha" type="matrix" values="0 0 0 0 0 0 0 0 0 0 0 0 0 0 0 0 0 0 127 0"/>
<feOffset dy="4"/>
<feGaussianBlur stdDeviation="5"/>
<feColorMatrix type="matrix" values="0 0 0 0 0 0 0 0 0 0 0 0 0 0 0 0 0 0 0.06 0"/>
<feBlend mode="normal" in2="BackgroundImageFix" result="effect1_dropShadow"/>
<feBlend mode="normal" in="SourceGraphic" in2="effect1_dropShadow" result="shape"/>
</filter>
</defs>
</svg>
