<svg width="200" height="200" viewBox="0 0 200 200" fill="none" xmlns="http://www.w3.org/2000/svg">
<g filter="url(#filter0_d)">
<rect x="10" y="6" width="180" height="180" rx="7.50936" fill="white"/>
<path d="M65.8672 90.0469C65.8672 91.8359 65.2812 93.207 64.1094 94.1602C62.9375 95.1133 61.2695 95.5898 59.1055 95.5898H57.3242V102H54.5234V84.8672H59.457C61.5977 84.8672 63.1992 85.3047 64.2617 86.1797C65.332 87.0547 65.8672 88.3438 65.8672 90.0469ZM57.3242 93.2344H58.8125C60.25 93.2344 61.3047 92.9844 61.9766 92.4844C62.6484 91.9844 62.9844 91.2031 62.9844 90.1406C62.9844 89.1562 62.6836 88.4219 62.082 87.9375C61.4805 87.4531 60.543 87.2109 59.2695 87.2109H57.3242V93.2344ZM74.6562 102.234C72.6406 102.234 71.0625 101.648 69.9219 100.477C68.7891 99.2969 68.2227 97.6758 68.2227 95.6133C68.2227 93.4961 68.75 91.832 69.8047 90.6211C70.8594 89.4102 72.3086 88.8047 74.1523 88.8047C75.8633 88.8047 77.2148 89.3242 78.207 90.3633C79.1992 91.4023 79.6953 92.832 79.6953 94.6523V96.1406H71.0586C71.0977 97.3984 71.4375 98.3672 72.0781 99.0469C72.7188 99.7188 73.6211 100.055 74.7852 100.055C75.5508 100.055 76.2617 99.9844 76.918 99.8438C77.582 99.6953 78.293 99.4531 79.0508 99.1172V101.355C78.3789 101.676 77.6992 101.902 77.0117 102.035C76.3242 102.168 75.5391 102.234 74.6562 102.234ZM74.1523 90.8906C73.2773 90.8906 72.5742 91.168 72.043 91.7227C71.5195 92.2773 71.207 93.0859 71.1055 94.1484H76.9883C76.9727 93.0781 76.7148 92.2695 76.2148 91.7227C75.7148 91.168 75.0273 90.8906 74.1523 90.8906ZM89.3984 88.8047C89.9531 88.8047 90.4102 88.8438 90.7695 88.9219L90.5 91.4883C90.1094 91.3945 89.7031 91.3477 89.2812 91.3477C88.1797 91.3477 87.2852 91.707 86.5977 92.4258C85.918 93.1445 85.5781 94.0781 85.5781 95.2266V102H82.8242V89.0391H84.9805L85.3438 91.3242H85.4844C85.9141 90.5508 86.4727 89.9375 87.1602 89.4844C87.8555 89.0312 88.6016 88.8047 89.3984 88.8047ZM101.891 98.3086C101.891 99.5742 101.43 100.547 100.508 101.227C99.5859 101.898 98.2656 102.234 96.5469 102.234C94.8203 102.234 93.4336 101.973 92.3867 101.449V99.0703C93.9102 99.7734 95.3281 100.125 96.6406 100.125C98.3359 100.125 99.1836 99.6133 99.1836 98.5898C99.1836 98.2617 99.0898 97.9883 98.9023 97.7695C98.7148 97.5508 98.4062 97.3242 97.9766 97.0898C97.5469 96.8555 96.9492 96.5898 96.1836 96.293C94.6914 95.7148 93.6797 95.1367 93.1484 94.5586C92.625 93.9805 92.3633 93.2305 92.3633 92.3086C92.3633 91.1992 92.8086 90.3398 93.6992 89.7305C94.5977 89.1133 95.8164 88.8047 97.3555 88.8047C98.8789 88.8047 100.32 89.1133 101.68 89.7305L100.789 91.8047C99.3906 91.2266 98.2148 90.9375 97.2617 90.9375C95.8086 90.9375 95.082 91.3516 95.082 92.1797C95.082 92.5859 95.2695 92.9297 95.6445 93.2109C96.0273 93.4922 96.8555 93.8789 98.1289 94.3711C99.1992 94.7852 99.9766 95.1641 100.461 95.5078C100.945 95.8516 101.305 96.25 101.539 96.7031C101.773 97.1484 101.891 97.6836 101.891 98.3086ZM116.375 95.4961C116.375 97.6133 115.832 99.2656 114.746 100.453C113.66 101.641 112.148 102.234 110.211 102.234C109 102.234 107.93 101.961 107 101.414C106.07 100.867 105.355 100.082 104.855 99.0586C104.355 98.0352 104.105 96.8477 104.105 95.4961C104.105 93.3945 104.645 91.7539 105.723 90.5742C106.801 89.3945 108.32 88.8047 110.281 88.8047C112.156 88.8047 113.641 89.4102 114.734 90.6211C115.828 91.8242 116.375 93.4492 116.375 95.4961ZM106.941 95.4961C106.941 98.4883 108.047 99.9844 110.258 99.9844C112.445 99.9844 113.539 98.4883 113.539 95.4961C113.539 92.5352 112.438 91.0547 110.234 91.0547C109.078 91.0547 108.238 91.4375 107.715 92.2031C107.199 92.9688 106.941 94.0664 106.941 95.4961ZM130.953 102H128.188V94.0312C128.188 93.0312 127.984 92.2852 127.578 91.793C127.18 91.3008 126.543 91.0547 125.668 91.0547C124.504 91.0547 123.652 91.3984 123.113 92.0859C122.574 92.7734 122.305 93.9258 122.305 95.543V102H119.551V89.0391H121.707L122.094 90.7383H122.234C122.625 90.1211 123.18 89.6445 123.898 89.3086C124.617 88.9727 125.414 88.8047 126.289 88.8047C129.398 88.8047 130.953 90.3867 130.953 93.5508V102ZM142.895 102L142.344 100.195H142.25C141.625 100.984 140.996 101.523 140.363 101.812C139.73 102.094 138.918 102.234 137.926 102.234C136.652 102.234 135.656 101.891 134.938 101.203C134.227 100.516 133.871 99.543 133.871 98.2852C133.871 96.9492 134.367 95.9414 135.359 95.2617C136.352 94.582 137.863 94.2109 139.895 94.1484L142.133 94.0781V93.3867C142.133 92.5586 141.938 91.9414 141.547 91.5352C141.164 91.1211 140.566 90.9141 139.754 90.9141C139.09 90.9141 138.453 91.0117 137.844 91.207C137.234 91.4023 136.648 91.6328 136.086 91.8984L135.195 89.9297C135.898 89.5625 136.668 89.2852 137.504 89.0977C138.34 88.9023 139.129 88.8047 139.871 88.8047C141.52 88.8047 142.762 89.1641 143.598 89.8828C144.441 90.6016 144.863 91.7305 144.863 93.2695V102H142.895ZM138.793 100.125C139.793 100.125 140.594 99.8477 141.195 99.293C141.805 98.7305 142.109 97.9453 142.109 96.9375V95.8125L140.445 95.8828C139.148 95.9297 138.203 96.1484 137.609 96.5391C137.023 96.9219 136.73 97.5117 136.73 98.3086C136.73 98.8867 136.902 99.3359 137.246 99.6562C137.59 99.9688 138.105 100.125 138.793 100.125Z" fill="#7F8499"/>
</g>
<defs>
<filter id="filter0_d" x="0" y="0" width="200" height="200" filterUnits="userSpaceOnUse" color-interpolation-filters="sRGB">
<feFlood flood-opacity="0" result="BackgroundImageFix"/>
<feColorMatrix in="SourceAlpha" type="matrix" values="0 0 0 0 0 0 0 0 0 0 0 0 0 0 0 0 0 0 127 0"/>
<feOffset dy="4"/>
<feGaussianBlur stdDeviation="5"/>
<feColorMatrix type="matrix" values="0 0 0 0 0 0 0 0 0 0 0 0 0 0 0 0 0 0 0.06 0"/>
<feBlend mode="normal" in2="BackgroundImageFix" result="effect1_dropShadow"/>
<feBlend mode="normal" in="SourceGraphic" in2="effect1_dropShadow" result="shape"/>
</filter>
</defs>
</svg>
