<svg width="200" height="200" viewBox="0 0 200 200" fill="none" xmlns="http://www.w3.org/2000/svg">
<g filter="url(#filter0_d)">
<rect x="10" y="6" width="180" height="180" rx="7.50936" fill="white"/>
<path d="M60.625 71.3477C60.625 72.8711 60.0742 74.0664 58.9727 74.9336C57.8711 75.8008 56.3516 76.2344 54.4141 76.2344C52.4766 76.2344 50.8906 75.9336 49.6562 75.332V72.6836C50.4375 73.0508 51.2656 73.3398 52.1406 73.5508C53.0234 73.7617 53.8438 73.8672 54.6016 73.8672C55.7109 73.8672 56.5273 73.6562 57.0508 73.2344C57.582 72.8125 57.8477 72.2461 57.8477 71.5352C57.8477 70.8945 57.6055 70.3516 57.1211 69.9062C56.6367 69.4609 55.6367 68.9336 54.1211 68.3242C52.5586 67.6914 51.457 66.9688 50.8164 66.1562C50.1758 65.3438 49.8555 64.3672 49.8555 63.2266C49.8555 61.7969 50.3633 60.6719 51.3789 59.8516C52.3945 59.0312 53.7578 58.6211 55.4688 58.6211C57.1094 58.6211 58.7422 58.9805 60.3672 59.6992L59.4766 61.9844C57.9531 61.3438 56.5938 61.0234 55.3984 61.0234C54.4922 61.0234 53.8047 61.2227 53.3359 61.6211C52.8672 62.0117 52.6328 62.5312 52.6328 63.1797C52.6328 63.625 52.7266 64.0078 52.9141 64.3281C53.1016 64.6406 53.4102 64.9375 53.8398 65.2188C54.2695 65.5 55.043 65.8711 56.1602 66.332C57.418 66.8555 58.3398 67.3438 58.9258 67.7969C59.5117 68.25 59.9414 68.7617 60.2148 69.332C60.4883 69.9023 60.625 70.5742 60.625 71.3477ZM68.4766 74.0078C69.1484 74.0078 69.8203 73.9023 70.4922 73.6914V75.7656C70.1875 75.8984 69.793 76.0078 69.3086 76.0938C68.832 76.1875 68.3359 76.2344 67.8203 76.2344C65.2109 76.2344 63.9062 74.8594 63.9062 72.1094V65.125H62.1367V63.9062L64.0352 62.8984L64.9727 60.1562H66.6719V63.0391H70.3633V65.125H66.6719V72.0625C66.6719 72.7266 66.8359 73.2188 67.1641 73.5391C67.5 73.8516 67.9375 74.0078 68.4766 74.0078ZM82.2344 76L81.8477 74.3008H81.707C81.3242 74.9023 80.7773 75.375 80.0664 75.7188C79.3633 76.0625 78.5586 76.2344 77.6523 76.2344C76.082 76.2344 74.9102 75.8438 74.1367 75.0625C73.3633 74.2812 72.9766 73.0977 72.9766 71.5117V63.0391H75.7539V71.0312C75.7539 72.0234 75.957 72.7695 76.3633 73.2695C76.7695 73.7617 77.4062 74.0078 78.2734 74.0078C79.4297 74.0078 80.2773 73.6641 80.8164 72.9766C81.3633 72.2812 81.6367 71.1211 81.6367 69.4961V63.0391H84.4023V76H82.2344ZM92.6992 76.2344C91.082 76.2344 89.8203 75.6484 88.9141 74.4766C88.0078 73.3047 87.5547 71.6602 87.5547 69.543C87.5547 67.418 88.0117 65.7656 88.9258 64.5859C89.8477 63.3984 91.1211 62.8047 92.7461 62.8047C94.4492 62.8047 95.7461 63.4336 96.6367 64.6914H96.7773C96.6445 63.7617 96.5781 63.0273 96.5781 62.4883V57.7656H99.3438V76H97.1875L96.707 74.3008H96.5781C95.6953 75.5898 94.4023 76.2344 92.6992 76.2344ZM93.4375 74.0078C94.5703 74.0078 95.3945 73.6914 95.9102 73.0586C96.4258 72.418 96.6914 71.3828 96.707 69.9531V69.5664C96.707 67.9336 96.4414 66.7734 95.9102 66.0859C95.3789 65.3984 94.5469 65.0547 93.4141 65.0547C92.4453 65.0547 91.6992 65.4492 91.1758 66.2383C90.6523 67.0195 90.3906 68.1367 90.3906 69.5898C90.3906 71.0273 90.6445 72.125 91.1523 72.8828C91.6602 73.6328 92.4219 74.0078 93.4375 74.0078ZM108.941 76.2344C106.926 76.2344 105.348 75.6484 104.207 74.4766C103.074 73.2969 102.508 71.6758 102.508 69.6133C102.508 67.4961 103.035 65.832 104.09 64.6211C105.145 63.4102 106.594 62.8047 108.438 62.8047C110.148 62.8047 111.5 63.3242 112.492 64.3633C113.484 65.4023 113.98 66.832 113.98 68.6523V70.1406H105.344C105.383 71.3984 105.723 72.3672 106.363 73.0469C107.004 73.7188 107.906 74.0547 109.07 74.0547C109.836 74.0547 110.547 73.9844 111.203 73.8438C111.867 73.6953 112.578 73.4531 113.336 73.1172V75.3555C112.664 75.6758 111.984 75.9023 111.297 76.0352C110.609 76.168 109.824 76.2344 108.941 76.2344ZM108.438 64.8906C107.562 64.8906 106.859 65.168 106.328 65.7227C105.805 66.2773 105.492 67.0859 105.391 68.1484H111.273C111.258 67.0781 111 66.2695 110.5 65.7227C110 65.168 109.312 64.8906 108.438 64.8906ZM128.512 76H125.746V68.0312C125.746 67.0312 125.543 66.2852 125.137 65.793C124.738 65.3008 124.102 65.0547 123.227 65.0547C122.062 65.0547 121.211 65.3984 120.672 66.0859C120.133 66.7734 119.863 67.9258 119.863 69.543V76H117.109V63.0391H119.266L119.652 64.7383H119.793C120.184 64.1211 120.738 63.6445 121.457 63.3086C122.176 62.9727 122.973 62.8047 123.848 62.8047C126.957 62.8047 128.512 64.3867 128.512 67.5508V76ZM137.172 74.0078C137.844 74.0078 138.516 73.9023 139.188 73.6914V75.7656C138.883 75.8984 138.488 76.0078 138.004 76.0938C137.527 76.1875 137.031 76.2344 136.516 76.2344C133.906 76.2344 132.602 74.8594 132.602 72.1094V65.125H130.832V63.9062L132.73 62.8984L133.668 60.1562H135.367V63.0391H139.059V65.125H135.367V72.0625C135.367 72.7266 135.531 73.2188 135.859 73.5391C136.195 73.8516 136.633 74.0078 137.172 74.0078ZM150.496 72.3086C150.496 73.5742 150.035 74.5469 149.113 75.2266C148.191 75.8984 146.871 76.2344 145.152 76.2344C143.426 76.2344 142.039 75.9727 140.992 75.4492V73.0703C142.516 73.7734 143.934 74.125 145.246 74.125C146.941 74.125 147.789 73.6133 147.789 72.5898C147.789 72.2617 147.695 71.9883 147.508 71.7695C147.32 71.5508 147.012 71.3242 146.582 71.0898C146.152 70.8555 145.555 70.5898 144.789 70.293C143.297 69.7148 142.285 69.1367 141.754 68.5586C141.23 67.9805 140.969 67.2305 140.969 66.3086C140.969 65.1992 141.414 64.3398 142.305 63.7305C143.203 63.1133 144.422 62.8047 145.961 62.8047C147.484 62.8047 148.926 63.1133 150.285 63.7305L149.395 65.8047C147.996 65.2266 146.82 64.9375 145.867 64.9375C144.414 64.9375 143.688 65.3516 143.688 66.1797C143.688 66.5859 143.875 66.9297 144.25 67.2109C144.633 67.4922 145.461 67.8789 146.734 68.3711C147.805 68.7852 148.582 69.1641 149.066 69.5078C149.551 69.8516 149.91 70.25 150.145 70.7031C150.379 71.1484 150.496 71.6836 150.496 72.3086ZM81.6016 109H78.8477V90.7656H81.6016V109ZM93.6602 109L93.1094 107.195H93.0156C92.3906 107.984 91.7617 108.523 91.1289 108.812C90.4961 109.094 89.6836 109.234 88.6914 109.234C87.418 109.234 86.4219 108.891 85.7031 108.203C84.9922 107.516 84.6367 106.543 84.6367 105.285C84.6367 103.949 85.1328 102.941 86.125 102.262C87.1172 101.582 88.6289 101.211 90.6602 101.148L92.8984 101.078V100.387C92.8984 99.5586 92.7031 98.9414 92.3125 98.5352C91.9297 98.1211 91.332 97.9141 90.5195 97.9141C89.8555 97.9141 89.2188 98.0117 88.6094 98.207C88 98.4023 87.4141 98.6328 86.8516 98.8984L85.9609 96.9297C86.6641 96.5625 87.4336 96.2852 88.2695 96.0977C89.1055 95.9023 89.8945 95.8047 90.6367 95.8047C92.2852 95.8047 93.5273 96.1641 94.3633 96.8828C95.207 97.6016 95.6289 98.7305 95.6289 100.27V109H93.6602ZM89.5586 107.125C90.5586 107.125 91.3594 106.848 91.9609 106.293C92.5703 105.73 92.875 104.945 92.875 103.938V102.812L91.2109 102.883C89.9141 102.93 88.9688 103.148 88.375 103.539C87.7891 103.922 87.4961 104.512 87.4961 105.309C87.4961 105.887 87.668 106.336 88.0117 106.656C88.3555 106.969 88.8711 107.125 89.5586 107.125ZM104.699 109.234C102.738 109.234 101.246 108.664 100.223 107.523C99.207 106.375 98.6992 104.73 98.6992 102.59C98.6992 100.41 99.2305 98.7344 100.293 97.5625C101.363 96.3906 102.906 95.8047 104.922 95.8047C106.289 95.8047 107.52 96.0586 108.613 96.5664L107.781 98.7812C106.617 98.3281 105.656 98.1016 104.898 98.1016C102.656 98.1016 101.535 99.5898 101.535 102.566C101.535 104.02 101.812 105.113 102.367 105.848C102.93 106.574 103.75 106.938 104.828 106.938C106.055 106.938 107.215 106.633 108.309 106.023V108.426C107.816 108.715 107.289 108.922 106.727 109.047C106.172 109.172 105.496 109.234 104.699 109.234ZM114.016 102.156L115.574 100.211L119.488 96.0391H122.664L117.449 101.605L122.992 109H119.758L115.598 103.316L114.086 104.559V109H111.355V90.7656H114.086V99.6602L113.945 102.156H114.016ZM49.5977 142H46.832V134.008C46.832 133.016 46.6445 132.277 46.2695 131.793C45.8945 131.301 45.3086 131.055 44.5117 131.055C43.4492 131.055 42.668 131.402 42.168 132.098C41.6758 132.785 41.4297 133.934 41.4297 135.543V142H38.6758V129.039H40.832L41.2188 130.738H41.3594C41.7188 130.121 42.2383 129.645 42.918 129.309C43.6055 128.973 44.3594 128.805 45.1797 128.805C47.1719 128.805 48.4922 129.484 49.1406 130.844H49.3281C49.7109 130.203 50.25 129.703 50.9453 129.344C51.6406 128.984 52.4375 128.805 53.3359 128.805C54.8828 128.805 56.0078 129.195 56.7109 129.977C57.4219 130.758 57.7773 131.949 57.7773 133.551V142H55.0234V134.008C55.0234 133.016 54.832 132.277 54.4492 131.793C54.0742 131.301 53.4883 131.055 52.6914 131.055C51.6211 131.055 50.8359 131.391 50.3359 132.062C49.8438 132.727 49.5977 133.75 49.5977 135.133V142ZM73.1172 135.496C73.1172 137.613 72.5742 139.266 71.4883 140.453C70.4023 141.641 68.8906 142.234 66.9531 142.234C65.7422 142.234 64.6719 141.961 63.7422 141.414C62.8125 140.867 62.0977 140.082 61.5977 139.059C61.0977 138.035 60.8477 136.848 60.8477 135.496C60.8477 133.395 61.3867 131.754 62.4648 130.574C63.543 129.395 65.0625 128.805 67.0234 128.805C68.8984 128.805 70.3828 129.41 71.4766 130.621C72.5703 131.824 73.1172 133.449 73.1172 135.496ZM63.6836 135.496C63.6836 138.488 64.7891 139.984 67 139.984C69.1875 139.984 70.2812 138.488 70.2812 135.496C70.2812 132.535 69.1797 131.055 66.9766 131.055C65.8203 131.055 64.9805 131.438 64.457 132.203C63.9414 132.969 63.6836 134.066 63.6836 135.496ZM81.1211 140.008C81.793 140.008 82.4648 139.902 83.1367 139.691V141.766C82.832 141.898 82.4375 142.008 81.9531 142.094C81.4766 142.188 80.9805 142.234 80.4648 142.234C77.8555 142.234 76.5508 140.859 76.5508 138.109V131.125H74.7812V129.906L76.6797 128.898L77.6172 126.156H79.3164V129.039H83.0078V131.125H79.3164V138.062C79.3164 138.727 79.4805 139.219 79.8086 139.539C80.1445 139.852 80.582 140.008 81.1211 140.008ZM88.4922 142H85.7383V129.039H88.4922V142ZM85.5742 125.605C85.5742 125.113 85.707 124.734 85.9727 124.469C86.2461 124.203 86.6328 124.07 87.1328 124.07C87.6172 124.07 87.9922 124.203 88.2578 124.469C88.5312 124.734 88.668 125.113 88.668 125.605C88.668 126.074 88.5312 126.445 88.2578 126.719C87.9922 126.984 87.6172 127.117 87.1328 127.117C86.6328 127.117 86.2461 126.984 85.9727 126.719C85.707 126.445 85.5742 126.074 85.5742 125.605ZM95.3945 142L90.4727 129.039H93.3789L96.0156 136.574C96.4688 137.84 96.7422 138.863 96.8359 139.645H96.9297C97 139.082 97.2734 138.059 97.75 136.574L100.387 129.039H103.316L98.3711 142H95.3945ZM113.395 142L112.844 140.195H112.75C112.125 140.984 111.496 141.523 110.863 141.812C110.23 142.094 109.418 142.234 108.426 142.234C107.152 142.234 106.156 141.891 105.438 141.203C104.727 140.516 104.371 139.543 104.371 138.285C104.371 136.949 104.867 135.941 105.859 135.262C106.852 134.582 108.363 134.211 110.395 134.148L112.633 134.078V133.387C112.633 132.559 112.438 131.941 112.047 131.535C111.664 131.121 111.066 130.914 110.254 130.914C109.59 130.914 108.953 131.012 108.344 131.207C107.734 131.402 107.148 131.633 106.586 131.898L105.695 129.93C106.398 129.562 107.168 129.285 108.004 129.098C108.84 128.902 109.629 128.805 110.371 128.805C112.02 128.805 113.262 129.164 114.098 129.883C114.941 130.602 115.363 131.73 115.363 133.27V142H113.395ZM109.293 140.125C110.293 140.125 111.094 139.848 111.695 139.293C112.305 138.73 112.609 137.945 112.609 136.938V135.812L110.945 135.883C109.648 135.93 108.703 136.148 108.109 136.539C107.523 136.922 107.23 137.512 107.23 138.309C107.23 138.887 107.402 139.336 107.746 139.656C108.09 139.969 108.605 140.125 109.293 140.125ZM124.035 140.008C124.707 140.008 125.379 139.902 126.051 139.691V141.766C125.746 141.898 125.352 142.008 124.867 142.094C124.391 142.188 123.895 142.234 123.379 142.234C120.77 142.234 119.465 140.859 119.465 138.109V131.125H117.695V129.906L119.594 128.898L120.531 126.156H122.23V129.039H125.922V131.125H122.23V138.062C122.23 138.727 122.395 139.219 122.723 139.539C123.059 139.852 123.496 140.008 124.035 140.008ZM131.406 142H128.652V129.039H131.406V142ZM128.488 125.605C128.488 125.113 128.621 124.734 128.887 124.469C129.16 124.203 129.547 124.07 130.047 124.07C130.531 124.07 130.906 124.203 131.172 124.469C131.445 124.734 131.582 125.113 131.582 125.605C131.582 126.074 131.445 126.445 131.172 126.719C130.906 126.984 130.531 127.117 130.047 127.117C129.547 127.117 129.16 126.984 128.887 126.719C128.621 126.445 128.488 126.074 128.488 125.605ZM146.852 135.496C146.852 137.613 146.309 139.266 145.223 140.453C144.137 141.641 142.625 142.234 140.688 142.234C139.477 142.234 138.406 141.961 137.477 141.414C136.547 140.867 135.832 140.082 135.332 139.059C134.832 138.035 134.582 136.848 134.582 135.496C134.582 133.395 135.121 131.754 136.199 130.574C137.277 129.395 138.797 128.805 140.758 128.805C142.633 128.805 144.117 129.41 145.211 130.621C146.305 131.824 146.852 133.449 146.852 135.496ZM137.418 135.496C137.418 138.488 138.523 139.984 140.734 139.984C142.922 139.984 144.016 138.488 144.016 135.496C144.016 132.535 142.914 131.055 140.711 131.055C139.555 131.055 138.715 131.438 138.191 132.203C137.676 132.969 137.418 134.066 137.418 135.496ZM161.43 142H158.664V134.031C158.664 133.031 158.461 132.285 158.055 131.793C157.656 131.301 157.02 131.055 156.145 131.055C154.98 131.055 154.129 131.398 153.59 132.086C153.051 132.773 152.781 133.926 152.781 135.543V142H150.027V129.039H152.184L152.57 130.738H152.711C153.102 130.121 153.656 129.645 154.375 129.309C155.094 128.973 155.891 128.805 156.766 128.805C159.875 128.805 161.43 130.387 161.43 133.551V142Z" fill="#7F8499"/>
</g>
<defs>
<filter id="filter0_d" x="0" y="0" width="200" height="200" filterUnits="userSpaceOnUse" color-interpolation-filters="sRGB">
<feFlood flood-opacity="0" result="BackgroundImageFix"/>
<feColorMatrix in="SourceAlpha" type="matrix" values="0 0 0 0 0 0 0 0 0 0 0 0 0 0 0 0 0 0 127 0"/>
<feOffset dy="4"/>
<feGaussianBlur stdDeviation="5"/>
<feColorMatrix type="matrix" values="0 0 0 0 0 0 0 0 0 0 0 0 0 0 0 0 0 0 0.06 0"/>
<feBlend mode="normal" in2="BackgroundImageFix" result="effect1_dropShadow"/>
<feBlend mode="normal" in="SourceGraphic" in2="effect1_dropShadow" result="shape"/>
</filter>
</defs>
</svg>
