<svg width="21" height="44" viewBox="0 0 21 44" fill="none" xmlns="http://www.w3.org/2000/svg">
<path d="M0.900397 6.59846L12.8946 21.6756L0.900397 36.7528C0.614936 37.1116 0.388495 37.5376 0.234005 38.0065C0.0795144 38.4753 3.00782e-09 38.9778 0 39.4853C-3.00782e-09 39.9927 0.0795144 40.4953 0.234005 40.9641C0.388495 41.4329 0.614936 41.8589 0.900397 42.2178C1.18586 42.5766 1.52475 42.8613 1.89772 43.0555C2.2707 43.2497 2.67045 43.3496 3.07415 43.3496C3.47785 43.3496 3.8776 43.2497 4.25058 43.0555C4.62355 42.8613 4.96244 42.5766 5.2479 42.2178L19.4004 24.4275C19.6863 24.0689 19.913 23.643 20.0678 23.1741C20.2225 22.7053 20.3021 22.2026 20.3021 21.695C20.3021 21.1874 20.2225 20.6848 20.0678 20.2159C19.913 19.747 19.6863 19.3211 19.4004 18.9625L5.2479 1.13348C4.96265 0.774168 4.62383 0.489107 4.25083 0.29461C3.87782 0.100113 3.47797 0 3.07415 0C2.67033 0 2.27047 0.100113 1.89747 0.29461C1.52447 0.489107 1.18565 0.774168 0.900397 1.13348C-0.271271 2.64507 -0.271271 5.12563 0.900397 6.59846Z" fill="#E6E6E6"/>
</svg>
