<svg width="210" height="210" viewBox="0 0 210 210" fill="none" xmlns="http://www.w3.org/2000/svg">
<g filter="url(#filter0_d)">
<rect x="15" y="11" width="180" height="180" rx="7.50936" fill="white"/>
<path d="M116.5 85H93.2734V80.8281L102.109 71.9453C104.719 69.2734 106.445 67.3828 107.289 66.2734C108.148 65.1484 108.773 64.0938 109.164 63.1094C109.555 62.125 109.75 61.0703 109.75 59.9453C109.75 58.3984 109.281 57.1797 108.344 56.2891C107.422 55.3984 106.141 54.9531 104.5 54.9531C103.188 54.9531 101.914 55.1953 100.68 55.6797C99.4609 56.1641 98.0469 57.0391 96.4375 58.3047L93.4609 54.6719C95.3672 53.0625 97.2188 51.9219 99.0156 51.25C100.812 50.5781 102.727 50.2422 104.758 50.2422C107.945 50.2422 110.5 51.0781 112.422 52.75C114.344 54.4062 115.305 56.6406 115.305 59.4531C115.305 61 115.023 62.4688 114.461 63.8594C113.914 65.25 113.062 66.6875 111.906 68.1719C110.766 69.6406 108.859 71.6328 106.188 74.1484L100.234 79.9141V80.1484H116.5V85Z" fill="#7F8499"/>
<path d="M83.1299 141H81.6357V129.478H77.5664V128.15H87.1992V129.478H83.1299V141ZM92.9912 141.176C91.5674 141.176 90.4424 140.742 89.6162 139.875C88.7959 139.008 88.3857 137.804 88.3857 136.263C88.3857 134.71 88.7666 133.477 89.5283 132.562C90.2959 131.648 91.3242 131.191 92.6133 131.191C93.8203 131.191 94.7754 131.59 95.4785 132.387C96.1816 133.178 96.5332 134.224 96.5332 135.524V136.447H89.8975C89.9268 137.578 90.2109 138.437 90.75 139.022C91.2949 139.608 92.0596 139.901 93.0439 139.901C94.0811 139.901 95.1064 139.685 96.1201 139.251V140.552C95.6045 140.774 95.1152 140.933 94.6523 141.026C94.1953 141.126 93.6416 141.176 92.9912 141.176ZM92.5957 132.413C91.8223 132.413 91.2041 132.665 90.7412 133.169C90.2842 133.673 90.0146 134.37 89.9326 135.261H94.9688C94.9688 134.341 94.7637 133.638 94.3535 133.151C93.9434 132.659 93.3574 132.413 92.5957 132.413ZM104.953 141L104.663 139.629H104.593C104.112 140.232 103.632 140.643 103.151 140.859C102.677 141.07 102.082 141.176 101.367 141.176C100.412 141.176 99.6621 140.93 99.1172 140.438C98.5781 139.945 98.3086 139.245 98.3086 138.337C98.3086 136.392 99.8643 135.372 102.976 135.278L104.61 135.226V134.628C104.61 133.872 104.446 133.315 104.118 132.958C103.796 132.595 103.277 132.413 102.562 132.413C101.76 132.413 100.852 132.659 99.8379 133.151L99.3896 132.035C99.8643 131.777 100.383 131.575 100.945 131.429C101.514 131.282 102.082 131.209 102.65 131.209C103.799 131.209 104.648 131.464 105.199 131.974C105.756 132.483 106.034 133.301 106.034 134.426V141H104.953ZM101.657 139.972C102.565 139.972 103.277 139.723 103.793 139.225C104.314 138.727 104.575 138.029 104.575 137.133V136.263L103.116 136.324C101.956 136.365 101.118 136.547 100.603 136.869C100.093 137.186 99.8379 137.681 99.8379 138.354C99.8379 138.882 99.9961 139.283 100.312 139.559C100.635 139.834 101.083 139.972 101.657 139.972ZM112.898 141.176C111.504 141.176 110.423 140.748 109.655 139.893C108.894 139.031 108.513 137.815 108.513 136.245C108.513 134.634 108.899 133.389 109.673 132.51C110.452 131.631 111.56 131.191 112.995 131.191C113.458 131.191 113.921 131.241 114.384 131.341C114.847 131.44 115.21 131.558 115.474 131.692L115.025 132.932C114.703 132.803 114.352 132.697 113.971 132.615C113.59 132.527 113.253 132.483 112.96 132.483C111.003 132.483 110.024 133.731 110.024 136.228C110.024 137.411 110.262 138.319 110.736 138.952C111.217 139.585 111.926 139.901 112.863 139.901C113.666 139.901 114.489 139.729 115.333 139.383V140.675C114.688 141.009 113.877 141.176 112.898 141.176ZM124.219 141V134.769C124.219 133.983 124.04 133.397 123.683 133.011C123.325 132.624 122.766 132.431 122.004 132.431C120.99 132.431 120.249 132.706 119.78 133.257C119.317 133.808 119.086 134.71 119.086 135.964V141H117.627V127.324H119.086V131.464C119.086 131.962 119.062 132.375 119.016 132.703H119.104C119.391 132.24 119.798 131.877 120.325 131.613C120.858 131.344 121.465 131.209 122.145 131.209C123.322 131.209 124.204 131.49 124.79 132.053C125.382 132.609 125.678 133.497 125.678 134.716V141H124.219ZM132.753 141.176C131.329 141.176 130.204 140.742 129.378 139.875C128.558 139.008 128.147 137.804 128.147 136.263C128.147 134.71 128.528 133.477 129.29 132.562C130.058 131.648 131.086 131.191 132.375 131.191C133.582 131.191 134.537 131.59 135.24 132.387C135.943 133.178 136.295 134.224 136.295 135.524V136.447H129.659C129.688 137.578 129.973 138.437 130.512 139.022C131.057 139.608 131.821 139.901 132.806 139.901C133.843 139.901 134.868 139.685 135.882 139.251V140.552C135.366 140.774 134.877 140.933 134.414 141.026C133.957 141.126 133.403 141.176 132.753 141.176ZM132.357 132.413C131.584 132.413 130.966 132.665 130.503 133.169C130.046 133.673 129.776 134.37 129.694 135.261H134.73C134.73 134.341 134.525 133.638 134.115 133.151C133.705 132.659 133.119 132.413 132.357 132.413ZM143.186 131.191C143.613 131.191 143.997 131.227 144.337 131.297L144.135 132.65C143.736 132.562 143.385 132.519 143.08 132.519C142.301 132.519 141.633 132.835 141.076 133.468C140.525 134.101 140.25 134.889 140.25 135.832V141H138.791V131.367H139.995L140.162 133.151H140.232C140.59 132.524 141.021 132.041 141.524 131.701C142.028 131.361 142.582 131.191 143.186 131.191ZM69.6738 166V153.15H71.168V166H69.6738ZM81.0732 166V159.769C81.0732 158.983 80.8945 158.397 80.5371 158.011C80.1797 157.624 79.6201 157.431 78.8584 157.431C77.8506 157.431 77.1123 157.703 76.6436 158.248C76.1748 158.793 75.9404 159.692 75.9404 160.946V166H74.4814V156.367H75.668L75.9053 157.686H75.9756C76.2744 157.211 76.6934 156.845 77.2324 156.587C77.7715 156.323 78.3721 156.191 79.0342 156.191C80.1943 156.191 81.0674 156.473 81.6533 157.035C82.2393 157.592 82.5322 158.485 82.5322 159.716V166H81.0732ZM88.6494 164.972C88.9072 164.972 89.1562 164.954 89.3965 164.919C89.6367 164.878 89.8271 164.837 89.9678 164.796V165.912C89.8096 165.988 89.5752 166.05 89.2646 166.097C88.96 166.149 88.6846 166.176 88.4385 166.176C86.5752 166.176 85.6436 165.194 85.6436 163.231V157.501H84.2637V156.798L85.6436 156.191L86.2588 154.135H87.1025V156.367H89.8975V157.501H87.1025V163.17C87.1025 163.75 87.2402 164.195 87.5156 164.506C87.791 164.816 88.1689 164.972 88.6494 164.972ZM95.9707 166.176C94.5469 166.176 93.4219 165.742 92.5957 164.875C91.7754 164.008 91.3652 162.804 91.3652 161.263C91.3652 159.71 91.7461 158.477 92.5078 157.562C93.2754 156.648 94.3037 156.191 95.5928 156.191C96.7998 156.191 97.7549 156.59 98.458 157.387C99.1611 158.178 99.5127 159.224 99.5127 160.524V161.447H92.877C92.9062 162.578 93.1904 163.437 93.7295 164.022C94.2744 164.608 95.0391 164.901 96.0234 164.901C97.0605 164.901 98.0859 164.685 99.0996 164.251V165.552C98.584 165.774 98.0947 165.933 97.6318 166.026C97.1748 166.126 96.6211 166.176 95.9707 166.176ZM95.5752 157.413C94.8018 157.413 94.1836 157.665 93.7207 158.169C93.2637 158.673 92.9941 159.37 92.9121 160.261H97.9482C97.9482 159.341 97.7432 158.638 97.333 158.151C96.9229 157.659 96.3369 157.413 95.5752 157.413ZM106.403 156.191C106.831 156.191 107.215 156.227 107.555 156.297L107.353 157.65C106.954 157.562 106.603 157.519 106.298 157.519C105.519 157.519 104.851 157.835 104.294 158.468C103.743 159.101 103.468 159.889 103.468 160.832V166H102.009V156.367H103.213L103.38 158.151H103.45C103.808 157.524 104.238 157.041 104.742 156.701C105.246 156.361 105.8 156.191 106.403 156.191ZM111.466 166L107.81 156.367H109.374L111.448 162.08C111.917 163.416 112.192 164.283 112.274 164.682H112.345C112.409 164.371 112.611 163.729 112.951 162.757C113.297 161.778 114.067 159.648 115.263 156.367H116.827L113.171 166H111.466ZM119.833 166H118.374V156.367H119.833V166ZM118.251 153.757C118.251 153.423 118.333 153.18 118.497 153.027C118.661 152.869 118.866 152.79 119.112 152.79C119.347 152.79 119.549 152.869 119.719 153.027C119.889 153.186 119.974 153.429 119.974 153.757C119.974 154.085 119.889 154.331 119.719 154.495C119.549 154.653 119.347 154.732 119.112 154.732C118.866 154.732 118.661 154.653 118.497 154.495C118.333 154.331 118.251 154.085 118.251 153.757ZM126.996 166.176C125.572 166.176 124.447 165.742 123.621 164.875C122.801 164.008 122.391 162.804 122.391 161.263C122.391 159.71 122.771 158.477 123.533 157.562C124.301 156.648 125.329 156.191 126.618 156.191C127.825 156.191 128.78 156.59 129.483 157.387C130.187 158.178 130.538 159.224 130.538 160.524V161.447H123.902C123.932 162.578 124.216 163.437 124.755 164.022C125.3 164.608 126.064 164.901 127.049 164.901C128.086 164.901 129.111 164.685 130.125 164.251V165.552C129.609 165.774 129.12 165.933 128.657 166.026C128.2 166.126 127.646 166.176 126.996 166.176ZM126.601 157.413C125.827 157.413 125.209 157.665 124.746 158.169C124.289 158.673 124.02 159.37 123.938 160.261H128.974C128.974 159.341 128.769 158.638 128.358 158.151C127.948 157.659 127.362 157.413 126.601 157.413ZM140.9 166L139.134 160.349C139.022 160.003 138.814 159.218 138.51 157.993H138.439C138.205 159.019 138 159.81 137.824 160.366L136.005 166H134.317L131.689 156.367H133.219C133.84 158.787 134.312 160.63 134.634 161.896C134.962 163.161 135.149 164.014 135.196 164.453H135.267C135.331 164.119 135.434 163.688 135.574 163.161C135.721 162.628 135.847 162.206 135.952 161.896L137.719 156.367H139.301L141.023 161.896C141.352 162.903 141.574 163.75 141.691 164.436H141.762C141.785 164.225 141.847 163.899 141.946 163.46C142.052 163.021 142.664 160.656 143.783 156.367H145.295L142.632 166H140.9ZM153.258 163.372C153.258 164.269 152.924 164.96 152.256 165.446C151.588 165.933 150.65 166.176 149.443 166.176C148.166 166.176 147.17 165.974 146.455 165.569V164.216C146.918 164.45 147.413 164.635 147.94 164.77C148.474 164.904 148.986 164.972 149.479 164.972C150.24 164.972 150.826 164.852 151.236 164.611C151.646 164.365 151.852 163.993 151.852 163.495C151.852 163.12 151.688 162.801 151.359 162.537C151.037 162.268 150.404 161.951 149.461 161.588C148.564 161.254 147.926 160.964 147.545 160.718C147.17 160.466 146.889 160.182 146.701 159.865C146.52 159.549 146.429 159.171 146.429 158.731C146.429 157.946 146.748 157.328 147.387 156.877C148.025 156.42 148.901 156.191 150.015 156.191C151.052 156.191 152.065 156.402 153.056 156.824L152.537 158.011C151.57 157.612 150.694 157.413 149.909 157.413C149.218 157.413 148.696 157.521 148.345 157.738C147.993 157.955 147.817 158.254 147.817 158.635C147.817 158.893 147.882 159.112 148.011 159.294C148.146 159.476 148.359 159.648 148.652 159.812C148.945 159.977 149.508 160.214 150.34 160.524C151.482 160.94 152.253 161.359 152.651 161.781C153.056 162.203 153.258 162.733 153.258 163.372Z" fill="#626262"/>
</g>
<defs>
<filter id="filter0_d" x="0" y="0" width="210" height="210" filterUnits="userSpaceOnUse" color-interpolation-filters="sRGB">
<feFlood flood-opacity="0" result="BackgroundImageFix"/>
<feColorMatrix in="SourceAlpha" type="matrix" values="0 0 0 0 0 0 0 0 0 0 0 0 0 0 0 0 0 0 127 0"/>
<feOffset dy="4"/>
<feGaussianBlur stdDeviation="7.5"/>
<feColorMatrix type="matrix" values="0 0 0 0 0 0 0 0 0 0 0 0 0 0 0 0 0 0 0.15 0"/>
<feBlend mode="normal" in2="BackgroundImageFix" result="effect1_dropShadow"/>
<feBlend mode="normal" in="SourceGraphic" in2="effect1_dropShadow" result="shape"/>
</filter>
</defs>
</svg>
