<svg width="210" height="210" viewBox="0 0 210 210" fill="none" xmlns="http://www.w3.org/2000/svg">
<g filter="url(#filter0_d)">
<rect x="15" y="11" width="180" height="180" rx="7.50936" fill="white"/>
<path d="M91.7344 85H86.2266V62.875C86.2266 60.2344 86.2891 58.1406 86.4141 56.5938C86.0547 56.9688 85.6094 57.3828 85.0781 57.8359C84.5625 58.2891 82.8125 59.7266 79.8281 62.1484L77.0625 58.6562L87.1406 50.7344H91.7344V85ZM126.211 85H102.984V80.8281L111.82 71.9453C114.43 69.2734 116.156 67.3828 117 66.2734C117.859 65.1484 118.484 64.0938 118.875 63.1094C119.266 62.125 119.461 61.0703 119.461 59.9453C119.461 58.3984 118.992 57.1797 118.055 56.2891C117.133 55.3984 115.852 54.9531 114.211 54.9531C112.898 54.9531 111.625 55.1953 110.391 55.6797C109.172 56.1641 107.758 57.0391 106.148 58.3047L103.172 54.6719C105.078 53.0625 106.93 51.9219 108.727 51.25C110.523 50.5781 112.438 50.2422 114.469 50.2422C117.656 50.2422 120.211 51.0781 122.133 52.75C124.055 54.4062 125.016 56.6406 125.016 59.4531C125.016 61 124.734 62.4688 124.172 63.8594C123.625 65.25 122.773 66.6875 121.617 68.1719C120.477 69.6406 118.57 71.6328 115.898 74.1484L109.945 79.9141V80.1484H126.211V85Z" fill="#7F8499"/>
<path d="M56.1494 137.302C54.7373 137.302 53.6211 137.773 52.8008 138.717C51.9863 139.654 51.5791 140.94 51.5791 142.575C51.5791 144.257 51.9717 145.558 52.7568 146.478C53.5479 147.392 54.6729 147.849 56.1318 147.849C57.0283 147.849 58.0508 147.688 59.1992 147.365V148.675C58.3086 149.009 57.21 149.176 55.9033 149.176C54.0107 149.176 52.5488 148.602 51.5176 147.453C50.4922 146.305 49.9795 144.673 49.9795 142.558C49.9795 141.233 50.2256 140.073 50.7178 139.077C51.2158 138.081 51.9307 137.313 52.8623 136.774C53.7998 136.235 54.9014 135.966 56.167 135.966C57.5146 135.966 58.6924 136.212 59.7002 136.704L59.0674 137.987C58.0947 137.53 57.1221 137.302 56.1494 137.302ZM70.0977 144.175C70.0977 145.745 69.7021 146.973 68.9111 147.857C68.1201 148.736 67.0273 149.176 65.6328 149.176C64.7715 149.176 64.0068 148.974 63.3389 148.569C62.6709 148.165 62.1553 147.585 61.792 146.829C61.4287 146.073 61.2471 145.188 61.2471 144.175C61.2471 142.604 61.6396 141.383 62.4248 140.51C63.21 139.631 64.2998 139.191 65.6943 139.191C67.042 139.191 68.1113 139.64 68.9023 140.536C69.6992 141.433 70.0977 142.646 70.0977 144.175ZM62.7588 144.175C62.7588 145.405 63.0049 146.343 63.4971 146.987C63.9893 147.632 64.7129 147.954 65.668 147.954C66.623 147.954 67.3467 147.635 67.8389 146.996C68.3369 146.352 68.5859 145.411 68.5859 144.175C68.5859 142.95 68.3369 142.021 67.8389 141.389C67.3467 140.75 66.6172 140.431 65.6504 140.431C64.6953 140.431 63.9746 140.744 63.4883 141.371C63.002 141.998 62.7588 142.933 62.7588 144.175ZM84.9424 149V142.733C84.9424 141.966 84.7783 141.392 84.4502 141.011C84.1221 140.624 83.6123 140.431 82.9209 140.431C82.0127 140.431 81.3418 140.691 80.9082 141.213C80.4746 141.734 80.2578 142.537 80.2578 143.621V149H78.7988V142.733C78.7988 141.966 78.6348 141.392 78.3066 141.011C77.9785 140.624 77.4658 140.431 76.7686 140.431C75.8545 140.431 75.1836 140.706 74.7559 141.257C74.334 141.802 74.123 142.698 74.123 143.946V149H72.6641V139.367H73.8506L74.0879 140.686H74.1582C74.4336 140.217 74.8203 139.851 75.3184 139.587C75.8223 139.323 76.3848 139.191 77.0059 139.191C78.5117 139.191 79.4961 139.736 79.959 140.826H80.0293C80.3164 140.322 80.7324 139.924 81.2773 139.631C81.8223 139.338 82.4434 139.191 83.1406 139.191C84.2305 139.191 85.0449 139.473 85.584 140.035C86.1289 140.592 86.4014 141.485 86.4014 142.716V149H84.9424ZM93.8984 149.176C93.2715 149.176 92.6973 149.062 92.1758 148.833C91.6602 148.599 91.2266 148.241 90.875 147.761H90.7695C90.8398 148.323 90.875 148.856 90.875 149.36V153.324H89.416V139.367H90.6025L90.8047 140.686H90.875C91.25 140.158 91.6865 139.777 92.1846 139.543C92.6826 139.309 93.2539 139.191 93.8984 139.191C95.1758 139.191 96.1602 139.628 96.8516 140.501C97.5488 141.374 97.8975 142.599 97.8975 144.175C97.8975 145.757 97.543 146.987 96.834 147.866C96.1309 148.739 95.1523 149.176 93.8984 149.176ZM93.6875 140.431C92.7031 140.431 91.9912 140.703 91.5518 141.248C91.1123 141.793 90.8867 142.66 90.875 143.85V144.175C90.875 145.528 91.1006 146.498 91.5518 147.084C92.0029 147.664 92.7266 147.954 93.7227 147.954C94.5547 147.954 95.2051 147.617 95.6738 146.943C96.1484 146.27 96.3857 145.341 96.3857 144.157C96.3857 142.956 96.1484 142.036 95.6738 141.397C95.2051 140.753 94.543 140.431 93.6875 140.431ZM104.524 149.176C103.101 149.176 101.976 148.742 101.149 147.875C100.329 147.008 99.9189 145.804 99.9189 144.263C99.9189 142.71 100.3 141.477 101.062 140.562C101.829 139.648 102.857 139.191 104.146 139.191C105.354 139.191 106.309 139.59 107.012 140.387C107.715 141.178 108.066 142.224 108.066 143.524V144.447H101.431C101.46 145.578 101.744 146.437 102.283 147.022C102.828 147.608 103.593 147.901 104.577 147.901C105.614 147.901 106.64 147.685 107.653 147.251V148.552C107.138 148.774 106.648 148.933 106.186 149.026C105.729 149.126 105.175 149.176 104.524 149.176ZM104.129 140.413C103.355 140.413 102.737 140.665 102.274 141.169C101.817 141.673 101.548 142.37 101.466 143.261H106.502C106.502 142.341 106.297 141.638 105.887 141.151C105.477 140.659 104.891 140.413 104.129 140.413ZM113.674 147.972C113.932 147.972 114.181 147.954 114.421 147.919C114.661 147.878 114.852 147.837 114.992 147.796V148.912C114.834 148.988 114.6 149.05 114.289 149.097C113.984 149.149 113.709 149.176 113.463 149.176C111.6 149.176 110.668 148.194 110.668 146.231V140.501H109.288V139.798L110.668 139.191L111.283 137.135H112.127V139.367H114.922V140.501H112.127V146.17C112.127 146.75 112.265 147.195 112.54 147.506C112.815 147.816 113.193 147.972 113.674 147.972ZM118.385 149H116.926V139.367H118.385V149ZM116.803 136.757C116.803 136.423 116.885 136.18 117.049 136.027C117.213 135.869 117.418 135.79 117.664 135.79C117.898 135.79 118.101 135.869 118.271 136.027C118.44 136.186 118.525 136.429 118.525 136.757C118.525 137.085 118.44 137.331 118.271 137.495C118.101 137.653 117.898 137.732 117.664 137.732C117.418 137.732 117.213 137.653 117.049 137.495C116.885 137.331 116.803 137.085 116.803 136.757ZM124.59 147.972C124.848 147.972 125.097 147.954 125.337 147.919C125.577 147.878 125.768 147.837 125.908 147.796V148.912C125.75 148.988 125.516 149.05 125.205 149.097C124.9 149.149 124.625 149.176 124.379 149.176C122.516 149.176 121.584 148.194 121.584 146.231V140.501H120.204V139.798L121.584 139.191L122.199 137.135H123.043V139.367H125.838V140.501H123.043V146.17C123.043 146.75 123.181 147.195 123.456 147.506C123.731 147.816 124.109 147.972 124.59 147.972ZM136.156 144.175C136.156 145.745 135.761 146.973 134.97 147.857C134.179 148.736 133.086 149.176 131.691 149.176C130.83 149.176 130.065 148.974 129.397 148.569C128.729 148.165 128.214 147.585 127.851 146.829C127.487 146.073 127.306 145.188 127.306 144.175C127.306 142.604 127.698 141.383 128.483 140.51C129.269 139.631 130.358 139.191 131.753 139.191C133.101 139.191 134.17 139.64 134.961 140.536C135.758 141.433 136.156 142.646 136.156 144.175ZM128.817 144.175C128.817 145.405 129.063 146.343 129.556 146.987C130.048 147.632 130.771 147.954 131.727 147.954C132.682 147.954 133.405 147.635 133.897 146.996C134.396 146.352 134.645 145.411 134.645 144.175C134.645 142.95 134.396 142.021 133.897 141.389C133.405 140.75 132.676 140.431 131.709 140.431C130.754 140.431 130.033 140.744 129.547 141.371C129.061 141.998 128.817 142.933 128.817 144.175ZM143.117 139.191C143.545 139.191 143.929 139.227 144.269 139.297L144.066 140.65C143.668 140.562 143.316 140.519 143.012 140.519C142.232 140.519 141.564 140.835 141.008 141.468C140.457 142.101 140.182 142.889 140.182 143.832V149H138.723V139.367H139.927L140.094 141.151H140.164C140.521 140.524 140.952 140.041 141.456 139.701C141.96 139.361 142.514 139.191 143.117 139.191ZM152.284 146.372C152.284 147.269 151.95 147.96 151.282 148.446C150.614 148.933 149.677 149.176 148.47 149.176C147.192 149.176 146.196 148.974 145.481 148.569V147.216C145.944 147.45 146.439 147.635 146.967 147.77C147.5 147.904 148.013 147.972 148.505 147.972C149.267 147.972 149.853 147.852 150.263 147.611C150.673 147.365 150.878 146.993 150.878 146.495C150.878 146.12 150.714 145.801 150.386 145.537C150.063 145.268 149.431 144.951 148.487 144.588C147.591 144.254 146.952 143.964 146.571 143.718C146.196 143.466 145.915 143.182 145.728 142.865C145.546 142.549 145.455 142.171 145.455 141.731C145.455 140.946 145.774 140.328 146.413 139.877C147.052 139.42 147.928 139.191 149.041 139.191C150.078 139.191 151.092 139.402 152.082 139.824L151.563 141.011C150.597 140.612 149.721 140.413 148.936 140.413C148.244 140.413 147.723 140.521 147.371 140.738C147.02 140.955 146.844 141.254 146.844 141.635C146.844 141.893 146.908 142.112 147.037 142.294C147.172 142.476 147.386 142.648 147.679 142.812C147.972 142.977 148.534 143.214 149.366 143.524C150.509 143.94 151.279 144.359 151.678 144.781C152.082 145.203 152.284 145.733 152.284 146.372Z" fill="#626262"/>
</g>
<defs>
<filter id="filter0_d" x="0" y="0" width="210" height="210" filterUnits="userSpaceOnUse" color-interpolation-filters="sRGB">
<feFlood flood-opacity="0" result="BackgroundImageFix"/>
<feColorMatrix in="SourceAlpha" type="matrix" values="0 0 0 0 0 0 0 0 0 0 0 0 0 0 0 0 0 0 127 0"/>
<feOffset dy="4"/>
<feGaussianBlur stdDeviation="7.5"/>
<feColorMatrix type="matrix" values="0 0 0 0 0 0 0 0 0 0 0 0 0 0 0 0 0 0 0.15 0"/>
<feBlend mode="normal" in2="BackgroundImageFix" result="effect1_dropShadow"/>
<feBlend mode="normal" in="SourceGraphic" in2="effect1_dropShadow" result="shape"/>
</filter>
</defs>
</svg>
