<svg width="210" height="210" viewBox="0 0 210 210" fill="none" xmlns="http://www.w3.org/2000/svg">
<g filter="url(#filter0_d)">
<rect x="15" y="11" width="180" height="180" rx="7.50936" fill="white"/>
<path d="M101.5 58.6094C101.5 60.7812 100.867 62.5938 99.6016 64.0469C98.3359 65.4844 96.5547 66.4531 94.2578 66.9531V67.1406C97.0078 67.4844 99.0703 68.3438 100.445 69.7188C101.82 71.0781 102.508 72.8906 102.508 75.1562C102.508 78.4531 101.344 81 99.0156 82.7969C96.6875 84.5781 93.375 85.4688 89.0781 85.4688C85.2812 85.4688 82.0781 84.8516 79.4688 83.6172V78.7188C80.9219 79.4375 82.4609 79.9922 84.0859 80.3828C85.7109 80.7734 87.2734 80.9688 88.7734 80.9688C91.4297 80.9688 93.4141 80.4766 94.7266 79.4922C96.0391 78.5078 96.6953 76.9844 96.6953 74.9219C96.6953 73.0938 95.9688 71.75 94.5156 70.8906C93.0625 70.0312 90.7812 69.6016 87.6719 69.6016H84.6953V65.125H87.7188C93.1875 65.125 95.9219 63.2344 95.9219 59.4531C95.9219 57.9844 95.4453 56.8516 94.4922 56.0547C93.5391 55.2578 92.1328 54.8594 90.2734 54.8594C88.9766 54.8594 87.7266 55.0469 86.5234 55.4219C85.3203 55.7812 83.8984 56.4922 82.2578 57.5547L79.5625 53.7109C82.7031 51.3984 86.3516 50.2422 90.5078 50.2422C93.9609 50.2422 96.6562 50.9844 98.5938 52.4688C100.531 53.9531 101.5 56 101.5 58.6094ZM130.211 67.8672C130.211 73.8203 129.25 78.2422 127.328 81.1328C125.422 84.0234 122.5 85.4688 118.562 85.4688C114.75 85.4688 111.859 83.9766 109.891 80.9922C107.922 78.0078 106.938 73.6328 106.938 67.8672C106.938 61.8203 107.891 57.3672 109.797 54.5078C111.719 51.6328 114.641 50.1953 118.562 50.1953C122.391 50.1953 125.289 51.6953 127.258 54.6953C129.227 57.6953 130.211 62.0859 130.211 67.8672ZM112.516 67.8672C112.516 72.5391 112.992 75.875 113.945 77.875C114.914 79.875 116.453 80.875 118.562 80.875C120.672 80.875 122.211 79.8594 123.18 77.8281C124.164 75.7969 124.656 72.4766 124.656 67.8672C124.656 63.2734 124.164 59.9531 123.18 57.9062C122.211 55.8438 120.672 54.8125 118.562 54.8125C116.453 54.8125 114.914 55.8203 113.945 57.8359C112.992 59.8516 112.516 63.1953 112.516 67.8672Z" fill="#7F8499"/>
<path d="M63.4873 137.973C63.4873 139.104 63.0771 139.986 62.2568 140.619C61.4365 141.252 60.3232 141.568 58.917 141.568C57.3936 141.568 56.2217 141.372 55.4014 140.979V139.538C55.9287 139.76 56.5029 139.936 57.124 140.065C57.7451 140.194 58.3604 140.259 58.9697 140.259C59.9658 140.259 60.7158 140.071 61.2197 139.696C61.7236 139.315 61.9756 138.788 61.9756 138.114C61.9756 137.669 61.8848 137.305 61.7031 137.024C61.5273 136.737 61.2285 136.473 60.8066 136.233C60.3906 135.993 59.7549 135.72 58.8994 135.416C57.7041 134.988 56.8486 134.481 56.333 133.895C55.8232 133.309 55.5684 132.545 55.5684 131.601C55.5684 130.611 55.9404 129.823 56.6846 129.237C57.4287 128.651 58.4131 128.358 59.6377 128.358C60.915 128.358 62.0898 128.593 63.1621 129.061L62.6963 130.362C61.6357 129.917 60.6045 129.694 59.6025 129.694C58.8115 129.694 58.1934 129.864 57.748 130.204C57.3027 130.544 57.0801 131.015 57.0801 131.619C57.0801 132.064 57.1621 132.43 57.3262 132.718C57.4902 132.999 57.7656 133.26 58.1523 133.5C58.5449 133.734 59.1426 133.995 59.9453 134.282C61.293 134.762 62.2188 135.278 62.7227 135.829C63.2324 136.38 63.4873 137.094 63.4873 137.973ZM69.0068 140.364C69.2646 140.364 69.5137 140.346 69.7539 140.311C69.9941 140.27 70.1846 140.229 70.3252 140.188V141.304C70.167 141.381 69.9326 141.442 69.6221 141.489C69.3174 141.542 69.042 141.568 68.7959 141.568C66.9326 141.568 66.001 140.587 66.001 138.624V132.893H64.6211V132.19L66.001 131.584L66.6162 129.527H67.46V131.76H70.2549V132.893H67.46V138.562C67.46 139.142 67.5977 139.588 67.873 139.898C68.1484 140.209 68.5264 140.364 69.0068 140.364ZM78.1826 141.392L77.8926 140.021H77.8223C77.3418 140.625 76.8613 141.035 76.3809 141.252C75.9062 141.463 75.3115 141.568 74.5967 141.568C73.6416 141.568 72.8916 141.322 72.3467 140.83C71.8076 140.338 71.5381 139.637 71.5381 138.729C71.5381 136.784 73.0938 135.764 76.2051 135.671L77.8398 135.618V135.02C77.8398 134.264 77.6758 133.708 77.3477 133.35C77.0254 132.987 76.5068 132.805 75.792 132.805C74.9893 132.805 74.0811 133.052 73.0674 133.544L72.6191 132.427C73.0938 132.17 73.6123 131.968 74.1748 131.821C74.7432 131.675 75.3115 131.601 75.8799 131.601C77.0283 131.601 77.8779 131.856 78.4287 132.366C78.9854 132.876 79.2637 133.693 79.2637 134.818V141.392H78.1826ZM74.8867 140.364C75.7949 140.364 76.5068 140.115 77.0225 139.617C77.5439 139.119 77.8047 138.422 77.8047 137.525V136.655L76.3457 136.717C75.1855 136.758 74.3477 136.939 73.832 137.261C73.3223 137.578 73.0674 138.073 73.0674 138.747C73.0674 139.274 73.2256 139.676 73.542 139.951C73.8643 140.226 74.3125 140.364 74.8867 140.364ZM83.7197 136.462C83.9717 136.104 84.3555 135.635 84.8711 135.055L87.9824 131.76H89.7139L85.8115 135.864L89.9863 141.392H88.2197L84.8184 136.84L83.7197 137.789V141.392H82.2783V127.717H83.7197V134.968C83.7197 135.29 83.6963 135.788 83.6494 136.462H83.7197ZM95.8047 141.568C94.3809 141.568 93.2559 141.135 92.4297 140.267C91.6094 139.4 91.1992 138.196 91.1992 136.655C91.1992 135.102 91.5801 133.869 92.3418 132.955C93.1094 132.041 94.1377 131.584 95.4268 131.584C96.6338 131.584 97.5889 131.982 98.292 132.779C98.9951 133.57 99.3467 134.616 99.3467 135.917V136.84H92.7109C92.7402 137.97 93.0244 138.829 93.5635 139.415C94.1084 140.001 94.873 140.294 95.8574 140.294C96.8945 140.294 97.9199 140.077 98.9336 139.643V140.944C98.418 141.167 97.9287 141.325 97.4658 141.419C97.0088 141.518 96.4551 141.568 95.8047 141.568ZM95.4092 132.805C94.6357 132.805 94.0176 133.057 93.5547 133.561C93.0977 134.065 92.8281 134.762 92.7461 135.653H97.7822C97.7822 134.733 97.5771 134.03 97.167 133.544C96.7568 133.052 96.1709 132.805 95.4092 132.805ZM108.435 141.392V135.161C108.435 134.376 108.256 133.79 107.898 133.403C107.541 133.016 106.981 132.823 106.22 132.823C105.206 132.823 104.465 133.098 103.996 133.649C103.533 134.2 103.302 135.102 103.302 136.356V141.392H101.843V127.717H103.302V131.856C103.302 132.354 103.278 132.767 103.231 133.095H103.319C103.606 132.633 104.014 132.269 104.541 132.006C105.074 131.736 105.681 131.601 106.36 131.601C107.538 131.601 108.42 131.883 109.006 132.445C109.598 133.002 109.894 133.889 109.894 135.108V141.392H108.435ZM121.214 136.567C121.214 138.137 120.818 139.365 120.027 140.25C119.236 141.129 118.144 141.568 116.749 141.568C115.888 141.568 115.123 141.366 114.455 140.962C113.787 140.557 113.271 139.977 112.908 139.221C112.545 138.466 112.363 137.581 112.363 136.567C112.363 134.997 112.756 133.775 113.541 132.902C114.326 132.023 115.416 131.584 116.811 131.584C118.158 131.584 119.228 132.032 120.019 132.928C120.815 133.825 121.214 135.038 121.214 136.567ZM113.875 136.567C113.875 137.798 114.121 138.735 114.613 139.38C115.105 140.024 115.829 140.346 116.784 140.346C117.739 140.346 118.463 140.027 118.955 139.388C119.453 138.744 119.702 137.803 119.702 136.567C119.702 135.343 119.453 134.414 118.955 133.781C118.463 133.142 117.733 132.823 116.767 132.823C115.812 132.823 115.091 133.136 114.604 133.763C114.118 134.39 113.875 135.325 113.875 136.567ZM125.239 141.392H123.78V127.717H125.239V141.392ZM134.89 140.1H134.811C134.137 141.079 133.129 141.568 131.787 141.568C130.527 141.568 129.546 141.137 128.843 140.276C128.146 139.415 127.797 138.19 127.797 136.602C127.797 135.014 128.148 133.781 128.852 132.902C129.555 132.023 130.533 131.584 131.787 131.584C133.094 131.584 134.096 132.058 134.793 133.008H134.907L134.846 132.313L134.811 131.636V127.717H136.27V141.392H135.083L134.89 140.1ZM131.972 140.346C132.968 140.346 133.688 140.077 134.134 139.538C134.585 138.993 134.811 138.117 134.811 136.91V136.602C134.811 135.237 134.582 134.264 134.125 133.684C133.674 133.098 132.95 132.805 131.954 132.805C131.099 132.805 130.442 133.139 129.985 133.807C129.534 134.469 129.309 135.407 129.309 136.62C129.309 137.85 129.534 138.779 129.985 139.406C130.437 140.033 131.099 140.346 131.972 140.346ZM143.441 141.568C142.018 141.568 140.893 141.135 140.066 140.267C139.246 139.4 138.836 138.196 138.836 136.655C138.836 135.102 139.217 133.869 139.979 132.955C140.746 132.041 141.774 131.584 143.063 131.584C144.271 131.584 145.226 131.982 145.929 132.779C146.632 133.57 146.983 134.616 146.983 135.917V136.84H140.348C140.377 137.97 140.661 138.829 141.2 139.415C141.745 140.001 142.51 140.294 143.494 140.294C144.531 140.294 145.557 140.077 146.57 139.643V140.944C146.055 141.167 145.565 141.325 145.103 141.419C144.646 141.518 144.092 141.568 143.441 141.568ZM143.046 132.805C142.272 132.805 141.654 133.057 141.191 133.561C140.734 134.065 140.465 134.762 140.383 135.653H145.419C145.419 134.733 145.214 134.03 144.804 133.544C144.394 133.052 143.808 132.805 143.046 132.805ZM153.874 131.584C154.302 131.584 154.686 131.619 155.025 131.689L154.823 133.043C154.425 132.955 154.073 132.911 153.769 132.911C152.989 132.911 152.321 133.227 151.765 133.86C151.214 134.493 150.938 135.281 150.938 136.224V141.392H149.479V131.76H150.684L150.851 133.544H150.921C151.278 132.917 151.709 132.433 152.213 132.094C152.717 131.754 153.271 131.584 153.874 131.584ZM63.5488 166.392V153.543H65.043V166.392H63.5488ZM74.9482 166.392V160.161C74.9482 159.376 74.7695 158.79 74.4121 158.403C74.0547 158.016 73.4951 157.823 72.7334 157.823C71.7256 157.823 70.9873 158.095 70.5186 158.64C70.0498 159.185 69.8154 160.085 69.8154 161.339V166.392H68.3564V156.76H69.543L69.7803 158.078H69.8506C70.1494 157.603 70.5684 157.237 71.1074 156.979C71.6465 156.716 72.2471 156.584 72.9092 156.584C74.0693 156.584 74.9424 156.865 75.5283 157.427C76.1143 157.984 76.4072 158.878 76.4072 160.108V166.392H74.9482ZM82.5244 165.364C82.7822 165.364 83.0312 165.346 83.2715 165.311C83.5117 165.27 83.7021 165.229 83.8428 165.188V166.304C83.6846 166.381 83.4502 166.442 83.1396 166.489C82.835 166.542 82.5596 166.568 82.3135 166.568C80.4502 166.568 79.5186 165.587 79.5186 163.624V157.893H78.1387V157.19L79.5186 156.584L80.1338 154.527H80.9775V156.76H83.7725V157.893H80.9775V163.562C80.9775 164.142 81.1152 164.588 81.3906 164.898C81.666 165.209 82.0439 165.364 82.5244 165.364ZM89.8457 166.568C88.4219 166.568 87.2969 166.135 86.4707 165.267C85.6504 164.4 85.2402 163.196 85.2402 161.655C85.2402 160.102 85.6211 158.869 86.3828 157.955C87.1504 157.041 88.1787 156.584 89.4678 156.584C90.6748 156.584 91.6299 156.982 92.333 157.779C93.0361 158.57 93.3877 159.616 93.3877 160.917V161.84H86.752C86.7812 162.97 87.0654 163.829 87.6045 164.415C88.1494 165.001 88.9141 165.294 89.8984 165.294C90.9355 165.294 91.9609 165.077 92.9746 164.643V165.944C92.459 166.167 91.9697 166.325 91.5068 166.419C91.0498 166.518 90.4961 166.568 89.8457 166.568ZM89.4502 157.805C88.6768 157.805 88.0586 158.057 87.5957 158.561C87.1387 159.065 86.8691 159.762 86.7871 160.653H91.8232C91.8232 159.733 91.6182 159.03 91.208 158.544C90.7979 158.052 90.2119 157.805 89.4502 157.805ZM100.278 156.584C100.706 156.584 101.09 156.619 101.43 156.689L101.228 158.043C100.829 157.955 100.478 157.911 100.173 157.911C99.3936 157.911 98.7256 158.227 98.1689 158.86C97.6182 159.493 97.3428 160.281 97.3428 161.224V166.392H95.8838V156.76H97.0879L97.2549 158.544H97.3252C97.6826 157.917 98.1133 157.433 98.6172 157.094C99.1211 156.754 99.6748 156.584 100.278 156.584ZM105.341 166.392L101.685 156.76H103.249L105.323 162.472C105.792 163.808 106.067 164.676 106.149 165.074H106.22C106.284 164.763 106.486 164.122 106.826 163.149C107.172 162.171 107.942 160.041 109.138 156.76H110.702L107.046 166.392H105.341ZM113.708 166.392H112.249V156.76H113.708V166.392ZM112.126 154.149C112.126 153.815 112.208 153.572 112.372 153.42C112.536 153.261 112.741 153.182 112.987 153.182C113.222 153.182 113.424 153.261 113.594 153.42C113.764 153.578 113.849 153.821 113.849 154.149C113.849 154.477 113.764 154.723 113.594 154.887C113.424 155.046 113.222 155.125 112.987 155.125C112.741 155.125 112.536 155.046 112.372 154.887C112.208 154.723 112.126 154.477 112.126 154.149ZM120.871 166.568C119.447 166.568 118.322 166.135 117.496 165.267C116.676 164.4 116.266 163.196 116.266 161.655C116.266 160.102 116.646 158.869 117.408 157.955C118.176 157.041 119.204 156.584 120.493 156.584C121.7 156.584 122.655 156.982 123.358 157.779C124.062 158.57 124.413 159.616 124.413 160.917V161.84H117.777C117.807 162.97 118.091 163.829 118.63 164.415C119.175 165.001 119.939 165.294 120.924 165.294C121.961 165.294 122.986 165.077 124 164.643V165.944C123.484 166.167 122.995 166.325 122.532 166.419C122.075 166.518 121.521 166.568 120.871 166.568ZM120.476 157.805C119.702 157.805 119.084 158.057 118.621 158.561C118.164 159.065 117.895 159.762 117.812 160.653H122.849C122.849 159.733 122.644 159.03 122.233 158.544C121.823 158.052 121.237 157.805 120.476 157.805ZM134.775 166.392L133.009 160.741C132.897 160.395 132.689 159.61 132.385 158.385H132.314C132.08 159.411 131.875 160.202 131.699 160.759L129.88 166.392H128.192L125.564 156.76H127.094C127.715 159.179 128.187 161.022 128.509 162.288C128.837 163.553 129.024 164.406 129.071 164.845H129.142C129.206 164.511 129.309 164.081 129.449 163.553C129.596 163.02 129.722 162.598 129.827 162.288L131.594 156.76H133.176L134.898 162.288C135.227 163.296 135.449 164.142 135.566 164.828H135.637C135.66 164.617 135.722 164.292 135.821 163.852C135.927 163.413 136.539 161.049 137.658 156.76H139.17L136.507 166.392H134.775ZM147.133 163.764C147.133 164.661 146.799 165.352 146.131 165.839C145.463 166.325 144.525 166.568 143.318 166.568C142.041 166.568 141.045 166.366 140.33 165.962V164.608C140.793 164.843 141.288 165.027 141.815 165.162C142.349 165.297 142.861 165.364 143.354 165.364C144.115 165.364 144.701 165.244 145.111 165.004C145.521 164.758 145.727 164.385 145.727 163.887C145.727 163.512 145.562 163.193 145.234 162.929C144.912 162.66 144.279 162.344 143.336 161.98C142.439 161.646 141.801 161.356 141.42 161.11C141.045 160.858 140.764 160.574 140.576 160.258C140.395 159.941 140.304 159.563 140.304 159.124C140.304 158.339 140.623 157.72 141.262 157.269C141.9 156.812 142.776 156.584 143.89 156.584C144.927 156.584 145.94 156.795 146.931 157.217L146.412 158.403C145.445 158.005 144.569 157.805 143.784 157.805C143.093 157.805 142.571 157.914 142.22 158.131C141.868 158.347 141.692 158.646 141.692 159.027C141.692 159.285 141.757 159.505 141.886 159.686C142.021 159.868 142.234 160.041 142.527 160.205C142.82 160.369 143.383 160.606 144.215 160.917C145.357 161.333 146.128 161.752 146.526 162.174C146.931 162.595 147.133 163.126 147.133 163.764Z" fill="#626262"/>
</g>
<defs>
<filter id="filter0_d" x="0" y="0" width="210" height="210" filterUnits="userSpaceOnUse" color-interpolation-filters="sRGB">
<feFlood flood-opacity="0" result="BackgroundImageFix"/>
<feColorMatrix in="SourceAlpha" type="matrix" values="0 0 0 0 0 0 0 0 0 0 0 0 0 0 0 0 0 0 127 0"/>
<feOffset dy="4"/>
<feGaussianBlur stdDeviation="7.5"/>
<feColorMatrix type="matrix" values="0 0 0 0 0 0 0 0 0 0 0 0 0 0 0 0 0 0 0.15 0"/>
<feBlend mode="normal" in2="BackgroundImageFix" result="effect1_dropShadow"/>
<feBlend mode="normal" in="SourceGraphic" in2="effect1_dropShadow" result="shape"/>
</filter>
</defs>
</svg>
