<svg width="210" height="210" viewBox="0 0 210 210" fill="none" xmlns="http://www.w3.org/2000/svg">
<g filter="url(#filter0_d)">
<rect x="15" y="11" width="180" height="180" rx="7.50936" fill="white"/>
<path d="M76.4727 99.0391C76.4727 100.53 75.9844 101.673 75.0078 102.467C74.0312 103.261 72.6413 103.658 70.8379 103.658H69.3535V109H67.0195V94.7227H71.1309C72.9147 94.7227 74.2493 95.0872 75.1348 95.8164C76.0267 96.5456 76.4727 97.6198 76.4727 99.0391ZM69.3535 101.695H70.5938C71.7917 101.695 72.6706 101.487 73.2305 101.07C73.7904 100.654 74.0703 100.003 74.0703 99.1172C74.0703 98.2969 73.8197 97.6849 73.3184 97.2812C72.8171 96.8776 72.0358 96.6758 70.9746 96.6758H69.3535V101.695ZM83.7969 109.195C82.1172 109.195 80.8021 108.707 79.8516 107.73C78.9076 106.747 78.4355 105.396 78.4355 103.678C78.4355 101.913 78.875 100.527 79.7539 99.5176C80.6328 98.5085 81.8405 98.0039 83.377 98.0039C84.8027 98.0039 85.929 98.4368 86.7559 99.3027C87.5827 100.169 87.9961 101.36 87.9961 102.877V104.117H80.7988C80.8314 105.165 81.1146 105.973 81.6484 106.539C82.1823 107.099 82.9342 107.379 83.9043 107.379C84.5423 107.379 85.1348 107.32 85.6816 107.203C86.235 107.079 86.8275 106.878 87.459 106.598V108.463C86.8991 108.73 86.3327 108.919 85.7598 109.029C85.1868 109.14 84.5326 109.195 83.7969 109.195ZM83.377 99.7422C82.6478 99.7422 82.0618 99.9733 81.6191 100.436C81.1829 100.898 80.9225 101.572 80.8379 102.457H85.7402C85.7272 101.565 85.5124 100.891 85.0957 100.436C84.679 99.9733 84.1061 99.7422 83.377 99.7422ZM96.082 98.0039C96.5443 98.0039 96.9251 98.0365 97.2246 98.1016L97 100.24C96.6745 100.162 96.3359 100.123 95.9844 100.123C95.0664 100.123 94.321 100.423 93.748 101.021C93.1816 101.62 92.8984 102.398 92.8984 103.355V109H90.6035V98.1992H92.4004L92.7031 100.104H92.8203C93.1784 99.459 93.6439 98.9479 94.2168 98.5703C94.7962 98.1927 95.418 98.0039 96.082 98.0039ZM106.492 105.924C106.492 106.979 106.108 107.789 105.34 108.355C104.572 108.915 103.471 109.195 102.039 109.195C100.6 109.195 99.4447 108.977 98.5723 108.541V106.559C99.8418 107.145 101.023 107.438 102.117 107.438C103.53 107.438 104.236 107.011 104.236 106.158C104.236 105.885 104.158 105.657 104.002 105.475C103.846 105.292 103.589 105.104 103.23 104.908C102.872 104.713 102.374 104.492 101.736 104.244C100.493 103.762 99.6497 103.281 99.207 102.799C98.7708 102.317 98.5527 101.692 98.5527 100.924C98.5527 99.9993 98.9238 99.2832 99.666 98.7754C100.415 98.2611 101.43 98.0039 102.713 98.0039C103.982 98.0039 105.184 98.2611 106.316 98.7754L105.574 100.504C104.409 100.022 103.429 99.7812 102.635 99.7812C101.424 99.7812 100.818 100.126 100.818 100.816C100.818 101.155 100.975 101.441 101.287 101.676C101.606 101.91 102.296 102.232 103.357 102.643C104.249 102.988 104.897 103.303 105.301 103.59C105.704 103.876 106.004 104.208 106.199 104.586C106.395 104.957 106.492 105.403 106.492 105.924ZM118.562 103.58C118.562 105.344 118.11 106.721 117.205 107.711C116.3 108.701 115.04 109.195 113.426 109.195C112.417 109.195 111.525 108.967 110.75 108.512C109.975 108.056 109.38 107.402 108.963 106.549C108.546 105.696 108.338 104.706 108.338 103.58C108.338 101.829 108.787 100.462 109.686 99.4785C110.584 98.4954 111.85 98.0039 113.484 98.0039C115.047 98.0039 116.284 98.5085 117.195 99.5176C118.107 100.52 118.562 101.874 118.562 103.58ZM110.701 103.58C110.701 106.074 111.622 107.32 113.465 107.32C115.288 107.32 116.199 106.074 116.199 103.58C116.199 101.113 115.281 99.8789 113.445 99.8789C112.482 99.8789 111.782 100.198 111.346 100.836C110.916 101.474 110.701 102.389 110.701 103.58ZM130.711 109H128.406V102.359C128.406 101.526 128.237 100.904 127.898 100.494C127.566 100.084 127.036 99.8789 126.307 99.8789C125.337 99.8789 124.627 100.165 124.178 100.738C123.729 101.311 123.504 102.271 123.504 103.619V109H121.209V98.1992H123.006L123.328 99.6152H123.445C123.771 99.1009 124.233 98.7038 124.832 98.4238C125.431 98.1439 126.095 98.0039 126.824 98.0039C129.415 98.0039 130.711 99.3223 130.711 101.959V109ZM140.662 109L140.203 107.496H140.125C139.604 108.154 139.08 108.603 138.553 108.844C138.025 109.078 137.348 109.195 136.521 109.195C135.46 109.195 134.63 108.909 134.031 108.336C133.439 107.763 133.143 106.952 133.143 105.904C133.143 104.791 133.556 103.951 134.383 103.385C135.21 102.818 136.469 102.509 138.162 102.457L140.027 102.398V101.822C140.027 101.132 139.865 100.618 139.539 100.279C139.22 99.9342 138.722 99.7617 138.045 99.7617C137.492 99.7617 136.961 99.8431 136.453 100.006C135.945 100.169 135.457 100.361 134.988 100.582L134.246 98.9414C134.832 98.6354 135.473 98.4043 136.17 98.248C136.867 98.0853 137.524 98.0039 138.143 98.0039C139.516 98.0039 140.551 98.3034 141.248 98.9023C141.951 99.5013 142.303 100.442 142.303 101.725V109H140.662ZM137.244 107.438C138.077 107.438 138.745 107.206 139.246 106.744C139.754 106.275 140.008 105.621 140.008 104.781V103.844L138.621 103.902C137.54 103.941 136.753 104.124 136.258 104.449C135.77 104.768 135.525 105.26 135.525 105.924C135.525 106.406 135.669 106.78 135.955 107.047C136.242 107.307 136.671 107.438 137.244 107.438Z" fill="#7F8499"/>
</g>
<defs>
<filter id="filter0_d" x="0" y="0" width="210" height="210" filterUnits="userSpaceOnUse" color-interpolation-filters="sRGB">
<feFlood flood-opacity="0" result="BackgroundImageFix"/>
<feColorMatrix in="SourceAlpha" type="matrix" values="0 0 0 0 0 0 0 0 0 0 0 0 0 0 0 0 0 0 127 0"/>
<feOffset dy="4"/>
<feGaussianBlur stdDeviation="7.5"/>
<feColorMatrix type="matrix" values="0 0 0 0 0 0 0 0 0 0 0 0 0 0 0 0 0 0 0.15 0"/>
<feBlend mode="normal" in2="BackgroundImageFix" result="effect1_dropShadow"/>
<feBlend mode="normal" in="SourceGraphic" in2="effect1_dropShadow" result="shape"/>
</filter>
</defs>
</svg>
