<svg width="210" height="210" viewBox="0 0 210 210" fill="none" xmlns="http://www.w3.org/2000/svg">
<g filter="url(#filter0_d)">
<rect x="15" y="11" width="180" height="180" rx="7.50936" fill="white"/>
<path d="M81.6348 96L80.209 92.0352H74.75L73.3535 96H70.8926L76.2344 81.6641H78.7734L84.1152 96H81.6348ZM79.5938 90.0234L78.2559 86.1367C78.1582 85.8763 78.0215 85.4661 77.8457 84.9062C77.6764 84.3464 77.5592 83.9362 77.4941 83.6758C77.3184 84.4766 77.0612 85.3522 76.7227 86.3027L75.4336 90.0234H79.5938ZM91.1758 86.9375H88.5391V96H86.2344V86.9375H84.457V85.8633L86.2344 85.1602V84.457C86.2344 83.181 86.5339 82.237 87.1328 81.625C87.7318 81.0065 88.6465 80.6973 89.877 80.6973C90.6842 80.6973 91.4785 80.8307 92.2598 81.0977L91.6543 82.8359C91.0879 82.6536 90.5475 82.5625 90.0332 82.5625C89.5124 82.5625 89.1315 82.7253 88.8906 83.0508C88.6562 83.3698 88.5391 83.8516 88.5391 84.4961V85.1992H91.1758V86.9375ZM98.4414 86.9375H95.8047V96H93.5V86.9375H91.7227V85.8633L93.5 85.1602V84.457C93.5 83.181 93.7995 82.237 94.3984 81.625C94.9974 81.0065 95.9121 80.6973 97.1426 80.6973C97.9499 80.6973 98.7441 80.8307 99.5254 81.0977L98.9199 82.8359C98.3535 82.6536 97.8132 82.5625 97.2988 82.5625C96.778 82.5625 96.3971 82.7253 96.1562 83.0508C95.9219 83.3698 95.8047 83.8516 95.8047 84.4961V85.1992H98.4414V86.9375ZM102.582 96H100.287V85.1992H102.582V96ZM100.15 82.3379C100.15 81.9277 100.261 81.612 100.482 81.3906C100.71 81.1693 101.033 81.0586 101.449 81.0586C101.853 81.0586 102.165 81.1693 102.387 81.3906C102.615 81.612 102.729 81.9277 102.729 82.3379C102.729 82.7285 102.615 83.0378 102.387 83.2656C102.165 83.487 101.853 83.5977 101.449 83.5977C101.033 83.5977 100.71 83.487 100.482 83.2656C100.261 83.0378 100.15 82.7285 100.15 82.3379ZM115.375 96H113.07V89.3594C113.07 88.526 112.901 87.9043 112.562 87.4941C112.23 87.084 111.7 86.8789 110.971 86.8789C110.001 86.8789 109.291 87.1654 108.842 87.7383C108.393 88.3112 108.168 89.2715 108.168 90.6191V96H105.873V85.1992H107.67L107.992 86.6152H108.109C108.435 86.1009 108.897 85.7038 109.496 85.4238C110.095 85.1439 110.759 85.0039 111.488 85.0039C114.079 85.0039 115.375 86.3223 115.375 88.959V96ZM120.863 96H118.568V85.1992H120.863V96ZM118.432 82.3379C118.432 81.9277 118.542 81.612 118.764 81.3906C118.992 81.1693 119.314 81.0586 119.73 81.0586C120.134 81.0586 120.447 81.1693 120.668 81.3906C120.896 81.612 121.01 81.9277 121.01 82.3379C121.01 82.7285 120.896 83.0378 120.668 83.2656C120.447 83.487 120.134 83.5977 119.73 83.5977C119.314 83.5977 118.992 83.487 118.764 83.2656C118.542 83.0378 118.432 82.7285 118.432 82.3379ZM128.178 94.3398C128.738 94.3398 129.298 94.252 129.857 94.0762V95.8047C129.604 95.9154 129.275 96.0065 128.871 96.0781C128.474 96.1562 128.061 96.1953 127.631 96.1953C125.456 96.1953 124.369 95.0495 124.369 92.7578V86.9375H122.895V85.9219L124.477 85.082L125.258 82.7969H126.674V85.1992H129.75V86.9375H126.674V92.7188C126.674 93.2721 126.811 93.6823 127.084 93.9492C127.364 94.2096 127.729 94.3398 128.178 94.3398ZM130.385 85.1992H132.885L135.082 91.3223C135.414 92.1947 135.635 93.015 135.746 93.7832H135.824C135.883 93.4251 135.99 92.9922 136.146 92.4844C136.303 91.9701 137.13 89.5417 138.627 85.1992H141.107L136.488 97.4355C135.648 99.6816 134.249 100.805 132.289 100.805C131.781 100.805 131.286 100.749 130.805 100.639V98.8223C131.15 98.9004 131.544 98.9395 131.986 98.9395C133.093 98.9395 133.871 98.2982 134.32 97.0156L134.721 96L130.385 85.1992ZM78.3145 115.725C78.3145 118.081 77.6602 119.885 76.3516 121.135C75.043 122.378 73.1582 123 70.6973 123H66.7031V108.723H71.1172C73.3893 108.723 75.1569 109.335 76.4199 110.559C77.6829 111.783 78.3145 113.505 78.3145 115.725ZM75.8535 115.803C75.8535 112.385 74.2552 110.676 71.0586 110.676H69.0371V121.037H70.6973C74.1348 121.037 75.8535 119.292 75.8535 115.803ZM83.4414 123H81.1465V112.199H83.4414V123ZM81.0098 109.338C81.0098 108.928 81.1204 108.612 81.3418 108.391C81.5697 108.169 81.8919 108.059 82.3086 108.059C82.7122 108.059 83.0247 108.169 83.2461 108.391C83.474 108.612 83.5879 108.928 83.5879 109.338C83.5879 109.729 83.474 110.038 83.2461 110.266C83.0247 110.487 82.7122 110.598 82.3086 110.598C81.8919 110.598 81.5697 110.487 81.3418 110.266C81.1204 110.038 81.0098 109.729 81.0098 109.338ZM93.4902 123L93.0312 121.496H92.9531C92.4323 122.154 91.9082 122.603 91.3809 122.844C90.8535 123.078 90.1764 123.195 89.3496 123.195C88.2884 123.195 87.4583 122.909 86.8594 122.336C86.2669 121.763 85.9707 120.952 85.9707 119.904C85.9707 118.791 86.3841 117.951 87.2109 117.385C88.0378 116.818 89.2975 116.509 90.9902 116.457L92.8555 116.398V115.822C92.8555 115.132 92.6927 114.618 92.3672 114.279C92.0482 113.934 91.5501 113.762 90.873 113.762C90.3197 113.762 89.7891 113.843 89.2812 114.006C88.7734 114.169 88.2852 114.361 87.8164 114.582L87.0742 112.941C87.6602 112.635 88.3014 112.404 88.998 112.248C89.6947 112.085 90.3522 112.004 90.9707 112.004C92.3444 112.004 93.3796 112.303 94.0762 112.902C94.7793 113.501 95.1309 114.442 95.1309 115.725V123H93.4902ZM90.0723 121.438C90.9056 121.438 91.5729 121.206 92.0742 120.744C92.582 120.275 92.8359 119.621 92.8359 118.781V117.844L91.4492 117.902C90.3685 117.941 89.5807 118.124 89.0859 118.449C88.5977 118.768 88.3535 119.26 88.3535 119.924C88.3535 120.406 88.4967 120.78 88.7832 121.047C89.0697 121.307 89.4993 121.438 90.0723 121.438ZM107.455 112.199V113.459L105.609 113.801C105.779 114.029 105.919 114.309 106.029 114.641C106.14 114.973 106.195 115.324 106.195 115.695C106.195 116.809 105.811 117.684 105.043 118.322C104.275 118.96 103.217 119.279 101.869 119.279C101.524 119.279 101.212 119.253 100.932 119.201C100.437 119.507 100.189 119.865 100.189 120.275C100.189 120.523 100.303 120.708 100.531 120.832C100.766 120.956 101.192 121.018 101.811 121.018H103.695C104.887 121.018 105.792 121.271 106.41 121.779C107.029 122.287 107.338 123.02 107.338 123.977C107.338 125.201 106.833 126.145 105.824 126.809C104.815 127.473 103.357 127.805 101.449 127.805C99.9779 127.805 98.8548 127.544 98.0801 127.023C97.3053 126.503 96.918 125.76 96.918 124.797C96.918 124.133 97.1263 123.573 97.543 123.117C97.9661 122.668 98.5553 122.355 99.3105 122.18C99.0046 122.049 98.7507 121.841 98.5488 121.555C98.3535 121.262 98.2559 120.956 98.2559 120.637C98.2559 120.233 98.3698 119.891 98.5977 119.611C98.8255 119.331 99.1641 119.055 99.6133 118.781C99.0534 118.54 98.5977 118.15 98.2461 117.609C97.901 117.062 97.7285 116.424 97.7285 115.695C97.7285 114.523 98.0964 113.615 98.832 112.971C99.5742 112.326 100.629 112.004 101.996 112.004C102.302 112.004 102.621 112.027 102.953 112.072C103.292 112.111 103.546 112.154 103.715 112.199H107.455ZM98.9688 124.68C98.9688 125.174 99.1901 125.555 99.6328 125.822C100.082 126.089 100.71 126.223 101.518 126.223C102.768 126.223 103.699 126.044 104.311 125.686C104.923 125.327 105.229 124.852 105.229 124.26C105.229 123.791 105.059 123.456 104.721 123.254C104.389 123.059 103.767 122.961 102.855 122.961H101.117C100.46 122.961 99.9355 123.114 99.5449 123.42C99.1608 123.732 98.9688 124.152 98.9688 124.68ZM99.9551 115.695C99.9551 116.372 100.128 116.893 100.473 117.258C100.824 117.622 101.326 117.805 101.977 117.805C103.305 117.805 103.969 117.095 103.969 115.676C103.969 114.973 103.803 114.432 103.471 114.055C103.145 113.671 102.647 113.479 101.977 113.479C101.312 113.479 100.808 113.667 100.463 114.045C100.124 114.423 99.9551 114.973 99.9551 115.695ZM114.945 112.004C115.408 112.004 115.788 112.036 116.088 112.102L115.863 114.24C115.538 114.162 115.199 114.123 114.848 114.123C113.93 114.123 113.184 114.423 112.611 115.021C112.045 115.62 111.762 116.398 111.762 117.355V123H109.467V112.199H111.264L111.566 114.104H111.684C112.042 113.459 112.507 112.948 113.08 112.57C113.66 112.193 114.281 112.004 114.945 112.004ZM124.857 123L124.398 121.496H124.32C123.799 122.154 123.275 122.603 122.748 122.844C122.221 123.078 121.544 123.195 120.717 123.195C119.656 123.195 118.826 122.909 118.227 122.336C117.634 121.763 117.338 120.952 117.338 119.904C117.338 118.791 117.751 117.951 118.578 117.385C119.405 116.818 120.665 116.509 122.357 116.457L124.223 116.398V115.822C124.223 115.132 124.06 114.618 123.734 114.279C123.415 113.934 122.917 113.762 122.24 113.762C121.687 113.762 121.156 113.843 120.648 114.006C120.141 114.169 119.652 114.361 119.184 114.582L118.441 112.941C119.027 112.635 119.669 112.404 120.365 112.248C121.062 112.085 121.719 112.004 122.338 112.004C123.712 112.004 124.747 112.303 125.443 112.902C126.146 113.501 126.498 114.442 126.498 115.725V123H124.857ZM121.439 121.438C122.273 121.438 122.94 121.206 123.441 120.744C123.949 120.275 124.203 119.621 124.203 118.781V117.844L122.816 117.902C121.736 117.941 120.948 118.124 120.453 118.449C119.965 118.768 119.721 119.26 119.721 119.924C119.721 120.406 119.864 120.78 120.15 121.047C120.437 121.307 120.867 121.438 121.439 121.438ZM138.803 123H136.498V116.34C136.498 115.513 136.342 114.898 136.029 114.494C135.717 114.084 135.229 113.879 134.564 113.879C133.679 113.879 133.028 114.169 132.611 114.748C132.201 115.321 131.996 116.278 131.996 117.619V123H129.701V112.199H131.498L131.82 113.615H131.938C132.237 113.101 132.67 112.704 133.236 112.424C133.809 112.144 134.438 112.004 135.121 112.004C136.781 112.004 137.882 112.57 138.422 113.703H138.578C138.897 113.169 139.346 112.753 139.926 112.453C140.505 112.154 141.169 112.004 141.918 112.004C143.207 112.004 144.145 112.329 144.73 112.98C145.323 113.632 145.619 114.624 145.619 115.959V123H143.324V116.34C143.324 115.513 143.165 114.898 142.846 114.494C142.533 114.084 142.045 113.879 141.381 113.879C140.489 113.879 139.835 114.159 139.418 114.719C139.008 115.272 138.803 116.125 138.803 117.277V123Z" fill="#7F8499"/>
</g>
<defs>
<filter id="filter0_d" x="0" y="0" width="210" height="210" filterUnits="userSpaceOnUse" color-interpolation-filters="sRGB">
<feFlood flood-opacity="0" result="BackgroundImageFix"/>
<feColorMatrix in="SourceAlpha" type="matrix" values="0 0 0 0 0 0 0 0 0 0 0 0 0 0 0 0 0 0 127 0"/>
<feOffset dy="4"/>
<feGaussianBlur stdDeviation="7.5"/>
<feColorMatrix type="matrix" values="0 0 0 0 0 0 0 0 0 0 0 0 0 0 0 0 0 0 0.15 0"/>
<feBlend mode="normal" in2="BackgroundImageFix" result="effect1_dropShadow"/>
<feBlend mode="normal" in="SourceGraphic" in2="effect1_dropShadow" result="shape"/>
</filter>
</defs>
</svg>
