<svg width="210" height="210" viewBox="0 0 210 210" fill="none" xmlns="http://www.w3.org/2000/svg">
<g filter="url(#filter0_d)">
<rect x="15" y="11" width="180" height="180" rx="7.50936" fill="white"/>
<path d="M55.79 92.5107C55.79 93.6533 55.377 94.5498 54.5508 95.2002C53.7246 95.8506 52.585 96.1758 51.1318 96.1758C49.6787 96.1758 48.4893 95.9502 47.5635 95.499V93.5127C48.1494 93.7881 48.7705 94.0049 49.4268 94.1631C50.0889 94.3213 50.7041 94.4004 51.2725 94.4004C52.1045 94.4004 52.7168 94.2422 53.1094 93.9258C53.5078 93.6094 53.707 93.1846 53.707 92.6514C53.707 92.1709 53.5254 91.7637 53.1621 91.4297C52.7988 91.0957 52.0488 90.7002 50.9121 90.2432C49.7402 89.7686 48.9141 89.2266 48.4336 88.6172C47.9531 88.0078 47.7129 87.2754 47.7129 86.4199C47.7129 85.3477 48.0938 84.5039 48.8555 83.8887C49.6172 83.2734 50.6396 82.9658 51.9229 82.9658C53.1533 82.9658 54.3779 83.2354 55.5967 83.7744L54.9287 85.4883C53.7861 85.0078 52.7666 84.7676 51.8701 84.7676C51.1904 84.7676 50.6748 84.917 50.3232 85.2158C49.9717 85.5088 49.7959 85.8984 49.7959 86.3848C49.7959 86.7188 49.8662 87.0059 50.0068 87.2461C50.1475 87.4805 50.3789 87.7031 50.7012 87.9141C51.0234 88.125 51.6035 88.4033 52.4414 88.749C53.3848 89.1416 54.0762 89.5078 54.5156 89.8477C54.9551 90.1875 55.2773 90.5713 55.4824 90.999C55.6875 91.4268 55.79 91.9307 55.79 92.5107ZM61.6787 94.5059C62.1826 94.5059 62.6865 94.4268 63.1904 94.2686V95.8242C62.9619 95.9238 62.666 96.0059 62.3027 96.0703C61.9453 96.1406 61.5732 96.1758 61.1865 96.1758C59.2295 96.1758 58.251 95.1445 58.251 93.082V87.8438H56.9238V86.9297L58.3477 86.1738L59.0508 84.1172H60.3252V86.2793H63.0938V87.8438H60.3252V93.0469C60.3252 93.5449 60.4482 93.9141 60.6943 94.1543C60.9463 94.3887 61.2744 94.5059 61.6787 94.5059ZM71.9971 96L71.707 94.7256H71.6016C71.3145 95.1768 70.9043 95.5312 70.3711 95.7891C69.8438 96.0469 69.2402 96.1758 68.5605 96.1758C67.3828 96.1758 66.5039 95.8828 65.9238 95.2969C65.3438 94.7109 65.0537 93.8232 65.0537 92.6338V86.2793H67.1367V92.2734C67.1367 93.0176 67.2891 93.5771 67.5938 93.9521C67.8984 94.3213 68.376 94.5059 69.0264 94.5059C69.8936 94.5059 70.5293 94.248 70.9336 93.7324C71.3438 93.2109 71.5488 92.3408 71.5488 91.1221V86.2793H73.623V96H71.9971ZM79.8457 96.1758C78.6328 96.1758 77.6865 95.7363 77.0068 94.8574C76.3271 93.9785 75.9873 92.7451 75.9873 91.1572C75.9873 89.5635 76.3301 88.3242 77.0156 87.4395C77.707 86.5488 78.6621 86.1035 79.8809 86.1035C81.1582 86.1035 82.1309 86.5752 82.7988 87.5186H82.9043C82.8047 86.8213 82.7549 86.2705 82.7549 85.8662V82.3242H84.8291V96H83.2119L82.8516 94.7256H82.7549C82.0928 95.6924 81.123 96.1758 79.8457 96.1758ZM80.3994 94.5059C81.249 94.5059 81.8672 94.2686 82.2539 93.7939C82.6406 93.3135 82.8398 92.5371 82.8516 91.4648V91.1748C82.8516 89.9502 82.6523 89.0801 82.2539 88.5645C81.8555 88.0488 81.2314 87.791 80.3818 87.791C79.6553 87.791 79.0957 88.0869 78.7031 88.6787C78.3105 89.2646 78.1143 90.1025 78.1143 91.1924C78.1143 92.2705 78.3047 93.0938 78.6855 93.6621C79.0664 94.2246 79.6377 94.5059 80.3994 94.5059ZM92.0273 96.1758C90.5156 96.1758 89.332 95.7363 88.4766 94.8574C87.627 93.9727 87.2021 92.7568 87.2021 91.21C87.2021 89.6221 87.5977 88.374 88.3887 87.4658C89.1797 86.5576 90.2666 86.1035 91.6494 86.1035C92.9326 86.1035 93.9463 86.4932 94.6904 87.2725C95.4346 88.0518 95.8066 89.124 95.8066 90.4893V91.6055H89.3291C89.3584 92.5488 89.6133 93.2754 90.0938 93.7852C90.5742 94.2891 91.251 94.541 92.124 94.541C92.6982 94.541 93.2314 94.4883 93.7236 94.3828C94.2217 94.2715 94.7549 94.0898 95.3232 93.8379V95.5166C94.8193 95.7568 94.3096 95.9268 93.7939 96.0264C93.2783 96.126 92.6895 96.1758 92.0273 96.1758ZM91.6494 87.668C90.9932 87.668 90.4658 87.876 90.0674 88.292C89.6748 88.708 89.4404 89.3145 89.3643 90.1113H93.7764C93.7646 89.3086 93.5713 88.7021 93.1963 88.292C92.8213 87.876 92.3057 87.668 91.6494 87.668ZM106.705 96H104.631V90.0234C104.631 89.2734 104.479 88.7139 104.174 88.3447C103.875 87.9756 103.397 87.791 102.741 87.791C101.868 87.791 101.229 88.0488 100.825 88.5645C100.421 89.0801 100.219 89.9443 100.219 91.1572V96H98.1533V86.2793H99.7705L100.061 87.5537H100.166C100.459 87.0908 100.875 86.7334 101.414 86.4814C101.953 86.2295 102.551 86.1035 103.207 86.1035C105.539 86.1035 106.705 87.29 106.705 89.6631V96ZM113.2 94.5059C113.704 94.5059 114.208 94.4268 114.712 94.2686V95.8242C114.483 95.9238 114.188 96.0059 113.824 96.0703C113.467 96.1406 113.095 96.1758 112.708 96.1758C110.751 96.1758 109.772 95.1445 109.772 93.082V87.8438H108.445V86.9297L109.869 86.1738L110.572 84.1172H111.847V86.2793H114.615V87.8438H111.847V93.0469C111.847 93.5449 111.97 93.9141 112.216 94.1543C112.468 94.3887 112.796 94.5059 113.2 94.5059ZM123.193 93.2314C123.193 94.1807 122.848 94.9102 122.156 95.4199C121.465 95.9238 120.475 96.1758 119.186 96.1758C117.891 96.1758 116.851 95.9795 116.065 95.5869V93.8027C117.208 94.3301 118.271 94.5938 119.256 94.5938C120.527 94.5938 121.163 94.21 121.163 93.4424C121.163 93.1963 121.093 92.9912 120.952 92.8271C120.812 92.6631 120.58 92.4932 120.258 92.3174C119.936 92.1416 119.487 91.9424 118.913 91.7197C117.794 91.2861 117.035 90.8525 116.637 90.4189C116.244 89.9854 116.048 89.4229 116.048 88.7314C116.048 87.8994 116.382 87.2549 117.05 86.7979C117.724 86.335 118.638 86.1035 119.792 86.1035C120.935 86.1035 122.016 86.335 123.035 86.7979L122.367 88.3535C121.318 87.9199 120.437 87.7031 119.722 87.7031C118.632 87.7031 118.087 88.0137 118.087 88.6348C118.087 88.9395 118.228 89.1973 118.509 89.4082C118.796 89.6191 119.417 89.9092 120.372 90.2783C121.175 90.5889 121.758 90.873 122.121 91.1309C122.484 91.3887 122.754 91.6875 122.93 92.0273C123.105 92.3613 123.193 92.7627 123.193 93.2314ZM132.176 96H130.11V82.3242H132.176V96ZM141.22 96L140.807 94.6465H140.736C140.268 95.2383 139.796 95.6426 139.321 95.8594C138.847 96.0703 138.237 96.1758 137.493 96.1758C136.538 96.1758 135.791 95.918 135.252 95.4023C134.719 94.8867 134.452 94.1572 134.452 93.2139C134.452 92.2119 134.824 91.4561 135.568 90.9463C136.312 90.4365 137.446 90.1582 138.97 90.1113L140.648 90.0586V89.54C140.648 88.9189 140.502 88.4561 140.209 88.1514C139.922 87.8408 139.474 87.6855 138.864 87.6855C138.366 87.6855 137.889 87.7588 137.432 87.9053C136.975 88.0518 136.535 88.2246 136.113 88.4238L135.445 86.9473C135.973 86.6719 136.55 86.4639 137.177 86.3232C137.804 86.1768 138.396 86.1035 138.952 86.1035C140.188 86.1035 141.12 86.373 141.747 86.9121C142.38 87.4512 142.696 88.2979 142.696 89.4521V96H141.22ZM138.144 94.5938C138.894 94.5938 139.494 94.3857 139.945 93.9697C140.402 93.5479 140.631 92.959 140.631 92.2031V91.3594L139.383 91.4121C138.41 91.4473 137.701 91.6113 137.256 91.9043C136.816 92.1914 136.597 92.6338 136.597 93.2314C136.597 93.665 136.726 94.002 136.983 94.2422C137.241 94.4766 137.628 94.5938 138.144 94.5938ZM149.499 96.1758C148.028 96.1758 146.909 95.748 146.142 94.8926C145.38 94.0312 144.999 92.7979 144.999 91.1924C144.999 89.5576 145.397 88.3008 146.194 87.4219C146.997 86.543 148.154 86.1035 149.666 86.1035C150.691 86.1035 151.614 86.2939 152.435 86.6748L151.811 88.3359C150.938 87.9961 150.217 87.8262 149.648 87.8262C147.967 87.8262 147.126 88.9424 147.126 91.1748C147.126 92.2646 147.334 93.085 147.75 93.6357C148.172 94.1807 148.787 94.4531 149.596 94.4531C150.516 94.4531 151.386 94.2246 152.206 93.7676V95.5693C151.837 95.7861 151.441 95.9414 151.02 96.0352C150.604 96.1289 150.097 96.1758 149.499 96.1758ZM156.486 90.8672L157.655 89.4082L160.591 86.2793H162.973L159.062 90.4541L163.219 96H160.793L157.673 91.7373L156.539 92.6689V96H154.491V82.3242H156.539V88.9951L156.434 90.8672H156.486ZM67.1982 121H65.124V115.006C65.124 114.262 64.9834 113.708 64.7021 113.345C64.4209 112.976 63.9814 112.791 63.3838 112.791C62.5869 112.791 62.001 113.052 61.626 113.573C61.2568 114.089 61.0723 114.95 61.0723 116.157V121H59.0068V111.279H60.624L60.9141 112.554H61.0195C61.2891 112.091 61.6787 111.733 62.1885 111.481C62.7041 111.229 63.2695 111.104 63.8848 111.104C65.3789 111.104 66.3691 111.613 66.8555 112.633H66.9961C67.2832 112.152 67.6875 111.777 68.209 111.508C68.7305 111.238 69.3281 111.104 70.002 111.104C71.1621 111.104 72.0059 111.396 72.5332 111.982C73.0664 112.568 73.333 113.462 73.333 114.663V121H71.2676V115.006C71.2676 114.262 71.124 113.708 70.8369 113.345C70.5557 112.976 70.1162 112.791 69.5186 112.791C68.7158 112.791 68.127 113.043 67.752 113.547C67.3828 114.045 67.1982 114.812 67.1982 115.85V121ZM84.8379 116.122C84.8379 117.71 84.4307 118.949 83.6162 119.84C82.8018 120.73 81.668 121.176 80.2148 121.176C79.3066 121.176 78.5039 120.971 77.8066 120.561C77.1094 120.15 76.5732 119.562 76.1982 118.794C75.8232 118.026 75.6357 117.136 75.6357 116.122C75.6357 114.546 76.04 113.315 76.8486 112.431C77.6572 111.546 78.7969 111.104 80.2676 111.104C81.6738 111.104 82.7871 111.558 83.6074 112.466C84.4277 113.368 84.8379 114.587 84.8379 116.122ZM77.7627 116.122C77.7627 118.366 78.5918 119.488 80.25 119.488C81.8906 119.488 82.7109 118.366 82.7109 116.122C82.7109 113.901 81.8848 112.791 80.2324 112.791C79.3652 112.791 78.7354 113.078 78.3428 113.652C77.9561 114.227 77.7627 115.05 77.7627 116.122ZM90.8408 119.506C91.3447 119.506 91.8486 119.427 92.3525 119.269V120.824C92.124 120.924 91.8281 121.006 91.4648 121.07C91.1074 121.141 90.7354 121.176 90.3486 121.176C88.3916 121.176 87.4131 120.145 87.4131 118.082V112.844H86.0859V111.93L87.5098 111.174L88.2129 109.117H89.4873V111.279H92.2559V112.844H89.4873V118.047C89.4873 118.545 89.6104 118.914 89.8564 119.154C90.1084 119.389 90.4365 119.506 90.8408 119.506ZM96.3691 121H94.3037V111.279H96.3691V121ZM94.1807 108.704C94.1807 108.335 94.2803 108.051 94.4795 107.852C94.6846 107.652 94.9746 107.553 95.3496 107.553C95.7129 107.553 95.9941 107.652 96.1934 107.852C96.3984 108.051 96.501 108.335 96.501 108.704C96.501 109.056 96.3984 109.334 96.1934 109.539C95.9941 109.738 95.7129 109.838 95.3496 109.838C94.9746 109.838 94.6846 109.738 94.4795 109.539C94.2803 109.334 94.1807 109.056 94.1807 108.704ZM101.546 121L97.8545 111.279H100.034L102.012 116.931C102.352 117.88 102.557 118.647 102.627 119.233H102.697C102.75 118.812 102.955 118.044 103.312 116.931L105.29 111.279H107.487L103.778 121H101.546ZM115.046 121L114.633 119.646H114.562C114.094 120.238 113.622 120.643 113.147 120.859C112.673 121.07 112.063 121.176 111.319 121.176C110.364 121.176 109.617 120.918 109.078 120.402C108.545 119.887 108.278 119.157 108.278 118.214C108.278 117.212 108.65 116.456 109.395 115.946C110.139 115.437 111.272 115.158 112.796 115.111L114.475 115.059V114.54C114.475 113.919 114.328 113.456 114.035 113.151C113.748 112.841 113.3 112.686 112.69 112.686C112.192 112.686 111.715 112.759 111.258 112.905C110.801 113.052 110.361 113.225 109.939 113.424L109.271 111.947C109.799 111.672 110.376 111.464 111.003 111.323C111.63 111.177 112.222 111.104 112.778 111.104C114.015 111.104 114.946 111.373 115.573 111.912C116.206 112.451 116.522 113.298 116.522 114.452V121H115.046ZM111.97 119.594C112.72 119.594 113.32 119.386 113.771 118.97C114.229 118.548 114.457 117.959 114.457 117.203V116.359L113.209 116.412C112.236 116.447 111.527 116.611 111.082 116.904C110.643 117.191 110.423 117.634 110.423 118.231C110.423 118.665 110.552 119.002 110.81 119.242C111.067 119.477 111.454 119.594 111.97 119.594ZM123.026 119.506C123.53 119.506 124.034 119.427 124.538 119.269V120.824C124.31 120.924 124.014 121.006 123.65 121.07C123.293 121.141 122.921 121.176 122.534 121.176C120.577 121.176 119.599 120.145 119.599 118.082V112.844H118.271V111.93L119.695 111.174L120.398 109.117H121.673V111.279H124.441V112.844H121.673V118.047C121.673 118.545 121.796 118.914 122.042 119.154C122.294 119.389 122.622 119.506 123.026 119.506ZM128.555 121H126.489V111.279H128.555V121ZM126.366 108.704C126.366 108.335 126.466 108.051 126.665 107.852C126.87 107.652 127.16 107.553 127.535 107.553C127.898 107.553 128.18 107.652 128.379 107.852C128.584 108.051 128.687 108.335 128.687 108.704C128.687 109.056 128.584 109.334 128.379 109.539C128.18 109.738 127.898 109.838 127.535 109.838C127.16 109.838 126.87 109.738 126.665 109.539C126.466 109.334 126.366 109.056 126.366 108.704ZM140.139 116.122C140.139 117.71 139.731 118.949 138.917 119.84C138.103 120.73 136.969 121.176 135.516 121.176C134.607 121.176 133.805 120.971 133.107 120.561C132.41 120.15 131.874 119.562 131.499 118.794C131.124 118.026 130.937 117.136 130.937 116.122C130.937 114.546 131.341 113.315 132.149 112.431C132.958 111.546 134.098 111.104 135.568 111.104C136.975 111.104 138.088 111.558 138.908 112.466C139.729 113.368 140.139 114.587 140.139 116.122ZM133.063 116.122C133.063 118.366 133.893 119.488 135.551 119.488C137.191 119.488 138.012 118.366 138.012 116.122C138.012 113.901 137.186 112.791 135.533 112.791C134.666 112.791 134.036 113.078 133.644 113.652C133.257 114.227 133.063 115.05 133.063 116.122ZM151.072 121H148.998V115.023C148.998 114.273 148.846 113.714 148.541 113.345C148.242 112.976 147.765 112.791 147.108 112.791C146.235 112.791 145.597 113.049 145.192 113.564C144.788 114.08 144.586 114.944 144.586 116.157V121H142.521V111.279H144.138L144.428 112.554H144.533C144.826 112.091 145.242 111.733 145.781 111.481C146.32 111.229 146.918 111.104 147.574 111.104C149.906 111.104 151.072 112.29 151.072 114.663V121Z" fill="#7F8499"/>
</g>
<defs>
<filter id="filter0_d" x="0" y="0" width="210" height="210" filterUnits="userSpaceOnUse" color-interpolation-filters="sRGB">
<feFlood flood-opacity="0" result="BackgroundImageFix"/>
<feColorMatrix in="SourceAlpha" type="matrix" values="0 0 0 0 0 0 0 0 0 0 0 0 0 0 0 0 0 0 127 0"/>
<feOffset dy="4"/>
<feGaussianBlur stdDeviation="7.5"/>
<feColorMatrix type="matrix" values="0 0 0 0 0 0 0 0 0 0 0 0 0 0 0 0 0 0 0.15 0"/>
<feBlend mode="normal" in2="BackgroundImageFix" result="effect1_dropShadow"/>
<feBlend mode="normal" in="SourceGraphic" in2="effect1_dropShadow" result="shape"/>
</filter>
</defs>
</svg>
