<svg width="210" height="210" viewBox="0 0 210 210" fill="none" xmlns="http://www.w3.org/2000/svg">
<g filter="url(#filter0_d)">
<rect x="15" y="11" width="180" height="180" rx="7.50936" fill="white"/>
<path d="M51.1064 81H49.0059V69.9521H45.2266V68.1504H54.8857V69.9521H51.1064V81ZM65.1953 81H63.1211V75.0234C63.1211 74.2734 62.9688 73.7139 62.6641 73.3447C62.3652 72.9756 61.8877 72.791 61.2314 72.791C60.3643 72.791 59.7256 73.0518 59.3154 73.5732C58.9111 74.0889 58.709 74.9561 58.709 76.1748V81H56.6436V67.3242H58.709V70.7959C58.709 71.3525 58.6738 71.9473 58.6035 72.5801H58.7354C59.0166 72.1113 59.4062 71.748 59.9043 71.4902C60.4082 71.2324 60.9941 71.1035 61.6621 71.1035C64.0176 71.1035 65.1953 72.29 65.1953 74.6631V81ZM72.3145 81.1758C70.8027 81.1758 69.6191 80.7363 68.7637 79.8574C67.9141 78.9727 67.4893 77.7568 67.4893 76.21C67.4893 74.6221 67.8848 73.374 68.6758 72.4658C69.4668 71.5576 70.5537 71.1035 71.9365 71.1035C73.2197 71.1035 74.2334 71.4932 74.9775 72.2725C75.7217 73.0518 76.0938 74.124 76.0938 75.4893V76.6055H69.6162C69.6455 77.5488 69.9004 78.2754 70.3809 78.7852C70.8613 79.2891 71.5381 79.541 72.4111 79.541C72.9854 79.541 73.5186 79.4883 74.0107 79.3828C74.5088 79.2715 75.042 79.0898 75.6104 78.8379V80.5166C75.1064 80.7568 74.5967 80.9268 74.0811 81.0264C73.5654 81.126 72.9766 81.1758 72.3145 81.1758ZM71.9365 72.668C71.2803 72.668 70.7529 72.876 70.3545 73.292C69.9619 73.708 69.7275 74.3145 69.6514 75.1113H74.0635C74.0518 74.3086 73.8584 73.7021 73.4834 73.292C73.1084 72.876 72.5928 72.668 71.9365 72.668ZM87.0361 81.1758C85.5654 81.1758 84.4463 80.748 83.6787 79.8926C82.917 79.0312 82.5361 77.7979 82.5361 76.1924C82.5361 74.5576 82.9346 73.3008 83.7314 72.4219C84.5342 71.543 85.6914 71.1035 87.2031 71.1035C88.2285 71.1035 89.1514 71.2939 89.9717 71.6748L89.3477 73.3359C88.4746 72.9961 87.7539 72.8262 87.1855 72.8262C85.5039 72.8262 84.6631 73.9424 84.6631 76.1748C84.6631 77.2646 84.8711 78.085 85.2871 78.6357C85.709 79.1807 86.3242 79.4531 87.1328 79.4531C88.0527 79.4531 88.9229 79.2246 89.7432 78.7676V80.5693C89.374 80.7861 88.9785 80.9414 88.5566 81.0352C88.1406 81.1289 87.6338 81.1758 87.0361 81.1758ZM94.0938 81H92.0283V67.3242H94.0938V81ZM103.138 81L102.725 79.6465H102.654C102.186 80.2383 101.714 80.6426 101.239 80.8594C100.765 81.0703 100.155 81.1758 99.4111 81.1758C98.4561 81.1758 97.709 80.918 97.1699 80.4023C96.6367 79.8867 96.3701 79.1572 96.3701 78.2139C96.3701 77.2119 96.7422 76.4561 97.4863 75.9463C98.2305 75.4365 99.3643 75.1582 100.888 75.1113L102.566 75.0586V74.54C102.566 73.9189 102.42 73.4561 102.127 73.1514C101.84 72.8408 101.392 72.6855 100.782 72.6855C100.284 72.6855 99.8066 72.7588 99.3496 72.9053C98.8926 73.0518 98.4531 73.2246 98.0312 73.4238L97.3633 71.9473C97.8906 71.6719 98.4678 71.4639 99.0947 71.3232C99.7217 71.1768 100.313 71.1035 100.87 71.1035C102.106 71.1035 103.038 71.373 103.665 71.9121C104.298 72.4512 104.614 73.2979 104.614 74.4521V81H103.138ZM100.062 79.5938C100.812 79.5938 101.412 79.3857 101.863 78.9697C102.32 78.5479 102.549 77.959 102.549 77.2031V76.3594L101.301 76.4121C100.328 76.4473 99.6191 76.6113 99.1738 76.9043C98.7344 77.1914 98.5146 77.6338 98.5146 78.2314C98.5146 78.665 98.6436 79.002 98.9014 79.2422C99.1592 79.4766 99.5459 79.5938 100.062 79.5938ZM114.027 78.2314C114.027 79.1807 113.682 79.9102 112.99 80.4199C112.299 80.9238 111.309 81.1758 110.02 81.1758C108.725 81.1758 107.685 80.9795 106.899 80.5869V78.8027C108.042 79.3301 109.105 79.5938 110.09 79.5938C111.361 79.5938 111.997 79.21 111.997 78.4424C111.997 78.1963 111.927 77.9912 111.786 77.8271C111.646 77.6631 111.414 77.4932 111.092 77.3174C110.77 77.1416 110.321 76.9424 109.747 76.7197C108.628 76.2861 107.869 75.8525 107.471 75.4189C107.078 74.9854 106.882 74.4229 106.882 73.7314C106.882 72.8994 107.216 72.2549 107.884 71.7979C108.558 71.335 109.472 71.1035 110.626 71.1035C111.769 71.1035 112.85 71.335 113.869 71.7979L113.201 73.3535C112.152 72.9199 111.271 72.7031 110.556 72.7031C109.466 72.7031 108.921 73.0137 108.921 73.6348C108.921 73.9395 109.062 74.1973 109.343 74.4082C109.63 74.6191 110.251 74.9092 111.206 75.2783C112.009 75.5889 112.592 75.873 112.955 76.1309C113.318 76.3887 113.588 76.6875 113.764 77.0273C113.939 77.3613 114.027 77.7627 114.027 78.2314ZM122.799 78.2314C122.799 79.1807 122.453 79.9102 121.762 80.4199C121.07 80.9238 120.08 81.1758 118.791 81.1758C117.496 81.1758 116.456 80.9795 115.671 80.5869V78.8027C116.813 79.3301 117.877 79.5938 118.861 79.5938C120.133 79.5938 120.769 79.21 120.769 78.4424C120.769 78.1963 120.698 77.9912 120.558 77.8271C120.417 77.6631 120.186 77.4932 119.863 77.3174C119.541 77.1416 119.093 76.9424 118.519 76.7197C117.399 76.2861 116.641 75.8525 116.242 75.4189C115.85 74.9854 115.653 74.4229 115.653 73.7314C115.653 72.8994 115.987 72.2549 116.655 71.7979C117.329 71.335 118.243 71.1035 119.397 71.1035C120.54 71.1035 121.621 71.335 122.641 71.7979L121.973 73.3535C120.924 72.9199 120.042 72.7031 119.327 72.7031C118.237 72.7031 117.692 73.0137 117.692 73.6348C117.692 73.9395 117.833 74.1973 118.114 74.4082C118.401 74.6191 119.022 74.9092 119.978 75.2783C120.78 75.5889 121.363 75.873 121.727 76.1309C122.09 76.3887 122.359 76.6875 122.535 77.0273C122.711 77.3613 122.799 77.7627 122.799 78.2314ZM131.781 81H129.716V71.2793H131.781V81ZM129.593 68.7041C129.593 68.335 129.692 68.0508 129.892 67.8516C130.097 67.6523 130.387 67.5527 130.762 67.5527C131.125 67.5527 131.406 67.6523 131.605 67.8516C131.811 68.0508 131.913 68.335 131.913 68.7041C131.913 69.0557 131.811 69.334 131.605 69.5391C131.406 69.7383 131.125 69.8379 130.762 69.8379C130.387 69.8379 130.097 69.7383 129.892 69.5391C129.692 69.334 129.593 69.0557 129.593 68.7041ZM141.273 78.2314C141.273 79.1807 140.928 79.9102 140.236 80.4199C139.545 80.9238 138.555 81.1758 137.266 81.1758C135.971 81.1758 134.931 80.9795 134.146 80.5869V78.8027C135.288 79.3301 136.352 79.5938 137.336 79.5938C138.607 79.5938 139.243 79.21 139.243 78.4424C139.243 78.1963 139.173 77.9912 139.032 77.8271C138.892 77.6631 138.66 77.4932 138.338 77.3174C138.016 77.1416 137.567 76.9424 136.993 76.7197C135.874 76.2861 135.115 75.8525 134.717 75.4189C134.324 74.9854 134.128 74.4229 134.128 73.7314C134.128 72.8994 134.462 72.2549 135.13 71.7979C135.804 71.335 136.718 71.1035 137.872 71.1035C139.015 71.1035 140.096 71.335 141.115 71.7979L140.447 73.3535C139.398 72.9199 138.517 72.7031 137.802 72.7031C136.712 72.7031 136.167 73.0137 136.167 73.6348C136.167 73.9395 136.308 74.1973 136.589 74.4082C136.876 74.6191 137.497 74.9092 138.452 75.2783C139.255 75.5889 139.838 75.873 140.201 76.1309C140.564 76.3887 140.834 76.6875 141.01 77.0273C141.186 77.3613 141.273 77.7627 141.273 78.2314ZM152.066 81H149.992V75.0234C149.992 74.2734 149.84 73.7139 149.535 73.3447C149.236 72.9756 148.759 72.791 148.103 72.791C147.229 72.791 146.591 73.0488 146.187 73.5645C145.782 74.0801 145.58 74.9443 145.58 76.1572V81H143.515V71.2793H145.132L145.422 72.5537H145.527C145.82 72.0908 146.236 71.7334 146.775 71.4814C147.314 71.2295 147.912 71.1035 148.568 71.1035C150.9 71.1035 152.066 72.29 152.066 74.6631V81ZM156.593 68.1504L156.725 68.3438C156.414 69.5684 155.898 70.9717 155.178 72.5537H153.684C154.088 70.8604 154.381 69.3926 154.562 68.1504H156.593ZM162.042 79.5059C162.546 79.5059 163.05 79.4268 163.554 79.2686V80.8242C163.325 80.9238 163.029 81.0059 162.666 81.0703C162.309 81.1406 161.937 81.1758 161.55 81.1758C159.593 81.1758 158.614 80.1445 158.614 78.082V72.8438H157.287V71.9297L158.711 71.1738L159.414 69.1172H160.688V71.2793H163.457V72.8438H160.688V78.0469C160.688 78.5449 160.812 78.9141 161.058 79.1543C161.31 79.3887 161.638 79.5059 162.042 79.5059ZM55.7031 103.231C55.7031 104.181 55.3574 104.91 54.666 105.42C53.9746 105.924 52.9844 106.176 51.6953 106.176C50.4004 106.176 49.3604 105.979 48.5752 105.587V103.803C49.7178 104.33 50.7812 104.594 51.7656 104.594C53.0371 104.594 53.6729 104.21 53.6729 103.442C53.6729 103.196 53.6025 102.991 53.4619 102.827C53.3213 102.663 53.0898 102.493 52.7676 102.317C52.4453 102.142 51.9971 101.942 51.4229 101.72C50.3037 101.286 49.5449 100.853 49.1465 100.419C48.7539 99.9854 48.5576 99.4229 48.5576 98.7314C48.5576 97.8994 48.8916 97.2549 49.5596 96.7979C50.2334 96.335 51.1475 96.1035 52.3018 96.1035C53.4443 96.1035 54.5254 96.335 55.5449 96.7979L54.877 98.3535C53.8281 97.9199 52.9463 97.7031 52.2314 97.7031C51.1416 97.7031 50.5967 98.0137 50.5967 98.6348C50.5967 98.9395 50.7373 99.1973 51.0186 99.4082C51.3057 99.6191 51.9268 99.9092 52.8818 100.278C53.6846 100.589 54.2676 100.873 54.6309 101.131C54.9941 101.389 55.2637 101.688 55.4395 102.027C55.6152 102.361 55.7031 102.763 55.7031 103.231ZM61.5654 104.506C62.0693 104.506 62.5732 104.427 63.0771 104.269V105.824C62.8486 105.924 62.5527 106.006 62.1895 106.07C61.832 106.141 61.46 106.176 61.0732 106.176C59.1162 106.176 58.1377 105.145 58.1377 103.082V97.8438H56.8105V96.9297L58.2344 96.1738L58.9375 94.1172H60.2119V96.2793H62.9805V97.8438H60.2119V103.047C60.2119 103.545 60.335 103.914 60.5811 104.154C60.833 104.389 61.1611 104.506 61.5654 104.506ZM71.8838 106L71.5938 104.726H71.4883C71.2012 105.177 70.791 105.531 70.2578 105.789C69.7305 106.047 69.127 106.176 68.4473 106.176C67.2695 106.176 66.3906 105.883 65.8105 105.297C65.2305 104.711 64.9404 103.823 64.9404 102.634V96.2793H67.0234V102.273C67.0234 103.018 67.1758 103.577 67.4805 103.952C67.7852 104.321 68.2627 104.506 68.9131 104.506C69.7803 104.506 70.416 104.248 70.8203 103.732C71.2305 103.211 71.4355 102.341 71.4355 101.122V96.2793H73.5098V106H71.8838ZM79.7324 106.176C78.5195 106.176 77.5732 105.736 76.8936 104.857C76.2139 103.979 75.874 102.745 75.874 101.157C75.874 99.5635 76.2168 98.3242 76.9023 97.4395C77.5938 96.5488 78.5488 96.1035 79.7676 96.1035C81.0449 96.1035 82.0176 96.5752 82.6855 97.5186H82.791C82.6914 96.8213 82.6416 96.2705 82.6416 95.8662V92.3242H84.7158V106H83.0986L82.7383 104.726H82.6416C81.9795 105.692 81.0098 106.176 79.7324 106.176ZM80.2861 104.506C81.1357 104.506 81.7539 104.269 82.1406 103.794C82.5273 103.313 82.7266 102.537 82.7383 101.465V101.175C82.7383 99.9502 82.5391 99.0801 82.1406 98.5645C81.7422 98.0488 81.1182 97.791 80.2686 97.791C79.542 97.791 78.9824 98.0869 78.5898 98.6787C78.1973 99.2646 78.001 100.103 78.001 101.192C78.001 102.271 78.1914 103.094 78.5723 103.662C78.9531 104.225 79.5244 104.506 80.2861 104.506ZM91.9141 106.176C90.4023 106.176 89.2188 105.736 88.3633 104.857C87.5137 103.973 87.0889 102.757 87.0889 101.21C87.0889 99.6221 87.4844 98.374 88.2754 97.4658C89.0664 96.5576 90.1533 96.1035 91.5361 96.1035C92.8193 96.1035 93.833 96.4932 94.5771 97.2725C95.3213 98.0518 95.6934 99.124 95.6934 100.489V101.605H89.2158C89.2451 102.549 89.5 103.275 89.9805 103.785C90.4609 104.289 91.1377 104.541 92.0107 104.541C92.585 104.541 93.1182 104.488 93.6104 104.383C94.1084 104.271 94.6416 104.09 95.21 103.838V105.517C94.7061 105.757 94.1963 105.927 93.6807 106.026C93.165 106.126 92.5762 106.176 91.9141 106.176ZM91.5361 97.668C90.8799 97.668 90.3525 97.876 89.9541 98.292C89.5615 98.708 89.3271 99.3145 89.251 100.111H93.6631C93.6514 99.3086 93.458 98.7021 93.083 98.292C92.708 97.876 92.1924 97.668 91.5361 97.668ZM106.592 106H104.518V100.023C104.518 99.2734 104.365 98.7139 104.061 98.3447C103.762 97.9756 103.284 97.791 102.628 97.791C101.755 97.791 101.116 98.0488 100.712 98.5645C100.308 99.0801 100.105 99.9443 100.105 101.157V106H98.04V96.2793H99.6572L99.9473 97.5537H100.053C100.346 97.0908 100.762 96.7334 101.301 96.4814C101.84 96.2295 102.438 96.1035 103.094 96.1035C105.426 96.1035 106.592 97.29 106.592 99.6631V106ZM113.087 104.506C113.591 104.506 114.095 104.427 114.599 104.269V105.824C114.37 105.924 114.074 106.006 113.711 106.07C113.354 106.141 112.981 106.176 112.595 106.176C110.638 106.176 109.659 105.145 109.659 103.082V97.8438H108.332V96.9297L109.756 96.1738L110.459 94.1172H111.733V96.2793H114.502V97.8438H111.733V103.047C111.733 103.545 111.856 103.914 112.103 104.154C112.354 104.389 112.683 104.506 113.087 104.506ZM118.202 93.1504L118.334 93.3438C118.023 94.5684 117.508 95.9717 116.787 97.5537H115.293C115.697 95.8604 115.99 94.3926 116.172 93.1504H118.202ZM126.561 103.231C126.561 104.181 126.215 104.91 125.523 105.42C124.832 105.924 123.842 106.176 122.553 106.176C121.258 106.176 120.218 105.979 119.433 105.587V103.803C120.575 104.33 121.639 104.594 122.623 104.594C123.895 104.594 124.53 104.21 124.53 103.442C124.53 103.196 124.46 102.991 124.319 102.827C124.179 102.663 123.947 102.493 123.625 102.317C123.303 102.142 122.854 101.942 122.28 101.72C121.161 101.286 120.402 100.853 120.004 100.419C119.611 99.9854 119.415 99.4229 119.415 98.7314C119.415 97.8994 119.749 97.2549 120.417 96.7979C121.091 96.335 122.005 96.1035 123.159 96.1035C124.302 96.1035 125.383 96.335 126.402 96.7979L125.734 98.3535C124.686 97.9199 123.804 97.7031 123.089 97.7031C121.999 97.7031 121.454 98.0137 121.454 98.6348C121.454 98.9395 121.595 99.1973 121.876 99.4082C122.163 99.6191 122.784 99.9092 123.739 100.278C124.542 100.589 125.125 100.873 125.488 101.131C125.852 101.389 126.121 101.688 126.297 102.027C126.473 102.361 126.561 102.763 126.561 103.231ZM137.099 104.506C137.603 104.506 138.106 104.427 138.61 104.269V105.824C138.382 105.924 138.086 106.006 137.723 106.07C137.365 106.141 136.993 106.176 136.606 106.176C134.649 106.176 133.671 105.145 133.671 103.082V97.8438H132.344V96.9297L133.768 96.1738L134.471 94.1172H135.745V96.2793H138.514V97.8438H135.745V103.047C135.745 103.545 135.868 103.914 136.114 104.154C136.366 104.389 136.694 104.506 137.099 104.506ZM149.184 101.122C149.184 102.71 148.776 103.949 147.962 104.84C147.147 105.73 146.014 106.176 144.561 106.176C143.652 106.176 142.85 105.971 142.152 105.561C141.455 105.15 140.919 104.562 140.544 103.794C140.169 103.026 139.981 102.136 139.981 101.122C139.981 99.5459 140.386 98.3154 141.194 97.4307C142.003 96.5459 143.143 96.1035 144.613 96.1035C146.02 96.1035 147.133 96.5576 147.953 97.4658C148.773 98.3682 149.184 99.5869 149.184 101.122ZM142.108 101.122C142.108 103.366 142.938 104.488 144.596 104.488C146.236 104.488 147.057 103.366 147.057 101.122C147.057 98.9014 146.23 97.791 144.578 97.791C143.711 97.791 143.081 98.0781 142.688 98.6523C142.302 99.2266 142.108 100.05 142.108 101.122ZM156.496 106.176C155.266 106.176 154.311 105.733 153.631 104.849H153.508C153.59 105.669 153.631 106.167 153.631 106.343V110.324H151.565V96.2793H153.235C153.282 96.4609 153.379 96.8945 153.525 97.5801H153.631C154.275 96.5957 155.242 96.1035 156.531 96.1035C157.744 96.1035 158.688 96.543 159.361 97.4219C160.041 98.3008 160.381 99.5342 160.381 101.122C160.381 102.71 160.035 103.949 159.344 104.84C158.658 105.73 157.709 106.176 156.496 106.176ZM155.995 97.791C155.175 97.791 154.574 98.0312 154.193 98.5117C153.818 98.9922 153.631 99.7598 153.631 100.814V101.122C153.631 102.306 153.818 103.164 154.193 103.697C154.568 104.225 155.181 104.488 156.03 104.488C156.745 104.488 157.296 104.195 157.683 103.609C158.069 103.023 158.263 102.188 158.263 101.104C158.263 100.015 158.069 99.1914 157.683 98.6348C157.302 98.0723 156.739 97.791 155.995 97.791ZM78.6338 131.176C77.4033 131.176 76.4482 130.733 75.7686 129.849H75.6455C75.7275 130.669 75.7686 131.167 75.7686 131.343V135.324H73.7031V121.279H75.373C75.4199 121.461 75.5166 121.895 75.6631 122.58H75.7686C76.4131 121.596 77.3799 121.104 78.6689 121.104C79.8818 121.104 80.8252 121.543 81.499 122.422C82.1787 123.301 82.5186 124.534 82.5186 126.122C82.5186 127.71 82.1729 128.949 81.4814 129.84C80.7959 130.73 79.8467 131.176 78.6338 131.176ZM78.1328 122.791C77.3125 122.791 76.7119 123.031 76.3311 123.512C75.9561 123.992 75.7686 124.76 75.7686 125.814V126.122C75.7686 127.306 75.9561 128.164 76.3311 128.697C76.7061 129.225 77.3184 129.488 78.168 129.488C78.8828 129.488 79.4336 129.195 79.8203 128.609C80.207 128.023 80.4004 127.188 80.4004 126.104C80.4004 125.015 80.207 124.191 79.8203 123.635C79.4395 123.072 78.877 122.791 78.1328 122.791ZM89.8486 121.104C90.2646 121.104 90.6074 121.133 90.877 121.191L90.6748 123.116C90.3818 123.046 90.0771 123.011 89.7607 123.011C88.9346 123.011 88.2637 123.28 87.748 123.819C87.2383 124.358 86.9834 125.059 86.9834 125.92V131H84.918V121.279H86.5352L86.8076 122.993H86.9131C87.2354 122.413 87.6543 121.953 88.1699 121.613C88.6914 121.273 89.251 121.104 89.8486 121.104ZM94.7529 131H92.6875V121.279H94.7529V131ZM92.5645 118.704C92.5645 118.335 92.6641 118.051 92.8633 117.852C93.0684 117.652 93.3584 117.553 93.7334 117.553C94.0967 117.553 94.3779 117.652 94.5771 117.852C94.7822 118.051 94.8848 118.335 94.8848 118.704C94.8848 119.056 94.7822 119.334 94.5771 119.539C94.3779 119.738 94.0967 119.838 93.7334 119.838C93.3584 119.838 93.0684 119.738 92.8633 119.539C92.6641 119.334 92.5645 119.056 92.5645 118.704ZM106.337 126.122C106.337 127.71 105.93 128.949 105.115 129.84C104.301 130.73 103.167 131.176 101.714 131.176C100.806 131.176 100.003 130.971 99.3057 130.561C98.6084 130.15 98.0723 129.562 97.6973 128.794C97.3223 128.026 97.1348 127.136 97.1348 126.122C97.1348 124.546 97.5391 123.315 98.3477 122.431C99.1562 121.546 100.296 121.104 101.767 121.104C103.173 121.104 104.286 121.558 105.106 122.466C105.927 123.368 106.337 124.587 106.337 126.122ZM99.2617 126.122C99.2617 128.366 100.091 129.488 101.749 129.488C103.39 129.488 104.21 128.366 104.21 126.122C104.21 123.901 103.384 122.791 101.731 122.791C100.864 122.791 100.234 123.078 99.8418 123.652C99.4551 124.227 99.2617 125.05 99.2617 126.122ZM113.649 121.104C114.065 121.104 114.408 121.133 114.678 121.191L114.476 123.116C114.183 123.046 113.878 123.011 113.562 123.011C112.735 123.011 112.064 123.28 111.549 123.819C111.039 124.358 110.784 125.059 110.784 125.92V131H108.719V121.279H110.336L110.608 122.993H110.714C111.036 122.413 111.455 121.953 111.971 121.613C112.492 121.273 113.052 121.104 113.649 121.104ZM118.554 131H116.488V121.279H118.554V131ZM116.365 118.704C116.365 118.335 116.465 118.051 116.664 117.852C116.869 117.652 117.159 117.553 117.534 117.553C117.897 117.553 118.179 117.652 118.378 117.852C118.583 118.051 118.686 118.335 118.686 118.704C118.686 119.056 118.583 119.334 118.378 119.539C118.179 119.738 117.897 119.838 117.534 119.838C117.159 119.838 116.869 119.738 116.664 119.539C116.465 119.334 116.365 119.056 116.365 118.704ZM125.137 129.506C125.641 129.506 126.145 129.427 126.648 129.269V130.824C126.42 130.924 126.124 131.006 125.761 131.07C125.403 131.141 125.031 131.176 124.645 131.176C122.688 131.176 121.709 130.145 121.709 128.082V122.844H120.382V121.93L121.806 121.174L122.509 119.117H123.783V121.279H126.552V122.844H123.783V128.047C123.783 128.545 123.906 128.914 124.152 129.154C124.404 129.389 124.732 129.506 125.137 129.506ZM127.123 121.279H129.373L131.351 126.79C131.649 127.575 131.849 128.313 131.948 129.005H132.019C132.071 128.683 132.168 128.293 132.309 127.836C132.449 127.373 133.193 125.188 134.541 121.279H136.773L132.616 132.292C131.86 134.313 130.601 135.324 128.837 135.324C128.38 135.324 127.935 135.274 127.501 135.175V133.54C127.812 133.61 128.166 133.646 128.564 133.646C129.561 133.646 130.261 133.068 130.665 131.914L131.025 131L127.123 121.279Z" fill="#7F8499"/>
</g>
<defs>
<filter id="filter0_d" x="0" y="0" width="210" height="210" filterUnits="userSpaceOnUse" color-interpolation-filters="sRGB">
<feFlood flood-opacity="0" result="BackgroundImageFix"/>
<feColorMatrix in="SourceAlpha" type="matrix" values="0 0 0 0 0 0 0 0 0 0 0 0 0 0 0 0 0 0 127 0"/>
<feOffset dy="4"/>
<feGaussianBlur stdDeviation="7.5"/>
<feColorMatrix type="matrix" values="0 0 0 0 0 0 0 0 0 0 0 0 0 0 0 0 0 0 0.15 0"/>
<feBlend mode="normal" in2="BackgroundImageFix" result="effect1_dropShadow"/>
<feBlend mode="normal" in="SourceGraphic" in2="effect1_dropShadow" result="shape"/>
</filter>
</defs>
</svg>
