<svg width="210" height="210" viewBox="0 0 210 210" fill="none" xmlns="http://www.w3.org/2000/svg">
<g filter="url(#filter0_d)">
<rect x="15" y="11" width="180" height="180" rx="7.50936" fill="white"/>
<path d="M73.6035 77.5107C73.6035 78.6533 73.1904 79.5498 72.3643 80.2002C71.5381 80.8506 70.3984 81.1758 68.9453 81.1758C67.4922 81.1758 66.3027 80.9502 65.377 80.499V78.5127C65.9629 78.7881 66.584 79.0049 67.2402 79.1631C67.9023 79.3213 68.5176 79.4004 69.0859 79.4004C69.918 79.4004 70.5303 79.2422 70.9229 78.9258C71.3213 78.6094 71.5205 78.1846 71.5205 77.6514C71.5205 77.1709 71.3389 76.7637 70.9756 76.4297C70.6123 76.0957 69.8623 75.7002 68.7256 75.2432C67.5537 74.7686 66.7275 74.2266 66.2471 73.6172C65.7666 73.0078 65.5264 72.2754 65.5264 71.4199C65.5264 70.3477 65.9072 69.5039 66.6689 68.8887C67.4307 68.2734 68.4531 67.9658 69.7363 67.9658C70.9668 67.9658 72.1914 68.2354 73.4102 68.7744L72.7422 70.4883C71.5996 70.0078 70.5801 69.7676 69.6836 69.7676C69.0039 69.7676 68.4883 69.917 68.1367 70.2158C67.7852 70.5088 67.6094 70.8984 67.6094 71.3848C67.6094 71.7188 67.6797 72.0059 67.8203 72.2461C67.9609 72.4805 68.1924 72.7031 68.5146 72.9141C68.8369 73.125 69.417 73.4033 70.2549 73.749C71.1982 74.1416 71.8896 74.5078 72.3291 74.8477C72.7686 75.1875 73.0908 75.5713 73.2959 75.999C73.501 76.4268 73.6035 76.9307 73.6035 77.5107ZM79.4922 79.5059C79.9961 79.5059 80.5 79.4268 81.0039 79.2686V80.8242C80.7754 80.9238 80.4795 81.0059 80.1162 81.0703C79.7588 81.1406 79.3867 81.1758 79 81.1758C77.043 81.1758 76.0645 80.1445 76.0645 78.082V72.8438H74.7373V71.9297L76.1611 71.1738L76.8643 69.1172H78.1387V71.2793H80.9072V72.8438H78.1387V78.0469C78.1387 78.5449 78.2617 78.9141 78.5078 79.1543C78.7598 79.3887 79.0879 79.5059 79.4922 79.5059ZM89.8105 81L89.5205 79.7256H89.415C89.1279 80.1768 88.7178 80.5312 88.1846 80.7891C87.6572 81.0469 87.0537 81.1758 86.374 81.1758C85.1963 81.1758 84.3174 80.8828 83.7373 80.2969C83.1572 79.7109 82.8672 78.8232 82.8672 77.6338V71.2793H84.9502V77.2734C84.9502 78.0176 85.1025 78.5771 85.4072 78.9521C85.7119 79.3213 86.1895 79.5059 86.8398 79.5059C87.707 79.5059 88.3428 79.248 88.7471 78.7324C89.1572 78.2109 89.3623 77.3408 89.3623 76.1221V71.2793H91.4365V81H89.8105ZM97.6592 81.1758C96.4463 81.1758 95.5 80.7363 94.8203 79.8574C94.1406 78.9785 93.8008 77.7451 93.8008 76.1572C93.8008 74.5635 94.1436 73.3242 94.8291 72.4395C95.5205 71.5488 96.4756 71.1035 97.6943 71.1035C98.9717 71.1035 99.9443 71.5752 100.612 72.5186H100.718C100.618 71.8213 100.568 71.2705 100.568 70.8662V67.3242H102.643V81H101.025L100.665 79.7256H100.568C99.9062 80.6924 98.9365 81.1758 97.6592 81.1758ZM98.2129 79.5059C99.0625 79.5059 99.6807 79.2686 100.067 78.7939C100.454 78.3135 100.653 77.5371 100.665 76.4648V76.1748C100.665 74.9502 100.466 74.0801 100.067 73.5645C99.6689 73.0488 99.0449 72.791 98.1953 72.791C97.4688 72.791 96.9092 73.0869 96.5166 73.6787C96.124 74.2646 95.9277 75.1025 95.9277 76.1924C95.9277 77.2705 96.1182 78.0938 96.499 78.6621C96.8799 79.2246 97.4512 79.5059 98.2129 79.5059ZM109.841 81.1758C108.329 81.1758 107.146 80.7363 106.29 79.8574C105.44 78.9727 105.016 77.7568 105.016 76.21C105.016 74.6221 105.411 73.374 106.202 72.4658C106.993 71.5576 108.08 71.1035 109.463 71.1035C110.746 71.1035 111.76 71.4932 112.504 72.2725C113.248 73.0518 113.62 74.124 113.62 75.4893V76.6055H107.143C107.172 77.5488 107.427 78.2754 107.907 78.7852C108.388 79.2891 109.064 79.541 109.938 79.541C110.512 79.541 111.045 79.4883 111.537 79.3828C112.035 79.2715 112.568 79.0898 113.137 78.8379V80.5166C112.633 80.7568 112.123 80.9268 111.607 81.0264C111.092 81.126 110.503 81.1758 109.841 81.1758ZM109.463 72.668C108.807 72.668 108.279 72.876 107.881 73.292C107.488 73.708 107.254 74.3145 107.178 75.1113H111.59C111.578 74.3086 111.385 73.7021 111.01 73.292C110.635 72.876 110.119 72.668 109.463 72.668ZM124.519 81H122.444V75.0234C122.444 74.2734 122.292 73.7139 121.987 73.3447C121.688 72.9756 121.211 72.791 120.555 72.791C119.682 72.791 119.043 73.0488 118.639 73.5645C118.234 74.0801 118.032 74.9443 118.032 76.1572V81H115.967V71.2793H117.584L117.874 72.5537H117.979C118.272 72.0908 118.688 71.7334 119.228 71.4814C119.767 71.2295 120.364 71.1035 121.021 71.1035C123.353 71.1035 124.519 72.29 124.519 74.6631V81ZM131.014 79.5059C131.518 79.5059 132.021 79.4268 132.525 79.2686V80.8242C132.297 80.9238 132.001 81.0059 131.638 81.0703C131.28 81.1406 130.908 81.1758 130.521 81.1758C128.564 81.1758 127.586 80.1445 127.586 78.082V72.8438H126.259V71.9297L127.683 71.1738L128.386 69.1172H129.66V71.2793H132.429V72.8438H129.66V78.0469C129.66 78.5449 129.783 78.9141 130.029 79.1543C130.281 79.3887 130.609 79.5059 131.014 79.5059ZM136.129 68.1504L136.261 68.3438C135.95 69.5684 135.435 70.9717 134.714 72.5537H133.22C133.624 70.8604 133.917 69.3926 134.099 68.1504H136.129ZM144.487 78.2314C144.487 79.1807 144.142 79.9102 143.45 80.4199C142.759 80.9238 141.769 81.1758 140.479 81.1758C139.185 81.1758 138.145 80.9795 137.359 80.5869V78.8027C138.502 79.3301 139.565 79.5938 140.55 79.5938C141.821 79.5938 142.457 79.21 142.457 78.4424C142.457 78.1963 142.387 77.9912 142.246 77.8271C142.105 77.6631 141.874 77.4932 141.552 77.3174C141.229 77.1416 140.781 76.9424 140.207 76.7197C139.088 76.2861 138.329 75.8525 137.931 75.4189C137.538 74.9854 137.342 74.4229 137.342 73.7314C137.342 72.8994 137.676 72.2549 138.344 71.7979C139.018 71.335 139.932 71.1035 141.086 71.1035C142.229 71.1035 143.31 71.335 144.329 71.7979L143.661 73.3535C142.612 72.9199 141.73 72.7031 141.016 72.7031C139.926 72.7031 139.381 73.0137 139.381 73.6348C139.381 73.9395 139.521 74.1973 139.803 74.4082C140.09 74.6191 140.711 74.9092 141.666 75.2783C142.469 75.5889 143.052 75.873 143.415 76.1309C143.778 76.3887 144.048 76.6875 144.224 77.0273C144.399 77.3613 144.487 77.7627 144.487 78.2314ZM68.251 106.176C66.7803 106.176 65.6611 105.748 64.8936 104.893C64.1318 104.031 63.751 102.798 63.751 101.192C63.751 99.5576 64.1494 98.3008 64.9463 97.4219C65.749 96.543 66.9062 96.1035 68.418 96.1035C69.4434 96.1035 70.3662 96.2939 71.1865 96.6748L70.5625 98.3359C69.6895 97.9961 68.9688 97.8262 68.4004 97.8262C66.7188 97.8262 65.8779 98.9424 65.8779 101.175C65.8779 102.265 66.0859 103.085 66.502 103.636C66.9238 104.181 67.5391 104.453 68.3477 104.453C69.2676 104.453 70.1377 104.225 70.958 103.768V105.569C70.5889 105.786 70.1934 105.941 69.7715 106.035C69.3555 106.129 68.8486 106.176 68.251 106.176ZM79.3252 106L78.9121 104.646H78.8418C78.373 105.238 77.9014 105.643 77.4268 105.859C76.9521 106.07 76.3428 106.176 75.5986 106.176C74.6436 106.176 73.8965 105.918 73.3574 105.402C72.8242 104.887 72.5576 104.157 72.5576 103.214C72.5576 102.212 72.9297 101.456 73.6738 100.946C74.418 100.437 75.5518 100.158 77.0752 100.111L78.7539 100.059V99.54C78.7539 98.9189 78.6074 98.4561 78.3145 98.1514C78.0273 97.8408 77.5791 97.6855 76.9697 97.6855C76.4717 97.6855 75.9941 97.7588 75.5371 97.9053C75.0801 98.0518 74.6406 98.2246 74.2188 98.4238L73.5508 96.9473C74.0781 96.6719 74.6553 96.4639 75.2822 96.3232C75.9092 96.1768 76.501 96.1035 77.0576 96.1035C78.2939 96.1035 79.2256 96.373 79.8525 96.9121C80.4854 97.4512 80.8018 98.2979 80.8018 99.4521V106H79.3252ZM76.249 104.594C76.999 104.594 77.5996 104.386 78.0508 103.97C78.5078 103.548 78.7363 102.959 78.7363 102.203V101.359L77.4883 101.412C76.5156 101.447 75.8066 101.611 75.3613 101.904C74.9219 102.191 74.7021 102.634 74.7021 103.231C74.7021 103.665 74.8311 104.002 75.0889 104.242C75.3467 104.477 75.7334 104.594 76.249 104.594ZM88.6152 106.176C87.3848 106.176 86.4297 105.733 85.75 104.849H85.627C85.709 105.669 85.75 106.167 85.75 106.343V110.324H83.6846V96.2793H85.3545C85.4014 96.4609 85.498 96.8945 85.6445 97.5801H85.75C86.3945 96.5957 87.3613 96.1035 88.6504 96.1035C89.8633 96.1035 90.8066 96.543 91.4805 97.4219C92.1602 98.3008 92.5 99.5342 92.5 101.122C92.5 102.71 92.1543 103.949 91.4629 104.84C90.7773 105.73 89.8281 106.176 88.6152 106.176ZM88.1143 97.791C87.2939 97.791 86.6934 98.0312 86.3125 98.5117C85.9375 98.9922 85.75 99.7598 85.75 100.814V101.122C85.75 102.306 85.9375 103.164 86.3125 103.697C86.6875 104.225 87.2998 104.488 88.1494 104.488C88.8643 104.488 89.415 104.195 89.8018 103.609C90.1885 103.023 90.3818 102.188 90.3818 101.104C90.3818 100.015 90.1885 99.1914 89.8018 98.6348C89.4209 98.0723 88.8584 97.791 88.1143 97.791ZM100.981 106L100.568 104.646H100.498C100.029 105.238 99.5576 105.643 99.083 105.859C98.6084 106.07 97.999 106.176 97.2549 106.176C96.2998 106.176 95.5527 105.918 95.0137 105.402C94.4805 104.887 94.2139 104.157 94.2139 103.214C94.2139 102.212 94.5859 101.456 95.3301 100.946C96.0742 100.437 97.208 100.158 98.7314 100.111L100.41 100.059V99.54C100.41 98.9189 100.264 98.4561 99.9707 98.1514C99.6836 97.8408 99.2354 97.6855 98.626 97.6855C98.1279 97.6855 97.6504 97.7588 97.1934 97.9053C96.7363 98.0518 96.2969 98.2246 95.875 98.4238L95.207 96.9473C95.7344 96.6719 96.3115 96.4639 96.9385 96.3232C97.5654 96.1768 98.1572 96.1035 98.7139 96.1035C99.9502 96.1035 100.882 96.373 101.509 96.9121C102.142 97.4512 102.458 98.2979 102.458 99.4521V106H100.981ZM97.9053 104.594C98.6553 104.594 99.2559 104.386 99.707 103.97C100.164 103.548 100.393 102.959 100.393 102.203V101.359L99.1445 101.412C98.1719 101.447 97.4629 101.611 97.0176 101.904C96.5781 102.191 96.3584 102.634 96.3584 103.231C96.3584 103.665 96.4873 104.002 96.7451 104.242C97.0029 104.477 97.3896 104.594 97.9053 104.594ZM110.307 96.1035C111.52 96.1035 112.463 96.543 113.137 97.4219C113.816 98.3008 114.156 99.5342 114.156 101.122C114.156 102.716 113.813 103.958 113.128 104.849C112.442 105.733 111.49 106.176 110.271 106.176C109.041 106.176 108.086 105.733 107.406 104.849H107.266L106.888 106H105.341V92.3242H107.406V95.5762C107.406 95.8164 107.395 96.1738 107.371 96.6484C107.348 97.123 107.33 97.4248 107.318 97.5537H107.406C108.062 96.5869 109.029 96.1035 110.307 96.1035ZM109.771 97.791C108.938 97.791 108.338 98.0371 107.969 98.5293C107.605 99.0156 107.418 99.833 107.406 100.981V101.122C107.406 102.306 107.594 103.164 107.969 103.697C108.344 104.225 108.956 104.488 109.806 104.488C110.538 104.488 111.092 104.198 111.467 103.618C111.848 103.038 112.038 102.2 112.038 101.104C112.038 98.8955 111.282 97.791 109.771 97.791ZM118.621 106H116.556V96.2793H118.621V106ZM116.433 93.7041C116.433 93.335 116.532 93.0508 116.731 92.8516C116.937 92.6523 117.227 92.5527 117.602 92.5527C117.965 92.5527 118.246 92.6523 118.445 92.8516C118.65 93.0508 118.753 93.335 118.753 93.7041C118.753 94.0557 118.65 94.334 118.445 94.5391C118.246 94.7383 117.965 94.8379 117.602 94.8379C117.227 94.8379 116.937 94.7383 116.731 94.5391C116.532 94.334 116.433 94.0557 116.433 93.7041ZM123.648 106H121.583V92.3242H123.648V106ZM128.676 106H126.61V96.2793H128.676V106ZM126.487 93.7041C126.487 93.335 126.587 93.0508 126.786 92.8516C126.991 92.6523 127.281 92.5527 127.656 92.5527C128.02 92.5527 128.301 92.6523 128.5 92.8516C128.705 93.0508 128.808 93.335 128.808 93.7041C128.808 94.0557 128.705 94.334 128.5 94.5391C128.301 94.7383 128.02 94.8379 127.656 94.8379C127.281 94.8379 126.991 94.7383 126.786 94.5391C126.587 94.334 126.487 94.0557 126.487 93.7041ZM135.259 104.506C135.763 104.506 136.267 104.427 136.771 104.269V105.824C136.542 105.924 136.246 106.006 135.883 106.07C135.525 106.141 135.153 106.176 134.767 106.176C132.81 106.176 131.831 105.145 131.831 103.082V97.8438H130.504V96.9297L131.928 96.1738L132.631 94.1172H133.905V96.2793H136.674V97.8438H133.905V103.047C133.905 103.545 134.028 103.914 134.274 104.154C134.526 104.389 134.854 104.506 135.259 104.506ZM137.245 96.2793H139.495L141.473 101.79C141.771 102.575 141.971 103.313 142.07 104.005H142.141C142.193 103.683 142.29 103.293 142.431 102.836C142.571 102.373 143.315 100.188 144.663 96.2793H146.896L142.738 107.292C141.982 109.313 140.723 110.324 138.959 110.324C138.502 110.324 138.057 110.274 137.623 110.175V108.54C137.934 108.61 138.288 108.646 138.687 108.646C139.683 108.646 140.383 108.068 140.787 106.914L141.147 106L137.245 96.2793ZM82.5596 131L78.8682 121.279H81.0479L83.0254 126.931C83.3652 127.88 83.5703 128.647 83.6406 129.233H83.7109C83.7637 128.812 83.9688 128.044 84.3262 126.931L86.3037 121.279H88.501L84.792 131H82.5596ZM96.0596 131L95.6465 129.646H95.5762C95.1074 130.238 94.6357 130.643 94.1611 130.859C93.6865 131.07 93.0771 131.176 92.333 131.176C91.3779 131.176 90.6309 130.918 90.0918 130.402C89.5586 129.887 89.292 129.157 89.292 128.214C89.292 127.212 89.6641 126.456 90.4082 125.946C91.1523 125.437 92.2861 125.158 93.8096 125.111L95.4883 125.059V124.54C95.4883 123.919 95.3418 123.456 95.0488 123.151C94.7617 122.841 94.3135 122.686 93.7041 122.686C93.2061 122.686 92.7285 122.759 92.2715 122.905C91.8145 123.052 91.375 123.225 90.9531 123.424L90.2852 121.947C90.8125 121.672 91.3896 121.464 92.0166 121.323C92.6436 121.177 93.2354 121.104 93.792 121.104C95.0283 121.104 95.96 121.373 96.5869 121.912C97.2197 122.451 97.5361 123.298 97.5361 124.452V131H96.0596ZM92.9834 129.594C93.7334 129.594 94.334 129.386 94.7852 128.97C95.2422 128.548 95.4707 127.959 95.4707 127.203V126.359L94.2227 126.412C93.25 126.447 92.541 126.611 92.0957 126.904C91.6562 127.191 91.4365 127.634 91.4365 128.231C91.4365 128.665 91.5654 129.002 91.8232 129.242C92.0811 129.477 92.4678 129.594 92.9834 129.594ZM105.35 121.104C105.766 121.104 106.108 121.133 106.378 121.191L106.176 123.116C105.883 123.046 105.578 123.011 105.262 123.011C104.436 123.011 103.765 123.28 103.249 123.819C102.739 124.358 102.484 125.059 102.484 125.92V131H100.419V121.279H102.036L102.309 122.993H102.414C102.736 122.413 103.155 121.953 103.671 121.613C104.192 121.273 104.752 121.104 105.35 121.104ZM110.254 131H108.188V121.279H110.254V131ZM108.065 118.704C108.065 118.335 108.165 118.051 108.364 117.852C108.569 117.652 108.859 117.553 109.234 117.553C109.598 117.553 109.879 117.652 110.078 117.852C110.283 118.051 110.386 118.335 110.386 118.704C110.386 119.056 110.283 119.334 110.078 119.539C109.879 119.738 109.598 119.838 109.234 119.838C108.859 119.838 108.569 119.738 108.364 119.539C108.165 119.334 108.065 119.056 108.065 118.704ZM117.461 131.176C115.949 131.176 114.766 130.736 113.91 129.857C113.061 128.973 112.636 127.757 112.636 126.21C112.636 124.622 113.031 123.374 113.822 122.466C114.613 121.558 115.7 121.104 117.083 121.104C118.366 121.104 119.38 121.493 120.124 122.272C120.868 123.052 121.24 124.124 121.24 125.489V126.605H114.763C114.792 127.549 115.047 128.275 115.527 128.785C116.008 129.289 116.685 129.541 117.558 129.541C118.132 129.541 118.665 129.488 119.157 129.383C119.655 129.271 120.188 129.09 120.757 128.838V130.517C120.253 130.757 119.743 130.927 119.228 131.026C118.712 131.126 118.123 131.176 117.461 131.176ZM117.083 122.668C116.427 122.668 115.899 122.876 115.501 123.292C115.108 123.708 114.874 124.314 114.798 125.111H119.21C119.198 124.309 119.005 123.702 118.63 123.292C118.255 122.876 117.739 122.668 117.083 122.668ZM130.117 128.231C130.117 129.181 129.771 129.91 129.08 130.42C128.389 130.924 127.398 131.176 126.109 131.176C124.814 131.176 123.774 130.979 122.989 130.587V128.803C124.132 129.33 125.195 129.594 126.18 129.594C127.451 129.594 128.087 129.21 128.087 128.442C128.087 128.196 128.017 127.991 127.876 127.827C127.735 127.663 127.504 127.493 127.182 127.317C126.859 127.142 126.411 126.942 125.837 126.72C124.718 126.286 123.959 125.853 123.561 125.419C123.168 124.985 122.972 124.423 122.972 123.731C122.972 122.899 123.306 122.255 123.974 121.798C124.647 121.335 125.562 121.104 126.716 121.104C127.858 121.104 128.939 121.335 129.959 121.798L129.291 123.354C128.242 122.92 127.36 122.703 126.646 122.703C125.556 122.703 125.011 123.014 125.011 123.635C125.011 123.939 125.151 124.197 125.433 124.408C125.72 124.619 126.341 124.909 127.296 125.278C128.099 125.589 128.682 125.873 129.045 126.131C129.408 126.389 129.678 126.688 129.854 127.027C130.029 127.361 130.117 127.763 130.117 128.231Z" fill="#7F8499"/>
</g>
<defs>
<filter id="filter0_d" x="0" y="0" width="210" height="210" filterUnits="userSpaceOnUse" color-interpolation-filters="sRGB">
<feFlood flood-opacity="0" result="BackgroundImageFix"/>
<feColorMatrix in="SourceAlpha" type="matrix" values="0 0 0 0 0 0 0 0 0 0 0 0 0 0 0 0 0 0 127 0"/>
<feOffset dy="4"/>
<feGaussianBlur stdDeviation="7.5"/>
<feColorMatrix type="matrix" values="0 0 0 0 0 0 0 0 0 0 0 0 0 0 0 0 0 0 0.15 0"/>
<feBlend mode="normal" in2="BackgroundImageFix" result="effect1_dropShadow"/>
<feBlend mode="normal" in="SourceGraphic" in2="effect1_dropShadow" result="shape"/>
</filter>
</defs>
</svg>
