<svg width="21" height="42" viewBox="0 0 21 42" fill="none" xmlns="http://www.w3.org/2000/svg">
<path d="M19.3997 6.31417L7.40676 20.7418L19.3997 35.1693C19.6851 35.5127 19.9115 35.9204 20.066 36.369C20.2205 36.8176 20.3 37.2985 20.3 37.7841C20.3 38.2697 20.2205 38.7506 20.066 39.1992C19.9115 39.6478 19.6851 40.0555 19.3997 40.3989C19.1143 40.7422 18.7754 41.0146 18.4025 41.2005C18.0295 41.3863 17.6298 41.4819 17.2262 41.4819C16.8225 41.4819 16.4228 41.3863 16.0499 41.2005C15.6769 41.0146 15.3381 40.7422 15.0526 40.3989L0.901594 23.3751C0.615788 23.0319 0.38904 22.6244 0.234329 22.1757C0.0796185 21.727 -1.52588e-05 21.246 -1.52588e-05 20.7603C-1.52588e-05 20.2745 0.0796185 19.7936 0.234329 19.3449C0.38904 18.8962 0.615788 18.4887 0.901594 18.1455L15.0526 1.08464C15.3379 0.740814 15.6766 0.468035 16.0496 0.281917C16.4226 0.0957996 16.8224 0 17.2262 0C17.6299 0 18.0298 0.0957996 18.4027 0.281917C18.7757 0.468035 19.1145 0.740814 19.3997 1.08464C20.5712 2.53111 20.5712 4.9048 19.3997 6.31417Z" fill="#E6E6E6"/>
</svg>
