<svg width="21" height="42" viewBox="0 0 21 42" fill="none" xmlns="http://www.w3.org/2000/svg">
<path d="M19.3997 6.31417L7.40682 20.7418L19.3997 35.1693C19.6852 35.5127 19.9116 35.9204 20.0661 36.369C20.2205 36.8176 20.3 37.2985 20.3 37.7841C20.3 38.2697 20.2205 38.7506 20.0661 39.1992C19.9116 39.6478 19.6852 40.0555 19.3997 40.3989C19.1143 40.7422 18.7755 41.0146 18.4025 41.2005C18.0296 41.3863 17.6299 41.4819 17.2262 41.4819C16.8226 41.4819 16.4229 41.3863 16.0499 41.2005C15.677 41.0146 15.3381 40.7422 15.0527 40.3989L0.901655 23.3751C0.615849 23.0319 0.389101 22.6244 0.234391 22.1757C0.0796804 21.727 4.54924e-05 21.246 4.54924e-05 20.7603C4.54924e-05 20.2746 0.0796804 19.7936 0.234391 19.3449C0.389101 18.8962 0.615849 18.4887 0.901655 18.1455L15.0527 1.08464C15.3379 0.740814 15.6767 0.468035 16.0497 0.281917C16.4226 0.0957996 16.8224 0 17.2262 0C17.63 0 18.0298 0.0957996 18.4028 0.281917C18.7757 0.468035 19.1145 0.740814 19.3997 1.08464C20.5713 2.53111 20.5713 4.9048 19.3997 6.31417Z" fill="#B2B7CD"/>
</svg>
