<svg width="1088" height="271" viewBox="0 0 1088 271" fill="none" xmlns="http://www.w3.org/2000/svg">
<path d="M95 92L244.5 170L393.5 92L544.5 170L693.5 92L843 170L994 92" stroke="#E6E6E6" stroke-width="3" stroke-dasharray="7 7"/>
<path d="M217.438 233.201C217.438 234.458 216.982 235.438 216.07 236.141C215.159 236.844 213.922 237.195 212.359 237.195C210.667 237.195 209.365 236.977 208.453 236.541V234.939C209.039 235.187 209.677 235.382 210.367 235.525C211.057 235.669 211.741 235.74 212.418 235.74C213.525 235.74 214.358 235.532 214.918 235.115C215.478 234.692 215.758 234.106 215.758 233.357C215.758 232.863 215.657 232.459 215.455 232.146C215.26 231.827 214.928 231.535 214.459 231.268C213.997 231.001 213.29 230.698 212.34 230.359C211.012 229.884 210.061 229.321 209.488 228.67C208.922 228.019 208.639 227.169 208.639 226.121C208.639 225.021 209.052 224.145 209.879 223.494C210.706 222.843 211.799 222.518 213.16 222.518C214.579 222.518 215.885 222.778 217.076 223.299L216.559 224.744C215.38 224.249 214.234 224.002 213.121 224.002C212.242 224.002 211.555 224.191 211.061 224.568C210.566 224.946 210.318 225.47 210.318 226.141C210.318 226.635 210.41 227.042 210.592 227.361C210.774 227.674 211.08 227.964 211.51 228.23C211.946 228.491 212.61 228.781 213.502 229.1C214.999 229.633 216.028 230.206 216.588 230.818C217.154 231.43 217.438 232.225 217.438 233.201ZM224.391 237.195C222.841 237.195 221.64 236.72 220.787 235.77C219.941 234.812 219.518 233.462 219.518 231.717C219.518 229.926 219.947 228.543 220.807 227.566C221.673 226.59 222.903 226.102 224.498 226.102C225.012 226.102 225.527 226.157 226.041 226.268C226.555 226.378 226.959 226.508 227.252 226.658L226.754 228.035C226.396 227.892 226.005 227.775 225.582 227.684C225.159 227.586 224.785 227.537 224.459 227.537C222.285 227.537 221.197 228.924 221.197 231.697C221.197 233.012 221.461 234.021 221.988 234.725C222.522 235.428 223.31 235.779 224.352 235.779C225.243 235.779 226.158 235.587 227.096 235.203V236.639C226.38 237.01 225.478 237.195 224.391 237.195ZM238.883 231.639C238.883 233.383 238.443 234.747 237.564 235.73C236.686 236.707 235.471 237.195 233.922 237.195C232.965 237.195 232.115 236.971 231.373 236.521C230.631 236.072 230.058 235.428 229.654 234.588C229.251 233.748 229.049 232.765 229.049 231.639C229.049 229.894 229.485 228.536 230.357 227.566C231.23 226.59 232.441 226.102 233.99 226.102C235.488 226.102 236.676 226.6 237.555 227.596C238.44 228.592 238.883 229.939 238.883 231.639ZM230.729 231.639C230.729 233.006 231.002 234.048 231.549 234.764C232.096 235.48 232.9 235.838 233.961 235.838C235.022 235.838 235.826 235.483 236.373 234.773C236.926 234.057 237.203 233.012 237.203 231.639C237.203 230.278 236.926 229.246 236.373 228.543C235.826 227.833 235.016 227.479 233.941 227.479C232.88 227.479 232.079 227.827 231.539 228.523C230.999 229.22 230.729 230.258 230.729 231.639ZM246.715 237.195C246.018 237.195 245.38 237.068 244.801 236.814C244.228 236.554 243.746 236.157 243.355 235.623H243.238C243.316 236.248 243.355 236.84 243.355 237.4V241.805H241.734V226.297H243.053L243.277 227.762H243.355C243.772 227.176 244.257 226.753 244.811 226.492C245.364 226.232 245.999 226.102 246.715 226.102C248.134 226.102 249.228 226.587 249.996 227.557C250.771 228.527 251.158 229.887 251.158 231.639C251.158 233.396 250.764 234.764 249.977 235.74C249.195 236.71 248.108 237.195 246.715 237.195ZM246.48 227.479C245.387 227.479 244.596 227.781 244.107 228.387C243.619 228.992 243.368 229.956 243.355 231.277V231.639C243.355 233.143 243.606 234.22 244.107 234.871C244.609 235.516 245.413 235.838 246.52 235.838C247.444 235.838 248.167 235.464 248.688 234.715C249.215 233.966 249.479 232.934 249.479 231.619C249.479 230.285 249.215 229.262 248.688 228.553C248.167 227.837 247.431 227.479 246.48 227.479ZM255.621 237H254V226.297H255.621V237ZM253.863 223.396C253.863 223.025 253.954 222.755 254.137 222.586C254.319 222.41 254.547 222.322 254.82 222.322C255.081 222.322 255.305 222.41 255.494 222.586C255.683 222.762 255.777 223.032 255.777 223.396C255.777 223.761 255.683 224.035 255.494 224.217C255.305 224.393 255.081 224.48 254.82 224.48C254.547 224.48 254.319 224.393 254.137 224.217C253.954 224.035 253.863 223.761 253.863 223.396ZM266.383 237V230.076C266.383 229.204 266.184 228.553 265.787 228.123C265.39 227.693 264.768 227.479 263.922 227.479C262.802 227.479 261.982 227.781 261.461 228.387C260.94 228.992 260.68 229.992 260.68 231.385V237H259.059V226.297H260.377L260.641 227.762H260.719C261.051 227.234 261.516 226.827 262.115 226.541C262.714 226.248 263.382 226.102 264.117 226.102C265.406 226.102 266.376 226.414 267.027 227.039C267.678 227.658 268.004 228.65 268.004 230.018V237H266.383ZM280.104 226.297V227.322L278.121 227.557C278.303 227.785 278.466 228.084 278.609 228.455C278.753 228.82 278.824 229.233 278.824 229.695C278.824 230.743 278.466 231.58 277.75 232.205C277.034 232.83 276.051 233.143 274.801 233.143C274.482 233.143 274.182 233.117 273.902 233.064C273.212 233.429 272.867 233.888 272.867 234.441C272.867 234.734 272.988 234.952 273.229 235.096C273.469 235.232 273.883 235.301 274.469 235.301H276.363C277.522 235.301 278.411 235.545 279.029 236.033C279.654 236.521 279.967 237.231 279.967 238.162C279.967 239.347 279.492 240.249 278.541 240.867C277.59 241.492 276.204 241.805 274.381 241.805C272.981 241.805 271.9 241.544 271.139 241.023C270.383 240.503 270.006 239.767 270.006 238.816C270.006 238.165 270.214 237.602 270.631 237.127C271.048 236.652 271.633 236.329 272.389 236.16C272.115 236.036 271.884 235.844 271.695 235.584C271.513 235.324 271.422 235.021 271.422 234.676C271.422 234.285 271.526 233.943 271.734 233.65C271.943 233.357 272.271 233.074 272.721 232.801C272.167 232.573 271.715 232.186 271.363 231.639C271.018 231.092 270.846 230.467 270.846 229.764C270.846 228.592 271.197 227.69 271.9 227.059C272.604 226.421 273.6 226.102 274.889 226.102C275.449 226.102 275.953 226.167 276.402 226.297H280.104ZM271.568 238.797C271.568 239.376 271.812 239.816 272.301 240.115C272.789 240.415 273.489 240.564 274.4 240.564C275.761 240.564 276.767 240.359 277.418 239.949C278.076 239.546 278.404 238.995 278.404 238.299C278.404 237.719 278.225 237.316 277.867 237.088C277.509 236.867 276.835 236.756 275.846 236.756H273.902C273.167 236.756 272.594 236.932 272.184 237.283C271.773 237.635 271.568 238.139 271.568 238.797ZM272.447 229.725C272.447 230.473 272.659 231.04 273.082 231.424C273.505 231.808 274.094 232 274.85 232C276.432 232 277.223 231.232 277.223 229.695C277.223 228.087 276.422 227.283 274.82 227.283C274.059 227.283 273.473 227.488 273.062 227.898C272.652 228.309 272.447 228.917 272.447 229.725Z" fill="#666666"/>
<circle cx="93.9191" cy="90.9191" r="10.9191" fill="white" stroke="#E6E6E6" stroke-width="2"/>
<path d="M52.5059 17.8418C52.5059 20.127 51.9264 21.9238 50.7676 23.2324C49.6152 24.541 48.0104 25.1953 45.9531 25.1953C43.8503 25.1953 42.2259 24.554 41.0801 23.2715C39.9408 21.9824 39.3711 20.166 39.3711 17.8223C39.3711 15.498 39.944 13.6979 41.0898 12.4219C42.2357 11.1393 43.8633 10.498 45.9727 10.498C48.0234 10.498 49.625 11.1491 50.7773 12.4512C51.9297 13.7533 52.5059 15.5501 52.5059 17.8418ZM41.1289 17.8418C41.1289 19.7754 41.5391 21.2435 42.3594 22.2461C43.1862 23.2422 44.3841 23.7402 45.9531 23.7402C47.5352 23.7402 48.7298 23.2422 49.5371 22.2461C50.3444 21.25 50.748 19.7819 50.748 17.8418C50.748 15.9212 50.3444 14.4661 49.5371 13.4766C48.7363 12.4805 47.5482 11.9824 45.9727 11.9824C44.3906 11.9824 43.1862 12.4837 42.3594 13.4863C41.5391 14.4824 41.1289 15.9342 41.1289 17.8418ZM60.4355 25.1953C59.7389 25.1953 59.1009 25.0684 58.5215 24.8145C57.9486 24.554 57.4668 24.1569 57.0762 23.623H56.959C57.0371 24.248 57.0762 24.8405 57.0762 25.4004V29.8047H55.4551V14.2969H56.7734L56.998 15.7617H57.0762C57.4928 15.1758 57.9779 14.7526 58.5312 14.4922C59.0846 14.2318 59.7194 14.1016 60.4355 14.1016C61.8548 14.1016 62.9486 14.5866 63.7168 15.5566C64.4915 16.5267 64.8789 17.8874 64.8789 19.6387C64.8789 21.3965 64.485 22.7637 63.6973 23.7402C62.916 24.7103 61.8288 25.1953 60.4355 25.1953ZM60.2012 15.4785C59.1074 15.4785 58.3164 15.7812 57.8281 16.3867C57.3398 16.9922 57.0892 17.9557 57.0762 19.2773V19.6387C57.0762 21.1426 57.3268 22.2201 57.8281 22.8711C58.3294 23.5156 59.1335 23.8379 60.2402 23.8379C61.1647 23.8379 61.8874 23.4635 62.4082 22.7148C62.9355 21.9661 63.1992 20.9342 63.1992 19.6191C63.1992 18.2845 62.9355 17.2624 62.4082 16.5527C61.8874 15.8366 61.1517 15.4785 60.2012 15.4785ZM72.2422 25.1953C70.6602 25.1953 69.4102 24.7135 68.4922 23.75C67.5807 22.7865 67.125 21.4486 67.125 19.7363C67.125 18.0111 67.5482 16.6406 68.3945 15.625C69.2474 14.6094 70.39 14.1016 71.8223 14.1016C73.1634 14.1016 74.2246 14.5443 75.0059 15.4297C75.7871 16.3086 76.1777 17.4707 76.1777 18.916V19.9414H68.8047C68.8372 21.1979 69.153 22.1517 69.752 22.8027C70.3574 23.4538 71.207 23.7793 72.3008 23.7793C73.4531 23.7793 74.5924 23.5384 75.7188 23.0566V24.502C75.1458 24.7493 74.6022 24.9251 74.0879 25.0293C73.5801 25.14 72.9648 25.1953 72.2422 25.1953ZM71.8027 15.459C70.9434 15.459 70.2565 15.7389 69.7422 16.2988C69.2344 16.8587 68.9349 17.6335 68.8438 18.623H74.4395C74.4395 17.6009 74.2116 16.8197 73.7559 16.2793C73.3001 15.7324 72.6491 15.459 71.8027 15.459ZM86.2754 25V18.0762C86.2754 17.2038 86.0768 16.5527 85.6797 16.123C85.2826 15.6934 84.6608 15.4785 83.8145 15.4785C82.6947 15.4785 81.8743 15.7812 81.3535 16.3867C80.8327 16.9922 80.5723 17.9915 80.5723 19.3848V25H78.9512V14.2969H80.2695L80.5332 15.7617H80.6113C80.9434 15.2344 81.4089 14.8275 82.0078 14.541C82.6068 14.248 83.2741 14.1016 84.0098 14.1016C85.2988 14.1016 86.2689 14.4141 86.9199 15.0391C87.571 15.6576 87.8965 16.6504 87.8965 18.0176V25H86.2754ZM104.732 21.2012C104.732 22.4577 104.277 23.4375 103.365 24.1406C102.454 24.8438 101.217 25.1953 99.6543 25.1953C97.9616 25.1953 96.6595 24.9772 95.748 24.541V22.9395C96.334 23.1868 96.972 23.3822 97.6621 23.5254C98.3522 23.6686 99.0358 23.7402 99.7129 23.7402C100.82 23.7402 101.653 23.5319 102.213 23.1152C102.773 22.6921 103.053 22.1061 103.053 21.3574C103.053 20.8626 102.952 20.459 102.75 20.1465C102.555 19.8275 102.223 19.5345 101.754 19.2676C101.292 19.0007 100.585 18.6979 99.6348 18.3594C98.3066 17.8841 97.3561 17.321 96.7832 16.6699C96.2168 16.0189 95.9336 15.1693 95.9336 14.1211C95.9336 13.0208 96.347 12.1452 97.1738 11.4941C98.0007 10.8431 99.0944 10.5176 100.455 10.5176C101.874 10.5176 103.18 10.778 104.371 11.2988L103.854 12.7441C102.675 12.2493 101.529 12.002 100.416 12.002C99.5371 12.002 98.8503 12.1908 98.3555 12.5684C97.8607 12.946 97.6133 13.4701 97.6133 14.1406C97.6133 14.6354 97.7044 15.0423 97.8867 15.3613C98.069 15.6738 98.375 15.9635 98.8047 16.2305C99.2409 16.4909 99.9049 16.7806 100.797 17.0996C102.294 17.6335 103.323 18.2064 103.883 18.8184C104.449 19.4303 104.732 20.2246 104.732 21.2012ZM112.389 25.1953C111.692 25.1953 111.054 25.0684 110.475 24.8145C109.902 24.554 109.42 24.1569 109.029 23.623H108.912C108.99 24.248 109.029 24.8405 109.029 25.4004V29.8047H107.408V14.2969H108.727L108.951 15.7617H109.029C109.446 15.1758 109.931 14.7526 110.484 14.4922C111.038 14.2318 111.673 14.1016 112.389 14.1016C113.808 14.1016 114.902 14.5866 115.67 15.5566C116.445 16.5267 116.832 17.8874 116.832 19.6387C116.832 21.3965 116.438 22.7637 115.65 23.7402C114.869 24.7103 113.782 25.1953 112.389 25.1953ZM112.154 15.4785C111.061 15.4785 110.27 15.7812 109.781 16.3867C109.293 16.9922 109.042 17.9557 109.029 19.2773V19.6387C109.029 21.1426 109.28 22.2201 109.781 22.8711C110.283 23.5156 111.087 23.8379 112.193 23.8379C113.118 23.8379 113.84 23.4635 114.361 22.7148C114.889 21.9661 115.152 20.9342 115.152 19.6191C115.152 18.2845 114.889 17.2624 114.361 16.5527C113.84 15.8366 113.105 15.4785 112.154 15.4785ZM126.256 25L125.934 23.4766H125.855C125.322 24.1471 124.788 24.6029 124.254 24.8438C123.727 25.0781 123.066 25.1953 122.271 25.1953C121.21 25.1953 120.377 24.9219 119.771 24.375C119.173 23.8281 118.873 23.0501 118.873 22.041C118.873 19.8796 120.602 18.7467 124.059 18.6426L125.875 18.584V17.9199C125.875 17.0801 125.693 16.4616 125.328 16.0645C124.97 15.6608 124.394 15.459 123.6 15.459C122.708 15.459 121.699 15.7324 120.572 16.2793L120.074 15.0391C120.602 14.7526 121.178 14.528 121.803 14.3652C122.434 14.2025 123.066 14.1211 123.697 14.1211C124.973 14.1211 125.917 14.4043 126.529 14.9707C127.148 15.5371 127.457 16.4453 127.457 17.6953V25H126.256ZM122.594 23.8574C123.603 23.8574 124.394 23.5807 124.967 23.0273C125.546 22.474 125.836 21.6992 125.836 20.7031V19.7363L124.215 19.8047C122.926 19.8503 121.995 20.0521 121.422 20.4102C120.855 20.7617 120.572 21.3118 120.572 22.0605C120.572 22.6465 120.748 23.0924 121.1 23.3984C121.458 23.7044 121.956 23.8574 122.594 23.8574ZM135.084 25.1953C133.535 25.1953 132.333 24.7201 131.48 23.7695C130.634 22.8125 130.211 21.4616 130.211 19.7168C130.211 17.9264 130.641 16.543 131.5 15.5664C132.366 14.5898 133.596 14.1016 135.191 14.1016C135.706 14.1016 136.22 14.1569 136.734 14.2676C137.249 14.3783 137.652 14.5085 137.945 14.6582L137.447 16.0352C137.089 15.8919 136.699 15.7747 136.275 15.6836C135.852 15.5859 135.478 15.5371 135.152 15.5371C132.978 15.5371 131.891 16.9238 131.891 19.6973C131.891 21.0124 132.154 22.0215 132.682 22.7246C133.215 23.4277 134.003 23.7793 135.045 23.7793C135.937 23.7793 136.852 23.5872 137.789 23.2031V24.6387C137.073 25.0098 136.171 25.1953 135.084 25.1953ZM144.859 25.1953C143.277 25.1953 142.027 24.7135 141.109 23.75C140.198 22.7865 139.742 21.4486 139.742 19.7363C139.742 18.0111 140.165 16.6406 141.012 15.625C141.865 14.6094 143.007 14.1016 144.439 14.1016C145.781 14.1016 146.842 14.5443 147.623 15.4297C148.404 16.3086 148.795 17.4707 148.795 18.916V19.9414H141.422C141.454 21.1979 141.77 22.1517 142.369 22.8027C142.975 23.4538 143.824 23.7793 144.918 23.7793C146.07 23.7793 147.21 23.5384 148.336 23.0566V24.502C147.763 24.7493 147.219 24.9251 146.705 25.0293C146.197 25.14 145.582 25.1953 144.859 25.1953ZM144.42 15.459C143.561 15.459 142.874 15.7389 142.359 16.2988C141.852 16.8587 141.552 17.6335 141.461 18.623H147.057C147.057 17.6009 146.829 16.8197 146.373 16.2793C145.917 15.7324 145.266 15.459 144.42 15.459Z" fill="#666666"/>
<g filter="url(#filter0_d)">
<circle cx="393.5" cy="92.5" r="20.5" fill="#D95840" fill-opacity="0.8"/>
</g>
<g filter="url(#filter1_d)">
<circle cx="393.5" cy="92.5" r="7.5" fill="white"/>
</g>
<circle cx="543.5" cy="168.5" r="16.5" fill="#E6E6E6"/>
<g filter="url(#filter2_d)">
<circle cx="543.5" cy="168.5" r="7.5" fill="white"/>
</g>
<circle cx="697.5" cy="92.5" r="16.5" fill="#E6E6E6"/>
<g filter="url(#filter3_d)">
<circle cx="697.5" cy="92.5" r="7.5" fill="white"/>
</g>
<circle cx="246.5" cy="168.5" r="16.5" fill="#E6E6E6"/>
<g filter="url(#filter4_d)">
<circle cx="246.5" cy="168.5" r="7.5" fill="white"/>
</g>
<circle cx="93.5" cy="92.5" r="16.5" fill="#E6E6E6"/>
<g filter="url(#filter5_d)">
<circle cx="93.5" cy="92.5" r="7.5" fill="white"/>
</g>
<path d="M353.131 17.0605H354.107C355.064 17.0605 355.771 16.901 356.227 16.582C356.682 16.263 356.91 15.7617 356.91 15.0781C356.91 14.401 356.676 13.9193 356.207 13.6328C355.745 13.3464 355.025 13.2031 354.049 13.2031H353.131V17.0605ZM353.131 19.5215V25H350.104V10.7227H354.264C356.204 10.7227 357.639 11.0775 358.57 11.7871C359.501 12.4902 359.967 13.5612 359.967 15C359.967 15.8398 359.736 16.5885 359.273 17.2461C358.811 17.8971 358.157 18.4082 357.311 18.7793C359.459 21.9889 360.859 24.0625 361.51 25H358.15L354.742 19.5215H353.131ZM367.594 15.9961C366.962 15.9961 366.467 16.1979 366.109 16.6016C365.751 16.9987 365.546 17.5651 365.494 18.3008H369.674C369.661 17.5651 369.469 16.9987 369.098 16.6016C368.727 16.1979 368.225 15.9961 367.594 15.9961ZM368.014 25.1953C366.256 25.1953 364.882 24.7103 363.893 23.7402C362.903 22.7702 362.408 21.3965 362.408 19.6191C362.408 17.7897 362.864 16.377 363.775 15.3809C364.693 14.3783 365.96 13.877 367.574 13.877C369.117 13.877 370.318 14.3164 371.178 15.1953C372.037 16.0742 372.467 17.2884 372.467 18.8379V20.2832H365.426C365.458 21.1296 365.709 21.7904 366.178 22.2656C366.646 22.7409 367.304 22.9785 368.15 22.9785C368.808 22.9785 369.43 22.9102 370.016 22.7734C370.602 22.6367 371.214 22.4186 371.852 22.1191V24.4238C371.331 24.6842 370.774 24.8763 370.182 25C369.589 25.1302 368.867 25.1953 368.014 25.1953ZM382.506 21.7578C382.506 22.8776 382.115 23.7305 381.334 24.3164C380.559 24.9023 379.397 25.1953 377.848 25.1953C377.053 25.1953 376.376 25.14 375.816 25.0293C375.257 24.9251 374.732 24.7689 374.244 24.5605V22.0996C374.798 22.36 375.419 22.5781 376.109 22.7539C376.806 22.9297 377.418 23.0176 377.945 23.0176C379.026 23.0176 379.566 22.7051 379.566 22.0801C379.566 21.8457 379.495 21.6569 379.352 21.5137C379.208 21.3639 378.961 21.1979 378.609 21.0156C378.258 20.8268 377.789 20.6087 377.203 20.3613C376.363 20.0098 375.745 19.6842 375.348 19.3848C374.957 19.0853 374.671 18.7435 374.488 18.3594C374.312 17.9688 374.225 17.4902 374.225 16.9238C374.225 15.9538 374.599 15.2051 375.348 14.6777C376.103 14.1439 377.171 13.877 378.551 13.877C379.866 13.877 381.145 14.1634 382.389 14.7363L381.49 16.8848C380.943 16.6504 380.432 16.4583 379.957 16.3086C379.482 16.1589 378.997 16.084 378.502 16.084C377.623 16.084 377.184 16.3216 377.184 16.7969C377.184 17.0638 377.324 17.2949 377.604 17.4902C377.89 17.6855 378.512 17.9753 379.469 18.3594C380.322 18.7044 380.947 19.0267 381.344 19.3262C381.741 19.6257 382.034 19.9707 382.223 20.3613C382.411 20.752 382.506 21.2174 382.506 21.7578ZM389.352 15.9961C388.72 15.9961 388.225 16.1979 387.867 16.6016C387.509 16.9987 387.304 17.5651 387.252 18.3008H391.432C391.419 17.5651 391.227 16.9987 390.855 16.6016C390.484 16.1979 389.983 15.9961 389.352 15.9961ZM389.771 25.1953C388.014 25.1953 386.64 24.7103 385.65 23.7402C384.661 22.7702 384.166 21.3965 384.166 19.6191C384.166 17.7897 384.622 16.377 385.533 15.3809C386.451 14.3783 387.717 13.877 389.332 13.877C390.875 13.877 392.076 14.3164 392.936 15.1953C393.795 16.0742 394.225 17.2884 394.225 18.8379V20.2832H387.184C387.216 21.1296 387.467 21.7904 387.936 22.2656C388.404 22.7409 389.062 22.9785 389.908 22.9785C390.566 22.9785 391.188 22.9102 391.773 22.7734C392.359 22.6367 392.971 22.4186 393.609 22.1191V24.4238C393.089 24.6842 392.532 24.8763 391.939 25C391.347 25.1302 390.624 25.1953 389.771 25.1953ZM403.58 25L403.004 23.5156H402.926C402.424 24.1471 401.907 24.5866 401.373 24.834C400.846 25.0749 400.156 25.1953 399.303 25.1953C398.255 25.1953 397.428 24.8958 396.822 24.2969C396.223 23.6979 395.924 22.8451 395.924 21.7383C395.924 20.5794 396.327 19.7266 397.135 19.1797C397.949 18.6263 399.173 18.3203 400.807 18.2617L402.701 18.2031V17.7246C402.701 16.6178 402.135 16.0645 401.002 16.0645C400.13 16.0645 399.104 16.3281 397.926 16.8555L396.939 14.8438C398.196 14.1862 399.589 13.8574 401.119 13.8574C402.584 13.8574 403.707 14.1764 404.488 14.8145C405.27 15.4525 405.66 16.4225 405.66 17.7246V25H403.58ZM402.701 19.9414L401.549 19.9805C400.683 20.0065 400.038 20.1628 399.615 20.4492C399.192 20.7357 398.98 21.1719 398.98 21.7578C398.98 22.5977 399.462 23.0176 400.426 23.0176C401.116 23.0176 401.666 22.819 402.076 22.4219C402.493 22.0247 402.701 21.4974 402.701 20.8398V19.9414ZM414.83 13.877C415.234 13.877 415.569 13.9062 415.836 13.9648L415.611 16.7578C415.37 16.6927 415.077 16.6602 414.732 16.6602C413.782 16.6602 413.04 16.9043 412.506 17.3926C411.979 17.8809 411.715 18.5645 411.715 19.4434V25H408.736V14.082H410.992L411.432 15.918H411.578C411.917 15.306 412.372 14.8145 412.945 14.4434C413.525 14.0658 414.153 13.877 414.83 13.877ZM422.252 25.1953C418.854 25.1953 417.154 23.3301 417.154 19.5996C417.154 17.7441 417.617 16.3281 418.541 15.3516C419.465 14.3685 420.79 13.877 422.516 13.877C423.779 13.877 424.911 14.1243 425.914 14.6191L425.035 16.9238C424.566 16.735 424.13 16.582 423.727 16.4648C423.323 16.3411 422.919 16.2793 422.516 16.2793C420.966 16.2793 420.191 17.3796 420.191 19.5801C420.191 21.7155 420.966 22.7832 422.516 22.7832C423.089 22.7832 423.619 22.7083 424.107 22.5586C424.596 22.4023 425.084 22.1615 425.572 21.8359V24.3848C425.09 24.6908 424.602 24.9023 424.107 25.0195C423.619 25.1367 423.001 25.1953 422.252 25.1953ZM438.189 25H435.211V18.623C435.211 17.0475 434.625 16.2598 433.453 16.2598C432.62 16.2598 432.018 16.543 431.646 17.1094C431.275 17.6758 431.09 18.5938 431.09 19.8633V25H428.111V9.80469H431.09V12.9004C431.09 13.1413 431.067 13.7077 431.021 14.5996L430.953 15.4785H431.109C431.773 14.4108 432.828 13.877 434.273 13.877C435.556 13.877 436.529 14.222 437.193 14.9121C437.857 15.6022 438.189 16.5918 438.189 17.8809V25Z" fill="#666666"/>
<path d="M656.977 21.2012C656.977 22.4577 656.521 23.4375 655.609 24.1406C654.698 24.8438 653.461 25.1953 651.898 25.1953C650.206 25.1953 648.904 24.9772 647.992 24.541V22.9395C648.578 23.1868 649.216 23.3822 649.906 23.5254C650.596 23.6686 651.28 23.7402 651.957 23.7402C653.064 23.7402 653.897 23.5319 654.457 23.1152C655.017 22.6921 655.297 22.1061 655.297 21.3574C655.297 20.8626 655.196 20.459 654.994 20.1465C654.799 19.8275 654.467 19.5345 653.998 19.2676C653.536 19.0007 652.829 18.6979 651.879 18.3594C650.551 17.8841 649.6 17.321 649.027 16.6699C648.461 16.0189 648.178 15.1693 648.178 14.1211C648.178 13.0208 648.591 12.1452 649.418 11.4941C650.245 10.8431 651.339 10.5176 652.699 10.5176C654.118 10.5176 655.424 10.778 656.615 11.2988L656.098 12.7441C654.919 12.2493 653.773 12.002 652.66 12.002C651.781 12.002 651.094 12.1908 650.6 12.5684C650.105 12.946 649.857 13.4701 649.857 14.1406C649.857 14.6354 649.949 15.0423 650.131 15.3613C650.313 15.6738 650.619 15.9635 651.049 16.2305C651.485 16.4909 652.149 16.7806 653.041 17.0996C654.538 17.6335 655.567 18.2064 656.127 18.8184C656.693 19.4303 656.977 20.2246 656.977 21.2012ZM657.953 14.2969H659.691L662.035 20.4004C662.549 21.7936 662.868 22.7995 662.992 23.418H663.07C663.155 23.0859 663.331 22.5195 663.598 21.7188C663.871 20.9115 664.757 18.4375 666.254 14.2969H667.992L663.393 26.4844C662.937 27.6888 662.403 28.5417 661.791 29.043C661.186 29.5508 660.44 29.8047 659.555 29.8047C659.06 29.8047 658.572 29.7493 658.09 29.6387V28.3398C658.448 28.418 658.848 28.457 659.291 28.457C660.404 28.457 661.199 27.832 661.674 26.582L662.27 25.0586L657.953 14.2969ZM677.055 25V18.0762C677.055 17.2038 676.856 16.5527 676.459 16.123C676.062 15.6934 675.44 15.4785 674.594 15.4785C673.474 15.4785 672.654 15.7812 672.133 16.3867C671.612 16.9922 671.352 17.9915 671.352 19.3848V25H669.73V14.2969H671.049L671.312 15.7617H671.391C671.723 15.2344 672.188 14.8275 672.787 14.541C673.386 14.248 674.053 14.1016 674.789 14.1016C676.078 14.1016 677.048 14.4141 677.699 15.0391C678.35 15.6576 678.676 16.6504 678.676 18.0176V25H677.055ZM685.473 23.8574C685.759 23.8574 686.036 23.8379 686.303 23.7988C686.57 23.7533 686.781 23.7077 686.938 23.6621V24.9023C686.762 24.987 686.501 25.0553 686.156 25.1074C685.818 25.166 685.512 25.1953 685.238 25.1953C683.168 25.1953 682.133 24.1048 682.133 21.9238V15.5566H680.6V14.7754L682.133 14.1016L682.816 11.8164H683.754V14.2969H686.859V15.5566H683.754V21.8555C683.754 22.5 683.907 22.9948 684.213 23.3398C684.519 23.6849 684.939 23.8574 685.473 23.8574ZM696.41 25V18.0762C696.41 17.2038 696.212 16.5527 695.814 16.123C695.417 15.6934 694.796 15.4785 693.949 15.4785C692.823 15.4785 691.999 15.7845 691.479 16.3965C690.964 17.0085 690.707 18.0111 690.707 19.4043V25H689.086V9.80469H690.707V14.4043C690.707 14.9577 690.681 15.4167 690.629 15.7812H690.727C691.046 15.2669 691.498 14.8633 692.084 14.5703C692.676 14.2708 693.35 14.1211 694.105 14.1211C695.414 14.1211 696.394 14.4336 697.045 15.0586C697.702 15.6771 698.031 16.6634 698.031 18.0176V25H696.41ZM705.893 25.1953C704.311 25.1953 703.061 24.7135 702.143 23.75C701.231 22.7865 700.775 21.4486 700.775 19.7363C700.775 18.0111 701.199 16.6406 702.045 15.625C702.898 14.6094 704.04 14.1016 705.473 14.1016C706.814 14.1016 707.875 14.5443 708.656 15.4297C709.438 16.3086 709.828 17.4707 709.828 18.916V19.9414H702.455C702.488 21.1979 702.803 22.1517 703.402 22.8027C704.008 23.4538 704.857 23.7793 705.951 23.7793C707.104 23.7793 708.243 23.5384 709.369 23.0566V24.502C708.796 24.7493 708.253 24.9251 707.738 25.0293C707.23 25.14 706.615 25.1953 705.893 25.1953ZM705.453 15.459C704.594 15.459 703.907 15.7389 703.393 16.2988C702.885 16.8587 702.585 17.6335 702.494 18.623H708.09C708.09 17.6009 707.862 16.8197 707.406 16.2793C706.951 15.7324 706.299 15.459 705.453 15.459ZM719.506 22.0801C719.506 23.0762 719.135 23.8444 718.393 24.3848C717.65 24.9251 716.609 25.1953 715.268 25.1953C713.848 25.1953 712.742 24.9707 711.947 24.5215V23.0176C712.462 23.278 713.012 23.4831 713.598 23.6328C714.19 23.7826 714.76 23.8574 715.307 23.8574C716.153 23.8574 716.804 23.724 717.26 23.457C717.715 23.1836 717.943 22.7702 717.943 22.2168C717.943 21.8001 717.761 21.4453 717.396 21.1523C717.038 20.8529 716.335 20.5013 715.287 20.0977C714.291 19.7266 713.581 19.4043 713.158 19.1309C712.742 18.8509 712.429 18.5352 712.221 18.1836C712.019 17.832 711.918 17.4121 711.918 16.9238C711.918 16.0514 712.273 15.3646 712.982 14.8633C713.692 14.3555 714.665 14.1016 715.902 14.1016C717.055 14.1016 718.181 14.3359 719.281 14.8047L718.705 16.123C717.631 15.6803 716.658 15.459 715.785 15.459C715.017 15.459 714.438 15.5794 714.047 15.8203C713.656 16.0612 713.461 16.3932 713.461 16.8164C713.461 17.1029 713.533 17.347 713.676 17.5488C713.826 17.7507 714.063 17.9427 714.389 18.125C714.714 18.3073 715.339 18.571 716.264 18.916C717.533 19.3783 718.389 19.8438 718.832 20.3125C719.281 20.7812 719.506 21.3704 719.506 22.0801ZM723.773 25H722.152V14.2969H723.773V25ZM722.016 11.3965C722.016 11.0254 722.107 10.7552 722.289 10.5859C722.471 10.4102 722.699 10.3223 722.973 10.3223C723.233 10.3223 723.458 10.4102 723.646 10.5859C723.835 10.7617 723.93 11.0319 723.93 11.3965C723.93 11.7611 723.835 12.0345 723.646 12.2168C723.458 12.3926 723.233 12.4805 722.973 12.4805C722.699 12.4805 722.471 12.3926 722.289 12.2168C722.107 12.0345 722.016 11.7611 722.016 11.3965ZM734.115 22.0801C734.115 23.0762 733.744 23.8444 733.002 24.3848C732.26 24.9251 731.218 25.1953 729.877 25.1953C728.458 25.1953 727.351 24.9707 726.557 24.5215V23.0176C727.071 23.278 727.621 23.4831 728.207 23.6328C728.799 23.7826 729.369 23.8574 729.916 23.8574C730.762 23.8574 731.413 23.724 731.869 23.457C732.325 23.1836 732.553 22.7702 732.553 22.2168C732.553 21.8001 732.37 21.4453 732.006 21.1523C731.648 20.8529 730.945 20.5013 729.896 20.0977C728.9 19.7266 728.191 19.4043 727.768 19.1309C727.351 18.8509 727.038 18.5352 726.83 18.1836C726.628 17.832 726.527 17.4121 726.527 16.9238C726.527 16.0514 726.882 15.3646 727.592 14.8633C728.301 14.3555 729.275 14.1016 730.512 14.1016C731.664 14.1016 732.79 14.3359 733.891 14.8047L733.314 16.123C732.24 15.6803 731.267 15.459 730.395 15.459C729.626 15.459 729.047 15.5794 728.656 15.8203C728.266 16.0612 728.07 16.3932 728.07 16.8164C728.07 17.1029 728.142 17.347 728.285 17.5488C728.435 17.7507 728.673 17.9427 728.998 18.125C729.324 18.3073 729.949 18.571 730.873 18.916C732.143 19.3783 732.999 19.8438 733.441 20.3125C733.891 20.7812 734.115 21.3704 734.115 22.0801Z" fill="#666666"/>
<path d="M484.527 224.002C482.958 224.002 481.718 224.526 480.807 225.574C479.902 226.616 479.449 228.045 479.449 229.861C479.449 231.73 479.885 233.175 480.758 234.197C481.637 235.213 482.887 235.721 484.508 235.721C485.504 235.721 486.64 235.542 487.916 235.184V236.639C486.926 237.01 485.706 237.195 484.254 237.195C482.151 237.195 480.527 236.557 479.381 235.281C478.242 234.005 477.672 232.192 477.672 229.842C477.672 228.37 477.945 227.081 478.492 225.975C479.046 224.868 479.84 224.015 480.875 223.416C481.917 222.817 483.141 222.518 484.547 222.518C486.044 222.518 487.353 222.791 488.473 223.338L487.77 224.764C486.689 224.256 485.608 224.002 484.527 224.002ZM492.311 226.297V233.24C492.311 234.113 492.509 234.764 492.906 235.193C493.303 235.623 493.925 235.838 494.771 235.838C495.891 235.838 496.708 235.532 497.223 234.92C497.743 234.308 498.004 233.309 498.004 231.922V226.297H499.625V237H498.287L498.053 235.564H497.965C497.633 236.092 497.171 236.495 496.578 236.775C495.992 237.055 495.322 237.195 494.566 237.195C493.264 237.195 492.288 236.886 491.637 236.268C490.992 235.649 490.67 234.66 490.67 233.299V226.297H492.311ZM507.955 226.102C508.43 226.102 508.857 226.141 509.234 226.219L509.01 227.723C508.567 227.625 508.176 227.576 507.838 227.576C506.972 227.576 506.23 227.928 505.611 228.631C504.999 229.334 504.693 230.21 504.693 231.258V237H503.072V226.297H504.41L504.596 228.279H504.674C505.071 227.583 505.549 227.046 506.109 226.668C506.669 226.29 507.285 226.102 507.955 226.102ZM516.119 226.102C516.594 226.102 517.021 226.141 517.398 226.219L517.174 227.723C516.731 227.625 516.34 227.576 516.002 227.576C515.136 227.576 514.394 227.928 513.775 228.631C513.163 229.334 512.857 230.21 512.857 231.258V237H511.236V226.297H512.574L512.76 228.279H512.838C513.235 227.583 513.714 227.046 514.273 226.668C514.833 226.29 515.449 226.102 516.119 226.102ZM523.922 237.195C522.34 237.195 521.09 236.714 520.172 235.75C519.26 234.786 518.805 233.449 518.805 231.736C518.805 230.011 519.228 228.641 520.074 227.625C520.927 226.609 522.07 226.102 523.502 226.102C524.843 226.102 525.904 226.544 526.686 227.43C527.467 228.309 527.857 229.471 527.857 230.916V231.941H520.484C520.517 233.198 520.833 234.152 521.432 234.803C522.037 235.454 522.887 235.779 523.98 235.779C525.133 235.779 526.272 235.538 527.398 235.057V236.502C526.826 236.749 526.282 236.925 525.768 237.029C525.26 237.14 524.645 237.195 523.922 237.195ZM523.482 227.459C522.623 227.459 521.936 227.739 521.422 228.299C520.914 228.859 520.615 229.633 520.523 230.623H526.119C526.119 229.601 525.891 228.82 525.436 228.279C524.98 227.732 524.329 227.459 523.482 227.459ZM537.955 237V230.076C537.955 229.204 537.757 228.553 537.359 228.123C536.962 227.693 536.34 227.479 535.494 227.479C534.374 227.479 533.554 227.781 533.033 228.387C532.512 228.992 532.252 229.992 532.252 231.385V237H530.631V226.297H531.949L532.213 227.762H532.291C532.623 227.234 533.089 226.827 533.688 226.541C534.286 226.248 534.954 226.102 535.689 226.102C536.979 226.102 537.949 226.414 538.6 227.039C539.251 227.658 539.576 228.65 539.576 230.018V237H537.955ZM546.373 235.857C546.66 235.857 546.936 235.838 547.203 235.799C547.47 235.753 547.682 235.708 547.838 235.662V236.902C547.662 236.987 547.402 237.055 547.057 237.107C546.718 237.166 546.412 237.195 546.139 237.195C544.068 237.195 543.033 236.105 543.033 233.924V227.557H541.5V226.775L543.033 226.102L543.717 223.816H544.654V226.297H547.76V227.557H544.654V233.855C544.654 234.5 544.807 234.995 545.113 235.34C545.419 235.685 545.839 235.857 546.373 235.857ZM563.482 233.201C563.482 234.458 563.027 235.438 562.115 236.141C561.204 236.844 559.967 237.195 558.404 237.195C556.712 237.195 555.41 236.977 554.498 236.541V234.939C555.084 235.187 555.722 235.382 556.412 235.525C557.102 235.669 557.786 235.74 558.463 235.74C559.57 235.74 560.403 235.532 560.963 235.115C561.523 234.692 561.803 234.106 561.803 233.357C561.803 232.863 561.702 232.459 561.5 232.146C561.305 231.827 560.973 231.535 560.504 231.268C560.042 231.001 559.335 230.698 558.385 230.359C557.057 229.884 556.106 229.321 555.533 228.67C554.967 228.019 554.684 227.169 554.684 226.121C554.684 225.021 555.097 224.145 555.924 223.494C556.751 222.843 557.844 222.518 559.205 222.518C560.624 222.518 561.93 222.778 563.121 223.299L562.604 224.744C561.425 224.249 560.279 224.002 559.166 224.002C558.287 224.002 557.6 224.191 557.105 224.568C556.611 224.946 556.363 225.47 556.363 226.141C556.363 226.635 556.454 227.042 556.637 227.361C556.819 227.674 557.125 227.964 557.555 228.23C557.991 228.491 558.655 228.781 559.547 229.1C561.044 229.633 562.073 230.206 562.633 230.818C563.199 231.43 563.482 232.225 563.482 233.201ZM569.615 235.857C569.902 235.857 570.178 235.838 570.445 235.799C570.712 235.753 570.924 235.708 571.08 235.662V236.902C570.904 236.987 570.644 237.055 570.299 237.107C569.96 237.166 569.654 237.195 569.381 237.195C567.311 237.195 566.275 236.105 566.275 233.924V227.557H564.742V226.775L566.275 226.102L566.959 223.816H567.896V226.297H571.002V227.557H567.896V233.855C567.896 234.5 568.049 234.995 568.355 235.34C568.661 235.685 569.081 235.857 569.615 235.857ZM579.811 237L579.488 235.477H579.41C578.876 236.147 578.342 236.603 577.809 236.844C577.281 237.078 576.62 237.195 575.826 237.195C574.765 237.195 573.932 236.922 573.326 236.375C572.727 235.828 572.428 235.05 572.428 234.041C572.428 231.88 574.156 230.747 577.613 230.643L579.43 230.584V229.92C579.43 229.08 579.247 228.462 578.883 228.064C578.525 227.661 577.949 227.459 577.154 227.459C576.262 227.459 575.253 227.732 574.127 228.279L573.629 227.039C574.156 226.753 574.732 226.528 575.357 226.365C575.989 226.202 576.62 226.121 577.252 226.121C578.528 226.121 579.472 226.404 580.084 226.971C580.702 227.537 581.012 228.445 581.012 229.695V237H579.811ZM576.148 235.857C577.158 235.857 577.949 235.581 578.521 235.027C579.101 234.474 579.391 233.699 579.391 232.703V231.736L577.77 231.805C576.48 231.85 575.549 232.052 574.977 232.41C574.41 232.762 574.127 233.312 574.127 234.061C574.127 234.646 574.303 235.092 574.654 235.398C575.012 235.704 575.51 235.857 576.148 235.857ZM587.818 235.857C588.105 235.857 588.382 235.838 588.648 235.799C588.915 235.753 589.127 235.708 589.283 235.662V236.902C589.107 236.987 588.847 237.055 588.502 237.107C588.163 237.166 587.857 237.195 587.584 237.195C585.514 237.195 584.479 236.105 584.479 233.924V227.557H582.945V226.775L584.479 226.102L585.162 223.816H586.1V226.297H589.205V227.557H586.1V233.855C586.1 234.5 586.253 234.995 586.559 235.34C586.865 235.685 587.285 235.857 587.818 235.857ZM592.955 226.297V233.24C592.955 234.113 593.154 234.764 593.551 235.193C593.948 235.623 594.57 235.838 595.416 235.838C596.536 235.838 597.353 235.532 597.867 234.92C598.388 234.308 598.648 233.309 598.648 231.922V226.297H600.27V237H598.932L598.697 235.564H598.609C598.277 236.092 597.815 236.495 597.223 236.775C596.637 237.055 595.966 237.195 595.211 237.195C593.909 237.195 592.932 236.886 592.281 236.268C591.637 235.649 591.314 234.66 591.314 233.299V226.297H592.955ZM610.621 234.08C610.621 235.076 610.25 235.844 609.508 236.385C608.766 236.925 607.724 237.195 606.383 237.195C604.964 237.195 603.857 236.971 603.062 236.521V235.018C603.577 235.278 604.127 235.483 604.713 235.633C605.305 235.783 605.875 235.857 606.422 235.857C607.268 235.857 607.919 235.724 608.375 235.457C608.831 235.184 609.059 234.77 609.059 234.217C609.059 233.8 608.876 233.445 608.512 233.152C608.154 232.853 607.451 232.501 606.402 232.098C605.406 231.727 604.697 231.404 604.273 231.131C603.857 230.851 603.544 230.535 603.336 230.184C603.134 229.832 603.033 229.412 603.033 228.924C603.033 228.051 603.388 227.365 604.098 226.863C604.807 226.355 605.781 226.102 607.018 226.102C608.17 226.102 609.296 226.336 610.396 226.805L609.82 228.123C608.746 227.68 607.773 227.459 606.9 227.459C606.132 227.459 605.553 227.579 605.162 227.82C604.771 228.061 604.576 228.393 604.576 228.816C604.576 229.103 604.648 229.347 604.791 229.549C604.941 229.751 605.178 229.943 605.504 230.125C605.829 230.307 606.454 230.571 607.379 230.916C608.648 231.378 609.505 231.844 609.947 232.312C610.396 232.781 610.621 233.37 610.621 234.08Z" fill="#666666"/>
<path d="M826.773 226.725C826.773 229.081 826.132 230.885 824.85 232.135C823.574 233.378 821.734 234 819.332 234H815.377V219.723H819.752C821.972 219.723 823.697 220.338 824.928 221.568C826.158 222.799 826.773 224.518 826.773 226.725ZM825.016 226.783C825.016 224.921 824.547 223.518 823.609 222.574C822.678 221.63 821.292 221.158 819.449 221.158H817.037V232.564H819.059C821.038 232.564 822.525 232.079 823.521 231.109C824.518 230.133 825.016 228.691 825.016 226.783ZM834.244 234.195C832.662 234.195 831.412 233.714 830.494 232.75C829.583 231.786 829.127 230.449 829.127 228.736C829.127 227.011 829.55 225.641 830.396 224.625C831.249 223.609 832.392 223.102 833.824 223.102C835.165 223.102 836.227 223.544 837.008 224.43C837.789 225.309 838.18 226.471 838.18 227.916V228.941H830.807C830.839 230.198 831.155 231.152 831.754 231.803C832.359 232.454 833.209 232.779 834.303 232.779C835.455 232.779 836.594 232.538 837.721 232.057V233.502C837.148 233.749 836.604 233.925 836.09 234.029C835.582 234.14 834.967 234.195 834.244 234.195ZM833.805 224.459C832.945 224.459 832.258 224.739 831.744 225.299C831.236 225.859 830.937 226.633 830.846 227.623H836.441C836.441 226.601 836.214 225.82 835.758 225.279C835.302 224.732 834.651 224.459 833.805 224.459ZM845.777 224.557H843.053V234H841.432V224.557H839.518V223.824L841.432 223.238V222.643C841.432 220.012 842.581 218.697 844.879 218.697C845.445 218.697 846.109 218.811 846.871 219.039L846.451 220.338C845.826 220.136 845.292 220.035 844.85 220.035C844.238 220.035 843.785 220.24 843.492 220.65C843.199 221.054 843.053 221.705 843.053 222.604V223.297H845.777V224.557ZM849.352 234H847.73V223.297H849.352V234ZM847.594 220.396C847.594 220.025 847.685 219.755 847.867 219.586C848.049 219.41 848.277 219.322 848.551 219.322C848.811 219.322 849.036 219.41 849.225 219.586C849.413 219.762 849.508 220.032 849.508 220.396C849.508 220.761 849.413 221.035 849.225 221.217C849.036 221.393 848.811 221.48 848.551 221.48C848.277 221.48 848.049 221.393 847.867 221.217C847.685 221.035 847.594 220.761 847.594 220.396ZM860.113 234V227.076C860.113 226.204 859.915 225.553 859.518 225.123C859.12 224.693 858.499 224.479 857.652 224.479C856.533 224.479 855.712 224.781 855.191 225.387C854.671 225.992 854.41 226.992 854.41 228.385V234H852.789V223.297H854.107L854.371 224.762H854.449C854.781 224.234 855.247 223.827 855.846 223.541C856.445 223.248 857.112 223.102 857.848 223.102C859.137 223.102 860.107 223.414 860.758 224.039C861.409 224.658 861.734 225.65 861.734 227.018V234H860.113ZM869.596 234.195C868.014 234.195 866.764 233.714 865.846 232.75C864.934 231.786 864.479 230.449 864.479 228.736C864.479 227.011 864.902 225.641 865.748 224.625C866.601 223.609 867.743 223.102 869.176 223.102C870.517 223.102 871.578 223.544 872.359 224.43C873.141 225.309 873.531 226.471 873.531 227.916V228.941H866.158C866.191 230.198 866.507 231.152 867.105 231.803C867.711 232.454 868.561 232.779 869.654 232.779C870.807 232.779 871.946 232.538 873.072 232.057V233.502C872.499 233.749 871.956 233.925 871.441 234.029C870.934 234.14 870.318 234.195 869.596 234.195ZM869.156 224.459C868.297 224.459 867.61 224.739 867.096 225.299C866.588 225.859 866.288 226.633 866.197 227.623H871.793C871.793 226.601 871.565 225.82 871.109 225.279C870.654 224.732 870.003 224.459 869.156 224.459ZM793.365 256.842C793.365 259.127 792.786 260.924 791.627 262.232C790.475 263.541 788.87 264.195 786.812 264.195C784.71 264.195 783.085 263.554 781.939 262.271C780.8 260.982 780.23 259.166 780.23 256.822C780.23 254.498 780.803 252.698 781.949 251.422C783.095 250.139 784.723 249.498 786.832 249.498C788.883 249.498 790.484 250.149 791.637 251.451C792.789 252.753 793.365 254.55 793.365 256.842ZM781.988 256.842C781.988 258.775 782.398 260.243 783.219 261.246C784.046 262.242 785.243 262.74 786.812 262.74C788.395 262.74 789.589 262.242 790.396 261.246C791.204 260.25 791.607 258.782 791.607 256.842C791.607 254.921 791.204 253.466 790.396 252.477C789.596 251.48 788.408 250.982 786.832 250.982C785.25 250.982 784.046 251.484 783.219 252.486C782.398 253.482 781.988 254.934 781.988 256.842ZM801.295 264.195C800.598 264.195 799.96 264.068 799.381 263.814C798.808 263.554 798.326 263.157 797.936 262.623H797.818C797.896 263.248 797.936 263.84 797.936 264.4V268.805H796.314V253.297H797.633L797.857 254.762H797.936C798.352 254.176 798.837 253.753 799.391 253.492C799.944 253.232 800.579 253.102 801.295 253.102C802.714 253.102 803.808 253.587 804.576 254.557C805.351 255.527 805.738 256.887 805.738 258.639C805.738 260.396 805.344 261.764 804.557 262.74C803.775 263.71 802.688 264.195 801.295 264.195ZM801.061 254.479C799.967 254.479 799.176 254.781 798.688 255.387C798.199 255.992 797.949 256.956 797.936 258.277V258.639C797.936 260.143 798.186 261.22 798.688 261.871C799.189 262.516 799.993 262.838 801.1 262.838C802.024 262.838 802.747 262.464 803.268 261.715C803.795 260.966 804.059 259.934 804.059 258.619C804.059 257.285 803.795 256.262 803.268 255.553C802.747 254.837 802.011 254.479 801.061 254.479ZM813.561 264.195C812.864 264.195 812.226 264.068 811.646 263.814C811.074 263.554 810.592 263.157 810.201 262.623H810.084C810.162 263.248 810.201 263.84 810.201 264.4V268.805H808.58V253.297H809.898L810.123 254.762H810.201C810.618 254.176 811.103 253.753 811.656 253.492C812.21 253.232 812.844 253.102 813.561 253.102C814.98 253.102 816.074 253.587 816.842 254.557C817.617 255.527 818.004 256.887 818.004 258.639C818.004 260.396 817.61 261.764 816.822 262.74C816.041 263.71 814.954 264.195 813.561 264.195ZM813.326 254.479C812.232 254.479 811.441 254.781 810.953 255.387C810.465 255.992 810.214 256.956 810.201 258.277V258.639C810.201 260.143 810.452 261.22 810.953 261.871C811.454 262.516 812.258 262.838 813.365 262.838C814.29 262.838 815.012 262.464 815.533 261.715C816.061 260.966 816.324 259.934 816.324 258.619C816.324 257.285 816.061 256.262 815.533 255.553C815.012 254.837 814.277 254.479 813.326 254.479ZM830.084 258.639C830.084 260.383 829.645 261.747 828.766 262.73C827.887 263.707 826.673 264.195 825.123 264.195C824.166 264.195 823.316 263.971 822.574 263.521C821.832 263.072 821.259 262.428 820.855 261.588C820.452 260.748 820.25 259.765 820.25 258.639C820.25 256.894 820.686 255.536 821.559 254.566C822.431 253.59 823.642 253.102 825.191 253.102C826.689 253.102 827.877 253.6 828.756 254.596C829.641 255.592 830.084 256.939 830.084 258.639ZM821.93 258.639C821.93 260.006 822.203 261.048 822.75 261.764C823.297 262.48 824.101 262.838 825.162 262.838C826.223 262.838 827.027 262.483 827.574 261.773C828.128 261.057 828.404 260.012 828.404 258.639C828.404 257.278 828.128 256.246 827.574 255.543C827.027 254.833 826.217 254.479 825.143 254.479C824.081 254.479 823.281 254.827 822.74 255.523C822.2 256.22 821.93 257.258 821.93 258.639ZM837.818 253.102C838.294 253.102 838.72 253.141 839.098 253.219L838.873 254.723C838.43 254.625 838.04 254.576 837.701 254.576C836.835 254.576 836.093 254.928 835.475 255.631C834.863 256.334 834.557 257.21 834.557 258.258V264H832.936V253.297H834.273L834.459 255.279H834.537C834.934 254.583 835.413 254.046 835.973 253.668C836.533 253.29 837.148 253.102 837.818 253.102ZM844.557 262.857C844.843 262.857 845.12 262.838 845.387 262.799C845.654 262.753 845.865 262.708 846.021 262.662V263.902C845.846 263.987 845.585 264.055 845.24 264.107C844.902 264.166 844.596 264.195 844.322 264.195C842.252 264.195 841.217 263.105 841.217 260.924V254.557H839.684V253.775L841.217 253.102L841.9 250.816H842.838V253.297H845.943V254.557H842.838V260.855C842.838 261.5 842.991 261.995 843.297 262.34C843.603 262.685 844.023 262.857 844.557 262.857ZM849.693 253.297V260.24C849.693 261.113 849.892 261.764 850.289 262.193C850.686 262.623 851.308 262.838 852.154 262.838C853.274 262.838 854.091 262.532 854.605 261.92C855.126 261.308 855.387 260.309 855.387 258.922V253.297H857.008V264H855.67L855.436 262.564H855.348C855.016 263.092 854.553 263.495 853.961 263.775C853.375 264.055 852.704 264.195 851.949 264.195C850.647 264.195 849.671 263.886 849.02 263.268C848.375 262.649 848.053 261.66 848.053 260.299V253.297H849.693ZM867.779 264V257.076C867.779 256.204 867.581 255.553 867.184 255.123C866.786 254.693 866.165 254.479 865.318 254.479C864.199 254.479 863.378 254.781 862.857 255.387C862.337 255.992 862.076 256.992 862.076 258.385V264H860.455V253.297H861.773L862.037 254.762H862.115C862.447 254.234 862.913 253.827 863.512 253.541C864.111 253.248 864.778 253.102 865.514 253.102C866.803 253.102 867.773 253.414 868.424 254.039C869.075 254.658 869.4 255.65 869.4 257.018V264H867.779ZM874.361 264H872.74V253.297H874.361V264ZM872.604 250.396C872.604 250.025 872.695 249.755 872.877 249.586C873.059 249.41 873.287 249.322 873.561 249.322C873.821 249.322 874.046 249.41 874.234 249.586C874.423 249.762 874.518 250.032 874.518 250.396C874.518 250.761 874.423 251.035 874.234 251.217C874.046 251.393 873.821 251.48 873.561 251.48C873.287 251.48 873.059 251.393 872.877 251.217C872.695 251.035 872.604 250.761 872.604 250.396ZM881.256 262.857C881.542 262.857 881.819 262.838 882.086 262.799C882.353 262.753 882.564 262.708 882.721 262.662V263.902C882.545 263.987 882.285 264.055 881.939 264.107C881.601 264.166 881.295 264.195 881.021 264.195C878.951 264.195 877.916 263.105 877.916 260.924V254.557H876.383V253.775L877.916 253.102L878.6 250.816H879.537V253.297H882.643V254.557H879.537V260.855C879.537 261.5 879.69 261.995 879.996 262.34C880.302 262.685 880.722 262.857 881.256 262.857ZM886.49 264H884.869V253.297H886.49V264ZM884.732 250.396C884.732 250.025 884.824 249.755 885.006 249.586C885.188 249.41 885.416 249.322 885.689 249.322C885.95 249.322 886.174 249.41 886.363 249.586C886.552 249.762 886.646 250.032 886.646 250.396C886.646 250.761 886.552 251.035 886.363 251.217C886.174 251.393 885.95 251.48 885.689 251.48C885.416 251.48 885.188 251.393 885.006 251.217C884.824 251.035 884.732 250.761 884.732 250.396ZM894.449 264.195C892.867 264.195 891.617 263.714 890.699 262.75C889.788 261.786 889.332 260.449 889.332 258.736C889.332 257.011 889.755 255.641 890.602 254.625C891.454 253.609 892.597 253.102 894.029 253.102C895.37 253.102 896.432 253.544 897.213 254.43C897.994 255.309 898.385 256.471 898.385 257.916V258.941H891.012C891.044 260.198 891.36 261.152 891.959 261.803C892.564 262.454 893.414 262.779 894.508 262.779C895.66 262.779 896.799 262.538 897.926 262.057V263.502C897.353 263.749 896.809 263.925 896.295 264.029C895.787 264.14 895.172 264.195 894.449 264.195ZM894.01 254.459C893.15 254.459 892.464 254.739 891.949 255.299C891.441 255.859 891.142 256.633 891.051 257.623H896.646C896.646 256.601 896.419 255.82 895.963 255.279C895.507 254.732 894.856 254.459 894.01 254.459ZM908.062 261.08C908.062 262.076 907.691 262.844 906.949 263.385C906.207 263.925 905.165 264.195 903.824 264.195C902.405 264.195 901.298 263.971 900.504 263.521V262.018C901.018 262.278 901.568 262.483 902.154 262.633C902.747 262.783 903.316 262.857 903.863 262.857C904.71 262.857 905.361 262.724 905.816 262.457C906.272 262.184 906.5 261.77 906.5 261.217C906.5 260.8 906.318 260.445 905.953 260.152C905.595 259.853 904.892 259.501 903.844 259.098C902.848 258.727 902.138 258.404 901.715 258.131C901.298 257.851 900.986 257.535 900.777 257.184C900.576 256.832 900.475 256.412 900.475 255.924C900.475 255.051 900.829 254.365 901.539 253.863C902.249 253.355 903.222 253.102 904.459 253.102C905.611 253.102 906.738 253.336 907.838 253.805L907.262 255.123C906.188 254.68 905.214 254.459 904.342 254.459C903.574 254.459 902.994 254.579 902.604 254.82C902.213 255.061 902.018 255.393 902.018 255.816C902.018 256.103 902.089 256.347 902.232 256.549C902.382 256.751 902.62 256.943 902.945 257.125C903.271 257.307 903.896 257.571 904.82 257.916C906.09 258.378 906.946 258.844 907.389 259.312C907.838 259.781 908.062 260.37 908.062 261.08Z" fill="#666666"/>
<path d="M928.736 14.8828C928.736 16.3281 928.242 17.4414 927.252 18.2227C926.269 18.9974 924.859 19.3848 923.023 19.3848H921.344V25H919.684V10.7227H923.385C926.952 10.7227 928.736 12.1094 928.736 14.8828ZM921.344 17.959H922.838C924.309 17.959 925.374 17.7214 926.031 17.2461C926.689 16.7708 927.018 16.0091 927.018 14.9609C927.018 14.0169 926.708 13.3138 926.09 12.8516C925.471 12.3893 924.508 12.1582 923.199 12.1582H921.344V17.959ZM936.373 14.1016C936.848 14.1016 937.275 14.1406 937.652 14.2188L937.428 15.7227C936.985 15.625 936.594 15.5762 936.256 15.5762C935.39 15.5762 934.648 15.9277 934.029 16.6309C933.417 17.334 933.111 18.2096 933.111 19.2578V25H931.49V14.2969H932.828L933.014 16.2793H933.092C933.489 15.5827 933.967 15.0456 934.527 14.668C935.087 14.2904 935.702 14.1016 936.373 14.1016ZM944.176 25.1953C942.594 25.1953 941.344 24.7135 940.426 23.75C939.514 22.7865 939.059 21.4486 939.059 19.7363C939.059 18.0111 939.482 16.6406 940.328 15.625C941.181 14.6094 942.324 14.1016 943.756 14.1016C945.097 14.1016 946.158 14.5443 946.939 15.4297C947.721 16.3086 948.111 17.4707 948.111 18.916V19.9414H940.738C940.771 21.1979 941.087 22.1517 941.686 22.8027C942.291 23.4538 943.141 23.7793 944.234 23.7793C945.387 23.7793 946.526 23.5384 947.652 23.0566V24.502C947.079 24.7493 946.536 24.9251 946.021 25.0293C945.514 25.14 944.898 25.1953 944.176 25.1953ZM943.736 15.459C942.877 15.459 942.19 15.7389 941.676 16.2988C941.168 16.8587 940.868 17.6335 940.777 18.623H946.373C946.373 17.6009 946.145 16.8197 945.689 16.2793C945.234 15.7324 944.583 15.459 943.736 15.459ZM955.709 15.5566H952.984V25H951.363V15.5566H949.449V14.8242L951.363 14.2383V13.6426C951.363 11.0124 952.512 9.69727 954.811 9.69727C955.377 9.69727 956.041 9.8112 956.803 10.0391L956.383 11.3379C955.758 11.1361 955.224 11.0352 954.781 11.0352C954.169 11.0352 953.717 11.2402 953.424 11.6504C953.131 12.054 952.984 12.7051 952.984 13.6035V14.2969H955.709V15.5566ZM962.184 25.1953C960.602 25.1953 959.352 24.7135 958.434 23.75C957.522 22.7865 957.066 21.4486 957.066 19.7363C957.066 18.0111 957.49 16.6406 958.336 15.625C959.189 14.6094 960.331 14.1016 961.764 14.1016C963.105 14.1016 964.166 14.5443 964.947 15.4297C965.729 16.3086 966.119 17.4707 966.119 18.916V19.9414H958.746C958.779 21.1979 959.094 22.1517 959.693 22.8027C960.299 23.4538 961.148 23.7793 962.242 23.7793C963.395 23.7793 964.534 23.5384 965.66 23.0566V24.502C965.087 24.7493 964.544 24.9251 964.029 25.0293C963.521 25.14 962.906 25.1953 962.184 25.1953ZM961.744 15.459C960.885 15.459 960.198 15.7389 959.684 16.2988C959.176 16.8587 958.876 17.6335 958.785 18.623H964.381C964.381 17.6009 964.153 16.8197 963.697 16.2793C963.242 15.7324 962.59 15.459 961.744 15.459ZM973.775 14.1016C974.251 14.1016 974.677 14.1406 975.055 14.2188L974.83 15.7227C974.387 15.625 973.997 15.5762 973.658 15.5762C972.792 15.5762 972.05 15.9277 971.432 16.6309C970.82 17.334 970.514 18.2096 970.514 19.2578V25H968.893V14.2969H970.23L970.416 16.2793H970.494C970.891 15.5827 971.37 15.0456 971.93 14.668C972.49 14.2904 973.105 14.1016 973.775 14.1016ZM981.939 14.1016C982.415 14.1016 982.841 14.1406 983.219 14.2188L982.994 15.7227C982.551 15.625 982.161 15.5762 981.822 15.5762C980.956 15.5762 980.214 15.9277 979.596 16.6309C978.984 17.334 978.678 18.2096 978.678 19.2578V25H977.057V14.2969H978.395L978.58 16.2793H978.658C979.055 15.5827 979.534 15.0456 980.094 14.668C980.654 14.2904 981.269 14.1016 981.939 14.1016ZM989.742 25.1953C988.16 25.1953 986.91 24.7135 985.992 23.75C985.081 22.7865 984.625 21.4486 984.625 19.7363C984.625 18.0111 985.048 16.6406 985.895 15.625C986.747 14.6094 987.89 14.1016 989.322 14.1016C990.663 14.1016 991.725 14.5443 992.506 15.4297C993.287 16.3086 993.678 17.4707 993.678 18.916V19.9414H986.305C986.337 21.1979 986.653 22.1517 987.252 22.8027C987.857 23.4538 988.707 23.7793 989.801 23.7793C990.953 23.7793 992.092 23.5384 993.219 23.0566V24.502C992.646 24.7493 992.102 24.9251 991.588 25.0293C991.08 25.14 990.465 25.1953 989.742 25.1953ZM989.303 15.459C988.443 15.459 987.757 15.7389 987.242 16.2988C986.734 16.8587 986.435 17.6335 986.344 18.623H991.939C991.939 17.6009 991.712 16.8197 991.256 16.2793C990.8 15.7324 990.149 15.459 989.303 15.459ZM1003.74 23.5645H1003.65C1002.9 24.6517 1001.78 25.1953 1000.29 25.1953C998.889 25.1953 997.799 24.7168 997.018 23.7598C996.243 22.8027 995.855 21.4421 995.855 19.6777C995.855 17.9134 996.246 16.543 997.027 15.5664C997.809 14.5898 998.896 14.1016 1000.29 14.1016C1001.74 14.1016 1002.85 14.6289 1003.63 15.6836H1003.76L1003.69 14.9121L1003.65 14.1602V9.80469H1005.27V25H1003.95L1003.74 23.5645ZM1000.49 23.8379C1001.6 23.8379 1002.4 23.5384 1002.9 22.9395C1003.4 22.334 1003.65 21.3607 1003.65 20.0195V19.6777C1003.65 18.1608 1003.39 17.0801 1002.89 16.4355C1002.39 15.7845 1001.58 15.459 1000.47 15.459C999.524 15.459 998.795 15.8301 998.287 16.5723C997.786 17.3079 997.535 18.3496 997.535 19.6973C997.535 21.0645 997.786 22.0964 998.287 22.793C998.788 23.4896 999.524 23.8379 1000.49 23.8379ZM1022.21 21.2012C1022.21 22.4577 1021.76 23.4375 1020.85 24.1406C1019.93 24.8438 1018.7 25.1953 1017.13 25.1953C1015.44 25.1953 1014.14 24.9772 1013.23 24.541V22.9395C1013.81 23.1868 1014.45 23.3822 1015.14 23.5254C1015.83 23.6686 1016.52 23.7402 1017.19 23.7402C1018.3 23.7402 1019.13 23.5319 1019.69 23.1152C1020.25 22.6921 1020.53 22.1061 1020.53 21.3574C1020.53 20.8626 1020.43 20.459 1020.23 20.1465C1020.04 19.8275 1019.7 19.5345 1019.23 19.2676C1018.77 19.0007 1018.07 18.6979 1017.12 18.3594C1015.79 17.8841 1014.84 17.321 1014.26 16.6699C1013.7 16.0189 1013.41 15.1693 1013.41 14.1211C1013.41 13.0208 1013.83 12.1452 1014.65 11.4941C1015.48 10.8431 1016.57 10.5176 1017.94 10.5176C1019.35 10.5176 1020.66 10.778 1021.85 11.2988L1021.33 12.7441C1020.16 12.2493 1019.01 12.002 1017.9 12.002C1017.02 12.002 1016.33 12.1908 1015.84 12.5684C1015.34 12.946 1015.09 13.4701 1015.09 14.1406C1015.09 14.6354 1015.18 15.0423 1015.37 15.3613C1015.55 15.6738 1015.86 15.9635 1016.29 16.2305C1016.72 16.4909 1017.39 16.7806 1018.28 17.0996C1019.77 17.6335 1020.8 18.2064 1021.36 18.8184C1021.93 19.4303 1022.21 20.2246 1022.21 21.2012ZM1028.35 23.8574C1028.63 23.8574 1028.91 23.8379 1029.18 23.7988C1029.44 23.7533 1029.65 23.7077 1029.81 23.6621V24.9023C1029.63 24.987 1029.37 25.0553 1029.03 25.1074C1028.69 25.166 1028.38 25.1953 1028.11 25.1953C1026.04 25.1953 1025.01 24.1048 1025.01 21.9238V15.5566H1023.47V14.7754L1025.01 14.1016L1025.69 11.8164H1026.63V14.2969H1029.73V15.5566H1026.63V21.8555C1026.63 22.5 1026.78 22.9948 1027.09 23.3398C1027.39 23.6849 1027.81 23.8574 1028.35 23.8574ZM1038.54 25L1038.22 23.4766H1038.14C1037.61 24.1471 1037.07 24.6029 1036.54 24.8438C1036.01 25.0781 1035.35 25.1953 1034.56 25.1953C1033.5 25.1953 1032.66 24.9219 1032.06 24.375C1031.46 23.8281 1031.16 23.0501 1031.16 22.041C1031.16 19.8796 1032.89 18.7467 1036.34 18.6426L1038.16 18.584V17.9199C1038.16 17.0801 1037.98 16.4616 1037.61 16.0645C1037.26 15.6608 1036.68 15.459 1035.88 15.459C1034.99 15.459 1033.98 15.7324 1032.86 16.2793L1032.36 15.0391C1032.89 14.7526 1033.46 14.528 1034.09 14.3652C1034.72 14.2025 1035.35 14.1211 1035.98 14.1211C1037.26 14.1211 1038.2 14.4043 1038.81 14.9707C1039.43 15.5371 1039.74 16.4453 1039.74 17.6953V25H1038.54ZM1034.88 23.8574C1035.89 23.8574 1036.68 23.5807 1037.25 23.0273C1037.83 22.474 1038.12 21.6992 1038.12 20.7031V19.7363L1036.5 19.8047C1035.21 19.8503 1034.28 20.0521 1033.71 20.4102C1033.14 20.7617 1032.86 21.3118 1032.86 22.0605C1032.86 22.6465 1033.03 23.0924 1033.38 23.3984C1033.74 23.7044 1034.24 23.8574 1034.88 23.8574ZM1046.55 23.8574C1046.84 23.8574 1047.11 23.8379 1047.38 23.7988C1047.65 23.7533 1047.86 23.7077 1048.01 23.6621V24.9023C1047.84 24.987 1047.58 25.0553 1047.23 25.1074C1046.89 25.166 1046.59 25.1953 1046.31 25.1953C1044.24 25.1953 1043.21 24.1048 1043.21 21.9238V15.5566H1041.68V14.7754L1043.21 14.1016L1043.89 11.8164H1044.83V14.2969H1047.94V15.5566H1044.83V21.8555C1044.83 22.5 1044.98 22.9948 1045.29 23.3398C1045.6 23.6849 1046.01 23.8574 1046.55 23.8574ZM1051.69 14.2969V21.2402C1051.69 22.1126 1051.88 22.7637 1052.28 23.1934C1052.68 23.623 1053.3 23.8379 1054.15 23.8379C1055.27 23.8379 1056.08 23.5319 1056.6 22.9199C1057.12 22.3079 1057.38 21.3086 1057.38 19.9219V14.2969H1059V25H1057.66L1057.43 23.5645H1057.34C1057.01 24.0918 1056.55 24.4954 1055.95 24.7754C1055.37 25.0553 1054.7 25.1953 1053.94 25.1953C1052.64 25.1953 1051.66 24.8861 1051.01 24.2676C1050.37 23.6491 1050.04 22.6595 1050.04 21.2988V14.2969H1051.69ZM1069.35 22.0801C1069.35 23.0762 1068.98 23.8444 1068.24 24.3848C1067.5 24.9251 1066.45 25.1953 1065.11 25.1953C1063.69 25.1953 1062.59 24.9707 1061.79 24.5215V23.0176C1062.31 23.278 1062.86 23.4831 1063.44 23.6328C1064.04 23.7826 1064.61 23.8574 1065.15 23.8574C1066 23.8574 1066.65 23.724 1067.11 23.457C1067.56 23.1836 1067.79 22.7702 1067.79 22.2168C1067.79 21.8001 1067.61 21.4453 1067.24 21.1523C1066.88 20.8529 1066.18 20.5013 1065.13 20.0977C1064.14 19.7266 1063.43 19.4043 1063 19.1309C1062.59 18.8509 1062.27 18.5352 1062.07 18.1836C1061.86 17.832 1061.76 17.4121 1061.76 16.9238C1061.76 16.0514 1062.12 15.3646 1062.83 14.8633C1063.54 14.3555 1064.51 14.1016 1065.75 14.1016C1066.9 14.1016 1068.03 14.3359 1069.13 14.8047L1068.55 16.123C1067.48 15.6803 1066.5 15.459 1065.63 15.459C1064.86 15.459 1064.28 15.5794 1063.89 15.8203C1063.5 16.0612 1063.31 16.3932 1063.31 16.8164C1063.31 17.1029 1063.38 17.347 1063.52 17.5488C1063.67 17.7507 1063.91 17.9427 1064.23 18.125C1064.56 18.3073 1065.18 18.571 1066.11 18.916C1067.38 19.3783 1068.24 19.8438 1068.68 20.3125C1069.13 20.7812 1069.35 21.3704 1069.35 22.0801Z" fill="#666666"/>
<circle cx="843.5" cy="169.5" r="16.5" fill="#E6E6E6"/>
<g filter="url(#filter6_d)">
<circle cx="843.5" cy="169.5" r="7.5" fill="white"/>
</g>
<circle cx="993.5" cy="91.5" r="16.5" fill="#E6E6E6"/>
<g filter="url(#filter7_d)">
<circle cx="993.5" cy="91.5" r="7.5" fill="white"/>
</g>
<defs>
<filter id="filter0_d" x="358" y="61" width="71" height="71" filterUnits="userSpaceOnUse" color-interpolation-filters="sRGB">
<feFlood flood-opacity="0" result="BackgroundImageFix"/>
<feColorMatrix in="SourceAlpha" type="matrix" values="0 0 0 0 0 0 0 0 0 0 0 0 0 0 0 0 0 0 127 0"/>
<feOffset dy="4"/>
<feGaussianBlur stdDeviation="7.5"/>
<feColorMatrix type="matrix" values="0 0 0 0 0.85098 0 0 0 0 0.345098 0 0 0 0 0.25098 0 0 0 0.22 0"/>
<feBlend mode="normal" in2="BackgroundImageFix" result="effect1_dropShadow"/>
<feBlend mode="normal" in="SourceGraphic" in2="effect1_dropShadow" result="shape"/>
</filter>
<filter id="filter1_d" x="376" y="79" width="35" height="35" filterUnits="userSpaceOnUse" color-interpolation-filters="sRGB">
<feFlood flood-opacity="0" result="BackgroundImageFix"/>
<feColorMatrix in="SourceAlpha" type="matrix" values="0 0 0 0 0 0 0 0 0 0 0 0 0 0 0 0 0 0 127 0"/>
<feOffset dy="4"/>
<feGaussianBlur stdDeviation="5"/>
<feColorMatrix type="matrix" values="0 0 0 0 0.766667 0 0 0 0 0.201062 0 0 0 0 0.0958333 0 0 0 1 0"/>
<feBlend mode="normal" in2="BackgroundImageFix" result="effect1_dropShadow"/>
<feBlend mode="normal" in="SourceGraphic" in2="effect1_dropShadow" result="shape"/>
</filter>
<filter id="filter2_d" x="526" y="155" width="35" height="35" filterUnits="userSpaceOnUse" color-interpolation-filters="sRGB">
<feFlood flood-opacity="0" result="BackgroundImageFix"/>
<feColorMatrix in="SourceAlpha" type="matrix" values="0 0 0 0 0 0 0 0 0 0 0 0 0 0 0 0 0 0 127 0"/>
<feOffset dy="4"/>
<feGaussianBlur stdDeviation="5"/>
<feColorMatrix type="matrix" values="0 0 0 0 0.6625 0 0 0 0 0.6625 0 0 0 0 0.6625 0 0 0 1 0"/>
<feBlend mode="normal" in2="BackgroundImageFix" result="effect1_dropShadow"/>
<feBlend mode="normal" in="SourceGraphic" in2="effect1_dropShadow" result="shape"/>
</filter>
<filter id="filter3_d" x="680" y="79" width="35" height="35" filterUnits="userSpaceOnUse" color-interpolation-filters="sRGB">
<feFlood flood-opacity="0" result="BackgroundImageFix"/>
<feColorMatrix in="SourceAlpha" type="matrix" values="0 0 0 0 0 0 0 0 0 0 0 0 0 0 0 0 0 0 127 0"/>
<feOffset dy="4"/>
<feGaussianBlur stdDeviation="5"/>
<feColorMatrix type="matrix" values="0 0 0 0 0.6625 0 0 0 0 0.6625 0 0 0 0 0.6625 0 0 0 1 0"/>
<feBlend mode="normal" in2="BackgroundImageFix" result="effect1_dropShadow"/>
<feBlend mode="normal" in="SourceGraphic" in2="effect1_dropShadow" result="shape"/>
</filter>
<filter id="filter4_d" x="229" y="155" width="35" height="35" filterUnits="userSpaceOnUse" color-interpolation-filters="sRGB">
<feFlood flood-opacity="0" result="BackgroundImageFix"/>
<feColorMatrix in="SourceAlpha" type="matrix" values="0 0 0 0 0 0 0 0 0 0 0 0 0 0 0 0 0 0 127 0"/>
<feOffset dy="4"/>
<feGaussianBlur stdDeviation="5"/>
<feColorMatrix type="matrix" values="0 0 0 0 0.6625 0 0 0 0 0.6625 0 0 0 0 0.6625 0 0 0 1 0"/>
<feBlend mode="normal" in2="BackgroundImageFix" result="effect1_dropShadow"/>
<feBlend mode="normal" in="SourceGraphic" in2="effect1_dropShadow" result="shape"/>
</filter>
<filter id="filter5_d" x="76" y="79" width="35" height="35" filterUnits="userSpaceOnUse" color-interpolation-filters="sRGB">
<feFlood flood-opacity="0" result="BackgroundImageFix"/>
<feColorMatrix in="SourceAlpha" type="matrix" values="0 0 0 0 0 0 0 0 0 0 0 0 0 0 0 0 0 0 127 0"/>
<feOffset dy="4"/>
<feGaussianBlur stdDeviation="5"/>
<feColorMatrix type="matrix" values="0 0 0 0 0.6625 0 0 0 0 0.6625 0 0 0 0 0.6625 0 0 0 1 0"/>
<feBlend mode="normal" in2="BackgroundImageFix" result="effect1_dropShadow"/>
<feBlend mode="normal" in="SourceGraphic" in2="effect1_dropShadow" result="shape"/>
</filter>
<filter id="filter6_d" x="826" y="156" width="35" height="35" filterUnits="userSpaceOnUse" color-interpolation-filters="sRGB">
<feFlood flood-opacity="0" result="BackgroundImageFix"/>
<feColorMatrix in="SourceAlpha" type="matrix" values="0 0 0 0 0 0 0 0 0 0 0 0 0 0 0 0 0 0 127 0"/>
<feOffset dy="4"/>
<feGaussianBlur stdDeviation="5"/>
<feColorMatrix type="matrix" values="0 0 0 0 0.6625 0 0 0 0 0.6625 0 0 0 0 0.6625 0 0 0 1 0"/>
<feBlend mode="normal" in2="BackgroundImageFix" result="effect1_dropShadow"/>
<feBlend mode="normal" in="SourceGraphic" in2="effect1_dropShadow" result="shape"/>
</filter>
<filter id="filter7_d" x="976" y="78" width="35" height="35" filterUnits="userSpaceOnUse" color-interpolation-filters="sRGB">
<feFlood flood-opacity="0" result="BackgroundImageFix"/>
<feColorMatrix in="SourceAlpha" type="matrix" values="0 0 0 0 0 0 0 0 0 0 0 0 0 0 0 0 0 0 127 0"/>
<feOffset dy="4"/>
<feGaussianBlur stdDeviation="5"/>
<feColorMatrix type="matrix" values="0 0 0 0 0.6625 0 0 0 0 0.6625 0 0 0 0 0.6625 0 0 0 1 0"/>
<feBlend mode="normal" in2="BackgroundImageFix" result="effect1_dropShadow"/>
<feBlend mode="normal" in="SourceGraphic" in2="effect1_dropShadow" result="shape"/>
</filter>
</defs>
</svg>
