<svg width="907" height="513" viewBox="0 0 907 513" fill="none" xmlns="http://www.w3.org/2000/svg">
<path d="M726.789 9.92969H727.984C729.102 9.92969 729.938 9.71094 730.492 9.27344C731.047 8.82812 731.324 8.18359 731.324 7.33984C731.324 6.48828 731.09 5.85938 730.621 5.45312C730.16 5.04687 729.434 4.84375 728.441 4.84375H726.789V9.92969ZM734.992 7.21094C734.992 9.05469 734.414 10.4648 733.258 11.4414C732.109 12.418 730.473 12.9062 728.348 12.9062H726.789V19H723.156V1.86719H728.629C730.707 1.86719 732.285 2.31641 733.363 3.21484C734.449 4.10547 734.992 5.4375 734.992 7.21094ZM745.258 5.65234C745.742 5.65234 746.145 5.6875 746.465 5.75781L746.195 9.10938C745.906 9.03125 745.555 8.99219 745.141 8.99219C744 8.99219 743.109 9.28516 742.469 9.87109C741.836 10.457 741.52 11.2773 741.52 12.332V19H737.945V5.89844H740.652L741.18 8.10156H741.355C741.762 7.36719 742.309 6.77734 742.996 6.33203C743.691 5.87891 744.445 5.65234 745.258 5.65234ZM754.27 8.19531C753.512 8.19531 752.918 8.4375 752.488 8.92188C752.059 9.39844 751.812 10.0781 751.75 10.9609H756.766C756.75 10.0781 756.52 9.39844 756.074 8.92188C755.629 8.4375 755.027 8.19531 754.27 8.19531ZM754.773 19.2344C752.664 19.2344 751.016 18.6523 749.828 17.4883C748.641 16.3242 748.047 14.6758 748.047 12.543C748.047 10.3477 748.594 8.65234 749.688 7.45703C750.789 6.25391 752.309 5.65234 754.246 5.65234C756.098 5.65234 757.539 6.17969 758.57 7.23438C759.602 8.28906 760.117 9.74609 760.117 11.6055V13.3398H751.668C751.707 14.3555 752.008 15.1484 752.57 15.7188C753.133 16.2891 753.922 16.5742 754.938 16.5742C755.727 16.5742 756.473 16.4922 757.176 16.3281C757.879 16.1641 758.613 15.9023 759.379 15.543V18.3086C758.754 18.6211 758.086 18.8516 757.375 19C756.664 19.1562 755.797 19.2344 754.773 19.2344ZM770.266 8.58203H767.172V19H763.598V8.58203H761.629V6.85938L763.598 5.89844V4.9375C763.598 3.44531 763.965 2.35547 764.699 1.66797C765.434 0.980469 766.609 0.636719 768.227 0.636719C769.461 0.636719 770.559 0.820313 771.52 1.1875L770.605 3.8125C769.887 3.58594 769.223 3.47266 768.613 3.47266C768.105 3.47266 767.738 3.625 767.512 3.92969C767.285 4.22656 767.172 4.60938 767.172 5.07812V5.89844H770.266V8.58203ZM777.754 8.19531C776.996 8.19531 776.402 8.4375 775.973 8.92188C775.543 9.39844 775.297 10.0781 775.234 10.9609H780.25C780.234 10.0781 780.004 9.39844 779.559 8.92188C779.113 8.4375 778.512 8.19531 777.754 8.19531ZM778.258 19.2344C776.148 19.2344 774.5 18.6523 773.312 17.4883C772.125 16.3242 771.531 14.6758 771.531 12.543C771.531 10.3477 772.078 8.65234 773.172 7.45703C774.273 6.25391 775.793 5.65234 777.73 5.65234C779.582 5.65234 781.023 6.17969 782.055 7.23438C783.086 8.28906 783.602 9.74609 783.602 11.6055V13.3398H775.152C775.191 14.3555 775.492 15.1484 776.055 15.7188C776.617 16.2891 777.406 16.5742 778.422 16.5742C779.211 16.5742 779.957 16.4922 780.66 16.3281C781.363 16.1641 782.098 15.9023 782.863 15.543V18.3086C782.238 18.6211 781.57 18.8516 780.859 19C780.148 19.1562 779.281 19.2344 778.258 19.2344ZM793.82 5.65234C794.305 5.65234 794.707 5.6875 795.027 5.75781L794.758 9.10938C794.469 9.03125 794.117 8.99219 793.703 8.99219C792.562 8.99219 791.672 9.28516 791.031 9.87109C790.398 10.457 790.082 11.2773 790.082 12.332V19H786.508V5.89844H789.215L789.742 8.10156H789.918C790.324 7.36719 790.871 6.77734 791.559 6.33203C792.254 5.87891 793.008 5.65234 793.82 5.65234ZM802.832 8.19531C802.074 8.19531 801.48 8.4375 801.051 8.92188C800.621 9.39844 800.375 10.0781 800.312 10.9609H805.328C805.312 10.0781 805.082 9.39844 804.637 8.92188C804.191 8.4375 803.59 8.19531 802.832 8.19531ZM803.336 19.2344C801.227 19.2344 799.578 18.6523 798.391 17.4883C797.203 16.3242 796.609 14.6758 796.609 12.543C796.609 10.3477 797.156 8.65234 798.25 7.45703C799.352 6.25391 800.871 5.65234 802.809 5.65234C804.66 5.65234 806.102 6.17969 807.133 7.23438C808.164 8.28906 808.68 9.74609 808.68 11.6055V13.3398H800.23C800.27 14.3555 800.57 15.1484 801.133 15.7188C801.695 16.2891 802.484 16.5742 803.5 16.5742C804.289 16.5742 805.035 16.4922 805.738 16.3281C806.441 16.1641 807.176 15.9023 807.941 15.543V18.3086C807.316 18.6211 806.648 18.8516 805.938 19C805.227 19.1562 804.359 19.2344 803.336 19.2344ZM815.734 19.2344C814.195 19.2344 812.984 18.6367 812.102 17.4414C811.227 16.2461 810.789 14.5898 810.789 12.4727C810.789 10.3242 811.234 8.65234 812.125 7.45703C813.023 6.25391 814.258 5.65234 815.828 5.65234C817.477 5.65234 818.734 6.29297 819.602 7.57422H819.719C819.539 6.59766 819.449 5.72656 819.449 4.96094V0.765625H823.035V19H820.293L819.602 17.3008H819.449C818.637 18.5898 817.398 19.2344 815.734 19.2344ZM816.988 16.3867C817.902 16.3867 818.57 16.1211 818.992 15.5898C819.422 15.0586 819.656 14.1562 819.695 12.8828V12.4961C819.695 11.0898 819.477 10.082 819.039 9.47266C818.609 8.86328 817.906 8.55859 816.93 8.55859C816.133 8.55859 815.512 8.89844 815.066 9.57812C814.629 10.25 814.41 11.2305 814.41 12.5195C814.41 13.8086 814.633 14.7773 815.078 15.4258C815.523 16.0664 816.16 16.3867 816.988 16.3867ZM842.148 15.1094C842.148 16.4531 841.68 17.4766 840.742 18.1797C839.812 18.8828 838.418 19.2344 836.559 19.2344C835.605 19.2344 834.793 19.168 834.121 19.0352C833.449 18.9102 832.82 18.7227 832.234 18.4727V15.5195C832.898 15.832 833.645 16.0938 834.473 16.3047C835.309 16.5156 836.043 16.6211 836.676 16.6211C837.973 16.6211 838.621 16.2461 838.621 15.4961C838.621 15.2148 838.535 14.9883 838.363 14.8164C838.191 14.6367 837.895 14.4375 837.473 14.2188C837.051 13.9922 836.488 13.7305 835.785 13.4336C834.777 13.0117 834.035 12.6211 833.559 12.2617C833.09 11.9023 832.746 11.4922 832.527 11.0312C832.316 10.5625 832.211 9.98828 832.211 9.30859C832.211 8.14453 832.66 7.24609 833.559 6.61328C834.465 5.97266 835.746 5.65234 837.402 5.65234C838.98 5.65234 840.516 5.99609 842.008 6.68359L840.93 9.26172C840.273 8.98047 839.66 8.75 839.09 8.57031C838.52 8.39062 837.938 8.30078 837.344 8.30078C836.289 8.30078 835.762 8.58594 835.762 9.15625C835.762 9.47656 835.93 9.75391 836.266 9.98828C836.609 10.2227 837.355 10.5703 838.504 11.0312C839.527 11.4453 840.277 11.832 840.754 12.1914C841.23 12.5508 841.582 12.9648 841.809 13.4336C842.035 13.9023 842.148 14.4609 842.148 15.1094ZM850.457 16.3867C851.082 16.3867 851.832 16.25 852.707 15.9766V18.6367C851.816 19.0352 850.723 19.2344 849.426 19.2344C847.996 19.2344 846.953 18.875 846.297 18.1562C845.648 17.4297 845.324 16.3438 845.324 14.8984V8.58203H843.613V7.07031L845.582 5.875L846.613 3.10938H848.898V5.89844H852.566V8.58203H848.898V14.8984C848.898 15.4062 849.039 15.7812 849.32 16.0234C849.609 16.2656 849.988 16.3867 850.457 16.3867ZM863.688 19L862.996 17.2188H862.902C862.301 17.9766 861.68 18.5039 861.039 18.8008C860.406 19.0898 859.578 19.2344 858.555 19.2344C857.297 19.2344 856.305 18.875 855.578 18.1562C854.859 17.4375 854.5 16.4141 854.5 15.0859C854.5 13.6953 854.984 12.6719 855.953 12.0156C856.93 11.3516 858.398 10.9844 860.359 10.9141L862.633 10.8438V10.2695C862.633 8.94141 861.953 8.27734 860.594 8.27734C859.547 8.27734 858.316 8.59375 856.902 9.22656L855.719 6.8125C857.227 6.02344 858.898 5.62891 860.734 5.62891C862.492 5.62891 863.84 6.01172 864.777 6.77734C865.715 7.54297 866.184 8.70703 866.184 10.2695V19H863.688ZM862.633 12.9297L861.25 12.9766C860.211 13.0078 859.438 13.1953 858.93 13.5391C858.422 13.8828 858.168 14.4062 858.168 15.1094C858.168 16.1172 858.746 16.6211 859.902 16.6211C860.73 16.6211 861.391 16.3828 861.883 15.9062C862.383 15.4297 862.633 14.7969 862.633 14.0078V12.9297ZM875.395 16.3867C876.02 16.3867 876.77 16.25 877.645 15.9766V18.6367C876.754 19.0352 875.66 19.2344 874.363 19.2344C872.934 19.2344 871.891 18.875 871.234 18.1562C870.586 17.4297 870.262 16.3438 870.262 14.8984V8.58203H868.551V7.07031L870.52 5.875L871.551 3.10938H873.836V5.89844H877.504V8.58203H873.836V14.8984C873.836 15.4062 873.977 15.7812 874.258 16.0234C874.547 16.2656 874.926 16.3867 875.395 16.3867ZM889.586 19L889.105 17.3242H888.918C888.535 17.9336 887.992 18.4062 887.289 18.7422C886.586 19.0703 885.785 19.2344 884.887 19.2344C883.348 19.2344 882.188 18.8242 881.406 18.0039C880.625 17.1758 880.234 15.9883 880.234 14.4414V5.89844H883.809V13.5508C883.809 14.4961 883.977 15.207 884.312 15.6836C884.648 16.1523 885.184 16.3867 885.918 16.3867C886.918 16.3867 887.641 16.0547 888.086 15.3906C888.531 14.7188 888.754 13.6094 888.754 12.0625V5.89844H892.328V19H889.586ZM905.219 15.1094C905.219 16.4531 904.75 17.4766 903.812 18.1797C902.883 18.8828 901.488 19.2344 899.629 19.2344C898.676 19.2344 897.863 19.168 897.191 19.0352C896.52 18.9102 895.891 18.7227 895.305 18.4727V15.5195C895.969 15.832 896.715 16.0938 897.543 16.3047C898.379 16.5156 899.113 16.6211 899.746 16.6211C901.043 16.6211 901.691 16.2461 901.691 15.4961C901.691 15.2148 901.605 14.9883 901.434 14.8164C901.262 14.6367 900.965 14.4375 900.543 14.2188C900.121 13.9922 899.559 13.7305 898.855 13.4336C897.848 13.0117 897.105 12.6211 896.629 12.2617C896.16 11.9023 895.816 11.4922 895.598 11.0312C895.387 10.5625 895.281 9.98828 895.281 9.30859C895.281 8.14453 895.73 7.24609 896.629 6.61328C897.535 5.97266 898.816 5.65234 900.473 5.65234C902.051 5.65234 903.586 5.99609 905.078 6.68359L904 9.26172C903.344 8.98047 902.73 8.75 902.16 8.57031C901.59 8.39062 901.008 8.30078 900.414 8.30078C899.359 8.30078 898.832 8.58594 898.832 9.15625C898.832 9.47656 899 9.75391 899.336 9.98828C899.68 10.2227 900.426 10.5703 901.574 11.0312C902.598 11.4453 903.348 11.832 903.824 12.1914C904.301 12.5508 904.652 12.9648 904.879 13.4336C905.105 13.9023 905.219 14.4609 905.219 15.1094Z" fill="#EE765A"/>
<path d="M9.98828 496.402C8.10547 496.402 6.61719 497.031 5.52344 498.289C4.4375 499.539 3.89453 501.254 3.89453 503.434C3.89453 505.676 4.41797 507.41 5.46484 508.637C6.51953 509.855 8.01953 510.465 9.96484 510.465C11.1602 510.465 12.5234 510.25 14.0547 509.82V511.566C12.8672 512.012 11.4023 512.234 9.66016 512.234C7.13672 512.234 5.1875 511.469 3.8125 509.938C2.44531 508.406 1.76172 506.23 1.76172 503.41C1.76172 501.645 2.08984 500.098 2.74609 498.77C3.41016 497.441 4.36328 496.418 5.60547 495.699C6.85547 494.98 8.32422 494.621 10.0117 494.621C11.8086 494.621 13.3789 494.949 14.7227 495.605L13.8789 497.316C12.582 496.707 11.2852 496.402 9.98828 496.402ZM19.3281 499.156V507.488C19.3281 508.535 19.5664 509.316 20.043 509.832C20.5195 510.348 21.2656 510.605 22.2812 510.605C23.625 510.605 24.6055 510.238 25.2227 509.504C25.8477 508.77 26.1602 507.57 26.1602 505.906V499.156H28.1055V512H26.5L26.2188 510.277H26.1133C25.7148 510.91 25.1602 511.395 24.4492 511.73C23.7461 512.066 22.9414 512.234 22.0352 512.234C20.4727 512.234 19.3008 511.863 18.5195 511.121C17.7461 510.379 17.3594 509.191 17.3594 507.559V499.156H19.3281ZM38.1016 498.922C38.6719 498.922 39.1836 498.969 39.6367 499.062L39.3672 500.867C38.8359 500.75 38.3672 500.691 37.9609 500.691C36.9219 500.691 36.0312 501.113 35.2891 501.957C34.5547 502.801 34.1875 503.852 34.1875 505.109V512H32.2422V499.156H33.8477L34.0703 501.535H34.1641C34.6406 500.699 35.2148 500.055 35.8867 499.602C36.5586 499.148 37.2969 498.922 38.1016 498.922ZM47.8984 498.922C48.4688 498.922 48.9805 498.969 49.4336 499.062L49.1641 500.867C48.6328 500.75 48.1641 500.691 47.7578 500.691C46.7188 500.691 45.8281 501.113 45.0859 501.957C44.3516 502.801 43.9844 503.852 43.9844 505.109V512H42.0391V499.156H43.6445L43.8672 501.535H43.9609C44.4375 500.699 45.0117 500.055 45.6836 499.602C46.3555 499.148 47.0938 498.922 47.8984 498.922ZM57.2617 512.234C55.3633 512.234 53.8633 511.656 52.7617 510.5C51.668 509.344 51.1211 507.738 51.1211 505.684C51.1211 503.613 51.6289 501.969 52.6445 500.75C53.668 499.531 55.0391 498.922 56.7578 498.922C58.3672 498.922 59.6406 499.453 60.5781 500.516C61.5156 501.57 61.9844 502.965 61.9844 504.699V505.93H53.1367C53.1758 507.438 53.5547 508.582 54.2734 509.363C55 510.145 56.0195 510.535 57.332 510.535C58.7148 510.535 60.082 510.246 61.4336 509.668V511.402C60.7461 511.699 60.0938 511.91 59.4766 512.035C58.8672 512.168 58.1289 512.234 57.2617 512.234ZM56.7344 500.551C55.7031 500.551 54.8789 500.887 54.2617 501.559C53.6523 502.23 53.293 503.16 53.1836 504.348H59.8984C59.8984 503.121 59.625 502.184 59.0781 501.535C58.5312 500.879 57.75 500.551 56.7344 500.551ZM74.1016 512V503.691C74.1016 502.645 73.8633 501.863 73.3867 501.348C72.9102 500.832 72.1641 500.574 71.1484 500.574C69.8047 500.574 68.8203 500.938 68.1953 501.664C67.5703 502.391 67.2578 503.59 67.2578 505.262V512H65.3125V499.156H66.8945L67.2109 500.914H67.3047C67.7031 500.281 68.2617 499.793 68.9805 499.449C69.6992 499.098 70.5 498.922 71.3828 498.922C72.9297 498.922 74.0938 499.297 74.875 500.047C75.6562 500.789 76.0469 501.98 76.0469 503.621V512H74.1016ZM84.2031 510.629C84.5469 510.629 84.8789 510.605 85.1992 510.559C85.5195 510.504 85.7734 510.449 85.9609 510.395V511.883C85.75 511.984 85.4375 512.066 85.0234 512.129C84.6172 512.199 84.25 512.234 83.9219 512.234C81.4375 512.234 80.1953 510.926 80.1953 508.309V500.668H78.3555V499.73L80.1953 498.922L81.0156 496.18H82.1406V499.156H85.8672V500.668H82.1406V508.227C82.1406 509 82.3242 509.594 82.6914 510.008C83.0586 510.422 83.5625 510.629 84.2031 510.629ZM103.059 508.496C103.059 509.691 102.613 510.613 101.723 511.262C100.832 511.91 99.582 512.234 97.9727 512.234C96.2695 512.234 94.9414 511.965 93.9883 511.426V509.621C94.6055 509.934 95.2656 510.18 95.9688 510.359C96.6797 510.539 97.3633 510.629 98.0195 510.629C99.0352 510.629 99.8164 510.469 100.363 510.148C100.91 509.82 101.184 509.324 101.184 508.66C101.184 508.16 100.965 507.734 100.527 507.383C100.098 507.023 99.2539 506.602 97.9961 506.117C96.8008 505.672 95.9492 505.285 95.4414 504.957C94.9414 504.621 94.5664 504.242 94.3164 503.82C94.0742 503.398 93.9531 502.895 93.9531 502.309C93.9531 501.262 94.3789 500.438 95.2305 499.836C96.082 499.227 97.25 498.922 98.7344 498.922C100.117 498.922 101.469 499.203 102.789 499.766L102.098 501.348C100.809 500.816 99.6406 500.551 98.5938 500.551C97.6719 500.551 96.9766 500.695 96.5078 500.984C96.0391 501.273 95.8047 501.672 95.8047 502.18C95.8047 502.523 95.8906 502.816 96.0625 503.059C96.2422 503.301 96.5273 503.531 96.918 503.75C97.3086 503.969 98.0586 504.285 99.168 504.699C100.691 505.254 101.719 505.812 102.25 506.375C102.789 506.938 103.059 507.645 103.059 508.496ZM110.383 510.629C110.727 510.629 111.059 510.605 111.379 510.559C111.699 510.504 111.953 510.449 112.141 510.395V511.883C111.93 511.984 111.617 512.066 111.203 512.129C110.797 512.199 110.43 512.234 110.102 512.234C107.617 512.234 106.375 510.926 106.375 508.309V500.668H104.535V499.73L106.375 498.922L107.195 496.18H108.32V499.156H112.047V500.668H108.32V508.227C108.32 509 108.504 509.594 108.871 510.008C109.238 510.422 109.742 510.629 110.383 510.629ZM122.617 512L122.23 510.172H122.137C121.496 510.977 120.855 511.523 120.215 511.812C119.582 512.094 118.789 512.234 117.836 512.234C116.562 512.234 115.562 511.906 114.836 511.25C114.117 510.594 113.758 509.66 113.758 508.449C113.758 505.855 115.832 504.496 119.98 504.371L122.16 504.301V503.504C122.16 502.496 121.941 501.754 121.504 501.277C121.074 500.793 120.383 500.551 119.43 500.551C118.359 500.551 117.148 500.879 115.797 501.535L115.199 500.047C115.832 499.703 116.523 499.434 117.273 499.238C118.031 499.043 118.789 498.945 119.547 498.945C121.078 498.945 122.211 499.285 122.945 499.965C123.688 500.645 124.059 501.734 124.059 503.234V512H122.617ZM118.223 510.629C119.434 510.629 120.383 510.297 121.07 509.633C121.766 508.969 122.113 508.039 122.113 506.844V505.684L120.168 505.766C118.621 505.82 117.504 506.062 116.816 506.492C116.137 506.914 115.797 507.574 115.797 508.473C115.797 509.176 116.008 509.711 116.43 510.078C116.859 510.445 117.457 510.629 118.223 510.629ZM132.227 510.629C132.57 510.629 132.902 510.605 133.223 510.559C133.543 510.504 133.797 510.449 133.984 510.395V511.883C133.773 511.984 133.461 512.066 133.047 512.129C132.641 512.199 132.273 512.234 131.945 512.234C129.461 512.234 128.219 510.926 128.219 508.309V500.668H126.379V499.73L128.219 498.922L129.039 496.18H130.164V499.156H133.891V500.668H130.164V508.227C130.164 509 130.348 509.594 130.715 510.008C131.082 510.422 131.586 510.629 132.227 510.629ZM138.391 499.156V507.488C138.391 508.535 138.629 509.316 139.105 509.832C139.582 510.348 140.328 510.605 141.344 510.605C142.688 510.605 143.668 510.238 144.285 509.504C144.91 508.77 145.223 507.57 145.223 505.906V499.156H147.168V512H145.562L145.281 510.277H145.176C144.777 510.91 144.223 511.395 143.512 511.73C142.809 512.066 142.004 512.234 141.098 512.234C139.535 512.234 138.363 511.863 137.582 511.121C136.809 510.379 136.422 509.191 136.422 507.559V499.156H138.391ZM159.59 508.496C159.59 509.691 159.145 510.613 158.254 511.262C157.363 511.91 156.113 512.234 154.504 512.234C152.801 512.234 151.473 511.965 150.52 511.426V509.621C151.137 509.934 151.797 510.18 152.5 510.359C153.211 510.539 153.895 510.629 154.551 510.629C155.566 510.629 156.348 510.469 156.895 510.148C157.441 509.82 157.715 509.324 157.715 508.66C157.715 508.16 157.496 507.734 157.059 507.383C156.629 507.023 155.785 506.602 154.527 506.117C153.332 505.672 152.48 505.285 151.973 504.957C151.473 504.621 151.098 504.242 150.848 503.82C150.605 503.398 150.484 502.895 150.484 502.309C150.484 501.262 150.91 500.438 151.762 499.836C152.613 499.227 153.781 498.922 155.266 498.922C156.648 498.922 158 499.203 159.32 499.766L158.629 501.348C157.34 500.816 156.172 500.551 155.125 500.551C154.203 500.551 153.508 500.695 153.039 500.984C152.57 501.273 152.336 501.672 152.336 502.18C152.336 502.523 152.422 502.816 152.594 503.059C152.773 503.301 153.059 503.531 153.449 503.75C153.84 503.969 154.59 504.285 155.699 504.699C157.223 505.254 158.25 505.812 158.781 506.375C159.32 506.938 159.59 507.645 159.59 508.496Z" fill="#C4C4C4"/>
<path d="M128 433.882C187.611 450.816 313.643 395.142 255.447 354.498C182.702 303.693 204.929 307.322 255.447 324.741C305.965 342.159 140.267 200.632 197.857 210.067C255.447 219.502 341.327 334.176 372.648 324.741C318.426 246.598 240.292 155.634 387.803 210.067C462.375 237.585 204.986 54.9152 351.431 88.1359C428.217 105.555 464.226 147.673 512.077 170.875C592.905 210.067 437.311 22.0899 512.077 67.0884C586.843 112.087 569.667 59.1048 605.029 51.1212C622.205 47.2434 631.905 138.07 642.412 88.136C652.92 38.2023 722.013 71.7448 741 82.7338" stroke="#333333" stroke-opacity="0.2" stroke-width="3" stroke-dasharray="10 10"/>
<g filter="url(#filter0_d)">
<circle cx="771" cy="78" r="30" fill="#D95840" fill-opacity="0.8"/>
</g>
<g filter="url(#filter1_d)">
<circle cx="770.5" cy="77.5" r="13.5" fill="white"/>
</g>
<circle cx="81" cy="439" r="30" fill="#E6E6E6"/>
<g filter="url(#filter2_d)">
<circle cx="80.9996" cy="439" r="13.6364" fill="white"/>
</g>
<defs>
<filter id="filter0_d" x="726" y="37" width="90" height="90" filterUnits="userSpaceOnUse" color-interpolation-filters="sRGB">
<feFlood flood-opacity="0" result="BackgroundImageFix"/>
<feColorMatrix in="SourceAlpha" type="matrix" values="0 0 0 0 0 0 0 0 0 0 0 0 0 0 0 0 0 0 127 0"/>
<feOffset dy="4"/>
<feGaussianBlur stdDeviation="7.5"/>
<feColorMatrix type="matrix" values="0 0 0 0 0.85098 0 0 0 0 0.345098 0 0 0 0 0.25098 0 0 0 0.22 0"/>
<feBlend mode="normal" in2="BackgroundImageFix" result="effect1_dropShadow"/>
<feBlend mode="normal" in="SourceGraphic" in2="effect1_dropShadow" result="shape"/>
</filter>
<filter id="filter1_d" x="747" y="58" width="47" height="47" filterUnits="userSpaceOnUse" color-interpolation-filters="sRGB">
<feFlood flood-opacity="0" result="BackgroundImageFix"/>
<feColorMatrix in="SourceAlpha" type="matrix" values="0 0 0 0 0 0 0 0 0 0 0 0 0 0 0 0 0 0 127 0"/>
<feOffset dy="4"/>
<feGaussianBlur stdDeviation="5"/>
<feColorMatrix type="matrix" values="0 0 0 0 0.766667 0 0 0 0 0.201062 0 0 0 0 0.0958333 0 0 0 1 0"/>
<feBlend mode="normal" in2="BackgroundImageFix" result="effect1_dropShadow"/>
<feBlend mode="normal" in="SourceGraphic" in2="effect1_dropShadow" result="shape"/>
</filter>
<filter id="filter2_d" x="57.3633" y="419.364" width="47.2727" height="47.2727" filterUnits="userSpaceOnUse" color-interpolation-filters="sRGB">
<feFlood flood-opacity="0" result="BackgroundImageFix"/>
<feColorMatrix in="SourceAlpha" type="matrix" values="0 0 0 0 0 0 0 0 0 0 0 0 0 0 0 0 0 0 127 0"/>
<feOffset dy="4"/>
<feGaussianBlur stdDeviation="5"/>
<feColorMatrix type="matrix" values="0 0 0 0 0.6625 0 0 0 0 0.6625 0 0 0 0 0.6625 0 0 0 1 0"/>
<feBlend mode="normal" in2="BackgroundImageFix" result="effect1_dropShadow"/>
<feBlend mode="normal" in="SourceGraphic" in2="effect1_dropShadow" result="shape"/>
</filter>
</defs>
</svg>
