<svg width="404" height="117" viewBox="0 0 404 117" fill="none" xmlns="http://www.w3.org/2000/svg">
<rect width="404" height="117" rx="10" fill="#EE765A"/>
<path d="M129.827 52.0464C128.403 52.0464 127.3 52.5835 126.519 53.6577C125.737 54.7238 125.347 56.2131 125.347 58.1255C125.347 62.105 126.84 64.0947 129.827 64.0947C131.08 64.0947 132.598 63.7814 134.38 63.1548V66.3286C132.915 66.939 131.279 67.2441 129.473 67.2441C126.877 67.2441 124.891 66.4588 123.516 64.8882C122.14 63.3094 121.453 61.047 121.453 58.1011C121.453 56.2456 121.79 54.6221 122.466 53.2305C123.141 51.8307 124.11 50.7606 125.371 50.02C126.641 49.2713 128.126 48.897 129.827 48.897C131.56 48.897 133.302 49.3161 135.051 50.1543L133.831 53.2305C133.163 52.9131 132.492 52.6364 131.816 52.4004C131.141 52.1644 130.478 52.0464 129.827 52.0464ZM141.619 67H137.896V48.0059H141.619V67ZM154.204 67L153.484 65.1445H153.386C152.76 65.9339 152.113 66.4832 151.445 66.7925C150.786 67.0936 149.924 67.2441 148.857 67.2441C147.547 67.2441 146.514 66.8698 145.757 66.1211C145.008 65.3724 144.634 64.3063 144.634 62.9229C144.634 61.4743 145.138 60.4082 146.147 59.7246C147.165 59.0329 148.695 58.6504 150.737 58.5771L153.105 58.5039V57.9058C153.105 56.5223 152.397 55.8306 150.981 55.8306C149.891 55.8306 148.609 56.1602 147.136 56.8193L145.903 54.3047C147.474 53.4827 149.215 53.0718 151.128 53.0718C152.959 53.0718 154.363 53.4705 155.339 54.2681C156.316 55.0656 156.804 56.2782 156.804 57.9058V67H154.204ZM153.105 60.6768L151.665 60.7256C150.583 60.7581 149.777 60.9535 149.248 61.3115C148.719 61.6696 148.455 62.2148 148.455 62.9473C148.455 63.9971 149.057 64.522 150.261 64.522C151.124 64.522 151.812 64.2738 152.324 63.7773C152.845 63.2809 153.105 62.6217 153.105 61.7998V60.6768ZM170.171 62.9473C170.171 64.347 169.683 65.4131 168.706 66.1455C167.738 66.8779 166.285 67.2441 164.348 67.2441C163.355 67.2441 162.509 67.175 161.809 67.0366C161.109 66.9064 160.454 66.7111 159.844 66.4507V63.3745C160.535 63.7 161.313 63.9727 162.175 64.1924C163.046 64.4121 163.811 64.522 164.47 64.522C165.821 64.522 166.497 64.1313 166.497 63.3501C166.497 63.0571 166.407 62.8211 166.228 62.6421C166.049 62.4549 165.74 62.2474 165.3 62.0195C164.861 61.7835 164.275 61.5109 163.542 61.2017C162.493 60.7622 161.72 60.3553 161.223 59.981C160.735 59.6066 160.377 59.1794 160.149 58.6992C159.929 58.2109 159.819 57.6128 159.819 56.9048C159.819 55.6922 160.287 54.7563 161.223 54.0972C162.167 53.4299 163.502 53.0962 165.227 53.0962C166.871 53.0962 168.47 53.4543 170.024 54.1704L168.901 56.856C168.218 56.563 167.579 56.3229 166.985 56.1357C166.391 55.9486 165.785 55.855 165.166 55.855C164.067 55.855 163.518 56.152 163.518 56.7461C163.518 57.0798 163.693 57.3687 164.043 57.6128C164.401 57.8569 165.178 58.2191 166.375 58.6992C167.441 59.1305 168.222 59.5334 168.718 59.9077C169.215 60.2821 169.581 60.7134 169.817 61.2017C170.053 61.6899 170.171 62.2718 170.171 62.9473ZM182.598 62.9473C182.598 64.347 182.109 65.4131 181.133 66.1455C180.164 66.8779 178.712 67.2441 176.775 67.2441C175.782 67.2441 174.936 67.175 174.236 67.0366C173.536 66.9064 172.881 66.7111 172.271 66.4507V63.3745C172.962 63.7 173.739 63.9727 174.602 64.1924C175.473 64.4121 176.238 64.522 176.897 64.522C178.248 64.522 178.923 64.1313 178.923 63.3501C178.923 63.0571 178.834 62.8211 178.655 62.6421C178.476 62.4549 178.167 62.2474 177.727 62.0195C177.288 61.7835 176.702 61.5109 175.969 61.2017C174.919 60.7622 174.146 60.3553 173.65 59.981C173.162 59.6066 172.804 59.1794 172.576 58.6992C172.356 58.2109 172.246 57.6128 172.246 56.9048C172.246 55.6922 172.714 54.7563 173.65 54.0972C174.594 53.4299 175.929 53.0962 177.654 53.0962C179.298 53.0962 180.897 53.4543 182.451 54.1704L181.328 56.856C180.645 56.563 180.006 56.3229 179.412 56.1357C178.818 55.9486 178.211 55.855 177.593 55.855C176.494 55.855 175.945 56.152 175.945 56.7461C175.945 57.0798 176.12 57.3687 176.47 57.6128C176.828 57.8569 177.605 58.2191 178.801 58.6992C179.867 59.1305 180.649 59.5334 181.145 59.9077C181.641 60.2821 182.008 60.7134 182.244 61.2017C182.48 61.6899 182.598 62.2718 182.598 62.9473ZM201.519 62.9473C201.519 64.347 201.03 65.4131 200.054 66.1455C199.085 66.8779 197.633 67.2441 195.696 67.2441C194.703 67.2441 193.857 67.175 193.157 67.0366C192.457 66.9064 191.802 66.7111 191.191 66.4507V63.3745C191.883 63.7 192.66 63.9727 193.523 64.1924C194.394 64.4121 195.159 64.522 195.818 64.522C197.169 64.522 197.844 64.1313 197.844 63.3501C197.844 63.0571 197.755 62.8211 197.576 62.6421C197.397 62.4549 197.087 62.2474 196.648 62.0195C196.208 61.7835 195.623 61.5109 194.89 61.2017C193.84 60.7622 193.067 60.3553 192.571 59.981C192.083 59.6066 191.724 59.1794 191.497 58.6992C191.277 58.2109 191.167 57.6128 191.167 56.9048C191.167 55.6922 191.635 54.7563 192.571 54.0972C193.515 53.4299 194.849 53.0962 196.575 53.0962C198.219 53.0962 199.818 53.4543 201.372 54.1704L200.249 56.856C199.565 56.563 198.927 56.3229 198.333 56.1357C197.738 55.9486 197.132 55.855 196.514 55.855C195.415 55.855 194.866 56.152 194.866 56.7461C194.866 57.0798 195.041 57.3687 195.391 57.6128C195.749 57.8569 196.526 58.2191 197.722 58.6992C198.788 59.1305 199.569 59.5334 200.066 59.9077C200.562 60.2821 200.929 60.7134 201.165 61.2017C201.401 61.6899 201.519 62.2718 201.519 62.9473ZM210.076 55.7451C209.286 55.7451 208.668 55.9974 208.22 56.502C207.773 56.9984 207.516 57.7064 207.451 58.626H212.676C212.66 57.7064 212.419 56.9984 211.956 56.502C211.492 55.9974 210.865 55.7451 210.076 55.7451ZM210.601 67.2441C208.403 67.2441 206.686 66.6379 205.449 65.4253C204.212 64.2127 203.594 62.4956 203.594 60.2739C203.594 57.9871 204.163 56.2212 205.303 54.9761C206.45 53.7228 208.033 53.0962 210.051 53.0962C211.98 53.0962 213.481 53.6455 214.556 54.7441C215.63 55.8428 216.167 57.3605 216.167 59.2974V61.104H207.366C207.406 62.1619 207.72 62.988 208.306 63.582C208.892 64.1761 209.714 64.4731 210.771 64.4731C211.593 64.4731 212.371 64.3877 213.103 64.2168C213.835 64.0459 214.6 63.7733 215.398 63.3989V66.2798C214.747 66.6053 214.051 66.8454 213.311 67C212.57 67.1628 211.667 67.2441 210.601 67.2441ZM224.944 64.2778C225.595 64.2778 226.376 64.1354 227.288 63.8506V66.6216C226.36 67.0366 225.221 67.2441 223.87 67.2441C222.38 67.2441 221.294 66.8698 220.61 66.1211C219.935 65.3643 219.597 64.2331 219.597 62.7275V56.1479H217.815V54.5732L219.866 53.3281L220.94 50.4473H223.32V53.3525H227.141V56.1479H223.32V62.7275C223.32 63.2565 223.467 63.6471 223.76 63.8994C224.061 64.1517 224.456 64.2778 224.944 64.2778ZM235.808 64.2778C236.459 64.2778 237.24 64.1354 238.152 63.8506V66.6216C237.224 67.0366 236.085 67.2441 234.734 67.2441C233.245 67.2441 232.158 66.8698 231.475 66.1211C230.799 65.3643 230.461 64.2331 230.461 62.7275V56.1479H228.679V54.5732L230.73 53.3281L231.804 50.4473H234.185V53.3525H238.005V56.1479H234.185V62.7275C234.185 63.2565 234.331 63.6471 234.624 63.8994C234.925 64.1517 235.32 64.2778 235.808 64.2778ZM240.764 49.8247C240.764 48.6121 241.44 48.0059 242.791 48.0059C244.141 48.0059 244.817 48.6121 244.817 49.8247C244.817 50.4025 244.646 50.8542 244.304 51.1797C243.971 51.4971 243.466 51.6558 242.791 51.6558C241.44 51.6558 240.764 51.0454 240.764 49.8247ZM244.646 67H240.923V53.3525H244.646V67ZM261.162 67H257.439V59.0288C257.439 58.0441 257.264 57.3076 256.914 56.8193C256.564 56.3229 256.007 56.0747 255.242 56.0747C254.2 56.0747 253.447 56.4246 252.983 57.1245C252.52 57.8162 252.288 58.9678 252.288 60.5791V67H248.564V53.3525H251.409L251.909 55.0981H252.117C252.532 54.439 253.101 53.9425 253.826 53.6089C254.558 53.2671 255.388 53.0962 256.316 53.0962C257.903 53.0962 259.107 53.5275 259.929 54.3901C260.751 55.2446 261.162 56.4816 261.162 58.1011V67ZM276.873 53.3525V55.2446L274.736 55.7939C275.127 56.4043 275.322 57.0879 275.322 57.8447C275.322 59.3096 274.81 60.453 273.784 61.2749C272.767 62.0887 271.351 62.4956 269.536 62.4956L268.865 62.459L268.315 62.3979C267.933 62.6909 267.742 63.0164 267.742 63.3745C267.742 63.9116 268.425 64.1802 269.792 64.1802H272.112C273.609 64.1802 274.749 64.5016 275.53 65.1445C276.319 65.7874 276.714 66.7314 276.714 67.9766C276.714 69.5716 276.047 70.8086 274.712 71.6875C273.385 72.5664 271.477 73.0059 268.987 73.0059C267.083 73.0059 265.626 72.6722 264.617 72.0049C263.616 71.3457 263.115 70.418 263.115 69.2217C263.115 68.3997 263.372 67.7121 263.884 67.1587C264.397 66.6053 265.15 66.2106 266.143 65.9746C265.76 65.8118 265.426 65.5474 265.142 65.1812C264.857 64.8068 264.714 64.4121 264.714 63.9971C264.714 63.4762 264.865 63.0449 265.166 62.7031C265.467 62.3532 265.903 62.0114 266.472 61.6777C265.756 61.3685 265.186 60.8721 264.763 60.1885C264.348 59.5049 264.141 58.6992 264.141 57.7715C264.141 56.2822 264.625 55.1307 265.593 54.3169C266.562 53.5031 267.945 53.0962 269.744 53.0962C270.126 53.0962 270.578 53.1328 271.099 53.2061C271.628 53.2712 271.965 53.32 272.112 53.3525H276.873ZM266.338 68.9287C266.338 69.4414 266.582 69.8442 267.07 70.1372C267.567 70.4302 268.258 70.5767 269.146 70.5767C270.48 70.5767 271.526 70.3936 272.283 70.0273C273.04 69.6611 273.418 69.1606 273.418 68.5259C273.418 68.0132 273.194 67.6592 272.747 67.4639C272.299 67.2686 271.607 67.1709 270.671 67.1709H268.743C268.059 67.1709 267.485 67.3296 267.021 67.647C266.566 67.9725 266.338 68.3997 266.338 68.9287ZM267.693 57.8203C267.693 58.5609 267.86 59.1468 268.193 59.5781C268.535 60.0094 269.052 60.2251 269.744 60.2251C270.444 60.2251 270.956 60.0094 271.282 59.5781C271.607 59.1468 271.77 58.5609 271.77 57.8203C271.77 56.1764 271.095 55.3545 269.744 55.3545C268.376 55.3545 267.693 56.1764 267.693 57.8203ZM297.502 53.3525V55.2446L295.366 55.7939C295.757 56.4043 295.952 57.0879 295.952 57.8447C295.952 59.3096 295.439 60.453 294.414 61.2749C293.397 62.0887 291.981 62.4956 290.166 62.4956L289.495 62.459L288.945 62.3979C288.563 62.6909 288.372 63.0164 288.372 63.3745C288.372 63.9116 289.055 64.1802 290.422 64.1802H292.742C294.239 64.1802 295.378 64.5016 296.16 65.1445C296.949 65.7874 297.344 66.7314 297.344 67.9766C297.344 69.5716 296.676 70.8086 295.342 71.6875C294.015 72.5664 292.107 73.0059 289.617 73.0059C287.712 73.0059 286.256 72.6722 285.247 72.0049C284.246 71.3457 283.745 70.418 283.745 69.2217C283.745 68.3997 284.001 67.7121 284.514 67.1587C285.027 66.6053 285.78 66.2106 286.772 65.9746C286.39 65.8118 286.056 65.5474 285.771 65.1812C285.487 64.8068 285.344 64.4121 285.344 63.9971C285.344 63.4762 285.495 63.0449 285.796 62.7031C286.097 62.3532 286.532 62.0114 287.102 61.6777C286.386 61.3685 285.816 60.8721 285.393 60.1885C284.978 59.5049 284.771 58.6992 284.771 57.7715C284.771 56.2822 285.255 55.1307 286.223 54.3169C287.192 53.5031 288.575 53.0962 290.374 53.0962C290.756 53.0962 291.208 53.1328 291.729 53.2061C292.257 53.2712 292.595 53.32 292.742 53.3525H297.502ZM286.968 68.9287C286.968 69.4414 287.212 69.8442 287.7 70.1372C288.197 70.4302 288.888 70.5767 289.775 70.5767C291.11 70.5767 292.156 70.3936 292.913 70.0273C293.669 69.6611 294.048 69.1606 294.048 68.5259C294.048 68.0132 293.824 67.6592 293.376 67.4639C292.929 67.2686 292.237 67.1709 291.301 67.1709H289.373C288.689 67.1709 288.115 67.3296 287.651 67.647C287.196 67.9725 286.968 68.3997 286.968 68.9287ZM288.323 57.8203C288.323 58.5609 288.49 59.1468 288.823 59.5781C289.165 60.0094 289.682 60.2251 290.374 60.2251C291.073 60.2251 291.586 60.0094 291.912 59.5781C292.237 59.1468 292.4 58.5609 292.4 57.8203C292.4 56.1764 291.724 55.3545 290.374 55.3545C289.006 55.3545 288.323 56.1764 288.323 57.8203ZM308.428 67L307.708 65.1445H307.61C306.983 65.9339 306.336 66.4832 305.669 66.7925C305.01 67.0936 304.147 67.2441 303.081 67.2441C301.771 67.2441 300.737 66.8698 299.98 66.1211C299.232 65.3724 298.857 64.3063 298.857 62.9229C298.857 61.4743 299.362 60.4082 300.371 59.7246C301.388 59.0329 302.918 58.6504 304.961 58.5771L307.329 58.5039V57.9058C307.329 56.5223 306.621 55.8306 305.205 55.8306C304.115 55.8306 302.833 56.1602 301.36 56.8193L300.127 54.3047C301.698 53.4827 303.439 53.0718 305.352 53.0718C307.183 53.0718 308.586 53.4705 309.563 54.2681C310.54 55.0656 311.028 56.2782 311.028 57.9058V67H308.428ZM307.329 60.6768L305.889 60.7256C304.806 60.7581 304.001 60.9535 303.472 61.3115C302.943 61.6696 302.678 62.2148 302.678 62.9473C302.678 63.9971 303.28 64.522 304.485 64.522C305.347 64.522 306.035 64.2738 306.548 63.7773C307.069 63.2809 307.329 62.6217 307.329 61.7998V60.6768ZM322.368 67.2441C320.765 67.2441 319.508 66.6623 318.596 65.4985H318.401C318.531 66.6379 318.596 67.297 318.596 67.4761V73.0059H314.873V53.3525H317.9L318.425 55.1226H318.596C319.467 53.7716 320.757 53.0962 322.466 53.0962C324.077 53.0962 325.339 53.7188 326.25 54.9639C327.161 56.209 327.617 57.9383 327.617 60.1519C327.617 61.6086 327.402 62.874 326.97 63.9482C326.547 65.0225 325.941 65.8403 325.151 66.4019C324.362 66.9634 323.434 67.2441 322.368 67.2441ZM321.27 56.0747C320.35 56.0747 319.679 56.3595 319.255 56.9292C318.832 57.4907 318.612 58.4225 318.596 59.7246V60.1274C318.596 61.5923 318.812 62.6421 319.243 63.2769C319.683 63.9116 320.374 64.229 321.318 64.229C322.987 64.229 323.821 62.8537 323.821 60.103C323.821 58.7603 323.613 57.7552 323.198 57.0879C322.791 56.4124 322.148 56.0747 321.27 56.0747Z" fill="white"/>
<g clip-path="url(#clip0)">
<path d="M57 22.9316C43.8897 22.9316 40.9097 36.098 40.7883 52.5111C40.7832 53.1939 41.1844 53.809 41.7996 54.0964C44.1162 55.1789 48.233 56.0157 51.4311 56.513H62.5689C65.7669 56.0157 69.8838 55.1788 72.2005 54.0964C72.8153 53.8092 73.2168 53.194 73.2118 52.5111C73.0904 36.0979 70.1103 22.9316 57 22.9316Z" fill="#694B4B"/>
<path d="M40.7883 52.5101C40.7832 53.1929 41.1844 53.808 41.7996 54.0954C44.1162 55.178 48.233 56.0147 51.4311 56.512H57V37.3445C57 37.3445 50.4875 37.6623 51.7587 37.3445C57 36.0341 67.4828 29.4824 61.3863 23.5111C60.0678 23.1319 58.6111 22.9307 57.0002 22.9307C43.8897 22.9308 40.9097 36.0971 40.7883 52.5101Z" fill="#5A4146"/>
<path d="M76.6857 87.1379V66.9545C76.6857 64.8387 75.4133 62.9301 73.4603 62.1164L64.2152 58.2643C63.3522 57.9048 62.7901 57.0613 62.7901 56.1265V53.3281H51.2101V56.1265C51.2101 57.0613 50.648 57.9046 49.785 58.2643L40.5399 62.1164C38.5866 62.9303 37.3145 64.8386 37.3145 66.9545V87.1379H76.6857Z" fill="#D29B6E"/>
<path d="M73.4603 62.1161L66.9611 59.4082C64.5685 62.2958 62.1963 64.4744 60.1309 66.0713H53.8692C51.804 64.4742 49.4317 62.2956 47.039 59.4082L40.5399 62.1161C38.5866 62.9299 37.3145 64.8383 37.3145 66.9543V87.1377H76.6859V66.9543C76.6857 64.8383 75.4133 62.9299 73.4603 62.1161Z" fill="#FFDC64"/>
<path d="M38.0666 64.2734C37.5911 65.0694 37.3145 65.987 37.3145 66.9545V87.1379H45.207V71.4137L38.0666 64.2734Z" fill="#FFC850"/>
<path d="M75.9335 64.2734C76.409 65.0694 76.6857 65.987 76.6857 66.9545V87.1379H68.7931V71.4137L75.9335 64.2734Z" fill="#FFC850"/>
<path d="M68.4935 38.934L67.6436 48.2821C67.5048 49.8085 66.6201 51.1674 65.2801 51.9117L59.2494 55.2621C57.8504 56.0393 56.1495 56.0393 54.7506 55.2621L48.7199 51.9117C47.3801 51.1674 46.4952 49.8085 46.3564 48.2821L45.5359 39.255C45.4722 38.555 45.9702 37.9319 46.6685 37.8504C49.7611 37.4894 57.8842 36.3572 62.8005 33.9696C63.4223 33.6675 64.1516 33.9111 64.4962 34.5102C65.0599 35.4898 66.1 36.8598 67.8061 37.6724C68.2781 37.8973 68.5409 38.4132 68.4935 38.934Z" fill="#F0C087"/>
<path d="M93.6896 91.0686H20.3104C19.5868 91.0686 19 90.4819 19 89.7582V87.1376C19 86.4139 19.5868 85.8271 20.3104 85.8271H93.6897C94.4134 85.8271 95.0001 86.4139 95.0001 87.1376V89.7582C95 90.482 94.4132 91.0686 93.6896 91.0686Z" fill="#F5DCB4"/>
<path d="M45.5358 39.2552L46.3563 48.2823C46.4951 49.8086 47.3798 51.1674 48.7197 51.9119L54.7505 55.2622C55.3025 55.5689 55.9047 55.7191 56.5136 55.7836L54.8165 51.5412C54.5266 50.8162 54.3463 50.0524 54.2814 49.2743L53.56 40.6187C53.5048 39.9555 53.9539 39.3625 54.6054 39.2273C57.3971 38.6484 60.3837 37.8612 62.8687 36.8134C63.6882 37.9464 64.9155 39.1985 66.6792 40.0385C67.0328 40.2068 67.2007 40.2836 68.3619 40.3789L68.4933 38.9337C68.5408 38.4106 68.2734 37.8955 67.7995 37.6691C66.097 36.8563 65.0589 35.4884 64.4961 34.5102C64.1515 33.9111 63.422 33.6675 62.8002 33.9696C57.884 36.3574 49.7612 37.4894 46.6682 37.8504C45.9702 37.932 45.4721 38.555 45.5358 39.2552Z" fill="#E6AF78"/>
<path d="M45.0209 61.0802C47.2583 63.7803 49.696 66.1571 52.2659 68.1445L52.9739 68.6921H53.869H60.1307H61.0258L61.7338 68.1445C64.3038 66.1572 66.7415 63.7804 68.9787 61.0802L69.4907 60.4624L66.9607 59.4082C64.5681 62.2958 62.1959 64.4744 60.1305 66.0713H53.8688C51.8036 64.4742 49.4313 62.2956 47.0386 59.4082L44.5087 60.4624L45.0209 61.0802Z" fill="#FFC850"/>
<path d="M68.793 85.8278H45.2068C43.7594 85.8278 42.5862 84.6545 42.5862 83.2071V67.483C42.5862 66.0356 43.7594 64.8623 45.2068 64.8623H68.7931C70.2405 64.8623 71.4138 66.0356 71.4138 67.483V83.2071C71.4136 84.6545 70.2404 85.8278 68.793 85.8278Z" fill="#D5DCED"/>
<path d="M56.9999 77.965C58.4473 77.965 59.6206 76.7916 59.6206 75.3443C59.6206 73.8969 58.4473 72.7236 56.9999 72.7236C55.5526 72.7236 54.3793 73.8969 54.3793 75.3443C54.3793 76.7916 55.5526 77.965 56.9999 77.965Z" fill="white"/>
</g>
<defs>
<clipPath id="clip0">
<rect width="76" height="76" fill="white" transform="translate(19 19)"/>
</clipPath>
</defs>
</svg>
