<svg width="404" height="117" viewBox="0 0 404 117" fill="none" xmlns="http://www.w3.org/2000/svg">
<rect width="404" height="117" rx="10" fill="white"/>
<path d="M130.095 50.7524C128.134 50.7524 126.584 51.4076 125.444 52.7178C124.313 54.0199 123.748 55.8062 123.748 58.0767C123.748 60.4123 124.293 62.2189 125.383 63.4966C126.482 64.7661 128.044 65.4009 130.071 65.4009C131.316 65.4009 132.736 65.1771 134.331 64.7295V66.5483C133.094 67.0122 131.568 67.2441 129.753 67.2441C127.125 67.2441 125.094 66.4466 123.662 64.8516C122.238 63.2565 121.526 60.9901 121.526 58.0522C121.526 56.2131 121.868 54.6017 122.551 53.2183C123.243 51.8348 124.236 50.7687 125.53 50.02C126.832 49.2713 128.362 48.897 130.12 48.897C131.991 48.897 133.627 49.2388 135.027 49.9224L134.148 51.7046C132.797 51.0698 131.446 50.7524 130.095 50.7524ZM139.946 67H137.92V48.0059H139.946V67ZM152.471 67L152.068 65.0957H151.97C151.303 65.9339 150.636 66.5036 149.968 66.8047C149.309 67.0977 148.483 67.2441 147.49 67.2441C146.164 67.2441 145.122 66.9023 144.365 66.2188C143.617 65.5352 143.242 64.5627 143.242 63.3013C143.242 60.5994 145.403 59.1834 149.724 59.0532L151.995 58.98V58.1499C151.995 57.1001 151.767 56.327 151.311 55.8306C150.863 55.326 150.143 55.0737 149.15 55.0737C148.035 55.0737 146.774 55.4155 145.366 56.0991L144.744 54.5488C145.403 54.1908 146.123 53.91 146.904 53.7065C147.694 53.5031 148.483 53.4014 149.272 53.4014C150.868 53.4014 152.048 53.7554 152.812 54.4634C153.586 55.1714 153.972 56.3066 153.972 57.8691V67H152.471ZM147.893 65.5718C149.154 65.5718 150.143 65.2259 150.859 64.5342C151.584 63.8424 151.946 62.874 151.946 61.6289V60.4204L149.919 60.5059C148.308 60.5628 147.144 60.8151 146.428 61.2627C145.72 61.7021 145.366 62.3898 145.366 63.3257C145.366 64.0581 145.586 64.6156 146.025 64.998C146.473 65.3805 147.096 65.5718 147.893 65.5718ZM166.79 63.3501C166.79 64.5952 166.326 65.5555 165.398 66.231C164.47 66.9064 163.168 67.2441 161.492 67.2441C159.718 67.2441 158.334 66.9634 157.341 66.4019V64.522C157.984 64.8475 158.672 65.1038 159.404 65.291C160.145 65.4782 160.857 65.5718 161.541 65.5718C162.598 65.5718 163.412 65.4049 163.982 65.0713C164.552 64.7295 164.836 64.2127 164.836 63.521C164.836 63.0002 164.609 62.5566 164.153 62.1904C163.705 61.8161 162.826 61.3766 161.516 60.8721C160.271 60.4082 159.384 60.0054 158.855 59.6636C158.334 59.3136 157.944 58.9189 157.683 58.4795C157.431 58.04 157.305 57.5151 157.305 56.9048C157.305 55.8143 157.748 54.9557 158.635 54.3291C159.522 53.6943 160.739 53.377 162.285 53.377C163.726 53.377 165.133 53.6699 166.509 54.2559L165.789 55.9038C164.446 55.3504 163.229 55.0737 162.139 55.0737C161.178 55.0737 160.454 55.2243 159.966 55.5254C159.478 55.8265 159.233 56.2415 159.233 56.7705C159.233 57.1286 159.323 57.4338 159.502 57.686C159.689 57.9383 159.986 58.1784 160.393 58.4062C160.8 58.6341 161.581 58.9637 162.737 59.395C164.324 59.9728 165.394 60.5547 165.947 61.1406C166.509 61.7266 166.79 62.4631 166.79 63.3501ZM178.728 63.3501C178.728 64.5952 178.264 65.5555 177.336 66.231C176.409 66.9064 175.107 67.2441 173.43 67.2441C171.656 67.2441 170.273 66.9634 169.28 66.4019V64.522C169.923 64.8475 170.61 65.1038 171.343 65.291C172.083 65.4782 172.795 65.5718 173.479 65.5718C174.537 65.5718 175.351 65.4049 175.92 65.0713C176.49 64.7295 176.775 64.2127 176.775 63.521C176.775 63.0002 176.547 62.5566 176.091 62.1904C175.644 61.8161 174.765 61.3766 173.455 60.8721C172.209 60.4082 171.322 60.0054 170.793 59.6636C170.273 59.3136 169.882 58.9189 169.622 58.4795C169.369 58.04 169.243 57.5151 169.243 56.9048C169.243 55.8143 169.687 54.9557 170.574 54.3291C171.461 53.6943 172.677 53.377 174.224 53.377C175.664 53.377 177.072 53.6699 178.447 54.2559L177.727 55.9038C176.384 55.3504 175.168 55.0737 174.077 55.0737C173.117 55.0737 172.393 55.2243 171.904 55.5254C171.416 55.8265 171.172 56.2415 171.172 56.7705C171.172 57.1286 171.261 57.4338 171.44 57.686C171.628 57.9383 171.925 58.1784 172.332 58.4062C172.738 58.6341 173.52 58.9637 174.675 59.395C176.262 59.9728 177.332 60.5547 177.886 61.1406C178.447 61.7266 178.728 62.4631 178.728 63.3501ZM197.161 63.3501C197.161 64.5952 196.697 65.5555 195.769 66.231C194.841 66.9064 193.539 67.2441 191.863 67.2441C190.089 67.2441 188.705 66.9634 187.712 66.4019V64.522C188.355 64.8475 189.043 65.1038 189.775 65.291C190.516 65.4782 191.228 65.5718 191.912 65.5718C192.97 65.5718 193.783 65.4049 194.353 65.0713C194.923 64.7295 195.208 64.2127 195.208 63.521C195.208 63.0002 194.98 62.5566 194.524 62.1904C194.076 61.8161 193.197 61.3766 191.887 60.8721C190.642 60.4082 189.755 60.0054 189.226 59.6636C188.705 59.3136 188.315 58.9189 188.054 58.4795C187.802 58.04 187.676 57.5151 187.676 56.9048C187.676 55.8143 188.119 54.9557 189.006 54.3291C189.893 53.6943 191.11 53.377 192.656 53.377C194.097 53.377 195.505 53.6699 196.88 54.2559L196.16 55.9038C194.817 55.3504 193.6 55.0737 192.51 55.0737C191.549 55.0737 190.825 55.2243 190.337 55.5254C189.849 55.8265 189.604 56.2415 189.604 56.7705C189.604 57.1286 189.694 57.4338 189.873 57.686C190.06 57.9383 190.357 58.1784 190.764 58.4062C191.171 58.6341 191.952 58.9637 193.108 59.395C194.695 59.9728 195.765 60.5547 196.318 61.1406C196.88 61.7266 197.161 62.4631 197.161 63.3501ZM206.121 67.2441C204.143 67.2441 202.581 66.6419 201.433 65.4375C200.294 64.2331 199.724 62.5607 199.724 60.4204C199.724 58.2638 200.253 56.5508 201.311 55.2812C202.377 54.0117 203.805 53.377 205.596 53.377C207.272 53.377 208.599 53.9303 209.575 55.0371C210.552 56.1357 211.04 57.5884 211.04 59.395V60.6768H201.824C201.864 62.2474 202.259 63.4396 203.008 64.2534C203.765 65.0672 204.827 65.4741 206.194 65.4741C207.634 65.4741 209.058 65.173 210.466 64.5708V66.3774C209.75 66.6867 209.071 66.9064 208.428 67.0366C207.793 67.175 207.024 67.2441 206.121 67.2441ZM205.571 55.0737C204.497 55.0737 203.639 55.4237 202.996 56.1235C202.361 56.8234 201.986 57.7918 201.873 59.0288H208.867C208.867 57.7511 208.582 56.7746 208.013 56.0991C207.443 55.4155 206.629 55.0737 205.571 55.0737ZM218.828 65.5718C219.186 65.5718 219.532 65.5474 219.866 65.4985C220.199 65.4416 220.464 65.3846 220.659 65.3276V66.8779C220.439 66.9837 220.114 67.0692 219.683 67.1343C219.259 67.2075 218.877 67.2441 218.535 67.2441C215.947 67.2441 214.653 65.881 214.653 63.1548V55.1958H212.737V54.2192L214.653 53.377L215.508 50.5205H216.68V53.6211H220.562V55.1958H216.68V63.0693C216.68 63.875 216.871 64.4935 217.253 64.9248C217.636 65.3561 218.161 65.5718 218.828 65.5718ZM227.666 65.5718C228.024 65.5718 228.37 65.5474 228.704 65.4985C229.037 65.4416 229.302 65.3846 229.497 65.3276V66.8779C229.277 66.9837 228.952 67.0692 228.521 67.1343C228.097 67.2075 227.715 67.2441 227.373 67.2441C224.785 67.2441 223.491 65.881 223.491 63.1548V55.1958H221.575V54.2192L223.491 53.377L224.346 50.5205H225.518V53.6211H229.399V55.1958H225.518V63.0693C225.518 63.875 225.709 64.4935 226.091 64.9248C226.474 65.3561 226.999 65.5718 227.666 65.5718ZM234.209 67H232.183V53.6211H234.209V67ZM232.012 49.9956C232.012 49.5317 232.126 49.194 232.354 48.9824C232.581 48.7627 232.866 48.6528 233.208 48.6528C233.534 48.6528 233.814 48.7627 234.05 48.9824C234.286 49.2021 234.404 49.5399 234.404 49.9956C234.404 50.4513 234.286 50.7931 234.05 51.021C233.814 51.2407 233.534 51.3506 233.208 51.3506C232.866 51.3506 232.581 51.2407 232.354 51.021C232.126 50.7931 232.012 50.4513 232.012 49.9956ZM247.661 67V58.3452C247.661 57.2547 247.413 56.4409 246.917 55.9038C246.42 55.3667 245.643 55.0981 244.585 55.0981C243.185 55.0981 242.16 55.4766 241.509 56.2334C240.858 56.9902 240.532 58.2394 240.532 59.981V67H238.506V53.6211H240.154L240.483 55.4521H240.581C240.996 54.793 241.578 54.2843 242.327 53.9263C243.075 53.5601 243.91 53.377 244.829 53.377C246.44 53.377 247.653 53.7676 248.467 54.5488C249.281 55.3219 249.688 56.563 249.688 58.272V67H247.661ZM264.812 53.6211V54.9028L262.334 55.1958C262.562 55.4806 262.765 55.855 262.944 56.3188C263.123 56.7746 263.213 57.2913 263.213 57.8691C263.213 59.1794 262.765 60.2251 261.87 61.0063C260.975 61.7876 259.746 62.1782 258.184 62.1782C257.785 62.1782 257.41 62.1457 257.061 62.0806C256.198 62.5363 255.767 63.11 255.767 63.8018C255.767 64.168 255.917 64.4406 256.218 64.6196C256.519 64.7905 257.036 64.876 257.769 64.876H260.137C261.585 64.876 262.696 65.1812 263.469 65.7915C264.25 66.4019 264.641 67.2889 264.641 68.4526C264.641 69.9338 264.047 71.0609 262.859 71.834C261.671 72.6152 259.937 73.0059 257.659 73.0059C255.909 73.0059 254.558 72.6803 253.606 72.0293C252.662 71.3783 252.19 70.4587 252.19 69.2705C252.19 68.4567 252.45 67.7528 252.971 67.1587C253.492 66.5646 254.224 66.1618 255.168 65.9502C254.827 65.7956 254.538 65.5555 254.302 65.23C254.074 64.9045 253.96 64.526 253.96 64.0947C253.96 63.6064 254.09 63.1792 254.351 62.813C254.611 62.4468 255.022 62.0928 255.583 61.751C254.892 61.4661 254.326 60.9819 253.887 60.2983C253.455 59.6147 253.24 58.8335 253.24 57.9546C253.24 56.4897 253.679 55.3626 254.558 54.5732C255.437 53.7757 256.682 53.377 258.293 53.377C258.993 53.377 259.624 53.4583 260.186 53.6211H264.812ZM254.143 69.2461C254.143 69.9704 254.448 70.5197 255.059 70.894C255.669 71.2684 256.544 71.4556 257.683 71.4556C259.384 71.4556 260.641 71.1992 261.455 70.6865C262.277 70.182 262.688 69.4943 262.688 68.6235C262.688 67.8993 262.464 67.3947 262.017 67.1099C261.569 66.8332 260.727 66.6948 259.49 66.6948H257.061C256.141 66.6948 255.425 66.9146 254.912 67.354C254.399 67.7935 254.143 68.4242 254.143 69.2461ZM255.242 57.9058C255.242 58.8416 255.506 59.5496 256.035 60.0298C256.564 60.5099 257.301 60.75 258.245 60.75C260.222 60.75 261.211 59.7897 261.211 57.8691C261.211 55.859 260.21 54.854 258.208 54.854C257.256 54.854 256.523 55.1104 256.011 55.623C255.498 56.1357 255.242 56.8966 255.242 57.9058ZM285.002 53.6211V54.9028L282.524 55.1958C282.752 55.4806 282.956 55.855 283.135 56.3188C283.314 56.7746 283.403 57.2913 283.403 57.8691C283.403 59.1794 282.956 60.2251 282.061 61.0063C281.165 61.7876 279.937 62.1782 278.374 62.1782C277.975 62.1782 277.601 62.1457 277.251 62.0806C276.388 62.5363 275.957 63.11 275.957 63.8018C275.957 64.168 276.108 64.4406 276.409 64.6196C276.71 64.7905 277.227 64.876 277.959 64.876H280.327C281.776 64.876 282.887 65.1812 283.66 65.7915C284.441 66.4019 284.832 67.2889 284.832 68.4526C284.832 69.9338 284.237 71.0609 283.049 71.834C281.861 72.6152 280.128 73.0059 277.849 73.0059C276.099 73.0059 274.749 72.6803 273.796 72.0293C272.852 71.3783 272.38 70.4587 272.38 69.2705C272.38 68.4567 272.641 67.7528 273.162 67.1587C273.682 66.5646 274.415 66.1618 275.359 65.9502C275.017 65.7956 274.728 65.5555 274.492 65.23C274.264 64.9045 274.15 64.526 274.15 64.0947C274.15 63.6064 274.281 63.1792 274.541 62.813C274.801 62.4468 275.212 62.0928 275.774 61.751C275.082 61.4661 274.517 60.9819 274.077 60.2983C273.646 59.6147 273.43 58.8335 273.43 57.9546C273.43 56.4897 273.87 55.3626 274.749 54.5732C275.627 53.7757 276.873 53.377 278.484 53.377C279.184 53.377 279.814 53.4583 280.376 53.6211H285.002ZM274.333 69.2461C274.333 69.9704 274.639 70.5197 275.249 70.894C275.859 71.2684 276.734 71.4556 277.874 71.4556C279.574 71.4556 280.832 71.1992 281.646 70.6865C282.467 70.182 282.878 69.4943 282.878 68.6235C282.878 67.8993 282.655 67.3947 282.207 67.1099C281.759 66.8332 280.917 66.6948 279.68 66.6948H277.251C276.331 66.6948 275.615 66.9146 275.103 67.354C274.59 67.7935 274.333 68.4242 274.333 69.2461ZM275.432 57.9058C275.432 58.8416 275.697 59.5496 276.226 60.0298C276.755 60.5099 277.491 60.75 278.435 60.75C280.413 60.75 281.401 59.7897 281.401 57.8691C281.401 55.859 280.4 54.854 278.398 54.854C277.446 54.854 276.714 55.1104 276.201 55.623C275.688 56.1357 275.432 56.8966 275.432 57.9058ZM295.977 67L295.574 65.0957H295.476C294.809 65.9339 294.141 66.5036 293.474 66.8047C292.815 67.0977 291.989 67.2441 290.996 67.2441C289.67 67.2441 288.628 66.9023 287.871 66.2188C287.122 65.5352 286.748 64.5627 286.748 63.3013C286.748 60.5994 288.909 59.1834 293.23 59.0532L295.5 58.98V58.1499C295.5 57.1001 295.273 56.327 294.817 55.8306C294.369 55.326 293.649 55.0737 292.656 55.0737C291.541 55.0737 290.28 55.4155 288.872 56.0991L288.25 54.5488C288.909 54.1908 289.629 53.91 290.41 53.7065C291.2 53.5031 291.989 53.4014 292.778 53.4014C294.373 53.4014 295.553 53.7554 296.318 54.4634C297.091 55.1714 297.478 56.3066 297.478 57.8691V67H295.977ZM291.399 65.5718C292.66 65.5718 293.649 65.2259 294.365 64.5342C295.09 63.8424 295.452 62.874 295.452 61.6289V60.4204L293.425 60.5059C291.814 60.5628 290.65 60.8151 289.934 61.2627C289.226 61.7021 288.872 62.3898 288.872 63.3257C288.872 64.0581 289.092 64.6156 289.531 64.998C289.979 65.3805 290.601 65.5718 291.399 65.5718ZM307.891 67.2441C307.02 67.2441 306.222 67.0854 305.498 66.7681C304.782 66.4425 304.18 65.9461 303.691 65.2788H303.545C303.643 66.0601 303.691 66.8006 303.691 67.5005V73.0059H301.665V53.6211H303.313L303.594 55.4521H303.691C304.212 54.7197 304.819 54.1908 305.51 53.8652C306.202 53.5397 306.995 53.377 307.891 53.377C309.665 53.377 311.032 53.9832 311.992 55.1958C312.961 56.4084 313.445 58.1092 313.445 60.2983C313.445 62.4956 312.952 64.2046 311.968 65.4253C310.991 66.6379 309.632 67.2441 307.891 67.2441ZM307.598 55.0981C306.23 55.0981 305.242 55.4766 304.631 56.2334C304.021 56.9902 303.708 58.1947 303.691 59.8467V60.2983C303.691 62.1782 304.005 63.5251 304.631 64.3389C305.258 65.1445 306.263 65.5474 307.646 65.5474C308.802 65.5474 309.705 65.0794 310.356 64.1436C311.016 63.2077 311.345 61.9178 311.345 60.2739C311.345 58.6056 311.016 57.328 310.356 56.4409C309.705 55.5457 308.786 55.0981 307.598 55.0981Z" fill="#282731"/>
<g clip-path="url(#clip0)">
<path d="M57.0001 22.9316C43.8898 22.9316 40.9098 36.098 40.7884 52.5111C40.7833 53.1939 41.1846 53.809 41.7997 54.0964C44.1163 55.1789 48.2331 56.0157 51.4312 56.513H62.5691C65.767 56.0157 69.8839 55.1788 72.2006 54.0964C72.8154 53.8092 73.2169 53.194 73.2119 52.5111C73.0905 36.0979 70.1104 22.9316 57.0001 22.9316Z" fill="#694B4B"/>
<path d="M40.7884 52.5101C40.7833 53.1929 41.1846 53.808 41.7997 54.0954C44.1163 55.178 48.2331 56.0147 51.4312 56.512H57.0001V37.3445C57.0001 37.3445 50.4876 37.6623 51.7588 37.3445C57.0001 36.0341 67.4829 29.4824 61.3865 23.5111C60.0679 23.1319 58.6113 22.9307 57.0003 22.9307C43.8898 22.9308 40.9098 36.0971 40.7884 52.5101Z" fill="#5A4146"/>
<path d="M76.6857 87.1379V66.9545C76.6857 64.8387 75.4133 62.9301 73.4603 62.1164L64.2152 58.2643C63.3522 57.9048 62.7901 57.0613 62.7901 56.1265V53.3281H51.2101V56.1265C51.2101 57.0613 50.648 57.9046 49.785 58.2643L40.5399 62.1164C38.5866 62.9303 37.3145 64.8386 37.3145 66.9545V87.1379H76.6857Z" fill="#D29B6E"/>
<path d="M73.4603 62.1161L66.9611 59.4082C64.5685 62.2958 62.1963 64.4744 60.1309 66.0713H53.8692C51.804 64.4742 49.4317 62.2956 47.039 59.4082L40.5399 62.1161C38.5866 62.9299 37.3145 64.8383 37.3145 66.9543V87.1377H76.6859V66.9543C76.6857 64.8383 75.4133 62.9299 73.4603 62.1161Z" fill="#FFDC64"/>
<path d="M38.0666 64.2734C37.5911 65.0694 37.3145 65.987 37.3145 66.9545V87.1379H45.207V71.4137L38.0666 64.2734Z" fill="#FFC850"/>
<path d="M75.9337 64.2734C76.4091 65.0694 76.6858 65.987 76.6858 66.9545V87.1379H68.7932V71.4137L75.9337 64.2734Z" fill="#FFC850"/>
<path d="M68.4934 38.934L67.6434 48.2821C67.5047 49.8085 66.62 51.1674 65.28 51.9117L59.2493 55.2621C57.8503 56.0393 56.1493 56.0393 54.7505 55.2621L48.7197 51.9117C47.3799 51.1674 46.4951 49.8085 46.3563 48.2821L45.5358 39.255C45.4721 38.555 45.9701 37.9319 46.6683 37.8504C49.761 37.4894 57.8841 36.3572 62.8004 33.9696C63.4222 33.6675 64.1515 33.9111 64.4961 34.5102C65.0597 35.4898 66.0998 36.8598 67.806 37.6724C68.278 37.8973 68.5407 38.4132 68.4934 38.934Z" fill="#F0C087"/>
<path d="M93.6896 91.0686H20.3104C19.5868 91.0686 19 90.4819 19 89.7582V87.1376C19 86.4139 19.5868 85.8271 20.3104 85.8271H93.6897C94.4134 85.8271 95.0001 86.4139 95.0001 87.1376V89.7582C95 90.482 94.4132 91.0686 93.6896 91.0686Z" fill="#F5DCB4"/>
<path d="M45.5358 39.2552L46.3563 48.2823C46.4951 49.8086 47.3798 51.1674 48.7197 51.9119L54.7505 55.2622C55.3025 55.5689 55.9047 55.7191 56.5136 55.7836L54.8165 51.5412C54.5266 50.8162 54.3463 50.0524 54.2814 49.2743L53.56 40.6187C53.5048 39.9555 53.9539 39.3625 54.6054 39.2273C57.3971 38.6484 60.3837 37.8612 62.8687 36.8134C63.6882 37.9464 64.9155 39.1985 66.6792 40.0385C67.0328 40.2068 67.2007 40.2836 68.3619 40.3789L68.4933 38.9337C68.5408 38.4106 68.2734 37.8955 67.7995 37.6691C66.097 36.8563 65.0589 35.4884 64.4961 34.5102C64.1515 33.9111 63.422 33.6675 62.8002 33.9696C57.884 36.3574 49.7612 37.4894 46.6682 37.8504C45.9702 37.932 45.4721 38.555 45.5358 39.2552Z" fill="#E6AF78"/>
<path d="M45.0208 61.0802C47.2582 63.7803 49.6958 66.1571 52.2657 68.1445L52.9738 68.6921H53.8689H60.1306H61.0256L61.7337 68.1445C64.3037 66.1572 66.7414 63.7804 68.9786 61.0802L69.4906 60.4624L66.9606 59.4082C64.5679 62.2958 62.1958 64.4744 60.1304 66.0713H53.8687C51.8035 64.4742 49.4312 62.2956 47.0385 59.4082L44.5085 60.4624L45.0208 61.0802Z" fill="#FFC850"/>
<path d="M68.793 85.8278H45.2068C43.7594 85.8278 42.5862 84.6545 42.5862 83.2071V67.483C42.5862 66.0356 43.7594 64.8623 45.2068 64.8623H68.7931C70.2405 64.8623 71.4138 66.0356 71.4138 67.483V83.2071C71.4136 84.6545 70.2404 85.8278 68.793 85.8278Z" fill="#D5DCED"/>
<path d="M57.0001 77.965C58.4474 77.965 59.6207 76.7916 59.6207 75.3443C59.6207 73.8969 58.4474 72.7236 57.0001 72.7236C55.5527 72.7236 54.3794 73.8969 54.3794 75.3443C54.3794 76.7916 55.5527 77.965 57.0001 77.965Z" fill="white"/>
</g>
<defs>
<clipPath id="clip0">
<rect width="76" height="76" fill="white" transform="translate(19 19)"/>
</clipPath>
</defs>
</svg>
