<svg width="76" height="76" viewBox="0 0 76 76" fill="none" xmlns="http://www.w3.org/2000/svg">
<g clip-path="url(#clip0)">
<path d="M38.0001 3.93164C24.8898 3.93164 21.9098 17.098 21.7884 33.5111C21.7833 34.1939 22.1846 34.809 22.7997 35.0964C25.1163 36.1789 29.2331 37.0157 32.4312 37.513H43.5691C46.767 37.0157 50.8839 36.1788 53.2006 35.0964C53.8154 34.8092 54.2169 34.194 54.2119 33.5111C54.0905 17.0979 51.1104 3.93164 38.0001 3.93164Z" fill="#694B4B"/>
<path d="M21.7884 33.5101C21.7833 34.1929 22.1846 34.808 22.7997 35.0954C25.1163 36.178 29.2331 37.0147 32.4312 37.512H38.0001V18.3445C38.0001 18.3445 31.4876 18.6623 32.7588 18.3445C38.0001 17.0341 48.4829 10.4824 42.3865 4.51105C41.0679 4.13195 39.6113 3.93066 38.0003 3.93066C24.8898 3.93081 21.9098 17.0971 21.7884 33.5101Z" fill="#5A4146"/>
<path d="M57.6857 68.1379V47.9545C57.6857 45.8387 56.4133 43.9301 54.4603 43.1164L45.2152 39.2643C44.3522 38.9048 43.7901 38.0613 43.7901 37.1265V34.3281H32.2101V37.1265C32.2101 38.0613 31.648 38.9046 30.785 39.2643L21.5399 43.1164C19.5866 43.9303 18.3145 45.8386 18.3145 47.9545V68.1379H57.6857Z" fill="#D29B6E"/>
<path d="M54.4603 43.1161L47.9611 40.4082C45.5685 43.2958 43.1963 45.4744 41.1309 47.0713H34.8692C32.804 45.4742 30.4317 43.2956 28.039 40.4082L21.5399 43.1161C19.5866 43.9299 18.3145 45.8383 18.3145 47.9543V68.1377H57.6859V47.9543C57.6857 45.8383 56.4133 43.9299 54.4603 43.1161Z" fill="#FFDC64"/>
<path d="M19.0666 45.2734C18.5911 46.0694 18.3145 46.987 18.3145 47.9545V68.1379H26.207V52.4137L19.0666 45.2734Z" fill="#FFC850"/>
<path d="M56.9337 45.2734C57.4091 46.0694 57.6858 46.987 57.6858 47.9545V68.1379H49.7932V52.4137L56.9337 45.2734Z" fill="#FFC850"/>
<path d="M49.4934 19.934L48.6434 29.2821C48.5047 30.8085 47.62 32.1674 46.28 32.9117L40.2493 36.2621C38.8503 37.0393 37.1493 37.0393 35.7505 36.2621L29.7197 32.9117C28.3799 32.1674 27.4951 30.8085 27.3563 29.2821L26.5358 20.255C26.4721 19.555 26.9701 18.9319 27.6683 18.8504C30.761 18.4894 38.8841 17.3572 43.8004 14.9696C44.4222 14.6675 45.1515 14.9111 45.4961 15.5102C46.0597 16.4898 47.0998 17.8598 48.806 18.6724C49.278 18.8973 49.5407 19.4132 49.4934 19.934Z" fill="#F0C087"/>
<path d="M74.6896 72.0686H1.31041C0.586773 72.0686 0 71.4819 0 70.7582V68.1376C0 67.4139 0.586773 66.8271 1.31041 66.8271H74.6897C75.4134 66.8271 76.0001 67.4139 76.0001 68.1376V70.7582C76 71.482 75.4132 72.0686 74.6896 72.0686Z" fill="#F5DCB4"/>
<path d="M26.5358 20.2552L27.3563 29.2823C27.4951 30.8086 28.3798 32.1674 29.7197 32.9119L35.7505 36.2622C36.3025 36.5689 36.9047 36.7191 37.5136 36.7836L35.8165 32.5412C35.5266 31.8162 35.3463 31.0524 35.2814 30.2743L34.56 21.6187C34.5048 20.9555 34.9539 20.3625 35.6054 20.2273C38.3971 19.6484 41.3837 18.8612 43.8687 17.8134C44.6882 18.9464 45.9155 20.1985 47.6792 21.0385C48.0328 21.2068 48.2007 21.2836 49.3619 21.3789L49.4933 19.9337C49.5408 19.4106 49.2734 18.8955 48.7995 18.6691C47.097 17.8563 46.0589 16.4884 45.4961 15.5102C45.1515 14.9111 44.422 14.6675 43.8002 14.9696C38.884 17.3574 30.7612 18.4894 27.6682 18.8504C26.9702 18.932 26.4721 19.555 26.5358 20.2552Z" fill="#E6AF78"/>
<path d="M26.0208 42.0802C28.2582 44.7803 30.6958 47.1571 33.2657 49.1445L33.9738 49.6921H34.8689H41.1306H42.0256L42.7337 49.1445C45.3037 47.1572 47.7414 44.7804 49.9786 42.0802L50.4906 41.4624L47.9606 40.4082C45.5679 43.2958 43.1958 45.4744 41.1304 47.0713H34.8687C32.8035 45.4742 30.4312 43.2956 28.0385 40.4082L25.5085 41.4624L26.0208 42.0802Z" fill="#FFC850"/>
<path d="M49.793 66.8278H26.2068C24.7594 66.8278 23.5862 65.6545 23.5862 64.2071V48.483C23.5862 47.0356 24.7594 45.8623 26.2068 45.8623H49.7931C51.2405 45.8623 52.4138 47.0356 52.4138 48.483V64.2071C52.4136 65.6545 51.2404 66.8278 49.793 66.8278Z" fill="#D5DCED"/>
<path d="M38.0001 58.965C39.4474 58.965 40.6207 57.7916 40.6207 56.3443C40.6207 54.8969 39.4474 53.7236 38.0001 53.7236C36.5527 53.7236 35.3794 54.8969 35.3794 56.3443C35.3794 57.7916 36.5527 58.965 38.0001 58.965Z" fill="white"/>
</g>
<defs>
<clipPath id="clip0">
<rect width="76" height="76" fill="white"/>
</clipPath>
</defs>
</svg>
