<svg width="1208" height="538" viewBox="0 0 1208 538" fill="none" xmlns="http://www.w3.org/2000/svg">
<path d="M960.408 166.07C960.408 168.754 959.529 170.811 957.771 172.24C956.014 173.67 953.512 174.385 950.266 174.385H947.594V184H943.393V158.301H950.793C954.004 158.301 956.406 158.957 958 160.27C959.605 161.582 960.408 163.516 960.408 166.07ZM947.594 170.852H949.826C951.982 170.852 953.564 170.477 954.572 169.727C955.58 168.977 956.084 167.805 956.084 166.211C956.084 164.734 955.633 163.633 954.73 162.906C953.828 162.18 952.422 161.816 950.512 161.816H947.594V170.852ZM974.963 164.207C975.795 164.207 976.48 164.266 977.02 164.383L976.615 168.232C976.029 168.092 975.42 168.021 974.787 168.021C973.135 168.021 971.793 168.561 970.762 169.639C969.742 170.717 969.232 172.117 969.232 173.84V184H965.102V164.559H968.336L968.881 167.986H969.092C969.736 166.826 970.574 165.906 971.605 165.227C972.648 164.547 973.768 164.207 974.963 164.207ZM989.131 184.352C986.107 184.352 983.74 183.473 982.029 181.715C980.33 179.945 979.48 177.514 979.48 174.42C979.48 171.244 980.271 168.748 981.854 166.932C983.436 165.115 985.609 164.207 988.375 164.207C990.941 164.207 992.969 164.986 994.457 166.545C995.945 168.104 996.689 170.248 996.689 172.979V175.211H983.734C983.793 177.098 984.303 178.551 985.264 179.57C986.225 180.578 987.578 181.082 989.324 181.082C990.473 181.082 991.539 180.977 992.523 180.766C993.52 180.543 994.586 180.18 995.723 179.676V183.033C994.715 183.514 993.695 183.854 992.664 184.053C991.633 184.252 990.455 184.352 989.131 184.352ZM988.375 167.336C987.062 167.336 986.008 167.752 985.211 168.584C984.426 169.416 983.957 170.629 983.805 172.223H992.629C992.605 170.617 992.219 169.404 991.469 168.584C990.719 167.752 989.688 167.336 988.375 167.336ZM1011.14 167.688H1006.39V184H1002.24V167.688H999.045V165.754L1002.24 164.488V163.223C1002.24 160.926 1002.78 159.227 1003.86 158.125C1004.94 157.012 1006.59 156.455 1008.8 156.455C1010.25 156.455 1011.68 156.695 1013.09 157.176L1012 160.305C1010.98 159.977 1010.01 159.812 1009.08 159.812C1008.14 159.812 1007.46 160.105 1007.03 160.691C1006.6 161.266 1006.39 162.133 1006.39 163.293V164.559H1011.14V167.688ZM1022.95 184.352C1019.93 184.352 1017.56 183.473 1015.85 181.715C1014.15 179.945 1013.3 177.514 1013.3 174.42C1013.3 171.244 1014.09 168.748 1015.67 166.932C1017.26 165.115 1019.43 164.207 1022.2 164.207C1024.76 164.207 1026.79 164.986 1028.28 166.545C1029.77 168.104 1030.51 170.248 1030.51 172.979V175.211H1017.55C1017.61 177.098 1018.12 178.551 1019.08 179.57C1020.04 180.578 1021.4 181.082 1023.14 181.082C1024.29 181.082 1025.36 180.977 1026.34 180.766C1027.34 180.543 1028.41 180.18 1029.54 179.676V183.033C1028.54 183.514 1027.52 183.854 1026.48 184.053C1025.45 184.252 1024.28 184.352 1022.95 184.352ZM1022.2 167.336C1020.88 167.336 1019.83 167.752 1019.03 168.584C1018.25 169.416 1017.78 170.629 1017.62 172.223H1026.45C1026.43 170.617 1026.04 169.404 1025.29 168.584C1024.54 167.752 1023.51 167.336 1022.2 167.336ZM1045.06 164.207C1045.9 164.207 1046.58 164.266 1047.12 164.383L1046.72 168.232C1046.13 168.092 1045.52 168.021 1044.89 168.021C1043.24 168.021 1041.89 168.561 1040.86 169.639C1039.84 170.717 1039.33 172.117 1039.33 173.84V184H1035.2V164.559H1038.44L1038.98 167.986H1039.19C1039.84 166.826 1040.68 165.906 1041.71 165.227C1042.75 164.547 1043.87 164.207 1045.06 164.207ZM1059.23 184.352C1056.21 184.352 1053.84 183.473 1052.13 181.715C1050.43 179.945 1049.58 177.514 1049.58 174.42C1049.58 171.244 1050.37 168.748 1051.96 166.932C1053.54 165.115 1055.71 164.207 1058.48 164.207C1061.04 164.207 1063.07 164.986 1064.56 166.545C1066.05 168.104 1066.79 170.248 1066.79 172.979V175.211H1053.84C1053.89 177.098 1054.4 178.551 1055.37 179.57C1056.33 180.578 1057.68 181.082 1059.43 181.082C1060.57 181.082 1061.64 180.977 1062.62 180.766C1063.62 180.543 1064.69 180.18 1065.82 179.676V183.033C1064.82 183.514 1063.8 183.854 1062.77 184.053C1061.73 184.252 1060.56 184.352 1059.23 184.352ZM1058.48 167.336C1057.16 167.336 1056.11 167.752 1055.31 168.584C1054.53 169.416 1054.06 170.629 1053.91 172.223H1062.73C1062.71 170.617 1062.32 169.404 1061.57 168.584C1060.82 167.752 1059.79 167.336 1058.48 167.336ZM1078.04 184.352C1075.62 184.352 1073.72 183.473 1072.36 181.715C1071 179.957 1070.32 177.49 1070.32 174.314C1070.32 171.127 1071.01 168.648 1072.38 166.879C1073.76 165.098 1075.67 164.207 1078.11 164.207C1080.67 164.207 1082.61 165.15 1083.95 167.037H1084.16C1083.96 165.643 1083.86 164.541 1083.86 163.732V156.648H1088.01V184H1084.77L1084.05 181.451H1083.86C1082.54 183.385 1080.6 184.352 1078.04 184.352ZM1079.15 181.012C1080.85 181.012 1082.08 180.537 1082.86 179.588C1083.63 178.627 1084.03 177.074 1084.05 174.93V174.35C1084.05 171.9 1083.65 170.16 1082.86 169.129C1082.06 168.098 1080.81 167.582 1079.11 167.582C1077.66 167.582 1076.54 168.174 1075.76 169.357C1074.97 170.529 1074.58 172.205 1074.58 174.385C1074.58 176.541 1074.96 178.188 1075.72 179.324C1076.48 180.449 1077.62 181.012 1079.15 181.012ZM1116.33 178.463C1116.33 180.361 1115.63 181.82 1114.25 182.84C1112.87 183.848 1110.89 184.352 1108.31 184.352C1105.72 184.352 1103.64 183.959 1102.07 183.174V179.605C1104.36 180.66 1106.48 181.188 1108.45 181.188C1110.99 181.188 1112.27 180.42 1112.27 178.885C1112.27 178.393 1112.12 177.982 1111.84 177.654C1111.56 177.326 1111.1 176.986 1110.46 176.635C1109.81 176.283 1108.91 175.885 1107.77 175.439C1105.53 174.572 1104.01 173.705 1103.21 172.838C1102.43 171.971 1102.04 170.846 1102.04 169.463C1102.04 167.799 1102.7 166.51 1104.04 165.596C1105.39 164.67 1107.21 164.207 1109.52 164.207C1111.81 164.207 1113.97 164.67 1116.01 165.596L1114.67 168.707C1112.58 167.84 1110.81 167.406 1109.38 167.406C1107.2 167.406 1106.11 168.027 1106.11 169.27C1106.11 169.879 1106.39 170.395 1106.96 170.816C1107.53 171.238 1108.77 171.818 1110.68 172.557C1112.29 173.178 1113.46 173.746 1114.18 174.262C1114.91 174.777 1115.45 175.375 1115.8 176.055C1116.15 176.723 1116.33 177.525 1116.33 178.463ZM1128.05 181.012C1129.06 181.012 1130.07 180.854 1131.07 180.537V183.648C1130.62 183.848 1130.03 184.012 1129.3 184.141C1128.58 184.281 1127.84 184.352 1127.07 184.352C1123.15 184.352 1121.2 182.289 1121.2 178.164V167.688H1118.54V165.859L1121.39 164.348L1122.79 160.234H1125.34V164.559H1130.88V167.688H1125.34V178.094C1125.34 179.09 1125.59 179.828 1126.08 180.309C1126.59 180.777 1127.24 181.012 1128.05 181.012ZM1147.14 184L1146.31 181.293H1146.17C1145.24 182.477 1144.29 183.285 1143.34 183.719C1142.39 184.141 1141.18 184.352 1139.69 184.352C1137.78 184.352 1136.28 183.836 1135.21 182.805C1134.14 181.773 1133.61 180.314 1133.61 178.428C1133.61 176.424 1134.35 174.912 1135.84 173.893C1137.33 172.873 1139.59 172.316 1142.64 172.223L1146 172.117V171.08C1146 169.838 1145.71 168.912 1145.12 168.303C1144.54 167.682 1143.65 167.371 1142.43 167.371C1141.43 167.371 1140.48 167.518 1139.56 167.811C1138.65 168.104 1137.77 168.449 1136.93 168.848L1135.59 165.895C1136.65 165.344 1137.8 164.928 1139.05 164.646C1140.31 164.354 1141.49 164.207 1142.61 164.207C1145.08 164.207 1146.94 164.746 1148.2 165.824C1149.46 166.902 1150.09 168.596 1150.09 170.904V184H1147.14ZM1140.99 181.188C1142.49 181.188 1143.69 180.771 1144.59 179.939C1145.51 179.096 1145.96 177.918 1145.96 176.406V174.719L1143.47 174.824C1141.52 174.895 1140.1 175.223 1139.21 175.809C1138.33 176.383 1137.89 177.268 1137.89 178.463C1137.89 179.33 1138.15 180.004 1138.67 180.484C1139.18 180.953 1139.96 181.188 1140.99 181.188ZM1163.1 181.012C1164.11 181.012 1165.12 180.854 1166.12 180.537V183.648C1165.67 183.848 1165.08 184.012 1164.35 184.141C1163.63 184.281 1162.89 184.352 1162.12 184.352C1158.2 184.352 1156.25 182.289 1156.25 178.164V167.688H1153.59V165.859L1156.44 164.348L1157.85 160.234H1160.39V164.559H1165.93V167.688H1160.39V178.094C1160.39 179.09 1160.64 179.828 1161.13 180.309C1161.64 180.777 1162.29 181.012 1163.1 181.012ZM1183.74 184L1183.16 181.451H1182.95C1182.37 182.354 1181.55 183.062 1180.49 183.578C1179.43 184.094 1178.22 184.352 1176.87 184.352C1174.51 184.352 1172.75 183.766 1171.59 182.594C1170.43 181.422 1169.85 179.646 1169.85 177.268V164.559H1174.02V176.547C1174.02 178.035 1174.32 179.154 1174.93 179.904C1175.54 180.643 1176.5 181.012 1177.8 181.012C1179.53 181.012 1180.8 180.496 1181.61 179.465C1182.43 178.422 1182.84 176.682 1182.84 174.244V164.559H1186.99V184H1183.74ZM1205.94 178.463C1205.94 180.361 1205.25 181.82 1203.87 182.84C1202.48 183.848 1200.5 184.352 1197.92 184.352C1195.33 184.352 1193.25 183.959 1191.68 183.174V179.605C1193.97 180.66 1196.1 181.188 1198.06 181.188C1200.61 181.188 1201.88 180.42 1201.88 178.885C1201.88 178.393 1201.74 177.982 1201.46 177.654C1201.18 177.326 1200.71 176.986 1200.07 176.635C1199.42 176.283 1198.53 175.885 1197.38 175.439C1195.14 174.572 1193.62 173.705 1192.83 172.838C1192.04 171.971 1191.65 170.846 1191.65 169.463C1191.65 167.799 1192.32 166.51 1193.65 165.596C1195 164.67 1196.83 164.207 1199.14 164.207C1201.42 164.207 1203.58 164.67 1205.62 165.596L1204.29 168.707C1202.19 167.84 1200.43 167.406 1199 167.406C1196.82 167.406 1195.73 168.027 1195.73 169.27C1195.73 169.879 1196.01 170.395 1196.57 170.816C1197.14 171.238 1198.39 171.818 1200.3 172.557C1201.9 173.178 1203.07 173.746 1203.79 174.262C1204.52 174.777 1205.06 175.375 1205.41 176.055C1205.76 176.723 1205.94 177.525 1205.94 178.463Z" fill="#C4C4C4"/>
<circle cx="1072.5" cy="69.5" r="69.5" fill="#D95840" fill-opacity="0.3"/>
<circle cx="1073.72" cy="68.2807" r="29.2632" fill="#D95840"/>
<circle cx="126.5" cy="421.5" r="69.5" fill="#2D6DB0" fill-opacity="0.3"/>
<circle cx="126.5" cy="421.5" r="30.4825" fill="#2D6DB0"/>
<path d="M14.8184 514.535C12.4043 514.535 10.5059 515.391 9.12305 517.102C7.74023 518.812 7.04883 521.174 7.04883 524.186C7.04883 527.338 7.71094 529.723 9.03516 531.34C10.3711 532.957 12.2988 533.766 14.8184 533.766C15.9082 533.766 16.9629 533.66 17.9824 533.449C19.002 533.227 20.0625 532.945 21.1641 532.605V536.209C19.1484 536.971 16.8633 537.352 14.3086 537.352C10.5469 537.352 7.6582 536.215 5.64258 533.941C3.62695 531.656 2.61914 528.393 2.61914 524.15C2.61914 521.479 3.10547 519.141 4.07812 517.137C5.0625 515.133 6.48047 513.598 8.33203 512.531C10.1836 511.465 12.3574 510.932 14.8535 510.932C17.4785 510.932 19.9043 511.482 22.1309 512.584L20.6191 516.082C19.752 515.672 18.832 515.314 17.8594 515.01C16.8984 514.693 15.8848 514.535 14.8184 514.535ZM39.9727 537L39.3926 534.451H39.1816C38.6074 535.354 37.7871 536.062 36.7207 536.578C35.666 537.094 34.459 537.352 33.0996 537.352C30.7441 537.352 28.9863 536.766 27.8262 535.594C26.666 534.422 26.0859 532.646 26.0859 530.268V517.559H30.252V529.547C30.252 531.035 30.5566 532.154 31.166 532.904C31.7754 533.643 32.7305 534.012 34.0312 534.012C35.7656 534.012 37.0371 533.496 37.8457 532.465C38.666 531.422 39.0762 529.682 39.0762 527.244V517.559H43.2246V537H39.9727ZM58.9746 517.207C59.8066 517.207 60.4922 517.266 61.0312 517.383L60.627 521.232C60.041 521.092 59.4316 521.021 58.7988 521.021C57.1465 521.021 55.8047 521.561 54.7734 522.639C53.7539 523.717 53.2441 525.117 53.2441 526.84V537H49.1133V517.559H52.3477L52.8926 520.986H53.1035C53.748 519.826 54.5859 518.906 55.6172 518.227C56.6602 517.547 57.7793 517.207 58.9746 517.207ZM74.5137 517.207C75.3457 517.207 76.0312 517.266 76.5703 517.383L76.166 521.232C75.5801 521.092 74.9707 521.021 74.3379 521.021C72.6855 521.021 71.3438 521.561 70.3125 522.639C69.293 523.717 68.7832 525.117 68.7832 526.84V537H64.6523V517.559H67.8867L68.4316 520.986H68.6426C69.2871 519.826 70.125 518.906 71.1562 518.227C72.1992 517.547 73.3184 517.207 74.5137 517.207ZM88.6816 537.352C85.6582 537.352 83.291 536.473 81.5801 534.715C79.8809 532.945 79.0312 530.514 79.0312 527.42C79.0312 524.244 79.8223 521.748 81.4043 519.932C82.9863 518.115 85.1602 517.207 87.9258 517.207C90.4922 517.207 92.5195 517.986 94.0078 519.545C95.4961 521.104 96.2402 523.248 96.2402 525.979V528.211H83.2852C83.3438 530.098 83.8535 531.551 84.8145 532.57C85.7754 533.578 87.1289 534.082 88.875 534.082C90.0234 534.082 91.0898 533.977 92.0742 533.766C93.0703 533.543 94.1367 533.18 95.2734 532.676V536.033C94.2656 536.514 93.2461 536.854 92.2148 537.053C91.1836 537.252 90.0059 537.352 88.6816 537.352ZM87.9258 520.336C86.6133 520.336 85.5586 520.752 84.7617 521.584C83.9766 522.416 83.5078 523.629 83.3555 525.223H92.1797C92.1562 523.617 91.7695 522.404 91.0195 521.584C90.2695 520.752 89.2383 520.336 87.9258 520.336ZM118.037 537H113.889V525.047C113.889 523.547 113.584 522.428 112.975 521.689C112.377 520.951 111.422 520.582 110.109 520.582C108.363 520.582 107.086 521.098 106.277 522.129C105.469 523.16 105.064 524.889 105.064 527.314V537H100.934V517.559H104.168L104.748 520.107H104.959C105.545 519.182 106.377 518.467 107.455 517.963C108.533 517.459 109.729 517.207 111.041 517.207C115.705 517.207 118.037 519.58 118.037 524.326V537ZM131.027 534.012C132.035 534.012 133.043 533.854 134.051 533.537V536.648C133.594 536.848 133.002 537.012 132.275 537.141C131.561 537.281 130.816 537.352 130.043 537.352C126.129 537.352 124.172 535.289 124.172 531.164V520.688H121.518V518.859L124.365 517.348L125.771 513.234H128.32V517.559H133.857V520.688H128.32V531.094C128.32 532.09 128.566 532.828 129.059 533.309C129.562 533.777 130.219 534.012 131.027 534.012ZM160.365 531.463C160.365 533.361 159.674 534.82 158.291 535.84C156.908 536.848 154.928 537.352 152.35 537.352C149.76 537.352 147.68 536.959 146.109 536.174V532.605C148.395 533.66 150.521 534.188 152.49 534.188C155.033 534.188 156.305 533.42 156.305 531.885C156.305 531.393 156.164 530.982 155.883 530.654C155.602 530.326 155.139 529.986 154.494 529.635C153.85 529.283 152.953 528.885 151.805 528.439C149.566 527.572 148.049 526.705 147.252 525.838C146.467 524.971 146.074 523.846 146.074 522.463C146.074 520.799 146.742 519.51 148.078 518.596C149.426 517.67 151.254 517.207 153.562 517.207C155.848 517.207 158.01 517.67 160.049 518.596L158.713 521.707C156.615 520.84 154.852 520.406 153.422 520.406C151.242 520.406 150.152 521.027 150.152 522.27C150.152 522.879 150.434 523.395 150.996 523.816C151.57 524.238 152.812 524.818 154.723 525.557C156.328 526.178 157.494 526.746 158.221 527.262C158.947 527.777 159.486 528.375 159.838 529.055C160.189 529.723 160.365 530.525 160.365 531.463ZM172.09 534.012C173.098 534.012 174.105 533.854 175.113 533.537V536.648C174.656 536.848 174.064 537.012 173.338 537.141C172.623 537.281 171.879 537.352 171.105 537.352C167.191 537.352 165.234 535.289 165.234 531.164V520.688H162.58V518.859L165.428 517.348L166.834 513.234H169.383V517.559H174.92V520.688H169.383V531.094C169.383 532.09 169.629 532.828 170.121 533.309C170.625 533.777 171.281 534.012 172.09 534.012ZM191.18 537L190.354 534.293H190.213C189.275 535.477 188.332 536.285 187.383 536.719C186.434 537.141 185.215 537.352 183.727 537.352C181.816 537.352 180.322 536.836 179.244 535.805C178.178 534.773 177.645 533.314 177.645 531.428C177.645 529.424 178.389 527.912 179.877 526.893C181.365 525.873 183.633 525.316 186.68 525.223L190.037 525.117V524.08C190.037 522.838 189.744 521.912 189.158 521.303C188.584 520.682 187.688 520.371 186.469 520.371C185.473 520.371 184.518 520.518 183.604 520.811C182.689 521.104 181.811 521.449 180.967 521.848L179.631 518.895C180.686 518.344 181.84 517.928 183.094 517.646C184.348 517.354 185.531 517.207 186.645 517.207C189.117 517.207 190.98 517.746 192.234 518.824C193.5 519.902 194.133 521.596 194.133 523.904V537H191.18ZM185.027 534.188C186.527 534.188 187.729 533.771 188.631 532.939C189.545 532.096 190.002 530.918 190.002 529.406V527.719L187.506 527.824C185.561 527.895 184.143 528.223 183.252 528.809C182.373 529.383 181.934 530.268 181.934 531.463C181.934 532.33 182.191 533.004 182.707 533.484C183.223 533.953 183.996 534.188 185.027 534.188ZM207.141 534.012C208.148 534.012 209.156 533.854 210.164 533.537V536.648C209.707 536.848 209.115 537.012 208.389 537.141C207.674 537.281 206.93 537.352 206.156 537.352C202.242 537.352 200.285 535.289 200.285 531.164V520.688H197.631V518.859L200.479 517.348L201.885 513.234H204.434V517.559H209.971V520.688H204.434V531.094C204.434 532.09 204.68 532.828 205.172 533.309C205.676 533.777 206.332 534.012 207.141 534.012ZM227.777 537L227.197 534.451H226.986C226.412 535.354 225.592 536.062 224.525 536.578C223.471 537.094 222.264 537.352 220.904 537.352C218.549 537.352 216.791 536.766 215.631 535.594C214.471 534.422 213.891 532.646 213.891 530.268V517.559H218.057V529.547C218.057 531.035 218.361 532.154 218.971 532.904C219.58 533.643 220.535 534.012 221.836 534.012C223.57 534.012 224.842 533.496 225.65 532.465C226.471 531.422 226.881 529.682 226.881 527.244V517.559H231.029V537H227.777ZM249.979 531.463C249.979 533.361 249.287 534.82 247.904 535.84C246.521 536.848 244.541 537.352 241.963 537.352C239.373 537.352 237.293 536.959 235.723 536.174V532.605C238.008 533.66 240.135 534.188 242.104 534.188C244.646 534.188 245.918 533.42 245.918 531.885C245.918 531.393 245.777 530.982 245.496 530.654C245.215 530.326 244.752 529.986 244.107 529.635C243.463 529.283 242.566 528.885 241.418 528.439C239.18 527.572 237.662 526.705 236.865 525.838C236.08 524.971 235.688 523.846 235.688 522.463C235.688 520.799 236.355 519.51 237.691 518.596C239.039 517.67 240.867 517.207 243.176 517.207C245.461 517.207 247.623 517.67 249.662 518.596L248.326 521.707C246.229 520.84 244.465 520.406 243.035 520.406C240.855 520.406 239.766 521.027 239.766 522.27C239.766 522.879 240.047 523.395 240.609 523.816C241.184 524.238 242.426 524.818 244.336 525.557C245.941 526.178 247.107 526.746 247.834 527.262C248.561 527.777 249.1 528.375 249.451 529.055C249.803 529.723 249.979 530.525 249.979 531.463Z" fill="#C4C4C4"/>
<path d="M153.5 422C241.409 438.952 427.271 383.221 341.448 342.537C234.169 291.681 266.949 295.313 341.448 312.75C415.947 330.186 171.59 188.517 256.519 197.961C341.448 207.406 468.097 322.194 514.286 312.75C434.324 234.529 319.098 143.473 536.636 197.961C646.607 225.506 267.032 42.6535 482.996 75.9075C596.235 93.3439 649.337 135.504 719.903 158.73C839.102 197.961 609.645 9.79532 719.903 54.8389C830.162 99.8825 804.832 46.8473 856.982 38.8557C882.311 34.974 896.615 125.891 912.111 75.9076C927.607 25.9238 1029.5 59.5 1057.5 70.5" stroke="#333333" stroke-opacity="0.2" stroke-width="3" stroke-dasharray="10 10"/>
</svg>
