<svg width="404" height="117" viewBox="0 0 404 117" fill="none" xmlns="http://www.w3.org/2000/svg">
<rect width="404" height="117" rx="10" fill="#EE765A"/>
<path d="M129.802 67L125.505 52.9985H125.396C125.55 55.8468 125.627 57.7471 125.627 58.6992V67H122.246V49.1533H127.397L131.621 62.8008H131.694L136.174 49.1533H141.326V67H137.798V58.5527C137.798 58.154 137.802 57.6942 137.81 57.1733C137.826 56.6525 137.883 55.269 137.981 53.0229H137.871L133.269 67H129.802ZM148.503 60.1519C148.503 61.5028 148.723 62.5241 149.163 63.2158C149.61 63.9076 150.334 64.2534 151.335 64.2534C152.328 64.2534 153.04 63.9116 153.472 63.228C153.911 62.5363 154.131 61.5109 154.131 60.1519C154.131 58.8009 153.911 57.7878 153.472 57.1123C153.032 56.4368 152.312 56.0991 151.311 56.0991C150.318 56.0991 149.602 56.4368 149.163 57.1123C148.723 57.7796 148.503 58.7928 148.503 60.1519ZM157.939 60.1519C157.939 62.3735 157.354 64.111 156.182 65.3643C155.01 66.6175 153.378 67.2441 151.287 67.2441C149.976 67.2441 148.821 66.9593 147.82 66.3896C146.819 65.8118 146.05 64.9858 145.513 63.9116C144.976 62.8374 144.707 61.5841 144.707 60.1519C144.707 57.922 145.289 56.1886 146.453 54.9517C147.616 53.7147 149.252 53.0962 151.36 53.0962C152.67 53.0962 153.826 53.381 154.827 53.9507C155.828 54.5203 156.597 55.3382 157.134 56.4043C157.671 57.4704 157.939 58.7196 157.939 60.1519ZM166.765 64.2778C167.416 64.2778 168.197 64.1354 169.109 63.8506V66.6216C168.181 67.0366 167.042 67.2441 165.691 67.2441C164.202 67.2441 163.115 66.8698 162.432 66.1211C161.756 65.3643 161.418 64.2331 161.418 62.7275V56.1479H159.636V54.5732L161.687 53.3281L162.761 50.4473H165.142V53.3525H168.962V56.1479H165.142V62.7275C165.142 63.2565 165.288 63.6471 165.581 63.8994C165.882 64.1517 166.277 64.2778 166.765 64.2778ZM171.721 49.8247C171.721 48.6121 172.397 48.0059 173.748 48.0059C175.098 48.0059 175.774 48.6121 175.774 49.8247C175.774 50.4025 175.603 50.8542 175.261 51.1797C174.928 51.4971 174.423 51.6558 173.748 51.6558C172.397 51.6558 171.721 51.0454 171.721 49.8247ZM175.603 67H171.88V53.3525H175.603V67ZM182.769 67L177.568 53.3525H181.462L184.099 61.1284C184.392 62.1131 184.575 63.0449 184.648 63.9238H184.722C184.762 63.1426 184.945 62.2108 185.271 61.1284L187.896 53.3525H191.79L186.589 67H182.769ZM202.422 67L201.702 65.1445H201.604C200.977 65.9339 200.33 66.4832 199.663 66.7925C199.004 67.0936 198.141 67.2441 197.075 67.2441C195.765 67.2441 194.731 66.8698 193.975 66.1211C193.226 65.3724 192.852 64.3063 192.852 62.9229C192.852 61.4743 193.356 60.4082 194.365 59.7246C195.382 59.0329 196.912 58.6504 198.955 58.5771L201.323 58.5039V57.9058C201.323 56.5223 200.615 55.8306 199.199 55.8306C198.109 55.8306 196.827 56.1602 195.354 56.8193L194.121 54.3047C195.692 53.4827 197.433 53.0718 199.346 53.0718C201.177 53.0718 202.581 53.4705 203.557 54.2681C204.534 55.0656 205.022 56.2782 205.022 57.9058V67H202.422ZM201.323 60.6768L199.883 60.7256C198.8 60.7581 197.995 60.9535 197.466 61.3115C196.937 61.6696 196.672 62.2148 196.672 62.9473C196.672 63.9971 197.275 64.522 198.479 64.522C199.342 64.522 200.029 64.2738 200.542 63.7773C201.063 63.2809 201.323 62.6217 201.323 61.7998V60.6768ZM214.617 64.2778C215.268 64.2778 216.049 64.1354 216.96 63.8506V66.6216C216.033 67.0366 214.893 67.2441 213.542 67.2441C212.053 67.2441 210.967 66.8698 210.283 66.1211C209.608 65.3643 209.27 64.2331 209.27 62.7275V56.1479H207.488V54.5732L209.539 53.3281L210.613 50.4473H212.993V53.3525H216.814V56.1479H212.993V62.7275C212.993 63.2565 213.14 63.6471 213.433 63.8994C213.734 64.1517 214.128 64.2778 214.617 64.2778ZM219.573 49.8247C219.573 48.6121 220.248 48.0059 221.599 48.0059C222.95 48.0059 223.625 48.6121 223.625 49.8247C223.625 50.4025 223.455 50.8542 223.113 51.1797C222.779 51.4971 222.275 51.6558 221.599 51.6558C220.248 51.6558 219.573 51.0454 219.573 49.8247ZM223.455 67H219.731V53.3525H223.455V67ZM230.339 60.1519C230.339 61.5028 230.559 62.5241 230.999 63.2158C231.446 63.9076 232.17 64.2534 233.171 64.2534C234.164 64.2534 234.876 63.9116 235.308 63.228C235.747 62.5363 235.967 61.5109 235.967 60.1519C235.967 58.8009 235.747 57.7878 235.308 57.1123C234.868 56.4368 234.148 56.0991 233.147 56.0991C232.154 56.0991 231.438 56.4368 230.999 57.1123C230.559 57.7796 230.339 58.7928 230.339 60.1519ZM239.775 60.1519C239.775 62.3735 239.189 64.111 238.018 65.3643C236.846 66.6175 235.214 67.2441 233.123 67.2441C231.812 67.2441 230.657 66.9593 229.656 66.3896C228.655 65.8118 227.886 64.9858 227.349 63.9116C226.812 62.8374 226.543 61.5841 226.543 60.1519C226.543 57.922 227.125 56.1886 228.289 54.9517C229.452 53.7147 231.088 53.0962 233.196 53.0962C234.506 53.0962 235.662 53.381 236.663 53.9507C237.664 54.5203 238.433 55.3382 238.97 56.4043C239.507 57.4704 239.775 58.7196 239.775 60.1519ZM255.449 67H251.726V59.0288C251.726 58.0441 251.551 57.3076 251.201 56.8193C250.851 56.3229 250.294 56.0747 249.529 56.0747C248.487 56.0747 247.734 56.4246 247.271 57.1245C246.807 57.8162 246.575 58.9678 246.575 60.5791V67H242.852V53.3525H245.696L246.196 55.0981H246.404C246.819 54.439 247.389 53.9425 248.113 53.6089C248.845 53.2671 249.675 53.0962 250.603 53.0962C252.19 53.0962 253.394 53.5275 254.216 54.3901C255.038 55.2446 255.449 56.4816 255.449 58.1011V67ZM277.654 53.3525V55.2446L275.518 55.7939C275.908 56.4043 276.104 57.0879 276.104 57.8447C276.104 59.3096 275.591 60.453 274.565 61.2749C273.548 62.0887 272.132 62.4956 270.317 62.4956L269.646 62.459L269.097 62.3979C268.714 62.6909 268.523 63.0164 268.523 63.3745C268.523 63.9116 269.207 64.1802 270.574 64.1802H272.893C274.39 64.1802 275.53 64.5016 276.311 65.1445C277.1 65.7874 277.495 66.7314 277.495 67.9766C277.495 69.5716 276.828 70.8086 275.493 71.6875C274.167 72.5664 272.258 73.0059 269.768 73.0059C267.864 73.0059 266.407 72.6722 265.398 72.0049C264.397 71.3457 263.896 70.418 263.896 69.2217C263.896 68.3997 264.153 67.7121 264.666 67.1587C265.178 66.6053 265.931 66.2106 266.924 65.9746C266.541 65.8118 266.208 65.5474 265.923 65.1812C265.638 64.8068 265.496 64.4121 265.496 63.9971C265.496 63.4762 265.646 63.0449 265.947 62.7031C266.248 62.3532 266.684 62.0114 267.253 61.6777C266.537 61.3685 265.968 60.8721 265.544 60.1885C265.129 59.5049 264.922 58.6992 264.922 57.7715C264.922 56.2822 265.406 55.1307 266.375 54.3169C267.343 53.5031 268.726 53.0962 270.525 53.0962C270.907 53.0962 271.359 53.1328 271.88 53.2061C272.409 53.2712 272.747 53.32 272.893 53.3525H277.654ZM267.119 68.9287C267.119 69.4414 267.363 69.8442 267.852 70.1372C268.348 70.4302 269.04 70.5767 269.927 70.5767C271.261 70.5767 272.307 70.3936 273.064 70.0273C273.821 69.6611 274.199 69.1606 274.199 68.5259C274.199 68.0132 273.975 67.6592 273.528 67.4639C273.08 67.2686 272.389 67.1709 271.453 67.1709H269.524C268.84 67.1709 268.267 67.3296 267.803 67.647C267.347 67.9725 267.119 68.3997 267.119 68.9287ZM268.474 57.8203C268.474 58.5609 268.641 59.1468 268.975 59.5781C269.316 60.0094 269.833 60.2251 270.525 60.2251C271.225 60.2251 271.737 60.0094 272.063 59.5781C272.389 59.1468 272.551 58.5609 272.551 57.8203C272.551 56.1764 271.876 55.3545 270.525 55.3545C269.158 55.3545 268.474 56.1764 268.474 57.8203ZM288.579 67L287.859 65.1445H287.761C287.135 65.9339 286.488 66.4832 285.82 66.7925C285.161 67.0936 284.299 67.2441 283.232 67.2441C281.922 67.2441 280.889 66.8698 280.132 66.1211C279.383 65.3724 279.009 64.3063 279.009 62.9229C279.009 61.4743 279.513 60.4082 280.522 59.7246C281.54 59.0329 283.07 58.6504 285.112 58.5771L287.48 58.5039V57.9058C287.48 56.5223 286.772 55.8306 285.356 55.8306C284.266 55.8306 282.984 56.1602 281.511 56.8193L280.278 54.3047C281.849 53.4827 283.59 53.0718 285.503 53.0718C287.334 53.0718 288.738 53.4705 289.714 54.2681C290.691 55.0656 291.179 56.2782 291.179 57.9058V67H288.579ZM287.48 60.6768L286.04 60.7256C284.958 60.7581 284.152 60.9535 283.623 61.3115C283.094 61.6696 282.83 62.2148 282.83 62.9473C282.83 63.9971 283.432 64.522 284.636 64.522C285.499 64.522 286.187 64.2738 286.699 63.7773C287.22 63.2809 287.48 62.6217 287.48 61.7998V60.6768ZM302.52 67.2441C300.916 67.2441 299.659 66.6623 298.748 65.4985H298.552C298.682 66.6379 298.748 67.297 298.748 67.4761V73.0059H295.024V53.3525H298.052L298.577 55.1226H298.748C299.618 53.7716 300.908 53.0962 302.617 53.0962C304.229 53.0962 305.49 53.7188 306.401 54.9639C307.313 56.209 307.769 57.9383 307.769 60.1519C307.769 61.6086 307.553 62.874 307.122 63.9482C306.698 65.0225 306.092 65.8403 305.303 66.4019C304.513 66.9634 303.586 67.2441 302.52 67.2441ZM301.421 56.0747C300.501 56.0747 299.83 56.3595 299.407 56.9292C298.984 57.4907 298.764 58.4225 298.748 59.7246V60.1274C298.748 61.5923 298.963 62.6421 299.395 63.2769C299.834 63.9116 300.526 64.229 301.47 64.229C303.138 64.229 303.972 62.8537 303.972 60.103C303.972 58.7603 303.765 57.7552 303.35 57.0879C302.943 56.4124 302.3 56.0747 301.421 56.0747Z" fill="white"/>
<g clip-path="url(#clip0)">
<path d="M57 22.9316C43.8897 22.9316 40.9097 36.098 40.7883 52.5111C40.7832 53.1939 41.1844 53.809 41.7996 54.0964C44.1162 55.1789 48.233 56.0157 51.4311 56.513H62.5689C65.7669 56.0157 69.8838 55.1788 72.2005 54.0964C72.8153 53.8092 73.2168 53.194 73.2118 52.5111C73.0904 36.0979 70.1103 22.9316 57 22.9316Z" fill="#694B4B"/>
<path d="M40.7883 52.5101C40.7832 53.1929 41.1844 53.808 41.7996 54.0954C44.1162 55.178 48.233 56.0147 51.4311 56.512H57V37.3445C57 37.3445 50.4875 37.6623 51.7587 37.3445C57 36.0341 67.4828 29.4824 61.3863 23.5111C60.0678 23.1319 58.6111 22.9307 57.0002 22.9307C43.8897 22.9308 40.9097 36.0971 40.7883 52.5101Z" fill="#5A4146"/>
<path d="M76.6857 87.1379V66.9545C76.6857 64.8387 75.4133 62.9301 73.4603 62.1164L64.2152 58.2643C63.3522 57.9048 62.7901 57.0613 62.7901 56.1265V53.3281H51.2101V56.1265C51.2101 57.0613 50.648 57.9046 49.785 58.2643L40.5399 62.1164C38.5866 62.9303 37.3145 64.8386 37.3145 66.9545V87.1379H76.6857Z" fill="#D29B6E"/>
<path d="M73.4603 62.1161L66.9611 59.4082C64.5685 62.2958 62.1963 64.4744 60.1309 66.0713H53.8692C51.804 64.4742 49.4317 62.2956 47.039 59.4082L40.5399 62.1161C38.5866 62.9299 37.3145 64.8383 37.3145 66.9543V87.1377H76.6859V66.9543C76.6857 64.8383 75.4133 62.9299 73.4603 62.1161Z" fill="#FFDC64"/>
<path d="M38.0666 64.2734C37.5911 65.0694 37.3145 65.987 37.3145 66.9545V87.1379H45.207V71.4137L38.0666 64.2734Z" fill="#FFC850"/>
<path d="M75.9335 64.2734C76.409 65.0694 76.6857 65.987 76.6857 66.9545V87.1379H68.7931V71.4137L75.9335 64.2734Z" fill="#FFC850"/>
<path d="M68.4935 38.934L67.6436 48.2821C67.5048 49.8085 66.6201 51.1674 65.2801 51.9117L59.2494 55.2621C57.8504 56.0393 56.1495 56.0393 54.7506 55.2621L48.7199 51.9117C47.3801 51.1674 46.4952 49.8085 46.3564 48.2821L45.5359 39.255C45.4722 38.555 45.9702 37.9319 46.6685 37.8504C49.7611 37.4894 57.8842 36.3572 62.8005 33.9696C63.4223 33.6675 64.1516 33.9111 64.4962 34.5102C65.0599 35.4898 66.1 36.8598 67.8061 37.6724C68.2781 37.8973 68.5409 38.4132 68.4935 38.934Z" fill="#F0C087"/>
<path d="M93.6896 91.0686H20.3104C19.5868 91.0686 19 90.4819 19 89.7582V87.1376C19 86.4139 19.5868 85.8271 20.3104 85.8271H93.6897C94.4134 85.8271 95.0001 86.4139 95.0001 87.1376V89.7582C95 90.482 94.4132 91.0686 93.6896 91.0686Z" fill="#F5DCB4"/>
<path d="M45.5358 39.2552L46.3563 48.2823C46.4951 49.8086 47.3798 51.1674 48.7197 51.9119L54.7505 55.2622C55.3025 55.5689 55.9047 55.7191 56.5136 55.7836L54.8165 51.5412C54.5266 50.8162 54.3463 50.0524 54.2814 49.2743L53.56 40.6187C53.5048 39.9555 53.9539 39.3625 54.6054 39.2273C57.3971 38.6484 60.3837 37.8612 62.8687 36.8134C63.6882 37.9464 64.9155 39.1985 66.6792 40.0385C67.0328 40.2068 67.2007 40.2836 68.3619 40.3789L68.4933 38.9337C68.5408 38.4106 68.2734 37.8955 67.7995 37.6691C66.097 36.8563 65.0589 35.4884 64.4961 34.5102C64.1515 33.9111 63.422 33.6675 62.8002 33.9696C57.884 36.3574 49.7612 37.4894 46.6682 37.8504C45.9702 37.932 45.4721 38.555 45.5358 39.2552Z" fill="#E6AF78"/>
<path d="M45.0209 61.0802C47.2583 63.7803 49.696 66.1571 52.2659 68.1445L52.9739 68.6921H53.869H60.1307H61.0258L61.7338 68.1445C64.3038 66.1572 66.7415 63.7804 68.9787 61.0802L69.4907 60.4624L66.9607 59.4082C64.5681 62.2958 62.1959 64.4744 60.1305 66.0713H53.8688C51.8036 64.4742 49.4313 62.2956 47.0386 59.4082L44.5087 60.4624L45.0209 61.0802Z" fill="#FFC850"/>
<path d="M68.793 85.8278H45.2068C43.7594 85.8278 42.5862 84.6545 42.5862 83.2071V67.483C42.5862 66.0356 43.7594 64.8623 45.2068 64.8623H68.7931C70.2405 64.8623 71.4138 66.0356 71.4138 67.483V83.2071C71.4136 84.6545 70.2404 85.8278 68.793 85.8278Z" fill="#D5DCED"/>
<path d="M56.9999 77.965C58.4473 77.965 59.6206 76.7916 59.6206 75.3443C59.6206 73.8969 58.4473 72.7236 56.9999 72.7236C55.5526 72.7236 54.3793 73.8969 54.3793 75.3443C54.3793 76.7916 55.5526 77.965 56.9999 77.965Z" fill="white"/>
</g>
<defs>
<clipPath id="clip0">
<rect width="76" height="76" fill="white" transform="translate(19 19)"/>
</clipPath>
</defs>
</svg>
