<svg width="404" height="117" viewBox="0 0 404 117" fill="none" xmlns="http://www.w3.org/2000/svg">
<rect width="404" height="117" rx="10" fill="white"/>
<path d="M130.352 68L124.297 52.1797H124.199C124.313 53.4329 124.37 54.9222 124.37 56.6475V68H122.454V50.1533H125.579L131.23 64.875H131.328L137.029 50.1533H140.129V68H138.054V56.501C138.054 55.1826 138.111 53.7503 138.225 52.2041H138.127L132.024 68H130.352ZM156.279 61.2983C156.279 63.4793 155.73 65.1842 154.631 66.4131C153.533 67.6338 152.015 68.2441 150.078 68.2441C148.882 68.2441 147.82 67.9634 146.892 67.4019C145.964 66.8403 145.248 66.0347 144.744 64.9849C144.239 63.9351 143.987 62.7062 143.987 61.2983C143.987 59.1174 144.532 57.4206 145.623 56.208C146.713 54.9873 148.227 54.377 150.164 54.377C152.035 54.377 153.521 54.9995 154.619 56.2446C155.726 57.4897 156.279 59.1743 156.279 61.2983ZM146.086 61.2983C146.086 63.0073 146.428 64.3094 147.112 65.2046C147.795 66.0998 148.8 66.5474 150.127 66.5474C151.453 66.5474 152.458 66.1038 153.142 65.2168C153.834 64.3216 154.18 63.0155 154.18 61.2983C154.18 59.5975 153.834 58.3076 153.142 57.4287C152.458 56.5417 151.445 56.0981 150.103 56.0981C148.776 56.0981 147.775 56.5335 147.1 57.4043C146.424 58.2751 146.086 59.5731 146.086 61.2983ZM164.165 66.5718C164.523 66.5718 164.869 66.5474 165.203 66.4985C165.536 66.4416 165.801 66.3846 165.996 66.3276V67.8779C165.776 67.9837 165.451 68.0692 165.02 68.1343C164.596 68.2075 164.214 68.2441 163.872 68.2441C161.284 68.2441 159.99 66.881 159.99 64.1548V56.1958H158.074V55.2192L159.99 54.377L160.845 51.5205H162.017V54.6211H165.898V56.1958H162.017V64.0693C162.017 64.875 162.208 65.4935 162.59 65.9248C162.973 66.3561 163.498 66.5718 164.165 66.5718ZM170.708 68H168.682V54.6211H170.708V68ZM168.511 50.9956C168.511 50.5317 168.625 50.194 168.853 49.9824C169.08 49.7627 169.365 49.6528 169.707 49.6528C170.033 49.6528 170.313 49.7627 170.549 49.9824C170.785 50.2021 170.903 50.5399 170.903 50.9956C170.903 51.4513 170.785 51.7931 170.549 52.021C170.313 52.2407 170.033 52.3506 169.707 52.3506C169.365 52.3506 169.08 52.2407 168.853 52.021C168.625 51.7931 168.511 51.4513 168.511 50.9956ZM177.935 68L172.856 54.6211H175.029L177.91 62.5557C178.561 64.4111 178.944 65.6156 179.058 66.1689H179.155C179.245 65.7376 179.526 64.8465 179.998 63.4956C180.478 62.1366 181.548 59.1784 183.208 54.6211H185.381L180.303 68H177.935ZM195.757 68L195.354 66.0957H195.256C194.589 66.9339 193.922 67.5036 193.254 67.8047C192.595 68.0977 191.769 68.2441 190.776 68.2441C189.45 68.2441 188.408 67.9023 187.651 67.2188C186.903 66.5352 186.528 65.5627 186.528 64.3013C186.528 61.5994 188.689 60.1834 193.01 60.0532L195.281 59.98V59.1499C195.281 58.1001 195.053 57.327 194.597 56.8306C194.15 56.326 193.429 56.0737 192.437 56.0737C191.322 56.0737 190.06 56.4155 188.652 57.0991L188.03 55.5488C188.689 55.1908 189.409 54.91 190.19 54.7065C190.98 54.5031 191.769 54.4014 192.559 54.4014C194.154 54.4014 195.334 54.7554 196.099 55.4634C196.872 56.1714 197.258 57.3066 197.258 58.8691V68H195.757ZM191.179 66.5718C192.441 66.5718 193.429 66.2259 194.146 65.5342C194.87 64.8424 195.232 63.874 195.232 62.6289V61.4204L193.206 61.5059C191.594 61.5628 190.431 61.8151 189.714 62.2627C189.006 62.7021 188.652 63.3898 188.652 64.3257C188.652 65.0581 188.872 65.6156 189.312 65.998C189.759 66.3805 190.382 66.5718 191.179 66.5718ZM205.767 66.5718C206.125 66.5718 206.471 66.5474 206.804 66.4985C207.138 66.4416 207.402 66.3846 207.598 66.3276V67.8779C207.378 67.9837 207.052 68.0692 206.621 68.1343C206.198 68.2075 205.815 68.2441 205.474 68.2441C202.886 68.2441 201.592 66.881 201.592 64.1548V56.1958H199.675V55.2192L201.592 54.377L202.446 51.5205H203.618V54.6211H207.5V56.1958H203.618V64.0693C203.618 64.875 203.809 65.4935 204.192 65.9248C204.574 66.3561 205.099 66.5718 205.767 66.5718ZM212.31 68H210.283V54.6211H212.31V68ZM210.112 50.9956C210.112 50.5317 210.226 50.194 210.454 49.9824C210.682 49.7627 210.967 49.6528 211.309 49.6528C211.634 49.6528 211.915 49.7627 212.151 49.9824C212.387 50.2021 212.505 50.5399 212.505 50.9956C212.505 51.4513 212.387 51.7931 212.151 52.021C211.915 52.2407 211.634 52.3506 211.309 52.3506C210.967 52.3506 210.682 52.2407 210.454 52.021C210.226 51.7931 210.112 51.4513 210.112 50.9956ZM228.154 61.2983C228.154 63.4793 227.605 65.1842 226.506 66.4131C225.408 67.6338 223.89 68.2441 221.953 68.2441C220.757 68.2441 219.695 67.9634 218.767 67.4019C217.839 66.8403 217.123 66.0347 216.619 64.9849C216.114 63.9351 215.862 62.7062 215.862 61.2983C215.862 59.1174 216.407 57.4206 217.498 56.208C218.588 54.9873 220.102 54.377 222.039 54.377C223.91 54.377 225.396 54.9995 226.494 56.2446C227.601 57.4897 228.154 59.1743 228.154 61.2983ZM217.961 61.2983C217.961 63.0073 218.303 64.3094 218.987 65.2046C219.67 66.0998 220.675 66.5474 222.002 66.5474C223.328 66.5474 224.333 66.1038 225.017 65.2168C225.709 64.3216 226.055 63.0155 226.055 61.2983C226.055 59.5975 225.709 58.3076 225.017 57.4287C224.333 56.5417 223.32 56.0981 221.978 56.0981C220.651 56.0981 219.65 56.5335 218.975 57.4043C218.299 58.2751 217.961 59.5731 217.961 61.2983ZM240.874 68V59.3452C240.874 58.2547 240.626 57.4409 240.129 56.9038C239.633 56.3667 238.856 56.0981 237.798 56.0981C236.398 56.0981 235.373 56.4766 234.722 57.2334C234.071 57.9902 233.745 59.2394 233.745 60.981V68H231.719V54.6211H233.367L233.696 56.4521H233.794C234.209 55.793 234.791 55.2843 235.54 54.9263C236.288 54.5601 237.122 54.377 238.042 54.377C239.653 54.377 240.866 54.7676 241.68 55.5488C242.493 56.3219 242.9 57.563 242.9 59.272V68H240.874ZM264.519 54.6211V55.9028L262.041 56.1958C262.269 56.4806 262.472 56.855 262.651 57.3188C262.83 57.7746 262.92 58.2913 262.92 58.8691C262.92 60.1794 262.472 61.2251 261.577 62.0063C260.682 62.7876 259.453 63.1782 257.891 63.1782C257.492 63.1782 257.118 63.1457 256.768 63.0806C255.905 63.5363 255.474 64.11 255.474 64.8018C255.474 65.168 255.624 65.4406 255.925 65.6196C256.226 65.7905 256.743 65.876 257.476 65.876H259.844C261.292 65.876 262.403 66.1812 263.176 66.7915C263.958 67.4019 264.348 68.2889 264.348 69.4526C264.348 70.9338 263.754 72.0609 262.566 72.834C261.378 73.6152 259.644 74.0059 257.366 74.0059C255.616 74.0059 254.265 73.6803 253.313 73.0293C252.369 72.3783 251.897 71.4587 251.897 70.2705C251.897 69.4567 252.157 68.7528 252.678 68.1587C253.199 67.5646 253.931 67.1618 254.875 66.9502C254.534 66.7956 254.245 66.5555 254.009 66.23C253.781 65.9045 253.667 65.526 253.667 65.0947C253.667 64.6064 253.797 64.1792 254.058 63.813C254.318 63.4468 254.729 63.0928 255.291 62.751C254.599 62.4661 254.033 61.9819 253.594 61.2983C253.162 60.6147 252.947 59.8335 252.947 58.9546C252.947 57.4897 253.386 56.3626 254.265 55.5732C255.144 54.7757 256.389 54.377 258 54.377C258.7 54.377 259.331 54.4583 259.893 54.6211H264.519ZM253.85 70.2461C253.85 70.9704 254.155 71.5197 254.766 71.894C255.376 72.2684 256.251 72.4556 257.39 72.4556C259.091 72.4556 260.348 72.1992 261.162 71.6865C261.984 71.182 262.395 70.4943 262.395 69.6235C262.395 68.8993 262.171 68.3947 261.724 68.1099C261.276 67.8332 260.434 67.6948 259.197 67.6948H256.768C255.848 67.6948 255.132 67.9146 254.619 68.354C254.106 68.7935 253.85 69.4242 253.85 70.2461ZM254.949 58.9058C254.949 59.8416 255.213 60.5496 255.742 61.0298C256.271 61.5099 257.008 61.75 257.952 61.75C259.929 61.75 260.918 60.7897 260.918 58.8691C260.918 56.859 259.917 55.854 257.915 55.854C256.963 55.854 256.23 56.1104 255.718 56.623C255.205 57.1357 254.949 57.8966 254.949 58.9058ZM275.493 68L275.09 66.0957H274.993C274.325 66.9339 273.658 67.5036 272.991 67.8047C272.332 68.0977 271.506 68.2441 270.513 68.2441C269.186 68.2441 268.145 67.9023 267.388 67.2188C266.639 66.5352 266.265 65.5627 266.265 64.3013C266.265 61.5994 268.425 60.1834 272.747 60.0532L275.017 59.98V59.1499C275.017 58.1001 274.789 57.327 274.333 56.8306C273.886 56.326 273.166 56.0737 272.173 56.0737C271.058 56.0737 269.797 56.4155 268.389 57.0991L267.766 55.5488C268.425 55.1908 269.146 54.91 269.927 54.7065C270.716 54.5031 271.506 54.4014 272.295 54.4014C273.89 54.4014 275.07 54.7554 275.835 55.4634C276.608 56.1714 276.995 57.3066 276.995 58.8691V68H275.493ZM270.916 66.5718C272.177 66.5718 273.166 66.2259 273.882 65.5342C274.606 64.8424 274.968 63.874 274.968 62.6289V61.4204L272.942 61.5059C271.331 61.5628 270.167 61.8151 269.451 62.2627C268.743 62.7021 268.389 63.3898 268.389 64.3257C268.389 65.0581 268.608 65.6156 269.048 65.998C269.495 66.3805 270.118 66.5718 270.916 66.5718ZM287.407 68.2441C286.536 68.2441 285.739 68.0854 285.015 67.7681C284.299 67.4425 283.696 66.9461 283.208 66.2788H283.062C283.159 67.0601 283.208 67.8006 283.208 68.5005V74.0059H281.182V54.6211H282.83L283.11 56.4521H283.208C283.729 55.7197 284.335 55.1908 285.027 54.8652C285.719 54.5397 286.512 54.377 287.407 54.377C289.181 54.377 290.549 54.9832 291.509 56.1958C292.477 57.4084 292.961 59.1092 292.961 61.2983C292.961 63.4956 292.469 65.2046 291.484 66.4253C290.508 67.6379 289.149 68.2441 287.407 68.2441ZM287.114 56.0981C285.747 56.0981 284.758 56.4766 284.148 57.2334C283.538 57.9902 283.224 59.1947 283.208 60.8467V61.2983C283.208 63.1782 283.521 64.5251 284.148 65.3389C284.775 66.1445 285.78 66.5474 287.163 66.5474C288.319 66.5474 289.222 66.0794 289.873 65.1436C290.532 64.2077 290.862 62.9178 290.862 61.2739C290.862 59.6056 290.532 58.328 289.873 57.4409C289.222 56.5457 288.302 56.0981 287.114 56.0981Z" fill="#282731"/>
<g clip-path="url(#clip0)">
<path d="M57.0001 24.9316C43.8898 24.9316 40.9098 38.098 40.7884 54.5111C40.7833 55.1939 41.1846 55.809 41.7997 56.0964C44.1163 57.1789 48.2331 58.0157 51.4312 58.513H62.5691C65.767 58.0157 69.8839 57.1788 72.2006 56.0964C72.8154 55.8092 73.2169 55.194 73.2119 54.5111C73.0905 38.0979 70.1104 24.9316 57.0001 24.9316Z" fill="#694B4B"/>
<path d="M40.7884 54.5101C40.7833 55.1929 41.1846 55.808 41.7997 56.0954C44.1163 57.178 48.2331 58.0147 51.4312 58.512H57.0001V39.3445C57.0001 39.3445 50.4876 39.6623 51.7588 39.3445C57.0001 38.0341 67.4829 31.4824 61.3865 25.5111C60.0679 25.1319 58.6113 24.9307 57.0003 24.9307C43.8898 24.9308 40.9098 38.0971 40.7884 54.5101Z" fill="#5A4146"/>
<path d="M76.6857 89.1379V68.9545C76.6857 66.8387 75.4133 64.9301 73.4603 64.1164L64.2152 60.2643C63.3522 59.9048 62.7901 59.0613 62.7901 58.1265V55.3281H51.2101V58.1265C51.2101 59.0613 50.648 59.9046 49.785 60.2643L40.5399 64.1164C38.5866 64.9303 37.3145 66.8386 37.3145 68.9545V89.1379H76.6857Z" fill="#D29B6E"/>
<path d="M73.4603 64.1161L66.9611 61.4082C64.5685 64.2958 62.1963 66.4744 60.1309 68.0713H53.8692C51.804 66.4742 49.4317 64.2956 47.039 61.4082L40.5399 64.1161C38.5866 64.9299 37.3145 66.8383 37.3145 68.9543V89.1377H76.6859V68.9543C76.6857 66.8383 75.4133 64.9299 73.4603 64.1161Z" fill="#FFDC64"/>
<path d="M38.0666 66.2734C37.5911 67.0694 37.3145 67.987 37.3145 68.9545V89.1379H45.207V73.4137L38.0666 66.2734Z" fill="#FFC850"/>
<path d="M75.9337 66.2734C76.4091 67.0694 76.6858 67.987 76.6858 68.9545V89.1379H68.7932V73.4137L75.9337 66.2734Z" fill="#FFC850"/>
<path d="M68.4934 40.934L67.6434 50.2821C67.5047 51.8085 66.62 53.1674 65.28 53.9117L59.2493 57.2621C57.8503 58.0393 56.1493 58.0393 54.7505 57.2621L48.7197 53.9117C47.3799 53.1674 46.4951 51.8085 46.3563 50.2821L45.5358 41.255C45.4721 40.555 45.9701 39.9319 46.6683 39.8504C49.761 39.4894 57.8841 38.3572 62.8004 35.9696C63.4222 35.6675 64.1515 35.9111 64.4961 36.5102C65.0597 37.4898 66.0998 38.8598 67.806 39.6724C68.278 39.8973 68.5407 40.4132 68.4934 40.934Z" fill="#F0C087"/>
<path d="M93.6896 93.0686H20.3104C19.5868 93.0686 19 92.4819 19 91.7582V89.1376C19 88.4139 19.5868 87.8271 20.3104 87.8271H93.6897C94.4134 87.8271 95.0001 88.4139 95.0001 89.1376V91.7582C95 92.482 94.4132 93.0686 93.6896 93.0686Z" fill="#F5DCB4"/>
<path d="M45.5358 41.2552L46.3563 50.2823C46.4951 51.8086 47.3798 53.1674 48.7197 53.9119L54.7505 57.2622C55.3025 57.5689 55.9047 57.7191 56.5136 57.7836L54.8165 53.5412C54.5266 52.8162 54.3463 52.0524 54.2814 51.2743L53.56 42.6187C53.5048 41.9555 53.9539 41.3625 54.6054 41.2273C57.3971 40.6484 60.3837 39.8612 62.8687 38.8134C63.6882 39.9464 64.9155 41.1985 66.6792 42.0385C67.0328 42.2068 67.2007 42.2836 68.3619 42.3789L68.4933 40.9337C68.5408 40.4106 68.2734 39.8955 67.7995 39.6691C66.097 38.8563 65.0589 37.4884 64.4961 36.5102C64.1515 35.9111 63.422 35.6675 62.8002 35.9696C57.884 38.3574 49.7612 39.4894 46.6682 39.8504C45.9702 39.932 45.4721 40.555 45.5358 41.2552Z" fill="#E6AF78"/>
<path d="M45.0208 63.0802C47.2582 65.7803 49.6958 68.1571 52.2657 70.1445L52.9738 70.6921H53.8689H60.1306H61.0256L61.7337 70.1445C64.3037 68.1572 66.7414 65.7804 68.9786 63.0802L69.4906 62.4624L66.9606 61.4082C64.5679 64.2958 62.1958 66.4744 60.1304 68.0713H53.8687C51.8035 66.4742 49.4312 64.2956 47.0385 61.4082L44.5085 62.4624L45.0208 63.0802Z" fill="#FFC850"/>
<path d="M68.793 87.8278H45.2068C43.7594 87.8278 42.5862 86.6545 42.5862 85.2071V69.483C42.5862 68.0356 43.7594 66.8623 45.2068 66.8623H68.7931C70.2405 66.8623 71.4138 68.0356 71.4138 69.483V85.2071C71.4136 86.6545 70.2404 87.8278 68.793 87.8278Z" fill="#D5DCED"/>
<path d="M57.0001 79.965C58.4474 79.965 59.6207 78.7916 59.6207 77.3443C59.6207 75.8969 58.4474 74.7236 57.0001 74.7236C55.5527 74.7236 54.3794 75.8969 54.3794 77.3443C54.3794 78.7916 55.5527 79.965 57.0001 79.965Z" fill="white"/>
</g>
<defs>
<clipPath id="clip0">
<rect width="76" height="76" fill="white" transform="translate(19 21)"/>
</clipPath>
</defs>
</svg>
