<svg width="424" height="137" viewBox="0 0 424 137" fill="none" xmlns="http://www.w3.org/2000/svg">
<g filter="url(#filter0_d)">
<rect x="10" y="6" width="404" height="117" rx="10" fill="#EE765A"/>
</g>
<path d="M141.781 73.0439C141.781 74.6553 141.199 75.9248 140.035 76.8525C138.88 77.7803 137.268 78.2441 135.201 78.2441C133.297 78.2441 131.612 77.8861 130.147 77.1699V73.6543C131.352 74.1914 132.369 74.5698 133.199 74.7896C134.037 75.0093 134.802 75.1191 135.494 75.1191C136.324 75.1191 136.959 74.9604 137.398 74.6431C137.846 74.3257 138.07 73.8537 138.07 73.2271C138.07 72.8771 137.972 72.5679 137.777 72.2993C137.582 72.0226 137.293 71.7581 136.91 71.5059C136.536 71.2536 135.767 70.8507 134.603 70.2974C133.513 69.7847 132.695 69.2923 132.149 68.8203C131.604 68.3483 131.169 67.799 130.843 67.1724C130.518 66.5457 130.355 65.8133 130.355 64.9751C130.355 63.3963 130.888 62.1553 131.954 61.252C133.028 60.3486 134.509 59.897 136.397 59.897C137.325 59.897 138.208 60.0068 139.046 60.2266C139.893 60.4463 140.776 60.7555 141.695 61.1543L140.475 64.0962C139.522 63.7056 138.733 63.4329 138.106 63.2783C137.488 63.1237 136.878 63.0464 136.275 63.0464C135.559 63.0464 135.01 63.2132 134.627 63.5469C134.245 63.8805 134.054 64.3159 134.054 64.853C134.054 65.1867 134.131 65.4797 134.286 65.7319C134.44 65.9761 134.684 66.2161 135.018 66.4521C135.36 66.68 136.161 67.0951 137.423 67.6973C139.091 68.4948 140.235 69.2964 140.853 70.1021C141.472 70.8996 141.781 71.8802 141.781 73.0439ZM150.472 75.2778C151.123 75.2778 151.904 75.1354 152.816 74.8506V77.6216C151.888 78.0366 150.749 78.2441 149.398 78.2441C147.909 78.2441 146.822 77.8698 146.139 77.1211C145.463 76.3643 145.125 75.2331 145.125 73.7275V67.1479H143.343V65.5732L145.394 64.3281L146.468 61.4473H148.849V64.3525H152.669V67.1479H148.849V73.7275C148.849 74.2565 148.995 74.6471 149.288 74.8994C149.589 75.1517 149.984 75.2778 150.472 75.2778ZM165.255 78L164.754 76.2544H164.559C164.16 76.8892 163.595 77.3815 162.862 77.7314C162.13 78.0732 161.296 78.2441 160.36 78.2441C158.757 78.2441 157.548 77.8169 156.734 76.9624C155.921 76.0998 155.514 74.8628 155.514 73.2515V64.3525H159.237V72.3237C159.237 73.3084 159.412 74.049 159.762 74.5454C160.112 75.0337 160.669 75.2778 161.434 75.2778C162.476 75.2778 163.229 74.932 163.692 74.2402C164.156 73.5404 164.388 72.3848 164.388 70.7734V64.3525H168.111V78H165.255ZM176.339 78.2441C174.736 78.2441 173.474 77.6216 172.555 76.3765C171.643 75.1313 171.188 73.4061 171.188 71.2007C171.188 68.9627 171.651 67.2212 172.579 65.9761C173.515 64.7228 174.801 64.0962 176.437 64.0962C178.154 64.0962 179.464 64.7635 180.367 66.0981H180.489C180.302 65.0809 180.208 64.1735 180.208 63.376V59.0059H183.944V78H181.087L180.367 76.23H180.208C179.362 77.5728 178.072 78.2441 176.339 78.2441ZM177.645 75.2778C178.597 75.2778 179.293 75.0011 179.732 74.4478C180.18 73.8944 180.424 72.9544 180.465 71.6279V71.2251C180.465 69.7603 180.237 68.7104 179.781 68.0757C179.334 67.4409 178.601 67.1235 177.584 67.1235C176.754 67.1235 176.107 67.4775 175.643 68.1855C175.187 68.8854 174.959 69.9067 174.959 71.2495C174.959 72.5923 175.191 73.6014 175.655 74.2769C176.119 74.9442 176.782 75.2778 177.645 75.2778ZM193.49 66.7451C192.7 66.7451 192.082 66.9974 191.634 67.502C191.187 67.9984 190.93 68.7064 190.865 69.626H196.09C196.074 68.7064 195.833 67.9984 195.37 67.502C194.906 66.9974 194.279 66.7451 193.49 66.7451ZM194.015 78.2441C191.817 78.2441 190.1 77.6379 188.863 76.4253C187.626 75.2127 187.008 73.4956 187.008 71.2739C187.008 68.9871 187.577 67.2212 188.717 65.9761C189.864 64.7228 191.447 64.0962 193.465 64.0962C195.394 64.0962 196.896 64.6455 197.97 65.7441C199.044 66.8428 199.581 68.3605 199.581 70.2974V72.104H190.78C190.82 73.1619 191.134 73.988 191.72 74.582C192.306 75.1761 193.128 75.4731 194.186 75.4731C195.007 75.4731 195.785 75.3877 196.517 75.2168C197.25 75.0459 198.014 74.7733 198.812 74.3989V77.2798C198.161 77.6053 197.465 77.8454 196.725 78C195.984 78.1628 195.081 78.2441 194.015 78.2441ZM215.206 78H211.483V70.0288C211.483 69.0441 211.308 68.3076 210.958 67.8193C210.608 67.3229 210.051 67.0747 209.286 67.0747C208.244 67.0747 207.491 67.4246 207.027 68.1245C206.563 68.8162 206.332 69.9678 206.332 71.5791V78H202.608V64.3525H205.453L205.953 66.0981H206.161C206.576 65.439 207.145 64.9425 207.87 64.6089C208.602 64.2671 209.432 64.0962 210.36 64.0962C211.947 64.0962 213.151 64.5275 213.973 65.3901C214.795 66.2446 215.206 67.4816 215.206 69.1011V78ZM224.789 75.2778C225.44 75.2778 226.221 75.1354 227.132 74.8506V77.6216C226.205 78.0366 225.065 78.2441 223.714 78.2441C222.225 78.2441 221.139 77.8698 220.455 77.1211C219.78 76.3643 219.442 75.2331 219.442 73.7275V67.1479H217.66V65.5732L219.71 64.3281L220.785 61.4473H223.165V64.3525H226.986V67.1479H223.165V73.7275C223.165 74.2565 223.312 74.6471 223.604 74.8994C223.906 75.1517 224.3 75.2778 224.789 75.2778ZM239.425 73.9473C239.425 75.347 238.937 76.4131 237.96 77.1455C236.992 77.8779 235.539 78.2441 233.602 78.2441C232.609 78.2441 231.763 78.175 231.063 78.0366C230.363 77.9064 229.708 77.7111 229.098 77.4507V74.3745C229.789 74.7 230.567 74.9727 231.429 75.1924C232.3 75.4121 233.065 75.522 233.724 75.522C235.075 75.522 235.75 75.1313 235.75 74.3501C235.75 74.0571 235.661 73.8211 235.482 73.6421C235.303 73.4549 234.994 73.2474 234.554 73.0195C234.115 72.7835 233.529 72.5109 232.796 72.2017C231.747 71.7622 230.973 71.3553 230.477 70.981C229.989 70.6066 229.631 70.1794 229.403 69.6992C229.183 69.2109 229.073 68.6128 229.073 67.9048C229.073 66.6922 229.541 65.7563 230.477 65.0972C231.421 64.4299 232.756 64.0962 234.481 64.0962C236.125 64.0962 237.724 64.4543 239.278 65.1704L238.155 67.856C237.472 67.563 236.833 67.3229 236.239 67.1357C235.645 66.9486 235.038 66.855 234.42 66.855C233.321 66.855 232.772 67.152 232.772 67.7461C232.772 68.0798 232.947 68.3687 233.297 68.6128C233.655 68.8569 234.432 69.2191 235.628 69.6992C236.694 70.1305 237.476 70.5334 237.972 70.9077C238.469 71.2821 238.835 71.7134 239.071 72.2017C239.307 72.6899 239.425 73.2718 239.425 73.9473ZM245.333 60.1533L245.504 60.4219C245.097 62.0251 244.381 63.9741 243.355 66.269H240.682C241.244 63.8602 241.651 61.8216 241.903 60.1533H245.333ZM258.565 78.2441C256.962 78.2441 255.701 77.6216 254.781 76.3765C253.87 75.1313 253.414 73.4061 253.414 71.2007C253.414 68.9627 253.878 67.2212 254.806 65.9761C255.742 64.7228 257.027 64.0962 258.663 64.0962C260.38 64.0962 261.69 64.7635 262.594 66.0981H262.716C262.529 65.0809 262.435 64.1735 262.435 63.376V59.0059H266.17V78H263.314L262.594 76.23H262.435C261.589 77.5728 260.299 78.2441 258.565 78.2441ZM259.872 75.2778C260.824 75.2778 261.52 75.0011 261.959 74.4478C262.407 73.8944 262.651 72.9544 262.691 71.6279V71.2251C262.691 69.7603 262.464 68.7104 262.008 68.0757C261.56 67.4409 260.828 67.1235 259.811 67.1235C258.98 67.1235 258.333 67.4775 257.87 68.1855C257.414 68.8854 257.186 69.9067 257.186 71.2495C257.186 72.5923 257.418 73.6014 257.882 74.2769C258.346 74.9442 259.009 75.2778 259.872 75.2778ZM269.906 60.8247C269.906 59.6121 270.581 59.0059 271.932 59.0059C273.283 59.0059 273.958 59.6121 273.958 60.8247C273.958 61.4025 273.788 61.8542 273.446 62.1797C273.112 62.4971 272.608 62.6558 271.932 62.6558C270.581 62.6558 269.906 62.0454 269.906 60.8247ZM273.788 78H270.064V64.3525H273.788V78ZM285.25 67.1479H282.027V78H278.304V67.1479H276.253V65.3535L278.304 64.3525V63.3516C278.304 61.7972 278.687 60.6619 279.452 59.9458C280.217 59.2297 281.441 58.8716 283.126 58.8716C284.412 58.8716 285.555 59.0628 286.556 59.4453L285.604 62.1797C284.855 61.9437 284.164 61.8257 283.529 61.8257C283 61.8257 282.617 61.9844 282.381 62.3018C282.145 62.611 282.027 63.0098 282.027 63.498V64.3525H285.25V67.1479ZM294.93 67.1479H291.708V78H287.984V67.1479H285.934V65.3535L287.984 64.3525V63.3516C287.984 61.7972 288.367 60.6619 289.132 59.9458C289.897 59.2297 291.122 58.8716 292.806 58.8716C294.092 58.8716 295.235 59.0628 296.236 59.4453L295.284 62.1797C294.535 61.9437 293.844 61.8257 293.209 61.8257C292.68 61.8257 292.298 61.9844 292.062 62.3018C291.826 62.611 291.708 63.0098 291.708 63.498V64.3525H294.93V67.1479ZM302.718 66.7451C301.929 66.7451 301.31 66.9974 300.863 67.502C300.415 67.9984 300.159 68.7064 300.094 69.626H305.318C305.302 68.7064 305.062 67.9984 304.598 67.502C304.134 66.9974 303.508 66.7451 302.718 66.7451ZM303.243 78.2441C301.046 78.2441 299.329 77.6379 298.092 76.4253C296.855 75.2127 296.236 73.4956 296.236 71.2739C296.236 68.9871 296.806 67.2212 297.945 65.9761C299.093 64.7228 300.676 64.0962 302.694 64.0962C304.623 64.0962 306.124 64.6455 307.198 65.7441C308.272 66.8428 308.81 68.3605 308.81 70.2974V72.104H300.008C300.049 73.1619 300.362 73.988 300.948 74.582C301.534 75.1761 302.356 75.4731 303.414 75.4731C304.236 75.4731 305.013 75.3877 305.746 75.2168C306.478 75.0459 307.243 74.7733 308.041 74.3989V77.2798C307.389 77.6053 306.694 77.8454 305.953 78C305.213 78.1628 304.309 78.2441 303.243 78.2441ZM319.454 64.0962C319.959 64.0962 320.378 64.1328 320.711 64.2061L320.431 67.6973C320.13 67.6159 319.763 67.5752 319.332 67.5752C318.144 67.5752 317.216 67.8804 316.549 68.4907C315.89 69.1011 315.56 69.9556 315.56 71.0542V78H311.837V64.3525H314.657L315.206 66.6475H315.389C315.812 65.8825 316.382 65.2681 317.098 64.8042C317.822 64.3322 318.608 64.0962 319.454 64.0962ZM328.841 66.7451C328.052 66.7451 327.433 66.9974 326.986 67.502C326.538 67.9984 326.282 68.7064 326.217 69.626H331.441C331.425 68.7064 331.185 67.9984 330.721 67.502C330.257 66.9974 329.631 66.7451 328.841 66.7451ZM329.366 78.2441C327.169 78.2441 325.452 77.6379 324.215 76.4253C322.978 75.2127 322.359 73.4956 322.359 71.2739C322.359 68.9871 322.929 67.2212 324.068 65.9761C325.216 64.7228 326.799 64.0962 328.817 64.0962C330.746 64.0962 332.247 64.6455 333.321 65.7441C334.396 66.8428 334.933 68.3605 334.933 70.2974V72.104H326.131C326.172 73.1619 326.485 73.988 327.071 74.582C327.657 75.1761 328.479 75.4731 329.537 75.4731C330.359 75.4731 331.136 75.3877 331.869 75.2168C332.601 75.0459 333.366 74.7733 334.164 74.3989V77.2798C333.513 77.6053 332.817 77.8454 332.076 78C331.336 78.1628 330.432 78.2441 329.366 78.2441ZM350.558 78H346.834V70.0288C346.834 69.0441 346.66 68.3076 346.31 67.8193C345.96 67.3229 345.402 67.0747 344.637 67.0747C343.596 67.0747 342.843 67.4246 342.379 68.1245C341.915 68.8162 341.683 69.9678 341.683 71.5791V78H337.96V64.3525H340.804L341.305 66.0981H341.512C341.927 65.439 342.497 64.9425 343.221 64.6089C343.954 64.2671 344.784 64.0962 345.711 64.0962C347.298 64.0962 348.503 64.5275 349.325 65.3901C350.147 66.2446 350.558 67.4816 350.558 69.1011V78ZM359.933 78.2441C355.685 78.2441 353.561 75.9126 353.561 71.2495C353.561 68.9302 354.138 67.1602 355.294 65.9395C356.45 64.7106 358.106 64.0962 360.262 64.0962C361.841 64.0962 363.257 64.4054 364.51 65.0239L363.412 67.9048C362.826 67.6688 362.28 67.4775 361.776 67.3311C361.271 67.1764 360.767 67.0991 360.262 67.0991C358.325 67.0991 357.357 68.4744 357.357 71.2251C357.357 73.8944 358.325 75.229 360.262 75.229C360.978 75.229 361.642 75.1354 362.252 74.9482C362.862 74.7529 363.473 74.4518 364.083 74.0449V77.231C363.481 77.6134 362.87 77.8779 362.252 78.0244C361.642 78.1709 360.868 78.2441 359.933 78.2441ZM372.909 66.7451C372.119 66.7451 371.501 66.9974 371.053 67.502C370.606 67.9984 370.349 68.7064 370.284 69.626H375.509C375.493 68.7064 375.252 67.9984 374.789 67.502C374.325 66.9974 373.698 66.7451 372.909 66.7451ZM373.434 78.2441C371.236 78.2441 369.519 77.6379 368.282 76.4253C367.045 75.2127 366.427 73.4956 366.427 71.2739C366.427 68.9871 366.996 67.2212 368.136 65.9761C369.283 64.7228 370.866 64.0962 372.884 64.0962C374.813 64.0962 376.314 64.6455 377.389 65.7441C378.463 66.8428 379 68.3605 379 70.2974V72.104H370.199C370.239 73.1619 370.553 73.988 371.139 74.582C371.725 75.1761 372.547 75.4731 373.604 75.4731C374.426 75.4731 375.204 75.3877 375.936 75.2168C376.668 75.0459 377.433 74.7733 378.231 74.3989V77.2798C377.58 77.6053 376.884 77.8454 376.144 78C375.403 78.1628 374.5 78.2441 373.434 78.2441ZM391.549 73.9473C391.549 75.347 391.061 76.4131 390.084 77.1455C389.116 77.8779 387.663 78.2441 385.726 78.2441C384.733 78.2441 383.887 78.175 383.187 78.0366C382.487 77.9064 381.832 77.7111 381.222 77.4507V74.3745C381.913 74.7 382.691 74.9727 383.553 75.1924C384.424 75.4121 385.189 75.522 385.848 75.522C387.199 75.522 387.875 75.1313 387.875 74.3501C387.875 74.0571 387.785 73.8211 387.606 73.6421C387.427 73.4549 387.118 73.2474 386.678 73.0195C386.239 72.7835 385.653 72.5109 384.92 72.2017C383.871 71.7622 383.097 71.3553 382.601 70.981C382.113 70.6066 381.755 70.1794 381.527 69.6992C381.307 69.2109 381.197 68.6128 381.197 67.9048C381.197 66.6922 381.665 65.7563 382.601 65.0972C383.545 64.4299 384.88 64.0962 386.605 64.0962C388.249 64.0962 389.848 64.4543 391.402 65.1704L390.279 67.856C389.596 67.563 388.957 67.3229 388.363 67.1357C387.769 66.9486 387.162 66.855 386.544 66.855C385.445 66.855 384.896 67.152 384.896 67.7461C384.896 68.0798 385.071 68.3687 385.421 68.6128C385.779 68.8569 386.556 69.2191 387.752 69.6992C388.819 70.1305 389.6 70.5334 390.096 70.9077C390.593 71.2821 390.959 71.7134 391.195 72.2017C391.431 72.6899 391.549 73.2718 391.549 73.9473Z" fill="white"/>
<path d="M91.851 76.4087L76.3867 71.6953H58.1933L43.4452 77.2895C41.4205 78.0575 40 80.8178 40 83.9844V92.3984C40 94.9391 41.3577 96.999 43.0322 96.999H91.5478C93.2224 96.999 92.3472 95.3224 92.3472 92.7817L94.58 83.9844C94.58 80.8181 93.8759 77.1769 91.851 76.4087Z" fill="#5B5D6E"/>
<path d="M76.3868 61.5303H58.1935V76.0898H76.3868V61.5303Z" fill="#D29B6E"/>
<path d="M71.5966 67.9762L77.6688 63.0494C78.8131 62.1209 79.5675 60.8154 79.7883 59.3812L81.9099 45.6106C83.0122 38.4548 77.3204 32.0195 69.889 32.0195H64.6911C57.2595 32.0195 51.5678 38.4548 52.6702 45.6106L54.7918 59.3812C55.0126 60.8154 55.767 62.1209 56.9113 63.0494L62.9834 67.9762C63.8026 68.6409 64.8353 69.0049 65.9014 69.0049H68.6786C69.7449 69.0051 70.7775 68.641 71.5966 67.9762Z" fill="#F0C087"/>
<path d="M69.9439 32.0195H64.7295C57.2746 32.0195 51.5647 38.4548 52.6706 45.6106L54.7989 59.3812C55.0206 60.8154 55.7773 62.1209 56.9251 63.0494L63.0165 67.9762C63.8382 68.6409 64.8742 69.0049 65.9439 69.0049H66.5745L63.7293 63.4821C63.0942 62.2496 62.7639 60.8905 62.7639 59.5124V46.4013C63.9227 46.294 65.0852 46.1605 66.1829 45.99C66.7958 47.2357 68.1041 48.0982 69.6158 48.0982C69.9398 48.0982 70.2637 48.0576 70.5785 47.9782C72.7876 47.4192 78.0178 45.808 82.0468 42.5112C81.3684 36.6993 76.2982 32.0195 69.9439 32.0195Z" fill="#E6AF78"/>
<path d="M80.7415 39.3403C80.7415 39.3403 80.7788 39.249 80.834 39.1142C79.0007 34.9838 74.7775 32.0195 69.7465 32.0195H64.5864C57.8197 32.0195 52.5221 37.3806 52.5332 43.7327H53.5914C53.5914 43.7327 64.1499 43.7327 68.675 42.2685V44.2693C68.675 44.7498 69.1349 45.1009 69.6137 44.9798C71.7747 44.4328 77.1881 42.7893 80.7415 39.3403Z" fill="#C7CFE2"/>
<path d="M69.8834 32H64.6968C57.8953 32 52.5705 37.4025 52.5817 43.8037H53.6453C53.6453 43.8037 58.2991 43.8009 62.7643 43.3723C62.968 37.9001 66.9872 33.3788 72.3188 32.2668C71.5304 32.1101 70.7239 32 69.8834 32Z" fill="#AFB9D2"/>
<path d="M71.8384 50.8654C70.4926 50.1289 68.923 49.7051 67.2901 49.7051C65.6573 49.7051 64.0875 50.129 62.7417 50.8654V54.6719C63.759 53.4355 65.4443 52.6577 67.2901 52.6577C69.1358 52.6577 70.821 53.4355 71.8384 54.6719V50.8654Z" fill="#AFB9D2"/>
<path d="M61.2258 56.3467C63.3191 56.3467 65.0161 54.6946 65.0161 52.6567C65.0161 50.6188 63.3191 48.9668 61.2258 48.9668C59.1325 48.9668 57.4355 50.6188 57.4355 52.6567C57.4355 54.6946 59.1325 56.3467 61.2258 56.3467Z" fill="#E4EAF8"/>
<path d="M73.3547 56.3486C75.448 56.3486 77.145 54.6962 77.145 52.6577C77.145 50.6193 75.448 48.9668 73.3547 48.9668C71.2614 48.9668 69.5645 50.6193 69.5645 52.6577C69.5645 54.6962 71.2614 56.3486 73.3547 56.3486Z" fill="#E4EAF8"/>
<path d="M78.6864 70.054C78.2148 69.3634 77.2513 69.1909 76.5595 69.6735L67.29 76.1383L58.0204 69.6733C57.3285 69.1908 56.3653 69.3632 55.8936 70.0538L53.746 73.1995L60.2155 80.7798C60.7821 81.4437 61.8099 81.4893 62.4357 80.878L64.5007 78.8618C64.9748 78.3988 65.785 78.7268 65.785 79.3813V87.8936H68.7948V79.3814C68.7948 78.7268 69.6054 78.3992 70.0791 78.8619L72.1441 80.8782C72.7697 81.4891 73.7977 81.4435 74.3643 80.78L80.8338 73.1995L78.6864 70.054Z" fill="#7F8499"/>
<path d="M43.4452 75.4267C41.4205 75.9192 40 77.6895 40 79.7205V85.1168C40 86.7463 41.3577 88.0674 43.0322 88.0674H56.6771L53.5726 72.9629L43.4452 75.4267Z" fill="#EBC9A0"/>
<path d="M91.1347 75.4268C93.1594 75.9193 94.5799 77.6898 94.5799 79.7208V85.1174C94.5799 86.747 93.5255 96.999 91.851 96.999H77.9579L81.0073 72.9629L91.1347 75.4268Z" fill="#EBC9A0"/>
<defs>
<filter id="filter0_d" x="0" y="0" width="424" height="137" filterUnits="userSpaceOnUse" color-interpolation-filters="sRGB">
<feFlood flood-opacity="0" result="BackgroundImageFix"/>
<feColorMatrix in="SourceAlpha" type="matrix" values="0 0 0 0 0 0 0 0 0 0 0 0 0 0 0 0 0 0 127 0"/>
<feOffset dy="4"/>
<feGaussianBlur stdDeviation="5"/>
<feColorMatrix type="matrix" values="0 0 0 0 0 0 0 0 0 0 0 0 0 0 0 0 0 0 0.25 0"/>
<feBlend mode="normal" in2="BackgroundImageFix" result="effect1_dropShadow"/>
<feBlend mode="normal" in="SourceGraphic" in2="effect1_dropShadow" result="shape"/>
</filter>
</defs>
</svg>
