<svg width="404" height="117" viewBox="0 0 404 117" fill="none" xmlns="http://www.w3.org/2000/svg">
<rect width="404" height="117" rx="10" fill="white"/>
<path d="M131.524 67.2515C131.524 68.8221 130.955 70.0469 129.815 70.9258C128.676 71.8047 127.13 72.2441 125.177 72.2441C123.061 72.2441 121.433 71.9715 120.294 71.4263V69.4243C121.026 69.7336 121.824 69.9777 122.687 70.1567C123.549 70.3358 124.404 70.4253 125.25 70.4253C126.633 70.4253 127.675 70.1649 128.375 69.644C129.075 69.1151 129.425 68.3826 129.425 67.4468C129.425 66.8283 129.299 66.3237 129.046 65.9331C128.802 65.5343 128.387 65.1681 127.801 64.8345C127.223 64.5008 126.34 64.1224 125.152 63.6992C123.492 63.1051 122.304 62.4012 121.588 61.5874C120.88 60.7736 120.526 59.7116 120.526 58.4014C120.526 57.026 121.043 55.9315 122.076 55.1177C123.11 54.3039 124.477 53.897 126.178 53.897C127.952 53.897 129.583 54.2225 131.073 54.8735L130.426 56.6802C128.953 56.0617 127.521 55.7524 126.129 55.7524C125.03 55.7524 124.172 55.9884 123.553 56.4604C122.935 56.9325 122.625 57.5876 122.625 58.4258C122.625 59.0443 122.739 59.5529 122.967 59.9517C123.195 60.3423 123.578 60.7044 124.115 61.0381C124.66 61.3636 125.49 61.7257 126.605 62.1245C128.477 62.7918 129.763 63.508 130.462 64.2729C131.17 65.0379 131.524 66.0308 131.524 67.2515ZM139.19 70.5718C139.549 70.5718 139.894 70.5474 140.228 70.4985C140.562 70.4416 140.826 70.3846 141.021 70.3276V71.8779C140.802 71.9837 140.476 72.0692 140.045 72.1343C139.622 72.2075 139.239 72.2441 138.897 72.2441C136.31 72.2441 135.016 70.881 135.016 68.1548V60.1958H133.099V59.2192L135.016 58.377L135.87 55.5205H137.042V58.6211H140.924V60.1958H137.042V68.0693C137.042 68.875 137.233 69.4935 137.616 69.9248C137.998 70.3561 138.523 70.5718 139.19 70.5718ZM145.611 58.6211V67.3003C145.611 68.3908 145.86 69.2046 146.356 69.7417C146.852 70.2788 147.63 70.5474 148.688 70.5474C150.087 70.5474 151.109 70.1649 151.751 69.3999C152.403 68.6349 152.728 67.3857 152.728 65.6523V58.6211H154.754V72H153.082L152.789 70.2056H152.679C152.264 70.8647 151.686 71.3693 150.946 71.7192C150.213 72.0692 149.375 72.2441 148.431 72.2441C146.804 72.2441 145.583 71.8576 144.769 71.0845C143.963 70.3114 143.561 69.0744 143.561 67.3735V58.6211H145.611ZM168.17 70.2056H168.06C167.124 71.5646 165.724 72.2441 163.861 72.2441C162.111 72.2441 160.748 71.646 159.771 70.4497C158.803 69.2534 158.319 67.5526 158.319 65.3472C158.319 63.1418 158.807 61.4287 159.784 60.208C160.76 58.9873 162.119 58.377 163.861 58.377C165.676 58.377 167.067 59.0361 168.036 60.3545H168.194L168.109 59.3901L168.06 58.4502V53.0059H170.086V72H168.438L168.17 70.2056ZM164.117 70.5474C165.501 70.5474 166.502 70.173 167.12 69.4243C167.747 68.6675 168.06 67.4508 168.06 65.7744V65.3472C168.06 63.451 167.743 62.1001 167.108 61.2944C166.481 60.4806 165.476 60.0737 164.093 60.0737C162.905 60.0737 161.993 60.5376 161.358 61.4653C160.732 62.3849 160.418 63.687 160.418 65.3716C160.418 67.0806 160.732 68.3704 161.358 69.2412C161.985 70.112 162.905 70.5474 164.117 70.5474ZM180.047 72.2441C178.07 72.2441 176.507 71.6419 175.36 70.4375C174.221 69.2331 173.651 67.5607 173.651 65.4204C173.651 63.2638 174.18 61.5508 175.238 60.2812C176.304 59.0117 177.732 58.377 179.522 58.377C181.199 58.377 182.525 58.9303 183.502 60.0371C184.479 61.1357 184.967 62.5884 184.967 64.395V65.6768H175.75C175.791 67.2474 176.186 68.4396 176.935 69.2534C177.691 70.0672 178.753 70.4741 180.121 70.4741C181.561 70.4741 182.985 70.173 184.393 69.5708V71.3774C183.677 71.6867 182.997 71.9064 182.354 72.0366C181.72 72.175 180.951 72.2441 180.047 72.2441ZM179.498 60.0737C178.424 60.0737 177.565 60.4237 176.922 61.1235C176.288 61.8234 175.913 62.7918 175.799 64.0288H182.794C182.794 62.7511 182.509 61.7746 181.939 61.0991C181.37 60.4155 180.556 60.0737 179.498 60.0737ZM197.589 72V63.3452C197.589 62.2547 197.341 61.4409 196.844 60.9038C196.348 60.3667 195.571 60.0981 194.513 60.0981C193.113 60.0981 192.088 60.4766 191.437 61.2334C190.785 61.9902 190.46 63.2394 190.46 64.981V72H188.434V58.6211H190.082L190.411 60.4521H190.509C190.924 59.793 191.506 59.2843 192.254 58.9263C193.003 58.5601 193.837 58.377 194.757 58.377C196.368 58.377 197.581 58.7676 198.395 59.5488C199.208 60.3219 199.615 61.563 199.615 63.272V72H197.589ZM208.111 70.5718C208.469 70.5718 208.815 70.5474 209.149 70.4985C209.483 70.4416 209.747 70.3846 209.942 70.3276V71.8779C209.723 71.9837 209.397 72.0692 208.966 72.1343C208.543 72.2075 208.16 72.2441 207.818 72.2441C205.23 72.2441 203.937 70.881 203.937 68.1548V60.1958H202.02V59.2192L203.937 58.377L204.791 55.5205H205.963V58.6211H209.845V60.1958H205.963V68.0693C205.963 68.875 206.154 69.4935 206.537 69.9248C206.919 70.3561 207.444 70.5718 208.111 70.5718ZM221.258 68.3501C221.258 69.5952 220.794 70.5555 219.867 71.231C218.939 71.9064 217.637 72.2441 215.96 72.2441C214.186 72.2441 212.803 71.9634 211.81 71.4019V69.522C212.453 69.8475 213.141 70.1038 213.873 70.291C214.614 70.4782 215.326 70.5718 216.009 70.5718C217.067 70.5718 217.881 70.4049 218.451 70.0713C219.02 69.7295 219.305 69.2127 219.305 68.521C219.305 68.0002 219.077 67.5566 218.622 67.1904C218.174 66.8161 217.295 66.3766 215.985 65.8721C214.74 65.4082 213.853 65.0054 213.324 64.6636C212.803 64.3136 212.412 63.9189 212.152 63.4795C211.9 63.04 211.773 62.5151 211.773 61.9048C211.773 60.8143 212.217 59.9557 213.104 59.3291C213.991 58.6943 215.208 58.377 216.754 58.377C218.194 58.377 219.602 58.6699 220.978 59.2559L220.257 60.9038C218.915 60.3504 217.698 60.0737 216.607 60.0737C215.647 60.0737 214.923 60.2243 214.435 60.5254C213.946 60.8265 213.702 61.2415 213.702 61.7705C213.702 62.1286 213.792 62.4338 213.971 62.686C214.158 62.9383 214.455 63.1784 214.862 63.4062C215.269 63.6341 216.05 63.9637 217.206 64.395C218.792 64.9728 219.863 65.5547 220.416 66.1406C220.978 66.7266 221.258 67.4631 221.258 68.3501ZM226.19 54.1533L226.373 54.4219C226.161 55.2357 225.856 56.1838 225.458 57.2661C225.059 58.3403 224.644 59.3413 224.212 60.269H222.723C223.293 57.9497 223.708 55.9111 223.968 54.1533H226.19ZM244.415 70.2056H244.305C243.369 71.5646 241.97 72.2441 240.106 72.2441C238.356 72.2441 236.993 71.646 236.017 70.4497C235.048 69.2534 234.564 67.5526 234.564 65.3472C234.564 63.1418 235.052 61.4287 236.029 60.208C237.005 58.9873 238.364 58.377 240.106 58.377C241.921 58.377 243.312 59.0361 244.281 60.3545H244.439L244.354 59.3901L244.305 58.4502V53.0059H246.332V72H244.684L244.415 70.2056ZM240.362 70.5474C241.746 70.5474 242.747 70.173 243.365 69.4243C243.992 68.6675 244.305 67.4508 244.305 65.7744V65.3472C244.305 63.451 243.988 62.1001 243.353 61.2944C242.726 60.4806 241.721 60.0737 240.338 60.0737C239.15 60.0737 238.238 60.5376 237.604 61.4653C236.977 62.3849 236.664 63.687 236.664 65.3716C236.664 67.0806 236.977 68.3704 237.604 69.2412C238.23 70.112 239.15 70.5474 240.362 70.5474ZM252.667 72H250.641V58.6211H252.667V72ZM250.47 54.9956C250.47 54.5317 250.584 54.194 250.812 53.9824C251.039 53.7627 251.324 53.6528 251.666 53.6528C251.992 53.6528 252.272 53.7627 252.508 53.9824C252.744 54.2021 252.862 54.5399 252.862 54.9956C252.862 55.4513 252.744 55.7931 252.508 56.021C252.272 56.2407 251.992 56.3506 251.666 56.3506C251.324 56.3506 251.039 56.2407 250.812 56.021C250.584 55.7931 250.47 55.4513 250.47 54.9956ZM271.466 60.1958H268.06V72H266.034V60.1958H263.641V59.2803L266.034 58.5479V57.8032C266.034 54.5155 267.47 52.8716 270.343 52.8716C271.051 52.8716 271.881 53.014 272.833 53.2988L272.308 54.9224C271.527 54.6701 270.86 54.5439 270.306 54.5439C269.541 54.5439 268.976 54.8003 268.609 55.313C268.243 55.8175 268.06 56.6313 268.06 57.7544V58.6211H271.466V60.1958ZM262.994 60.1958H259.588V72H257.562V60.1958H255.169V59.2803L257.562 58.5479V57.8032C257.562 54.5155 258.998 52.8716 261.871 52.8716C262.579 52.8716 263.409 53.014 264.361 53.2988L263.836 54.9224C263.055 54.6701 262.388 54.5439 261.834 54.5439C261.069 54.5439 260.504 54.8003 260.138 55.313C259.771 55.8175 259.588 56.6313 259.588 57.7544V58.6211H262.994V60.1958ZM279.583 72.2441C277.606 72.2441 276.043 71.6419 274.896 70.4375C273.757 69.2331 273.187 67.5607 273.187 65.4204C273.187 63.2638 273.716 61.5508 274.774 60.2812C275.84 59.0117 277.268 58.377 279.059 58.377C280.735 58.377 282.062 58.9303 283.038 60.0371C284.015 61.1357 284.503 62.5884 284.503 64.395V65.6768H275.287C275.327 67.2474 275.722 68.4396 276.471 69.2534C277.228 70.0672 278.29 70.4741 279.657 70.4741C281.097 70.4741 282.521 70.173 283.929 69.5708V71.3774C283.213 71.6867 282.534 71.9064 281.891 72.0366C281.256 72.175 280.487 72.2441 279.583 72.2441ZM279.034 60.0737C277.96 60.0737 277.101 60.4237 276.458 61.1235C275.824 61.8234 275.449 62.7918 275.335 64.0288H282.33C282.33 62.7511 282.045 61.7746 281.476 61.0991C280.906 60.4155 280.092 60.0737 279.034 60.0737ZM294.073 58.377C294.667 58.377 295.2 58.4258 295.672 58.5234L295.392 60.4033C294.838 60.2812 294.35 60.2202 293.927 60.2202C292.844 60.2202 291.917 60.6597 291.144 61.5386C290.379 62.4175 289.996 63.512 289.996 64.8223V72H287.97V58.6211H289.642L289.874 61.0991H289.972C290.468 60.2284 291.066 59.557 291.766 59.085C292.466 58.613 293.235 58.377 294.073 58.377ZM303.827 72.2441C301.849 72.2441 300.287 71.6419 299.139 70.4375C298 69.2331 297.43 67.5607 297.43 65.4204C297.43 63.2638 297.959 61.5508 299.017 60.2812C300.083 59.0117 301.511 58.377 303.302 58.377C304.978 58.377 306.305 58.9303 307.281 60.0371C308.258 61.1357 308.746 62.5884 308.746 64.395V65.6768H299.53C299.57 67.2474 299.965 68.4396 300.714 69.2534C301.471 70.0672 302.533 70.4741 303.9 70.4741C305.34 70.4741 306.764 70.173 308.172 69.5708V71.3774C307.456 71.6867 306.777 71.9064 306.134 72.0366C305.499 72.175 304.73 72.2441 303.827 72.2441ZM303.277 60.0737C302.203 60.0737 301.345 60.4237 300.702 61.1235C300.067 61.8234 299.693 62.7918 299.579 64.0288H306.573C306.573 62.7511 306.288 61.7746 305.719 61.0991C305.149 60.4155 304.335 60.0737 303.277 60.0737ZM321.368 72V63.3452C321.368 62.2547 321.12 61.4409 320.624 60.9038C320.127 60.3667 319.35 60.0981 318.292 60.0981C316.892 60.0981 315.867 60.4766 315.216 61.2334C314.565 61.9902 314.239 63.2394 314.239 64.981V72H312.213V58.6211H313.861L314.19 60.4521H314.288C314.703 59.793 315.285 59.2843 316.034 58.9263C316.782 58.5601 317.617 58.377 318.536 58.377C320.147 58.377 321.36 58.7676 322.174 59.5488C322.988 60.3219 323.395 61.563 323.395 63.272V72H321.368ZM332.916 72.2441C330.979 72.2441 329.478 71.6501 328.412 70.4619C327.354 69.2656 326.825 67.577 326.825 65.396C326.825 63.158 327.362 61.4287 328.436 60.208C329.518 58.9873 331.056 58.377 333.05 58.377C333.693 58.377 334.336 58.4461 334.979 58.5845C335.622 58.7228 336.126 58.8856 336.493 59.0728L335.87 60.7939C335.423 60.6149 334.934 60.4684 334.405 60.3545C333.876 60.2324 333.408 60.1714 333.001 60.1714C330.283 60.1714 328.924 61.9048 328.924 65.3716C328.924 67.0155 329.254 68.2769 329.913 69.1558C330.58 70.0347 331.565 70.4741 332.867 70.4741C333.982 70.4741 335.125 70.234 336.297 69.7539V71.5483C335.402 72.0122 334.275 72.2441 332.916 72.2441ZM345.135 72.2441C343.158 72.2441 341.595 71.6419 340.448 70.4375C339.308 69.2331 338.739 67.5607 338.739 65.4204C338.739 63.2638 339.268 61.5508 340.326 60.2812C341.392 59.0117 342.82 58.377 344.61 58.377C346.287 58.377 347.613 58.9303 348.59 60.0371C349.566 61.1357 350.055 62.5884 350.055 64.395V65.6768H340.838C340.879 67.2474 341.274 68.4396 342.022 69.2534C342.779 70.0672 343.841 70.4741 345.208 70.4741C346.649 70.4741 348.073 70.173 349.481 69.5708V71.3774C348.765 71.6867 348.085 71.9064 347.442 72.0366C346.808 72.175 346.039 72.2441 345.135 72.2441ZM344.586 60.0737C343.512 60.0737 342.653 60.4237 342.01 61.1235C341.375 61.8234 341.001 62.7918 340.887 64.0288H347.882C347.882 62.7511 347.597 61.7746 347.027 61.0991C346.458 60.4155 345.644 60.0737 344.586 60.0737ZM362.152 68.3501C362.152 69.5952 361.688 70.5555 360.76 71.231C359.833 71.9064 358.53 72.2441 356.854 72.2441C355.08 72.2441 353.696 71.9634 352.704 71.4019V69.522C353.347 69.8475 354.034 70.1038 354.767 70.291C355.507 70.4782 356.219 70.5718 356.903 70.5718C357.961 70.5718 358.775 70.4049 359.344 70.0713C359.914 69.7295 360.199 69.2127 360.199 68.521C360.199 68.0002 359.971 67.5566 359.515 67.1904C359.068 66.8161 358.189 66.3766 356.878 65.8721C355.633 65.4082 354.746 65.0054 354.217 64.6636C353.696 64.3136 353.306 63.9189 353.045 63.4795C352.793 63.04 352.667 62.5151 352.667 61.9048C352.667 60.8143 353.111 59.9557 353.998 59.3291C354.885 58.6943 356.101 58.377 357.647 58.377C359.088 58.377 360.496 58.6699 361.871 59.2559L361.151 60.9038C359.808 60.3504 358.591 60.0737 357.501 60.0737C356.541 60.0737 355.816 60.2243 355.328 60.5254C354.84 60.8265 354.596 61.2415 354.596 61.7705C354.596 62.1286 354.685 62.4338 354.864 62.686C355.051 62.9383 355.348 63.1784 355.755 63.4062C356.162 63.6341 356.944 63.9637 358.099 64.395C359.686 64.9728 360.756 65.5547 361.31 66.1406C361.871 66.7266 362.152 67.4631 362.152 68.3501Z" fill="#282731"/>
<path d="M81.851 70.4087L66.3867 65.6953H48.1933L33.4452 71.2895C31.4205 72.0575 30 74.8178 30 77.9844V86.3984C30 88.9391 31.3577 90.999 33.0322 90.999H81.5478C83.2224 90.999 82.3472 89.3224 82.3472 86.7817L84.58 77.9844C84.58 74.8181 83.8759 71.1769 81.851 70.4087Z" fill="#5B5D6E"/>
<path d="M66.3867 55.5303H48.1934V70.0898H66.3867V55.5303Z" fill="#D29B6E"/>
<path d="M61.5966 61.9762L67.6688 57.0494C68.8131 56.1209 69.5675 54.8154 69.7883 53.3812L71.9099 39.6106C73.0122 32.4548 67.3204 26.0195 59.889 26.0195H54.6911C47.2595 26.0195 41.5678 32.4548 42.6702 39.6106L44.7918 53.3812C45.0126 54.8154 45.767 56.1209 46.9113 57.0494L52.9834 61.9762C53.8026 62.6409 54.8353 63.0049 55.9014 63.0049H58.6786C59.7449 63.0051 60.7775 62.641 61.5966 61.9762Z" fill="#F0C087"/>
<path d="M59.9439 26.0195H54.7295C47.2746 26.0195 41.5647 32.4548 42.6706 39.6106L44.7989 53.3812C45.0206 54.8154 45.7773 56.1209 46.9251 57.0494L53.0165 61.9762C53.8382 62.6409 54.8742 63.0049 55.9439 63.0049H56.5745L53.7293 57.4821C53.0942 56.2496 52.7639 54.8905 52.7639 53.5124V40.4013C53.9227 40.294 55.0852 40.1605 56.1829 39.99C56.7958 41.2357 58.1041 42.0982 59.6158 42.0982C59.9398 42.0982 60.2637 42.0576 60.5785 41.9782C62.7876 41.4192 68.0178 39.808 72.0468 36.5112C71.3684 30.6993 66.2982 26.0195 59.9439 26.0195Z" fill="#E6AF78"/>
<path d="M70.7415 33.3403C70.7415 33.3403 70.7788 33.249 70.834 33.1142C69.0007 28.9838 64.7775 26.0195 59.7465 26.0195H54.5864C47.8197 26.0195 42.5221 31.3806 42.5332 37.7327H43.5914C43.5914 37.7327 54.1499 37.7327 58.675 36.2685V38.2693C58.675 38.7498 59.1349 39.1009 59.6137 38.9798C61.7747 38.4328 67.1881 36.7893 70.7415 33.3403Z" fill="#C7CFE2"/>
<path d="M59.8833 26H54.6967C47.8952 26 42.5704 31.4025 42.5816 37.8037H43.6452C43.6452 37.8037 48.299 37.8009 52.7642 37.3723C52.9679 31.9001 56.9871 27.3788 62.3186 26.2668C61.5303 26.1101 60.7238 26 59.8833 26Z" fill="#AFB9D2"/>
<path d="M61.8382 44.8654C60.4924 44.1289 58.9228 43.7051 57.2898 43.7051C55.657 43.7051 54.0873 44.129 52.7415 44.8654V48.6719C53.7587 47.4355 55.4441 46.6577 57.2898 46.6577C59.1356 46.6577 60.8208 47.4355 61.8382 48.6719V44.8654Z" fill="#AFB9D2"/>
<path d="M51.2258 50.3467C53.3191 50.3467 55.0161 48.6946 55.0161 46.6567C55.0161 44.6188 53.3191 42.9668 51.2258 42.9668C49.1325 42.9668 47.4355 44.6188 47.4355 46.6567C47.4355 48.6946 49.1325 50.3467 51.2258 50.3467Z" fill="#E4EAF8"/>
<path d="M63.3547 50.3486C65.448 50.3486 67.145 48.6962 67.145 46.6577C67.145 44.6193 65.448 42.9668 63.3547 42.9668C61.2614 42.9668 59.5645 44.6193 59.5645 46.6577C59.5645 48.6962 61.2614 50.3486 63.3547 50.3486Z" fill="#E4EAF8"/>
<path d="M68.6865 64.054C68.215 63.3634 67.2514 63.1909 66.5597 63.6735L57.2901 70.1383L48.0206 63.6733C47.3286 63.1908 46.3654 63.3632 45.8937 64.0538L43.7461 67.1995L50.2156 74.7798C50.7823 75.4437 51.81 75.4893 52.4359 74.878L54.5008 72.8618C54.9749 72.3988 55.7852 72.7268 55.7852 73.3813V81.8936H58.7949V73.3814C58.7949 72.7268 59.6055 72.3992 60.0792 72.8619L62.1442 74.8782C62.7698 75.4891 63.7978 75.4435 64.3645 74.78L70.834 67.1995L68.6865 64.054Z" fill="#7F8499"/>
<path d="M33.4452 69.4267C31.4205 69.9192 30 71.6895 30 73.7205V79.1168C30 80.7463 31.3577 82.0674 33.0322 82.0674H46.6771L43.5726 66.9629L33.4452 69.4267Z" fill="#EBC9A0"/>
<path d="M81.1348 69.4268C83.1595 69.9193 84.58 71.6898 84.58 73.7208V79.1174C84.58 80.747 83.5257 90.999 81.8511 90.999H67.958L71.0074 66.9629L81.1348 69.4268Z" fill="#EBC9A0"/>
</svg>
