<svg width="424" height="137" viewBox="0 0 424 137" fill="none" xmlns="http://www.w3.org/2000/svg">
<g filter="url(#filter0_d)">
<rect x="10" y="6" width="404" height="117" rx="10" fill="#EE765A"/>
</g>
<path d="M138.131 78H134.347V63.3027H129.5V60.1533H142.977V63.3027H138.131V78ZM151.083 66.7451C150.293 66.7451 149.675 66.9974 149.227 67.502C148.779 67.9984 148.523 68.7064 148.458 69.626H153.683C153.666 68.7064 153.426 67.9984 152.962 67.502C152.499 66.9974 151.872 66.7451 151.083 66.7451ZM151.607 78.2441C149.41 78.2441 147.693 77.6379 146.456 76.4253C145.219 75.2127 144.601 73.4956 144.601 71.2739C144.601 68.9871 145.17 67.2212 146.31 65.9761C147.457 64.7228 149.04 64.0962 151.058 64.0962C152.987 64.0962 154.488 64.6455 155.562 65.7441C156.637 66.8428 157.174 68.3605 157.174 70.2974V72.104H148.373C148.413 73.1619 148.727 73.988 149.312 74.582C149.898 75.1761 150.72 75.4731 151.778 75.4731C152.6 75.4731 153.377 75.3877 154.11 75.2168C154.842 75.0459 155.607 74.7733 156.405 74.3989V77.2798C155.754 77.6053 155.058 77.8454 154.317 78C153.577 78.1628 152.674 78.2441 151.607 78.2441ZM168.868 78L168.148 76.1445H168.05C167.424 76.9339 166.777 77.4832 166.109 77.7925C165.45 78.0936 164.588 78.2441 163.521 78.2441C162.211 78.2441 161.178 77.8698 160.421 77.1211C159.672 76.3724 159.298 75.3063 159.298 73.9229C159.298 72.4743 159.802 71.4082 160.812 70.7246C161.829 70.0329 163.359 69.6504 165.401 69.5771L167.77 69.5039V68.9058C167.77 67.5223 167.062 66.8306 165.646 66.8306C164.555 66.8306 163.273 67.1602 161.8 67.8193L160.567 65.3047C162.138 64.4827 163.88 64.0718 165.792 64.0718C167.623 64.0718 169.027 64.4705 170.003 65.2681C170.98 66.0656 171.468 67.2782 171.468 68.9058V78H168.868ZM167.77 71.6768L166.329 71.7256C165.247 71.7581 164.441 71.9535 163.912 72.3115C163.383 72.6696 163.119 73.2148 163.119 73.9473C163.119 74.9971 163.721 75.522 164.925 75.522C165.788 75.522 166.476 75.2738 166.988 74.7773C167.509 74.2809 167.77 73.6217 167.77 72.7998V71.6768ZM180.855 78.2441C176.607 78.2441 174.483 75.9126 174.483 71.2495C174.483 68.9302 175.061 67.1602 176.217 65.9395C177.372 64.7106 179.028 64.0962 181.185 64.0962C182.764 64.0962 184.18 64.4054 185.433 65.0239L184.334 67.9048C183.749 67.6688 183.203 67.4775 182.699 67.3311C182.194 67.1764 181.69 67.0991 181.185 67.0991C179.248 67.0991 178.28 68.4744 178.28 71.2251C178.28 73.8944 179.248 75.229 181.185 75.229C181.901 75.229 182.564 75.1354 183.175 74.9482C183.785 74.7529 184.396 74.4518 185.006 74.0449V77.231C184.404 77.6134 183.793 77.8779 183.175 78.0244C182.564 78.1709 181.791 78.2441 180.855 78.2441ZM200.777 78H197.054V70.0288C197.054 68.0594 196.322 67.0747 194.857 67.0747C193.815 67.0747 193.062 67.4287 192.599 68.1367C192.135 68.8447 191.903 69.9922 191.903 71.5791V78H188.18V59.0059H191.903V62.8755C191.903 63.1766 191.874 63.8846 191.817 64.9995L191.732 66.0981H191.927C192.757 64.7635 194.076 64.0962 195.882 64.0962C197.486 64.0962 198.702 64.5275 199.532 65.3901C200.362 66.2528 200.777 67.4897 200.777 69.1011V78ZM204.452 60.8247C204.452 59.6121 205.127 59.0059 206.478 59.0059C207.829 59.0059 208.504 59.6121 208.504 60.8247C208.504 61.4025 208.333 61.8542 207.992 62.1797C207.658 62.4971 207.153 62.6558 206.478 62.6558C205.127 62.6558 204.452 62.0454 204.452 60.8247ZM208.333 78H204.61V64.3525H208.333V78ZM224.85 78H221.126V70.0288C221.126 69.0441 220.951 68.3076 220.602 67.8193C220.252 67.3229 219.694 67.0747 218.929 67.0747C217.888 67.0747 217.135 67.4246 216.671 68.1245C216.207 68.8162 215.975 69.9678 215.975 71.5791V78H212.252V64.3525H215.096L215.597 66.0981H215.804C216.219 65.439 216.789 64.9425 217.513 64.6089C218.246 64.2671 219.076 64.0962 220.003 64.0962C221.59 64.0962 222.795 64.5275 223.617 65.3901C224.439 66.2446 224.85 67.4816 224.85 69.1011V78ZM240.56 64.3525V66.2446L238.424 66.7939C238.814 67.4043 239.01 68.0879 239.01 68.8447C239.01 70.3096 238.497 71.453 237.472 72.2749C236.454 73.0887 235.038 73.4956 233.224 73.4956L232.552 73.459L232.003 73.3979C231.62 73.6909 231.429 74.0164 231.429 74.3745C231.429 74.9116 232.113 75.1802 233.48 75.1802H235.799C237.297 75.1802 238.436 75.5016 239.217 76.1445C240.007 76.7874 240.401 77.7314 240.401 78.9766C240.401 80.5716 239.734 81.8086 238.399 82.6875C237.073 83.5664 235.165 84.0059 232.674 84.0059C230.77 84.0059 229.313 83.6722 228.304 83.0049C227.303 82.3457 226.803 81.418 226.803 80.2217C226.803 79.3997 227.059 78.7121 227.572 78.1587C228.084 77.6053 228.837 77.2106 229.83 76.9746C229.448 76.8118 229.114 76.5474 228.829 76.1812C228.544 75.8068 228.402 75.4121 228.402 74.9971C228.402 74.4762 228.552 74.0449 228.854 73.7031C229.155 73.3532 229.59 73.0114 230.16 72.6777C229.444 72.3685 228.874 71.8721 228.451 71.1885C228.036 70.5049 227.828 69.6992 227.828 68.7715C227.828 67.2822 228.312 66.1307 229.281 65.3169C230.249 64.5031 231.633 64.0962 233.431 64.0962C233.814 64.0962 234.265 64.1328 234.786 64.2061C235.315 64.2712 235.653 64.32 235.799 64.3525H240.56ZM230.025 79.9287C230.025 80.4414 230.27 80.8442 230.758 81.1372C231.254 81.4302 231.946 81.5767 232.833 81.5767C234.168 81.5767 235.213 81.3936 235.97 81.0273C236.727 80.6611 237.105 80.1606 237.105 79.5259C237.105 79.0132 236.882 78.6592 236.434 78.4639C235.986 78.2686 235.295 78.1709 234.359 78.1709H232.43C231.747 78.1709 231.173 78.3296 230.709 78.647C230.253 78.9725 230.025 79.3997 230.025 79.9287ZM231.38 68.8203C231.38 69.5609 231.547 70.1468 231.881 70.5781C232.223 71.0094 232.739 71.2251 233.431 71.2251C234.131 71.2251 234.644 71.0094 234.969 70.5781C235.295 70.1468 235.458 69.5609 235.458 68.8203C235.458 67.1764 234.782 66.3545 233.431 66.3545C232.064 66.3545 231.38 67.1764 231.38 68.8203ZM256.93 64.0962C257.434 64.0962 257.853 64.1328 258.187 64.2061L257.906 67.6973C257.605 67.6159 257.239 67.5752 256.808 67.5752C255.619 67.5752 254.692 67.8804 254.024 68.4907C253.365 69.1011 253.036 69.9556 253.036 71.0542V78H249.312V64.3525H252.132L252.682 66.6475H252.865C253.288 65.8825 253.858 65.2681 254.574 64.8042C255.298 64.3322 256.083 64.0962 256.93 64.0962ZM266.317 66.7451C265.528 66.7451 264.909 66.9974 264.461 67.502C264.014 67.9984 263.757 68.7064 263.692 69.626H268.917C268.901 68.7064 268.661 67.9984 268.197 67.502C267.733 66.9974 267.106 66.7451 266.317 66.7451ZM266.842 78.2441C264.645 78.2441 262.927 77.6379 261.69 76.4253C260.453 75.2127 259.835 73.4956 259.835 71.2739C259.835 68.9871 260.405 67.2212 261.544 65.9761C262.691 64.7228 264.274 64.0962 266.292 64.0962C268.221 64.0962 269.723 64.6455 270.797 65.7441C271.871 66.8428 272.408 68.3605 272.408 70.2974V72.104H263.607C263.648 73.1619 263.961 73.988 264.547 74.582C265.133 75.1761 265.955 75.4731 267.013 75.4731C267.835 75.4731 268.612 75.3877 269.344 75.2168C270.077 75.0459 270.842 74.7733 271.639 74.3989V77.2798C270.988 77.6053 270.292 77.8454 269.552 78C268.811 78.1628 267.908 78.2441 266.842 78.2441ZM284.957 73.9473C284.957 75.347 284.469 76.4131 283.492 77.1455C282.524 77.8779 281.071 78.2441 279.134 78.2441C278.141 78.2441 277.295 78.175 276.595 78.0366C275.895 77.9064 275.24 77.7111 274.63 77.4507V74.3745C275.322 74.7 276.099 74.9727 276.961 75.1924C277.832 75.4121 278.597 75.522 279.256 75.522C280.607 75.522 281.283 75.1313 281.283 74.3501C281.283 74.0571 281.193 73.8211 281.014 73.6421C280.835 73.4549 280.526 73.2474 280.086 73.0195C279.647 72.7835 279.061 72.5109 278.329 72.2017C277.279 71.7622 276.506 71.3553 276.009 70.981C275.521 70.6066 275.163 70.1794 274.935 69.6992C274.715 69.2109 274.605 68.6128 274.605 67.9048C274.605 66.6922 275.073 65.7563 276.009 65.0972C276.953 64.4299 278.288 64.0962 280.013 64.0962C281.657 64.0962 283.256 64.4543 284.811 65.1704L283.688 67.856C283.004 67.563 282.365 67.3229 281.771 67.1357C281.177 66.9486 280.571 66.855 279.952 66.855C278.854 66.855 278.304 67.152 278.304 67.7461C278.304 68.0798 278.479 68.3687 278.829 68.6128C279.187 68.8569 279.964 69.2191 281.161 69.6992C282.227 70.1305 283.008 70.5334 283.504 70.9077C284.001 71.2821 284.367 71.7134 284.603 72.2017C284.839 72.6899 284.957 73.2718 284.957 73.9473ZM290.829 71.1519C290.829 72.5028 291.048 73.5241 291.488 74.2158C291.935 74.9076 292.66 75.2534 293.661 75.2534C294.653 75.2534 295.366 74.9116 295.797 74.228C296.236 73.5363 296.456 72.5109 296.456 71.1519C296.456 69.8009 296.236 68.7878 295.797 68.1123C295.357 67.4368 294.637 67.0991 293.636 67.0991C292.643 67.0991 291.927 67.4368 291.488 68.1123C291.048 68.7796 290.829 69.7928 290.829 71.1519ZM300.265 71.1519C300.265 73.3735 299.679 75.111 298.507 76.3643C297.335 77.6175 295.703 78.2441 293.612 78.2441C292.302 78.2441 291.146 77.9593 290.145 77.3896C289.144 76.8118 288.375 75.9858 287.838 74.9116C287.301 73.8374 287.032 72.5841 287.032 71.1519C287.032 68.922 287.614 67.1886 288.778 65.9517C289.942 64.7147 291.577 64.0962 293.685 64.0962C294.995 64.0962 296.151 64.381 297.152 64.9507C298.153 65.5203 298.922 66.3382 299.459 67.4043C299.996 68.4704 300.265 69.7196 300.265 71.1519ZM313.009 78L312.508 76.2544H312.313C311.914 76.8892 311.349 77.3815 310.616 77.7314C309.884 78.0732 309.05 78.2441 308.114 78.2441C306.511 78.2441 305.302 77.8169 304.488 76.9624C303.674 76.0998 303.268 74.8628 303.268 73.2515V64.3525H306.991V72.3237C306.991 73.3084 307.166 74.049 307.516 74.5454C307.866 75.0337 308.423 75.2778 309.188 75.2778C310.23 75.2778 310.982 74.932 311.446 74.2402C311.91 73.5404 312.142 72.3848 312.142 70.7734V64.3525H315.865V78H313.009ZM327.389 64.0962C327.893 64.0962 328.312 64.1328 328.646 64.2061L328.365 67.6973C328.064 67.6159 327.698 67.5752 327.267 67.5752C326.078 67.5752 325.151 67.8804 324.483 68.4907C323.824 69.1011 323.495 69.9556 323.495 71.0542V78H319.771V64.3525H322.591L323.141 66.6475H323.324C323.747 65.8825 324.317 65.2681 325.033 64.8042C325.757 64.3322 326.542 64.0962 327.389 64.0962ZM336.666 78.2441C332.418 78.2441 330.294 75.9126 330.294 71.2495C330.294 68.9302 330.872 67.1602 332.027 65.9395C333.183 64.7106 334.839 64.0962 336.996 64.0962C338.574 64.0962 339.99 64.4054 341.244 65.0239L340.145 67.9048C339.559 67.6688 339.014 67.4775 338.509 67.3311C338.005 67.1764 337.5 67.0991 336.996 67.0991C335.059 67.0991 334.09 68.4744 334.09 71.2251C334.09 73.8944 335.059 75.229 336.996 75.229C337.712 75.229 338.375 75.1354 338.985 74.9482C339.596 74.7529 340.206 74.4518 340.816 74.0449V77.231C340.214 77.6134 339.604 77.8779 338.985 78.0244C338.375 78.1709 337.602 78.2441 336.666 78.2441ZM349.642 66.7451C348.853 66.7451 348.234 66.9974 347.787 67.502C347.339 67.9984 347.083 68.7064 347.018 69.626H352.242C352.226 68.7064 351.986 67.9984 351.522 67.502C351.058 66.9974 350.431 66.7451 349.642 66.7451ZM350.167 78.2441C347.97 78.2441 346.253 77.6379 345.016 76.4253C343.779 75.2127 343.16 73.4956 343.16 71.2739C343.16 68.9871 343.73 67.2212 344.869 65.9761C346.017 64.7228 347.599 64.0962 349.618 64.0962C351.546 64.0962 353.048 64.6455 354.122 65.7441C355.196 66.8428 355.733 68.3605 355.733 70.2974V72.104H346.932C346.973 73.1619 347.286 73.988 347.872 74.582C348.458 75.1761 349.28 75.4731 350.338 75.4731C351.16 75.4731 351.937 75.3877 352.669 75.2168C353.402 75.0459 354.167 74.7733 354.964 74.3989V77.2798C354.313 77.6053 353.618 77.8454 352.877 78C352.136 78.1628 351.233 78.2441 350.167 78.2441ZM368.282 73.9473C368.282 75.347 367.794 76.4131 366.817 77.1455C365.849 77.8779 364.396 78.2441 362.459 78.2441C361.467 78.2441 360.62 78.175 359.92 78.0366C359.221 77.9064 358.565 77.7111 357.955 77.4507V74.3745C358.647 74.7 359.424 74.9727 360.287 75.1924C361.157 75.4121 361.922 75.522 362.582 75.522C363.932 75.522 364.608 75.1313 364.608 74.3501C364.608 74.0571 364.518 73.8211 364.339 73.6421C364.16 73.4549 363.851 73.2474 363.412 73.0195C362.972 72.7835 362.386 72.5109 361.654 72.2017C360.604 71.7622 359.831 71.3553 359.334 70.981C358.846 70.6066 358.488 70.1794 358.26 69.6992C358.041 69.2109 357.931 68.6128 357.931 67.9048C357.931 66.6922 358.399 65.7563 359.334 65.0972C360.278 64.4299 361.613 64.0962 363.338 64.0962C364.982 64.0962 366.581 64.4543 368.136 65.1704L367.013 67.856C366.329 67.563 365.69 67.3229 365.096 67.1357C364.502 66.9486 363.896 66.855 363.277 66.855C362.179 66.855 361.629 67.152 361.629 67.7461C361.629 68.0798 361.804 68.3687 362.154 68.6128C362.512 68.8569 363.29 69.2191 364.486 69.6992C365.552 70.1305 366.333 70.5334 366.83 70.9077C367.326 71.2821 367.692 71.7134 367.928 72.2017C368.164 72.6899 368.282 73.2718 368.282 73.9473Z" fill="white"/>
<path d="M91.851 76.4087L76.3867 71.6953H58.1933L43.4452 77.2895C41.4205 78.0575 40 80.8178 40 83.9844V92.3984C40 94.9391 41.3577 96.999 43.0322 96.999H91.5478C93.2224 96.999 92.3472 95.3224 92.3472 92.7817L94.58 83.9844C94.58 80.8181 93.8759 77.1769 91.851 76.4087Z" fill="#5B5D6E"/>
<path d="M76.3868 61.5303H58.1935V76.0898H76.3868V61.5303Z" fill="#D29B6E"/>
<path d="M71.5966 67.9762L77.6688 63.0494C78.8131 62.1209 79.5675 60.8154 79.7883 59.3812L81.9099 45.6106C83.0122 38.4548 77.3204 32.0195 69.889 32.0195H64.6911C57.2595 32.0195 51.5678 38.4548 52.6702 45.6106L54.7918 59.3812C55.0126 60.8154 55.767 62.1209 56.9113 63.0494L62.9834 67.9762C63.8026 68.6409 64.8353 69.0049 65.9014 69.0049H68.6786C69.7449 69.0051 70.7775 68.641 71.5966 67.9762Z" fill="#F0C087"/>
<path d="M69.9439 32.0195H64.7295C57.2746 32.0195 51.5647 38.4548 52.6706 45.6106L54.7989 59.3812C55.0206 60.8154 55.7773 62.1209 56.9251 63.0494L63.0165 67.9762C63.8382 68.6409 64.8742 69.0049 65.9439 69.0049H66.5745L63.7293 63.4821C63.0942 62.2496 62.7639 60.8905 62.7639 59.5124V46.4013C63.9227 46.294 65.0852 46.1605 66.1829 45.99C66.7958 47.2357 68.1041 48.0982 69.6158 48.0982C69.9398 48.0982 70.2637 48.0576 70.5785 47.9782C72.7876 47.4192 78.0178 45.808 82.0468 42.5112C81.3684 36.6993 76.2982 32.0195 69.9439 32.0195Z" fill="#E6AF78"/>
<path d="M80.7415 39.3403C80.7415 39.3403 80.7788 39.249 80.834 39.1142C79.0007 34.9838 74.7775 32.0195 69.7465 32.0195H64.5864C57.8197 32.0195 52.5221 37.3806 52.5332 43.7327H53.5914C53.5914 43.7327 64.1499 43.7327 68.675 42.2685V44.2693C68.675 44.7498 69.1349 45.1009 69.6137 44.9798C71.7747 44.4328 77.1881 42.7893 80.7415 39.3403Z" fill="#C7CFE2"/>
<path d="M69.8834 32H64.6968C57.8953 32 52.5705 37.4025 52.5817 43.8037H53.6453C53.6453 43.8037 58.2991 43.8009 62.7643 43.3723C62.968 37.9001 66.9872 33.3788 72.3188 32.2668C71.5304 32.1101 70.7239 32 69.8834 32Z" fill="#AFB9D2"/>
<path d="M71.8384 50.8654C70.4926 50.1289 68.923 49.7051 67.2901 49.7051C65.6573 49.7051 64.0875 50.129 62.7417 50.8654V54.6719C63.759 53.4355 65.4443 52.6577 67.2901 52.6577C69.1358 52.6577 70.821 53.4355 71.8384 54.6719V50.8654Z" fill="#AFB9D2"/>
<path d="M61.2258 56.3467C63.3191 56.3467 65.0161 54.6946 65.0161 52.6567C65.0161 50.6188 63.3191 48.9668 61.2258 48.9668C59.1325 48.9668 57.4355 50.6188 57.4355 52.6567C57.4355 54.6946 59.1325 56.3467 61.2258 56.3467Z" fill="#E4EAF8"/>
<path d="M73.3547 56.3486C75.448 56.3486 77.145 54.6962 77.145 52.6577C77.145 50.6193 75.448 48.9668 73.3547 48.9668C71.2614 48.9668 69.5645 50.6193 69.5645 52.6577C69.5645 54.6962 71.2614 56.3486 73.3547 56.3486Z" fill="#E4EAF8"/>
<path d="M78.6864 70.054C78.2148 69.3634 77.2513 69.1909 76.5595 69.6735L67.29 76.1383L58.0204 69.6733C57.3285 69.1908 56.3653 69.3632 55.8936 70.0538L53.746 73.1995L60.2155 80.7798C60.7821 81.4437 61.8099 81.4893 62.4357 80.878L64.5007 78.8618C64.9748 78.3988 65.785 78.7268 65.785 79.3813V87.8936H68.7948V79.3814C68.7948 78.7268 69.6054 78.3992 70.0791 78.8619L72.1441 80.8782C72.7697 81.4891 73.7977 81.4435 74.3643 80.78L80.8338 73.1995L78.6864 70.054Z" fill="#7F8499"/>
<path d="M43.4452 75.4267C41.4205 75.9192 40 77.6895 40 79.7205V85.1168C40 86.7463 41.3577 88.0674 43.0322 88.0674H56.6771L53.5726 72.9629L43.4452 75.4267Z" fill="#EBC9A0"/>
<path d="M91.1347 75.4268C93.1594 75.9193 94.5799 77.6898 94.5799 79.7208V85.1174C94.5799 86.747 93.5255 96.999 91.851 96.999H77.9579L81.0073 72.9629L91.1347 75.4268Z" fill="#EBC9A0"/>
<defs>
<filter id="filter0_d" x="0" y="0" width="424" height="137" filterUnits="userSpaceOnUse" color-interpolation-filters="sRGB">
<feFlood flood-opacity="0" result="BackgroundImageFix"/>
<feColorMatrix in="SourceAlpha" type="matrix" values="0 0 0 0 0 0 0 0 0 0 0 0 0 0 0 0 0 0 127 0"/>
<feOffset dy="4"/>
<feGaussianBlur stdDeviation="5"/>
<feColorMatrix type="matrix" values="0 0 0 0 0 0 0 0 0 0 0 0 0 0 0 0 0 0 0.25 0"/>
<feBlend mode="normal" in2="BackgroundImageFix" result="effect1_dropShadow"/>
<feBlend mode="normal" in="SourceGraphic" in2="effect1_dropShadow" result="shape"/>
</filter>
</defs>
</svg>
