<svg width="404" height="117" viewBox="0 0 404 117" fill="none" xmlns="http://www.w3.org/2000/svg">
<rect width="404" height="117" rx="10" fill="white"/>
<path d="M127.947 67H125.872V50.9966H120.22V49.1533H133.599V50.9966H127.947V67ZM141.643 67.2441C139.666 67.2441 138.103 66.6419 136.956 65.4375C135.816 64.2331 135.247 62.5607 135.247 60.4204C135.247 58.2638 135.776 56.5508 136.833 55.2812C137.9 54.0117 139.328 53.377 141.118 53.377C142.795 53.377 144.121 53.9303 145.098 55.0371C146.074 56.1357 146.562 57.5884 146.562 59.395V60.6768H137.346C137.387 62.2474 137.782 63.4396 138.53 64.2534C139.287 65.0672 140.349 65.4741 141.716 65.4741C143.157 65.4741 144.581 65.173 145.989 64.5708V66.3774C145.273 66.6867 144.593 66.9064 143.95 67.0366C143.315 67.175 142.546 67.2441 141.643 67.2441ZM141.094 55.0737C140.02 55.0737 139.161 55.4237 138.518 56.1235C137.883 56.8234 137.509 57.7918 137.395 59.0288H144.39C144.39 57.7511 144.105 56.7746 143.535 56.0991C142.965 55.4155 142.152 55.0737 141.094 55.0737ZM158.257 67L157.854 65.0957H157.756C157.089 65.9339 156.422 66.5036 155.754 66.8047C155.095 67.0977 154.269 67.2441 153.276 67.2441C151.95 67.2441 150.908 66.9023 150.151 66.2188C149.403 65.5352 149.028 64.5627 149.028 63.3013C149.028 60.5994 151.189 59.1834 155.51 59.0532L157.781 58.98V58.1499C157.781 57.1001 157.553 56.327 157.097 55.8306C156.65 55.326 155.929 55.0737 154.937 55.0737C153.822 55.0737 152.56 55.4155 151.152 56.0991L150.53 54.5488C151.189 54.1908 151.909 53.91 152.69 53.7065C153.48 53.5031 154.269 53.4014 155.059 53.4014C156.654 53.4014 157.834 53.7554 158.599 54.4634C159.372 55.1714 159.758 56.3066 159.758 57.8691V67H158.257ZM153.679 65.5718C154.941 65.5718 155.929 65.2259 156.646 64.5342C157.37 63.8424 157.732 62.874 157.732 61.6289V60.4204L155.706 60.5059C154.094 60.5628 152.931 60.8151 152.214 61.2627C151.506 61.7021 151.152 62.3898 151.152 63.3257C151.152 64.0581 151.372 64.6156 151.812 64.998C152.259 65.3805 152.882 65.5718 153.679 65.5718ZM169.292 67.2441C167.355 67.2441 165.854 66.6501 164.788 65.4619C163.73 64.2656 163.201 62.577 163.201 60.396C163.201 58.158 163.738 56.4287 164.812 55.208C165.894 53.9873 167.432 53.377 169.426 53.377C170.069 53.377 170.712 53.4461 171.355 53.5845C171.998 53.7228 172.502 53.8856 172.869 54.0728L172.246 55.7939C171.799 55.6149 171.31 55.4684 170.781 55.3545C170.252 55.2324 169.784 55.1714 169.377 55.1714C166.659 55.1714 165.3 56.9048 165.3 60.3716C165.3 62.0155 165.63 63.2769 166.289 64.1558C166.956 65.0347 167.941 65.4741 169.243 65.4741C170.358 65.4741 171.501 65.234 172.673 64.7539V66.5483C171.778 67.0122 170.651 67.2441 169.292 67.2441ZM185.015 67V58.3452C185.015 57.2547 184.766 56.4409 184.27 55.9038C183.774 55.3667 182.996 55.0981 181.938 55.0981C180.531 55.0981 179.501 55.4806 178.85 56.2456C178.207 57.0106 177.886 58.2638 177.886 60.0054V67H175.859V48.0059H177.886V53.7554C177.886 54.4471 177.853 55.0208 177.788 55.4766H177.91C178.309 54.8337 178.875 54.3291 179.607 53.9629C180.347 53.5885 181.19 53.4014 182.134 53.4014C183.77 53.4014 184.994 53.792 185.808 54.5732C186.63 55.3464 187.041 56.5793 187.041 58.272V67H185.015ZM193.242 67H191.216V53.6211H193.242V67ZM191.045 49.9956C191.045 49.5317 191.159 49.194 191.387 48.9824C191.615 48.7627 191.899 48.6528 192.241 48.6528C192.567 48.6528 192.847 48.7627 193.083 48.9824C193.319 49.2021 193.438 49.5399 193.438 49.9956C193.438 50.4513 193.319 50.7931 193.083 51.021C192.847 51.2407 192.567 51.3506 192.241 51.3506C191.899 51.3506 191.615 51.2407 191.387 51.021C191.159 50.7931 191.045 50.4513 191.045 49.9956ZM206.694 67V58.3452C206.694 57.2547 206.446 56.4409 205.95 55.9038C205.453 55.3667 204.676 55.0981 203.618 55.0981C202.218 55.0981 201.193 55.4766 200.542 56.2334C199.891 56.9902 199.565 58.2394 199.565 59.981V67H197.539V53.6211H199.187L199.517 55.4521H199.614C200.029 54.793 200.611 54.2843 201.36 53.9263C202.109 53.5601 202.943 53.377 203.862 53.377C205.474 53.377 206.686 53.7676 207.5 54.5488C208.314 55.3219 208.721 56.563 208.721 58.272V67H206.694ZM223.845 53.6211V54.9028L221.367 55.1958C221.595 55.4806 221.799 55.855 221.978 56.3188C222.157 56.7746 222.246 57.2913 222.246 57.8691C222.246 59.1794 221.799 60.2251 220.903 61.0063C220.008 61.7876 218.779 62.1782 217.217 62.1782C216.818 62.1782 216.444 62.1457 216.094 62.0806C215.231 62.5363 214.8 63.11 214.8 63.8018C214.8 64.168 214.95 64.4406 215.251 64.6196C215.553 64.7905 216.069 64.876 216.802 64.876H219.17C220.618 64.876 221.729 65.1812 222.502 65.7915C223.284 66.4019 223.674 67.2889 223.674 68.4526C223.674 69.9338 223.08 71.0609 221.892 71.834C220.704 72.6152 218.971 73.0059 216.692 73.0059C214.942 73.0059 213.591 72.6803 212.639 72.0293C211.695 71.3783 211.223 70.4587 211.223 69.2705C211.223 68.4567 211.484 67.7528 212.004 67.1587C212.525 66.5646 213.258 66.1618 214.202 65.9502C213.86 65.7956 213.571 65.5555 213.335 65.23C213.107 64.9045 212.993 64.526 212.993 64.0947C212.993 63.6064 213.123 63.1792 213.384 62.813C213.644 62.4468 214.055 62.0928 214.617 61.751C213.925 61.4661 213.359 60.9819 212.92 60.2983C212.489 59.6147 212.273 58.8335 212.273 57.9546C212.273 56.4897 212.712 55.3626 213.591 54.5732C214.47 53.7757 215.715 53.377 217.327 53.377C218.027 53.377 218.657 53.4583 219.219 53.6211H223.845ZM213.176 69.2461C213.176 69.9704 213.481 70.5197 214.092 70.894C214.702 71.2684 215.577 71.4556 216.716 71.4556C218.417 71.4556 219.674 71.1992 220.488 70.6865C221.31 70.182 221.721 69.4943 221.721 68.6235C221.721 67.8993 221.497 67.3947 221.05 67.1099C220.602 66.8332 219.76 66.6948 218.523 66.6948H216.094C215.174 66.6948 214.458 66.9146 213.945 67.354C213.433 67.7935 213.176 68.4242 213.176 69.2461ZM214.275 57.9058C214.275 58.8416 214.539 59.5496 215.068 60.0298C215.597 60.5099 216.334 60.75 217.278 60.75C219.255 60.75 220.244 59.7897 220.244 57.8691C220.244 55.859 219.243 54.854 217.241 54.854C216.289 54.854 215.557 55.1104 215.044 55.623C214.531 56.1357 214.275 56.8966 214.275 57.9058ZM239.189 53.377C239.784 53.377 240.317 53.4258 240.789 53.5234L240.508 55.4033C239.954 55.2812 239.466 55.2202 239.043 55.2202C237.961 55.2202 237.033 55.6597 236.26 56.5386C235.495 57.4175 235.112 58.512 235.112 59.8223V67H233.086V53.6211H234.758L234.99 56.0991H235.088C235.584 55.2284 236.182 54.557 236.882 54.085C237.582 53.613 238.351 53.377 239.189 53.377ZM248.943 67.2441C246.965 67.2441 245.403 66.6419 244.255 65.4375C243.116 64.2331 242.546 62.5607 242.546 60.4204C242.546 58.2638 243.075 56.5508 244.133 55.2812C245.199 54.0117 246.628 53.377 248.418 53.377C250.094 53.377 251.421 53.9303 252.397 55.0371C253.374 56.1357 253.862 57.5884 253.862 59.395V60.6768H244.646C244.687 62.2474 245.081 63.4396 245.83 64.2534C246.587 65.0672 247.649 65.4741 249.016 65.4741C250.457 65.4741 251.881 65.173 253.289 64.5708V66.3774C252.572 66.6867 251.893 66.9064 251.25 67.0366C250.615 67.175 249.846 67.2441 248.943 67.2441ZM248.394 55.0737C247.319 55.0737 246.461 55.4237 245.818 56.1235C245.183 56.8234 244.809 57.7918 244.695 59.0288H251.689C251.689 57.7511 251.405 56.7746 250.835 56.0991C250.265 55.4155 249.451 55.0737 248.394 55.0737ZM262.676 67.2441C260.739 67.2441 259.237 66.6501 258.171 65.4619C257.113 64.2656 256.584 62.577 256.584 60.396C256.584 58.158 257.122 56.4287 258.196 55.208C259.278 53.9873 260.816 53.377 262.81 53.377C263.453 53.377 264.096 53.4461 264.739 53.5845C265.382 53.7228 265.886 53.8856 266.252 54.0728L265.63 55.7939C265.182 55.6149 264.694 55.4684 264.165 55.3545C263.636 55.2324 263.168 55.1714 262.761 55.1714C260.043 55.1714 258.684 56.9048 258.684 60.3716C258.684 62.0155 259.014 63.2769 259.673 64.1558C260.34 65.0347 261.325 65.4741 262.627 65.4741C263.742 65.4741 264.885 65.234 266.057 64.7539V66.5483C265.162 67.0122 264.035 67.2441 262.676 67.2441ZM280.791 60.2983C280.791 62.4793 280.242 64.1842 279.143 65.4131C278.044 66.6338 276.527 67.2441 274.59 67.2441C273.394 67.2441 272.332 66.9634 271.404 66.4019C270.476 65.8403 269.76 65.0347 269.255 63.9849C268.751 62.9351 268.499 61.7062 268.499 60.2983C268.499 58.1174 269.044 56.4206 270.134 55.208C271.225 53.9873 272.738 53.377 274.675 53.377C276.547 53.377 278.032 53.9995 279.131 55.2446C280.238 56.4897 280.791 58.1743 280.791 60.2983ZM270.598 60.2983C270.598 62.0073 270.94 63.3094 271.624 64.2046C272.307 65.0998 273.312 65.5474 274.639 65.5474C275.965 65.5474 276.97 65.1038 277.654 64.2168C278.346 63.3216 278.691 62.0155 278.691 60.2983C278.691 58.5975 278.346 57.3076 277.654 56.4287C276.97 55.5417 275.957 55.0981 274.614 55.0981C273.288 55.0981 272.287 55.5335 271.611 56.4043C270.936 57.2751 270.598 58.5731 270.598 60.2983ZM286.26 53.6211V62.3003C286.26 63.3908 286.508 64.2046 287.004 64.7417C287.501 65.2788 288.278 65.5474 289.336 65.5474C290.736 65.5474 291.757 65.1649 292.4 64.3999C293.051 63.6349 293.376 62.3857 293.376 60.6523V53.6211H295.403V67H293.73L293.438 65.2056H293.328C292.913 65.8647 292.335 66.3693 291.594 66.7192C290.862 67.0692 290.024 67.2441 289.08 67.2441C287.452 67.2441 286.231 66.8576 285.417 66.0845C284.612 65.3114 284.209 64.0744 284.209 62.3735V53.6211H286.26ZM305.815 53.377C306.41 53.377 306.943 53.4258 307.415 53.5234L307.134 55.4033C306.58 55.2812 306.092 55.2202 305.669 55.2202C304.587 55.2202 303.659 55.6597 302.886 56.5386C302.121 57.4175 301.738 58.512 301.738 59.8223V67H299.712V53.6211H301.384L301.616 56.0991H301.714C302.21 55.2284 302.808 54.557 303.508 54.085C304.208 53.613 304.977 53.377 305.815 53.377ZM318.547 63.3501C318.547 64.5952 318.083 65.5555 317.156 66.231C316.228 66.9064 314.926 67.2441 313.25 67.2441C311.475 67.2441 310.092 66.9634 309.099 66.4019V64.522C309.742 64.8475 310.43 65.1038 311.162 65.291C311.903 65.4782 312.615 65.5718 313.298 65.5718C314.356 65.5718 315.17 65.4049 315.74 65.0713C316.309 64.7295 316.594 64.2127 316.594 63.521C316.594 63.0002 316.366 62.5566 315.911 62.1904C315.463 61.8161 314.584 61.3766 313.274 60.8721C312.029 60.4082 311.142 60.0054 310.613 59.6636C310.092 59.3136 309.701 58.9189 309.441 58.4795C309.189 58.04 309.062 57.5151 309.062 56.9048C309.062 55.8143 309.506 54.9557 310.393 54.3291C311.28 53.6943 312.497 53.377 314.043 53.377C315.483 53.377 316.891 53.6699 318.267 54.2559L317.546 55.9038C316.204 55.3504 314.987 55.0737 313.896 55.0737C312.936 55.0737 312.212 55.2243 311.724 55.5254C311.235 55.8265 310.991 56.2415 310.991 56.7705C310.991 57.1286 311.081 57.4338 311.26 57.686C311.447 57.9383 311.744 58.1784 312.151 58.4062C312.558 58.6341 313.339 58.9637 314.495 59.395C316.082 59.9728 317.152 60.5547 317.705 61.1406C318.267 61.7266 318.547 62.4631 318.547 63.3501ZM327.507 67.2441C325.53 67.2441 323.967 66.6419 322.82 65.4375C321.681 64.2331 321.111 62.5607 321.111 60.4204C321.111 58.2638 321.64 56.5508 322.698 55.2812C323.764 54.0117 325.192 53.377 326.982 53.377C328.659 53.377 329.985 53.9303 330.962 55.0371C331.938 56.1357 332.427 57.5884 332.427 59.395V60.6768H323.21C323.251 62.2474 323.646 63.4396 324.395 64.2534C325.151 65.0672 326.213 65.4741 327.581 65.4741C329.021 65.4741 330.445 65.173 331.853 64.5708V66.3774C331.137 66.6867 330.457 66.9064 329.814 67.0366C329.18 67.175 328.411 67.2441 327.507 67.2441ZM326.958 55.0737C325.884 55.0737 325.025 55.4237 324.382 56.1235C323.748 56.8234 323.373 57.7918 323.259 59.0288H330.254C330.254 57.7511 329.969 56.7746 329.399 56.0991C328.83 55.4155 328.016 55.0737 326.958 55.0737ZM344.524 63.3501C344.524 64.5952 344.06 65.5555 343.132 66.231C342.205 66.9064 340.903 67.2441 339.226 67.2441C337.452 67.2441 336.069 66.9634 335.076 66.4019V64.522C335.719 64.8475 336.406 65.1038 337.139 65.291C337.879 65.4782 338.591 65.5718 339.275 65.5718C340.333 65.5718 341.147 65.4049 341.716 65.0713C342.286 64.7295 342.571 64.2127 342.571 63.521C342.571 63.0002 342.343 62.5566 341.887 62.1904C341.44 61.8161 340.561 61.3766 339.25 60.8721C338.005 60.4082 337.118 60.0054 336.589 59.6636C336.069 59.3136 335.678 58.9189 335.417 58.4795C335.165 58.04 335.039 57.5151 335.039 56.9048C335.039 55.8143 335.483 54.9557 336.37 54.3291C337.257 53.6943 338.473 53.377 340.02 53.377C341.46 53.377 342.868 53.6699 344.243 54.2559L343.523 55.9038C342.18 55.3504 340.964 55.0737 339.873 55.0737C338.913 55.0737 338.188 55.2243 337.7 55.5254C337.212 55.8265 336.968 56.2415 336.968 56.7705C336.968 57.1286 337.057 57.4338 337.236 57.686C337.424 57.9383 337.721 58.1784 338.127 58.4062C338.534 58.6341 339.316 58.9637 340.471 59.395C342.058 59.9728 343.128 60.5547 343.682 61.1406C344.243 61.7266 344.524 62.4631 344.524 63.3501Z" fill="#282731"/>
<path d="M81.851 70.4081L66.3867 65.6943H48.1933L33.4452 71.289C31.4205 72.057 30 74.8176 30 77.9844V86.399C30 88.9399 31.3577 91 33.0322 91H81.5478C83.2224 91 82.3472 89.3233 82.3472 86.7824L84.58 77.9844C84.58 74.8178 83.8759 71.1764 81.851 70.4081Z" fill="#5B5D6E"/>
<path d="M66.3867 55.5312H48.1934V70.0889H66.3867V55.5312Z" fill="#D29B6E"/>
<path d="M61.5966 61.9772L67.6688 57.0502C68.8131 56.1217 69.5675 54.8162 69.7883 53.3819L71.9099 39.611C73.0122 32.455 67.3204 26.0195 59.889 26.0195H54.6911C47.2595 26.0195 41.5678 32.455 42.6702 39.611L44.7918 53.3819C45.0126 54.8162 45.767 56.1217 46.9113 57.0502L52.9834 61.9772C53.8026 62.6418 54.8353 63.0059 55.9014 63.0059H58.6786C59.7449 63.006 60.7775 62.642 61.5966 61.9772Z" fill="#F0C087"/>
<path d="M59.9439 26.0195H54.7295C47.2746 26.0195 41.5647 32.455 42.6706 39.611L44.7989 53.3819C45.0206 54.8162 45.7773 56.1217 46.9251 57.0502L53.0165 61.9772C53.8382 62.6418 54.8742 63.0059 55.9439 63.0059H56.5745L53.7293 57.4829C53.0942 56.2504 52.7639 54.8913 52.7639 53.5131V40.4017C53.9227 40.2944 55.0852 40.1608 56.1829 39.9904C56.7958 41.2361 58.1041 42.0986 59.6158 42.0986C59.9398 42.0986 60.2637 42.058 60.5785 41.9786C62.7876 41.4197 68.0178 39.8084 72.0468 36.5115C71.3684 30.6994 66.2982 26.0195 59.9439 26.0195Z" fill="#E6AF78"/>
<path d="M70.7415 33.3397C70.7415 33.3397 70.7788 33.2485 70.834 33.1137C69.0007 28.9836 64.7775 26.0195 59.7465 26.0195H54.5864C47.8197 26.0195 42.5221 31.3802 42.5332 37.7319H43.5914C43.5914 37.7319 54.1499 37.7319 58.675 36.2678V38.2684C58.675 38.7488 59.1349 39.0999 59.6137 38.9789C61.7747 38.4319 67.1881 36.7885 70.7415 33.3397Z" fill="#C7CFE2"/>
<path d="M59.8833 26H54.6967C47.8952 26 42.5704 31.4025 42.5816 37.8037H43.6452C43.6452 37.8037 48.299 37.8009 52.7642 37.3723C52.9679 31.9001 56.9871 27.3788 62.3186 26.2668C61.5303 26.1101 60.7238 26 59.8833 26Z" fill="#AFB9D2"/>
<path d="M61.8382 44.8659C60.4924 44.1297 58.9228 43.7061 57.2898 43.7061C55.657 43.7061 54.0873 44.1298 52.7415 44.8659V48.6709C53.7587 47.435 55.4441 46.6575 57.2898 46.6575C59.1356 46.6575 60.8208 47.435 61.8382 48.6709V44.8659Z" fill="#AFB9D2"/>
<path d="M51.2258 50.3457C53.3191 50.3457 55.0161 48.6941 55.0161 46.6567C55.0161 44.6194 53.3191 42.9678 51.2258 42.9678C49.1325 42.9678 47.4355 44.6194 47.4355 46.6567C47.4355 48.6941 49.1325 50.3457 51.2258 50.3457Z" fill="#E4EAF8"/>
<path d="M63.3547 50.3447C65.448 50.3447 67.145 48.6933 67.145 46.6563C67.145 44.6192 65.448 42.9678 63.3547 42.9678C61.2614 42.9678 59.5645 44.6192 59.5645 46.6563C59.5645 48.6933 61.2614 50.3447 63.3547 50.3447Z" fill="#E4EAF8"/>
<path d="M68.6865 64.0539C68.215 63.3634 67.2514 63.1909 66.5597 63.6734L57.2901 70.1376L48.0206 63.6733C47.3286 63.1908 46.3654 63.3632 45.8937 64.0538L43.7461 67.1991L50.2156 74.7786C50.7823 75.4424 51.81 75.488 52.4359 74.8768L54.5008 72.8608C54.9749 72.3979 55.7852 72.7258 55.7852 73.3802V81.8916H58.7949V73.3804C58.7949 72.7258 59.6055 72.3982 60.0792 72.8609L62.1442 74.877C62.7698 75.4878 63.7978 75.4422 64.3645 74.7788L70.834 67.1991L68.6865 64.0539Z" fill="#7F8499"/>
<path d="M33.4452 69.4265C31.4205 69.919 30 71.6892 30 73.72V79.116C30 80.7454 31.3577 82.0664 33.0322 82.0664H46.6771L43.5726 66.9629L33.4452 69.4265Z" fill="#EBC9A0"/>
<path d="M81.1348 69.4269C83.1595 69.9195 84.58 71.69 84.58 73.7211V79.1179C84.58 80.7475 83.5257 91 81.8511 91H67.958L71.0074 66.9629L81.1348 69.4269Z" fill="#EBC9A0"/>
</svg>
