<svg width="55" height="65" viewBox="0 0 55 65" fill="none" xmlns="http://www.w3.org/2000/svg">
<path d="M51.851 44.4087L36.3867 39.6953H18.1933L3.44525 45.2895C1.42052 46.0575 0 48.8178 0 51.9844V60.3984C0 62.9391 1.35766 64.999 3.03219 64.999H51.5478C53.2224 64.999 52.3472 63.3224 52.3472 60.7817L54.58 51.9844C54.58 48.8181 53.8759 45.1769 51.851 44.4087Z" fill="#5B5D6E"/>
<path d="M36.3867 29.5303H18.1934V44.0898H36.3867V29.5303Z" fill="#D29B6E"/>
<path d="M31.5966 35.9762L37.6688 31.0494C38.8131 30.1209 39.5675 28.8154 39.7883 27.3812L41.9099 13.6106C43.0122 6.45483 37.3204 0.0195312 29.889 0.0195312H24.6911C17.2595 0.0195312 11.5678 6.45483 12.6702 13.6106L14.7918 27.3812C15.0126 28.8154 15.767 30.1209 16.9113 31.0494L22.9834 35.9762C23.8026 36.6409 24.8353 37.0049 25.9014 37.0049H28.6786C29.7449 37.0051 30.7775 36.641 31.5966 35.9762Z" fill="#F0C087"/>
<path d="M29.9439 0.0195312H24.7295C17.2746 0.0195312 11.5647 6.45483 12.6706 13.6106L14.7989 27.3812C15.0206 28.8154 15.7773 30.1209 16.9251 31.0494L23.0165 35.9762C23.8382 36.6409 24.8742 37.0049 25.9439 37.0049H26.5745L23.7293 31.4821C23.0942 30.2496 22.7639 28.8905 22.7639 27.5124V14.4013C23.9227 14.294 25.0852 14.1605 26.1829 13.99C26.7958 15.2357 28.1041 16.0982 29.6158 16.0982C29.9398 16.0982 30.2637 16.0576 30.5785 15.9782C32.7876 15.4192 38.0178 13.808 42.0468 10.5112C41.3684 4.69932 36.2982 0.0195312 29.9439 0.0195312Z" fill="#E6AF78"/>
<path d="M40.7415 7.34027C40.7415 7.34027 40.7788 7.24904 40.834 7.1142C39.0007 2.98378 34.7775 0.0195312 29.7465 0.0195312H24.5864C17.8197 0.0195312 12.5221 5.38063 12.5332 11.7327H13.5914C13.5914 11.7327 24.1499 11.7327 28.675 10.2685V12.2693C28.675 12.7498 29.1349 13.1009 29.6137 12.9798C31.7747 12.4328 37.1881 10.7893 40.7415 7.34027Z" fill="#C7CFE2"/>
<path d="M29.8833 0H24.6967C17.8952 0 12.5704 5.40252 12.5816 11.8037H13.6452C13.6452 11.8037 18.299 11.8009 22.7642 11.3723C22.9679 5.9001 26.9871 1.37875 32.3186 0.266757C31.5303 0.110145 30.7238 0 29.8833 0Z" fill="#AFB9D2"/>
<path d="M31.8382 18.8654C30.4924 18.1289 28.9228 17.7051 27.2898 17.7051C25.657 17.7051 24.0873 18.129 22.7415 18.8654V22.6719C23.7587 21.4355 25.4441 20.6577 27.2898 20.6577C29.1356 20.6577 30.8208 21.4355 31.8382 22.6719V18.8654Z" fill="#AFB9D2"/>
<path d="M21.2258 24.3467C23.3191 24.3467 25.0161 22.6946 25.0161 20.6567C25.0161 18.6188 23.3191 16.9668 21.2258 16.9668C19.1325 16.9668 17.4355 18.6188 17.4355 20.6567C17.4355 22.6946 19.1325 24.3467 21.2258 24.3467Z" fill="#E4EAF8"/>
<path d="M33.3547 24.3486C35.448 24.3486 37.145 22.6962 37.145 20.6577C37.145 18.6193 35.448 16.9668 33.3547 16.9668C31.2614 16.9668 29.5645 18.6193 29.5645 20.6577C29.5645 22.6962 31.2614 24.3486 33.3547 24.3486Z" fill="#E4EAF8"/>
<path d="M38.6865 38.054C38.215 37.3634 37.2514 37.1909 36.5597 37.6735L27.2901 44.1383L18.0206 37.6733C17.3286 37.1908 16.3654 37.3632 15.8937 38.0538L13.7461 41.1995L20.2156 48.7798C20.7823 49.4437 21.81 49.4893 22.4359 48.878L24.5008 46.8618C24.9749 46.3988 25.7852 46.7268 25.7852 47.3813V55.8936H28.7949V47.3814C28.7949 46.7268 29.6055 46.3992 30.0792 46.8619L32.1442 48.8782C32.7698 49.4891 33.7978 49.4435 34.3645 48.78L40.834 41.1995L38.6865 38.054Z" fill="#7F8499"/>
<path d="M3.44524 43.4267C1.42052 43.9192 0 45.6895 0 47.7205V53.1168C0 54.7463 1.35766 56.0674 3.03218 56.0674H16.6771L13.5726 40.9629L3.44524 43.4267Z" fill="#EBC9A0"/>
<path d="M51.1348 43.4268C53.1595 43.9193 54.58 45.6898 54.58 47.7208V53.1174C54.58 54.747 53.5257 64.999 51.8511 64.999H37.958L41.0074 40.9629L51.1348 43.4268Z" fill="#EBC9A0"/>
</svg>
