<svg width="230" height="130" viewBox="0 0 230 130" fill="none" xmlns="http://www.w3.org/2000/svg">
<path d="M0 8.68055C0 3.88642 3.88642 0 8.68055 0L221.319 0C226.114 0 230 3.88642 230 8.68055V65V121.319C230 126.114 226.114 130 221.319 130H8.68055C3.88642 130 0 126.114 0 121.319V65V8.68055Z" fill="#EE765A" fill-opacity="0.3"/>
<path d="M74.8268 59.0833C74.8268 59.9306 74.6323 60.7083 74.2434 61.4167C73.8545 62.1111 73.2573 62.6736 72.4518 63.1042C71.6462 63.5347 70.6462 63.75 69.4518 63.75H67.2434V69H63.6809V54.375H69.4518C70.6184 54.375 71.6045 54.5764 72.4101 54.9792C73.2156 55.3819 73.8198 55.9375 74.2226 56.6458C74.6254 57.3542 74.8268 58.1667 74.8268 59.0833ZM69.1809 60.9167C69.8615 60.9167 70.3684 60.7569 70.7018 60.4375C71.0351 60.1181 71.2018 59.6667 71.2018 59.0833C71.2018 58.5 71.0351 58.0486 70.7018 57.7292C70.3684 57.4097 69.8615 57.25 69.1809 57.25H67.2434V60.9167H69.1809ZM80.2439 59.3125C80.6606 58.6736 81.1814 58.1736 81.8064 57.8125C82.4314 57.4375 83.1258 57.25 83.8897 57.25V61.0208H82.9106C82.0217 61.0208 81.355 61.2153 80.9106 61.6042C80.4661 61.9792 80.2439 62.6458 80.2439 63.6042V69H76.6814V57.375H80.2439V59.3125ZM96.5509 63C96.5509 63.3333 96.53 63.6806 96.4884 64.0417H88.4259C88.4814 64.7639 88.7106 65.3194 89.1134 65.7083C89.53 66.0833 90.037 66.2708 90.6342 66.2708C91.5231 66.2708 92.1411 65.8958 92.4884 65.1458H96.28C96.0856 65.9097 95.7314 66.5972 95.2175 67.2083C94.7175 67.8194 94.0856 68.2986 93.3217 68.6458C92.5578 68.9931 91.7036 69.1667 90.7592 69.1667C89.6203 69.1667 88.6064 68.9236 87.7175 68.4375C86.8286 67.9514 86.1342 67.2569 85.6342 66.3542C85.1342 65.4514 84.8842 64.3958 84.8842 63.1875C84.8842 61.9792 85.1273 60.9236 85.6134 60.0208C86.1134 59.1181 86.8078 58.4236 87.6967 57.9375C88.5856 57.4514 89.6064 57.2083 90.7592 57.2083C91.8842 57.2083 92.8842 57.4444 93.7592 57.9167C94.6342 58.3889 95.3148 59.0625 95.8009 59.9375C96.3009 60.8125 96.5509 61.8333 96.5509 63ZM92.905 62.0625C92.905 61.4514 92.6967 60.9653 92.28 60.6042C91.8634 60.2431 91.3425 60.0625 90.7175 60.0625C90.1203 60.0625 89.6134 60.2361 89.1967 60.5833C88.7939 60.9306 88.5439 61.4236 88.4467 62.0625H92.905ZM107.389 60.2083V63.1667H98.2219V60.2083H107.389ZM109.911 61.6667C109.911 60.2222 110.224 58.9375 110.849 57.8125C111.474 56.6736 112.342 55.7917 113.453 55.1667C114.578 54.5278 115.849 54.2083 117.265 54.2083C119.001 54.2083 120.487 54.6667 121.724 55.5833C122.96 56.5 123.786 57.75 124.203 59.3333H120.286C119.994 58.7222 119.578 58.2569 119.036 57.9375C118.508 57.6181 117.904 57.4583 117.224 57.4583C116.126 57.4583 115.237 57.8403 114.557 58.6042C113.876 59.3681 113.536 60.3889 113.536 61.6667C113.536 62.9444 113.876 63.9653 114.557 64.7292C115.237 65.4931 116.126 65.875 117.224 65.875C117.904 65.875 118.508 65.7153 119.036 65.3958C119.578 65.0764 119.994 64.6111 120.286 64H124.203C123.786 65.5833 122.96 66.8333 121.724 67.75C120.487 68.6528 119.001 69.1042 117.265 69.1042C115.849 69.1042 114.578 68.7917 113.453 68.1667C112.342 67.5278 111.474 66.6458 110.849 65.5208C110.224 64.3958 109.911 63.1111 109.911 61.6667ZM129.947 53.5833V69H126.384V53.5833H129.947ZM131.82 63.1667C131.82 61.9722 132.042 60.9236 132.487 60.0208C132.945 59.1181 133.563 58.4236 134.341 57.9375C135.119 57.4514 135.987 57.2083 136.945 57.2083C137.765 57.2083 138.48 57.375 139.091 57.7083C139.716 58.0417 140.195 58.4792 140.529 59.0208V57.375H144.091V69H140.529V67.3542C140.181 67.8958 139.695 68.3333 139.07 68.6667C138.459 69 137.744 69.1667 136.924 69.1667C135.98 69.1667 135.119 68.9236 134.341 68.4375C133.563 67.9375 132.945 67.2361 132.487 66.3333C132.042 65.4167 131.82 64.3611 131.82 63.1667ZM140.529 63.1875C140.529 62.2986 140.279 61.5972 139.779 61.0833C139.292 60.5694 138.695 60.3125 137.987 60.3125C137.279 60.3125 136.674 60.5694 136.174 61.0833C135.688 61.5833 135.445 62.2778 135.445 63.1667C135.445 64.0556 135.688 64.7639 136.174 65.2917C136.674 65.8056 137.279 66.0625 137.987 66.0625C138.695 66.0625 139.292 65.8056 139.779 65.2917C140.279 64.7778 140.529 64.0764 140.529 63.1875ZM151.398 69.1667C150.384 69.1667 149.481 68.9931 148.689 68.6458C147.898 68.2986 147.273 67.8264 146.814 67.2292C146.356 66.6181 146.099 65.9375 146.043 65.1875H149.564C149.606 65.5903 149.793 65.9167 150.127 66.1667C150.46 66.4167 150.87 66.5417 151.356 66.5417C151.8 66.5417 152.141 66.4583 152.377 66.2917C152.627 66.1111 152.752 65.8819 152.752 65.6042C152.752 65.2708 152.578 65.0278 152.231 64.875C151.884 64.7083 151.321 64.5278 150.543 64.3333C149.71 64.1389 149.016 63.9375 148.46 63.7292C147.904 63.5069 147.425 63.1667 147.023 62.7083C146.62 62.2361 146.418 61.6042 146.418 60.8125C146.418 60.1458 146.599 59.5417 146.96 59C147.335 58.4444 147.877 58.0069 148.585 57.6875C149.307 57.3681 150.161 57.2083 151.148 57.2083C152.606 57.2083 153.752 57.5694 154.585 58.2917C155.432 59.0139 155.918 59.9722 156.043 61.1667H152.752C152.696 60.7639 152.516 60.4444 152.21 60.2083C151.918 59.9722 151.529 59.8542 151.043 59.8542C150.627 59.8542 150.307 59.9375 150.085 60.1042C149.863 60.2569 149.752 60.4722 149.752 60.75C149.752 61.0833 149.925 61.3333 150.273 61.5C150.634 61.6667 151.189 61.8333 151.939 62C152.8 62.2222 153.502 62.4444 154.043 62.6667C154.585 62.875 155.057 63.2222 155.46 63.7083C155.877 64.1806 156.092 64.8194 156.106 65.625C156.106 66.3056 155.911 66.9167 155.523 67.4583C155.148 67.9861 154.599 68.4028 153.877 68.7083C153.168 69.0139 152.342 69.1667 151.398 69.1667ZM163.015 69.1667C162.001 69.1667 161.098 68.9931 160.306 68.6458C159.515 68.2986 158.89 67.8264 158.431 67.2292C157.973 66.6181 157.716 65.9375 157.66 65.1875H161.181C161.223 65.5903 161.41 65.9167 161.744 66.1667C162.077 66.4167 162.487 66.5417 162.973 66.5417C163.417 66.5417 163.758 66.4583 163.994 66.2917C164.244 66.1111 164.369 65.8819 164.369 65.6042C164.369 65.2708 164.195 65.0278 163.848 64.875C163.501 64.7083 162.938 64.5278 162.16 64.3333C161.327 64.1389 160.633 63.9375 160.077 63.7292C159.521 63.5069 159.042 63.1667 158.64 62.7083C158.237 62.2361 158.035 61.6042 158.035 60.8125C158.035 60.1458 158.216 59.5417 158.577 59C158.952 58.4444 159.494 58.0069 160.202 57.6875C160.924 57.3681 161.778 57.2083 162.765 57.2083C164.223 57.2083 165.369 57.5694 166.202 58.2917C167.049 59.0139 167.535 59.9722 167.66 61.1667H164.369C164.313 60.7639 164.133 60.4444 163.827 60.2083C163.535 59.9722 163.146 59.8542 162.66 59.8542C162.244 59.8542 161.924 59.9375 161.702 60.1042C161.48 60.2569 161.369 60.4722 161.369 60.75C161.369 61.0833 161.542 61.3333 161.89 61.5C162.251 61.6667 162.806 61.8333 163.556 62C164.417 62.2222 165.119 62.4444 165.66 62.6667C166.202 62.875 166.674 63.2222 167.077 63.7083C167.494 64.1806 167.709 64.8194 167.723 65.625C167.723 66.3056 167.528 66.9167 167.14 67.4583C166.765 67.9861 166.216 68.4028 165.494 68.7083C164.785 69.0139 163.959 69.1667 163.015 69.1667Z" fill="#EE765A"/>
</svg>
