<svg width="230" height="130" viewBox="0 0 230 130" fill="none" xmlns="http://www.w3.org/2000/svg">
<rect width="230" height="130" rx="10" fill="#EE765A"/>
<path d="M64.4375 61.0833C64.4375 61.9306 64.2431 62.7083 63.8542 63.4167C63.4653 64.1111 62.8681 64.6736 62.0625 65.1042C61.2569 65.5347 60.2569 65.75 59.0625 65.75H56.8542V71H53.2917V56.375H59.0625C60.2292 56.375 61.2153 56.5764 62.0208 56.9792C62.8264 57.3819 63.4306 57.9375 63.8333 58.6458C64.2361 59.3542 64.4375 60.1667 64.4375 61.0833ZM58.7917 62.9167C59.4722 62.9167 59.9792 62.7569 60.3125 62.4375C60.6458 62.1181 60.8125 61.6667 60.8125 61.0833C60.8125 60.5 60.6458 60.0486 60.3125 59.7292C59.9792 59.4097 59.4722 59.25 58.7917 59.25H56.8542V62.9167H58.7917ZM71.5838 71.1667C70.4449 71.1667 69.4171 70.9236 68.5005 70.4375C67.5977 69.9514 66.8824 69.2569 66.3546 68.3542C65.8408 67.4514 65.5838 66.3958 65.5838 65.1875C65.5838 63.9931 65.8477 62.9444 66.3755 62.0417C66.9033 61.125 67.6255 60.4236 68.5421 59.9375C69.4588 59.4514 70.4866 59.2083 71.6255 59.2083C72.7644 59.2083 73.7921 59.4514 74.7088 59.9375C75.6255 60.4236 76.3477 61.125 76.8755 62.0417C77.4033 62.9444 77.6671 63.9931 77.6671 65.1875C77.6671 66.3819 77.3963 67.4375 76.8546 68.3542C76.3269 69.2569 75.5977 69.9514 74.6671 70.4375C73.7505 70.9236 72.7227 71.1667 71.5838 71.1667ZM71.5838 68.0833C72.2644 68.0833 72.8408 67.8333 73.313 67.3333C73.7991 66.8333 74.0421 66.1181 74.0421 65.1875C74.0421 64.2569 73.806 63.5417 73.3338 63.0417C72.8755 62.5417 72.306 62.2917 71.6255 62.2917C70.931 62.2917 70.3546 62.5417 69.8963 63.0417C69.438 63.5278 69.2088 64.2431 69.2088 65.1875C69.2088 66.1181 69.431 66.8333 69.8755 67.3333C70.3338 67.8333 70.9033 68.0833 71.5838 68.0833ZM84.2863 71.1667C83.2724 71.1667 82.3696 70.9931 81.578 70.6458C80.7863 70.2986 80.1613 69.8264 79.703 69.2292C79.2446 68.6181 78.9877 67.9375 78.9321 67.1875H82.453C82.4946 67.5903 82.6821 67.9167 83.0155 68.1667C83.3488 68.4167 83.7585 68.5417 84.2446 68.5417C84.6891 68.5417 85.0293 68.4583 85.2655 68.2917C85.5155 68.1111 85.6405 67.8819 85.6405 67.6042C85.6405 67.2708 85.4668 67.0278 85.1196 66.875C84.7724 66.7083 84.2099 66.5278 83.4321 66.3333C82.5988 66.1389 81.9043 65.9375 81.3488 65.7292C80.7932 65.5069 80.3141 65.1667 79.9113 64.7083C79.5085 64.2361 79.3071 63.6042 79.3071 62.8125C79.3071 62.1458 79.4877 61.5417 79.8488 61C80.2238 60.4444 80.7655 60.0069 81.4738 59.6875C82.196 59.3681 83.0502 59.2083 84.0363 59.2083C85.4946 59.2083 86.6405 59.5694 87.4738 60.2917C88.321 61.0139 88.8071 61.9722 88.9321 63.1667H85.6405C85.5849 62.7639 85.4043 62.4444 85.0988 62.2083C84.8071 61.9722 84.4182 61.8542 83.9321 61.8542C83.5155 61.8542 83.196 61.9375 82.9738 62.1042C82.7516 62.2569 82.6405 62.4722 82.6405 62.75C82.6405 63.0833 82.8141 63.3333 83.1613 63.5C83.5224 63.6667 84.078 63.8333 84.828 64C85.6891 64.2222 86.3905 64.4444 86.9321 64.6667C87.4738 64.875 87.946 65.2222 88.3488 65.7083C88.7654 66.1806 88.9807 66.8194 88.9946 67.625C88.9946 68.3056 88.8002 68.9167 88.4113 69.4583C88.0363 69.9861 87.4877 70.4028 86.7655 70.7083C86.0571 71.0139 85.2307 71.1667 84.2863 71.1667ZM97.6533 67.9792V71H95.8408C94.5491 71 93.5422 70.6875 92.82 70.0625C92.0978 69.4236 91.7366 68.3889 91.7366 66.9583V62.3333H90.32V59.375H91.7366V56.5417H95.2991V59.375H97.6325V62.3333H95.2991V67C95.2991 67.3472 95.3825 67.5972 95.5491 67.75C95.7158 67.9028 95.9936 67.9792 96.3825 67.9792H97.6533ZM108.596 62.2083V65.1667H99.4293V62.2083H108.596ZM111.118 63.6667C111.118 62.2222 111.431 60.9375 112.056 59.8125C112.681 58.6736 113.549 57.7917 114.66 57.1667C115.785 56.5278 117.056 56.2083 118.473 56.2083C120.209 56.2083 121.695 56.6667 122.931 57.5833C124.167 58.5 124.993 59.75 125.41 61.3333H121.493C121.202 60.7222 120.785 60.2569 120.243 59.9375C119.716 59.6181 119.112 59.4583 118.431 59.4583C117.334 59.4583 116.445 59.8403 115.764 60.6042C115.084 61.3681 114.743 62.3889 114.743 63.6667C114.743 64.9444 115.084 65.9653 115.764 66.7292C116.445 67.4931 117.334 67.875 118.431 67.875C119.112 67.875 119.716 67.7153 120.243 67.3958C120.785 67.0764 121.202 66.6111 121.493 66H125.41C124.993 67.5833 124.167 68.8333 122.931 69.75C121.695 70.6528 120.209 71.1042 118.473 71.1042C117.056 71.1042 115.785 70.7917 114.66 70.1667C113.549 69.5278 112.681 68.6458 112.056 67.5208C111.431 66.3958 111.118 65.1111 111.118 63.6667ZM131.154 55.5833V71H127.592V55.5833H131.154ZM133.028 65.1667C133.028 63.9722 133.25 62.9236 133.694 62.0208C134.153 61.1181 134.771 60.4236 135.548 59.9375C136.326 59.4514 137.194 59.2083 138.153 59.2083C138.972 59.2083 139.687 59.375 140.298 59.7083C140.923 60.0417 141.403 60.4792 141.736 61.0208V59.375H145.298V71H141.736V69.3542C141.389 69.8958 140.903 70.3333 140.278 70.6667C139.667 71 138.951 71.1667 138.132 71.1667C137.187 71.1667 136.326 70.9236 135.548 70.4375C134.771 69.9375 134.153 69.2361 133.694 68.3333C133.25 67.4167 133.028 66.3611 133.028 65.1667ZM141.736 65.1875C141.736 64.2986 141.486 63.5972 140.986 63.0833C140.5 62.5694 139.903 62.3125 139.194 62.3125C138.486 62.3125 137.882 62.5694 137.382 63.0833C136.896 63.5833 136.653 64.2778 136.653 65.1667C136.653 66.0556 136.896 66.7639 137.382 67.2917C137.882 67.8056 138.486 68.0625 139.194 68.0625C139.903 68.0625 140.5 67.8056 140.986 67.2917C141.486 66.7778 141.736 66.0764 141.736 65.1875ZM152.605 71.1667C151.591 71.1667 150.688 70.9931 149.897 70.6458C149.105 70.2986 148.48 69.8264 148.022 69.2292C147.563 68.6181 147.306 67.9375 147.251 67.1875H150.772C150.813 67.5903 151.001 67.9167 151.334 68.1667C151.667 68.4167 152.077 68.5417 152.563 68.5417C153.008 68.5417 153.348 68.4583 153.584 68.2917C153.834 68.1111 153.959 67.8819 153.959 67.6042C153.959 67.2708 153.786 67.0278 153.438 66.875C153.091 66.7083 152.529 66.5278 151.751 66.3333C150.917 66.1389 150.223 65.9375 149.667 65.7292C149.112 65.5069 148.633 65.1667 148.23 64.7083C147.827 64.2361 147.626 63.6042 147.626 62.8125C147.626 62.1458 147.806 61.5417 148.167 61C148.542 60.4444 149.084 60.0069 149.792 59.6875C150.515 59.3681 151.369 59.2083 152.355 59.2083C153.813 59.2083 154.959 59.5694 155.792 60.2917C156.64 61.0139 157.126 61.9722 157.251 63.1667H153.959C153.904 62.7639 153.723 62.4444 153.417 62.2083C153.126 61.9722 152.737 61.8542 152.251 61.8542C151.834 61.8542 151.515 61.9375 151.292 62.1042C151.07 62.2569 150.959 62.4722 150.959 62.75C150.959 63.0833 151.133 63.3333 151.48 63.5C151.841 63.6667 152.397 63.8333 153.147 64C154.008 64.2222 154.709 64.4444 155.251 64.6667C155.792 64.875 156.265 65.2222 156.667 65.7083C157.084 66.1806 157.299 66.8194 157.313 67.625C157.313 68.3056 157.119 68.9167 156.73 69.4583C156.355 69.9861 155.806 70.4028 155.084 70.7083C154.376 71.0139 153.549 71.1667 152.605 71.1667ZM164.222 71.1667C163.208 71.1667 162.305 70.9931 161.514 70.6458C160.722 70.2986 160.097 69.8264 159.639 69.2292C159.18 68.6181 158.923 67.9375 158.868 67.1875H162.389C162.43 67.5903 162.618 67.9167 162.951 68.1667C163.284 68.4167 163.694 68.5417 164.18 68.5417C164.625 68.5417 164.965 68.4583 165.201 68.2917C165.451 68.1111 165.576 67.8819 165.576 67.6042C165.576 67.2708 165.403 67.0278 165.055 66.875C164.708 66.7083 164.146 66.5278 163.368 66.3333C162.534 66.1389 161.84 65.9375 161.284 65.7292C160.729 65.5069 160.25 65.1667 159.847 64.7083C159.444 64.2361 159.243 63.6042 159.243 62.8125C159.243 62.1458 159.423 61.5417 159.784 61C160.159 60.4444 160.701 60.0069 161.409 59.6875C162.132 59.3681 162.986 59.2083 163.972 59.2083C165.43 59.2083 166.576 59.5694 167.409 60.2917C168.257 61.0139 168.743 61.9722 168.868 63.1667H165.576C165.521 62.7639 165.34 62.4444 165.034 62.2083C164.743 61.9722 164.354 61.8542 163.868 61.8542C163.451 61.8542 163.132 61.9375 162.909 62.1042C162.687 62.2569 162.576 62.4722 162.576 62.75C162.576 63.0833 162.75 63.3333 163.097 63.5C163.458 63.6667 164.014 63.8333 164.764 64C165.625 64.2222 166.326 64.4444 166.868 64.6667C167.409 64.875 167.882 65.2222 168.284 65.7083C168.701 66.1806 168.916 66.8194 168.93 67.625C168.93 68.3056 168.736 68.9167 168.347 69.4583C167.972 69.9861 167.423 70.4028 166.701 70.7083C165.993 71.0139 165.166 71.1667 164.222 71.1667Z" fill="white"/>
</svg>
