<svg width="220" height="106" viewBox="0 0 220 106" fill="none" xmlns="http://www.w3.org/2000/svg">
<path d="M48.6248 99.919C46.8728 99.919 45.2888 99.619 43.8728 99.019C42.4808 98.419 41.3768 97.555 40.5608 96.427C39.7448 95.299 39.3248 93.967 39.3008 92.431H44.7008C44.7728 93.463 45.1328 94.279 45.7808 94.879C46.4528 95.479 47.3648 95.779 48.5168 95.779C49.6928 95.779 50.6168 95.503 51.2888 94.951C51.9608 94.375 52.2968 93.631 52.2968 92.719C52.2968 91.975 52.0688 91.363 51.6128 90.883C51.1568 90.403 50.5808 90.031 49.8848 89.767C49.2128 89.479 48.2768 89.167 47.0768 88.831C45.4448 88.351 44.1128 87.883 43.0808 87.427C42.0728 86.947 41.1968 86.239 40.4528 85.303C39.7328 84.343 39.3728 83.071 39.3728 81.487C39.3728 79.999 39.7448 78.703 40.4888 77.599C41.2328 76.495 42.2768 75.655 43.6208 75.079C44.9648 74.479 46.5008 74.179 48.2288 74.179C50.8208 74.179 52.9208 74.815 54.5288 76.087C56.1608 77.335 57.0608 79.087 57.2288 81.343H51.6848C51.6368 80.479 51.2648 79.771 50.5688 79.219C49.8968 78.643 48.9968 78.355 47.8688 78.355C46.8848 78.355 46.0928 78.607 45.4928 79.111C44.9168 79.615 44.6288 80.347 44.6288 81.307C44.6288 81.979 44.8448 82.543 45.2768 82.999C45.7328 83.431 46.2848 83.791 46.9328 84.079C47.6048 84.343 48.5408 84.655 49.7408 85.015C51.3728 85.495 52.7048 85.975 53.7368 86.455C54.7688 86.935 55.6568 87.655 56.4008 88.615C57.1448 89.575 57.5168 90.835 57.5168 92.395C57.5168 93.739 57.1688 94.987 56.4728 96.139C55.7768 97.291 54.7568 98.215 53.4128 98.911C52.0688 99.583 50.4728 99.919 48.6248 99.919ZM67.7543 83.863V93.511C67.7543 94.183 67.9103 94.675 68.2223 94.987C68.5583 95.275 69.1103 95.419 69.8783 95.419H72.2183V99.667H69.0503C64.8023 99.667 62.6783 97.603 62.6783 93.475V83.863H60.3023V79.723H62.6783V74.791H67.7543V79.723H72.2183V83.863H67.7543ZM94.6714 79.723V99.667H89.5954V97.147C88.9474 98.011 88.0954 98.695 87.0394 99.199C86.0074 99.679 84.8794 99.919 83.6554 99.919C82.0954 99.919 80.7154 99.595 79.5154 98.947C78.3154 98.275 77.3674 97.303 76.6714 96.031C75.9994 94.735 75.6634 93.199 75.6634 91.423V79.723H80.7034V90.703C80.7034 92.287 81.0994 93.511 81.8914 94.375C82.6834 95.215 83.7634 95.635 85.1314 95.635C86.5234 95.635 87.6154 95.215 88.4074 94.375C89.1994 93.511 89.5954 92.287 89.5954 90.703V79.723H94.6714ZM98.3482 89.623C98.3482 87.607 98.7442 85.819 99.5362 84.259C100.352 82.699 101.456 81.499 102.848 80.659C104.24 79.819 105.788 79.399 107.492 79.399C108.788 79.399 110.024 79.687 111.2 80.263C112.376 80.815 113.312 81.559 114.008 82.495V73.027H119.12V99.667H114.008V96.715C113.384 97.699 112.508 98.491 111.38 99.091C110.252 99.691 108.944 99.991 107.456 99.991C105.776 99.991 104.24 99.559 102.848 98.695C101.456 97.831 100.352 96.619 99.5362 95.059C98.7442 93.475 98.3482 91.663 98.3482 89.623ZM114.044 89.695C114.044 88.471 113.804 87.427 113.324 86.563C112.844 85.675 112.196 85.003 111.38 84.547C110.564 84.067 109.688 83.827 108.752 83.827C107.816 83.827 106.952 84.055 106.16 84.511C105.368 84.967 104.72 85.639 104.216 86.527C103.736 87.391 103.496 88.423 103.496 89.623C103.496 90.823 103.736 91.879 104.216 92.791C104.72 93.679 105.368 94.363 106.16 94.843C106.976 95.323 107.84 95.563 108.752 95.563C109.688 95.563 110.564 95.335 111.38 94.879C112.196 94.399 112.844 93.727 113.324 92.863C113.804 91.975 114.044 90.919 114.044 89.695ZM142.583 89.263C142.583 89.983 142.535 90.631 142.439 91.207H127.859C127.979 92.647 128.483 93.775 129.371 94.591C130.259 95.407 131.351 95.815 132.647 95.815C134.519 95.815 135.851 95.011 136.643 93.403H142.079C141.503 95.323 140.399 96.907 138.767 98.155C137.135 99.379 135.131 99.991 132.755 99.991C130.835 99.991 129.107 99.571 127.571 98.731C126.059 97.867 124.871 96.655 124.007 95.095C123.167 93.535 122.747 91.735 122.747 89.695C122.747 87.631 123.167 85.819 124.007 84.259C124.847 82.699 126.023 81.499 127.535 80.659C129.047 79.819 130.787 79.399 132.755 79.399C134.651 79.399 136.343 79.807 137.831 80.623C139.343 81.439 140.507 82.603 141.323 84.115C142.163 85.603 142.583 87.319 142.583 89.263ZM137.363 87.823C137.339 86.527 136.871 85.495 135.959 84.727C135.047 83.935 133.931 83.539 132.611 83.539C131.363 83.539 130.307 83.923 129.443 84.691C128.603 85.435 128.087 86.479 127.895 87.823H137.363ZM157.313 79.435C159.689 79.435 161.609 80.191 163.073 81.703C164.537 83.191 165.269 85.279 165.269 87.967V99.667H160.229V88.651C160.229 87.067 159.833 85.855 159.041 85.015C158.249 84.151 157.169 83.719 155.801 83.719C154.409 83.719 153.305 84.151 152.489 85.015C151.697 85.855 151.301 87.067 151.301 88.651V99.667H146.261V79.723H151.301V82.207C151.973 81.343 152.825 80.671 153.857 80.191C154.913 79.687 156.065 79.435 157.313 79.435ZM175.93 83.863V93.511C175.93 94.183 176.086 94.675 176.398 94.987C176.734 95.275 177.286 95.419 178.054 95.419H180.394V99.667H177.226C172.978 99.667 170.854 97.603 170.854 93.475V83.863H168.478V79.723H170.854V74.791H175.93V79.723H180.394V83.863H175.93Z" fill="#D8CFCF"/>
<g clip-path="url(#clip0)">
<path d="M108.415 3.87109C95.5049 3.87109 92.5703 16.7619 92.4507 32.8314C92.4458 33.5 92.8409 34.1022 93.4466 34.3836C95.728 35.4435 99.782 36.2627 102.931 36.7496H113.899C117.049 36.2627 121.103 35.4433 123.384 34.3836C123.989 34.1024 124.385 33.5001 124.38 32.8314C124.26 16.7618 121.326 3.87109 108.415 3.87109Z" fill="#694B4B"/>
<path d="M92.4507 32.8314C92.4458 33.5 92.8409 34.1022 93.4466 34.3836C95.728 35.4435 99.782 36.2627 102.931 36.7496H108.415V17.9833C108.415 17.9833 102.002 18.2944 103.254 17.9833C108.415 16.7003 118.738 10.2857 112.735 4.43934C111.436 4.06816 110.002 3.87109 108.415 3.87109C95.5049 3.87124 92.5703 16.7619 92.4507 32.8314Z" fill="#5A4146"/>
<path d="M127.801 66.7345V46.9735C127.801 44.902 126.548 43.0333 124.625 42.2366L115.52 38.4652C114.671 38.1132 114.117 37.2874 114.117 36.3721V33.6323H102.714V36.3721C102.714 37.2874 102.16 38.113 101.31 38.4652L92.206 42.2366C90.2825 43.0335 89.0298 44.9019 89.0298 46.9735V66.7345H127.801Z" fill="#D29B6E"/>
<path d="M124.625 42.2362L118.224 39.585C115.868 42.4121 113.532 44.5451 111.498 46.1086H105.332C103.298 44.545 100.962 42.4119 98.6061 39.585L92.206 42.2362C90.2825 43.0329 89.0298 44.9015 89.0298 46.9731V66.7341H127.801V46.9731C127.801 44.9015 126.548 43.0329 124.625 42.2362Z" fill="#FFDC64"/>
<path d="M89.7705 44.3481C89.3023 45.1274 89.0298 46.0258 89.0298 46.9731V66.734H96.802V51.339L89.7705 44.3481Z" fill="#FFC850"/>
<path d="M127.06 44.3481C127.528 45.1274 127.801 46.0258 127.801 46.9731V66.734H120.029V51.339L127.06 44.3481Z" fill="#FFC850"/>
<path d="M119.734 19.5397L118.897 28.6922C118.76 30.1867 117.889 31.5172 116.569 32.2459L110.63 35.5261C109.253 36.2871 107.578 36.2871 106.2 35.5261L100.261 32.2459C98.9421 31.5172 98.0707 30.1867 97.9341 28.6922L97.126 19.8541C97.0633 19.1687 97.5537 18.5586 98.2413 18.4788C101.287 18.1254 109.286 17.0169 114.127 14.6793C114.74 14.3836 115.458 14.622 115.797 15.2086C116.352 16.1676 117.377 17.509 119.057 18.3046C119.522 18.5248 119.78 19.0299 119.734 19.5397Z" fill="#F0C087"/>
<path d="M144.545 70.5009H72.2851C71.5725 70.5009 70.9946 69.9264 70.9946 69.2179V66.6521C70.9946 65.9436 71.5725 65.3691 72.2851 65.3691H144.546C145.258 65.3691 145.836 65.9436 145.836 66.6521V69.2179C145.836 69.9266 145.258 70.5009 144.545 70.5009Z" fill="#F5DCB4"/>
<path d="M97.1258 19.8542L97.9338 28.6924C98.0705 30.1868 98.9417 31.5172 100.261 32.246L106.2 35.5263C106.744 35.8265 107.337 35.9736 107.936 36.0367L106.265 31.8831C105.98 31.1733 105.802 30.4255 105.738 29.6636L105.028 21.1893C104.973 20.5399 105.416 19.9593 106.057 19.8269C108.806 19.2601 111.747 18.4894 114.194 17.4636C115.001 18.5729 116.21 19.7987 117.947 20.6212C118.295 20.786 118.46 20.8611 119.604 20.9544L119.733 19.5395C119.78 19.0273 119.517 18.523 119.05 18.3014C117.374 17.5056 116.351 16.1663 115.797 15.2086C115.458 14.622 114.739 14.3836 114.127 14.6793C109.286 17.0171 101.287 18.1254 98.2409 18.4788C97.5536 18.5588 97.063 19.1687 97.1258 19.8542Z" fill="#E6AF78"/>
<path d="M96.6189 41.222C98.8222 43.8655 101.223 46.1926 103.753 48.1384L104.451 48.6745H105.332H111.498H112.38L113.077 48.1384C115.608 46.1927 118.008 43.8657 120.211 41.222L120.716 40.6171L118.224 39.585C115.868 42.4121 113.532 44.5451 111.498 46.1086H105.332C103.298 44.545 100.962 42.4119 98.6059 39.585L96.1145 40.6171L96.6189 41.222Z" fill="#FFC850"/>
<path d="M120.028 65.4514H96.8019C95.3766 65.4514 94.2212 64.3028 94.2212 62.8856V47.4906C94.2212 46.0735 95.3766 44.9248 96.8019 44.9248H120.029C121.454 44.9248 122.609 46.0735 122.609 47.4906V62.8856C122.609 64.3028 121.454 65.4514 120.028 65.4514Z" fill="#D5DCED"/>
<path d="M108.415 57.7537C109.84 57.7537 110.996 56.6049 110.996 55.1879C110.996 53.7708 109.84 52.6221 108.415 52.6221C106.99 52.6221 105.834 53.7708 105.834 55.1879C105.834 56.6049 106.99 57.7537 108.415 57.7537Z" fill="white"/>
</g>
<defs>
<clipPath id="clip0">
<rect width="74.8413" height="74.4093" fill="white" transform="translate(70.9946 0.0224609)"/>
</clipPath>
</defs>
</svg>
