<svg width="189" height="94" viewBox="0 0 189 94" fill="none" xmlns="http://www.w3.org/2000/svg">
<path d="M33.6248 93.252C31.8728 93.252 30.2888 92.952 28.8728 92.352C27.4808 91.752 26.3768 90.888 25.5608 89.76C24.7448 88.632 24.3248 87.3 24.3008 85.764H29.7008C29.7728 86.796 30.1328 87.612 30.7808 88.212C31.4528 88.812 32.3648 89.112 33.5168 89.112C34.6928 89.112 35.6168 88.836 36.2888 88.284C36.9608 87.708 37.2968 86.964 37.2968 86.052C37.2968 85.308 37.0688 84.696 36.6128 84.216C36.1568 83.736 35.5808 83.364 34.8848 83.1C34.2128 82.812 33.2768 82.5 32.0768 82.164C30.4448 81.684 29.1128 81.216 28.0808 80.76C27.0728 80.28 26.1968 79.572 25.4528 78.636C24.7328 77.676 24.3728 76.404 24.3728 74.82C24.3728 73.332 24.7448 72.036 25.4888 70.932C26.2328 69.828 27.2768 68.988 28.6208 68.412C29.9648 67.812 31.5008 67.512 33.2288 67.512C35.8208 67.512 37.9208 68.148 39.5288 69.42C41.1608 70.668 42.0608 72.42 42.2288 74.676H36.6848C36.6368 73.812 36.2648 73.104 35.5688 72.552C34.8968 71.976 33.9968 71.688 32.8688 71.688C31.8848 71.688 31.0928 71.94 30.4928 72.444C29.9168 72.948 29.6288 73.68 29.6288 74.64C29.6288 75.312 29.8448 75.876 30.2768 76.332C30.7328 76.764 31.2848 77.124 31.9328 77.412C32.6048 77.676 33.5408 77.988 34.7408 78.348C36.3728 78.828 37.7048 79.308 38.7368 79.788C39.7688 80.268 40.6568 80.988 41.4008 81.948C42.1448 82.908 42.5168 84.168 42.5168 85.728C42.5168 87.072 42.1688 88.32 41.4728 89.472C40.7768 90.624 39.7568 91.548 38.4128 92.244C37.0688 92.916 35.4728 93.252 33.6248 93.252ZM52.7543 77.196V86.844C52.7543 87.516 52.9103 88.008 53.2223 88.32C53.5583 88.608 54.1103 88.752 54.8783 88.752H57.2183V93H54.0503C49.8023 93 47.6783 90.936 47.6783 86.808V77.196H45.3023V73.056H47.6783V68.124H52.7543V73.056H57.2183V77.196H52.7543ZM79.6714 73.056V93H74.5954V90.48C73.9474 91.344 73.0954 92.028 72.0394 92.532C71.0074 93.012 69.8794 93.252 68.6554 93.252C67.0954 93.252 65.7154 92.928 64.5154 92.28C63.3154 91.608 62.3674 90.636 61.6714 89.364C60.9994 88.068 60.6634 86.532 60.6634 84.756V73.056H65.7034V84.036C65.7034 85.62 66.0994 86.844 66.8914 87.708C67.6834 88.548 68.7634 88.968 70.1314 88.968C71.5234 88.968 72.6154 88.548 73.4074 87.708C74.1994 86.844 74.5954 85.62 74.5954 84.036V73.056H79.6714ZM83.3482 82.956C83.3482 80.94 83.7442 79.152 84.5362 77.592C85.3522 76.032 86.4562 74.832 87.8482 73.992C89.2402 73.152 90.7882 72.732 92.4922 72.732C93.7882 72.732 95.0242 73.02 96.2002 73.596C97.3762 74.148 98.3122 74.892 99.0082 75.828V66.36H104.12V93H99.0082V90.048C98.3842 91.032 97.5082 91.824 96.3802 92.424C95.2522 93.024 93.9442 93.324 92.4562 93.324C90.7762 93.324 89.2402 92.892 87.8482 92.028C86.4562 91.164 85.3522 89.952 84.5362 88.392C83.7442 86.808 83.3482 84.996 83.3482 82.956ZM99.0442 83.028C99.0442 81.804 98.8042 80.76 98.3242 79.896C97.8442 79.008 97.1962 78.336 96.3802 77.88C95.5642 77.4 94.6882 77.16 93.7522 77.16C92.8162 77.16 91.9522 77.388 91.1602 77.844C90.3682 78.3 89.7202 78.972 89.2162 79.86C88.7362 80.724 88.4962 81.756 88.4962 82.956C88.4962 84.156 88.7362 85.212 89.2162 86.124C89.7202 87.012 90.3682 87.696 91.1602 88.176C91.9762 88.656 92.8402 88.896 93.7522 88.896C94.6882 88.896 95.5642 88.668 96.3802 88.212C97.1962 87.732 97.8442 87.06 98.3242 86.196C98.8042 85.308 99.0442 84.252 99.0442 83.028ZM127.583 82.596C127.583 83.316 127.535 83.964 127.439 84.54H112.859C112.979 85.98 113.483 87.108 114.371 87.924C115.259 88.74 116.351 89.148 117.647 89.148C119.519 89.148 120.851 88.344 121.643 86.736H127.079C126.503 88.656 125.399 90.24 123.767 91.488C122.135 92.712 120.131 93.324 117.755 93.324C115.835 93.324 114.107 92.904 112.571 92.064C111.059 91.2 109.871 89.988 109.007 88.428C108.167 86.868 107.747 85.068 107.747 83.028C107.747 80.964 108.167 79.152 109.007 77.592C109.847 76.032 111.023 74.832 112.535 73.992C114.047 73.152 115.787 72.732 117.755 72.732C119.651 72.732 121.343 73.14 122.831 73.956C124.343 74.772 125.507 75.936 126.323 77.448C127.163 78.936 127.583 80.652 127.583 82.596ZM122.363 81.156C122.339 79.86 121.871 78.828 120.959 78.06C120.047 77.268 118.931 76.872 117.611 76.872C116.363 76.872 115.307 77.256 114.443 78.024C113.603 78.768 113.087 79.812 112.895 81.156H122.363ZM142.313 72.768C144.689 72.768 146.609 73.524 148.073 75.036C149.537 76.524 150.269 78.612 150.269 81.3V93H145.229V81.984C145.229 80.4 144.833 79.188 144.041 78.348C143.249 77.484 142.169 77.052 140.801 77.052C139.409 77.052 138.305 77.484 137.489 78.348C136.697 79.188 136.301 80.4 136.301 81.984V93H131.261V73.056H136.301V75.54C136.973 74.676 137.825 74.004 138.857 73.524C139.913 73.02 141.065 72.768 142.313 72.768ZM160.93 77.196V86.844C160.93 87.516 161.086 88.008 161.398 88.32C161.734 88.608 162.286 88.752 163.054 88.752H165.394V93H162.226C157.978 93 155.854 90.936 155.854 86.808V77.196H153.478V73.056H155.854V68.124H160.93V73.056H165.394V77.196H160.93Z" fill="#D8CFCF"/>
<g clip-path="url(#clip0)">
<path d="M93.5001 3.56885C81.5973 3.56885 78.8918 15.5226 78.7815 30.4239C78.777 31.0438 79.1412 31.6023 79.6997 31.8632C81.803 32.846 85.5406 33.6057 88.4441 34.0571H98.5561C101.46 33.6057 105.197 32.8459 107.301 31.8632C107.859 31.6024 108.223 31.0439 108.219 30.4239C108.108 15.5224 105.403 3.56885 93.5001 3.56885Z" fill="#694B4B"/>
<path d="M78.7815 30.4239C78.777 31.0438 79.1412 31.6022 79.6997 31.8632C81.803 32.846 85.5406 33.6057 88.4441 34.0571H93.5001V16.6551C93.5001 16.6551 87.5874 16.9437 88.7415 16.6551C93.5001 15.4654 103.017 9.51713 97.4824 4.09578C96.2853 3.75159 94.9628 3.56885 93.5002 3.56885C81.5973 3.56898 78.8918 15.5226 78.7815 30.4239Z" fill="#5A4146"/>
<path d="M111.372 61.8622V43.5379C111.372 41.6169 110.217 39.8841 108.444 39.1453L100.05 35.648C99.267 35.3216 98.7566 34.5559 98.7566 33.7071V31.1665H88.2433V33.7071C88.2433 34.5559 87.7329 35.3215 86.9494 35.648L78.5558 39.1453C76.7824 39.8842 75.6274 41.6168 75.6274 43.5379V61.8622H111.372Z" fill="#D29B6E"/>
<path d="M108.444 39.1451L102.544 36.6865C100.371 39.3081 98.2175 41.2861 96.3424 42.7359H90.6575C88.7825 41.2859 86.6286 39.308 84.4563 36.6865L78.5558 39.1451C76.7824 39.8838 75.6274 41.6165 75.6274 43.5376V61.862H111.373V43.5376C111.372 41.6165 110.217 39.8838 108.444 39.1451Z" fill="#FFDC64"/>
<path d="M76.3103 41.1035C75.8786 41.8261 75.6274 42.6593 75.6274 43.5377V61.862H82.7931V47.5861L76.3103 41.1035Z" fill="#FFC850"/>
<path d="M110.69 41.1035C111.121 41.8261 111.372 42.6593 111.372 43.5377V61.862H104.207V47.5861L110.69 41.1035Z" fill="#FFC850"/>
<path d="M103.935 18.0986L103.163 26.5857C103.037 27.9715 102.234 29.2053 101.018 29.881L95.5423 32.9228C94.2722 33.6284 92.7279 33.6284 91.4579 32.9228L85.9826 29.881C84.7662 29.2053 83.9629 27.9715 83.8369 26.5857L83.0919 18.3901C83.0341 17.7545 83.4862 17.1888 84.1202 17.1148C86.928 16.787 94.3029 15.7592 98.7663 13.5915C99.3309 13.3172 99.993 13.5384 100.306 14.0823C100.818 14.9716 101.762 16.2155 103.311 16.9532C103.739 17.1574 103.978 17.6258 103.935 18.0986Z" fill="#F0C087"/>
<path d="M126.81 65.3549H60.1897C59.5327 65.3549 59 64.8222 59 64.1652V61.7859C59 61.1289 59.5327 60.5962 60.1897 60.5962H126.81C127.467 60.5962 128 61.1289 128 61.7859V64.1652C128 64.8223 127.467 65.3549 126.81 65.3549Z" fill="#F5DCB4"/>
<path d="M83.0916 18.3902L83.8366 26.5858C83.9626 27.9716 84.7658 29.2053 85.9824 29.8811L91.4576 32.9229C91.9588 33.2013 92.5056 33.3377 93.0584 33.3962L91.5176 29.5446C91.2544 28.8864 91.0907 28.1929 91.0318 27.4865L90.3768 19.6281C90.3267 19.026 90.7345 18.4876 91.326 18.3649C93.8605 17.8393 96.572 17.1246 98.8281 16.1733C99.5721 17.202 100.686 18.3387 102.288 19.1013C102.609 19.2542 102.761 19.3238 103.815 19.4104L103.935 18.0983C103.978 17.6234 103.735 17.1557 103.305 16.9502C101.759 16.2122 100.817 14.9704 100.306 14.0823C99.9927 13.5384 99.3305 13.3172 98.766 13.5915C94.3025 15.7593 86.9279 16.787 84.1198 17.1148C83.4861 17.1889 83.0338 17.7545 83.0916 18.3902Z" fill="#E6AF78"/>
<path d="M82.6243 38.2045C84.6556 40.6559 86.8687 42.8138 89.2019 44.6181L89.8447 45.1153H90.6574H96.3423H97.155L97.7978 44.6181C100.131 42.8139 102.344 40.656 104.375 38.2045L104.84 37.6436L102.543 36.6865C100.371 39.3081 98.2173 41.2861 96.3422 42.7359H90.6572C88.7822 41.2859 86.6284 39.308 84.4561 36.6865L82.1592 37.6436L82.6243 38.2045Z" fill="#FFC850"/>
<path d="M104.207 60.6726H82.7931C81.479 60.6726 80.4138 59.6074 80.4138 58.2933V44.0175C80.4138 42.7034 81.479 41.6382 82.7931 41.6382H104.207C105.521 41.6382 106.586 42.7034 106.586 44.0175V58.2933C106.586 59.6074 105.521 60.6726 104.207 60.6726Z" fill="#D5DCED"/>
<path d="M93.4999 53.5345C94.8139 53.5345 95.8792 52.4692 95.8792 51.1552C95.8792 49.8411 94.8139 48.7759 93.4999 48.7759C92.1858 48.7759 91.1206 49.8411 91.1206 51.1552C91.1206 52.4692 92.1858 53.5345 93.4999 53.5345Z" fill="white"/>
</g>
<defs>
<clipPath id="clip0">
<rect width="69" height="69" fill="white" transform="translate(59)"/>
</clipPath>
</defs>
</svg>
